{"accessors":{"accessor_16":{"bufferView":"bufferView_22","byteOffset":0,"byteStride":0,"componentType":5123,"count":48,"type":"SCALAR"},"accessor_18":{"bufferView":"bufferView_23","byteOffset":0,"byteStride":12,"componentType":5126,"count":36,"max":[53.0629,10,88.1306],"min":[22.9399,0,71.3816],"type":"VEC3"},"accessor_20":{"bufferView":"bufferView_23","byteOffset":432,"byteStride":12,"componentType":5126,"count":36,"max":[0.999578,1,0.999758],"min":[-0.999921,-1,-0.999644],"type":"VEC3"},"accessor_b0":{"bufferView":"bufferView_b","byteOffset":0,"byteStride":0,"componentType":5123,"count":36,"type":"SCALAR"}},"animations":{},"asset":{"generator":"collada2gltf@cf6371beb0bdc18ba603378d5e40c966da53d385","premultipliedAlpha":true,"profile":{"api":"WebGL","version":"1.0.2"},"version":"1.0"},"bufferViews":{"bufferView_22":{"buffer":"\\data\\3dcity\\miami\\workspace\\gridID_65\\gridID_65","byteLength":96,"byteOffset":0,"target":34963},"bufferView_23":{"buffer":"\\data\\3dcity\\miami\\workspace\\gridID_65\\gridID_65","byteLength":864,"byteOffset":96,"target":34962},"bufferView_b":{"buffer":"buffer_b","byteLength":72,"byteOffset":0,"target":34962}},"buffers":{"\\data\\3dcity\\miami\\workspace\\gridID_65\\gridID_65":{"byteLength":960,"type":"arraybuffer","uri":"data:application/octet-stream;base64,"},"buffer_b":{"type":"arraybuffer","byteLength":72,"uri":"data:application/octet-stream;base64,"}},"materials":{"CityEngineMaterial_601-effect":{"name":"CityEngineMaterial_601","technique":"technique0","values":{"ambient":[1,1,1,1],"diffuse":[1,1,1,1],"emission":[0,0,0,1],"shininess":50,"specular":[0.5,0.5,0.5,1]}}},"meshes":{"mesh_CityEngineMaterial_599-mesh":{"name":"mesh_CityEngineMaterial.599","primitives":[{"attributes":{"NORMAL":"accessor_20","POSITION":"accessor_18","BATCHID":"accessor_b0"},"indices":"accessor_16","material":"CityEngineMaterial_601-effect","mode":4}]}},"nodes":{"CityEngineMaterial":{"children":[],"matrix":[1,0,0,0,0,-1.62921e-7,1,0,0,-1,-1.62921e-7,0,0,0,0,1],"meshes":["mesh_CityEngineMaterial_599-mesh"],"name":"CityEngineMaterial"},"node_1":{"children":["CityEngineMaterial"],"matrix":[1,0,0,0,0,0,-1,0,0,1,0,0,0,0,0,1],"name":"Y_UP_Transform"}},"programs":{"program_0":{"attributes":["a_normal","a_position","a_batchId"],"fragmentShader":"\\data\\3dcity\\miami\\workspace\\gridID_65\\gridID_650FS","vertexShader":"\\data\\3dcity\\miami\\workspace\\gridID_65\\gridID_650VS"}},"scene":"defaultScene","scenes":{"defaultScene":{"nodes":["node_1"]}},"shaders":{"\\data\\3dcity\\miami\\workspace\\gridID_65\\gridID_650FS":{"type":35632,"uri":"data:text/plain;base64,"},"\\data\\3dcity\\miami\\workspace\\gridID_65\\gridID_650VS":{"type":35633,"uri":"data:text/plain;base64,"}},"skins":{},"techniques":{"technique0":{"attributes":{"a_normal":"normal","a_position":"position","a_batchId":"batchId"},"parameters":{"ambient":{"type":35666},"diffuse":{"type":35666},"emission":{"type":35666},"modelViewMatrix":{"semantic":"MODELVIEW","type":35676},"normal":{"semantic":"NORMAL","type":35665},"normalMatrix":{"semantic":"MODELVIEWINVERSETRANSPOSE","type":35675},"position":{"semantic":"POSITION","type":35665},"projectionMatrix":{"semantic":"PROJECTION","type":35676},"shininess":{"type":5126},"specular":{"type":35666},"batchId":{"semantic":"BATCHID","type":5126}},"program":"program_0","states":{"enable":[2929,2884]},"uniforms":{"u_ambient":"ambient","u_diffuse":"diffuse","u_emission":"emission","u_modelViewMatrix":"modelViewMatrix","u_normalMatrix":"normalMatrix","u_projectionMatrix":"projectionMatrix","u_shininess":"shininess","u_specular":"specular"}}}}