{"accessors":{"accessor_16":{"bufferView":"bufferView_82","byteOffset":0,"byteStride":0,"componentType":5123,"count":288,"type":"SCALAR"},"accessor_18":{"bufferView":"bufferView_83","byteOffset":0,"byteStride":12,"componentType":5126,"count":256,"max":[7.07727,49.3304,96.9202],"min":[-49.4295,34.5005,0.103401],"type":"VEC3"},"accessor_20":{"bufferView":"bufferView_83","byteOffset":3072,"byteStride":12,"componentType":5126,"count":256,"max":[0.973385,0.972824,1],"min":[-0.973396,-0.972822,0],"type":"VEC3"},"accessor_36":{"bufferView":"bufferView_82","byteOffset":576,"byteStride":0,"componentType":5123,"count":750,"type":"SCALAR"},"accessor_38":{"bufferView":"bufferView_83","byteOffset":6144,"byteStride":12,"componentType":5126,"count":676,"max":[29.2388,92.3492,96.8361],"min":[-52.0068,39.676,0.0305977],"type":"VEC3"},"accessor_40":{"bufferView":"bufferView_83","byteOffset":14256,"byteStride":12,"componentType":5126,"count":676,"max":[0.975372,0.972827,1],"min":[-0.977877,-0.974232,0],"type":"VEC3"},"accessor_56":{"bufferView":"bufferView_82","byteOffset":2076,"byteStride":0,"componentType":5123,"count":1206,"type":"SCALAR"},"accessor_58":{"bufferView":"bufferView_83","byteOffset":22368,"byteStride":12,"componentType":5126,"count":1102,"max":[22.1053,-47.3821,112.789],"min":[-59.5482,-72.7504,0.25396],"type":"VEC3"},"accessor_60":{"bufferView":"bufferView_83","byteOffset":35592,"byteStride":12,"componentType":5126,"count":1102,"max":[0.981532,0.981119,1],"min":[-0.981495,-0.981301,0],"type":"VEC3"},"accessor_76":{"bufferView":"bufferView_82","byteOffset":4488,"byteStride":0,"componentType":5123,"count":2766,"type":"SCALAR"},"accessor_78":{"bufferView":"bufferView_83","byteOffset":48816,"byteStride":12,"componentType":5126,"count":2503,"max":[18.1433,-31.5304,118.997],"min":[-59.1441,-72.19,0.0624733],"type":"VEC3"},"accessor_80":{"bufferView":"bufferView_83","byteOffset":78852,"byteStride":12,"componentType":5126,"count":2503,"max":[0.97623,0.975728,1],"min":[-0.979582,-0.975685,-0.00000326642],"type":"VEC3"},"accessor_b0":{"bufferView":"bufferView_b","byteOffset":0,"byteStride":0,"componentType":5123,"count":256,"type":"SCALAR"},"accessor_b1":{"bufferView":"bufferView_b","byteOffset":512,"byteStride":0,"componentType":5123,"count":676,"type":"SCALAR"},"accessor_b2":{"bufferView":"bufferView_b","byteOffset":1864,"byteStride":0,"componentType":5123,"count":1102,"type":"SCALAR"},"accessor_b3":{"bufferView":"bufferView_b","byteOffset":4068,"byteStride":0,"componentType":5123,"count":2503,"type":"SCALAR"}},"animations":{},"asset":{"generator":"collada2gltf@cf6371beb0bdc18ba603378d5e40c966da53d385","premultipliedAlpha":true,"profile":{"api":"WebGL","version":"1.0.2"},"version":"1.0"},"bufferViews":{"bufferView_82":{"buffer":"\\data\\3dcity\\miami\\workspace\\gridID_41\\gridID_41_high","byteLength":10020,"byteOffset":0,"target":34963},"bufferView_83":{"buffer":"\\data\\3dcity\\miami\\workspace\\gridID_41\\gridID_41_high","byteLength":108888,"byteOffset":10020,"target":34962},"bufferView_b":{"buffer":"buffer_b","byteLength":9074,"byteOffset":0,"target":34962}},"buffers":{"\\data\\3dcity\\miami\\workspace\\gridID_41\\gridID_41_high":{"byteLength":118908,"type":"arraybuffer","uri":"data:application/octet-stream;base64,"},"buffer_b":{"type":"arraybuffer","byteLength":9074,"uri":"data:application/octet-stream;base64,"}},"materials":{"__glTF__defaultMaterial0":{"name":"__glTF__defaultMaterial0","technique":"technique0","values":{"diffuse":[1,1,1,1]}}},"meshes":{"multipatch_footprint_1155-mesh":{"name":"multipatch_footprint.1155","primitives":[{"attributes":{"NORMAL":"accessor_20","POSITION":"accessor_18","BATCHID":"accessor_b0"},"indices":"accessor_16","material":"__glTF__defaultMaterial0","mode":4}]},"multipatch_footprint_1159-mesh":{"name":"multipatch_footprint.1159","primitives":[{"attributes":{"NORMAL":"accessor_40","POSITION":"accessor_38","BATCHID":"accessor_b1"},"indices":"accessor_36","material":"__glTF__defaultMaterial0","mode":4}]},"multipatch_footprint_1166-mesh":{"name":"multipatch_footprint.1166","primitives":[{"attributes":{"NORMAL":"accessor_60","POSITION":"accessor_58","BATCHID":"accessor_b2"},"indices":"accessor_56","material":"__glTF__defaultMaterial0","mode":4}]},"multipatch_footprint_1171-mesh":{"name":"multipatch_footprint.1171","primitives":[{"attributes":{"NORMAL":"accessor_80","POSITION":"accessor_78","BATCHID":"accessor_b3"},"indices":"accessor_76","material":"__glTF__defaultMaterial0","mode":4}]}},"nodes":{"gridID_41_w300210404_join":{"children":[],"matrix":[1,0,0,0,0,1,0,0,0,0,1,0,0.000366211,0.000339508,0,1],"meshes":["multipatch_footprint_1166-mesh"],"name":"gridID_41_w300210404_join"},"gridID_41_w300210405_join":{"children":[],"matrix":[1,0,0,0,0,1,0,0,0,0,1,0,0.000366211,0.000339508,0,1],"meshes":["multipatch_footprint_1171-mesh"],"name":"gridID_41_w300210405_join"},"gridID_41_w300210408_join":{"children":[],"matrix":[1,0,0,0,0,1,0,0,0,0,1,0,0.000366211,0.000339508,0,1],"meshes":["multipatch_footprint_1155-mesh"],"name":"gridID_41_w300210408_join"},"gridID_41_w300210409_join":{"children":[],"matrix":[1,0,0,0,0,1,0,0,0,0,1,0,0.000366211,0.000339508,0,1],"meshes":["multipatch_footprint_1159-mesh"],"name":"gridID_41_w300210409_join"},"node_4":{"children":["gridID_41_w300210408_join","gridID_41_w300210409_join","gridID_41_w300210404_join","gridID_41_w300210405_join"],"matrix":[1,0,0,0,0,0,-1,0,0,1,0,0,0,0,0,1],"name":"Y_UP_Transform"}},"programs":{"program_0":{"attributes":["a_normal","a_position","a_batchId"],"fragmentShader":"\\data\\3dcity\\miami\\workspace\\gridID_41\\gridID_41_high0FS","vertexShader":"\\data\\3dcity\\miami\\workspace\\gridID_41\\gridID_41_high0VS"}},"scene":"defaultScene","scenes":{"defaultScene":{"nodes":["node_4"]}},"shaders":{"\\data\\3dcity\\miami\\workspace\\gridID_41\\gridID_41_high0FS":{"type":35632,"uri":"data:text/plain;base64,"},"\\data\\3dcity\\miami\\workspace\\gridID_41\\gridID_41_high0VS":{"type":35633,"uri":"data:text/plain;base64,"}},"skins":{},"techniques":{"technique0":{"attributes":{"a_normal":"normal","a_position":"position","a_batchId":"batchId"},"parameters":{"diffuse":{"type":35666},"modelViewMatrix":{"semantic":"MODELVIEW","type":35676},"normal":{"semantic":"NORMAL","type":35665},"normalMatrix":{"semantic":"MODELVIEWINVERSETRANSPOSE","type":35675},"position":{"semantic":"POSITION","type":35665},"projectionMatrix":{"semantic":"PROJECTION","type":35676},"batchId":{"semantic":"BATCHID","type":5126}},"program":"program_0","states":{"enable":[2929,2884]},"uniforms":{"u_diffuse":"diffuse","u_modelViewMatrix":"modelViewMatrix","u_normalMatrix":"normalMatrix","u_projectionMatrix":"projectionMatrix"}}}}