{
    "accessors": {
        "accessor_16": {
            "bufferView": "bufferView_82",
            "byteOffset": 0,
            "byteStride": 0,
            "componentType": 5123,
            "count": 60,
            "type": "SCALAR"
        },
        "accessor_18": {
            "bufferView": "bufferView_83",
            "byteOffset": 0,
            "byteStride": 12,
            "componentType": 5126,
            "count": 54,
            "max": [
                22.7924,
                91,
                76.2042
            ],
            "min": [
                -60.3187,
                0,
                31.5087
            ],
            "type": "VEC3"
        },
        "accessor_20": {
            "bufferView": "bufferView_83",
            "byteOffset": 648,
            "byteStride": 12,
            "componentType": 5126,
            "count": 54,
            "max": [
                0.977435,
                1,
                0.977411
            ],
            "min": [
                -0.977374,
                -1,
                -0.977522
            ],
            "type": "VEC3"
        },
        "accessor_36": {
            "bufferView": "bufferView_82",
            "byteOffset": 120,
            "byteStride": 0,
            "componentType": 5123,
            "count": 168,
            "type": "SCALAR"
        },
        "accessor_38": {
            "bufferView": "bufferView_83",
            "byteOffset": 1296,
            "byteStride": 12,
            "componentType": 5126,
            "count": 119,
            "max": [
                24.3621,
                10,
                46.5143
            ],
            "min": [
                -54.3519,
                0,
                -15.6097
            ],
            "type": "VEC3"
        },
        "accessor_40": {
            "bufferView": "bufferView_83",
            "byteOffset": 2724,
            "byteStride": 12,
            "componentType": 5126,
            "count": 119,
            "max": [
                0.979238,
                1,
                0.979522
            ],
            "min": [
                -0.999803,
                -1,
                -0.971089
            ],
            "type": "VEC3"
        },
        "accessor_56": {
            "bufferView": "bufferView_82",
            "byteOffset": 456,
            "byteStride": 0,
            "componentType": 5123,
            "count": 60,
            "type": "SCALAR"
        },
        "accessor_58": {
            "bufferView": "bufferView_83",
            "byteOffset": 4152,
            "byteStride": 12,
            "componentType": 5126,
            "count": 50,
            "max": [
                28.2137,
                91,
                -19.9729
            ],
            "min": [
                -52.9048,
                0,
                -66.9307
            ],
            "type": "VEC3"
        },
        "accessor_60": {
            "bufferView": "bufferView_83",
            "byteOffset": 4752,
            "byteStride": 12,
            "componentType": 5126,
            "count": 50,
            "max": [
                0.972985,
                1,
                0.973
            ],
            "min": [
                -0.972985,
                -1,
                -0.973141
            ],
            "type": "VEC3"
        },
        "accessor_76": {
            "bufferView": "bufferView_82",
            "byteOffset": 576,
            "byteStride": 0,
            "componentType": 5123,
            "count": 240,
            "type": "SCALAR"
        },
        "accessor_78": {
            "bufferView": "bufferView_83",
            "byteOffset": 5352,
            "byteStride": 12,
            "componentType": 5126,
            "count": 167,
            "max": [
                32.2769,
                10,
                -50.108
            ],
            "min": [
                -92.9019,
                0,
                -118.895
            ],
            "type": "VEC3"
        },
        "accessor_80": {
            "bufferView": "bufferView_83",
            "byteOffset": 7356,
            "byteStride": 12,
            "componentType": 5126,
            "count": 167,
            "max": [
                0.986548,
                1,
                0.982094
            ],
            "min": [
                -0.999851,
                -1,
                -0.973588
            ],
            "type": "VEC3"
        }
    },
    "animations": {},
    "asset": {
        "generator": "collada2gltf@cf6371beb0bdc18ba603378d5e40c966da53d385",
        "premultipliedAlpha": true,
        "profile": {
            "api": "WebGL",
            "version": "1.0.2"
        },
        "version": "1.0"
    },
    "bufferViews": {
        "bufferView_82": {
            "buffer": "\\data\\3dcity\\miami\\workspace\\gridID_41\\gridID_41",
            "byteLength": 1056,
            "byteOffset": 0,
            "target": 34963
        },
        "bufferView_83": {
            "buffer": "\\data\\3dcity\\miami\\workspace\\gridID_41\\gridID_41",
            "byteLength": 9360,
            "byteOffset": 1056,
            "target": 34962
        }
    },
    "buffers": {
        "\\data\\3dcity\\miami\\workspace\\gridID_41\\gridID_41": {
            "byteLength": 10416,
            "type": "arraybuffer",
            "uri": "data:application/octet-stream;base64,"
        }
    },
    "materials": {
        "CityEngineMaterial_446-effect": {
            "name": "CityEngineMaterial_446",
            "technique": "technique0",
            "values": {
                "ambient": [
                    1,
                    1,
                    1,
                    1
                ],
                "diffuse": [
                    1,
                    1,
                    1,
                    1
                ],
                "emission": [
                    0,
                    0,
                    0,
                    1
                ],
                "shininess": 50,
                "specular": [
                    0.5,
                    0.5,
                    0.5,
                    1
                ]
            }
        },
        "CityEngineMaterial_447-effect": {
            "name": "CityEngineMaterial_447",
            "technique": "technique0",
            "values": {
                "ambient": [
                    1,
                    1,
                    1,
                    1
                ],
                "diffuse": [
                    1,
                    1,
                    1,
                    1
                ],
                "emission": [
                    0,
                    0,
                    0,
                    1
                ],
                "shininess": 50,
                "specular": [
                    0.5,
                    0.5,
                    0.5,
                    1
                ]
            }
        },
        "CityEngineMaterial_448-effect": {
            "name": "CityEngineMaterial_448",
            "technique": "technique0",
            "values": {
                "ambient": [
                    1,
                    1,
                    1,
                    1
                ],
                "diffuse": [
                    1,
                    1,
                    1,
                    1
                ],
                "emission": [
                    0,
                    0,
                    0,
                    1
                ],
                "shininess": 50,
                "specular": [
                    0.5,
                    0.5,
                    0.5,
                    1
                ]
            }
        },
        "CityEngineMaterial_449-effect": {
            "name": "CityEngineMaterial_449",
            "technique": "technique0",
            "values": {
                "ambient": [
                    1,
                    1,
                    1,
                    1
                ],
                "diffuse": [
                    1,
                    1,
                    1,
                    1
                ],
                "emission": [
                    0,
                    0,
                    0,
                    1
                ],
                "shininess": 50,
                "specular": [
                    0.5,
                    0.5,
                    0.5,
                    1
                ]
            }
        }
    },
    "meshes": {
        "mesh_CityEngineMaterial_444-mesh": {
            "name": "mesh_CityEngineMaterial.444",
            "primitives": [
                {
                    "attributes": {
                        "NORMAL": "accessor_20",
                        "POSITION": "accessor_18"
                    },
                    "indices": "accessor_16",
                    "material": "CityEngineMaterial_446-effect",
                    "mode": 4
                }
            ]
        },
        "mesh_CityEngineMaterial_445-mesh": {
            "name": "mesh_CityEngineMaterial.445",
            "primitives": [
                {
                    "attributes": {
                        "NORMAL": "accessor_40",
                        "POSITION": "accessor_38"
                    },
                    "indices": "accessor_36",
                    "material": "CityEngineMaterial_447-effect",
                    "mode": 4
                }
            ]
        },
        "mesh_CityEngineMaterial_446-mesh": {
            "name": "mesh_CityEngineMaterial.446",
            "primitives": [
                {
                    "attributes": {
                        "NORMAL": "accessor_60",
                        "POSITION": "accessor_58"
                    },
                    "indices": "accessor_56",
                    "material": "CityEngineMaterial_448-effect",
                    "mode": 4
                }
            ]
        },
        "mesh_CityEngineMaterial_447-mesh": {
            "name": "mesh_CityEngineMaterial.447",
            "primitives": [
                {
                    "attributes": {
                        "NORMAL": "accessor_80",
                        "POSITION": "accessor_78"
                    },
                    "indices": "accessor_76",
                    "material": "CityEngineMaterial_449-effect",
                    "mode": 4
                }
            ]
        }
    },
    "nodes": {
        "CityEngineMaterial": {
            "children": [],
            "matrix": [
                1,
                0,
                0,
                0,
                0,
                -1.62921e-007,
                1,
                0,
                0,
                -1,
                -1.62921e-007,
                0,
                0,
                0,
                0,
                1
            ],
            "meshes": [
                "mesh_CityEngineMaterial_444-mesh"
            ],
            "name": "CityEngineMaterial"
        },
        "CityEngineMaterial_001": {
            "children": [],
            "matrix": [
                1,
                0,
                0,
                0,
                0,
                -1.62921e-007,
                1,
                0,
                0,
                -1,
                -1.62921e-007,
                0,
                0,
                0,
                0,
                1
            ],
            "meshes": [
                "mesh_CityEngineMaterial_445-mesh"
            ],
            "name": "CityEngineMaterial_001"
        },
        "CityEngineMaterial_002": {
            "children": [],
            "matrix": [
                1,
                0,
                0,
                0,
                0,
                -1.62921e-007,
                1,
                0,
                0,
                -1,
                -1.62921e-007,
                0,
                0,
                0,
                0,
                1
            ],
            "meshes": [
                "mesh_CityEngineMaterial_446-mesh"
            ],
            "name": "CityEngineMaterial_002"
        },
        "CityEngineMaterial_003": {
            "children": [],
            "matrix": [
                1,
                0,
                0,
                0,
                0,
                -1.62921e-007,
                1,
                0,
                0,
                -1,
                -1.62921e-007,
                0,
                0,
                0,
                0,
                1
            ],
            "meshes": [
                "mesh_CityEngineMaterial_447-mesh"
            ],
            "name": "CityEngineMaterial_003"
        },
        "node_4": {
            "children": [
                "CityEngineMaterial",
                "CityEngineMaterial_001",
                "CityEngineMaterial_002",
                "CityEngineMaterial_003"
            ],
            "matrix": [
                1,
                0,
                0,
                0,
                0,
                0,
                -1,
                0,
                0,
                1,
                0,
                0,
                0,
                0,
                0,
                1
            ],
            "name": "Y_UP_Transform"
        }
    },
    "programs": {
        "program_0": {
            "attributes": [
                "a_normal",
                "a_position"
            ],
            "fragmentShader": "\\data\\3dcity\\miami\\workspace\\gridID_41\\gridID_410FS",
            "vertexShader": "\\data\\3dcity\\miami\\workspace\\gridID_41\\gridID_410VS"
        }
    },
    "scene": "defaultScene",
    "scenes": {
        "defaultScene": {
            "nodes": [
                "node_4"
            ]
        }
    },
    "shaders": {
        "\\data\\3dcity\\miami\\workspace\\gridID_41\\gridID_410FS": {
            "type": 35632,
            "uri": "data:text/plain;base64,"
        },
        "\\data\\3dcity\\miami\\workspace\\gridID_41\\gridID_410VS": {
            "type": 35633,
            "uri": "data:text/plain;base64,"
        }
    },
    "skins": {},
    "techniques": {
        "technique0": {
            "attributes": {
                "a_normal": "normal",
                "a_position": "position"
            },
            "parameters": {
                "ambient": {
                    "type": 35666
                },
                "diffuse": {
                    "type": 35666
                },
                "emission": {
                    "type": 35666
                },
                "modelViewMatrix": {
                    "semantic": "MODELVIEW",
                    "type": 35676
                },
                "normal": {
                    "semantic": "NORMAL",
                    "type": 35665
                },
                "normalMatrix": {
                    "semantic": "MODELVIEWINVERSETRANSPOSE",
                    "type": 35675
                },
                "position": {
                    "semantic": "POSITION",
                    "type": 35665
                },
                "projectionMatrix": {
                    "semantic": "PROJECTION",
                    "type": 35676
                },
                "shininess": {
                    "type": 5126
                },
                "specular": {
                    "type": 35666
                }
            },
            "program": "program_0",
            "states": {
                "enable": [
                    2929,
                    2884
                ]
            },
            "uniforms": {
                "u_ambient": "ambient",
                "u_diffuse": "diffuse",
                "u_emission": "emission",
                "u_modelViewMatrix": "modelViewMatrix",
                "u_normalMatrix": "normalMatrix",
                "u_projectionMatrix": "projectionMatrix",
                "u_shininess": "shininess",
                "u_specular": "specular"
            }
        }
    }
}