{"accessors":{"accessor_16":{"bufferView":"bufferView_62","byteOffset":0,"byteStride":0,"componentType":5123,"count":36,"type":"SCALAR"},"accessor_18":{"bufferView":"bufferView_63","byteOffset":0,"byteStride":12,"componentType":5126,"count":30,"max":[17.6902,10,74.9662],"min":[-10.1842,0,51.7772],"type":"VEC3"},"accessor_20":{"bufferView":"bufferView_63","byteOffset":360,"byteStride":12,"componentType":5126,"count":30,"max":[0.999844,1,0.999838],"min":[-0.999844,-1,-0.999838],"type":"VEC3"},"accessor_36":{"bufferView":"bufferView_62","byteOffset":72,"byteStride":0,"componentType":5123,"count":84,"type":"SCALAR"},"accessor_38":{"bufferView":"bufferView_63","byteOffset":720,"byteStride":12,"componentType":5126,"count":56,"max":[69.476,10,70.8501],"min":[51.5981,0,42.3829],"type":"VEC3"},"accessor_40":{"bufferView":"bufferView_63","byteOffset":1392,"byteStride":12,"componentType":5126,"count":56,"max":[0.99993,1,0.999798],"min":[-0.999653,-1,-0.999714],"type":"VEC3"},"accessor_56":{"bufferView":"bufferView_62","byteOffset":240,"byteStride":0,"componentType":5123,"count":60,"type":"SCALAR"},"accessor_58":{"bufferView":"bufferView_63","byteOffset":2064,"byteStride":12,"componentType":5126,"count":42,"max":[52.3328,10,70.5534],"min":[20.5622,0,48.2914],"type":"VEC3"},"accessor_60":{"bufferView":"bufferView_63","byteOffset":2568,"byteStride":12,"componentType":5126,"count":42,"max":[0.999623,1,1],"min":[-1,-1,-0.999874],"type":"VEC3"},"accessor_b0":{"bufferView":"bufferView_b","byteOffset":0,"byteStride":0,"componentType":5123,"count":30,"type":"SCALAR"},"accessor_b1":{"bufferView":"bufferView_b","byteOffset":60,"byteStride":0,"componentType":5123,"count":56,"type":"SCALAR"},"accessor_b2":{"bufferView":"bufferView_b","byteOffset":172,"byteStride":0,"componentType":5123,"count":42,"type":"SCALAR"}},"animations":{},"asset":{"generator":"collada2gltf@cf6371beb0bdc18ba603378d5e40c966da53d385","premultipliedAlpha":true,"profile":{"api":"WebGL","version":"1.0.2"},"version":"1.0"},"bufferViews":{"bufferView_62":{"buffer":"\\data\\3dcity\\miami\\workspace\\gridID_64\\gridID_64","byteLength":360,"byteOffset":0,"target":34963},"bufferView_63":{"buffer":"\\data\\3dcity\\miami\\workspace\\gridID_64\\gridID_64","byteLength":3072,"byteOffset":360,"target":34962},"bufferView_b":{"buffer":"buffer_b","byteLength":256,"byteOffset":0,"target":34962}},"buffers":{"\\data\\3dcity\\miami\\workspace\\gridID_64\\gridID_64":{"byteLength":3432,"type":"arraybuffer","uri":"data:application/octet-stream;base64,"},"buffer_b":{"type":"arraybuffer","byteLength":256,"uri":"data:application/octet-stream;base64,"}},"materials":{"CityEngineMaterial_598-effect":{"name":"CityEngineMaterial_598","technique":"technique0","values":{"ambient":[1,1,1,1],"diffuse":[1,1,1,1],"emission":[0,0,0,1],"shininess":50,"specular":[0.5,0.5,0.5,1]}},"CityEngineMaterial_599-effect":{"name":"CityEngineMaterial_599","technique":"technique0","values":{"ambient":[1,1,1,1],"diffuse":[1,1,1,1],"emission":[0,0,0,1],"shininess":50,"specular":[0.5,0.5,0.5,1]}},"CityEngineMaterial_600-effect":{"name":"CityEngineMaterial_600","technique":"technique0","values":{"ambient":[1,1,1,1],"diffuse":[1,1,1,1],"emission":[0,0,0,1],"shininess":50,"specular":[0.5,0.5,0.5,1]}}},"meshes":{"mesh_CityEngineMaterial_596-mesh":{"name":"mesh_CityEngineMaterial.596","primitives":[{"attributes":{"NORMAL":"accessor_20","POSITION":"accessor_18","BATCHID":"accessor_b0"},"indices":"accessor_16","material":"CityEngineMaterial_598-effect","mode":4}]},"mesh_CityEngineMaterial_597-mesh":{"name":"mesh_CityEngineMaterial.597","primitives":[{"attributes":{"NORMAL":"accessor_40","POSITION":"accessor_38","BATCHID":"accessor_b1"},"indices":"accessor_36","material":"CityEngineMaterial_599-effect","mode":4}]},"mesh_CityEngineMaterial_598-mesh":{"name":"mesh_CityEngineMaterial.598","primitives":[{"attributes":{"NORMAL":"accessor_60","POSITION":"accessor_58","BATCHID":"accessor_b2"},"indices":"accessor_56","material":"CityEngineMaterial_600-effect","mode":4}]}},"nodes":{"CityEngineMaterial":{"children":[],"matrix":[1,0,0,0,0,-1.62921e-7,1,0,0,-1,-1.62921e-7,0,0,0,0,1],"meshes":["mesh_CityEngineMaterial_596-mesh"],"name":"CityEngineMaterial"},"CityEngineMaterial_001":{"children":[],"matrix":[1,0,0,0,0,-1.62921e-7,1,0,0,-1,-1.62921e-7,0,0,0,0,1],"meshes":["mesh_CityEngineMaterial_597-mesh"],"name":"CityEngineMaterial_001"},"CityEngineMaterial_002":{"children":[],"matrix":[1,0,0,0,0,-1.62921e-7,1,0,0,-1,-1.62921e-7,0,0,0,0,1],"meshes":["mesh_CityEngineMaterial_598-mesh"],"name":"CityEngineMaterial_002"},"node_3":{"children":["CityEngineMaterial","CityEngineMaterial_001","CityEngineMaterial_002"],"matrix":[1,0,0,0,0,0,-1,0,0,1,0,0,0,0,0,1],"name":"Y_UP_Transform"}},"programs":{"program_0":{"attributes":["a_normal","a_position","a_batchId"],"fragmentShader":"\\data\\3dcity\\miami\\workspace\\gridID_64\\gridID_640FS","vertexShader":"\\data\\3dcity\\miami\\workspace\\gridID_64\\gridID_640VS"}},"scene":"defaultScene","scenes":{"defaultScene":{"nodes":["node_3"]}},"shaders":{"\\data\\3dcity\\miami\\workspace\\gridID_64\\gridID_640FS":{"type":35632,"uri":"data:text/plain;base64,"},"\\data\\3dcity\\miami\\workspace\\gridID_64\\gridID_640VS":{"type":35633,"uri":"data:text/plain;base64,"}},"skins":{},"techniques":{"technique0":{"attributes":{"a_normal":"normal","a_position":"position","a_batchId":"batchId"},"parameters":{"ambient":{"type":35666},"diffuse":{"type":35666},"emission":{"type":35666},"modelViewMatrix":{"semantic":"MODELVIEW","type":35676},"normal":{"semantic":"NORMAL","type":35665},"normalMatrix":{"semantic":"MODELVIEWINVERSETRANSPOSE","type":35675},"position":{"semantic":"POSITION","type":35665},"projectionMatrix":{"semantic":"PROJECTION","type":35676},"shininess":{"type":5126},"specular":{"type":35666},"batchId":{"semantic":"BATCHID","type":5126}},"program":"program_0","states":{"enable":[2929,2884]},"uniforms":{"u_ambient":"ambient","u_diffuse":"diffuse","u_emission":"emission","u_modelViewMatrix":"modelViewMatrix","u_normalMatrix":"normalMatrix","u_projectionMatrix":"projectionMatrix","u_shininess":"shininess","u_specular":"specular"}}}}