{
    "accessors": {
        "accessor_16": {
            "bufferView": "bufferView_62",
            "byteOffset": 0,
            "byteStride": 0,
            "componentType": 5123,
            "count": 30,
            "type": "SCALAR"
        },
        "accessor_18": {
            "bufferView": "bufferView_63",
            "byteOffset": 0,
            "byteStride": 12,
            "componentType": 5126,
            "count": 30,
            "max": [
                25.212,
                27.277,
                7.26401
            ],
            "min": [
                22.8064,
                18.7667,
                3.03509
            ],
            "type": "VEC3"
        },
        "accessor_20": {
            "bufferView": "bufferView_63",
            "byteOffset": 360,
            "byteStride": 12,
            "componentType": 5126,
            "count": 30,
            "max": [
                0.999825,
                0.999818,
                1
            ],
            "min": [
                -0.999825,
                -0.999818,
                0
            ],
            "type": "VEC3"
        },
        "accessor_36": {
            "bufferView": "bufferView_62",
            "byteOffset": 60,
            "byteStride": 0,
            "componentType": 5123,
            "count": 414,
            "type": "SCALAR"
        },
        "accessor_38": {
            "bufferView": "bufferView_63",
            "byteOffset": 720,
            "byteStride": 12,
            "componentType": 5126,
            "count": 374,
            "max": [
                50.0939,
                49.8311,
                12.459
            ],
            "min": [
                14.6918,
                -7.07767,
                2.4791
            ],
            "type": "VEC3"
        },
        "accessor_40": {
            "bufferView": "bufferView_63",
            "byteOffset": 5208,
            "byteStride": 12,
            "componentType": 5126,
            "count": 374,
            "max": [
                0.999825,
                0.999818,
                1
            ],
            "min": [
                -0.999728,
                -0.999981,
                0
            ],
            "type": "VEC3"
        },
        "accessor_56": {
            "bufferView": "bufferView_62",
            "byteOffset": 888,
            "byteStride": 0,
            "componentType": 5123,
            "count": 1602,
            "type": "SCALAR"
        },
        "accessor_58": {
            "bufferView": "bufferView_63",
            "byteOffset": 9696,
            "byteStride": 12,
            "componentType": 5126,
            "count": 1440,
            "max": [
                -10.1221,
                50.8142,
                185.104
            ],
            "min": [
                -60.0602,
                -42.6156,
                3.04946
            ],
            "type": "VEC3"
        },
        "accessor_60": {
            "bufferView": "bufferView_63",
            "byteOffset": 26976,
            "byteStride": 12,
            "componentType": 5126,
            "count": 1440,
            "max": [
                0.999953,
                0.999955,
                1
            ],
            "min": [
                -0.999953,
                -0.999999,
                0
            ],
            "type": "VEC3"
        }
    },
    "animations": {},
    "asset": {
        "generator": "collada2gltf@cf6371beb0bdc18ba603378d5e40c966da53d385",
        "premultipliedAlpha": true,
        "profile": {
            "api": "WebGL",
            "version": "1.0.2"
        },
        "version": "1.0"
    },
    "bufferViews": {
        "bufferView_62": {
            "buffer": "\\data\\3dcity\\miami\\workspace\\gridID_28\\gridID_28_high",
            "byteLength": 4092,
            "byteOffset": 0,
            "target": 34963
        },
        "bufferView_63": {
            "buffer": "\\data\\3dcity\\miami\\workspace\\gridID_28\\gridID_28_high",
            "byteLength": 44256,
            "byteOffset": 4092,
            "target": 34962
        }
    },
    "buffers": {
        "\\data\\3dcity\\miami\\workspace\\gridID_28\\gridID_28_high": {
            "byteLength": 48348,
            "type": "arraybuffer",
            "uri": "data:application/octet-stream;base64,"
        }
    },
    "materials": {
        "__glTF__defaultMaterial0": {
            "name": "__glTF__defaultMaterial0",
            "technique": "technique0",
            "values": {
                "diffuse": [
                    1,
                    1,
                    1,
                    1
                ]
            }
        }
    },
    "meshes": {
        "multipatch_footprint_256-mesh": {
            "name": "multipatch_footprint.256",
            "primitives": [
                {
                    "attributes": {
                        "NORMAL": "accessor_20",
                        "POSITION": "accessor_18"
                    },
                    "indices": "accessor_16",
                    "material": "__glTF__defaultMaterial0",
                    "mode": 4
                }
            ]
        },
        "multipatch_footprint_258-mesh": {
            "name": "multipatch_footprint.258",
            "primitives": [
                {
                    "attributes": {
                        "NORMAL": "accessor_40",
                        "POSITION": "accessor_38"
                    },
                    "indices": "accessor_36",
                    "material": "__glTF__defaultMaterial0",
                    "mode": 4
                }
            ]
        },
        "multipatch_footprint_321-mesh": {
            "name": "multipatch_footprint.321",
            "primitives": [
                {
                    "attributes": {
                        "NORMAL": "accessor_60",
                        "POSITION": "accessor_58"
                    },
                    "indices": "accessor_56",
                    "material": "__glTF__defaultMaterial0",
                    "mode": 4
                }
            ]
        }
    },
    "nodes": {
        "gridID_28_w435234024_join": {
            "children": [],
            "matrix": [
                1,
                0,
                0,
                0,
                0,
                1,
                0,
                0,
                0,
                0,
                1,
                0,
                0.000379562,
                0.000335693,
                0,
                1
            ],
            "meshes": [
                "multipatch_footprint_321-mesh"
            ],
            "name": "gridID_28_w435234024_join"
        },
        "gridID_28_w435238123_join": {
            "children": [],
            "matrix": [
                1,
                0,
                0,
                0,
                0,
                1,
                0,
                0,
                0,
                0,
                1,
                0,
                0.000379562,
                0.000335693,
                0,
                1
            ],
            "meshes": [
                "multipatch_footprint_256-mesh"
            ],
            "name": "gridID_28_w435238123_join"
        },
        "gridID_28_w435844700_join": {
            "children": [],
            "matrix": [
                1,
                0,
                0,
                0,
                0,
                1,
                0,
                0,
                0,
                0,
                1,
                0,
                0.000379562,
                0.000335693,
                0,
                1
            ],
            "meshes": [
                "multipatch_footprint_258-mesh"
            ],
            "name": "gridID_28_w435844700_join"
        },
        "node_3": {
            "children": [
                "gridID_28_w435238123_join",
                "gridID_28_w435844700_join",
                "gridID_28_w435234024_join"
            ],
            "matrix": [
                1,
                0,
                0,
                0,
                0,
                0,
                -1,
                0,
                0,
                1,
                0,
                0,
                0,
                0,
                0,
                1
            ],
            "name": "Y_UP_Transform"
        }
    },
    "programs": {
        "program_0": {
            "attributes": [
                "a_normal",
                "a_position"
            ],
            "fragmentShader": "\\data\\3dcity\\miami\\workspace\\gridID_28\\gridID_28_high0FS",
            "vertexShader": "\\data\\3dcity\\miami\\workspace\\gridID_28\\gridID_28_high0VS"
        }
    },
    "scene": "defaultScene",
    "scenes": {
        "defaultScene": {
            "nodes": [
                "node_3"
            ]
        }
    },
    "shaders": {
        "\\data\\3dcity\\miami\\workspace\\gridID_28\\gridID_28_high0FS": {
            "type": 35632,
            "uri": "data:text/plain;base64,"
        },
        "\\data\\3dcity\\miami\\workspace\\gridID_28\\gridID_28_high0VS": {
            "type": 35633,
            "uri": "data:text/plain;base64,"
        }
    },
    "skins": {},
    "techniques": {
        "technique0": {
            "attributes": {
                "a_normal": "normal",
                "a_position": "position"
            },
            "parameters": {
                "diffuse": {
                    "type": 35666
                },
                "modelViewMatrix": {
                    "semantic": "MODELVIEW",
                    "type": 35676
                },
                "normal": {
                    "semantic": "NORMAL",
                    "type": 35665
                },
                "normalMatrix": {
                    "semantic": "MODELVIEWINVERSETRANSPOSE",
                    "type": 35675
                },
                "position": {
                    "semantic": "POSITION",
                    "type": 35665
                },
                "projectionMatrix": {
                    "semantic": "PROJECTION",
                    "type": 35676
                }
            },
            "program": "program_0",
            "states": {
                "enable": [
                    2929,
                    2884
                ]
            },
            "uniforms": {
                "u_diffuse": "diffuse",
                "u_modelViewMatrix": "modelViewMatrix",
                "u_normalMatrix": "normalMatrix",
                "u_projectionMatrix": "projectionMatrix"
            }
        }
    }
}