{"accessors":{"accessor_16":{"bufferView":"bufferView_62","byteOffset":0,"byteStride":0,"componentType":5123,"count":540,"type":"SCALAR"},"accessor_18":{"bufferView":"bufferView_63","byteOffset":0,"byteStride":12,"componentType":5126,"count":392,"max":[-8.98196,186,47.4837],"min":[-61.1685,0,-55.0458],"type":"VEC3"},"accessor_20":{"bufferView":"bufferView_63","byteOffset":4704,"byteStride":12,"componentType":5126,"count":392,"max":[0.999982,1,0.999993],"min":[-0.999455,-1,-0.999979],"type":"VEC3"},"accessor_36":{"bufferView":"bufferView_62","byteOffset":1080,"byteStride":0,"componentType":5123,"count":240,"type":"SCALAR"},"accessor_38":{"bufferView":"bufferView_63","byteOffset":9408,"byteStride":12,"componentType":5126,"count":176,"max":[32.8185,101,6.60796],"min":[15.4193,0,-31.9936],"type":"VEC3"},"accessor_40":{"bufferView":"bufferView_63","byteOffset":11520,"byteStride":12,"componentType":5126,"count":176,"max":[0.999943,1,0.999451],"min":[-0.999919,-1,-1],"type":"VEC3"},"accessor_56":{"bufferView":"bufferView_62","byteOffset":1560,"byteStride":0,"componentType":5123,"count":108,"type":"SCALAR"},"accessor_58":{"bufferView":"bufferView_63","byteOffset":13632,"byteStride":12,"componentType":5126,"count":82,"max":[50.0508,101,-18.9781],"min":[30.6367,0,-49.7802],"type":"VEC3"},"accessor_60":{"bufferView":"bufferView_63","byteOffset":14616,"byteStride":12,"componentType":5126,"count":82,"max":[0.982048,1,0.997045],"min":[-0.997231,-1,-0.997077],"type":"VEC3"},"accessor_b0":{"bufferView":"bufferView_b","byteOffset":0,"byteStride":0,"componentType":5123,"count":392,"type":"SCALAR"},"accessor_b1":{"bufferView":"bufferView_b","byteOffset":784,"byteStride":0,"componentType":5123,"count":176,"type":"SCALAR"},"accessor_b2":{"bufferView":"bufferView_b","byteOffset":1136,"byteStride":0,"componentType":5123,"count":82,"type":"SCALAR"}},"animations":{},"asset":{"generator":"collada2gltf@cf6371beb0bdc18ba603378d5e40c966da53d385","premultipliedAlpha":true,"profile":{"api":"WebGL","version":"1.0.2"},"version":"1.0"},"bufferViews":{"bufferView_62":{"buffer":"\\data\\3dcity\\miami\\workspace\\gridID_28\\gridID_28","byteLength":1776,"byteOffset":0,"target":34963},"bufferView_63":{"buffer":"\\data\\3dcity\\miami\\workspace\\gridID_28\\gridID_28","byteLength":15600,"byteOffset":1776,"target":34962},"bufferView_b":{"buffer":"buffer_b","byteLength":1300,"byteOffset":0,"target":34962}},"buffers":{"\\data\\3dcity\\miami\\workspace\\gridID_28\\gridID_28":{"byteLength":17376,"type":"arraybuffer","uri":"data:application/octet-stream;base64,"},"buffer_b":{"type":"arraybuffer","byteLength":1300,"uri":"data:application/octet-stream;base64,"}},"materials":{"CityEngineMaterial_376-effect":{"name":"CityEngineMaterial_376","technique":"technique0","values":{"ambient":[1,1,1,1],"diffuse":[1,1,1,1],"emission":[0,0,0,1],"shininess":50,"specular":[0.5,0.5,0.5,1]}},"CityEngineMaterial_377-effect":{"name":"CityEngineMaterial_377","technique":"technique0","values":{"ambient":[1,1,1,1],"diffuse":[1,1,1,1],"emission":[0,0,0,1],"shininess":50,"specular":[0.5,0.5,0.5,1]}},"CityEngineMaterial_378-effect":{"name":"CityEngineMaterial_378","technique":"technique0","values":{"ambient":[1,1,1,1],"diffuse":[1,1,1,1],"emission":[0,0,0,1],"shininess":50,"specular":[0.5,0.5,0.5,1]}}},"meshes":{"mesh_CityEngineMaterial_374-mesh":{"name":"mesh_CityEngineMaterial.374","primitives":[{"attributes":{"NORMAL":"accessor_20","POSITION":"accessor_18","BATCHID":"accessor_b0"},"indices":"accessor_16","material":"CityEngineMaterial_376-effect","mode":4}]},"mesh_CityEngineMaterial_375-mesh":{"name":"mesh_CityEngineMaterial.375","primitives":[{"attributes":{"NORMAL":"accessor_40","POSITION":"accessor_38","BATCHID":"accessor_b1"},"indices":"accessor_36","material":"CityEngineMaterial_377-effect","mode":4}]},"mesh_CityEngineMaterial_376-mesh":{"name":"mesh_CityEngineMaterial.376","primitives":[{"attributes":{"NORMAL":"accessor_60","POSITION":"accessor_58","BATCHID":"accessor_b2"},"indices":"accessor_56","material":"CityEngineMaterial_378-effect","mode":4}]}},"nodes":{"CityEngineMaterial":{"children":[],"matrix":[1,0,0,0,0,-1.62921e-7,1,0,0,-1,-1.62921e-7,0,0,0,0,1],"meshes":["mesh_CityEngineMaterial_374-mesh"],"name":"CityEngineMaterial"},"CityEngineMaterial_001":{"children":[],"matrix":[1,0,0,0,0,-1.62921e-7,1,0,0,-1,-1.62921e-7,0,0,0,0,1],"meshes":["mesh_CityEngineMaterial_375-mesh"],"name":"CityEngineMaterial_001"},"CityEngineMaterial_002":{"children":[],"matrix":[1,0,0,0,0,-1.62921e-7,1,0,0,-1,-1.62921e-7,0,0,0,0,1],"meshes":["mesh_CityEngineMaterial_376-mesh"],"name":"CityEngineMaterial_002"},"node_3":{"children":["CityEngineMaterial","CityEngineMaterial_001","CityEngineMaterial_002"],"matrix":[1,0,0,0,0,0,-1,0,0,1,0,0,0,0,0,1],"name":"Y_UP_Transform"}},"programs":{"program_0":{"attributes":["a_normal","a_position","a_batchId"],"fragmentShader":"\\data\\3dcity\\miami\\workspace\\gridID_28\\gridID_280FS","vertexShader":"\\data\\3dcity\\miami\\workspace\\gridID_28\\gridID_280VS"}},"scene":"defaultScene","scenes":{"defaultScene":{"nodes":["node_3"]}},"shaders":{"\\data\\3dcity\\miami\\workspace\\gridID_28\\gridID_280FS":{"type":35632,"uri":"data:text/plain;base64,"},"\\data\\3dcity\\miami\\workspace\\gridID_28\\gridID_280VS":{"type":35633,"uri":"data:text/plain;base64,"}},"skins":{},"techniques":{"technique0":{"attributes":{"a_normal":"normal","a_position":"position","a_batchId":"batchId"},"parameters":{"ambient":{"type":35666},"diffuse":{"type":35666},"emission":{"type":35666},"modelViewMatrix":{"semantic":"MODELVIEW","type":35676},"normal":{"semantic":"NORMAL","type":35665},"normalMatrix":{"semantic":"MODELVIEWINVERSETRANSPOSE","type":35675},"position":{"semantic":"POSITION","type":35665},"projectionMatrix":{"semantic":"PROJECTION","type":35676},"shininess":{"type":5126},"specular":{"type":35666},"batchId":{"semantic":"BATCHID","type":5126}},"program":"program_0","states":{"enable":[2929,2884]},"uniforms":{"u_ambient":"ambient","u_diffuse":"diffuse","u_emission":"emission","u_modelViewMatrix":"modelViewMatrix","u_normalMatrix":"normalMatrix","u_projectionMatrix":"projectionMatrix","u_shininess":"shininess","u_specular":"specular"}}}}