{"accessors":{"accessor_100":{"bufferView":"bufferView_223","byteOffset":6120,"byteStride":12,"componentType":5126,"count":32,"max":[0.999711,1,0.999721],"min":[-0.999711,-1,-0.999721],"type":"VEC3"},"accessor_116":{"bufferView":"bufferView_222","byteOffset":744,"byteStride":0,"componentType":5123,"count":36,"type":"SCALAR"},"accessor_118":{"bufferView":"bufferView_223","byteOffset":6504,"byteStride":12,"componentType":5126,"count":24,"max":[26.0595,10,-22.8282],"min":[14.2708,0,-53.5813],"type":"VEC3"},"accessor_120":{"bufferView":"bufferView_223","byteOffset":6792,"byteStride":12,"componentType":5126,"count":24,"max":[0.999768,1,0.999753],"min":[-0.99976,-1,-0.999754],"type":"VEC3"},"accessor_136":{"bufferView":"bufferView_222","byteOffset":816,"byteStride":0,"componentType":5123,"count":132,"type":"SCALAR"},"accessor_138":{"bufferView":"bufferView_223","byteOffset":7080,"byteStride":12,"componentType":5126,"count":98,"max":[59.2327,31,48.4055],"min":[-24.1567,0,5.81116],"type":"VEC3"},"accessor_140":{"bufferView":"bufferView_223","byteOffset":8256,"byteStride":12,"componentType":5126,"count":98,"max":[0.999334,1,0.999314],"min":[-0.999314,-1,-0.999314],"type":"VEC3"},"accessor_156":{"bufferView":"bufferView_222","byteOffset":1080,"byteStride":0,"componentType":5123,"count":84,"type":"SCALAR"},"accessor_158":{"bufferView":"bufferView_223","byteOffset":9432,"byteStride":12,"componentType":5126,"count":65,"max":[-32.9398,10,-58.4266],"min":[-67.961,0,-106.707],"type":"VEC3"},"accessor_16":{"bufferView":"bufferView_222","byteOffset":0,"byteStride":0,"componentType":5123,"count":36,"type":"SCALAR"},"accessor_160":{"bufferView":"bufferView_223","byteOffset":10212,"byteStride":12,"componentType":5126,"count":65,"max":[0.999637,1,0.999623],"min":[-0.999628,-1,-0.99962],"type":"VEC3"},"accessor_176":{"bufferView":"bufferView_222","byteOffset":1248,"byteStride":0,"componentType":5123,"count":36,"type":"SCALAR"},"accessor_178":{"bufferView":"bufferView_223","byteOffset":10992,"byteStride":12,"componentType":5126,"count":32,"max":[6.47841,10,-22.7293],"min":[-5.09883,0,-52.4565],"type":"VEC3"},"accessor_18":{"bufferView":"bufferView_223","byteOffset":0,"byteStride":12,"componentType":5126,"count":32,"max":[43.9708,10,90.3322],"min":[34.0745,0,75.7469],"type":"VEC3"},"accessor_180":{"bufferView":"bufferView_223","byteOffset":11376,"byteStride":12,"componentType":5126,"count":32,"max":[0.999457,1,0.999468],"min":[-0.999457,-1,-0.999468],"type":"VEC3"},"accessor_196":{"bufferView":"bufferView_222","byteOffset":1320,"byteStride":0,"componentType":5123,"count":36,"type":"SCALAR"},"accessor_198":{"bufferView":"bufferView_223","byteOffset":11760,"byteStride":12,"componentType":5126,"count":30,"max":[17.1317,32,92.9774],"min":[1.17961,0,58.0714],"type":"VEC3"},"accessor_20":{"bufferView":"bufferView_223","byteOffset":384,"byteStride":12,"componentType":5126,"count":32,"max":[0.999608,1,0.99959],"min":[-0.999608,-1,-0.99959],"type":"VEC3"},"accessor_200":{"bufferView":"bufferView_223","byteOffset":12120,"byteStride":12,"componentType":5126,"count":30,"max":[0.99965,1,0.999633],"min":[-0.99965,-1,-0.999632],"type":"VEC3"},"accessor_216":{"bufferView":"bufferView_222","byteOffset":1392,"byteStride":0,"componentType":5123,"count":132,"type":"SCALAR"},"accessor_218":{"bufferView":"bufferView_223","byteOffset":12480,"byteStride":12,"componentType":5126,"count":88,"max":[-30.0455,14,-20.764],"min":[-60.7808,0,-36.0787],"type":"VEC3"},"accessor_220":{"bufferView":"bufferView_223","byteOffset":13536,"byteStride":12,"componentType":5126,"count":88,"max":[0.999994,1,0.999993],"min":[-0.99999,-1,-0.99999],"type":"VEC3"},"accessor_36":{"bufferView":"bufferView_222","byteOffset":72,"byteStride":0,"componentType":5123,"count":84,"type":"SCALAR"},"accessor_38":{"bufferView":"bufferView_223","byteOffset":768,"byteStride":12,"componentType":5126,"count":57,"max":[-7.05806,31,94.2258],"min":[-27.2625,0,58.813],"type":"VEC3"},"accessor_40":{"bufferView":"bufferView_223","byteOffset":1452,"byteStride":12,"componentType":5126,"count":57,"max":[0.999943,1,0.999935],"min":[-0.999941,-1,-0.999936],"type":"VEC3"},"accessor_56":{"bufferView":"bufferView_222","byteOffset":240,"byteStride":0,"componentType":5123,"count":132,"type":"SCALAR"},"accessor_58":{"bufferView":"bufferView_223","byteOffset":2136,"byteStride":12,"componentType":5126,"count":88,"max":[-26.8729,32,43.486],"min":[-64.6102,0,8.45631],"type":"VEC3"},"accessor_60":{"bufferView":"bufferView_223","byteOffset":3192,"byteStride":12,"componentType":5126,"count":88,"max":[0.999694,1,0.999689],"min":[-0.999694,-1,-0.999678],"type":"VEC3"},"accessor_76":{"bufferView":"bufferView_222","byteOffset":504,"byteStride":0,"componentType":5123,"count":84,"type":"SCALAR"},"accessor_78":{"bufferView":"bufferView_223","byteOffset":4248,"byteStride":12,"componentType":5126,"count":62,"max":[-45.4855,31,69.0722],"min":[-66.8589,0,54.4127],"type":"VEC3"},"accessor_80":{"bufferView":"bufferView_223","byteOffset":4992,"byteStride":12,"componentType":5126,"count":62,"max":[0.999974,1,0.999951],"min":[-0.999966,-1,-0.999961],"type":"VEC3"},"accessor_96":{"bufferView":"bufferView_222","byteOffset":672,"byteStride":0,"componentType":5123,"count":36,"type":"SCALAR"},"accessor_98":{"bufferView":"bufferView_223","byteOffset":5736,"byteStride":12,"componentType":5126,"count":32,"max":[-7.75936,10,-22.136],"min":[-19.4479,0,-52.0239],"type":"VEC3"},"accessor_b0":{"bufferView":"bufferView_b","byteOffset":0,"byteStride":0,"componentType":5123,"count":32,"type":"SCALAR"},"accessor_b1":{"bufferView":"bufferView_b","byteOffset":64,"byteStride":0,"componentType":5123,"count":57,"type":"SCALAR"},"accessor_b2":{"bufferView":"bufferView_b","byteOffset":178,"byteStride":0,"componentType":5123,"count":88,"type":"SCALAR"},"accessor_b3":{"bufferView":"bufferView_b","byteOffset":354,"byteStride":0,"componentType":5123,"count":62,"type":"SCALAR"},"accessor_b4":{"bufferView":"bufferView_b","byteOffset":478,"byteStride":0,"componentType":5123,"count":32,"type":"SCALAR"},"accessor_b5":{"bufferView":"bufferView_b","byteOffset":542,"byteStride":0,"componentType":5123,"count":24,"type":"SCALAR"},"accessor_b6":{"bufferView":"bufferView_b","byteOffset":590,"byteStride":0,"componentType":5123,"count":98,"type":"SCALAR"},"accessor_b7":{"bufferView":"bufferView_b","byteOffset":786,"byteStride":0,"componentType":5123,"count":65,"type":"SCALAR"},"accessor_b8":{"bufferView":"bufferView_b","byteOffset":916,"byteStride":0,"componentType":5123,"count":32,"type":"SCALAR"},"accessor_b9":{"bufferView":"bufferView_b","byteOffset":980,"byteStride":0,"componentType":5123,"count":30,"type":"SCALAR"},"accessor_b10":{"bufferView":"bufferView_b","byteOffset":1040,"byteStride":0,"componentType":5123,"count":88,"type":"SCALAR"}},"animations":{},"asset":{"generator":"collada2gltf@cf6371beb0bdc18ba603378d5e40c966da53d385","premultipliedAlpha":true,"profile":{"api":"WebGL","version":"1.0.2"},"version":"1.0"},"bufferViews":{"bufferView_222":{"buffer":"\\data\\3dcity\\miami\\workspace\\gridID_35\\gridID_35","byteLength":1656,"byteOffset":0,"target":34963},"bufferView_223":{"buffer":"\\data\\3dcity\\miami\\workspace\\gridID_35\\gridID_35","byteLength":14592,"byteOffset":1656,"target":34962},"bufferView_b":{"buffer":"buffer_b","byteLength":1216,"byteOffset":0,"target":34962}},"buffers":{"\\data\\3dcity\\miami\\workspace\\gridID_35\\gridID_35":{"byteLength":16248,"type":"arraybuffer","uri":"data:application/octet-stream;base64,"},"buffer_b":{"type":"arraybuffer","byteLength":1216,"uri":"data:application/octet-stream;base64,"}},"materials":{"CityEngineMaterial_419-effect":{"name":"CityEngineMaterial_419","technique":"technique0","values":{"ambient":[1,1,1,1],"diffuse":[1,1,1,1],"emission":[0,0,0,1],"shininess":50,"specular":[0.5,0.5,0.5,1]}},"CityEngineMaterial_420-effect":{"name":"CityEngineMaterial_420","technique":"technique0","values":{"ambient":[1,1,1,1],"diffuse":[1,1,1,1],"emission":[0,0,0,1],"shininess":50,"specular":[0.5,0.5,0.5,1]}},"CityEngineMaterial_421-effect":{"name":"CityEngineMaterial_421","technique":"technique0","values":{"ambient":[1,1,1,1],"diffuse":[1,1,1,1],"emission":[0,0,0,1],"shininess":50,"specular":[0.5,0.5,0.5,1]}},"CityEngineMaterial_422-effect":{"name":"CityEngineMaterial_422","technique":"technique0","values":{"ambient":[1,1,1,1],"diffuse":[1,1,1,1],"emission":[0,0,0,1],"shininess":50,"specular":[0.5,0.5,0.5,1]}},"CityEngineMaterial_423-effect":{"name":"CityEngineMaterial_423","technique":"technique0","values":{"ambient":[1,1,1,1],"diffuse":[1,1,1,1],"emission":[0,0,0,1],"shininess":50,"specular":[0.5,0.5,0.5,1]}},"CityEngineMaterial_424-effect":{"name":"CityEngineMaterial_424","technique":"technique0","values":{"ambient":[1,1,1,1],"diffuse":[1,1,1,1],"emission":[0,0,0,1],"shininess":50,"specular":[0.5,0.5,0.5,1]}},"CityEngineMaterial_425-effect":{"name":"CityEngineMaterial_425","technique":"technique0","values":{"ambient":[1,1,1,1],"diffuse":[1,1,1,1],"emission":[0,0,0,1],"shininess":50,"specular":[0.5,0.5,0.5,1]}},"CityEngineMaterial_426-effect":{"name":"CityEngineMaterial_426","technique":"technique0","values":{"ambient":[1,1,1,1],"diffuse":[1,1,1,1],"emission":[0,0,0,1],"shininess":50,"specular":[0.5,0.5,0.5,1]}},"CityEngineMaterial_427-effect":{"name":"CityEngineMaterial_427","technique":"technique0","values":{"ambient":[1,1,1,1],"diffuse":[1,1,1,1],"emission":[0,0,0,1],"shininess":50,"specular":[0.5,0.5,0.5,1]}},"CityEngineMaterial_428-effect":{"name":"CityEngineMaterial_428","technique":"technique0","values":{"ambient":[1,1,1,1],"diffuse":[1,1,1,1],"emission":[0,0,0,1],"shininess":50,"specular":[0.5,0.5,0.5,1]}},"CityEngineMaterial_429-effect":{"name":"CityEngineMaterial_429","technique":"technique0","values":{"ambient":[1,1,1,1],"diffuse":[1,1,1,1],"emission":[0,0,0,1],"shininess":50,"specular":[0.5,0.5,0.5,1]}}},"meshes":{"mesh_CityEngineMaterial_417-mesh":{"name":"mesh_CityEngineMaterial.417","primitives":[{"attributes":{"NORMAL":"accessor_20","POSITION":"accessor_18","BATCHID":"accessor_b0"},"indices":"accessor_16","material":"CityEngineMaterial_419-effect","mode":4}]},"mesh_CityEngineMaterial_418-mesh":{"name":"mesh_CityEngineMaterial.418","primitives":[{"attributes":{"NORMAL":"accessor_40","POSITION":"accessor_38","BATCHID":"accessor_b1"},"indices":"accessor_36","material":"CityEngineMaterial_420-effect","mode":4}]},"mesh_CityEngineMaterial_419-mesh":{"name":"mesh_CityEngineMaterial.419","primitives":[{"attributes":{"NORMAL":"accessor_60","POSITION":"accessor_58","BATCHID":"accessor_b2"},"indices":"accessor_56","material":"CityEngineMaterial_421-effect","mode":4}]},"mesh_CityEngineMaterial_420-mesh":{"name":"mesh_CityEngineMaterial.420","primitives":[{"attributes":{"NORMAL":"accessor_80","POSITION":"accessor_78","BATCHID":"accessor_b3"},"indices":"accessor_76","material":"CityEngineMaterial_422-effect","mode":4}]},"mesh_CityEngineMaterial_421-mesh":{"name":"mesh_CityEngineMaterial.421","primitives":[{"attributes":{"NORMAL":"accessor_100","POSITION":"accessor_98","BATCHID":"accessor_b4"},"indices":"accessor_96","material":"CityEngineMaterial_423-effect","mode":4}]},"mesh_CityEngineMaterial_422-mesh":{"name":"mesh_CityEngineMaterial.422","primitives":[{"attributes":{"NORMAL":"accessor_120","POSITION":"accessor_118","BATCHID":"accessor_b5"},"indices":"accessor_116","material":"CityEngineMaterial_424-effect","mode":4}]},"mesh_CityEngineMaterial_423-mesh":{"name":"mesh_CityEngineMaterial.423","primitives":[{"attributes":{"NORMAL":"accessor_140","POSITION":"accessor_138","BATCHID":"accessor_b6"},"indices":"accessor_136","material":"CityEngineMaterial_425-effect","mode":4}]},"mesh_CityEngineMaterial_424-mesh":{"name":"mesh_CityEngineMaterial.424","primitives":[{"attributes":{"NORMAL":"accessor_160","POSITION":"accessor_158","BATCHID":"accessor_b7"},"indices":"accessor_156","material":"CityEngineMaterial_426-effect","mode":4}]},"mesh_CityEngineMaterial_425-mesh":{"name":"mesh_CityEngineMaterial.425","primitives":[{"attributes":{"NORMAL":"accessor_180","POSITION":"accessor_178","BATCHID":"accessor_b8"},"indices":"accessor_176","material":"CityEngineMaterial_427-effect","mode":4}]},"mesh_CityEngineMaterial_426-mesh":{"name":"mesh_CityEngineMaterial.426","primitives":[{"attributes":{"NORMAL":"accessor_200","POSITION":"accessor_198","BATCHID":"accessor_b9"},"indices":"accessor_196","material":"CityEngineMaterial_428-effect","mode":4}]},"mesh_CityEngineMaterial_427-mesh":{"name":"mesh_CityEngineMaterial.427","primitives":[{"attributes":{"NORMAL":"accessor_220","POSITION":"accessor_218","BATCHID":"accessor_b10"},"indices":"accessor_216","material":"CityEngineMaterial_429-effect","mode":4}]}},"nodes":{"CityEngineMaterial":{"children":[],"matrix":[1,0,0,0,0,-1.62921e-7,1,0,0,-1,-1.62921e-7,0,0,0,0,1],"meshes":["mesh_CityEngineMaterial_417-mesh"],"name":"CityEngineMaterial"},"CityEngineMaterial_001":{"children":[],"matrix":[1,0,0,0,0,-1.62921e-7,1,0,0,-1,-1.62921e-7,0,0,0,0,1],"meshes":["mesh_CityEngineMaterial_418-mesh"],"name":"CityEngineMaterial_001"},"CityEngineMaterial_002":{"children":[],"matrix":[1,0,0,0,0,-1.62921e-7,1,0,0,-1,-1.62921e-7,0,0,0,0,1],"meshes":["mesh_CityEngineMaterial_419-mesh"],"name":"CityEngineMaterial_002"},"CityEngineMaterial_003":{"children":[],"matrix":[1,0,0,0,0,-1.62921e-7,1,0,0,-1,-1.62921e-7,0,0,0,0,1],"meshes":["mesh_CityEngineMaterial_420-mesh"],"name":"CityEngineMaterial_003"},"CityEngineMaterial_004":{"children":[],"matrix":[1,0,0,0,0,-1.62921e-7,1,0,0,-1,-1.62921e-7,0,0,0,0,1],"meshes":["mesh_CityEngineMaterial_421-mesh"],"name":"CityEngineMaterial_004"},"CityEngineMaterial_005":{"children":[],"matrix":[1,0,0,0,0,-1.62921e-7,1,0,0,-1,-1.62921e-7,0,0,0,0,1],"meshes":["mesh_CityEngineMaterial_422-mesh"],"name":"CityEngineMaterial_005"},"CityEngineMaterial_006":{"children":[],"matrix":[1,0,0,0,0,-1.62921e-7,1,0,0,-1,-1.62921e-7,0,0,0,0,1],"meshes":["mesh_CityEngineMaterial_423-mesh"],"name":"CityEngineMaterial_006"},"CityEngineMaterial_007":{"children":[],"matrix":[1,0,0,0,0,-1.62921e-7,1,0,0,-1,-1.62921e-7,0,0,0,0,1],"meshes":["mesh_CityEngineMaterial_424-mesh"],"name":"CityEngineMaterial_007"},"CityEngineMaterial_008":{"children":[],"matrix":[1,0,0,0,0,-1.62921e-7,1,0,0,-1,-1.62921e-7,0,0,0,0,1],"meshes":["mesh_CityEngineMaterial_425-mesh"],"name":"CityEngineMaterial_008"},"CityEngineMaterial_009":{"children":[],"matrix":[1,0,0,0,0,-1.62921e-7,1,0,0,-1,-1.62921e-7,0,0,0,0,1],"meshes":["mesh_CityEngineMaterial_426-mesh"],"name":"CityEngineMaterial_009"},"CityEngineMaterial_010":{"children":[],"matrix":[1,0,0,0,0,-1.62921e-7,1,0,0,-1,-1.62921e-7,0,0,0,0,1],"meshes":["mesh_CityEngineMaterial_427-mesh"],"name":"CityEngineMaterial_010"},"node_11":{"children":["CityEngineMaterial","CityEngineMaterial_001","CityEngineMaterial_002","CityEngineMaterial_003","CityEngineMaterial_004","CityEngineMaterial_005","CityEngineMaterial_006","CityEngineMaterial_007","CityEngineMaterial_008","CityEngineMaterial_009","CityEngineMaterial_010"],"matrix":[1,0,0,0,0,0,-1,0,0,1,0,0,0,0,0,1],"name":"Y_UP_Transform"}},"programs":{"program_0":{"attributes":["a_normal","a_position","a_batchId"],"fragmentShader":"\\data\\3dcity\\miami\\workspace\\gridID_35\\gridID_350FS","vertexShader":"\\data\\3dcity\\miami\\workspace\\gridID_35\\gridID_350VS"}},"scene":"defaultScene","scenes":{"defaultScene":{"nodes":["node_11"]}},"shaders":{"\\data\\3dcity\\miami\\workspace\\gridID_35\\gridID_350FS":{"type":35632,"uri":"data:text/plain;base64,"},"\\data\\3dcity\\miami\\workspace\\gridID_35\\gridID_350VS":{"type":35633,"uri":"data:text/plain;base64,"}},"skins":{},"techniques":{"technique0":{"attributes":{"a_normal":"normal","a_position":"position","a_batchId":"batchId"},"parameters":{"ambient":{"type":35666},"diffuse":{"type":35666},"emission":{"type":35666},"modelViewMatrix":{"semantic":"MODELVIEW","type":35676},"normal":{"semantic":"NORMAL","type":35665},"normalMatrix":{"semantic":"MODELVIEWINVERSETRANSPOSE","type":35675},"position":{"semantic":"POSITION","type":35665},"projectionMatrix":{"semantic":"PROJECTION","type":35676},"shininess":{"type":5126},"specular":{"type":35666},"batchId":{"semantic":"BATCHID","type":5126}},"program":"program_0","states":{"enable":[2929,2884]},"uniforms":{"u_ambient":"ambient","u_diffuse":"diffuse","u_emission":"emission","u_modelViewMatrix":"modelViewMatrix","u_normalMatrix":"normalMatrix","u_projectionMatrix":"projectionMatrix","u_shininess":"shininess","u_specular":"specular"}}}}