{
    "accessors": {
        "accessor_100": {
            "bufferView": "bufferView_123",
            "byteOffset": 7752,
            "byteStride": 12,
            "componentType": 5126,
            "count": 34,
            "max": [
                0.97419,
                1,
                0.973535
            ],
            "min": [
                -0.974024,
                -1,
                -0.973493
            ],
            "type": "VEC3"
        },
        "accessor_116": {
            "bufferView": "bufferView_122",
            "byteOffset": 912,
            "byteStride": 0,
            "componentType": 5123,
            "count": 180,
            "type": "SCALAR"
        },
        "accessor_118": {
            "bufferView": "bufferView_123",
            "byteOffset": 8160,
            "byteStride": 12,
            "componentType": 5126,
            "count": 140,
            "max": [
                14.2969,
                31,
                91.9608
            ],
            "min": [
                -22.728,
                0,
                69.0934
            ],
            "type": "VEC3"
        },
        "accessor_120": {
            "bufferView": "bufferView_123",
            "byteOffset": 9840,
            "byteStride": 12,
            "componentType": 5126,
            "count": 140,
            "max": [
                0.980555,
                1,
                0.980338
            ],
            "min": [
                -0.981368,
                -1,
                -0.980074
            ],
            "type": "VEC3"
        },
        "accessor_16": {
            "bufferView": "bufferView_122",
            "byteOffset": 0,
            "byteStride": 0,
            "componentType": 5123,
            "count": 108,
            "type": "SCALAR"
        },
        "accessor_18": {
            "bufferView": "bufferView_123",
            "byteOffset": 0,
            "byteStride": 12,
            "componentType": 5126,
            "count": 82,
            "max": [
                -35.5854,
                10,
                60.7745
            ],
            "min": [
                -89.4084,
                0,
                -33.2418
            ],
            "type": "VEC3"
        },
        "accessor_20": {
            "bufferView": "bufferView_123",
            "byteOffset": 984,
            "byteStride": 12,
            "componentType": 5126,
            "count": 82,
            "max": [
                0.972825,
                1,
                0.974973
            ],
            "min": [
                -0.974321,
                -1,
                -0.971682
            ],
            "type": "VEC3"
        },
        "accessor_36": {
            "bufferView": "bufferView_122",
            "byteOffset": 216,
            "byteStride": 0,
            "componentType": 5123,
            "count": 72,
            "type": "SCALAR"
        },
        "accessor_38": {
            "bufferView": "bufferView_123",
            "byteOffset": 1968,
            "byteStride": 12,
            "componentType": 5126,
            "count": 55,
            "max": [
                48.1936,
                52.5,
                -51.474
            ],
            "min": [
                -12.264,
                0,
                -93.5752
            ],
            "type": "VEC3"
        },
        "accessor_40": {
            "bufferView": "bufferView_123",
            "byteOffset": 2628,
            "byteStride": 12,
            "componentType": 5126,
            "count": 55,
            "max": [
                0.972504,
                1,
                0.972513
            ],
            "min": [
                -0.974438,
                -1,
                -0.972566
            ],
            "type": "VEC3"
        },
        "accessor_56": {
            "bufferView": "bufferView_122",
            "byteOffset": 360,
            "byteStride": 0,
            "componentType": 5123,
            "count": 84,
            "type": "SCALAR"
        },
        "accessor_58": {
            "bufferView": "bufferView_123",
            "byteOffset": 3288,
            "byteStride": 12,
            "componentType": 5126,
            "count": 56,
            "max": [
                -25.8783,
                10,
                13.5069
            ],
            "min": [
                -80.1466,
                0,
                -56.2329
            ],
            "type": "VEC3"
        },
        "accessor_60": {
            "bufferView": "bufferView_123",
            "byteOffset": 3960,
            "byteStride": 12,
            "componentType": 5126,
            "count": 56,
            "max": [
                0.974321,
                1,
                0.979602
            ],
            "min": [
                -0.972741,
                -1,
                -0.971951
            ],
            "type": "VEC3"
        },
        "accessor_76": {
            "bufferView": "bufferView_122",
            "byteOffset": 528,
            "byteStride": 0,
            "componentType": 5123,
            "count": 156,
            "type": "SCALAR"
        },
        "accessor_78": {
            "bufferView": "bufferView_123",
            "byteOffset": 4632,
            "byteStride": 12,
            "componentType": 5126,
            "count": 113,
            "max": [
                35.9819,
                10,
                53.2221
            ],
            "min": [
                -26.858,
                0,
                -39.9537
            ],
            "type": "VEC3"
        },
        "accessor_80": {
            "bufferView": "bufferView_123",
            "byteOffset": 5988,
            "byteStride": 12,
            "componentType": 5126,
            "count": 113,
            "max": [
                0.986398,
                1,
                0.973482
            ],
            "min": [
                -0.974236,
                -1,
                -0.97011
            ],
            "type": "VEC3"
        },
        "accessor_96": {
            "bufferView": "bufferView_122",
            "byteOffset": 840,
            "byteStride": 0,
            "componentType": 5123,
            "count": 36,
            "type": "SCALAR"
        },
        "accessor_98": {
            "bufferView": "bufferView_123",
            "byteOffset": 7344,
            "byteStride": 12,
            "componentType": 5126,
            "count": 34,
            "max": [
                18.95,
                14,
                -9.75618
            ],
            "min": [
                1.76228,
                0,
                -27.4198
            ],
            "type": "VEC3"
        }
    },
    "animations": {},
    "asset": {
        "generator": "collada2gltf@cf6371beb0bdc18ba603378d5e40c966da53d385",
        "premultipliedAlpha": true,
        "profile": {
            "api": "WebGL",
            "version": "1.0.2"
        },
        "version": "1.0"
    },
    "bufferViews": {
        "bufferView_122": {
            "buffer": "\\data\\3dcity\\miami\\workspace\\gridID_57\\gridID_57",
            "byteLength": 1272,
            "byteOffset": 0,
            "target": 34963
        },
        "bufferView_123": {
            "buffer": "\\data\\3dcity\\miami\\workspace\\gridID_57\\gridID_57",
            "byteLength": 11520,
            "byteOffset": 1272,
            "target": 34962
        }
    },
    "buffers": {
        "\\data\\3dcity\\miami\\workspace\\gridID_57\\gridID_57": {
            "byteLength": 12792,
            "type": "arraybuffer",
            "uri": "data:application/octet-stream;base64,"
        }
    },
    "materials": {
        "CityEngineMaterial_555-effect": {
            "name": "CityEngineMaterial_555",
            "technique": "technique0",
            "values": {
                "ambient": [
                    1,
                    1,
                    1,
                    1
                ],
                "diffuse": [
                    1,
                    1,
                    1,
                    1
                ],
                "emission": [
                    0,
                    0,
                    0,
                    1
                ],
                "shininess": 50,
                "specular": [
                    0.5,
                    0.5,
                    0.5,
                    1
                ]
            }
        },
        "CityEngineMaterial_556-effect": {
            "name": "CityEngineMaterial_556",
            "technique": "technique0",
            "values": {
                "ambient": [
                    1,
                    1,
                    1,
                    1
                ],
                "diffuse": [
                    1,
                    1,
                    1,
                    1
                ],
                "emission": [
                    0,
                    0,
                    0,
                    1
                ],
                "shininess": 50,
                "specular": [
                    0.5,
                    0.5,
                    0.5,
                    1
                ]
            }
        },
        "CityEngineMaterial_557-effect": {
            "name": "CityEngineMaterial_557",
            "technique": "technique0",
            "values": {
                "ambient": [
                    1,
                    1,
                    1,
                    1
                ],
                "diffuse": [
                    1,
                    1,
                    1,
                    1
                ],
                "emission": [
                    0,
                    0,
                    0,
                    1
                ],
                "shininess": 50,
                "specular": [
                    0.5,
                    0.5,
                    0.5,
                    1
                ]
            }
        },
        "CityEngineMaterial_558-effect": {
            "name": "CityEngineMaterial_558",
            "technique": "technique0",
            "values": {
                "ambient": [
                    1,
                    1,
                    1,
                    1
                ],
                "diffuse": [
                    1,
                    1,
                    1,
                    1
                ],
                "emission": [
                    0,
                    0,
                    0,
                    1
                ],
                "shininess": 50,
                "specular": [
                    0.5,
                    0.5,
                    0.5,
                    1
                ]
            }
        },
        "CityEngineMaterial_559-effect": {
            "name": "CityEngineMaterial_559",
            "technique": "technique0",
            "values": {
                "ambient": [
                    1,
                    1,
                    1,
                    1
                ],
                "diffuse": [
                    1,
                    1,
                    1,
                    1
                ],
                "emission": [
                    0,
                    0,
                    0,
                    1
                ],
                "shininess": 50,
                "specular": [
                    0.5,
                    0.5,
                    0.5,
                    1
                ]
            }
        },
        "CityEngineMaterial_560-effect": {
            "name": "CityEngineMaterial_560",
            "technique": "technique0",
            "values": {
                "ambient": [
                    1,
                    1,
                    1,
                    1
                ],
                "diffuse": [
                    1,
                    1,
                    1,
                    1
                ],
                "emission": [
                    0,
                    0,
                    0,
                    1
                ],
                "shininess": 50,
                "specular": [
                    0.5,
                    0.5,
                    0.5,
                    1
                ]
            }
        }
    },
    "meshes": {
        "mesh_CityEngineMaterial_553-mesh": {
            "name": "mesh_CityEngineMaterial.553",
            "primitives": [
                {
                    "attributes": {
                        "NORMAL": "accessor_20",
                        "POSITION": "accessor_18"
                    },
                    "indices": "accessor_16",
                    "material": "CityEngineMaterial_555-effect",
                    "mode": 4
                }
            ]
        },
        "mesh_CityEngineMaterial_554-mesh": {
            "name": "mesh_CityEngineMaterial.554",
            "primitives": [
                {
                    "attributes": {
                        "NORMAL": "accessor_40",
                        "POSITION": "accessor_38"
                    },
                    "indices": "accessor_36",
                    "material": "CityEngineMaterial_556-effect",
                    "mode": 4
                }
            ]
        },
        "mesh_CityEngineMaterial_555-mesh": {
            "name": "mesh_CityEngineMaterial.555",
            "primitives": [
                {
                    "attributes": {
                        "NORMAL": "accessor_60",
                        "POSITION": "accessor_58"
                    },
                    "indices": "accessor_56",
                    "material": "CityEngineMaterial_557-effect",
                    "mode": 4
                }
            ]
        },
        "mesh_CityEngineMaterial_556-mesh": {
            "name": "mesh_CityEngineMaterial.556",
            "primitives": [
                {
                    "attributes": {
                        "NORMAL": "accessor_80",
                        "POSITION": "accessor_78"
                    },
                    "indices": "accessor_76",
                    "material": "CityEngineMaterial_558-effect",
                    "mode": 4
                }
            ]
        },
        "mesh_CityEngineMaterial_557-mesh": {
            "name": "mesh_CityEngineMaterial.557",
            "primitives": [
                {
                    "attributes": {
                        "NORMAL": "accessor_100",
                        "POSITION": "accessor_98"
                    },
                    "indices": "accessor_96",
                    "material": "CityEngineMaterial_559-effect",
                    "mode": 4
                }
            ]
        },
        "mesh_CityEngineMaterial_558-mesh": {
            "name": "mesh_CityEngineMaterial.558",
            "primitives": [
                {
                    "attributes": {
                        "NORMAL": "accessor_120",
                        "POSITION": "accessor_118"
                    },
                    "indices": "accessor_116",
                    "material": "CityEngineMaterial_560-effect",
                    "mode": 4
                }
            ]
        }
    },
    "nodes": {
        "CityEngineMaterial": {
            "children": [],
            "matrix": [
                1,
                0,
                0,
                0,
                0,
                -1.62921e-007,
                1,
                0,
                0,
                -1,
                -1.62921e-007,
                0,
                0,
                0,
                0,
                1
            ],
            "meshes": [
                "mesh_CityEngineMaterial_553-mesh"
            ],
            "name": "CityEngineMaterial"
        },
        "CityEngineMaterial_001": {
            "children": [],
            "matrix": [
                1,
                0,
                0,
                0,
                0,
                -1.62921e-007,
                1,
                0,
                0,
                -1,
                -1.62921e-007,
                0,
                0,
                0,
                0,
                1
            ],
            "meshes": [
                "mesh_CityEngineMaterial_554-mesh"
            ],
            "name": "CityEngineMaterial_001"
        },
        "CityEngineMaterial_002": {
            "children": [],
            "matrix": [
                1,
                0,
                0,
                0,
                0,
                -1.62921e-007,
                1,
                0,
                0,
                -1,
                -1.62921e-007,
                0,
                0,
                0,
                0,
                1
            ],
            "meshes": [
                "mesh_CityEngineMaterial_555-mesh"
            ],
            "name": "CityEngineMaterial_002"
        },
        "CityEngineMaterial_003": {
            "children": [],
            "matrix": [
                1,
                0,
                0,
                0,
                0,
                -1.62921e-007,
                1,
                0,
                0,
                -1,
                -1.62921e-007,
                0,
                0,
                0,
                0,
                1
            ],
            "meshes": [
                "mesh_CityEngineMaterial_556-mesh"
            ],
            "name": "CityEngineMaterial_003"
        },
        "CityEngineMaterial_004": {
            "children": [],
            "matrix": [
                1,
                0,
                0,
                0,
                0,
                -1.62921e-007,
                1,
                0,
                0,
                -1,
                -1.62921e-007,
                0,
                0,
                0,
                0,
                1
            ],
            "meshes": [
                "mesh_CityEngineMaterial_557-mesh"
            ],
            "name": "CityEngineMaterial_004"
        },
        "CityEngineMaterial_005": {
            "children": [],
            "matrix": [
                1,
                0,
                0,
                0,
                0,
                -1.62921e-007,
                1,
                0,
                0,
                -1,
                -1.62921e-007,
                0,
                0,
                0,
                0,
                1
            ],
            "meshes": [
                "mesh_CityEngineMaterial_558-mesh"
            ],
            "name": "CityEngineMaterial_005"
        },
        "node_6": {
            "children": [
                "CityEngineMaterial",
                "CityEngineMaterial_001",
                "CityEngineMaterial_002",
                "CityEngineMaterial_003",
                "CityEngineMaterial_004",
                "CityEngineMaterial_005"
            ],
            "matrix": [
                1,
                0,
                0,
                0,
                0,
                0,
                -1,
                0,
                0,
                1,
                0,
                0,
                0,
                0,
                0,
                1
            ],
            "name": "Y_UP_Transform"
        }
    },
    "programs": {
        "program_0": {
            "attributes": [
                "a_normal",
                "a_position"
            ],
            "fragmentShader": "\\data\\3dcity\\miami\\workspace\\gridID_57\\gridID_570FS",
            "vertexShader": "\\data\\3dcity\\miami\\workspace\\gridID_57\\gridID_570VS"
        }
    },
    "scene": "defaultScene",
    "scenes": {
        "defaultScene": {
            "nodes": [
                "node_6"
            ]
        }
    },
    "shaders": {
        "\\data\\3dcity\\miami\\workspace\\gridID_57\\gridID_570FS": {
            "type": 35632,
            "uri": "data:text/plain;base64,"
        },
        "\\data\\3dcity\\miami\\workspace\\gridID_57\\gridID_570VS": {
            "type": 35633,
            "uri": "data:text/plain;base64,"
        }
    },
    "skins": {},
    "techniques": {
        "technique0": {
            "attributes": {
                "a_normal": "normal",
                "a_position": "position"
            },
            "parameters": {
                "ambient": {
                    "type": 35666
                },
                "diffuse": {
                    "type": 35666
                },
                "emission": {
                    "type": 35666
                },
                "modelViewMatrix": {
                    "semantic": "MODELVIEW",
                    "type": 35676
                },
                "normal": {
                    "semantic": "NORMAL",
                    "type": 35665
                },
                "normalMatrix": {
                    "semantic": "MODELVIEWINVERSETRANSPOSE",
                    "type": 35675
                },
                "position": {
                    "semantic": "POSITION",
                    "type": 35665
                },
                "projectionMatrix": {
                    "semantic": "PROJECTION",
                    "type": 35676
                },
                "shininess": {
                    "type": 5126
                },
                "specular": {
                    "type": 35666
                }
            },
            "program": "program_0",
            "states": {
                "enable": [
                    2929,
                    2884
                ]
            },
            "uniforms": {
                "u_ambient": "ambient",
                "u_diffuse": "diffuse",
                "u_emission": "emission",
                "u_modelViewMatrix": "modelViewMatrix",
                "u_normalMatrix": "normalMatrix",
                "u_projectionMatrix": "projectionMatrix",
                "u_shininess": "shininess",
                "u_specular": "specular"
            }
        }
    }
}