{"accessors":{"accessor_16":{"bufferView":"bufferView_82","byteOffset":0,"byteStride":0,"componentType":5123,"count":552,"type":"SCALAR"},"accessor_18":{"bufferView":"bufferView_83","byteOffset":0,"byteStride":12,"componentType":5126,"count":514,"max":[36.3773,39.4036,13.6151],"min":[-27.2363,-53.4838,1.56746],"type":"VEC3"},"accessor_20":{"bufferView":"bufferView_83","byteOffset":6168,"byteStride":12,"componentType":5126,"count":514,"max":[0.973197,0.972632,1],"min":[-0.973188,-0.972631,0],"type":"VEC3"},"accessor_36":{"bufferView":"bufferView_82","byteOffset":1104,"byteStride":0,"componentType":5123,"count":558,"type":"SCALAR"},"accessor_38":{"bufferView":"bufferView_83","byteOffset":12336,"byteStride":12,"componentType":5126,"count":507,"max":[-34.5706,55.3723,37.8346],"min":[-87.9357,-61.2745,0.294155],"type":"VEC3"},"accessor_40":{"bufferView":"bufferView_83","byteOffset":18420,"byteStride":12,"componentType":5126,"count":507,"max":[0.973478,0.97292,1],"min":[-0.973471,-0.972923,0],"type":"VEC3"},"accessor_56":{"bufferView":"bufferView_82","byteOffset":2220,"byteStride":0,"componentType":5123,"count":906,"type":"SCALAR"},"accessor_58":{"bufferView":"bufferView_83","byteOffset":24504,"byteStride":12,"componentType":5126,"count":794,"max":[13.8728,-68.7839,28.8369],"min":[-23.2209,-92.1691,2.03594],"type":"VEC3"},"accessor_60":{"bufferView":"bufferView_83","byteOffset":34032,"byteStride":12,"componentType":5126,"count":794,"max":[0.999809,0.973117,1],"min":[-0.999396,-0.994025,0],"type":"VEC3"},"accessor_76":{"bufferView":"bufferView_82","byteOffset":4032,"byteStride":0,"componentType":5123,"count":939,"type":"SCALAR"},"accessor_78":{"bufferView":"bufferView_83","byteOffset":43560,"byteStride":12,"componentType":5126,"count":867,"max":[29.4227,49.6043,57.9642],"min":[-53.573,-52.7775,1.24418],"type":"VEC3"},"accessor_80":{"bufferView":"bufferView_83","byteOffset":53964,"byteStride":12,"componentType":5126,"count":867,"max":[0.974133,0.973577,1],"min":[-0.974117,-0.973594,0],"type":"VEC3"},"accessor_b0":{"bufferView":"bufferView_b","byteOffset":0,"byteStride":0,"componentType":5123,"count":514,"type":"SCALAR"},"accessor_b1":{"bufferView":"bufferView_b","byteOffset":1028,"byteStride":0,"componentType":5123,"count":507,"type":"SCALAR"},"accessor_b2":{"bufferView":"bufferView_b","byteOffset":2042,"byteStride":0,"componentType":5123,"count":794,"type":"SCALAR"},"accessor_b3":{"bufferView":"bufferView_b","byteOffset":3630,"byteStride":0,"componentType":5123,"count":867,"type":"SCALAR"}},"animations":{},"asset":{"generator":"collada2gltf@cf6371beb0bdc18ba603378d5e40c966da53d385","premultipliedAlpha":true,"profile":{"api":"WebGL","version":"1.0.2"},"version":"1.0"},"bufferViews":{"bufferView_82":{"buffer":"\\data\\3dcity\\miami\\workspace\\gridID_57\\gridID_57_high","byteLength":5912,"byteOffset":0,"target":34963},"bufferView_83":{"buffer":"\\data\\3dcity\\miami\\workspace\\gridID_57\\gridID_57_high","byteLength":64368,"byteOffset":5912,"target":34962},"bufferView_b":{"buffer":"buffer_b","byteLength":5364,"byteOffset":0,"target":34962}},"buffers":{"\\data\\3dcity\\miami\\workspace\\gridID_57\\gridID_57_high":{"byteLength":70280,"type":"arraybuffer","uri":"data:application/octet-stream;base64,"},"buffer_b":{"type":"arraybuffer","byteLength":5364,"uri":"data:application/octet-stream;base64,"}},"materials":{"__glTF__defaultMaterial0":{"name":"__glTF__defaultMaterial0","technique":"technique0","values":{"diffuse":[1,1,1,1]}}},"meshes":{"multipatch_footprint_432-mesh":{"name":"multipatch_footprint.432","primitives":[{"attributes":{"NORMAL":"accessor_20","POSITION":"accessor_18","BATCHID":"accessor_b0"},"indices":"accessor_16","material":"__glTF__defaultMaterial0","mode":4}]},"multipatch_footprint_455-mesh":{"name":"multipatch_footprint.455","primitives":[{"attributes":{"NORMAL":"accessor_40","POSITION":"accessor_38","BATCHID":"accessor_b1"},"indices":"accessor_36","material":"__glTF__defaultMaterial0","mode":4}]},"multipatch_footprint_459-mesh":{"name":"multipatch_footprint.459","primitives":[{"attributes":{"NORMAL":"accessor_60","POSITION":"accessor_58","BATCHID":"accessor_b2"},"indices":"accessor_56","material":"__glTF__defaultMaterial0","mode":4}]},"multipatch_footprint_461-mesh":{"name":"multipatch_footprint.461","primitives":[{"attributes":{"NORMAL":"accessor_80","POSITION":"accessor_78","BATCHID":"accessor_b3"},"indices":"accessor_76","material":"__glTF__defaultMaterial0","mode":4}]}},"nodes":{"gridID_57_w300225636_join":{"children":[],"matrix":[1,0,0,0,0,1,0,0,0,0,1,0,0.000366211,0.000335693,0,1],"meshes":["multipatch_footprint_455-mesh"],"name":"gridID_57_w300225636_join"},"gridID_57_w300225950_join":{"children":[],"matrix":[1,0,0,0,0,1,0,0,0,0,1,0,0.000366211,0.000335693,0,1],"meshes":["multipatch_footprint_461-mesh"],"name":"gridID_57_w300225950_join"},"gridID_57_w435234017_join":{"children":[],"matrix":[1,0,0,0,0,1,0,0,0,0,1,0,0.000366211,0.000335693,0,1],"meshes":["multipatch_footprint_432-mesh"],"name":"gridID_57_w435234017_join"},"gridID_57_w435847402_join":{"children":[],"matrix":[1,0,0,0,0,1,0,0,0,0,1,0,0.000366211,0.000335693,0,1],"meshes":["multipatch_footprint_459-mesh"],"name":"gridID_57_w435847402_join"},"node_4":{"children":["gridID_57_w435234017_join","gridID_57_w300225636_join","gridID_57_w435847402_join","gridID_57_w300225950_join"],"matrix":[1,0,0,0,0,0,-1,0,0,1,0,0,0,0,0,1],"name":"Y_UP_Transform"}},"programs":{"program_0":{"attributes":["a_normal","a_position","a_batchId"],"fragmentShader":"\\data\\3dcity\\miami\\workspace\\gridID_57\\gridID_57_high0FS","vertexShader":"\\data\\3dcity\\miami\\workspace\\gridID_57\\gridID_57_high0VS"}},"scene":"defaultScene","scenes":{"defaultScene":{"nodes":["node_4"]}},"shaders":{"\\data\\3dcity\\miami\\workspace\\gridID_57\\gridID_57_high0FS":{"type":35632,"uri":"data:text/plain;base64,"},"\\data\\3dcity\\miami\\workspace\\gridID_57\\gridID_57_high0VS":{"type":35633,"uri":"data:text/plain;base64,"}},"skins":{},"techniques":{"technique0":{"attributes":{"a_normal":"normal","a_position":"position","a_batchId":"batchId"},"parameters":{"diffuse":{"type":35666},"modelViewMatrix":{"semantic":"MODELVIEW","type":35676},"normal":{"semantic":"NORMAL","type":35665},"normalMatrix":{"semantic":"MODELVIEWINVERSETRANSPOSE","type":35675},"position":{"semantic":"POSITION","type":35665},"projectionMatrix":{"semantic":"PROJECTION","type":35676},"batchId":{"semantic":"BATCHID","type":5126}},"program":"program_0","states":{"enable":[2929,2884]},"uniforms":{"u_diffuse":"diffuse","u_modelViewMatrix":"modelViewMatrix","u_normalMatrix":"normalMatrix","u_projectionMatrix":"projectionMatrix"}}}}