{
    "accessors": {
        "accessor_100": {
            "bufferView": "bufferView_103",
            "byteOffset": 6540,
            "byteStride": 12,
            "componentType": 5126,
            "count": 55,
            "max": [
                0.960084,
                1,
                0.999298
            ],
            "min": [
                -0.999999,
                -1,
                -0.998706
            ],
            "type": "VEC3"
        },
        "accessor_16": {
            "bufferView": "bufferView_102",
            "byteOffset": 0,
            "byteStride": 0,
            "componentType": 5123,
            "count": 36,
            "type": "SCALAR"
        },
        "accessor_18": {
            "bufferView": "bufferView_103",
            "byteOffset": 0,
            "byteStride": 12,
            "componentType": 5126,
            "count": 30,
            "max": [
                86.3716,
                45.5,
                90.1676
            ],
            "min": [
                33.1387,
                0,
                46.0174
            ],
            "type": "VEC3"
        },
        "accessor_20": {
            "bufferView": "bufferView_103",
            "byteOffset": 360,
            "byteStride": 12,
            "componentType": 5126,
            "count": 30,
            "max": [
                0.88467,
                1,
                0.884666
            ],
            "min": [
                -0.884671,
                -1,
                -0.884665
            ],
            "type": "VEC3"
        },
        "accessor_36": {
            "bufferView": "bufferView_102",
            "byteOffset": 72,
            "byteStride": 0,
            "componentType": 5123,
            "count": 108,
            "type": "SCALAR"
        },
        "accessor_38": {
            "bufferView": "bufferView_103",
            "byteOffset": 720,
            "byteStride": 12,
            "componentType": 5126,
            "count": 83,
            "max": [
                115.66,
                49,
                -58.6356
            ],
            "min": [
                6.46652,
                0,
                -104.912
            ],
            "type": "VEC3"
        },
        "accessor_40": {
            "bufferView": "bufferView_103",
            "byteOffset": 1716,
            "byteStride": 12,
            "componentType": 5126,
            "count": 83,
            "max": [
                0.982859,
                1,
                0.983091
            ],
            "min": [
                -0.982849,
                -1,
                -0.984267
            ],
            "type": "VEC3"
        },
        "accessor_56": {
            "bufferView": "bufferView_102",
            "byteOffset": 288,
            "byteStride": 0,
            "componentType": 5123,
            "count": 48,
            "type": "SCALAR"
        },
        "accessor_58": {
            "bufferView": "bufferView_103",
            "byteOffset": 2712,
            "byteStride": 12,
            "componentType": 5126,
            "count": 36,
            "max": [
                49.3579,
                5,
                12.5711
            ],
            "min": [
                26.7266,
                0,
                -36.7334
            ],
            "type": "VEC3"
        },
        "accessor_60": {
            "bufferView": "bufferView_103",
            "byteOffset": 3144,
            "byteStride": 12,
            "componentType": 5126,
            "count": 36,
            "max": [
                0.966421,
                1,
                0.877703
            ],
            "min": [
                -0.901749,
                -1,
                -0.965722
            ],
            "type": "VEC3"
        },
        "accessor_76": {
            "bufferView": "bufferView_102",
            "byteOffset": 384,
            "byteStride": 0,
            "componentType": 5123,
            "count": 144,
            "type": "SCALAR"
        },
        "accessor_78": {
            "bufferView": "bufferView_103",
            "byteOffset": 3576,
            "byteStride": 12,
            "componentType": 5126,
            "count": 96,
            "max": [
                26.7823,
                5,
                4.85839
            ],
            "min": [
                -4.1534,
                0,
                -38.6492
            ],
            "type": "VEC3"
        },
        "accessor_80": {
            "bufferView": "bufferView_103",
            "byteOffset": 4728,
            "byteStride": 12,
            "componentType": 5126,
            "count": 96,
            "max": [
                0.999999,
                1,
                0.964197
            ],
            "min": [
                -0.966653,
                -1,
                -0.999216
            ],
            "type": "VEC3"
        },
        "accessor_96": {
            "bufferView": "bufferView_102",
            "byteOffset": 672,
            "byteStride": 0,
            "componentType": 5123,
            "count": 84,
            "type": "SCALAR"
        },
        "accessor_98": {
            "bufferView": "bufferView_103",
            "byteOffset": 5880,
            "byteStride": 12,
            "componentType": 5126,
            "count": 55,
            "max": [
                62.9277,
                10,
                -44.4832
            ],
            "min": [
                26.7934,
                0,
                -57.4243
            ],
            "type": "VEC3"
        }
    },
    "animations": {},
    "asset": {
        "generator": "collada2gltf@cf6371beb0bdc18ba603378d5e40c966da53d385",
        "premultipliedAlpha": true,
        "profile": {
            "api": "WebGL",
            "version": "1.0.2"
        },
        "version": "1.0"
    },
    "bufferViews": {
        "bufferView_102": {
            "buffer": "\\data\\3dcity\\miami\\workspace\\gridID_13\\gridID_13",
            "byteLength": 840,
            "byteOffset": 0,
            "target": 34963
        },
        "bufferView_103": {
            "buffer": "\\data\\3dcity\\miami\\workspace\\gridID_13\\gridID_13",
            "byteLength": 7200,
            "byteOffset": 840,
            "target": 34962
        }
    },
    "buffers": {
        "\\data\\3dcity\\miami\\workspace\\gridID_13\\gridID_13": {
            "byteLength": 8040,
            "type": "arraybuffer",
            "uri": "data:application/octet-stream;base64,"
        }
    },
    "materials": {
        "CityEngineMaterial_316-effect": {
            "name": "CityEngineMaterial_316",
            "technique": "technique0",
            "values": {
                "ambient": [
                    1,
                    1,
                    1,
                    1
                ],
                "diffuse": [
                    1,
                    1,
                    1,
                    1
                ],
                "emission": [
                    0,
                    0,
                    0,
                    1
                ],
                "shininess": 50,
                "specular": [
                    0.5,
                    0.5,
                    0.5,
                    1
                ]
            }
        },
        "CityEngineMaterial_317-effect": {
            "name": "CityEngineMaterial_317",
            "technique": "technique0",
            "values": {
                "ambient": [
                    1,
                    1,
                    1,
                    1
                ],
                "diffuse": [
                    1,
                    1,
                    1,
                    1
                ],
                "emission": [
                    0,
                    0,
                    0,
                    1
                ],
                "shininess": 50,
                "specular": [
                    0.5,
                    0.5,
                    0.5,
                    1
                ]
            }
        },
        "CityEngineMaterial_318-effect": {
            "name": "CityEngineMaterial_318",
            "technique": "technique0",
            "values": {
                "ambient": [
                    1,
                    1,
                    1,
                    1
                ],
                "diffuse": [
                    1,
                    1,
                    1,
                    1
                ],
                "emission": [
                    0,
                    0,
                    0,
                    1
                ],
                "shininess": 50,
                "specular": [
                    0.5,
                    0.5,
                    0.5,
                    1
                ]
            }
        },
        "CityEngineMaterial_319-effect": {
            "name": "CityEngineMaterial_319",
            "technique": "technique0",
            "values": {
                "ambient": [
                    1,
                    1,
                    1,
                    1
                ],
                "diffuse": [
                    1,
                    1,
                    1,
                    1
                ],
                "emission": [
                    0,
                    0,
                    0,
                    1
                ],
                "shininess": 50,
                "specular": [
                    0.5,
                    0.5,
                    0.5,
                    1
                ]
            }
        },
        "CityEngineMaterial_320-effect": {
            "name": "CityEngineMaterial_320",
            "technique": "technique0",
            "values": {
                "ambient": [
                    1,
                    1,
                    1,
                    1
                ],
                "diffuse": [
                    1,
                    1,
                    1,
                    1
                ],
                "emission": [
                    0,
                    0,
                    0,
                    1
                ],
                "shininess": 50,
                "specular": [
                    0.5,
                    0.5,
                    0.5,
                    1
                ]
            }
        }
    },
    "meshes": {
        "mesh_CityEngineMaterial_316-mesh": {
            "name": "mesh_CityEngineMaterial.316",
            "primitives": [
                {
                    "attributes": {
                        "NORMAL": "accessor_20",
                        "POSITION": "accessor_18"
                    },
                    "indices": "accessor_16",
                    "material": "CityEngineMaterial_316-effect",
                    "mode": 4
                }
            ]
        },
        "mesh_CityEngineMaterial_317-mesh": {
            "name": "mesh_CityEngineMaterial.317",
            "primitives": [
                {
                    "attributes": {
                        "NORMAL": "accessor_40",
                        "POSITION": "accessor_38"
                    },
                    "indices": "accessor_36",
                    "material": "CityEngineMaterial_317-effect",
                    "mode": 4
                }
            ]
        },
        "mesh_CityEngineMaterial_318-mesh": {
            "name": "mesh_CityEngineMaterial.318",
            "primitives": [
                {
                    "attributes": {
                        "NORMAL": "accessor_60",
                        "POSITION": "accessor_58"
                    },
                    "indices": "accessor_56",
                    "material": "CityEngineMaterial_318-effect",
                    "mode": 4
                }
            ]
        },
        "mesh_CityEngineMaterial_319-mesh": {
            "name": "mesh_CityEngineMaterial.319",
            "primitives": [
                {
                    "attributes": {
                        "NORMAL": "accessor_80",
                        "POSITION": "accessor_78"
                    },
                    "indices": "accessor_76",
                    "material": "CityEngineMaterial_319-effect",
                    "mode": 4
                }
            ]
        },
        "mesh_CityEngineMaterial_320-mesh": {
            "name": "mesh_CityEngineMaterial.320",
            "primitives": [
                {
                    "attributes": {
                        "NORMAL": "accessor_100",
                        "POSITION": "accessor_98"
                    },
                    "indices": "accessor_96",
                    "material": "CityEngineMaterial_320-effect",
                    "mode": 4
                }
            ]
        }
    },
    "nodes": {
        "CityEngineMaterial": {
            "children": [],
            "matrix": [
                1,
                0,
                0,
                0,
                0,
                -1.62921e-007,
                1,
                0,
                0,
                -1,
                -1.62921e-007,
                0,
                0,
                0,
                0,
                1
            ],
            "meshes": [
                "mesh_CityEngineMaterial_316-mesh"
            ],
            "name": "CityEngineMaterial"
        },
        "CityEngineMaterial_001": {
            "children": [],
            "matrix": [
                1,
                0,
                0,
                0,
                0,
                -1.62921e-007,
                1,
                0,
                0,
                -1,
                -1.62921e-007,
                0,
                0,
                0,
                0,
                1
            ],
            "meshes": [
                "mesh_CityEngineMaterial_317-mesh"
            ],
            "name": "CityEngineMaterial_001"
        },
        "CityEngineMaterial_002": {
            "children": [],
            "matrix": [
                1,
                0,
                0,
                0,
                0,
                -1.62921e-007,
                1,
                0,
                0,
                -1,
                -1.62921e-007,
                0,
                0,
                0,
                0,
                1
            ],
            "meshes": [
                "mesh_CityEngineMaterial_318-mesh"
            ],
            "name": "CityEngineMaterial_002"
        },
        "CityEngineMaterial_003": {
            "children": [],
            "matrix": [
                1,
                0,
                0,
                0,
                0,
                -1.62921e-007,
                1,
                0,
                0,
                -1,
                -1.62921e-007,
                0,
                0,
                0,
                0,
                1
            ],
            "meshes": [
                "mesh_CityEngineMaterial_319-mesh"
            ],
            "name": "CityEngineMaterial_003"
        },
        "CityEngineMaterial_004": {
            "children": [],
            "matrix": [
                1,
                0,
                0,
                0,
                0,
                -1.62921e-007,
                1,
                0,
                0,
                -1,
                -1.62921e-007,
                0,
                0,
                0,
                0,
                1
            ],
            "meshes": [
                "mesh_CityEngineMaterial_320-mesh"
            ],
            "name": "CityEngineMaterial_004"
        },
        "node_5": {
            "children": [
                "CityEngineMaterial",
                "CityEngineMaterial_001",
                "CityEngineMaterial_002",
                "CityEngineMaterial_003",
                "CityEngineMaterial_004"
            ],
            "matrix": [
                1,
                0,
                0,
                0,
                0,
                0,
                -1,
                0,
                0,
                1,
                0,
                0,
                0,
                0,
                0,
                1
            ],
            "name": "Y_UP_Transform"
        }
    },
    "programs": {
        "program_0": {
            "attributes": [
                "a_normal",
                "a_position"
            ],
            "fragmentShader": "\\data\\3dcity\\miami\\workspace\\gridID_13\\gridID_130FS",
            "vertexShader": "\\data\\3dcity\\miami\\workspace\\gridID_13\\gridID_130VS"
        }
    },
    "scene": "defaultScene",
    "scenes": {
        "defaultScene": {
            "nodes": [
                "node_5"
            ]
        }
    },
    "shaders": {
        "\\data\\3dcity\\miami\\workspace\\gridID_13\\gridID_130FS": {
            "type": 35632,
            "uri": "data:text/plain;base64,"
        },
        "\\data\\3dcity\\miami\\workspace\\gridID_13\\gridID_130VS": {
            "type": 35633,
            "uri": "data:text/plain;base64,"
        }
    },
    "skins": {},
    "techniques": {
        "technique0": {
            "attributes": {
                "a_normal": "normal",
                "a_position": "position"
            },
            "parameters": {
                "ambient": {
                    "type": 35666
                },
                "diffuse": {
                    "type": 35666
                },
                "emission": {
                    "type": 35666
                },
                "modelViewMatrix": {
                    "semantic": "MODELVIEW",
                    "type": 35676
                },
                "normal": {
                    "semantic": "NORMAL",
                    "type": 35665
                },
                "normalMatrix": {
                    "semantic": "MODELVIEWINVERSETRANSPOSE",
                    "type": 35675
                },
                "position": {
                    "semantic": "POSITION",
                    "type": 35665
                },
                "projectionMatrix": {
                    "semantic": "PROJECTION",
                    "type": 35676
                },
                "shininess": {
                    "type": 5126
                },
                "specular": {
                    "type": 35666
                }
            },
            "program": "program_0",
            "states": {
                "enable": [
                    2929,
                    2884
                ]
            },
            "uniforms": {
                "u_ambient": "ambient",
                "u_diffuse": "diffuse",
                "u_emission": "emission",
                "u_modelViewMatrix": "modelViewMatrix",
                "u_normalMatrix": "normalMatrix",
                "u_projectionMatrix": "projectionMatrix",
                "u_shininess": "shininess",
                "u_specular": "specular"
            }
        }
    }
}