{"accessors":{"accessor_16":{"bufferView":"bufferView_22","byteOffset":0,"byteStride":0,"componentType":5123,"count":1092,"type":"SCALAR"},"accessor_18":{"bufferView":"bufferView_23","byteOffset":0,"byteStride":12,"componentType":5126,"count":699,"max":[26.1355,74,44.6084],"min":[-46.1665,0,-30.2443],"type":"VEC3"},"accessor_20":{"bufferView":"bufferView_23","byteOffset":8388,"byteStride":12,"componentType":5126,"count":699,"max":[0.999862,1,0.999293],"min":[-0.999856,-1,-0.966284],"type":"VEC3"},"accessor_b0":{"bufferView":"bufferView_b","byteOffset":0,"byteStride":0,"componentType":5123,"count":699,"type":"SCALAR"}},"animations":{},"asset":{"generator":"collada2gltf@cf6371beb0bdc18ba603378d5e40c966da53d385","premultipliedAlpha":true,"profile":{"api":"WebGL","version":"1.0.2"},"version":"1.0"},"bufferViews":{"bufferView_22":{"buffer":"\\data\\3dcity\\miami\\workspace\\gridID_8\\gridID_8","byteLength":2184,"byteOffset":0,"target":34963},"bufferView_23":{"buffer":"\\data\\3dcity\\miami\\workspace\\gridID_8\\gridID_8","byteLength":16776,"byteOffset":2184,"target":34962},"bufferView_b":{"buffer":"buffer_b","byteLength":1398,"byteOffset":0,"target":34962}},"buffers":{"\\data\\3dcity\\miami\\workspace\\gridID_8\\gridID_8":{"byteLength":18960,"type":"arraybuffer","uri":"data:application/octet-stream;base64,"},"buffer_b":{"type":"arraybuffer","byteLength":1398,"uri":"data:application/octet-stream;base64,"}},"materials":{"CityEngineMaterial_305-effect":{"name":"CityEngineMaterial_305","technique":"technique0","values":{"ambient":[1,1,1,1],"diffuse":[1,1,1,1],"emission":[0,0,0,1],"shininess":50,"specular":[0.5,0.5,0.5,1]}}},"meshes":{"mesh_CityEngineMaterial_305-mesh":{"name":"mesh_CityEngineMaterial.305","primitives":[{"attributes":{"NORMAL":"accessor_20","POSITION":"accessor_18","BATCHID":"accessor_b0"},"indices":"accessor_16","material":"CityEngineMaterial_305-effect","mode":4}]}},"nodes":{"CityEngineMaterial":{"children":[],"matrix":[1,0,0,0,0,-1.62921e-7,1,0,0,-1,-1.62921e-7,0,0,0,0,1],"meshes":["mesh_CityEngineMaterial_305-mesh"],"name":"CityEngineMaterial"},"node_1":{"children":["CityEngineMaterial"],"matrix":[1,0,0,0,0,0,-1,0,0,1,0,0,0,0,0,1],"name":"Y_UP_Transform"}},"programs":{"program_0":{"attributes":["a_normal","a_position","a_batchId"],"fragmentShader":"\\data\\3dcity\\miami\\workspace\\gridID_8\\gridID_80FS","vertexShader":"\\data\\3dcity\\miami\\workspace\\gridID_8\\gridID_80VS"}},"scene":"defaultScene","scenes":{"defaultScene":{"nodes":["node_1"]}},"shaders":{"\\data\\3dcity\\miami\\workspace\\gridID_8\\gridID_80FS":{"type":35632,"uri":"data:text/plain;base64,"},"\\data\\3dcity\\miami\\workspace\\gridID_8\\gridID_80VS":{"type":35633,"uri":"data:text/plain;base64,"}},"skins":{},"techniques":{"technique0":{"attributes":{"a_normal":"normal","a_position":"position","a_batchId":"batchId"},"parameters":{"ambient":{"type":35666},"diffuse":{"type":35666},"emission":{"type":35666},"modelViewMatrix":{"semantic":"MODELVIEW","type":35676},"normal":{"semantic":"NORMAL","type":35665},"normalMatrix":{"semantic":"MODELVIEWINVERSETRANSPOSE","type":35675},"position":{"semantic":"POSITION","type":35665},"projectionMatrix":{"semantic":"PROJECTION","type":35676},"shininess":{"type":5126},"specular":{"type":35666},"batchId":{"semantic":"BATCHID","type":5126}},"program":"program_0","states":{"enable":[2929,2884]},"uniforms":{"u_ambient":"ambient","u_diffuse":"diffuse","u_emission":"emission","u_modelViewMatrix":"modelViewMatrix","u_normalMatrix":"normalMatrix","u_projectionMatrix":"projectionMatrix","u_shininess":"shininess","u_specular":"specular"}}}}