{
    "accessors": {
        "accessor_100": {
            "bufferView": "bufferView_103",
            "byteOffset": 84456,
            "byteStride": 12,
            "componentType": 5126,
            "count": 818,
            "max": [
                0.999988,
                0.999987,
                1
            ],
            "min": [
                -0.999988,
                -0.999988,
                0
            ],
            "type": "VEC3"
        },
        "accessor_16": {
            "bufferView": "bufferView_102",
            "byteOffset": 0,
            "byteStride": 0,
            "componentType": 5123,
            "count": 1230,
            "type": "SCALAR"
        },
        "accessor_18": {
            "bufferView": "bufferView_103",
            "byteOffset": 0,
            "byteStride": 12,
            "componentType": 5126,
            "count": 1103,
            "max": [
                0.906969,
                121.194,
                124.24
            ],
            "min": [
                -115.171,
                25.7102,
                0.410408
            ],
            "type": "VEC3"
        },
        "accessor_20": {
            "bufferView": "bufferView_103",
            "byteOffset": 13236,
            "byteStride": 12,
            "componentType": 5126,
            "count": 1103,
            "max": [
                0.999626,
                0.999643,
                1
            ],
            "min": [
                -0.99963,
                -0.999622,
                0
            ],
            "type": "VEC3"
        },
        "accessor_36": {
            "bufferView": "bufferView_102",
            "byteOffset": 2460,
            "byteStride": 0,
            "componentType": 5123,
            "count": 846,
            "type": "SCALAR"
        },
        "accessor_38": {
            "bufferView": "bufferView_103",
            "byteOffset": 26472,
            "byteStride": 12,
            "componentType": 5126,
            "count": 759,
            "max": [
                82.6515,
                5.47577,
                119.005
            ],
            "min": [
                21.6527,
                -86.3383,
                1.77633
            ],
            "type": "VEC3"
        },
        "accessor_40": {
            "bufferView": "bufferView_103",
            "byteOffset": 35580,
            "byteStride": 12,
            "componentType": 5126,
            "count": 759,
            "max": [
                0.99945,
                0.999596,
                1
            ],
            "min": [
                -0.99945,
                -0.999438,
                -1
            ],
            "type": "VEC3"
        },
        "accessor_56": {
            "bufferView": "bufferView_102",
            "byteOffset": 4152,
            "byteStride": 0,
            "componentType": 5123,
            "count": 876,
            "type": "SCALAR"
        },
        "accessor_58": {
            "bufferView": "bufferView_103",
            "byteOffset": 44688,
            "byteStride": 12,
            "componentType": 5126,
            "count": 789,
            "max": [
                81.1434,
                77.6784,
                19.2372
            ],
            "min": [
                49.116,
                29.3435,
                1.91527
            ],
            "type": "VEC3"
        },
        "accessor_60": {
            "bufferView": "bufferView_103",
            "byteOffset": 54156,
            "byteStride": 12,
            "componentType": 5126,
            "count": 789,
            "max": [
                0.99954,
                0.99953,
                1
            ],
            "min": [
                -0.99954,
                -0.99953,
                0
            ],
            "type": "VEC3"
        },
        "accessor_76": {
            "bufferView": "bufferView_102",
            "byteOffset": 5904,
            "byteStride": 0,
            "componentType": 5123,
            "count": 498,
            "type": "SCALAR"
        },
        "accessor_78": {
            "bufferView": "bufferView_103",
            "byteOffset": 63624,
            "byteStride": 12,
            "componentType": 5126,
            "count": 459,
            "max": [
                19.091,
                -46.2512,
                13.4469
            ],
            "min": [
                -73.3353,
                -89.787,
                3.25658
            ],
            "type": "VEC3"
        },
        "accessor_80": {
            "bufferView": "bufferView_103",
            "byteOffset": 69132,
            "byteStride": 12,
            "componentType": 5126,
            "count": 459,
            "max": [
                0.999455,
                0.999443,
                1
            ],
            "min": [
                -0.999455,
                -0.999443,
                0
            ],
            "type": "VEC3"
        },
        "accessor_96": {
            "bufferView": "bufferView_102",
            "byteOffset": 6900,
            "byteStride": 0,
            "componentType": 5123,
            "count": 960,
            "type": "SCALAR"
        },
        "accessor_98": {
            "bufferView": "bufferView_103",
            "byteOffset": 74640,
            "byteStride": 12,
            "componentType": 5126,
            "count": 818,
            "max": [
                18.9557,
                1.46144,
                50.6222
            ],
            "min": [
                -59.4187,
                -45.2297,
                2.07161
            ],
            "type": "VEC3"
        }
    },
    "animations": {},
    "asset": {
        "generator": "collada2gltf@cf6371beb0bdc18ba603378d5e40c966da53d385",
        "premultipliedAlpha": true,
        "profile": {
            "api": "WebGL",
            "version": "1.0.2"
        },
        "version": "1.0"
    },
    "bufferViews": {
        "bufferView_102": {
            "buffer": "\\data\\3dcity\\miami\\workspace\\gridID_37\\gridID_37_high",
            "byteLength": 8820,
            "byteOffset": 0,
            "target": 34963
        },
        "bufferView_103": {
            "buffer": "\\data\\3dcity\\miami\\workspace\\gridID_37\\gridID_37_high",
            "byteLength": 94272,
            "byteOffset": 8820,
            "target": 34962
        }
    },
    "buffers": {
        "\\data\\3dcity\\miami\\workspace\\gridID_37\\gridID_37_high": {
            "byteLength": 103092,
            "type": "arraybuffer",
            "uri": "data:application/octet-stream;base64,"
        }
    },
    "materials": {
        "__glTF__defaultMaterial0": {
            "name": "__glTF__defaultMaterial0",
            "technique": "technique0",
            "values": {
                "diffuse": [
                    1,
                    1,
                    1,
                    1
                ]
            }
        }
    },
    "meshes": {
        "multipatch_footprint_122-mesh": {
            "name": "multipatch_footprint.122",
            "primitives": [
                {
                    "attributes": {
                        "NORMAL": "accessor_20",
                        "POSITION": "accessor_18"
                    },
                    "indices": "accessor_16",
                    "material": "__glTF__defaultMaterial0",
                    "mode": 4
                }
            ]
        },
        "multipatch_footprint_268-mesh": {
            "name": "multipatch_footprint.268",
            "primitives": [
                {
                    "attributes": {
                        "NORMAL": "accessor_40",
                        "POSITION": "accessor_38"
                    },
                    "indices": "accessor_36",
                    "material": "__glTF__defaultMaterial0",
                    "mode": 4
                }
            ]
        },
        "multipatch_footprint_292-mesh": {
            "name": "multipatch_footprint.292",
            "primitives": [
                {
                    "attributes": {
                        "NORMAL": "accessor_60",
                        "POSITION": "accessor_58"
                    },
                    "indices": "accessor_56",
                    "material": "__glTF__defaultMaterial0",
                    "mode": 4
                }
            ]
        },
        "multipatch_footprint_318-mesh": {
            "name": "multipatch_footprint.318",
            "primitives": [
                {
                    "attributes": {
                        "NORMAL": "accessor_80",
                        "POSITION": "accessor_78"
                    },
                    "indices": "accessor_76",
                    "material": "__glTF__defaultMaterial0",
                    "mode": 4
                }
            ]
        },
        "multipatch_footprint_320-mesh": {
            "name": "multipatch_footprint.320",
            "primitives": [
                {
                    "attributes": {
                        "NORMAL": "accessor_100",
                        "POSITION": "accessor_98"
                    },
                    "indices": "accessor_96",
                    "material": "__glTF__defaultMaterial0",
                    "mode": 4
                }
            ]
        }
    },
    "nodes": {
        "gridID_37_w300753075_join": {
            "children": [],
            "matrix": [
                1,
                0,
                0,
                0,
                0,
                1,
                0,
                0,
                0,
                0,
                1,
                0,
                0.000379562,
                0.000339508,
                0,
                1
            ],
            "meshes": [
                "multipatch_footprint_122-mesh"
            ],
            "name": "gridID_37_w300753075_join"
        },
        "gridID_37_w435237341_join": {
            "children": [],
            "matrix": [
                1,
                0,
                0,
                0,
                0,
                1,
                0,
                0,
                0,
                0,
                1,
                0,
                0.000379562,
                0.000339508,
                0,
                1
            ],
            "meshes": [
                "multipatch_footprint_320-mesh"
            ],
            "name": "gridID_37_w435237341_join"
        },
        "gridID_37_w435532210_join": {
            "children": [],
            "matrix": [
                1,
                0,
                0,
                0,
                0,
                1,
                0,
                0,
                0,
                0,
                1,
                0,
                0.000379562,
                0.000339508,
                0,
                1
            ],
            "meshes": [
                "multipatch_footprint_318-mesh"
            ],
            "name": "gridID_37_w435532210_join"
        },
        "gridID_37_w435566455_join": {
            "children": [],
            "matrix": [
                1,
                0,
                0,
                0,
                0,
                1,
                0,
                0,
                0,
                0,
                1,
                0,
                0.000379562,
                0.000339508,
                0,
                1
            ],
            "meshes": [
                "multipatch_footprint_268-mesh"
            ],
            "name": "gridID_37_w435566455_join"
        },
        "gridID_37_w435747346_join": {
            "children": [],
            "matrix": [
                1,
                0,
                0,
                0,
                0,
                1,
                0,
                0,
                0,
                0,
                1,
                0,
                0.000379562,
                0.000339508,
                0,
                1
            ],
            "meshes": [
                "multipatch_footprint_292-mesh"
            ],
            "name": "gridID_37_w435747346_join"
        },
        "node_5": {
            "children": [
                "gridID_37_w300753075_join",
                "gridID_37_w435566455_join",
                "gridID_37_w435747346_join",
                "gridID_37_w435532210_join",
                "gridID_37_w435237341_join"
            ],
            "matrix": [
                1,
                0,
                0,
                0,
                0,
                0,
                -1,
                0,
                0,
                1,
                0,
                0,
                0,
                0,
                0,
                1
            ],
            "name": "Y_UP_Transform"
        }
    },
    "programs": {
        "program_0": {
            "attributes": [
                "a_normal",
                "a_position"
            ],
            "fragmentShader": "\\data\\3dcity\\miami\\workspace\\gridID_37\\gridID_37_high0FS",
            "vertexShader": "\\data\\3dcity\\miami\\workspace\\gridID_37\\gridID_37_high0VS"
        }
    },
    "scene": "defaultScene",
    "scenes": {
        "defaultScene": {
            "nodes": [
                "node_5"
            ]
        }
    },
    "shaders": {
        "\\data\\3dcity\\miami\\workspace\\gridID_37\\gridID_37_high0FS": {
            "type": 35632,
            "uri": "data:text/plain;base64,"
        },
        "\\data\\3dcity\\miami\\workspace\\gridID_37\\gridID_37_high0VS": {
            "type": 35633,
            "uri": "data:text/plain;base64,"
        }
    },
    "skins": {},
    "techniques": {
        "technique0": {
            "attributes": {
                "a_normal": "normal",
                "a_position": "position"
            },
            "parameters": {
                "diffuse": {
                    "type": 35666
                },
                "modelViewMatrix": {
                    "semantic": "MODELVIEW",
                    "type": 35676
                },
                "normal": {
                    "semantic": "NORMAL",
                    "type": 35665
                },
                "normalMatrix": {
                    "semantic": "MODELVIEWINVERSETRANSPOSE",
                    "type": 35675
                },
                "position": {
                    "semantic": "POSITION",
                    "type": 35665
                },
                "projectionMatrix": {
                    "semantic": "PROJECTION",
                    "type": 35676
                }
            },
            "program": "program_0",
            "states": {
                "enable": [
                    2929,
                    2884
                ]
            },
            "uniforms": {
                "u_diffuse": "diffuse",
                "u_modelViewMatrix": "modelViewMatrix",
                "u_normalMatrix": "normalMatrix",
                "u_projectionMatrix": "projectionMatrix"
            }
        }
    }
}