{"accessors":{"accessor_100":{"bufferView":"bufferView_123","byteOffset":92592,"byteStride":12,"componentType":5126,"count":5500,"max":[0.999961,0.998083,1],"min":[-0.999961,-0.996656,-0.0000553799],"type":"VEC3"},"accessor_116":{"bufferView":"bufferView_122","byteOffset":14814,"byteStride":0,"componentType":5123,"count":1791,"type":"SCALAR"},"accessor_118":{"bufferView":"bufferView_123","byteOffset":158592,"byteStride":12,"componentType":5126,"count":1563,"max":[81.5392,72.6423,104.904],"min":[14.6077,-13.7666,0],"type":"VEC3"},"accessor_120":{"bufferView":"bufferView_123","byteOffset":177348,"byteStride":12,"componentType":5126,"count":1563,"max":[0.979531,0.979115,1],"min":[-0.979521,-0.97909,0],"type":"VEC3"},"accessor_16":{"bufferView":"bufferView_122","byteOffset":0,"byteStride":0,"componentType":5123,"count":78,"type":"SCALAR"},"accessor_18":{"bufferView":"bufferView_123","byteOffset":0,"byteStride":12,"componentType":5126,"count":64,"max":[-59.0179,10.096,5.71044],"min":[-81.442,-1.26801,1.89048],"type":"VEC3"},"accessor_20":{"bufferView":"bufferView_123","byteOffset":768,"byteStride":12,"componentType":5126,"count":64,"max":[0.999593,0.999583,1],"min":[-0.999592,-0.999583,0],"type":"VEC3"},"accessor_36":{"bufferView":"bufferView_122","byteOffset":156,"byteStride":0,"componentType":5123,"count":432,"type":"SCALAR"},"accessor_38":{"bufferView":"bufferView_123","byteOffset":1536,"byteStride":12,"componentType":5126,"count":411,"max":[-56.4219,-6.80551,8.77155],"min":[-82.1574,-25.3979,1.84423],"type":"VEC3"},"accessor_40":{"bufferView":"bufferView_123","byteOffset":6468,"byteStride":12,"componentType":5126,"count":411,"max":[0.999473,0.999461,1],"min":[-0.999473,-0.999461,0],"type":"VEC3"},"accessor_56":{"bufferView":"bufferView_122","byteOffset":1020,"byteStride":0,"componentType":5123,"count":144,"type":"SCALAR"},"accessor_58":{"bufferView":"bufferView_123","byteOffset":11400,"byteStride":12,"componentType":5126,"count":126,"max":[-12.8807,76.6046,7.05339],"min":[-42.9142,59.6686,1.37876],"type":"VEC3"},"accessor_60":{"bufferView":"bufferView_123","byteOffset":12912,"byteStride":12,"componentType":5126,"count":126,"max":[0.999194,0.999176,1],"min":[-0.999194,-0.999176,0],"type":"VEC3"},"accessor_76":{"bufferView":"bufferView_122","byteOffset":1308,"byteStride":0,"componentType":5123,"count":579,"type":"SCALAR"},"accessor_78":{"bufferView":"bufferView_123","byteOffset":14424,"byteStride":12,"componentType":5126,"count":507,"max":[60.8537,-5.79614,117.522],"min":[20.2317,-26.0569,0.0249405],"type":"VEC3"},"accessor_80":{"bufferView":"bufferView_123","byteOffset":20508,"byteStride":12,"componentType":5126,"count":507,"max":[0.982748,0.999078,1],"min":[-0.976767,-0.987429,0],"type":"VEC3"},"accessor_96":{"bufferView":"bufferView_122","byteOffset":2466,"byteStride":0,"componentType":5123,"count":6174,"type":"SCALAR"},"accessor_98":{"bufferView":"bufferView_123","byteOffset":26592,"byteStride":12,"componentType":5126,"count":5500,"max":[116.31,-10.3072,160.946],"min":[-12.0105,-161.219,0],"type":"VEC3"},"accessor_b0":{"bufferView":"bufferView_b","byteOffset":0,"byteStride":0,"componentType":5123,"count":64,"type":"SCALAR"},"accessor_b1":{"bufferView":"bufferView_b","byteOffset":128,"byteStride":0,"componentType":5123,"count":411,"type":"SCALAR"},"accessor_b2":{"bufferView":"bufferView_b","byteOffset":950,"byteStride":0,"componentType":5123,"count":126,"type":"SCALAR"},"accessor_b3":{"bufferView":"bufferView_b","byteOffset":1202,"byteStride":0,"componentType":5123,"count":507,"type":"SCALAR"},"accessor_b4":{"bufferView":"bufferView_b","byteOffset":2216,"byteStride":0,"componentType":5123,"count":5500,"type":"SCALAR"},"accessor_b5":{"bufferView":"bufferView_b","byteOffset":13216,"byteStride":0,"componentType":5123,"count":1563,"type":"SCALAR"}},"animations":{},"asset":{"generator":"collada2gltf@cf6371beb0bdc18ba603378d5e40c966da53d385","premultipliedAlpha":true,"profile":{"api":"WebGL","version":"1.0.2"},"version":"1.0"},"bufferViews":{"bufferView_122":{"buffer":"\\data\\3dcity\\miami\\workspace\\gridID_47\\gridID_47_high","byteLength":18396,"byteOffset":0,"target":34963},"bufferView_123":{"buffer":"\\data\\3dcity\\miami\\workspace\\gridID_47\\gridID_47_high","byteLength":196104,"byteOffset":18396,"target":34962},"bufferView_b":{"buffer":"buffer_b","byteLength":16342,"byteOffset":0,"target":34962}},"buffers":{"\\data\\3dcity\\miami\\workspace\\gridID_47\\gridID_47_high":{"byteLength":214500,"type":"arraybuffer","uri":"data:application/octet-stream;base64,"},"buffer_b":{"type":"arraybuffer","byteLength":16342,"uri":"data:application/octet-stream;base64,"}},"materials":{"__glTF__defaultMaterial0":{"name":"__glTF__defaultMaterial0","technique":"technique0","values":{"diffuse":[1,1,1,1]}}},"meshes":{"multipatch_footprint_082-mesh":{"name":"multipatch_footprint.082","primitives":[{"attributes":{"NORMAL":"accessor_20","POSITION":"accessor_18","BATCHID":"accessor_b0"},"indices":"accessor_16","material":"__glTF__defaultMaterial0","mode":4}]},"multipatch_footprint_104-mesh":{"name":"multipatch_footprint.104","primitives":[{"attributes":{"NORMAL":"accessor_40","POSITION":"accessor_38","BATCHID":"accessor_b1"},"indices":"accessor_36","material":"__glTF__defaultMaterial0","mode":4}]},"multipatch_footprint_216-mesh":{"name":"multipatch_footprint.216","primitives":[{"attributes":{"NORMAL":"accessor_60","POSITION":"accessor_58","BATCHID":"accessor_b2"},"indices":"accessor_56","material":"__glTF__defaultMaterial0","mode":4}]},"multipatch_footprint_736-mesh":{"name":"multipatch_footprint.736","primitives":[{"attributes":{"NORMAL":"accessor_80","POSITION":"accessor_78","BATCHID":"accessor_b3"},"indices":"accessor_76","material":"__glTF__defaultMaterial0","mode":4}]},"multipatch_footprint_840-mesh":{"name":"multipatch_footprint.840","primitives":[{"attributes":{"NORMAL":"accessor_100","POSITION":"accessor_98","BATCHID":"accessor_b4"},"indices":"accessor_96","material":"__glTF__defaultMaterial0","mode":4}]},"multipatch_footprint_934-mesh":{"name":"multipatch_footprint.934","primitives":[{"attributes":{"NORMAL":"accessor_120","POSITION":"accessor_118","BATCHID":"accessor_b5"},"indices":"accessor_116","material":"__glTF__defaultMaterial0","mode":4}]}},"nodes":{"gridID_47_w283161396_join":{"children":[],"matrix":[1,0,0,0,0,1,0,0,0,0,1,0,0.00038147,0.000335693,0,1],"meshes":["multipatch_footprint_736-mesh"],"name":"gridID_47_w283161396_join"},"gridID_47_w283435210_join":{"children":[],"matrix":[1,0,0,0,0,1,0,0,0,0,1,0,0.00038147,0.000335693,0,1],"meshes":["multipatch_footprint_840-mesh"],"name":"gridID_47_w283435210_join"},"gridID_47_w300753072_join":{"children":[],"matrix":[1,0,0,0,0,1,0,0,0,0,1,0,0.00038147,0.000335693,0,1],"meshes":["multipatch_footprint_934-mesh"],"name":"gridID_47_w300753072_join"},"gridID_47_w435375095_join":{"children":[],"matrix":[1,0,0,0,0,1,0,0,0,0,1,0,0.00038147,0.000335693,0,1],"meshes":["multipatch_footprint_216-mesh"],"name":"gridID_47_w435375095_join"},"gridID_47_w435733142_join":{"children":[],"matrix":[1,0,0,0,0,1,0,0,0,0,1,0,0.00038147,0.000335693,0,1],"meshes":["multipatch_footprint_082-mesh"],"name":"gridID_47_w435733142_join"},"gridID_47_w435738689_join":{"children":[],"matrix":[1,0,0,0,0,1,0,0,0,0,1,0,0.00038147,0.000335693,0,1],"meshes":["multipatch_footprint_104-mesh"],"name":"gridID_47_w435738689_join"},"node_6":{"children":["gridID_47_w435733142_join","gridID_47_w435738689_join","gridID_47_w435375095_join","gridID_47_w283161396_join","gridID_47_w283435210_join","gridID_47_w300753072_join"],"matrix":[1,0,0,0,0,0,-1,0,0,1,0,0,0,0,0,1],"name":"Y_UP_Transform"}},"programs":{"program_0":{"attributes":["a_normal","a_position","a_batchId"],"fragmentShader":"\\data\\3dcity\\miami\\workspace\\gridID_47\\gridID_47_high0FS","vertexShader":"\\data\\3dcity\\miami\\workspace\\gridID_47\\gridID_47_high0VS"}},"scene":"defaultScene","scenes":{"defaultScene":{"nodes":["node_6"]}},"shaders":{"\\data\\3dcity\\miami\\workspace\\gridID_47\\gridID_47_high0FS":{"type":35632,"uri":"data:text/plain;base64,"},"\\data\\3dcity\\miami\\workspace\\gridID_47\\gridID_47_high0VS":{"type":35633,"uri":"data:text/plain;base64,"}},"skins":{},"techniques":{"technique0":{"attributes":{"a_normal":"normal","a_position":"position","a_batchId":"batchId"},"parameters":{"diffuse":{"type":35666},"modelViewMatrix":{"semantic":"MODELVIEW","type":35676},"normal":{"semantic":"NORMAL","type":35665},"normalMatrix":{"semantic":"MODELVIEWINVERSETRANSPOSE","type":35675},"position":{"semantic":"POSITION","type":35665},"projectionMatrix":{"semantic":"PROJECTION","type":35676},"batchId":{"semantic":"BATCHID","type":5126}},"program":"program_0","states":{"enable":[2929,2884]},"uniforms":{"u_diffuse":"diffuse","u_modelViewMatrix":"modelViewMatrix","u_normalMatrix":"normalMatrix","u_projectionMatrix":"projectionMatrix"}}}}