{"accessors":{"accessor_28":{"bufferView":"bufferView_37","byteOffset":0,"byteStride":0,"componentType":5123,"count":120,"type":"SCALAR"},"accessor_31":{"bufferView":"bufferView_37","byteOffset":240,"byteStride":0,"componentType":5123,"count":36,"type":"SCALAR"},"accessor_33":{"bufferView":"bufferView_38","byteOffset":0,"byteStride":12,"componentType":5126,"count":97,"max":[10.904,2.5,9.8133],"min":[-9.55194,-2.5,-9.9237],"type":"VEC3"},"accessor_35":{"bufferView":"bufferView_38","byteOffset":1164,"byteStride":12,"componentType":5126,"count":97,"max":[0.964691,1,0.964419],"min":[-0.964691,0,-0.964383],"type":"VEC3"},"accessor_b0":{"bufferView":"bufferView_b","byteOffset":0,"byteStride":0,"componentType":5123,"count":97,"type":"SCALAR"}},"animations":{},"asset":{"generator":"collada2gltf@cf6371beb0bdc18ba603378d5e40c966da53d385","premultipliedAlpha":true,"profile":{"api":"WebGL","version":"1.0.2"},"version":"1.0"},"bufferViews":{"bufferView_37":{"buffer":"\\data\\ECNU\\workspace\\gridID_49\\gridID_49","byteLength":312,"byteOffset":0,"target":34963},"bufferView_38":{"buffer":"\\data\\ECNU\\workspace\\gridID_49\\gridID_49","byteLength":2328,"byteOffset":312,"target":34962},"bufferView_b":{"buffer":"buffer_b","byteLength":194,"byteOffset":0,"target":34962}},"buffers":{"\\data\\ECNU\\workspace\\gridID_49\\gridID_49":{"byteLength":2640,"type":"arraybuffer","uri":"data:application/octet-stream;base64,"},"buffer_b":{"type":"arraybuffer","byteLength":194,"uri":"data:application/octet-stream;base64,"}},"materials":{"BUILDING_DEFAULT_0-effect":{"name":"BUILDING_DEFAULT_0","technique":"technique0","values":{"ambient":[0,0,0,1],"diffuse":[0.723055,0.708376,0.672443,1],"emission":[0,0,0,1],"shininess":50,"specular":[0.5,0.5,0.5,1]}},"CONCRETE_0-effect":{"name":"CONCRETE_0","technique":"technique0","values":{"ambient":[0,0,0,1],"diffuse":[0.309469,0.327778,0.309469,1],"emission":[0,0,0,1],"shininess":50,"specular":[0.5,0.5,0.5,1]}}},"meshes":{"Building3746-mesh":{"name":"Building3746","primitives":[{"attributes":{"NORMAL":"accessor_35","POSITION":"accessor_33","BATCHID":"accessor_b0"},"indices":"accessor_28","material":"BUILDING_DEFAULT_0-effect","mode":4},{"attributes":{"NORMAL":"accessor_35","POSITION":"accessor_33","BATCHID":"accessor_b0"},"indices":"accessor_31","material":"CONCRETE_0-effect","mode":4}]}},"nodes":{"model_gridID_49_w375814153":{"children":[],"matrix":[1,0,0,0,0,-1.62921e-7,1,0,0,-1,-1.62921e-7,0,-192.87,-45.2897,2.49999,1],"meshes":["Building3746-mesh"],"name":"model_gridID_49_w375814153"},"node_1":{"children":["model_gridID_49_w375814153"],"matrix":[1,0,0,0,0,0,-1,0,0,1,0,0,0,0,0,1],"name":"Y_UP_Transform"}},"programs":{"program_0":{"attributes":["a_normal","a_position","a_batchId"],"fragmentShader":"\\data\\ECNU\\workspace\\gridID_49\\gridID_490FS","vertexShader":"\\data\\ECNU\\workspace\\gridID_49\\gridID_490VS"}},"scene":"defaultScene","scenes":{"defaultScene":{"nodes":["node_1"]}},"shaders":{"\\data\\ECNU\\workspace\\gridID_49\\gridID_490FS":{"type":35632,"uri":"data:text/plain;base64,"},"\\data\\ECNU\\workspace\\gridID_49\\gridID_490VS":{"type":35633,"uri":"data:text/plain;base64,"}},"skins":{},"techniques":{"technique0":{"attributes":{"a_normal":"normal","a_position":"position","a_batchId":"batchId"},"parameters":{"ambient":{"type":35666},"diffuse":{"type":35666},"emission":{"type":35666},"modelViewMatrix":{"semantic":"MODELVIEW","type":35676},"normal":{"semantic":"NORMAL","type":35665},"normalMatrix":{"semantic":"MODELVIEWINVERSETRANSPOSE","type":35675},"position":{"semantic":"POSITION","type":35665},"projectionMatrix":{"semantic":"PROJECTION","type":35676},"shininess":{"type":5126},"specular":{"type":35666},"batchId":{"semantic":"BATCHID","type":5126}},"program":"program_0","states":{"enable":[2929,2884]},"uniforms":{"u_ambient":"ambient","u_diffuse":"diffuse","u_emission":"emission","u_modelViewMatrix":"modelViewMatrix","u_normalMatrix":"normalMatrix","u_projectionMatrix":"projectionMatrix","u_shininess":"shininess","u_specular":"specular"}}}}