{"accessors":{"accessor_100":{"bufferView":"bufferView_103","byteOffset":5088,"byteStride":12,"componentType":5126,"count":32,"max":[0.974176,1,0.968067],"min":[-0.973814,-1,-0.969558],"type":"VEC3"},"accessor_16":{"bufferView":"bufferView_102","byteOffset":0,"byteStride":0,"componentType":5123,"count":60,"type":"SCALAR"},"accessor_18":{"bufferView":"bufferView_103","byteOffset":0,"byteStride":12,"componentType":5126,"count":52,"max":[50.3866,10,-4.07429],"min":[12.0482,0,-19.4146],"type":"VEC3"},"accessor_20":{"bufferView":"bufferView_103","byteOffset":624,"byteStride":12,"componentType":5126,"count":52,"max":[0.985743,1,0.97832],"min":[-0.975914,-1,-0.972453],"type":"VEC3"},"accessor_36":{"bufferView":"bufferView_102","byteOffset":120,"byteStride":0,"componentType":5123,"count":48,"type":"SCALAR"},"accessor_38":{"bufferView":"bufferView_103","byteOffset":1248,"byteStride":12,"componentType":5126,"count":35,"max":[-37.912,147,-14.1364],"min":[-69.1482,0,-76.1901],"type":"VEC3"},"accessor_40":{"bufferView":"bufferView_103","byteOffset":1668,"byteStride":12,"componentType":5126,"count":35,"max":[0.999487,1,0.999486],"min":[-0.999493,-1,-0.999499],"type":"VEC3"},"accessor_56":{"bufferView":"bufferView_102","byteOffset":216,"byteStride":0,"componentType":5123,"count":48,"type":"SCALAR"},"accessor_58":{"bufferView":"bufferView_103","byteOffset":2088,"byteStride":12,"componentType":5126,"count":42,"max":[-8.08949,161,49.0543],"min":[-62.0906,0,8.01501],"type":"VEC3"},"accessor_60":{"bufferView":"bufferView_103","byteOffset":2592,"byteStride":12,"componentType":5126,"count":42,"max":[0.974591,1,0.974585],"min":[-0.974591,-1,-0.974599],"type":"VEC3"},"accessor_76":{"bufferView":"bufferView_102","byteOffset":312,"byteStride":0,"componentType":5123,"count":96,"type":"SCALAR"},"accessor_78":{"bufferView":"bufferView_103","byteOffset":3096,"byteStride":12,"componentType":5126,"count":67,"max":[10.4341,10,18.831],"min":[-47.452,0,-78.0566],"type":"VEC3"},"accessor_80":{"bufferView":"bufferView_103","byteOffset":3900,"byteStride":12,"componentType":5126,"count":67,"max":[0.97615,1,0.974582],"min":[-0.999487,-1,-0.999486],"type":"VEC3"},"accessor_96":{"bufferView":"bufferView_102","byteOffset":504,"byteStride":0,"componentType":5123,"count":36,"type":"SCALAR"},"accessor_98":{"bufferView":"bufferView_103","byteOffset":4704,"byteStride":12,"componentType":5126,"count":32,"max":[89.8939,10,-4.60585],"min":[16.5678,0,-68.526],"type":"VEC3"},"accessor_b0":{"bufferView":"bufferView_b","byteOffset":0,"byteStride":0,"componentType":5123,"count":52,"type":"SCALAR"},"accessor_b1":{"bufferView":"bufferView_b","byteOffset":104,"byteStride":0,"componentType":5123,"count":35,"type":"SCALAR"},"accessor_b2":{"bufferView":"bufferView_b","byteOffset":174,"byteStride":0,"componentType":5123,"count":42,"type":"SCALAR"},"accessor_b3":{"bufferView":"bufferView_b","byteOffset":258,"byteStride":0,"componentType":5123,"count":67,"type":"SCALAR"},"accessor_b4":{"bufferView":"bufferView_b","byteOffset":392,"byteStride":0,"componentType":5123,"count":32,"type":"SCALAR"}},"animations":{},"asset":{"generator":"collada2gltf@cf6371beb0bdc18ba603378d5e40c966da53d385","premultipliedAlpha":true,"profile":{"api":"WebGL","version":"1.0.2"},"version":"1.0"},"bufferViews":{"bufferView_102":{"buffer":"\\data\\3dcity\\miami\\workspace\\gridID_81\\gridID_81","byteLength":576,"byteOffset":0,"target":34963},"bufferView_103":{"buffer":"\\data\\3dcity\\miami\\workspace\\gridID_81\\gridID_81","byteLength":5472,"byteOffset":576,"target":34962},"bufferView_b":{"buffer":"buffer_b","byteLength":456,"byteOffset":0,"target":34962}},"buffers":{"\\data\\3dcity\\miami\\workspace\\gridID_81\\gridID_81":{"byteLength":6048,"type":"arraybuffer","uri":"data:application/octet-stream;base64,"},"buffer_b":{"type":"arraybuffer","byteLength":456,"uri":"data:application/octet-stream;base64,"}},"materials":{"CityEngineMaterial_649-effect":{"name":"CityEngineMaterial_649","technique":"technique0","values":{"ambient":[1,1,1,1],"diffuse":[1,1,1,1],"emission":[0,0,0,1],"shininess":50,"specular":[0.5,0.5,0.5,1]}},"CityEngineMaterial_650-effect":{"name":"CityEngineMaterial_650","technique":"technique0","values":{"ambient":[1,1,1,1],"diffuse":[1,1,1,1],"emission":[0,0,0,1],"shininess":50,"specular":[0.5,0.5,0.5,1]}},"CityEngineMaterial_651-effect":{"name":"CityEngineMaterial_651","technique":"technique0","values":{"ambient":[1,1,1,1],"diffuse":[1,1,1,1],"emission":[0,0,0,1],"shininess":50,"specular":[0.5,0.5,0.5,1]}},"CityEngineMaterial_652-effect":{"name":"CityEngineMaterial_652","technique":"technique0","values":{"ambient":[1,1,1,1],"diffuse":[1,1,1,1],"emission":[0,0,0,1],"shininess":50,"specular":[0.5,0.5,0.5,1]}},"CityEngineMaterial_653-effect":{"name":"CityEngineMaterial_653","technique":"technique0","values":{"ambient":[1,1,1,1],"diffuse":[1,1,1,1],"emission":[0,0,0,1],"shininess":50,"specular":[0.5,0.5,0.5,1]}}},"meshes":{"mesh_CityEngineMaterial_647-mesh":{"name":"mesh_CityEngineMaterial.647","primitives":[{"attributes":{"NORMAL":"accessor_20","POSITION":"accessor_18","BATCHID":"accessor_b0"},"indices":"accessor_16","material":"CityEngineMaterial_649-effect","mode":4}]},"mesh_CityEngineMaterial_648-mesh":{"name":"mesh_CityEngineMaterial.648","primitives":[{"attributes":{"NORMAL":"accessor_40","POSITION":"accessor_38","BATCHID":"accessor_b1"},"indices":"accessor_36","material":"CityEngineMaterial_650-effect","mode":4}]},"mesh_CityEngineMaterial_649-mesh":{"name":"mesh_CityEngineMaterial.649","primitives":[{"attributes":{"NORMAL":"accessor_60","POSITION":"accessor_58","BATCHID":"accessor_b2"},"indices":"accessor_56","material":"CityEngineMaterial_651-effect","mode":4}]},"mesh_CityEngineMaterial_650-mesh":{"name":"mesh_CityEngineMaterial.650","primitives":[{"attributes":{"NORMAL":"accessor_80","POSITION":"accessor_78","BATCHID":"accessor_b3"},"indices":"accessor_76","material":"CityEngineMaterial_652-effect","mode":4}]},"mesh_CityEngineMaterial_651-mesh":{"name":"mesh_CityEngineMaterial.651","primitives":[{"attributes":{"NORMAL":"accessor_100","POSITION":"accessor_98","BATCHID":"accessor_b4"},"indices":"accessor_96","material":"CityEngineMaterial_653-effect","mode":4}]}},"nodes":{"CityEngineMaterial":{"children":[],"matrix":[1,0,0,0,0,-1.62921e-7,1,0,0,-1,-1.62921e-7,0,0,0,0,1],"meshes":["mesh_CityEngineMaterial_647-mesh"],"name":"CityEngineMaterial"},"CityEngineMaterial_001":{"children":[],"matrix":[1,0,0,0,0,-1.62921e-7,1,0,0,-1,-1.62921e-7,0,0,0,0,1],"meshes":["mesh_CityEngineMaterial_648-mesh"],"name":"CityEngineMaterial_001"},"CityEngineMaterial_002":{"children":[],"matrix":[1,0,0,0,0,-1.62921e-7,1,0,0,-1,-1.62921e-7,0,0,0,0,1],"meshes":["mesh_CityEngineMaterial_649-mesh"],"name":"CityEngineMaterial_002"},"CityEngineMaterial_003":{"children":[],"matrix":[1,0,0,0,0,-1.62921e-7,1,0,0,-1,-1.62921e-7,0,0,0,0,1],"meshes":["mesh_CityEngineMaterial_650-mesh"],"name":"CityEngineMaterial_003"},"CityEngineMaterial_004":{"children":[],"matrix":[1,0,0,0,0,-1.62921e-7,1,0,0,-1,-1.62921e-7,0,0,0,0,1],"meshes":["mesh_CityEngineMaterial_651-mesh"],"name":"CityEngineMaterial_004"},"node_5":{"children":["CityEngineMaterial","CityEngineMaterial_001","CityEngineMaterial_002","CityEngineMaterial_003","CityEngineMaterial_004"],"matrix":[1,0,0,0,0,0,-1,0,0,1,0,0,0,0,0,1],"name":"Y_UP_Transform"}},"programs":{"program_0":{"attributes":["a_normal","a_position","a_batchId"],"fragmentShader":"\\data\\3dcity\\miami\\workspace\\gridID_81\\gridID_810FS","vertexShader":"\\data\\3dcity\\miami\\workspace\\gridID_81\\gridID_810VS"}},"scene":"defaultScene","scenes":{"defaultScene":{"nodes":["node_5"]}},"shaders":{"\\data\\3dcity\\miami\\workspace\\gridID_81\\gridID_810FS":{"type":35632,"uri":"data:text/plain;base64,"},"\\data\\3dcity\\miami\\workspace\\gridID_81\\gridID_810VS":{"type":35633,"uri":"data:text/plain;base64,"}},"skins":{},"techniques":{"technique0":{"attributes":{"a_normal":"normal","a_position":"position","a_batchId":"batchId"},"parameters":{"ambient":{"type":35666},"diffuse":{"type":35666},"emission":{"type":35666},"modelViewMatrix":{"semantic":"MODELVIEW","type":35676},"normal":{"semantic":"NORMAL","type":35665},"normalMatrix":{"semantic":"MODELVIEWINVERSETRANSPOSE","type":35675},"position":{"semantic":"POSITION","type":35665},"projectionMatrix":{"semantic":"PROJECTION","type":35676},"shininess":{"type":5126},"specular":{"type":35666},"batchId":{"semantic":"BATCHID","type":5126}},"program":"program_0","states":{"enable":[2929,2884]},"uniforms":{"u_ambient":"ambient","u_diffuse":"diffuse","u_emission":"emission","u_modelViewMatrix":"modelViewMatrix","u_normalMatrix":"normalMatrix","u_projectionMatrix":"projectionMatrix","u_shininess":"shininess","u_specular":"specular"}}}}