{"accessors":{"accessor_16":{"bufferView":"bufferView_42","byteOffset":0,"byteStride":0,"componentType":5123,"count":36,"type":"SCALAR"},"accessor_18":{"bufferView":"bufferView_43","byteOffset":0,"byteStride":12,"componentType":5126,"count":34,"max":[-24.9655,52.5,11.1726],"min":[-62.0349,0,-53.2367],"type":"VEC3"},"accessor_20":{"bufferView":"bufferView_43","byteOffset":408,"byteStride":12,"componentType":5126,"count":34,"max":[0.972722,1,0.972742],"min":[-0.972692,-1,-0.972598],"type":"VEC3"},"accessor_36":{"bufferView":"bufferView_42","byteOffset":72,"byteStride":0,"componentType":5123,"count":72,"type":"SCALAR"},"accessor_38":{"bufferView":"bufferView_43","byteOffset":816,"byteStride":12,"componentType":5126,"count":56,"max":[118.77,94,54.7177],"min":[23.2804,0,-43.608],"type":"VEC3"},"accessor_40":{"bufferView":"bufferView_43","byteOffset":1488,"byteStride":12,"componentType":5126,"count":56,"max":[0.967497,1,0.973473],"min":[-0.973437,-1,-0.974564],"type":"VEC3"},"accessor_b0":{"bufferView":"bufferView_b","byteOffset":0,"byteStride":0,"componentType":5123,"count":34,"type":"SCALAR"},"accessor_b1":{"bufferView":"bufferView_b","byteOffset":68,"byteStride":0,"componentType":5123,"count":56,"type":"SCALAR"}},"animations":{},"asset":{"generator":"collada2gltf@cf6371beb0bdc18ba603378d5e40c966da53d385","premultipliedAlpha":true,"profile":{"api":"WebGL","version":"1.0.2"},"version":"1.0"},"bufferViews":{"bufferView_42":{"buffer":"\\data\\3dcity\\miami\\workspace\\gridID_21\\gridID_21","byteLength":216,"byteOffset":0,"target":34963},"bufferView_43":{"buffer":"\\data\\3dcity\\miami\\workspace\\gridID_21\\gridID_21","byteLength":2160,"byteOffset":216,"target":34962},"bufferView_b":{"buffer":"buffer_b","byteLength":180,"byteOffset":0,"target":34962}},"buffers":{"\\data\\3dcity\\miami\\workspace\\gridID_21\\gridID_21":{"byteLength":2376,"type":"arraybuffer","uri":"data:application/octet-stream;base64,"},"buffer_b":{"type":"arraybuffer","byteLength":180,"uri":"data:application/octet-stream;base64,"}},"materials":{"CityEngineMaterial_349-effect":{"name":"CityEngineMaterial_349","technique":"technique0","values":{"ambient":[1,1,1,1],"diffuse":[1,1,1,1],"emission":[0,0,0,1],"shininess":50,"specular":[0.5,0.5,0.5,1]}},"CityEngineMaterial_350-effect":{"name":"CityEngineMaterial_350","technique":"technique0","values":{"ambient":[1,1,1,1],"diffuse":[1,1,1,1],"emission":[0,0,0,1],"shininess":50,"specular":[0.5,0.5,0.5,1]}}},"meshes":{"mesh_CityEngineMaterial_348-mesh":{"name":"mesh_CityEngineMaterial.348","primitives":[{"attributes":{"NORMAL":"accessor_20","POSITION":"accessor_18","BATCHID":"accessor_b0"},"indices":"accessor_16","material":"CityEngineMaterial_349-effect","mode":4}]},"mesh_CityEngineMaterial_349-mesh":{"name":"mesh_CityEngineMaterial.349","primitives":[{"attributes":{"NORMAL":"accessor_40","POSITION":"accessor_38","BATCHID":"accessor_b1"},"indices":"accessor_36","material":"CityEngineMaterial_350-effect","mode":4}]}},"nodes":{"CityEngineMaterial":{"children":[],"matrix":[1,0,0,0,0,-1.62921e-7,1,0,0,-1,-1.62921e-7,0,0,0,0,1],"meshes":["mesh_CityEngineMaterial_348-mesh"],"name":"CityEngineMaterial"},"CityEngineMaterial_001":{"children":[],"matrix":[1,0,0,0,0,-1.62921e-7,1,0,0,-1,-1.62921e-7,0,0,0,0,1],"meshes":["mesh_CityEngineMaterial_349-mesh"],"name":"CityEngineMaterial_001"},"node_2":{"children":["CityEngineMaterial","CityEngineMaterial_001"],"matrix":[1,0,0,0,0,0,-1,0,0,1,0,0,0,0,0,1],"name":"Y_UP_Transform"}},"programs":{"program_0":{"attributes":["a_normal","a_position","a_batchId"],"fragmentShader":"\\data\\3dcity\\miami\\workspace\\gridID_21\\gridID_210FS","vertexShader":"\\data\\3dcity\\miami\\workspace\\gridID_21\\gridID_210VS"}},"scene":"defaultScene","scenes":{"defaultScene":{"nodes":["node_2"]}},"shaders":{"\\data\\3dcity\\miami\\workspace\\gridID_21\\gridID_210FS":{"type":35632,"uri":"data:text/plain;base64,"},"\\data\\3dcity\\miami\\workspace\\gridID_21\\gridID_210VS":{"type":35633,"uri":"data:text/plain;base64,"}},"skins":{},"techniques":{"technique0":{"attributes":{"a_normal":"normal","a_position":"position","a_batchId":"batchId"},"parameters":{"ambient":{"type":35666},"diffuse":{"type":35666},"emission":{"type":35666},"modelViewMatrix":{"semantic":"MODELVIEW","type":35676},"normal":{"semantic":"NORMAL","type":35665},"normalMatrix":{"semantic":"MODELVIEWINVERSETRANSPOSE","type":35675},"position":{"semantic":"POSITION","type":35665},"projectionMatrix":{"semantic":"PROJECTION","type":35676},"shininess":{"type":5126},"specular":{"type":35666},"batchId":{"semantic":"BATCHID","type":5126}},"program":"program_0","states":{"enable":[2929,2884]},"uniforms":{"u_ambient":"ambient","u_diffuse":"diffuse","u_emission":"emission","u_modelViewMatrix":"modelViewMatrix","u_normalMatrix":"normalMatrix","u_projectionMatrix":"projectionMatrix","u_shininess":"shininess","u_specular":"specular"}}}}