{"accessors":{"accessor_28":{"bufferView":"bufferView_72","byteOffset":456,"byteStride":0,"componentType":5123,"count":84,"type":"SCALAR"},"accessor_31":{"bufferView":"bufferView_72","byteOffset":624,"byteStride":0,"componentType":5123,"count":36,"type":"SCALAR"},"accessor_33":{"bufferView":"bufferView_73","byteOffset":3672,"byteStride":12,"componentType":5126,"count":87,"max":[25.3312,3.75,9.04637],"min":[-13.6968,-3.75,-17.6366],"type":"VEC3"},"accessor_35":{"bufferView":"bufferView_73","byteOffset":4716,"byteStride":12,"componentType":5126,"count":87,"max":[0.977994,1,0.978729],"min":[-0.979134,0,-0.977698],"type":"VEC3"},"accessor_63":{"bufferView":"bufferView_72","byteOffset":0,"byteStride":0,"componentType":5123,"count":156,"type":"SCALAR"},"accessor_66":{"bufferView":"bufferView_72","byteOffset":312,"byteStride":0,"componentType":5123,"count":72,"type":"SCALAR"},"accessor_68":{"bufferView":"bufferView_73","byteOffset":0,"byteStride":12,"componentType":5126,"count":153,"max":[21.9774,3.75,9.59152],"min":[-15.7266,-3.75,-10.1455],"type":"VEC3"},"accessor_70":{"bufferView":"bufferView_73","byteOffset":1836,"byteStride":12,"componentType":5126,"count":153,"max":[0.979134,1,0.978882],"min":[-0.978272,0,-0.978729],"type":"VEC3"},"accessor_b0":{"bufferView":"bufferView_b","byteOffset":0,"byteStride":0,"componentType":5123,"count":153,"type":"SCALAR"},"accessor_b1":{"bufferView":"bufferView_b","byteOffset":306,"byteStride":0,"componentType":5123,"count":87,"type":"SCALAR"}},"animations":{},"asset":{"generator":"collada2gltf@cf6371beb0bdc18ba603378d5e40c966da53d385","premultipliedAlpha":true,"profile":{"api":"WebGL","version":"1.0.2"},"version":"1.0"},"bufferViews":{"bufferView_72":{"buffer":"\\data\\ECNU\\workspace\\gridID_43\\gridID_43","byteLength":696,"byteOffset":0,"target":34963},"bufferView_73":{"buffer":"\\data\\ECNU\\workspace\\gridID_43\\gridID_43","byteLength":5760,"byteOffset":696,"target":34962},"bufferView_b":{"buffer":"buffer_b","byteLength":480,"byteOffset":0,"target":34962}},"buffers":{"\\data\\ECNU\\workspace\\gridID_43\\gridID_43":{"byteLength":6456,"type":"arraybuffer","uri":"data:application/octet-stream;base64,"},"buffer_b":{"type":"arraybuffer","byteLength":480,"uri":"data:application/octet-stream;base64,"}},"materials":{"BUILDING_DEFAULT_0-effect":{"name":"BUILDING_DEFAULT_0","technique":"technique0","values":{"ambient":[0,0,0,1],"diffuse":[0.723055,0.708376,0.672443,1],"emission":[0,0,0,1],"shininess":50,"specular":[0.5,0.5,0.5,1]}},"ROOF_DEFAULT_0-effect":{"name":"ROOF_DEFAULT_0","technique":"technique0","values":{"ambient":[0,0,0,1],"diffuse":[0.603827,0.381326,0.291771,1],"emission":[0,0,0,1],"shininess":50,"specular":[0.5,0.5,0.5,1]}}},"meshes":{"Building4020-mesh":{"name":"Building4020","primitives":[{"attributes":{"NORMAL":"accessor_70","POSITION":"accessor_68","BATCHID":"accessor_b0"},"indices":"accessor_63","material":"BUILDING_DEFAULT_0-effect","mode":4},{"attributes":{"NORMAL":"accessor_70","POSITION":"accessor_68","BATCHID":"accessor_b0"},"indices":"accessor_66","material":"ROOF_DEFAULT_0-effect","mode":4}]},"Building4021-mesh":{"name":"Building4021","primitives":[{"attributes":{"NORMAL":"accessor_35","POSITION":"accessor_33","BATCHID":"accessor_b1"},"indices":"accessor_28","material":"BUILDING_DEFAULT_0-effect","mode":4},{"attributes":{"NORMAL":"accessor_35","POSITION":"accessor_33","BATCHID":"accessor_b1"},"indices":"accessor_31","material":"ROOF_DEFAULT_0-effect","mode":4}]}},"nodes":{"model_gridID_43_w389541424":{"children":[],"matrix":[1,0,0,0,0,-1.62921e-7,1,0,0,-1,-1.62921e-7,0,367.728,-137.149,3.74998,1],"meshes":["Building4021-mesh"],"name":"model_gridID_43_w389541424"},"model_gridID_43_w389541424_001":{"children":[],"matrix":[1,0,0,0,0,-1.62921e-7,1,0,0,-1,-1.62921e-7,0,374.185,-147.49,3.74998,1],"meshes":["Building4020-mesh"],"name":"model_gridID_43_w389541424_001"},"node_2":{"children":["model_gridID_43_w389541424","model_gridID_43_w389541424_001"],"matrix":[1,0,0,0,0,0,-1,0,0,1,0,0,0,0,0,1],"name":"Y_UP_Transform"}},"programs":{"program_0":{"attributes":["a_normal","a_position","a_batchId"],"fragmentShader":"\\data\\ECNU\\workspace\\gridID_43\\gridID_430FS","vertexShader":"\\data\\ECNU\\workspace\\gridID_43\\gridID_430VS"}},"scene":"defaultScene","scenes":{"defaultScene":{"nodes":["node_2"]}},"shaders":{"\\data\\ECNU\\workspace\\gridID_43\\gridID_430FS":{"type":35632,"uri":"data:text/plain;base64,"},"\\data\\ECNU\\workspace\\gridID_43\\gridID_430VS":{"type":35633,"uri":"data:text/plain;base64,"}},"skins":{},"techniques":{"technique0":{"attributes":{"a_normal":"normal","a_position":"position","a_batchId":"batchId"},"parameters":{"ambient":{"type":35666},"diffuse":{"type":35666},"emission":{"type":35666},"modelViewMatrix":{"semantic":"MODELVIEW","type":35676},"normal":{"semantic":"NORMAL","type":35665},"normalMatrix":{"semantic":"MODELVIEWINVERSETRANSPOSE","type":35675},"position":{"semantic":"POSITION","type":35665},"projectionMatrix":{"semantic":"PROJECTION","type":35676},"shininess":{"type":5126},"specular":{"type":35666},"batchId":{"semantic":"BATCHID","type":5126}},"program":"program_0","states":{"enable":[2929,2884]},"uniforms":{"u_ambient":"ambient","u_diffuse":"diffuse","u_emission":"emission","u_modelViewMatrix":"modelViewMatrix","u_normalMatrix":"normalMatrix","u_projectionMatrix":"projectionMatrix","u_shininess":"shininess","u_specular":"specular"}}}}