{"accessors":{"accessor_113":{"bufferView":"bufferView_322","byteOffset":6108,"byteStride":0,"componentType":5123,"count":714,"type":"SCALAR"},"accessor_116":{"bufferView":"bufferView_322","byteOffset":7536,"byteStride":0,"componentType":5123,"count":198,"type":"SCALAR"},"accessor_118":{"bufferView":"bufferView_323","byteOffset":63672,"byteStride":12,"componentType":5126,"count":750,"max":[7.98456,1.42687,5.17075],"min":[-7.56946,-1.37313,-8.83327],"type":"VEC3"},"accessor_120":{"bufferView":"bufferView_323","byteOffset":72672,"byteStride":12,"componentType":5126,"count":750,"max":[0.988438,1,0.985407],"min":[-0.987841,-1,-0.985407],"type":"VEC3"},"accessor_160":{"bufferView":"bufferView_322","byteOffset":9996,"byteStride":0,"componentType":5123,"count":228,"type":"SCALAR"},"accessor_163":{"bufferView":"bufferView_322","byteOffset":10452,"byteStride":0,"componentType":5123,"count":54,"type":"SCALAR"},"accessor_166":{"bufferView":"bufferView_322","byteOffset":10560,"byteStride":0,"componentType":5123,"count":6,"type":"SCALAR"},"accessor_168":{"bufferView":"bufferView_323","byteOffset":103080,"byteStride":12,"componentType":5126,"count":236,"max":[7.84344,5.66265,11.7517],"min":[-6.89258,-1.83735,-10.5223],"type":"VEC3"},"accessor_170":{"bufferView":"bufferView_323","byteOffset":105912,"byteStride":12,"componentType":5126,"count":236,"max":[0.989122,1,1],"min":[-0.989515,-1,-0.988661],"type":"VEC3"},"accessor_210":{"bufferView":"bufferView_322","byteOffset":4188,"byteStride":0,"componentType":5123,"count":414,"type":"SCALAR"},"accessor_213":{"bufferView":"bufferView_322","byteOffset":5016,"byteStride":0,"componentType":5123,"count":504,"type":"SCALAR"},"accessor_216":{"bufferView":"bufferView_322","byteOffset":6024,"byteStride":0,"componentType":5123,"count":42,"type":"SCALAR"},"accessor_218":{"bufferView":"bufferView_323","byteOffset":43872,"byteStride":12,"componentType":5126,"count":825,"max":[5.81653,2.34897,5.85785],"min":[-5.97748,-3.45103,-5.96414],"type":"VEC3"},"accessor_220":{"bufferView":"bufferView_323","byteOffset":53772,"byteStride":12,"componentType":5126,"count":825,"max":[0.999546,1,1],"min":[-0.997674,-1,-0.997567],"type":"VEC3"},"accessor_260":{"bufferView":"bufferView_322","byteOffset":0,"byteStride":0,"componentType":5123,"count":468,"type":"SCALAR"},"accessor_263":{"bufferView":"bufferView_322","byteOffset":936,"byteStride":0,"componentType":5123,"count":522,"type":"SCALAR"},"accessor_266":{"bufferView":"bufferView_322","byteOffset":1980,"byteStride":0,"componentType":5123,"count":42,"type":"SCALAR"},"accessor_268":{"bufferView":"bufferView_323","byteOffset":0,"byteStride":12,"componentType":5126,"count":907,"max":[5.91052,2.37377,5.93359],"min":[-5.95947,-3.42623,-5.94342],"type":"VEC3"},"accessor_270":{"bufferView":"bufferView_323","byteOffset":10884,"byteStride":12,"componentType":5126,"count":907,"max":[0.998551,1,1],"min":[-0.998021,-1,-0.998252],"type":"VEC3"},"accessor_28":{"bufferView":"bufferView_322","byteOffset":4128,"byteStride":0,"componentType":5123,"count":24,"type":"SCALAR"},"accessor_31":{"bufferView":"bufferView_322","byteOffset":4176,"byteStride":0,"componentType":5123,"count":6,"type":"SCALAR"},"accessor_310":{"bufferView":"bufferView_322","byteOffset":2064,"byteStride":0,"componentType":5123,"count":468,"type":"SCALAR"},"accessor_313":{"bufferView":"bufferView_322","byteOffset":3000,"byteStride":0,"componentType":5123,"count":522,"type":"SCALAR"},"accessor_316":{"bufferView":"bufferView_322","byteOffset":4044,"byteStride":0,"componentType":5123,"count":42,"type":"SCALAR"},"accessor_318":{"bufferView":"bufferView_323","byteOffset":21768,"byteStride":12,"componentType":5126,"count":893,"max":[5.85455,2.37377,5.8985],"min":[-5.88245,-3.42623,-5.87849],"type":"VEC3"},"accessor_320":{"bufferView":"bufferView_323","byteOffset":32484,"byteStride":12,"componentType":5126,"count":893,"max":[0.998528,1,1],"min":[-0.997908,-1,-0.998738],"type":"VEC3"},"accessor_33":{"bufferView":"bufferView_323","byteOffset":43200,"byteStride":12,"componentType":5126,"count":28,"max":[24.4042,4,38.8943],"min":[-24.3998,-4,-38.8937],"type":"VEC3"},"accessor_35":{"bufferView":"bufferView_323","byteOffset":43536,"byteStride":12,"componentType":5126,"count":28,"max":[0.99989,1,0.999892],"min":[-0.999892,0,-0.999892],"type":"VEC3"},"accessor_75":{"bufferView":"bufferView_322","byteOffset":7932,"byteStride":0,"componentType":5123,"count":468,"type":"SCALAR"},"accessor_78":{"bufferView":"bufferView_322","byteOffset":8868,"byteStride":0,"componentType":5123,"count":522,"type":"SCALAR"},"accessor_81":{"bufferView":"bufferView_322","byteOffset":9912,"byteStride":0,"componentType":5123,"count":42,"type":"SCALAR"},"accessor_83":{"bufferView":"bufferView_323","byteOffset":81672,"byteStride":12,"componentType":5126,"count":892,"max":[4.98901,2.37377,5.0304],"min":[-5.01599,-3.42623,-5.0106],"type":"VEC3"},"accessor_85":{"bufferView":"bufferView_323","byteOffset":92376,"byteStride":12,"componentType":5126,"count":892,"max":[0.998549,1,1],"min":[-0.997939,-1,-0.998253],"type":"VEC3"},"accessor_b0":{"bufferView":"bufferView_b","byteOffset":0,"byteStride":0,"componentType":5123,"count":907,"type":"SCALAR"},"accessor_b1":{"bufferView":"bufferView_b","byteOffset":1814,"byteStride":0,"componentType":5123,"count":893,"type":"SCALAR"},"accessor_b2":{"bufferView":"bufferView_b","byteOffset":3600,"byteStride":0,"componentType":5123,"count":28,"type":"SCALAR"},"accessor_b3":{"bufferView":"bufferView_b","byteOffset":3656,"byteStride":0,"componentType":5123,"count":825,"type":"SCALAR"},"accessor_b4":{"bufferView":"bufferView_b","byteOffset":5306,"byteStride":0,"componentType":5123,"count":750,"type":"SCALAR"},"accessor_b5":{"bufferView":"bufferView_b","byteOffset":6806,"byteStride":0,"componentType":5123,"count":892,"type":"SCALAR"},"accessor_b6":{"bufferView":"bufferView_b","byteOffset":8590,"byteStride":0,"componentType":5123,"count":236,"type":"SCALAR"}},"animations":{},"asset":{"generator":"collada2gltf@cf6371beb0bdc18ba603378d5e40c966da53d385","premultipliedAlpha":true,"profile":{"api":"WebGL","version":"1.0.2"},"version":"1.0"},"bufferViews":{"bufferView_322":{"buffer":"\\data\\ECNU\\workspace\\gridID_23\\gridID_23","byteLength":10572,"byteOffset":0,"target":34963},"bufferView_323":{"buffer":"\\data\\ECNU\\workspace\\gridID_23\\gridID_23","byteLength":108744,"byteOffset":10572,"target":34962},"bufferView_b":{"buffer":"buffer_b","byteLength":9062,"byteOffset":0,"target":34962}},"buffers":{"\\data\\ECNU\\workspace\\gridID_23\\gridID_23":{"byteLength":119316,"type":"arraybuffer","uri":"data:application/octet-stream;base64,"},"buffer_b":{"type":"arraybuffer","byteLength":9062,"uri":"data:application/octet-stream;base64,"}},"materials":{"BUILDING_DEFAULT_0-effect":{"name":"BUILDING_DEFAULT_0","technique":"technique0","values":{"ambient":[0,0,0,1],"diffuse":[0.723055,0.708376,0.672443,1],"emission":[0,0,0,1],"shininess":50,"specular":[0.5,0.5,0.5,1]}},"CONCRETE_0-effect":{"name":"CONCRETE_0","technique":"technique0","values":{"ambient":[0,0,0,1],"diffuse":[0.309469,0.327778,0.309469,1],"emission":[0,0,0,1],"shininess":50,"specular":[0.5,0.5,0.5,1]}},"ROOF_DEFAULT_0-effect":{"name":"ROOF_DEFAULT_0","technique":"technique0","values":{"ambient":[0,0,0,1],"diffuse":[0.603827,0.381326,0.291771,1],"emission":[0,0,0,1],"shininess":50,"specular":[0.5,0.5,0.5,1]}}},"meshes":{"Building3430-mesh":{"name":"Building3430","primitives":[{"attributes":{"NORMAL":"accessor_270","POSITION":"accessor_268","BATCHID":"accessor_b0"},"indices":"accessor_260","material":"BUILDING_DEFAULT_0-effect","mode":4},{"attributes":{"NORMAL":"accessor_270","POSITION":"accessor_268","BATCHID":"accessor_b0"},"indices":"accessor_263","material":"ROOF_DEFAULT_0-effect","mode":4},{"attributes":{"NORMAL":"accessor_270","POSITION":"accessor_268","BATCHID":"accessor_b0"},"indices":"accessor_266","material":"CONCRETE_0-effect","mode":4}]},"Building3434-mesh":{"name":"Building3434","primitives":[{"attributes":{"NORMAL":"accessor_320","POSITION":"accessor_318","BATCHID":"accessor_b1"},"indices":"accessor_310","material":"BUILDING_DEFAULT_0-effect","mode":4},{"attributes":{"NORMAL":"accessor_320","POSITION":"accessor_318","BATCHID":"accessor_b1"},"indices":"accessor_313","material":"ROOF_DEFAULT_0-effect","mode":4},{"attributes":{"NORMAL":"accessor_320","POSITION":"accessor_318","BATCHID":"accessor_b1"},"indices":"accessor_316","material":"CONCRETE_0-effect","mode":4}]},"Building3515-mesh":{"name":"Building3515","primitives":[{"attributes":{"NORMAL":"accessor_35","POSITION":"accessor_33","BATCHID":"accessor_b2"},"indices":"accessor_28","material":"BUILDING_DEFAULT_0-effect","mode":4},{"attributes":{"NORMAL":"accessor_35","POSITION":"accessor_33","BATCHID":"accessor_b2"},"indices":"accessor_31","material":"CONCRETE_0-effect","mode":4}]},"Building3707-mesh":{"name":"Building3707","primitives":[{"attributes":{"NORMAL":"accessor_220","POSITION":"accessor_218","BATCHID":"accessor_b3"},"indices":"accessor_210","material":"BUILDING_DEFAULT_0-effect","mode":4},{"attributes":{"NORMAL":"accessor_220","POSITION":"accessor_218","BATCHID":"accessor_b3"},"indices":"accessor_213","material":"ROOF_DEFAULT_0-effect","mode":4},{"attributes":{"NORMAL":"accessor_220","POSITION":"accessor_218","BATCHID":"accessor_b3"},"indices":"accessor_216","material":"CONCRETE_0-effect","mode":4}]},"Building3829-mesh":{"name":"Building3829","primitives":[{"attributes":{"NORMAL":"accessor_120","POSITION":"accessor_118","BATCHID":"accessor_b4"},"indices":"accessor_113","material":"BUILDING_DEFAULT_0-effect","mode":4},{"attributes":{"NORMAL":"accessor_120","POSITION":"accessor_118","BATCHID":"accessor_b4"},"indices":"accessor_116","material":"ROOF_DEFAULT_0-effect","mode":4}]},"Building3831-mesh":{"name":"Building3831","primitives":[{"attributes":{"NORMAL":"accessor_85","POSITION":"accessor_83","BATCHID":"accessor_b5"},"indices":"accessor_75","material":"BUILDING_DEFAULT_0-effect","mode":4},{"attributes":{"NORMAL":"accessor_85","POSITION":"accessor_83","BATCHID":"accessor_b5"},"indices":"accessor_78","material":"ROOF_DEFAULT_0-effect","mode":4},{"attributes":{"NORMAL":"accessor_85","POSITION":"accessor_83","BATCHID":"accessor_b5"},"indices":"accessor_81","material":"CONCRETE_0-effect","mode":4}]},"Building4194-mesh":{"name":"Building4194","primitives":[{"attributes":{"NORMAL":"accessor_170","POSITION":"accessor_168","BATCHID":"accessor_b6"},"indices":"accessor_160","material":"BUILDING_DEFAULT_0-effect","mode":4},{"attributes":{"NORMAL":"accessor_170","POSITION":"accessor_168","BATCHID":"accessor_b6"},"indices":"accessor_163","material":"ROOF_DEFAULT_0-effect","mode":4},{"attributes":{"NORMAL":"accessor_170","POSITION":"accessor_168","BATCHID":"accessor_b6"},"indices":"accessor_166","material":"CONCRETE_0-effect","mode":4}]}},"nodes":{"model_gridID_23_w390025829":{"children":[],"matrix":[1,0,0,0,0,-1.62921e-7,1,0,0,-1,-1.62921e-7,0,-529.264,-336.803,3.99994,1],"meshes":["Building3515-mesh"],"name":"model_gridID_23_w390025829"},"model_gridID_23_w390027475":{"children":[],"matrix":[1,0,0,0,0,-1.62921e-7,1,0,0,-1,-1.62921e-7,0,-567.058,-260.208,3.42619,1],"meshes":["Building3831-mesh"],"name":"model_gridID_23_w390027475"},"model_gridID_23_w390027483":{"children":[],"matrix":[1,0,0,0,0,-1.62921e-7,1,0,0,-1,-1.62921e-7,0,-550.855,-231.692,1.37309,1],"meshes":["Building3829-mesh"],"name":"model_gridID_23_w390027483"},"model_gridID_23_w390383622":{"children":[],"matrix":[1,0,0,0,0,-1.62921e-7,1,0,0,-1,-1.62921e-7,0,-528.39,-240.016,1.83731,1],"meshes":["Building4194-mesh"],"name":"model_gridID_23_w390383622"},"model_gridID_23_w390577025":{"children":[],"matrix":[1,0,0,0,0,-1.62921e-7,1,0,0,-1,-1.62921e-7,0,-543.927,-272.649,3.45099,1],"meshes":["Building3707-mesh"],"name":"model_gridID_23_w390577025"},"model_gridID_23_w390952441":{"children":[],"matrix":[1,0,0,0,0,-1.62921e-7,1,0,0,-1,-1.62921e-7,0,-554.987,-251.411,3.42619,1],"meshes":["Building3430-mesh"],"name":"model_gridID_23_w390952441"},"model_gridID_23_w390952442":{"children":[],"matrix":[1,0,0,0,0,-1.62921e-7,1,0,0,-1,-1.62921e-7,0,-524.232,-260.674,3.42618,1],"meshes":["Building3434-mesh"],"name":"model_gridID_23_w390952442"},"node_7":{"children":["model_gridID_23_w390025829","model_gridID_23_w390027475","model_gridID_23_w390027483","model_gridID_23_w390383622","model_gridID_23_w390577025","model_gridID_23_w390952441","model_gridID_23_w390952442"],"matrix":[1,0,0,0,0,0,-1,0,0,1,0,0,0,0,0,1],"name":"Y_UP_Transform"}},"programs":{"program_0":{"attributes":["a_normal","a_position","a_batchId"],"fragmentShader":"\\data\\ECNU\\workspace\\gridID_23\\gridID_230FS","vertexShader":"\\data\\ECNU\\workspace\\gridID_23\\gridID_230VS"}},"scene":"defaultScene","scenes":{"defaultScene":{"nodes":["node_7"]}},"shaders":{"\\data\\ECNU\\workspace\\gridID_23\\gridID_230FS":{"type":35632,"uri":"data:text/plain;base64,"},"\\data\\ECNU\\workspace\\gridID_23\\gridID_230VS":{"type":35633,"uri":"data:text/plain;base64,"}},"skins":{},"techniques":{"technique0":{"attributes":{"a_normal":"normal","a_position":"position","a_batchId":"batchId"},"parameters":{"ambient":{"type":35666},"diffuse":{"type":35666},"emission":{"type":35666},"modelViewMatrix":{"semantic":"MODELVIEW","type":35676},"normal":{"semantic":"NORMAL","type":35665},"normalMatrix":{"semantic":"MODELVIEWINVERSETRANSPOSE","type":35675},"position":{"semantic":"POSITION","type":35665},"projectionMatrix":{"semantic":"PROJECTION","type":35676},"shininess":{"type":5126},"specular":{"type":35666},"batchId":{"semantic":"BATCHID","type":5126}},"program":"program_0","states":{"enable":[2929,2884]},"uniforms":{"u_ambient":"ambient","u_diffuse":"diffuse","u_emission":"emission","u_modelViewMatrix":"modelViewMatrix","u_normalMatrix":"normalMatrix","u_projectionMatrix":"projectionMatrix","u_shininess":"shininess","u_specular":"specular"}}}}