{"accessors":{"accessor_100":{"bufferView":"bufferView_123","byteOffset":50676,"byteStride":12,"componentType":5126,"count":505,"max":[0.978963,0.975767,1],"min":[-0.977336,-0.975767,0],"type":"VEC3"},"accessor_116":{"bufferView":"bufferView_122","byteOffset":0,"byteStride":0,"componentType":5123,"count":1212,"type":"SCALAR"},"accessor_118":{"bufferView":"bufferView_123","byteOffset":0,"byteStride":12,"componentType":5126,"count":1057,"max":[43.5985,-25.047,25.1485],"min":[-28.3668,-83.3008,0],"type":"VEC3"},"accessor_120":{"bufferView":"bufferView_123","byteOffset":12684,"byteStride":12,"componentType":5126,"count":1057,"max":[0.997656,0.997601,1],"min":[-0.997656,-0.997599,0],"type":"VEC3"},"accessor_16":{"bufferView":"bufferView_122","byteOffset":2424,"byteStride":0,"componentType":5123,"count":282,"type":"SCALAR"},"accessor_18":{"bufferView":"bufferView_123","byteOffset":25368,"byteStride":12,"componentType":5126,"count":264,"max":[-19.0441,12.9904,16.2251],"min":[-57.64,-12.0387,1.50589],"type":"VEC3"},"accessor_20":{"bufferView":"bufferView_123","byteOffset":28536,"byteStride":12,"componentType":5126,"count":264,"max":[0.982159,0.98177,1],"min":[-0.982154,-0.981769,0],"type":"VEC3"},"accessor_36":{"bufferView":"bufferView_122","byteOffset":2988,"byteStride":0,"componentType":5123,"count":459,"type":"SCALAR"},"accessor_38":{"bufferView":"bufferView_123","byteOffset":31704,"byteStride":12,"componentType":5126,"count":424,"max":[-7.16528,53.3339,14.0787],"min":[-47.899,19.2827,1.81024],"type":"VEC3"},"accessor_40":{"bufferView":"bufferView_123","byteOffset":36792,"byteStride":12,"componentType":5126,"count":424,"max":[0.982439,0.982015,1],"min":[-0.983508,-0.982015,0],"type":"VEC3"},"accessor_56":{"bufferView":"bufferView_122","byteOffset":3906,"byteStride":0,"componentType":5123,"count":48,"type":"SCALAR"},"accessor_58":{"bufferView":"bufferView_123","byteOffset":41880,"byteStride":12,"componentType":5126,"count":42,"max":[50.2793,21.5328,5.57145],"min":[38.6624,5.52881,0.966263],"type":"VEC3"},"accessor_60":{"bufferView":"bufferView_123","byteOffset":42384,"byteStride":12,"componentType":5126,"count":42,"max":[0.977552,0.977074,1],"min":[-0.977552,-0.977074,0],"type":"VEC3"},"accessor_76":{"bufferView":"bufferView_122","byteOffset":4002,"byteStride":0,"componentType":5123,"count":78,"type":"SCALAR"},"accessor_78":{"bufferView":"bufferView_123","byteOffset":42888,"byteStride":12,"componentType":5126,"count":72,"max":[-14.5412,-28.1687,9.51618],"min":[-28.9408,-54.5935,0],"type":"VEC3"},"accessor_80":{"bufferView":"bufferView_123","byteOffset":43752,"byteStride":12,"componentType":5126,"count":72,"max":[0.974771,0.974304,1],"min":[-0.974837,-0.974568,0],"type":"VEC3"},"accessor_96":{"bufferView":"bufferView_122","byteOffset":4158,"byteStride":0,"componentType":5123,"count":564,"type":"SCALAR"},"accessor_98":{"bufferView":"bufferView_123","byteOffset":44616,"byteStride":12,"componentType":5126,"count":505,"max":[-14.2984,10.0465,16.1057],"min":[-63.1775,-54.3067,0],"type":"VEC3"},"accessor_b0":{"bufferView":"bufferView_b","byteOffset":0,"byteStride":0,"componentType":5123,"count":1057,"type":"SCALAR"},"accessor_b1":{"bufferView":"bufferView_b","byteOffset":2114,"byteStride":0,"componentType":5123,"count":264,"type":"SCALAR"},"accessor_b2":{"bufferView":"bufferView_b","byteOffset":2642,"byteStride":0,"componentType":5123,"count":424,"type":"SCALAR"},"accessor_b3":{"bufferView":"bufferView_b","byteOffset":3490,"byteStride":0,"componentType":5123,"count":42,"type":"SCALAR"},"accessor_b4":{"bufferView":"bufferView_b","byteOffset":3574,"byteStride":0,"componentType":5123,"count":72,"type":"SCALAR"},"accessor_b5":{"bufferView":"bufferView_b","byteOffset":3718,"byteStride":0,"componentType":5123,"count":505,"type":"SCALAR"}},"animations":{},"asset":{"generator":"collada2gltf@cf6371beb0bdc18ba603378d5e40c966da53d385","premultipliedAlpha":true,"profile":{"api":"WebGL","version":"1.0.2"},"version":"1.0"},"bufferViews":{"bufferView_122":{"buffer":"\\data\\3dcity\\miami\\workspace\\gridID_29\\gridID_29_high","byteLength":5288,"byteOffset":0,"target":34963},"bufferView_123":{"buffer":"\\data\\3dcity\\miami\\workspace\\gridID_29\\gridID_29_high","byteLength":56736,"byteOffset":5288,"target":34962},"bufferView_b":{"buffer":"buffer_b","byteLength":4728,"byteOffset":0,"target":34962}},"buffers":{"\\data\\3dcity\\miami\\workspace\\gridID_29\\gridID_29_high":{"byteLength":62024,"type":"arraybuffer","uri":"data:application/octet-stream;base64,"},"buffer_b":{"type":"arraybuffer","byteLength":4728,"uri":"data:application/octet-stream;base64,"}},"materials":{"__glTF__defaultMaterial0":{"name":"__glTF__defaultMaterial0","technique":"technique0","values":{"diffuse":[1,1,1,1]}}},"meshes":{"multipatch_footprint_1251-mesh":{"name":"multipatch_footprint.1251","primitives":[{"attributes":{"NORMAL":"accessor_120","POSITION":"accessor_118","BATCHID":"accessor_b0"},"indices":"accessor_116","material":"__glTF__defaultMaterial0","mode":4}]},"multipatch_footprint_765-mesh":{"name":"multipatch_footprint.765","primitives":[{"attributes":{"NORMAL":"accessor_20","POSITION":"accessor_18","BATCHID":"accessor_b1"},"indices":"accessor_16","material":"__glTF__defaultMaterial0","mode":4}]},"multipatch_footprint_776-mesh":{"name":"multipatch_footprint.776","primitives":[{"attributes":{"NORMAL":"accessor_40","POSITION":"accessor_38","BATCHID":"accessor_b2"},"indices":"accessor_36","material":"__glTF__defaultMaterial0","mode":4}]},"multipatch_footprint_777-mesh":{"name":"multipatch_footprint.777","primitives":[{"attributes":{"NORMAL":"accessor_60","POSITION":"accessor_58","BATCHID":"accessor_b3"},"indices":"accessor_56","material":"__glTF__defaultMaterial0","mode":4}]},"multipatch_footprint_857-mesh":{"name":"multipatch_footprint.857","primitives":[{"attributes":{"NORMAL":"accessor_80","POSITION":"accessor_78","BATCHID":"accessor_b4"},"indices":"accessor_76","material":"__glTF__defaultMaterial0","mode":4}]},"multipatch_footprint_858-mesh":{"name":"multipatch_footprint.858","primitives":[{"attributes":{"NORMAL":"accessor_100","POSITION":"accessor_98","BATCHID":"accessor_b5"},"indices":"accessor_96","material":"__glTF__defaultMaterial0","mode":4}]}},"nodes":{"gridID_29_w435519769_join":{"children":[],"matrix":[1,0,0,0,0,1,0,0,0,0,1,0,0.00038147,0.000335693,0,1],"meshes":["multipatch_footprint_765-mesh"],"name":"gridID_29_w435519769_join"},"gridID_29_w435532236_join":{"children":[],"matrix":[1,0,0,0,0,1,0,0,0,0,1,0,0.00038147,0.000335693,0,1],"meshes":["multipatch_footprint_776-mesh"],"name":"gridID_29_w435532236_join"},"gridID_29_w435565983_join":{"children":[],"matrix":[1,0,0,0,0,1,0,0,0,0,1,0,0.00038147,0.000335693,0,1],"meshes":["multipatch_footprint_1251-mesh"],"name":"gridID_29_w435565983_join"},"gridID_29_w435808631_join":{"children":[],"matrix":[1,0,0,0,0,1,0,0,0,0,1,0,0.00038147,0.000335693,0,1],"meshes":["multipatch_footprint_857-mesh"],"name":"gridID_29_w435808631_join"},"gridID_29_w436032070_join":{"children":[],"matrix":[1,0,0,0,0,1,0,0,0,0,1,0,0.00038147,0.000335693,0,1],"meshes":["multipatch_footprint_777-mesh"],"name":"gridID_29_w436032070_join"},"gridID_29_w436108143_join":{"children":[],"matrix":[1,0,0,0,0,1,0,0,0,0,1,0,0.00038147,0.000335693,0,1],"meshes":["multipatch_footprint_858-mesh"],"name":"gridID_29_w436108143_join"},"node_6":{"children":["gridID_29_w435519769_join","gridID_29_w435532236_join","gridID_29_w436032070_join","gridID_29_w435808631_join","gridID_29_w436108143_join","gridID_29_w435565983_join"],"matrix":[1,0,0,0,0,0,-1,0,0,1,0,0,0,0,0,1],"name":"Y_UP_Transform"}},"programs":{"program_0":{"attributes":["a_normal","a_position","a_batchId"],"fragmentShader":"\\data\\3dcity\\miami\\workspace\\gridID_29\\gridID_29_high0FS","vertexShader":"\\data\\3dcity\\miami\\workspace\\gridID_29\\gridID_29_high0VS"}},"scene":"defaultScene","scenes":{"defaultScene":{"nodes":["node_6"]}},"shaders":{"\\data\\3dcity\\miami\\workspace\\gridID_29\\gridID_29_high0FS":{"type":35632,"uri":"data:text/plain;base64,"},"\\data\\3dcity\\miami\\workspace\\gridID_29\\gridID_29_high0VS":{"type":35633,"uri":"data:text/plain;base64,"}},"skins":{},"techniques":{"technique0":{"attributes":{"a_normal":"normal","a_position":"position","a_batchId":"batchId"},"parameters":{"diffuse":{"type":35666},"modelViewMatrix":{"semantic":"MODELVIEW","type":35676},"normal":{"semantic":"NORMAL","type":35665},"normalMatrix":{"semantic":"MODELVIEWINVERSETRANSPOSE","type":35675},"position":{"semantic":"POSITION","type":35665},"projectionMatrix":{"semantic":"PROJECTION","type":35676},"batchId":{"semantic":"BATCHID","type":5126}},"program":"program_0","states":{"enable":[2929,2884]},"uniforms":{"u_diffuse":"diffuse","u_modelViewMatrix":"modelViewMatrix","u_normalMatrix":"normalMatrix","u_projectionMatrix":"projectionMatrix"}}}}