{"accessors":{"accessor_100":{"bufferView":"bufferView_143","byteOffset":4968,"byteStride":12,"componentType":5126,"count":32,"max":[0.972808,1,0.972197],"min":[-0.972808,-1,-0.972195],"type":"VEC3"},"accessor_116":{"bufferView":"bufferView_142","byteOffset":576,"byteStride":0,"componentType":5123,"count":36,"type":"SCALAR"},"accessor_118":{"bufferView":"bufferView_143","byteOffset":5352,"byteStride":12,"componentType":5126,"count":30,"max":[50.7697,12,-6.22212],"min":[39.2036,0,-21.6973],"type":"VEC3"},"accessor_120":{"bufferView":"bufferView_143","byteOffset":5712,"byteStride":12,"componentType":5126,"count":30,"max":[0.970314,1,0.969932],"min":[-0.970555,-1,-0.969666],"type":"VEC3"},"accessor_136":{"bufferView":"bufferView_142","byteOffset":648,"byteStride":0,"componentType":5123,"count":36,"type":"SCALAR"},"accessor_138":{"bufferView":"bufferView_143","byteOffset":6072,"byteStride":12,"componentType":5126,"count":30,"max":[-22.0666,10,28.0038],"min":[-56.7983,0,13.2826],"type":"VEC3"},"accessor_140":{"bufferView":"bufferView_143","byteOffset":6432,"byteStride":12,"componentType":5126,"count":30,"max":[0.97103,1,0.970741],"min":[-0.971517,-1,-0.970676],"type":"VEC3"},"accessor_16":{"bufferView":"bufferView_142","byteOffset":0,"byteStride":0,"componentType":5123,"count":36,"type":"SCALAR"},"accessor_18":{"bufferView":"bufferView_143","byteOffset":0,"byteStride":12,"componentType":5126,"count":28,"max":[-34.8572,10,43.2935],"min":[-60.7501,0,31.9838],"type":"VEC3"},"accessor_20":{"bufferView":"bufferView_143","byteOffset":336,"byteStride":12,"componentType":5126,"count":28,"max":[0.978721,1,0.978373],"min":[-0.979078,-1,-0.978392],"type":"VEC3"},"accessor_36":{"bufferView":"bufferView_142","byteOffset":72,"byteStride":0,"componentType":5123,"count":84,"type":"SCALAR"},"accessor_38":{"bufferView":"bufferView_143","byteOffset":672,"byteStride":12,"componentType":5126,"count":59,"max":[-18.6491,16,14.9883],"min":[-57.2102,0,-10.2145],"type":"VEC3"},"accessor_40":{"bufferView":"bufferView_143","byteOffset":1380,"byteStride":12,"componentType":5126,"count":59,"max":[0.974774,1,0.973603],"min":[-0.974165,-1,-0.973637],"type":"VEC3"},"accessor_56":{"bufferView":"bufferView_142","byteOffset":240,"byteStride":0,"componentType":5123,"count":48,"type":"SCALAR"},"accessor_58":{"bufferView":"bufferView_143","byteOffset":2088,"byteStride":12,"componentType":5126,"count":42,"max":[-7.9513,14,-19.8433],"min":[-47.2248,0,-53.4018],"type":"VEC3"},"accessor_60":{"bufferView":"bufferView_143","byteOffset":2592,"byteStride":12,"componentType":5126,"count":42,"max":[0.973624,1,0.97491],"min":[-0.976565,-1,-0.974404],"type":"VEC3"},"accessor_76":{"bufferView":"bufferView_142","byteOffset":336,"byteStride":0,"componentType":5123,"count":84,"type":"SCALAR"},"accessor_78":{"bufferView":"bufferView_143","byteOffset":3096,"byteStride":12,"componentType":5126,"count":62,"max":[44.5692,26,68.0513],"min":[-6.55979,0,24.9631],"type":"VEC3"},"accessor_80":{"bufferView":"bufferView_143","byteOffset":3840,"byteStride":12,"componentType":5126,"count":62,"max":[0.972468,1,0.971881],"min":[-0.97245,-1,-0.971863],"type":"VEC3"},"accessor_96":{"bufferView":"bufferView_142","byteOffset":504,"byteStride":0,"componentType":5123,"count":36,"type":"SCALAR"},"accessor_98":{"bufferView":"bufferView_143","byteOffset":4584,"byteStride":12,"componentType":5126,"count":32,"max":[-16.9348,11,54.2572],"min":[-29.0352,0,28.424],"type":"VEC3"},"accessor_b0":{"bufferView":"bufferView_b","byteOffset":0,"byteStride":0,"componentType":5123,"count":28,"type":"SCALAR"},"accessor_b1":{"bufferView":"bufferView_b","byteOffset":56,"byteStride":0,"componentType":5123,"count":59,"type":"SCALAR"},"accessor_b2":{"bufferView":"bufferView_b","byteOffset":174,"byteStride":0,"componentType":5123,"count":42,"type":"SCALAR"},"accessor_b3":{"bufferView":"bufferView_b","byteOffset":258,"byteStride":0,"componentType":5123,"count":62,"type":"SCALAR"},"accessor_b4":{"bufferView":"bufferView_b","byteOffset":382,"byteStride":0,"componentType":5123,"count":32,"type":"SCALAR"},"accessor_b5":{"bufferView":"bufferView_b","byteOffset":446,"byteStride":0,"componentType":5123,"count":30,"type":"SCALAR"},"accessor_b6":{"bufferView":"bufferView_b","byteOffset":506,"byteStride":0,"componentType":5123,"count":30,"type":"SCALAR"}},"animations":{},"asset":{"generator":"collada2gltf@cf6371beb0bdc18ba603378d5e40c966da53d385","premultipliedAlpha":true,"profile":{"api":"WebGL","version":"1.0.2"},"version":"1.0"},"bufferViews":{"bufferView_142":{"buffer":"\\data\\3dcity\\miami\\workspace\\gridID_29\\gridID_29","byteLength":720,"byteOffset":0,"target":34963},"bufferView_143":{"buffer":"\\data\\3dcity\\miami\\workspace\\gridID_29\\gridID_29","byteLength":6792,"byteOffset":720,"target":34962},"bufferView_b":{"buffer":"buffer_b","byteLength":566,"byteOffset":0,"target":34962}},"buffers":{"\\data\\3dcity\\miami\\workspace\\gridID_29\\gridID_29":{"byteLength":7512,"type":"arraybuffer","uri":"data:application/octet-stream;base64,"},"buffer_b":{"type":"arraybuffer","byteLength":566,"uri":"data:application/octet-stream;base64,"}},"materials":{"CityEngineMaterial_379-effect":{"name":"CityEngineMaterial_379","technique":"technique0","values":{"ambient":[1,1,1,1],"diffuse":[1,1,1,1],"emission":[0,0,0,1],"shininess":50,"specular":[0.5,0.5,0.5,1]}},"CityEngineMaterial_380-effect":{"name":"CityEngineMaterial_380","technique":"technique0","values":{"ambient":[1,1,1,1],"diffuse":[1,1,1,1],"emission":[0,0,0,1],"shininess":50,"specular":[0.5,0.5,0.5,1]}},"CityEngineMaterial_381-effect":{"name":"CityEngineMaterial_381","technique":"technique0","values":{"ambient":[1,1,1,1],"diffuse":[1,1,1,1],"emission":[0,0,0,1],"shininess":50,"specular":[0.5,0.5,0.5,1]}},"CityEngineMaterial_382-effect":{"name":"CityEngineMaterial_382","technique":"technique0","values":{"ambient":[1,1,1,1],"diffuse":[1,1,1,1],"emission":[0,0,0,1],"shininess":50,"specular":[0.5,0.5,0.5,1]}},"CityEngineMaterial_383-effect":{"name":"CityEngineMaterial_383","technique":"technique0","values":{"ambient":[1,1,1,1],"diffuse":[1,1,1,1],"emission":[0,0,0,1],"shininess":50,"specular":[0.5,0.5,0.5,1]}},"CityEngineMaterial_384-effect":{"name":"CityEngineMaterial_384","technique":"technique0","values":{"ambient":[1,1,1,1],"diffuse":[1,1,1,1],"emission":[0,0,0,1],"shininess":50,"specular":[0.5,0.5,0.5,1]}},"CityEngineMaterial_385-effect":{"name":"CityEngineMaterial_385","technique":"technique0","values":{"ambient":[1,1,1,1],"diffuse":[1,1,1,1],"emission":[0,0,0,1],"shininess":50,"specular":[0.5,0.5,0.5,1]}}},"meshes":{"mesh_CityEngineMaterial_377-mesh":{"name":"mesh_CityEngineMaterial.377","primitives":[{"attributes":{"NORMAL":"accessor_20","POSITION":"accessor_18","BATCHID":"accessor_b0"},"indices":"accessor_16","material":"CityEngineMaterial_379-effect","mode":4}]},"mesh_CityEngineMaterial_378-mesh":{"name":"mesh_CityEngineMaterial.378","primitives":[{"attributes":{"NORMAL":"accessor_40","POSITION":"accessor_38","BATCHID":"accessor_b1"},"indices":"accessor_36","material":"CityEngineMaterial_380-effect","mode":4}]},"mesh_CityEngineMaterial_379-mesh":{"name":"mesh_CityEngineMaterial.379","primitives":[{"attributes":{"NORMAL":"accessor_60","POSITION":"accessor_58","BATCHID":"accessor_b2"},"indices":"accessor_56","material":"CityEngineMaterial_381-effect","mode":4}]},"mesh_CityEngineMaterial_380-mesh":{"name":"mesh_CityEngineMaterial.380","primitives":[{"attributes":{"NORMAL":"accessor_80","POSITION":"accessor_78","BATCHID":"accessor_b3"},"indices":"accessor_76","material":"CityEngineMaterial_382-effect","mode":4}]},"mesh_CityEngineMaterial_381-mesh":{"name":"mesh_CityEngineMaterial.381","primitives":[{"attributes":{"NORMAL":"accessor_100","POSITION":"accessor_98","BATCHID":"accessor_b4"},"indices":"accessor_96","material":"CityEngineMaterial_383-effect","mode":4}]},"mesh_CityEngineMaterial_382-mesh":{"name":"mesh_CityEngineMaterial.382","primitives":[{"attributes":{"NORMAL":"accessor_120","POSITION":"accessor_118","BATCHID":"accessor_b5"},"indices":"accessor_116","material":"CityEngineMaterial_384-effect","mode":4}]},"mesh_CityEngineMaterial_383-mesh":{"name":"mesh_CityEngineMaterial.383","primitives":[{"attributes":{"NORMAL":"accessor_140","POSITION":"accessor_138","BATCHID":"accessor_b6"},"indices":"accessor_136","material":"CityEngineMaterial_385-effect","mode":4}]}},"nodes":{"CityEngineMaterial":{"children":[],"matrix":[1,0,0,0,0,-1.62921e-7,1,0,0,-1,-1.62921e-7,0,0,0,0,1],"meshes":["mesh_CityEngineMaterial_377-mesh"],"name":"CityEngineMaterial"},"CityEngineMaterial_001":{"children":[],"matrix":[1,0,0,0,0,-1.62921e-7,1,0,0,-1,-1.62921e-7,0,0,0,0,1],"meshes":["mesh_CityEngineMaterial_378-mesh"],"name":"CityEngineMaterial_001"},"CityEngineMaterial_002":{"children":[],"matrix":[1,0,0,0,0,-1.62921e-7,1,0,0,-1,-1.62921e-7,0,0,0,0,1],"meshes":["mesh_CityEngineMaterial_379-mesh"],"name":"CityEngineMaterial_002"},"CityEngineMaterial_003":{"children":[],"matrix":[1,0,0,0,0,-1.62921e-7,1,0,0,-1,-1.62921e-7,0,0,0,0,1],"meshes":["mesh_CityEngineMaterial_380-mesh"],"name":"CityEngineMaterial_003"},"CityEngineMaterial_004":{"children":[],"matrix":[1,0,0,0,0,-1.62921e-7,1,0,0,-1,-1.62921e-7,0,0,0,0,1],"meshes":["mesh_CityEngineMaterial_381-mesh"],"name":"CityEngineMaterial_004"},"CityEngineMaterial_005":{"children":[],"matrix":[1,0,0,0,0,-1.62921e-7,1,0,0,-1,-1.62921e-7,0,0,0,0,1],"meshes":["mesh_CityEngineMaterial_382-mesh"],"name":"CityEngineMaterial_005"},"CityEngineMaterial_006":{"children":[],"matrix":[1,0,0,0,0,-1.62921e-7,1,0,0,-1,-1.62921e-7,0,0,0,0,1],"meshes":["mesh_CityEngineMaterial_383-mesh"],"name":"CityEngineMaterial_006"},"node_7":{"children":["CityEngineMaterial","CityEngineMaterial_001","CityEngineMaterial_002","CityEngineMaterial_003","CityEngineMaterial_004","CityEngineMaterial_005","CityEngineMaterial_006"],"matrix":[1,0,0,0,0,0,-1,0,0,1,0,0,0,0,0,1],"name":"Y_UP_Transform"}},"programs":{"program_0":{"attributes":["a_normal","a_position","a_batchId"],"fragmentShader":"\\data\\3dcity\\miami\\workspace\\gridID_29\\gridID_290FS","vertexShader":"\\data\\3dcity\\miami\\workspace\\gridID_29\\gridID_290VS"}},"scene":"defaultScene","scenes":{"defaultScene":{"nodes":["node_7"]}},"shaders":{"\\data\\3dcity\\miami\\workspace\\gridID_29\\gridID_290FS":{"type":35632,"uri":"data:text/plain;base64,"},"\\data\\3dcity\\miami\\workspace\\gridID_29\\gridID_290VS":{"type":35633,"uri":"data:text/plain;base64,"}},"skins":{},"techniques":{"technique0":{"attributes":{"a_normal":"normal","a_position":"position","a_batchId":"batchId"},"parameters":{"ambient":{"type":35666},"diffuse":{"type":35666},"emission":{"type":35666},"modelViewMatrix":{"semantic":"MODELVIEW","type":35676},"normal":{"semantic":"NORMAL","type":35665},"normalMatrix":{"semantic":"MODELVIEWINVERSETRANSPOSE","type":35675},"position":{"semantic":"POSITION","type":35665},"projectionMatrix":{"semantic":"PROJECTION","type":35676},"shininess":{"type":5126},"specular":{"type":35666},"batchId":{"semantic":"BATCHID","type":5126}},"program":"program_0","states":{"enable":[2929,2884]},"uniforms":{"u_ambient":"ambient","u_diffuse":"diffuse","u_emission":"emission","u_modelViewMatrix":"modelViewMatrix","u_normalMatrix":"normalMatrix","u_projectionMatrix":"projectionMatrix","u_shininess":"shininess","u_specular":"specular"}}}}