{
    "accessors": {
        "accessor_16": {
            "bufferView": "bufferView_82",
            "byteOffset": 0,
            "byteStride": 0,
            "componentType": 5123,
            "count": 468,
            "type": "SCALAR"
        },
        "accessor_18": {
            "bufferView": "bufferView_83",
            "byteOffset": 0,
            "byteStride": 12,
            "componentType": 5126,
            "count": 431,
            "max": [
                -14.1481,
                62.8965,
                32.5369
            ],
            "min": [
                -96.195,
                18.1065,
                0.664223
            ],
            "type": "VEC3"
        },
        "accessor_20": {
            "bufferView": "bufferView_83",
            "byteOffset": 5172,
            "byteStride": 12,
            "componentType": 5126,
            "count": 431,
            "max": [
                0.973687,
                0.973506,
                1
            ],
            "min": [
                -0.977255,
                -0.974761,
                0
            ],
            "type": "VEC3"
        },
        "accessor_36": {
            "bufferView": "bufferView_82",
            "byteOffset": 936,
            "byteStride": 0,
            "componentType": 5123,
            "count": 84,
            "type": "SCALAR"
        },
        "accessor_38": {
            "bufferView": "bufferView_83",
            "byteOffset": 10344,
            "byteStride": 12,
            "componentType": 5126,
            "count": 73,
            "max": [
                -27.851,
                117.275,
                232.711
            ],
            "min": [
                -46.0561,
                100.833,
                0.560211
            ],
            "type": "VEC3"
        },
        "accessor_40": {
            "bufferView": "bufferView_83",
            "byteOffset": 11220,
            "byteStride": 12,
            "componentType": 5126,
            "count": 73,
            "max": [
                0.97344,
                0.972878,
                1
            ],
            "min": [
                -0.97344,
                -0.972878,
                0
            ],
            "type": "VEC3"
        },
        "accessor_56": {
            "bufferView": "bufferView_82",
            "byteOffset": 1104,
            "byteStride": 0,
            "componentType": 5123,
            "count": 1068,
            "type": "SCALAR"
        },
        "accessor_58": {
            "bufferView": "bufferView_83",
            "byteOffset": 12096,
            "byteStride": 12,
            "componentType": 5126,
            "count": 974,
            "max": [
                -33.9564,
                -25.4993,
                80.5619
            ],
            "min": [
                -67.6168,
                -59.8229,
                1.09201
            ],
            "type": "VEC3"
        },
        "accessor_60": {
            "bufferView": "bufferView_83",
            "byteOffset": 23784,
            "byteStride": 12,
            "componentType": 5126,
            "count": 974,
            "max": [
                0.996086,
                0.999951,
                1
            ],
            "min": [
                -0.99999,
                -0.999958,
                0
            ],
            "type": "VEC3"
        },
        "accessor_76": {
            "bufferView": "bufferView_82",
            "byteOffset": 3240,
            "byteStride": 0,
            "componentType": 5123,
            "count": 4110,
            "type": "SCALAR"
        },
        "accessor_78": {
            "bufferView": "bufferView_83",
            "byteOffset": 35472,
            "byteStride": 12,
            "componentType": 5126,
            "count": 3737,
            "max": [
                87.9987,
                116.897,
                237.451
            ],
            "min": [
                -66.3884,
                0.959656,
                0.292233
            ],
            "type": "VEC3"
        },
        "accessor_80": {
            "bufferView": "bufferView_83",
            "byteOffset": 80316,
            "byteStride": 12,
            "componentType": 5126,
            "count": 3737,
            "max": [
                0.999106,
                0.999555,
                1
            ],
            "min": [
                -0.999021,
                -0.999555,
                -1
            ],
            "type": "VEC3"
        }
    },
    "animations": {},
    "asset": {
        "generator": "collada2gltf@cf6371beb0bdc18ba603378d5e40c966da53d385",
        "premultipliedAlpha": true,
        "profile": {
            "api": "WebGL",
            "version": "1.0.2"
        },
        "version": "1.0"
    },
    "bufferViews": {
        "bufferView_82": {
            "buffer": "\\data\\3dcity\\miami\\workspace\\gridID_12\\gridID_12_high",
            "byteLength": 11460,
            "byteOffset": 0,
            "target": 34963
        },
        "bufferView_83": {
            "buffer": "\\data\\3dcity\\miami\\workspace\\gridID_12\\gridID_12_high",
            "byteLength": 125160,
            "byteOffset": 11460,
            "target": 34962
        }
    },
    "buffers": {
        "\\data\\3dcity\\miami\\workspace\\gridID_12\\gridID_12_high": {
            "byteLength": 136620,
            "type": "arraybuffer",
            "uri": "data:application/octet-stream;base64,"
        }
    },
    "materials": {
        "__glTF__defaultMaterial0": {
            "name": "__glTF__defaultMaterial0",
            "technique": "technique0",
            "values": {
                "diffuse": [
                    1,
                    1,
                    1,
                    1
                ]
            }
        }
    },
    "meshes": {
        "multipatch_footprint_1332-mesh": {
            "name": "multipatch_footprint.1332",
            "primitives": [
                {
                    "attributes": {
                        "NORMAL": "accessor_20",
                        "POSITION": "accessor_18"
                    },
                    "indices": "accessor_16",
                    "material": "__glTF__defaultMaterial0",
                    "mode": 4
                }
            ]
        },
        "multipatch_footprint_1333-mesh": {
            "name": "multipatch_footprint.1333",
            "primitives": [
                {
                    "attributes": {
                        "NORMAL": "accessor_40",
                        "POSITION": "accessor_38"
                    },
                    "indices": "accessor_36",
                    "material": "__glTF__defaultMaterial0",
                    "mode": 4
                }
            ]
        },
        "multipatch_footprint_1355-mesh": {
            "name": "multipatch_footprint.1355",
            "primitives": [
                {
                    "attributes": {
                        "NORMAL": "accessor_60",
                        "POSITION": "accessor_58"
                    },
                    "indices": "accessor_56",
                    "material": "__glTF__defaultMaterial0",
                    "mode": 4
                }
            ]
        },
        "multipatch_footprint_1369-mesh": {
            "name": "multipatch_footprint.1369",
            "primitives": [
                {
                    "attributes": {
                        "NORMAL": "accessor_80",
                        "POSITION": "accessor_78"
                    },
                    "indices": "accessor_76",
                    "material": "__glTF__defaultMaterial0",
                    "mode": 4
                }
            ]
        }
    },
    "nodes": {
        "gridID_12_w300241286_join": {
            "children": [],
            "matrix": [
                1,
                0,
                0,
                0,
                0,
                1,
                0,
                0,
                0,
                0,
                1,
                0,
                0.000366211,
                0.000366211,
                0,
                1
            ],
            "meshes": [
                "multipatch_footprint_1369-mesh"
            ],
            "name": "gridID_12_w300241286_join"
        },
        "gridID_12_w300241288_join": {
            "children": [],
            "matrix": [
                1,
                0,
                0,
                0,
                0,
                1,
                0,
                0,
                0,
                0,
                1,
                0,
                0.000366211,
                0.000366211,
                0,
                1
            ],
            "meshes": [
                "multipatch_footprint_1332-mesh"
            ],
            "name": "gridID_12_w300241288_join"
        },
        "gridID_12_w300246054_join": {
            "children": [],
            "matrix": [
                1,
                0,
                0,
                0,
                0,
                1,
                0,
                0,
                0,
                0,
                1,
                0,
                0.000366211,
                0.000366211,
                0,
                1
            ],
            "meshes": [
                "multipatch_footprint_1355-mesh"
            ],
            "name": "gridID_12_w300246054_join"
        },
        "gridID_12_w51806483_join": {
            "children": [],
            "matrix": [
                1,
                0,
                0,
                0,
                0,
                1,
                0,
                0,
                0,
                0,
                1,
                0,
                0.000366211,
                0.000366211,
                0,
                1
            ],
            "meshes": [
                "multipatch_footprint_1333-mesh"
            ],
            "name": "gridID_12_w51806483_join"
        },
        "node_4": {
            "children": [
                "gridID_12_w300241288_join",
                "gridID_12_w51806483_join",
                "gridID_12_w300246054_join",
                "gridID_12_w300241286_join"
            ],
            "matrix": [
                1,
                0,
                0,
                0,
                0,
                0,
                -1,
                0,
                0,
                1,
                0,
                0,
                0,
                0,
                0,
                1
            ],
            "name": "Y_UP_Transform"
        }
    },
    "programs": {
        "program_0": {
            "attributes": [
                "a_normal",
                "a_position"
            ],
            "fragmentShader": "\\data\\3dcity\\miami\\workspace\\gridID_12\\gridID_12_high0FS",
            "vertexShader": "\\data\\3dcity\\miami\\workspace\\gridID_12\\gridID_12_high0VS"
        }
    },
    "scene": "defaultScene",
    "scenes": {
        "defaultScene": {
            "nodes": [
                "node_4"
            ]
        }
    },
    "shaders": {
        "\\data\\3dcity\\miami\\workspace\\gridID_12\\gridID_12_high0FS": {
            "type": 35632,
            "uri": "data:text/plain;base64,"
        },
        "\\data\\3dcity\\miami\\workspace\\gridID_12\\gridID_12_high0VS": {
            "type": 35633,
            "uri": "data:text/plain;base64,"
        }
    },
    "skins": {},
    "techniques": {
        "technique0": {
            "attributes": {
                "a_normal": "normal",
                "a_position": "position"
            },
            "parameters": {
                "diffuse": {
                    "type": 35666
                },
                "modelViewMatrix": {
                    "semantic": "MODELVIEW",
                    "type": 35676
                },
                "normal": {
                    "semantic": "NORMAL",
                    "type": 35665
                },
                "normalMatrix": {
                    "semantic": "MODELVIEWINVERSETRANSPOSE",
                    "type": 35675
                },
                "position": {
                    "semantic": "POSITION",
                    "type": 35665
                },
                "projectionMatrix": {
                    "semantic": "PROJECTION",
                    "type": 35676
                }
            },
            "program": "program_0",
            "states": {
                "enable": [
                    2929,
                    2884
                ]
            },
            "uniforms": {
                "u_diffuse": "diffuse",
                "u_modelViewMatrix": "modelViewMatrix",
                "u_normalMatrix": "normalMatrix",
                "u_projectionMatrix": "projectionMatrix"
            }
        }
    }
}