{"accessors":{"accessor_100":{"bufferView":"bufferView_203","byteOffset":6132,"byteStride":12,"componentType":5126,"count":85,"max":[0.999485,0.999473,1],"min":[-0.999485,-0.999473,0],"type":"VEC3"},"accessor_116":{"bufferView":"bufferView_202","byteOffset":660,"byteStride":0,"componentType":5123,"count":78,"type":"SCALAR"},"accessor_118":{"bufferView":"bufferView_203","byteOffset":7152,"byteStride":12,"componentType":5126,"count":68,"max":[26.0288,52.166,9.89383],"min":[13.6488,21.7908,3.53381],"type":"VEC3"},"accessor_120":{"bufferView":"bufferView_203","byteOffset":7968,"byteStride":12,"componentType":5126,"count":68,"max":[0.998985,0.999381,1],"min":[-0.999415,-0.999383,0],"type":"VEC3"},"accessor_136":{"bufferView":"bufferView_202","byteOffset":816,"byteStride":0,"componentType":5123,"count":96,"type":"SCALAR"},"accessor_138":{"bufferView":"bufferView_203","byteOffset":8784,"byteStride":12,"componentType":5126,"count":86,"max":[7.75552,51.4456,9.63292],"min":[-5.009,20.0942,3.48563],"type":"VEC3"},"accessor_140":{"bufferView":"bufferView_203","byteOffset":9816,"byteStride":12,"componentType":5126,"count":86,"max":[0.999411,0.999398,1],"min":[-0.999411,-0.999398,0],"type":"VEC3"},"accessor_156":{"bufferView":"bufferView_202","byteOffset":1008,"byteStride":0,"componentType":5123,"count":96,"type":"SCALAR"},"accessor_158":{"bufferView":"bufferView_203","byteOffset":10848,"byteStride":12,"componentType":5126,"count":80,"max":[-8.06418,51.192,9.63292],"min":[-20.1243,19.9385,3.49893],"type":"VEC3"},"accessor_16":{"bufferView":"bufferView_202","byteOffset":0,"byteStride":0,"componentType":5123,"count":66,"type":"SCALAR"},"accessor_160":{"bufferView":"bufferView_203","byteOffset":11808,"byteStride":12,"componentType":5126,"count":80,"max":[0.999509,0.999612,1],"min":[-0.999624,-0.999611,0],"type":"VEC3"},"accessor_176":{"bufferView":"bufferView_202","byteOffset":1200,"byteStride":0,"componentType":5123,"count":882,"type":"SCALAR"},"accessor_178":{"bufferView":"bufferView_203","byteOffset":12768,"byteStride":12,"componentType":5126,"count":824,"max":[-29.3241,37.0016,13.5139],"min":[-61.2406,18.7825,3.47485],"type":"VEC3"},"accessor_18":{"bufferView":"bufferView_203","byteOffset":0,"byteStride":12,"componentType":5126,"count":64,"max":[-6.6955,-60.2129,12.8675],"min":[-26.5884,-96.0064,3.56847],"type":"VEC3"},"accessor_180":{"bufferView":"bufferView_203","byteOffset":22656,"byteStride":12,"componentType":5126,"count":824,"max":[0.999459,0.999445,1],"min":[-0.999458,-0.999444,0],"type":"VEC3"},"accessor_196":{"bufferView":"bufferView_202","byteOffset":2964,"byteStride":0,"componentType":5123,"count":504,"type":"SCALAR"},"accessor_198":{"bufferView":"bufferView_203","byteOffset":32544,"byteStride":12,"componentType":5126,"count":439,"max":[-33.0179,105.72,9.82951],"min":[-68.1372,57.7373,3.92433],"type":"VEC3"},"accessor_20":{"bufferView":"bufferView_203","byteOffset":768,"byteStride":12,"componentType":5126,"count":64,"max":[0.999465,0.999453,1],"min":[-0.999465,-0.999455,0],"type":"VEC3"},"accessor_200":{"bufferView":"bufferView_203","byteOffset":37812,"byteStride":12,"componentType":5126,"count":439,"max":[0.999807,0.999981,1],"min":[-0.999956,-0.999981,0],"type":"VEC3"},"accessor_36":{"bufferView":"bufferView_202","byteOffset":132,"byteStride":0,"componentType":5123,"count":30,"type":"SCALAR"},"accessor_38":{"bufferView":"bufferView_203","byteOffset":1536,"byteStride":12,"componentType":5126,"count":28,"max":[16.9399,-59.3173,12.5392],"min":[0.70752,-95.0336,3.27575],"type":"VEC3"},"accessor_40":{"bufferView":"bufferView_203","byteOffset":1872,"byteStride":12,"componentType":5126,"count":28,"max":[0.999362,0.999349,1],"min":[-0.999362,-0.999349,0],"type":"VEC3"},"accessor_56":{"bufferView":"bufferView_202","byteOffset":192,"byteStride":0,"componentType":5123,"count":30,"type":"SCALAR"},"accessor_58":{"bufferView":"bufferView_203","byteOffset":2208,"byteStride":12,"componentType":5126,"count":28,"max":[43.5301,-76.9924,8.74199],"min":[32.97,-92.1208,3.17764],"type":"VEC3"},"accessor_60":{"bufferView":"bufferView_203","byteOffset":2544,"byteStride":12,"componentType":5126,"count":28,"max":[0.999315,0.9993,1],"min":[-0.999315,-0.9993,0],"type":"VEC3"},"accessor_76":{"bufferView":"bufferView_202","byteOffset":252,"byteStride":0,"componentType":5123,"count":102,"type":"SCALAR"},"accessor_78":{"bufferView":"bufferView_203","byteOffset":2880,"byteStride":12,"componentType":5126,"count":93,"max":[59.2714,-6.82306,12.1045],"min":[-24.0877,-49.8193,3.17847],"type":"VEC3"},"accessor_80":{"bufferView":"bufferView_203","byteOffset":3996,"byteStride":12,"componentType":5126,"count":93,"max":[0.999466,0.999454,1],"min":[-0.999465,-0.999454,0],"type":"VEC3"},"accessor_96":{"bufferView":"bufferView_202","byteOffset":456,"byteStride":0,"componentType":5123,"count":102,"type":"SCALAR"},"accessor_98":{"bufferView":"bufferView_203","byteOffset":5112,"byteStride":12,"componentType":5126,"count":85,"max":[-26.5671,-9.9659,12.6887],"min":[-64.4886,-44.5787,3.44069],"type":"VEC3"},"accessor_b0":{"bufferView":"bufferView_b","byteOffset":0,"byteStride":0,"componentType":5123,"count":64,"type":"SCALAR"},"accessor_b1":{"bufferView":"bufferView_b","byteOffset":128,"byteStride":0,"componentType":5123,"count":28,"type":"SCALAR"},"accessor_b2":{"bufferView":"bufferView_b","byteOffset":184,"byteStride":0,"componentType":5123,"count":28,"type":"SCALAR"},"accessor_b3":{"bufferView":"bufferView_b","byteOffset":240,"byteStride":0,"componentType":5123,"count":93,"type":"SCALAR"},"accessor_b4":{"bufferView":"bufferView_b","byteOffset":426,"byteStride":0,"componentType":5123,"count":85,"type":"SCALAR"},"accessor_b5":{"bufferView":"bufferView_b","byteOffset":596,"byteStride":0,"componentType":5123,"count":68,"type":"SCALAR"},"accessor_b6":{"bufferView":"bufferView_b","byteOffset":732,"byteStride":0,"componentType":5123,"count":86,"type":"SCALAR"},"accessor_b7":{"bufferView":"bufferView_b","byteOffset":904,"byteStride":0,"componentType":5123,"count":80,"type":"SCALAR"},"accessor_b8":{"bufferView":"bufferView_b","byteOffset":1064,"byteStride":0,"componentType":5123,"count":824,"type":"SCALAR"},"accessor_b9":{"bufferView":"bufferView_b","byteOffset":2712,"byteStride":0,"componentType":5123,"count":439,"type":"SCALAR"}},"animations":{},"asset":{"generator":"collada2gltf@cf6371beb0bdc18ba603378d5e40c966da53d385","premultipliedAlpha":true,"profile":{"api":"WebGL","version":"1.0.2"},"version":"1.0"},"bufferViews":{"bufferView_202":{"buffer":"\\data\\3dcity\\miami\\workspace\\gridID_35\\gridID_35_high","byteLength":3972,"byteOffset":0,"target":34963},"bufferView_203":{"buffer":"\\data\\3dcity\\miami\\workspace\\gridID_35\\gridID_35_high","byteLength":43080,"byteOffset":3972,"target":34962},"bufferView_b":{"buffer":"buffer_b","byteLength":3590,"byteOffset":0,"target":34962}},"buffers":{"\\data\\3dcity\\miami\\workspace\\gridID_35\\gridID_35_high":{"byteLength":47052,"type":"arraybuffer","uri":"data:application/octet-stream;base64,"},"buffer_b":{"type":"arraybuffer","byteLength":3590,"uri":"data:application/octet-stream;base64,"}},"materials":{"__glTF__defaultMaterial0":{"name":"__glTF__defaultMaterial0","technique":"technique0","values":{"diffuse":[1,1,1,1]}}},"meshes":{"multipatch_footprint_2115-mesh":{"name":"multipatch_footprint.2115","primitives":[{"attributes":{"NORMAL":"accessor_20","POSITION":"accessor_18","BATCHID":"accessor_b0"},"indices":"accessor_16","material":"__glTF__defaultMaterial0","mode":4}]},"multipatch_footprint_2116-mesh":{"name":"multipatch_footprint.2116","primitives":[{"attributes":{"NORMAL":"accessor_40","POSITION":"accessor_38","BATCHID":"accessor_b1"},"indices":"accessor_36","material":"__glTF__defaultMaterial0","mode":4}]},"multipatch_footprint_2117-mesh":{"name":"multipatch_footprint.2117","primitives":[{"attributes":{"NORMAL":"accessor_60","POSITION":"accessor_58","BATCHID":"accessor_b2"},"indices":"accessor_56","material":"__glTF__defaultMaterial0","mode":4}]},"multipatch_footprint_2118-mesh":{"name":"multipatch_footprint.2118","primitives":[{"attributes":{"NORMAL":"accessor_80","POSITION":"accessor_78","BATCHID":"accessor_b3"},"indices":"accessor_76","material":"__glTF__defaultMaterial0","mode":4}]},"multipatch_footprint_2119-mesh":{"name":"multipatch_footprint.2119","primitives":[{"attributes":{"NORMAL":"accessor_100","POSITION":"accessor_98","BATCHID":"accessor_b4"},"indices":"accessor_96","material":"__glTF__defaultMaterial0","mode":4}]},"multipatch_footprint_2138-mesh":{"name":"multipatch_footprint.2138","primitives":[{"attributes":{"NORMAL":"accessor_120","POSITION":"accessor_118","BATCHID":"accessor_b5"},"indices":"accessor_116","material":"__glTF__defaultMaterial0","mode":4}]},"multipatch_footprint_2139-mesh":{"name":"multipatch_footprint.2139","primitives":[{"attributes":{"NORMAL":"accessor_140","POSITION":"accessor_138","BATCHID":"accessor_b6"},"indices":"accessor_136","material":"__glTF__defaultMaterial0","mode":4}]},"multipatch_footprint_2140-mesh":{"name":"multipatch_footprint.2140","primitives":[{"attributes":{"NORMAL":"accessor_160","POSITION":"accessor_158","BATCHID":"accessor_b7"},"indices":"accessor_156","material":"__glTF__defaultMaterial0","mode":4}]},"multipatch_footprint_2155-mesh":{"name":"multipatch_footprint.2155","primitives":[{"attributes":{"NORMAL":"accessor_180","POSITION":"accessor_178","BATCHID":"accessor_b8"},"indices":"accessor_176","material":"__glTF__defaultMaterial0","mode":4}]},"multipatch_footprint_2164-mesh":{"name":"multipatch_footprint.2164","primitives":[{"attributes":{"NORMAL":"accessor_200","POSITION":"accessor_198","BATCHID":"accessor_b9"},"indices":"accessor_196","material":"__glTF__defaultMaterial0","mode":4}]}},"nodes":{"gridID_35_w255188210_join":{"children":[],"matrix":[1,0,0,0,0,1,0,0,0,0,1,0,0.000366211,0.000339508,0,1],"meshes":["multipatch_footprint_2117-mesh"],"name":"gridID_35_w255188210_join"},"gridID_35_w435530785_join":{"children":[],"matrix":[1,0,0,0,0,1,0,0,0,0,1,0,0.000366211,0.000339508,0,1],"meshes":["multipatch_footprint_2115-mesh"],"name":"gridID_35_w435530785_join"},"gridID_35_w435537854_join":{"children":[],"matrix":[1,0,0,0,0,1,0,0,0,0,1,0,0.000366211,0.000339508,0,1],"meshes":["multipatch_footprint_2119-mesh"],"name":"gridID_35_w435537854_join"},"gridID_35_w435541708_join":{"children":[],"matrix":[1,0,0,0,0,1,0,0,0,0,1,0,0.000366211,0.000339508,0,1],"meshes":["multipatch_footprint_2140-mesh"],"name":"gridID_35_w435541708_join"},"gridID_35_w435567824_join":{"children":[],"matrix":[1,0,0,0,0,1,0,0,0,0,1,0,0.000366211,0.000339508,0,1],"meshes":["multipatch_footprint_2138-mesh"],"name":"gridID_35_w435567824_join"},"gridID_35_w435585147_join":{"children":[],"matrix":[1,0,0,0,0,1,0,0,0,0,1,0,0.000366211,0.000339508,0,1],"meshes":["multipatch_footprint_2118-mesh"],"name":"gridID_35_w435585147_join"},"gridID_35_w435585696_join":{"children":[],"matrix":[1,0,0,0,0,1,0,0,0,0,1,0,0.000366211,0.000339508,0,1],"meshes":["multipatch_footprint_2164-mesh"],"name":"gridID_35_w435585696_join"},"gridID_35_w435748144_join":{"children":[],"matrix":[1,0,0,0,0,1,0,0,0,0,1,0,0.000366211,0.000339508,0,1],"meshes":["multipatch_footprint_2139-mesh"],"name":"gridID_35_w435748144_join"},"gridID_35_w435749118_join":{"children":[],"matrix":[1,0,0,0,0,1,0,0,0,0,1,0,0.000366211,0.000339508,0,1],"meshes":["multipatch_footprint_2116-mesh"],"name":"gridID_35_w435749118_join"},"gridID_35_w435884700_join":{"children":[],"matrix":[1,0,0,0,0,1,0,0,0,0,1,0,0.000366211,0.000339508,0,1],"meshes":["multipatch_footprint_2155-mesh"],"name":"gridID_35_w435884700_join"},"node_10":{"children":["gridID_35_w435530785_join","gridID_35_w435749118_join","gridID_35_w255188210_join","gridID_35_w435585147_join","gridID_35_w435537854_join","gridID_35_w435567824_join","gridID_35_w435748144_join","gridID_35_w435541708_join","gridID_35_w435884700_join","gridID_35_w435585696_join"],"matrix":[1,0,0,0,0,0,-1,0,0,1,0,0,0,0,0,1],"name":"Y_UP_Transform"}},"programs":{"program_0":{"attributes":["a_normal","a_position","a_batchId"],"fragmentShader":"\\data\\3dcity\\miami\\workspace\\gridID_35\\gridID_35_high0FS","vertexShader":"\\data\\3dcity\\miami\\workspace\\gridID_35\\gridID_35_high0VS"}},"scene":"defaultScene","scenes":{"defaultScene":{"nodes":["node_10"]}},"shaders":{"\\data\\3dcity\\miami\\workspace\\gridID_35\\gridID_35_high0FS":{"type":35632,"uri":"data:text/plain;base64,"},"\\data\\3dcity\\miami\\workspace\\gridID_35\\gridID_35_high0VS":{"type":35633,"uri":"data:text/plain;base64,"}},"skins":{},"techniques":{"technique0":{"attributes":{"a_normal":"normal","a_position":"position","a_batchId":"batchId"},"parameters":{"diffuse":{"type":35666},"modelViewMatrix":{"semantic":"MODELVIEW","type":35676},"normal":{"semantic":"NORMAL","type":35665},"normalMatrix":{"semantic":"MODELVIEWINVERSETRANSPOSE","type":35675},"position":{"semantic":"POSITION","type":35665},"projectionMatrix":{"semantic":"PROJECTION","type":35676},"batchId":{"semantic":"BATCHID","type":5126}},"program":"program_0","states":{"enable":[2929,2884]},"uniforms":{"u_diffuse":"diffuse","u_modelViewMatrix":"modelViewMatrix","u_normalMatrix":"normalMatrix","u_projectionMatrix":"projectionMatrix"}}}}