{"accessors":{"accessor_100":{"bufferView":"bufferView_143","byteOffset":6576,"byteStride":12,"componentType":5126,"count":60,"max":[0.999767,1,0.99977],"min":[-0.999774,-1,-0.999758],"type":"VEC3"},"accessor_116":{"bufferView":"bufferView_142","byteOffset":792,"byteStride":0,"componentType":5123,"count":36,"type":"SCALAR"},"accessor_118":{"bufferView":"bufferView_143","byteOffset":7296,"byteStride":12,"componentType":5126,"count":32,"max":[83.2332,44,-35.6296],"min":[7.71407,0,-63.5772],"type":"VEC3"},"accessor_120":{"bufferView":"bufferView_143","byteOffset":7680,"byteStride":12,"componentType":5126,"count":32,"max":[0.999415,1,0.999402],"min":[-0.999415,-1,-0.999402],"type":"VEC3"},"accessor_136":{"bufferView":"bufferView_142","byteOffset":864,"byteStride":0,"componentType":5123,"count":60,"type":"SCALAR"},"accessor_138":{"bufferView":"bufferView_143","byteOffset":8064,"byteStride":12,"componentType":5126,"count":50,"max":[-32.8396,50,-16.9897],"min":[-73.4713,0,-63.6019],"type":"VEC3"},"accessor_140":{"bufferView":"bufferView_143","byteOffset":8664,"byteStride":12,"componentType":5126,"count":50,"max":[0.999349,1,0.999325],"min":[-0.999335,-1,-0.999319],"type":"VEC3"},"accessor_16":{"bufferView":"bufferView_142","byteOffset":0,"byteStride":0,"componentType":5123,"count":84,"type":"SCALAR"},"accessor_18":{"bufferView":"bufferView_143","byteOffset":0,"byteStride":12,"componentType":5126,"count":69,"max":[38.5384,9,-9.73394],"min":[5.52105,0,-29.4492],"type":"VEC3"},"accessor_20":{"bufferView":"bufferView_143","byteOffset":828,"byteStride":12,"componentType":5126,"count":69,"max":[0.999728,1,0.999715],"min":[-0.999695,-1,-0.999705],"type":"VEC3"},"accessor_36":{"bufferView":"bufferView_142","byteOffset":168,"byteStride":0,"componentType":5123,"count":156,"type":"SCALAR"},"accessor_38":{"bufferView":"bufferView_143","byteOffset":1656,"byteStride":12,"componentType":5126,"count":111,"max":[-14.8727,13,-28.8806],"min":[-27.218,0,-60.1656],"type":"VEC3"},"accessor_40":{"bufferView":"bufferView_143","byteOffset":2988,"byteStride":12,"componentType":5126,"count":111,"max":[0.999961,1,0.999974],"min":[-0.999963,-1,-0.999983],"type":"VEC3"},"accessor_56":{"bufferView":"bufferView_142","byteOffset":480,"byteStride":0,"componentType":5123,"count":36,"type":"SCALAR"},"accessor_58":{"bufferView":"bufferView_143","byteOffset":4320,"byteStride":12,"componentType":5126,"count":32,"max":[50.0822,39,29.5359],"min":[12.857,0,-5.98865],"type":"VEC3"},"accessor_60":{"bufferView":"bufferView_143","byteOffset":4704,"byteStride":12,"componentType":5126,"count":32,"max":[0.999035,1,0.999006],"min":[-0.999035,-1,-0.999006],"type":"VEC3"},"accessor_76":{"bufferView":"bufferView_142","byteOffset":552,"byteStride":0,"componentType":5123,"count":36,"type":"SCALAR"},"accessor_78":{"bufferView":"bufferView_143","byteOffset":5088,"byteStride":12,"componentType":5126,"count":32,"max":[-29.2997,19,31.0192],"min":[-70.9554,0,-11.8971],"type":"VEC3"},"accessor_80":{"bufferView":"bufferView_143","byteOffset":5472,"byteStride":12,"componentType":5126,"count":32,"max":[0.999016,1,0.998989],"min":[-0.999016,-1,-0.998989],"type":"VEC3"},"accessor_96":{"bufferView":"bufferView_142","byteOffset":624,"byteStride":0,"componentType":5123,"count":84,"type":"SCALAR"},"accessor_98":{"bufferView":"bufferView_143","byteOffset":5856,"byteStride":12,"componentType":5126,"count":60,"max":[5.6769,11,91.8211],"min":[-9.71858,0,63.8614],"type":"VEC3"},"accessor_b0":{"bufferView":"bufferView_b","byteOffset":0,"byteStride":0,"componentType":5123,"count":69,"type":"SCALAR"},"accessor_b1":{"bufferView":"bufferView_b","byteOffset":138,"byteStride":0,"componentType":5123,"count":111,"type":"SCALAR"},"accessor_b2":{"bufferView":"bufferView_b","byteOffset":360,"byteStride":0,"componentType":5123,"count":32,"type":"SCALAR"},"accessor_b3":{"bufferView":"bufferView_b","byteOffset":424,"byteStride":0,"componentType":5123,"count":32,"type":"SCALAR"},"accessor_b4":{"bufferView":"bufferView_b","byteOffset":488,"byteStride":0,"componentType":5123,"count":60,"type":"SCALAR"},"accessor_b5":{"bufferView":"bufferView_b","byteOffset":608,"byteStride":0,"componentType":5123,"count":32,"type":"SCALAR"},"accessor_b6":{"bufferView":"bufferView_b","byteOffset":672,"byteStride":0,"componentType":5123,"count":50,"type":"SCALAR"}},"animations":{},"asset":{"generator":"collada2gltf@cf6371beb0bdc18ba603378d5e40c966da53d385","premultipliedAlpha":true,"profile":{"api":"WebGL","version":"1.0.2"},"version":"1.0"},"bufferViews":{"bufferView_142":{"buffer":"\\data\\3dcity\\miami\\workspace\\gridID_44\\gridID_44","byteLength":984,"byteOffset":0,"target":34963},"bufferView_143":{"buffer":"\\data\\3dcity\\miami\\workspace\\gridID_44\\gridID_44","byteLength":9264,"byteOffset":984,"target":34962},"bufferView_b":{"buffer":"buffer_b","byteLength":772,"byteOffset":0,"target":34962}},"buffers":{"\\data\\3dcity\\miami\\workspace\\gridID_44\\gridID_44":{"byteLength":10248,"type":"arraybuffer","uri":"data:application/octet-stream;base64,"},"buffer_b":{"type":"arraybuffer","byteLength":772,"uri":"data:application/octet-stream;base64,"}},"materials":{"CityEngineMaterial_470-effect":{"name":"CityEngineMaterial_470","technique":"technique0","values":{"ambient":[1,1,1,1],"diffuse":[1,1,1,1],"emission":[0,0,0,1],"shininess":50,"specular":[0.5,0.5,0.5,1]}},"CityEngineMaterial_471-effect":{"name":"CityEngineMaterial_471","technique":"technique0","values":{"ambient":[1,1,1,1],"diffuse":[1,1,1,1],"emission":[0,0,0,1],"shininess":50,"specular":[0.5,0.5,0.5,1]}},"CityEngineMaterial_472-effect":{"name":"CityEngineMaterial_472","technique":"technique0","values":{"ambient":[1,1,1,1],"diffuse":[1,1,1,1],"emission":[0,0,0,1],"shininess":50,"specular":[0.5,0.5,0.5,1]}},"CityEngineMaterial_473-effect":{"name":"CityEngineMaterial_473","technique":"technique0","values":{"ambient":[1,1,1,1],"diffuse":[1,1,1,1],"emission":[0,0,0,1],"shininess":50,"specular":[0.5,0.5,0.5,1]}},"CityEngineMaterial_474-effect":{"name":"CityEngineMaterial_474","technique":"technique0","values":{"ambient":[1,1,1,1],"diffuse":[1,1,1,1],"emission":[0,0,0,1],"shininess":50,"specular":[0.5,0.5,0.5,1]}},"CityEngineMaterial_475-effect":{"name":"CityEngineMaterial_475","technique":"technique0","values":{"ambient":[1,1,1,1],"diffuse":[1,1,1,1],"emission":[0,0,0,1],"shininess":50,"specular":[0.5,0.5,0.5,1]}},"CityEngineMaterial_476-effect":{"name":"CityEngineMaterial_476","technique":"technique0","values":{"ambient":[1,1,1,1],"diffuse":[1,1,1,1],"emission":[0,0,0,1],"shininess":50,"specular":[0.5,0.5,0.5,1]}}},"meshes":{"mesh_CityEngineMaterial_468-mesh":{"name":"mesh_CityEngineMaterial.468","primitives":[{"attributes":{"NORMAL":"accessor_20","POSITION":"accessor_18","BATCHID":"accessor_b0"},"indices":"accessor_16","material":"CityEngineMaterial_470-effect","mode":4}]},"mesh_CityEngineMaterial_469-mesh":{"name":"mesh_CityEngineMaterial.469","primitives":[{"attributes":{"NORMAL":"accessor_40","POSITION":"accessor_38","BATCHID":"accessor_b1"},"indices":"accessor_36","material":"CityEngineMaterial_471-effect","mode":4}]},"mesh_CityEngineMaterial_470-mesh":{"name":"mesh_CityEngineMaterial.470","primitives":[{"attributes":{"NORMAL":"accessor_60","POSITION":"accessor_58","BATCHID":"accessor_b2"},"indices":"accessor_56","material":"CityEngineMaterial_472-effect","mode":4}]},"mesh_CityEngineMaterial_471-mesh":{"name":"mesh_CityEngineMaterial.471","primitives":[{"attributes":{"NORMAL":"accessor_80","POSITION":"accessor_78","BATCHID":"accessor_b3"},"indices":"accessor_76","material":"CityEngineMaterial_473-effect","mode":4}]},"mesh_CityEngineMaterial_472-mesh":{"name":"mesh_CityEngineMaterial.472","primitives":[{"attributes":{"NORMAL":"accessor_100","POSITION":"accessor_98","BATCHID":"accessor_b4"},"indices":"accessor_96","material":"CityEngineMaterial_474-effect","mode":4}]},"mesh_CityEngineMaterial_473-mesh":{"name":"mesh_CityEngineMaterial.473","primitives":[{"attributes":{"NORMAL":"accessor_120","POSITION":"accessor_118","BATCHID":"accessor_b5"},"indices":"accessor_116","material":"CityEngineMaterial_475-effect","mode":4}]},"mesh_CityEngineMaterial_474-mesh":{"name":"mesh_CityEngineMaterial.474","primitives":[{"attributes":{"NORMAL":"accessor_140","POSITION":"accessor_138","BATCHID":"accessor_b6"},"indices":"accessor_136","material":"CityEngineMaterial_476-effect","mode":4}]}},"nodes":{"CityEngineMaterial":{"children":[],"matrix":[1,0,0,0,0,-1.62921e-7,1,0,0,-1,-1.62921e-7,0,0,0,0,1],"meshes":["mesh_CityEngineMaterial_468-mesh"],"name":"CityEngineMaterial"},"CityEngineMaterial_001":{"children":[],"matrix":[1,0,0,0,0,-1.62921e-7,1,0,0,-1,-1.62921e-7,0,0,0,0,1],"meshes":["mesh_CityEngineMaterial_469-mesh"],"name":"CityEngineMaterial_001"},"CityEngineMaterial_002":{"children":[],"matrix":[1,0,0,0,0,-1.62921e-7,1,0,0,-1,-1.62921e-7,0,0,0,0,1],"meshes":["mesh_CityEngineMaterial_470-mesh"],"name":"CityEngineMaterial_002"},"CityEngineMaterial_003":{"children":[],"matrix":[1,0,0,0,0,-1.62921e-7,1,0,0,-1,-1.62921e-7,0,0,0,0,1],"meshes":["mesh_CityEngineMaterial_471-mesh"],"name":"CityEngineMaterial_003"},"CityEngineMaterial_004":{"children":[],"matrix":[1,0,0,0,0,-1.62921e-7,1,0,0,-1,-1.62921e-7,0,0,0,0,1],"meshes":["mesh_CityEngineMaterial_472-mesh"],"name":"CityEngineMaterial_004"},"CityEngineMaterial_005":{"children":[],"matrix":[1,0,0,0,0,-1.62921e-7,1,0,0,-1,-1.62921e-7,0,0,0,0,1],"meshes":["mesh_CityEngineMaterial_473-mesh"],"name":"CityEngineMaterial_005"},"CityEngineMaterial_006":{"children":[],"matrix":[1,0,0,0,0,-1.62921e-7,1,0,0,-1,-1.62921e-7,0,0,0,0,1],"meshes":["mesh_CityEngineMaterial_474-mesh"],"name":"CityEngineMaterial_006"},"node_7":{"children":["CityEngineMaterial","CityEngineMaterial_001","CityEngineMaterial_002","CityEngineMaterial_003","CityEngineMaterial_004","CityEngineMaterial_005","CityEngineMaterial_006"],"matrix":[1,0,0,0,0,0,-1,0,0,1,0,0,0,0,0,1],"name":"Y_UP_Transform"}},"programs":{"program_0":{"attributes":["a_normal","a_position","a_batchId"],"fragmentShader":"\\data\\3dcity\\miami\\workspace\\gridID_44\\gridID_440FS","vertexShader":"\\data\\3dcity\\miami\\workspace\\gridID_44\\gridID_440VS"}},"scene":"defaultScene","scenes":{"defaultScene":{"nodes":["node_7"]}},"shaders":{"\\data\\3dcity\\miami\\workspace\\gridID_44\\gridID_440FS":{"type":35632,"uri":"data:text/plain;base64,"},"\\data\\3dcity\\miami\\workspace\\gridID_44\\gridID_440VS":{"type":35633,"uri":"data:text/plain;base64,"}},"skins":{},"techniques":{"technique0":{"attributes":{"a_normal":"normal","a_position":"position","a_batchId":"batchId"},"parameters":{"ambient":{"type":35666},"diffuse":{"type":35666},"emission":{"type":35666},"modelViewMatrix":{"semantic":"MODELVIEW","type":35676},"normal":{"semantic":"NORMAL","type":35665},"normalMatrix":{"semantic":"MODELVIEWINVERSETRANSPOSE","type":35675},"position":{"semantic":"POSITION","type":35665},"projectionMatrix":{"semantic":"PROJECTION","type":35676},"shininess":{"type":5126},"specular":{"type":35666},"batchId":{"semantic":"BATCHID","type":5126}},"program":"program_0","states":{"enable":[2929,2884]},"uniforms":{"u_ambient":"ambient","u_diffuse":"diffuse","u_emission":"emission","u_modelViewMatrix":"modelViewMatrix","u_normalMatrix":"normalMatrix","u_projectionMatrix":"projectionMatrix","u_shininess":"shininess","u_specular":"specular"}}}}