{
    "accessors": {
        "accessor_101": {
            "bufferView": "bufferView_242",
            "byteOffset": 3366,
            "byteStride": 0,
            "componentType": 5123,
            "count": 6,
            "type": "SCALAR"
        },
        "accessor_103": {
            "bufferView": "bufferView_243",
            "byteOffset": 35376,
            "byteStride": 12,
            "componentType": 5126,
            "count": 28,
            "max": [
                5.85425,
                3.75,
                6.763
            ],
            "min": [
                -5.85376,
                -3.75,
                -6.763
            ],
            "type": "VEC3"
        },
        "accessor_105": {
            "bufferView": "bufferView_243",
            "byteOffset": 35712,
            "byteStride": 12,
            "componentType": 5126,
            "count": 28,
            "max": [
                0.964945,
                1,
                0.964907
            ],
            "min": [
                -0.964967,
                0,
                -0.9649
            ],
            "type": "VEC3"
        },
        "accessor_133": {
            "bufferView": "bufferView_242",
            "byteOffset": 3162,
            "byteStride": 0,
            "componentType": 5123,
            "count": 36,
            "type": "SCALAR"
        },
        "accessor_136": {
            "bufferView": "bufferView_242",
            "byteOffset": 3234,
            "byteStride": 0,
            "componentType": 5123,
            "count": 12,
            "type": "SCALAR"
        },
        "accessor_138": {
            "bufferView": "bufferView_243",
            "byteOffset": 33792,
            "byteStride": 12,
            "componentType": 5126,
            "count": 42,
            "max": [
                11.0577,
                3.75,
                7.5515
            ],
            "min": [
                -10.7023,
                -3.75,
                -5.0165
            ],
            "type": "VEC3"
        },
        "accessor_140": {
            "bufferView": "bufferView_243",
            "byteOffset": 34296,
            "byteStride": 12,
            "componentType": 5126,
            "count": 42,
            "max": [
                0.967214,
                1,
                0.967169
            ],
            "min": [
                -0.967315,
                0,
                -0.967643
            ],
            "type": "VEC3"
        },
        "accessor_180": {
            "bufferView": "bufferView_242",
            "byteOffset": 1578,
            "byteStride": 0,
            "componentType": 5123,
            "count": 636,
            "type": "SCALAR"
        },
        "accessor_183": {
            "bufferView": "bufferView_242",
            "byteOffset": 2850,
            "byteStride": 0,
            "componentType": 5123,
            "count": 135,
            "type": "SCALAR"
        },
        "accessor_186": {
            "bufferView": "bufferView_242",
            "byteOffset": 3120,
            "byteStride": 0,
            "componentType": 5123,
            "count": 21,
            "type": "SCALAR"
        },
        "accessor_188": {
            "bufferView": "bufferView_243",
            "byteOffset": 16800,
            "byteStride": 12,
            "componentType": 5126,
            "count": 708,
            "max": [
                20.9214,
                11.8286,
                12.5791
            ],
            "min": [
                -19.6486,
                -15.1714,
                -13.1469
            ],
            "type": "VEC3"
        },
        "accessor_190": {
            "bufferView": "bufferView_243",
            "byteOffset": 25296,
            "byteStride": 12,
            "componentType": 5126,
            "count": 708,
            "max": [
                0.987071,
                1,
                1
            ],
            "min": [
                -0.969621,
                -1,
                -0.969054
            ],
            "type": "VEC3"
        },
        "accessor_230": {
            "bufferView": "bufferView_242",
            "byteOffset": 0,
            "byteStride": 0,
            "componentType": 5123,
            "count": 633,
            "type": "SCALAR"
        },
        "accessor_233": {
            "bufferView": "bufferView_242",
            "byteOffset": 1266,
            "byteStride": 0,
            "componentType": 5123,
            "count": 135,
            "type": "SCALAR"
        },
        "accessor_236": {
            "bufferView": "bufferView_242",
            "byteOffset": 1536,
            "byteStride": 0,
            "componentType": 5123,
            "count": 21,
            "type": "SCALAR"
        },
        "accessor_238": {
            "bufferView": "bufferView_243",
            "byteOffset": 0,
            "byteStride": 12,
            "componentType": 5126,
            "count": 700,
            "max": [
                20.8682,
                11.8287,
                12.5285
            ],
            "min": [
                -19.7029,
                -15.1712,
                -13.1865
            ],
            "type": "VEC3"
        },
        "accessor_240": {
            "bufferView": "bufferView_243",
            "byteOffset": 8400,
            "byteStride": 12,
            "componentType": 5126,
            "count": 700,
            "max": [
                0.969796,
                1,
                1
            ],
            "min": [
                -0.96889,
                -1,
                -0.969394
            ],
            "type": "VEC3"
        },
        "accessor_28": {
            "bufferView": "bufferView_242",
            "byteOffset": 3378,
            "byteStride": 0,
            "componentType": 5123,
            "count": 24,
            "type": "SCALAR"
        },
        "accessor_31": {
            "bufferView": "bufferView_242",
            "byteOffset": 3426,
            "byteStride": 0,
            "componentType": 5123,
            "count": 6,
            "type": "SCALAR"
        },
        "accessor_33": {
            "bufferView": "bufferView_243",
            "byteOffset": 36048,
            "byteStride": 12,
            "componentType": 5126,
            "count": 28,
            "max": [
                8.30548,
                3.75,
                6.13874
            ],
            "min": [
                -8.30551,
                -3.75,
                -6.13926
            ],
            "type": "VEC3"
        },
        "accessor_35": {
            "bufferView": "bufferView_243",
            "byteOffset": 36384,
            "byteStride": 12,
            "componentType": 5126,
            "count": 28,
            "max": [
                0.967107,
                1,
                0.967234
            ],
            "min": [
                -0.9671,
                0,
                -0.967217
            ],
            "type": "VEC3"
        },
        "accessor_63": {
            "bufferView": "bufferView_242",
            "byteOffset": 3258,
            "byteStride": 0,
            "componentType": 5123,
            "count": 24,
            "type": "SCALAR"
        },
        "accessor_66": {
            "bufferView": "bufferView_242",
            "byteOffset": 3306,
            "byteStride": 0,
            "componentType": 5123,
            "count": 6,
            "type": "SCALAR"
        },
        "accessor_68": {
            "bufferView": "bufferView_243",
            "byteOffset": 34800,
            "byteStride": 12,
            "componentType": 5126,
            "count": 24,
            "max": [
                10.8345,
                3.75,
                5.669
            ],
            "min": [
                -10.8395,
                -3.75,
                -5.663
            ],
            "type": "VEC3"
        },
        "accessor_70": {
            "bufferView": "bufferView_243",
            "byteOffset": 35088,
            "byteStride": 12,
            "componentType": 5126,
            "count": 24,
            "max": [
                0.965214,
                1,
                0.964874
            ],
            "min": [
                -0.964934,
                0,
                -0.965053
            ],
            "type": "VEC3"
        },
        "accessor_98": {
            "bufferView": "bufferView_242",
            "byteOffset": 3318,
            "byteStride": 0,
            "componentType": 5123,
            "count": 24,
            "type": "SCALAR"
        }
    },
    "animations": {},
    "asset": {
        "generator": "collada2gltf@cf6371beb0bdc18ba603378d5e40c966da53d385",
        "premultipliedAlpha": true,
        "profile": {
            "api": "WebGL",
            "version": "1.0.2"
        },
        "version": "1.0"
    },
    "bufferViews": {
        "bufferView_242": {
            "buffer": "\\data\\ECNU\\workspace\\gridID_57\\gridID_57",
            "byteLength": 3440,
            "byteOffset": 0,
            "target": 34963
        },
        "bufferView_243": {
            "buffer": "\\data\\ECNU\\workspace\\gridID_57\\gridID_57",
            "byteLength": 36720,
            "byteOffset": 3440,
            "target": 34962
        }
    },
    "buffers": {
        "\\data\\ECNU\\workspace\\gridID_57\\gridID_57": {
            "byteLength": 40160,
            "type": "arraybuffer",
            "uri": "data:application/octet-stream;base64,"
        }
    },
    "materials": {
        "BUILDING_DEFAULT_0-effect": {
            "name": "BUILDING_DEFAULT_0",
            "technique": "technique0",
            "values": {
                "ambient": [
                    0,
                    0,
                    0,
                    1
                ],
                "diffuse": [
                    0.723055,
                    0.708376,
                    0.672443,
                    1
                ],
                "emission": [
                    0,
                    0,
                    0,
                    1
                ],
                "shininess": 50,
                "specular": [
                    0.5,
                    0.5,
                    0.5,
                    1
                ]
            }
        },
        "CONCRETE_0-effect": {
            "name": "CONCRETE_0",
            "technique": "technique0",
            "values": {
                "ambient": [
                    0,
                    0,
                    0,
                    1
                ],
                "diffuse": [
                    0.309469,
                    0.327778,
                    0.309469,
                    1
                ],
                "emission": [
                    0,
                    0,
                    0,
                    1
                ],
                "shininess": 50,
                "specular": [
                    0.5,
                    0.5,
                    0.5,
                    1
                ]
            }
        },
        "ROOF_DEFAULT_0-effect": {
            "name": "ROOF_DEFAULT_0",
            "technique": "technique0",
            "values": {
                "ambient": [
                    0,
                    0,
                    0,
                    1
                ],
                "diffuse": [
                    0.603827,
                    0.381326,
                    0.291771,
                    1
                ],
                "emission": [
                    0,
                    0,
                    0,
                    1
                ],
                "shininess": 50,
                "specular": [
                    0.5,
                    0.5,
                    0.5,
                    1
                ]
            }
        }
    },
    "meshes": {
        "Building3360-mesh": {
            "name": "Building3360",
            "primitives": [
                {
                    "attributes": {
                        "NORMAL": "accessor_240",
                        "POSITION": "accessor_238"
                    },
                    "indices": "accessor_230",
                    "material": "BUILDING_DEFAULT_0-effect",
                    "mode": 4
                },
                {
                    "attributes": {
                        "NORMAL": "accessor_240",
                        "POSITION": "accessor_238"
                    },
                    "indices": "accessor_233",
                    "material": "ROOF_DEFAULT_0-effect",
                    "mode": 4
                },
                {
                    "attributes": {
                        "NORMAL": "accessor_240",
                        "POSITION": "accessor_238"
                    },
                    "indices": "accessor_236",
                    "material": "CONCRETE_0-effect",
                    "mode": 4
                }
            ]
        },
        "Building3644-mesh": {
            "name": "Building3644",
            "primitives": [
                {
                    "attributes": {
                        "NORMAL": "accessor_190",
                        "POSITION": "accessor_188"
                    },
                    "indices": "accessor_180",
                    "material": "BUILDING_DEFAULT_0-effect",
                    "mode": 4
                },
                {
                    "attributes": {
                        "NORMAL": "accessor_190",
                        "POSITION": "accessor_188"
                    },
                    "indices": "accessor_183",
                    "material": "ROOF_DEFAULT_0-effect",
                    "mode": 4
                },
                {
                    "attributes": {
                        "NORMAL": "accessor_190",
                        "POSITION": "accessor_188"
                    },
                    "indices": "accessor_186",
                    "material": "CONCRETE_0-effect",
                    "mode": 4
                }
            ]
        },
        "Building3843-mesh": {
            "name": "Building3843",
            "primitives": [
                {
                    "attributes": {
                        "NORMAL": "accessor_140",
                        "POSITION": "accessor_138"
                    },
                    "indices": "accessor_133",
                    "material": "BUILDING_DEFAULT_0-effect",
                    "mode": 4
                },
                {
                    "attributes": {
                        "NORMAL": "accessor_140",
                        "POSITION": "accessor_138"
                    },
                    "indices": "accessor_136",
                    "material": "ROOF_DEFAULT_0-effect",
                    "mode": 4
                }
            ]
        },
        "Building3849-mesh": {
            "name": "Building3849",
            "primitives": [
                {
                    "attributes": {
                        "NORMAL": "accessor_70",
                        "POSITION": "accessor_68"
                    },
                    "indices": "accessor_63",
                    "material": "BUILDING_DEFAULT_0-effect",
                    "mode": 4
                },
                {
                    "attributes": {
                        "NORMAL": "accessor_70",
                        "POSITION": "accessor_68"
                    },
                    "indices": "accessor_66",
                    "material": "ROOF_DEFAULT_0-effect",
                    "mode": 4
                }
            ]
        },
        "Building3851-mesh": {
            "name": "Building3851",
            "primitives": [
                {
                    "attributes": {
                        "NORMAL": "accessor_105",
                        "POSITION": "accessor_103"
                    },
                    "indices": "accessor_98",
                    "material": "BUILDING_DEFAULT_0-effect",
                    "mode": 4
                },
                {
                    "attributes": {
                        "NORMAL": "accessor_105",
                        "POSITION": "accessor_103"
                    },
                    "indices": "accessor_101",
                    "material": "ROOF_DEFAULT_0-effect",
                    "mode": 4
                }
            ]
        },
        "Building3879-mesh": {
            "name": "Building3879",
            "primitives": [
                {
                    "attributes": {
                        "NORMAL": "accessor_35",
                        "POSITION": "accessor_33"
                    },
                    "indices": "accessor_28",
                    "material": "BUILDING_DEFAULT_0-effect",
                    "mode": 4
                },
                {
                    "attributes": {
                        "NORMAL": "accessor_35",
                        "POSITION": "accessor_33"
                    },
                    "indices": "accessor_31",
                    "material": "ROOF_DEFAULT_0-effect",
                    "mode": 4
                }
            ]
        }
    },
    "nodes": {
        "model_gridID_57_w379069947": {
            "children": [],
            "matrix": [
                1,
                0,
                0,
                0,
                0,
                -1.62921e-007,
                1,
                0,
                0,
                -1,
                -1.62921e-007,
                0,
                -444.59,
                42.6297,
                3.75001,
                1
            ],
            "meshes": [
                "Building3879-mesh"
            ],
            "name": "model_gridID_57_w379069947"
        },
        "model_gridID_57_w379069955_001": {
            "children": [],
            "matrix": [
                1,
                0,
                0,
                0,
                0,
                -1.62921e-007,
                1,
                0,
                0,
                -1,
                -1.62921e-007,
                0,
                -441.113,
                25.662,
                3.75,
                1
            ],
            "meshes": [
                "Building3849-mesh"
            ],
            "name": "model_gridID_57_w379069955_001"
        },
        "model_gridID_57_w379069957": {
            "children": [],
            "matrix": [
                1,
                0,
                0,
                0,
                0,
                -1.62921e-007,
                1,
                0,
                0,
                -1,
                -1.62921e-007,
                0,
                -447.565,
                60.419,
                3.75001,
                1
            ],
            "meshes": [
                "Building3851-mesh"
            ],
            "name": "model_gridID_57_w379069957"
        },
        "model_gridID_57_w379069960": {
            "children": [],
            "matrix": [
                1,
                0,
                0,
                0,
                0,
                -1.62921e-007,
                1,
                0,
                0,
                -1,
                -1.62921e-007,
                0,
                -443.117,
                35.8485,
                3.75001,
                1
            ],
            "meshes": [
                "Building3843-mesh"
            ],
            "name": "model_gridID_57_w379069960"
        },
        "model_gridID_57_w379075764": {
            "children": [],
            "matrix": [
                1,
                0,
                0,
                0,
                0,
                -1.62921e-007,
                1,
                0,
                0,
                -1,
                -1.62921e-007,
                0,
                -488.333,
                56.6731,
                15.1714,
                1
            ],
            "meshes": [
                "Building3644-mesh"
            ],
            "name": "model_gridID_57_w379075764"
        },
        "model_gridID_57_w383809394": {
            "children": [],
            "matrix": [
                1,
                0,
                0,
                0,
                0,
                -1.62921e-007,
                1,
                0,
                0,
                -1,
                -1.62921e-007,
                0,
                -489.622,
                1.99745,
                15.1712,
                1
            ],
            "meshes": [
                "Building3360-mesh"
            ],
            "name": "model_gridID_57_w383809394"
        },
        "node_6": {
            "children": [
                "model_gridID_57_w379069947",
                "model_gridID_57_w379069955_001",
                "model_gridID_57_w379069957",
                "model_gridID_57_w379069960",
                "model_gridID_57_w379075764",
                "model_gridID_57_w383809394"
            ],
            "matrix": [
                1,
                0,
                0,
                0,
                0,
                0,
                -1,
                0,
                0,
                1,
                0,
                0,
                0,
                0,
                0,
                1
            ],
            "name": "Y_UP_Transform"
        }
    },
    "programs": {
        "program_0": {
            "attributes": [
                "a_normal",
                "a_position"
            ],
            "fragmentShader": "\\data\\ECNU\\workspace\\gridID_57\\gridID_570FS",
            "vertexShader": "\\data\\ECNU\\workspace\\gridID_57\\gridID_570VS"
        }
    },
    "scene": "defaultScene",
    "scenes": {
        "defaultScene": {
            "nodes": [
                "node_6"
            ]
        }
    },
    "shaders": {
        "\\data\\ECNU\\workspace\\gridID_57\\gridID_570FS": {
            "type": 35632,
            "uri": "data:text/plain;base64,"
        },
        "\\data\\ECNU\\workspace\\gridID_57\\gridID_570VS": {
            "type": 35633,
            "uri": "data:text/plain;base64,"
        }
    },
    "skins": {},
    "techniques": {
        "technique0": {
            "attributes": {
                "a_normal": "normal",
                "a_position": "position"
            },
            "parameters": {
                "ambient": {
                    "type": 35666
                },
                "diffuse": {
                    "type": 35666
                },
                "emission": {
                    "type": 35666
                },
                "modelViewMatrix": {
                    "semantic": "MODELVIEW",
                    "type": 35676
                },
                "normal": {
                    "semantic": "NORMAL",
                    "type": 35665
                },
                "normalMatrix": {
                    "semantic": "MODELVIEWINVERSETRANSPOSE",
                    "type": 35675
                },
                "position": {
                    "semantic": "POSITION",
                    "type": 35665
                },
                "projectionMatrix": {
                    "semantic": "PROJECTION",
                    "type": 35676
                },
                "shininess": {
                    "type": 5126
                },
                "specular": {
                    "type": 35666
                }
            },
            "program": "program_0",
            "states": {
                "enable": [
                    2929,
                    2884
                ]
            },
            "uniforms": {
                "u_ambient": "ambient",
                "u_diffuse": "diffuse",
                "u_emission": "emission",
                "u_modelViewMatrix": "modelViewMatrix",
                "u_normalMatrix": "normalMatrix",
                "u_projectionMatrix": "projectionMatrix",
                "u_shininess": "shininess",
                "u_specular": "specular"
            }
        }
    }
}