{"accessors":{"accessor_100":{"bufferView":"bufferView_203","byteOffset":10416,"byteStride":12,"componentType":5126,"count":32,"max":[0.999748,1,0.999733],"min":[-0.999748,-1,-0.999733],"type":"VEC3"},"accessor_116":{"bufferView":"bufferView_202","byteOffset":1320,"byteStride":0,"componentType":5123,"count":84,"type":"SCALAR"},"accessor_118":{"bufferView":"bufferView_203","byteOffset":10800,"byteStride":12,"componentType":5126,"count":56,"max":[44.314,10,-61.3808],"min":[27.7274,0,-73.0987],"type":"VEC3"},"accessor_120":{"bufferView":"bufferView_203","byteOffset":11472,"byteStride":12,"componentType":5126,"count":56,"max":[0.999996,1,1],"min":[-0.999998,-1,-0.999997],"type":"VEC3"},"accessor_136":{"bufferView":"bufferView_202","byteOffset":1488,"byteStride":0,"componentType":5123,"count":36,"type":"SCALAR"},"accessor_138":{"bufferView":"bufferView_203","byteOffset":12144,"byteStride":12,"componentType":5126,"count":28,"max":[69.3275,12,-17.4019],"min":[56.7706,0,-41.95],"type":"VEC3"},"accessor_140":{"bufferView":"bufferView_203","byteOffset":12480,"byteStride":12,"componentType":5126,"count":28,"max":[0.999985,1,0.999982],"min":[-0.999985,-1,-0.999988],"type":"VEC3"},"accessor_156":{"bufferView":"bufferView_202","byteOffset":1560,"byteStride":0,"componentType":5123,"count":156,"type":"SCALAR"},"accessor_158":{"bufferView":"bufferView_203","byteOffset":12816,"byteStride":12,"componentType":5126,"count":115,"max":[-5.15642,19,64.3382],"min":[-20.3293,0,-5.31333],"type":"VEC3"},"accessor_16":{"bufferView":"bufferView_202","byteOffset":0,"byteStride":0,"componentType":5123,"count":84,"type":"SCALAR"},"accessor_160":{"bufferView":"bufferView_203","byteOffset":14196,"byteStride":12,"componentType":5126,"count":115,"max":[0.999726,1,0.99985],"min":[-0.999743,-1,-0.999792],"type":"VEC3"},"accessor_176":{"bufferView":"bufferView_202","byteOffset":1872,"byteStride":0,"componentType":5123,"count":36,"type":"SCALAR"},"accessor_178":{"bufferView":"bufferView_203","byteOffset":15576,"byteStride":12,"componentType":5126,"count":32,"max":[50.225,10,-76.3001],"min":[26.5251,0,-88.055],"type":"VEC3"},"accessor_18":{"bufferView":"bufferView_203","byteOffset":0,"byteStride":12,"componentType":5126,"count":65,"max":[51.6833,9,-14.2253],"min":[41.0969,0,-42.2343],"type":"VEC3"},"accessor_180":{"bufferView":"bufferView_203","byteOffset":15960,"byteStride":12,"componentType":5126,"count":32,"max":[0.999978,1,0.999983],"min":[-0.999978,-1,-0.99998],"type":"VEC3"},"accessor_196":{"bufferView":"bufferView_202","byteOffset":1944,"byteStride":0,"componentType":5123,"count":156,"type":"SCALAR"},"accessor_198":{"bufferView":"bufferView_203","byteOffset":16344,"byteStride":12,"componentType":5126,"count":107,"max":[37.8797,11,-15.8939],"min":[23.6197,0,-39.6139],"type":"VEC3"},"accessor_20":{"bufferView":"bufferView_203","byteOffset":780,"byteStride":12,"componentType":5126,"count":65,"max":[0.999991,1,1],"min":[-0.99999,-1,-0.999986],"type":"VEC3"},"accessor_200":{"bufferView":"bufferView_203","byteOffset":17628,"byteStride":12,"componentType":5126,"count":107,"max":[0.999899,1,0.999883],"min":[-0.999906,-1,-0.999871],"type":"VEC3"},"accessor_36":{"bufferView":"bufferView_202","byteOffset":168,"byteStride":0,"componentType":5123,"count":36,"type":"SCALAR"},"accessor_38":{"bufferView":"bufferView_203","byteOffset":1560,"byteStride":12,"componentType":5126,"count":30,"max":[64.2736,12,-49.799],"min":[53.8986,0,-58.9582],"type":"VEC3"},"accessor_40":{"bufferView":"bufferView_203","byteOffset":1920,"byteStride":12,"componentType":5126,"count":30,"max":[0.999749,1,0.999734],"min":[-0.999748,-1,-0.999761],"type":"VEC3"},"accessor_56":{"bufferView":"bufferView_202","byteOffset":240,"byteStride":0,"componentType":5123,"count":36,"type":"SCALAR"},"accessor_58":{"bufferView":"bufferView_203","byteOffset":2280,"byteStride":12,"componentType":5126,"count":32,"max":[45.9281,11,-44.2491],"min":[28.2617,0,-55.0522],"type":"VEC3"},"accessor_60":{"bufferView":"bufferView_203","byteOffset":2664,"byteStride":12,"componentType":5126,"count":32,"max":[0.999981,1,0.999976],"min":[-0.999981,-1,-0.99998],"type":"VEC3"},"accessor_76":{"bufferView":"bufferView_202","byteOffset":312,"byteStride":0,"componentType":5123,"count":468,"type":"SCALAR"},"accessor_78":{"bufferView":"bufferView_203","byteOffset":3048,"byteStride":12,"componentType":5126,"count":291,"max":[69.1828,28,101.259],"min":[24.2542,0,13.0174],"type":"VEC3"},"accessor_80":{"bufferView":"bufferView_203","byteOffset":6540,"byteStride":12,"componentType":5126,"count":291,"max":[0.999841,1,0.999787],"min":[-0.999775,-1,-0.99975],"type":"VEC3"},"accessor_96":{"bufferView":"bufferView_202","byteOffset":1248,"byteStride":0,"componentType":5123,"count":36,"type":"SCALAR"},"accessor_98":{"bufferView":"bufferView_203","byteOffset":10032,"byteStride":12,"componentType":5126,"count":32,"max":[64.5073,11,-63.0742],"min":[54.1435,0,-72.2335],"type":"VEC3"},"accessor_b0":{"bufferView":"bufferView_b","byteOffset":0,"byteStride":0,"componentType":5123,"count":65,"type":"SCALAR"},"accessor_b1":{"bufferView":"bufferView_b","byteOffset":130,"byteStride":0,"componentType":5123,"count":30,"type":"SCALAR"},"accessor_b2":{"bufferView":"bufferView_b","byteOffset":190,"byteStride":0,"componentType":5123,"count":32,"type":"SCALAR"},"accessor_b3":{"bufferView":"bufferView_b","byteOffset":254,"byteStride":0,"componentType":5123,"count":291,"type":"SCALAR"},"accessor_b4":{"bufferView":"bufferView_b","byteOffset":836,"byteStride":0,"componentType":5123,"count":32,"type":"SCALAR"},"accessor_b5":{"bufferView":"bufferView_b","byteOffset":900,"byteStride":0,"componentType":5123,"count":56,"type":"SCALAR"},"accessor_b6":{"bufferView":"bufferView_b","byteOffset":1012,"byteStride":0,"componentType":5123,"count":28,"type":"SCALAR"},"accessor_b7":{"bufferView":"bufferView_b","byteOffset":1068,"byteStride":0,"componentType":5123,"count":115,"type":"SCALAR"},"accessor_b8":{"bufferView":"bufferView_b","byteOffset":1298,"byteStride":0,"componentType":5123,"count":32,"type":"SCALAR"},"accessor_b9":{"bufferView":"bufferView_b","byteOffset":1362,"byteStride":0,"componentType":5123,"count":107,"type":"SCALAR"}},"animations":{},"asset":{"generator":"collada2gltf@cf6371beb0bdc18ba603378d5e40c966da53d385","premultipliedAlpha":true,"profile":{"api":"WebGL","version":"1.0.2"},"version":"1.0"},"bufferViews":{"bufferView_202":{"buffer":"\\data\\3dcity\\miami\\workspace\\gridID_33\\gridID_33","byteLength":2256,"byteOffset":0,"target":34963},"bufferView_203":{"buffer":"\\data\\3dcity\\miami\\workspace\\gridID_33\\gridID_33","byteLength":18912,"byteOffset":2256,"target":34962},"bufferView_b":{"buffer":"buffer_b","byteLength":1576,"byteOffset":0,"target":34962}},"buffers":{"\\data\\3dcity\\miami\\workspace\\gridID_33\\gridID_33":{"byteLength":21168,"type":"arraybuffer","uri":"data:application/octet-stream;base64,"},"buffer_b":{"type":"arraybuffer","byteLength":1576,"uri":"data:application/octet-stream;base64,"}},"materials":{"CityEngineMaterial_396-effect":{"name":"CityEngineMaterial_396","technique":"technique0","values":{"ambient":[1,1,1,1],"diffuse":[1,1,1,1],"emission":[0,0,0,1],"shininess":50,"specular":[0.5,0.5,0.5,1]}},"CityEngineMaterial_397-effect":{"name":"CityEngineMaterial_397","technique":"technique0","values":{"ambient":[1,1,1,1],"diffuse":[1,1,1,1],"emission":[0,0,0,1],"shininess":50,"specular":[0.5,0.5,0.5,1]}},"CityEngineMaterial_398-effect":{"name":"CityEngineMaterial_398","technique":"technique0","values":{"ambient":[1,1,1,1],"diffuse":[1,1,1,1],"emission":[0,0,0,1],"shininess":50,"specular":[0.5,0.5,0.5,1]}},"CityEngineMaterial_399-effect":{"name":"CityEngineMaterial_399","technique":"technique0","values":{"ambient":[1,1,1,1],"diffuse":[1,1,1,1],"emission":[0,0,0,1],"shininess":50,"specular":[0.5,0.5,0.5,1]}},"CityEngineMaterial_400-effect":{"name":"CityEngineMaterial_400","technique":"technique0","values":{"ambient":[1,1,1,1],"diffuse":[1,1,1,1],"emission":[0,0,0,1],"shininess":50,"specular":[0.5,0.5,0.5,1]}},"CityEngineMaterial_401-effect":{"name":"CityEngineMaterial_401","technique":"technique0","values":{"ambient":[1,1,1,1],"diffuse":[1,1,1,1],"emission":[0,0,0,1],"shininess":50,"specular":[0.5,0.5,0.5,1]}},"CityEngineMaterial_402-effect":{"name":"CityEngineMaterial_402","technique":"technique0","values":{"ambient":[1,1,1,1],"diffuse":[1,1,1,1],"emission":[0,0,0,1],"shininess":50,"specular":[0.5,0.5,0.5,1]}},"CityEngineMaterial_403-effect":{"name":"CityEngineMaterial_403","technique":"technique0","values":{"ambient":[1,1,1,1],"diffuse":[1,1,1,1],"emission":[0,0,0,1],"shininess":50,"specular":[0.5,0.5,0.5,1]}},"CityEngineMaterial_404-effect":{"name":"CityEngineMaterial_404","technique":"technique0","values":{"ambient":[1,1,1,1],"diffuse":[1,1,1,1],"emission":[0,0,0,1],"shininess":50,"specular":[0.5,0.5,0.5,1]}},"CityEngineMaterial_405-effect":{"name":"CityEngineMaterial_405","technique":"technique0","values":{"ambient":[1,1,1,1],"diffuse":[1,1,1,1],"emission":[0,0,0,1],"shininess":50,"specular":[0.5,0.5,0.5,1]}}},"meshes":{"mesh_CityEngineMaterial_394-mesh":{"name":"mesh_CityEngineMaterial.394","primitives":[{"attributes":{"NORMAL":"accessor_20","POSITION":"accessor_18","BATCHID":"accessor_b0"},"indices":"accessor_16","material":"CityEngineMaterial_396-effect","mode":4}]},"mesh_CityEngineMaterial_395-mesh":{"name":"mesh_CityEngineMaterial.395","primitives":[{"attributes":{"NORMAL":"accessor_40","POSITION":"accessor_38","BATCHID":"accessor_b1"},"indices":"accessor_36","material":"CityEngineMaterial_397-effect","mode":4}]},"mesh_CityEngineMaterial_396-mesh":{"name":"mesh_CityEngineMaterial.396","primitives":[{"attributes":{"NORMAL":"accessor_60","POSITION":"accessor_58","BATCHID":"accessor_b2"},"indices":"accessor_56","material":"CityEngineMaterial_398-effect","mode":4}]},"mesh_CityEngineMaterial_397-mesh":{"name":"mesh_CityEngineMaterial.397","primitives":[{"attributes":{"NORMAL":"accessor_80","POSITION":"accessor_78","BATCHID":"accessor_b3"},"indices":"accessor_76","material":"CityEngineMaterial_399-effect","mode":4}]},"mesh_CityEngineMaterial_398-mesh":{"name":"mesh_CityEngineMaterial.398","primitives":[{"attributes":{"NORMAL":"accessor_100","POSITION":"accessor_98","BATCHID":"accessor_b4"},"indices":"accessor_96","material":"CityEngineMaterial_400-effect","mode":4}]},"mesh_CityEngineMaterial_399-mesh":{"name":"mesh_CityEngineMaterial.399","primitives":[{"attributes":{"NORMAL":"accessor_120","POSITION":"accessor_118","BATCHID":"accessor_b5"},"indices":"accessor_116","material":"CityEngineMaterial_401-effect","mode":4}]},"mesh_CityEngineMaterial_400-mesh":{"name":"mesh_CityEngineMaterial.400","primitives":[{"attributes":{"NORMAL":"accessor_140","POSITION":"accessor_138","BATCHID":"accessor_b6"},"indices":"accessor_136","material":"CityEngineMaterial_402-effect","mode":4}]},"mesh_CityEngineMaterial_401-mesh":{"name":"mesh_CityEngineMaterial.401","primitives":[{"attributes":{"NORMAL":"accessor_160","POSITION":"accessor_158","BATCHID":"accessor_b7"},"indices":"accessor_156","material":"CityEngineMaterial_403-effect","mode":4}]},"mesh_CityEngineMaterial_402-mesh":{"name":"mesh_CityEngineMaterial.402","primitives":[{"attributes":{"NORMAL":"accessor_180","POSITION":"accessor_178","BATCHID":"accessor_b8"},"indices":"accessor_176","material":"CityEngineMaterial_404-effect","mode":4}]},"mesh_CityEngineMaterial_403-mesh":{"name":"mesh_CityEngineMaterial.403","primitives":[{"attributes":{"NORMAL":"accessor_200","POSITION":"accessor_198","BATCHID":"accessor_b9"},"indices":"accessor_196","material":"CityEngineMaterial_405-effect","mode":4}]}},"nodes":{"CityEngineMaterial":{"children":[],"matrix":[1,0,0,0,0,-1.62921e-7,1,0,0,-1,-1.62921e-7,0,0,0,0,1],"meshes":["mesh_CityEngineMaterial_394-mesh"],"name":"CityEngineMaterial"},"CityEngineMaterial_001":{"children":[],"matrix":[1,0,0,0,0,-1.62921e-7,1,0,0,-1,-1.62921e-7,0,0,0,0,1],"meshes":["mesh_CityEngineMaterial_395-mesh"],"name":"CityEngineMaterial_001"},"CityEngineMaterial_002":{"children":[],"matrix":[1,0,0,0,0,-1.62921e-7,1,0,0,-1,-1.62921e-7,0,0,0,0,1],"meshes":["mesh_CityEngineMaterial_396-mesh"],"name":"CityEngineMaterial_002"},"CityEngineMaterial_003":{"children":[],"matrix":[1,0,0,0,0,-1.62921e-7,1,0,0,-1,-1.62921e-7,0,0,0,0,1],"meshes":["mesh_CityEngineMaterial_397-mesh"],"name":"CityEngineMaterial_003"},"CityEngineMaterial_004":{"children":[],"matrix":[1,0,0,0,0,-1.62921e-7,1,0,0,-1,-1.62921e-7,0,0,0,0,1],"meshes":["mesh_CityEngineMaterial_398-mesh"],"name":"CityEngineMaterial_004"},"CityEngineMaterial_005":{"children":[],"matrix":[1,0,0,0,0,-1.62921e-7,1,0,0,-1,-1.62921e-7,0,0,0,0,1],"meshes":["mesh_CityEngineMaterial_399-mesh"],"name":"CityEngineMaterial_005"},"CityEngineMaterial_006":{"children":[],"matrix":[1,0,0,0,0,-1.62921e-7,1,0,0,-1,-1.62921e-7,0,0,0,0,1],"meshes":["mesh_CityEngineMaterial_400-mesh"],"name":"CityEngineMaterial_006"},"CityEngineMaterial_007":{"children":[],"matrix":[1,0,0,0,0,-1.62921e-7,1,0,0,-1,-1.62921e-7,0,0,0,0,1],"meshes":["mesh_CityEngineMaterial_401-mesh"],"name":"CityEngineMaterial_007"},"CityEngineMaterial_008":{"children":[],"matrix":[1,0,0,0,0,-1.62921e-7,1,0,0,-1,-1.62921e-7,0,0,0,0,1],"meshes":["mesh_CityEngineMaterial_402-mesh"],"name":"CityEngineMaterial_008"},"CityEngineMaterial_009":{"children":[],"matrix":[1,0,0,0,0,-1.62921e-7,1,0,0,-1,-1.62921e-7,0,0,0,0,1],"meshes":["mesh_CityEngineMaterial_403-mesh"],"name":"CityEngineMaterial_009"},"node_10":{"children":["CityEngineMaterial","CityEngineMaterial_001","CityEngineMaterial_002","CityEngineMaterial_003","CityEngineMaterial_004","CityEngineMaterial_005","CityEngineMaterial_006","CityEngineMaterial_007","CityEngineMaterial_008","CityEngineMaterial_009"],"matrix":[1,0,0,0,0,0,-1,0,0,1,0,0,0,0,0,1],"name":"Y_UP_Transform"}},"programs":{"program_0":{"attributes":["a_normal","a_position","a_batchId"],"fragmentShader":"\\data\\3dcity\\miami\\workspace\\gridID_33\\gridID_330FS","vertexShader":"\\data\\3dcity\\miami\\workspace\\gridID_33\\gridID_330VS"}},"scene":"defaultScene","scenes":{"defaultScene":{"nodes":["node_10"]}},"shaders":{"\\data\\3dcity\\miami\\workspace\\gridID_33\\gridID_330FS":{"type":35632,"uri":"data:text/plain;base64,"},"\\data\\3dcity\\miami\\workspace\\gridID_33\\gridID_330VS":{"type":35633,"uri":"data:text/plain;base64,"}},"skins":{},"techniques":{"technique0":{"attributes":{"a_normal":"normal","a_position":"position","a_batchId":"batchId"},"parameters":{"ambient":{"type":35666},"diffuse":{"type":35666},"emission":{"type":35666},"modelViewMatrix":{"semantic":"MODELVIEW","type":35676},"normal":{"semantic":"NORMAL","type":35665},"normalMatrix":{"semantic":"MODELVIEWINVERSETRANSPOSE","type":35675},"position":{"semantic":"POSITION","type":35665},"projectionMatrix":{"semantic":"PROJECTION","type":35676},"shininess":{"type":5126},"specular":{"type":35666},"batchId":{"semantic":"BATCHID","type":5126}},"program":"program_0","states":{"enable":[2929,2884]},"uniforms":{"u_ambient":"ambient","u_diffuse":"diffuse","u_emission":"emission","u_modelViewMatrix":"modelViewMatrix","u_normalMatrix":"normalMatrix","u_projectionMatrix":"projectionMatrix","u_shininess":"shininess","u_specular":"specular"}}}}