{
    "accessors": {
        "accessor_101": {
            "bufferView": "bufferView_107",
            "byteOffset": 168,
            "byteStride": 0,
            "componentType": 5123,
            "count": 6,
            "type": "SCALAR"
        },
        "accessor_103": {
            "bufferView": "bufferView_108",
            "byteOffset": 960,
            "byteStride": 12,
            "componentType": 5126,
            "count": 20,
            "max": [
                13.193,
                3.75,
                3.5845
            ],
            "min": [
                -13.193,
                -3.75,
                -3.5845
            ],
            "type": "VEC3"
        },
        "accessor_105": {
            "bufferView": "bufferView_108",
            "byteOffset": 1200,
            "byteStride": 12,
            "componentType": 5126,
            "count": 20,
            "max": [
                0.999986,
                1,
                0.999987
            ],
            "min": [
                -0.999986,
                0,
                -0.999987
            ],
            "type": "VEC3"
        },
        "accessor_28": {
            "bufferView": "bufferView_107",
            "byteOffset": 60,
            "byteStride": 0,
            "componentType": 5123,
            "count": 24,
            "type": "SCALAR"
        },
        "accessor_31": {
            "bufferView": "bufferView_107",
            "byteOffset": 108,
            "byteStride": 0,
            "componentType": 5123,
            "count": 6,
            "type": "SCALAR"
        },
        "accessor_33": {
            "bufferView": "bufferView_108",
            "byteOffset": 480,
            "byteStride": 12,
            "componentType": 5126,
            "count": 20,
            "max": [
                17.9479,
                20,
                6.42847
            ],
            "min": [
                -17.9481,
                -20,
                -6.42853
            ],
            "type": "VEC3"
        },
        "accessor_35": {
            "bufferView": "bufferView_108",
            "byteOffset": 720,
            "byteStride": 12,
            "componentType": 5126,
            "count": 20,
            "max": [
                1,
                1,
                1
            ],
            "min": [
                -1,
                0,
                -1
            ],
            "type": "VEC3"
        },
        "accessor_63": {
            "bufferView": "bufferView_107",
            "byteOffset": 0,
            "byteStride": 0,
            "componentType": 5123,
            "count": 24,
            "type": "SCALAR"
        },
        "accessor_66": {
            "bufferView": "bufferView_107",
            "byteOffset": 48,
            "byteStride": 0,
            "componentType": 5123,
            "count": 6,
            "type": "SCALAR"
        },
        "accessor_68": {
            "bufferView": "bufferView_108",
            "byteOffset": 0,
            "byteStride": 12,
            "componentType": 5126,
            "count": 20,
            "max": [
                17.9485,
                20,
                6.4285
            ],
            "min": [
                -17.9485,
                -20,
                -6.4285
            ],
            "type": "VEC3"
        },
        "accessor_70": {
            "bufferView": "bufferView_108",
            "byteOffset": 240,
            "byteStride": 12,
            "componentType": 5126,
            "count": 20,
            "max": [
                1,
                1,
                1
            ],
            "min": [
                -1,
                0,
                -1
            ],
            "type": "VEC3"
        },
        "accessor_98": {
            "bufferView": "bufferView_107",
            "byteOffset": 120,
            "byteStride": 0,
            "componentType": 5123,
            "count": 24,
            "type": "SCALAR"
        }
    },
    "animations": {},
    "asset": {
        "generator": "collada2gltf@cf6371beb0bdc18ba603378d5e40c966da53d385",
        "premultipliedAlpha": true,
        "profile": {
            "api": "WebGL",
            "version": "1.0.2"
        },
        "version": "1.0"
    },
    "bufferViews": {
        "bufferView_107": {
            "buffer": "\\data\\ECNU\\workspace\\gridID_13\\gridID_13",
            "byteLength": 180,
            "byteOffset": 0,
            "target": 34963
        },
        "bufferView_108": {
            "buffer": "\\data\\ECNU\\workspace\\gridID_13\\gridID_13",
            "byteLength": 1440,
            "byteOffset": 180,
            "target": 34962
        }
    },
    "buffers": {
        "\\data\\ECNU\\workspace\\gridID_13\\gridID_13": {
            "byteLength": 1620,
            "type": "arraybuffer",
            "uri": "data:application/octet-stream;base64,"
        }
    },
    "materials": {
        "BUILDING_DEFAULT_0-effect": {
            "name": "BUILDING_DEFAULT_0",
            "technique": "technique0",
            "values": {
                "ambient": [
                    0,
                    0,
                    0,
                    1
                ],
                "diffuse": [
                    0.723055,
                    0.708376,
                    0.672443,
                    1
                ],
                "emission": [
                    0,
                    0,
                    0,
                    1
                ],
                "shininess": 50,
                "specular": [
                    0.5,
                    0.5,
                    0.5,
                    1
                ]
            }
        },
        "ROOF_DEFAULT_0-effect": {
            "name": "ROOF_DEFAULT_0",
            "technique": "technique0",
            "values": {
                "ambient": [
                    0,
                    0,
                    0,
                    1
                ],
                "diffuse": [
                    0.603827,
                    0.381326,
                    0.291771,
                    1
                ],
                "emission": [
                    0,
                    0,
                    0,
                    1
                ],
                "shininess": 50,
                "specular": [
                    0.5,
                    0.5,
                    0.5,
                    1
                ]
            }
        }
    },
    "meshes": {
        "Building3322-mesh": {
            "name": "Building3322",
            "primitives": [
                {
                    "attributes": {
                        "NORMAL": "accessor_70",
                        "POSITION": "accessor_68"
                    },
                    "indices": "accessor_63",
                    "material": "BUILDING_DEFAULT_0-effect",
                    "mode": 4
                },
                {
                    "attributes": {
                        "NORMAL": "accessor_70",
                        "POSITION": "accessor_68"
                    },
                    "indices": "accessor_66",
                    "material": "ROOF_DEFAULT_0-effect",
                    "mode": 4
                }
            ]
        },
        "Building3323-mesh": {
            "name": "Building3323",
            "primitives": [
                {
                    "attributes": {
                        "NORMAL": "accessor_35",
                        "POSITION": "accessor_33"
                    },
                    "indices": "accessor_28",
                    "material": "BUILDING_DEFAULT_0-effect",
                    "mode": 4
                },
                {
                    "attributes": {
                        "NORMAL": "accessor_35",
                        "POSITION": "accessor_33"
                    },
                    "indices": "accessor_31",
                    "material": "ROOF_DEFAULT_0-effect",
                    "mode": 4
                }
            ]
        },
        "Building3664-mesh": {
            "name": "Building3664",
            "primitives": [
                {
                    "attributes": {
                        "NORMAL": "accessor_105",
                        "POSITION": "accessor_103"
                    },
                    "indices": "accessor_98",
                    "material": "BUILDING_DEFAULT_0-effect",
                    "mode": 4
                },
                {
                    "attributes": {
                        "NORMAL": "accessor_105",
                        "POSITION": "accessor_103"
                    },
                    "indices": "accessor_101",
                    "material": "ROOF_DEFAULT_0-effect",
                    "mode": 4
                }
            ]
        }
    },
    "nodes": {
        "model_gridID_13_w389371674": {
            "children": [],
            "matrix": [
                1,
                0,
                0,
                0,
                0,
                -1.62921e-007,
                1,
                0,
                0,
                -1,
                -1.62921e-007,
                0,
                -560.932,
                -405.869,
                19.9999,
                1
            ],
            "meshes": [
                "Building3323-mesh"
            ],
            "name": "model_gridID_13_w389371674"
        },
        "model_gridID_13_w389371674_001": {
            "children": [],
            "matrix": [
                1,
                0,
                0,
                0,
                0,
                -1.62921e-007,
                1,
                0,
                0,
                -1,
                -1.62921e-007,
                0,
                -523.931,
                -405.868,
                19.9999,
                1
            ],
            "meshes": [
                "Building3322-mesh"
            ],
            "name": "model_gridID_13_w389371674_001"
        },
        "model_gridID_13_w390045135": {
            "children": [],
            "matrix": [
                1,
                0,
                0,
                0,
                0,
                -1.62921e-007,
                1,
                0,
                0,
                -1,
                -1.62921e-007,
                0,
                -572.15,
                -358.766,
                3.74994,
                1
            ],
            "meshes": [
                "Building3664-mesh"
            ],
            "name": "model_gridID_13_w390045135"
        },
        "node_3": {
            "children": [
                "model_gridID_13_w389371674",
                "model_gridID_13_w389371674_001",
                "model_gridID_13_w390045135"
            ],
            "matrix": [
                1,
                0,
                0,
                0,
                0,
                0,
                -1,
                0,
                0,
                1,
                0,
                0,
                0,
                0,
                0,
                1
            ],
            "name": "Y_UP_Transform"
        }
    },
    "programs": {
        "program_0": {
            "attributes": [
                "a_normal",
                "a_position"
            ],
            "fragmentShader": "\\data\\ECNU\\workspace\\gridID_13\\gridID_130FS",
            "vertexShader": "\\data\\ECNU\\workspace\\gridID_13\\gridID_130VS"
        }
    },
    "scene": "defaultScene",
    "scenes": {
        "defaultScene": {
            "nodes": [
                "node_3"
            ]
        }
    },
    "shaders": {
        "\\data\\ECNU\\workspace\\gridID_13\\gridID_130FS": {
            "type": 35632,
            "uri": "data:text/plain;base64,"
        },
        "\\data\\ECNU\\workspace\\gridID_13\\gridID_130VS": {
            "type": 35633,
            "uri": "data:text/plain;base64,"
        }
    },
    "skins": {},
    "techniques": {
        "technique0": {
            "attributes": {
                "a_normal": "normal",
                "a_position": "position"
            },
            "parameters": {
                "ambient": {
                    "type": 35666
                },
                "diffuse": {
                    "type": 35666
                },
                "emission": {
                    "type": 35666
                },
                "modelViewMatrix": {
                    "semantic": "MODELVIEW",
                    "type": 35676
                },
                "normal": {
                    "semantic": "NORMAL",
                    "type": 35665
                },
                "normalMatrix": {
                    "semantic": "MODELVIEWINVERSETRANSPOSE",
                    "type": 35675
                },
                "position": {
                    "semantic": "POSITION",
                    "type": 35665
                },
                "projectionMatrix": {
                    "semantic": "PROJECTION",
                    "type": 35676
                },
                "shininess": {
                    "type": 5126
                },
                "specular": {
                    "type": 35666
                }
            },
            "program": "program_0",
            "states": {
                "enable": [
                    2929,
                    2884
                ]
            },
            "uniforms": {
                "u_ambient": "ambient",
                "u_diffuse": "diffuse",
                "u_emission": "emission",
                "u_modelViewMatrix": "modelViewMatrix",
                "u_normalMatrix": "normalMatrix",
                "u_projectionMatrix": "projectionMatrix",
                "u_shininess": "shininess",
                "u_specular": "specular"
            }
        }
    }
}