{"accessors":{"accessor_16":{"bufferView":"bufferView_82","byteOffset":0,"byteStride":0,"componentType":5123,"count":510,"type":"SCALAR"},"accessor_18":{"bufferView":"bufferView_83","byteOffset":0,"byteStride":12,"componentType":5126,"count":459,"max":[55.7893,-42.1501,68.1117],"min":[2.82275,-116.056,2.52219],"type":"VEC3"},"accessor_20":{"bufferView":"bufferView_83","byteOffset":5508,"byteStride":12,"componentType":5126,"count":459,"max":[0.999709,0.983637,1],"min":[-0.999752,-0.983633,0],"type":"VEC3"},"accessor_36":{"bufferView":"bufferView_82","byteOffset":1020,"byteStride":0,"componentType":5123,"count":771,"type":"SCALAR"},"accessor_38":{"bufferView":"bufferView_83","byteOffset":11016,"byteStride":12,"componentType":5126,"count":701,"max":[49.4002,-31.2121,66.3338],"min":[-57.718,-120.599,0.866016],"type":"VEC3"},"accessor_40":{"bufferView":"bufferView_83","byteOffset":19428,"byteStride":12,"componentType":5126,"count":701,"max":[0.979918,0.973032,1],"min":[-0.973588,-0.998453,-1],"type":"VEC3"},"accessor_56":{"bufferView":"bufferView_82","byteOffset":2562,"byteStride":0,"componentType":5123,"count":1944,"type":"SCALAR"},"accessor_58":{"bufferView":"bufferView_83","byteOffset":27840,"byteStride":12,"componentType":5126,"count":1714,"max":[91.4984,83.6652,47.6973],"min":[-52.2192,-11.3257,1.9747],"type":"VEC3"},"accessor_60":{"bufferView":"bufferView_83","byteOffset":48408,"byteStride":12,"componentType":5126,"count":1714,"max":[0.994687,0.997206,1],"min":[-0.996588,-0.994604,-1],"type":"VEC3"},"accessor_76":{"bufferView":"bufferView_82","byteOffset":6450,"byteStride":0,"componentType":5123,"count":1446,"type":"SCALAR"},"accessor_78":{"bufferView":"bufferView_83","byteOffset":68976,"byteStride":12,"componentType":5126,"count":1262,"max":[76.9045,9.87946,15.6405],"min":[50.4636,-21.2623,2.67013],"type":"VEC3"},"accessor_80":{"bufferView":"bufferView_83","byteOffset":84120,"byteStride":12,"componentType":5126,"count":1262,"max":[0.972988,0.972418,1],"min":[-0.972988,-0.972418,0],"type":"VEC3"},"accessor_b0":{"bufferView":"bufferView_b","byteOffset":0,"byteStride":0,"componentType":5123,"count":459,"type":"SCALAR"},"accessor_b1":{"bufferView":"bufferView_b","byteOffset":918,"byteStride":0,"componentType":5123,"count":701,"type":"SCALAR"},"accessor_b2":{"bufferView":"bufferView_b","byteOffset":2320,"byteStride":0,"componentType":5123,"count":1714,"type":"SCALAR"},"accessor_b3":{"bufferView":"bufferView_b","byteOffset":5748,"byteStride":0,"componentType":5123,"count":1262,"type":"SCALAR"}},"animations":{},"asset":{"generator":"collada2gltf@cf6371beb0bdc18ba603378d5e40c966da53d385","premultipliedAlpha":true,"profile":{"api":"WebGL","version":"1.0.2"},"version":"1.0"},"bufferViews":{"bufferView_82":{"buffer":"\\data\\3dcity\\miami\\workspace\\gridID_66\\gridID_66_high","byteLength":9344,"byteOffset":0,"target":34963},"bufferView_83":{"buffer":"\\data\\3dcity\\miami\\workspace\\gridID_66\\gridID_66_high","byteLength":99264,"byteOffset":9344,"target":34962},"bufferView_b":{"buffer":"buffer_b","byteLength":8272,"byteOffset":0,"target":34962}},"buffers":{"\\data\\3dcity\\miami\\workspace\\gridID_66\\gridID_66_high":{"byteLength":108608,"type":"arraybuffer","uri":"data:application/octet-stream;base64,"},"buffer_b":{"type":"arraybuffer","byteLength":8272,"uri":"data:application/octet-stream;base64,"}},"materials":{"__glTF__defaultMaterial0":{"name":"__glTF__defaultMaterial0","technique":"technique0","values":{"diffuse":[1,1,1,1]}}},"meshes":{"multipatch_footprint_421-mesh":{"name":"multipatch_footprint.421","primitives":[{"attributes":{"NORMAL":"accessor_20","POSITION":"accessor_18","BATCHID":"accessor_b0"},"indices":"accessor_16","material":"__glTF__defaultMaterial0","mode":4}]},"multipatch_footprint_460-mesh":{"name":"multipatch_footprint.460","primitives":[{"attributes":{"NORMAL":"accessor_40","POSITION":"accessor_38","BATCHID":"accessor_b1"},"indices":"accessor_36","material":"__glTF__defaultMaterial0","mode":4}]},"multipatch_footprint_462-mesh":{"name":"multipatch_footprint.462","primitives":[{"attributes":{"NORMAL":"accessor_60","POSITION":"accessor_58","BATCHID":"accessor_b2"},"indices":"accessor_56","material":"__glTF__defaultMaterial0","mode":4}]},"multipatch_footprint_465-mesh":{"name":"multipatch_footprint.465","primitives":[{"attributes":{"NORMAL":"accessor_80","POSITION":"accessor_78","BATCHID":"accessor_b3"},"indices":"accessor_76","material":"__glTF__defaultMaterial0","mode":4}]}},"nodes":{"gridID_66_w300224535_join":{"children":[],"matrix":[1,0,0,0,0,1,0,0,0,0,1,0,0.000366211,0.000335693,0,1],"meshes":["multipatch_footprint_421-mesh"],"name":"gridID_66_w300224535_join"},"gridID_66_w300224538_join":{"children":[],"matrix":[1,0,0,0,0,1,0,0,0,0,1,0,0.000366211,0.000335693,0,1],"meshes":["multipatch_footprint_460-mesh"],"name":"gridID_66_w300224538_join"},"gridID_66_w436031497_join":{"children":[],"matrix":[1,0,0,0,0,1,0,0,0,0,1,0,0.000366211,0.000335693,0,1],"meshes":["multipatch_footprint_462-mesh"],"name":"gridID_66_w436031497_join"},"gridID_66_w436109887_join":{"children":[],"matrix":[1,0,0,0,0,1,0,0,0,0,1,0,0.000366211,0.000335693,0,1],"meshes":["multipatch_footprint_465-mesh"],"name":"gridID_66_w436109887_join"},"node_4":{"children":["gridID_66_w300224535_join","gridID_66_w300224538_join","gridID_66_w436031497_join","gridID_66_w436109887_join"],"matrix":[1,0,0,0,0,0,-1,0,0,1,0,0,0,0,0,1],"name":"Y_UP_Transform"}},"programs":{"program_0":{"attributes":["a_normal","a_position","a_batchId"],"fragmentShader":"\\data\\3dcity\\miami\\workspace\\gridID_66\\gridID_66_high0FS","vertexShader":"\\data\\3dcity\\miami\\workspace\\gridID_66\\gridID_66_high0VS"}},"scene":"defaultScene","scenes":{"defaultScene":{"nodes":["node_4"]}},"shaders":{"\\data\\3dcity\\miami\\workspace\\gridID_66\\gridID_66_high0FS":{"type":35632,"uri":"data:text/plain;base64,"},"\\data\\3dcity\\miami\\workspace\\gridID_66\\gridID_66_high0VS":{"type":35633,"uri":"data:text/plain;base64,"}},"skins":{},"techniques":{"technique0":{"attributes":{"a_normal":"normal","a_position":"position","a_batchId":"batchId"},"parameters":{"diffuse":{"type":35666},"modelViewMatrix":{"semantic":"MODELVIEW","type":35676},"normal":{"semantic":"NORMAL","type":35665},"normalMatrix":{"semantic":"MODELVIEWINVERSETRANSPOSE","type":35675},"position":{"semantic":"POSITION","type":35665},"projectionMatrix":{"semantic":"PROJECTION","type":35676},"batchId":{"semantic":"BATCHID","type":5126}},"program":"program_0","states":{"enable":[2929,2884]},"uniforms":{"u_diffuse":"diffuse","u_modelViewMatrix":"modelViewMatrix","u_normalMatrix":"normalMatrix","u_projectionMatrix":"projectionMatrix"}}}}