{
    "accessors": {
        "accessor_16": {
            "bufferView": "bufferView_22",
            "byteOffset": 0,
            "byteStride": 0,
            "componentType": 5123,
            "count": 84,
            "type": "SCALAR"
        },
        "accessor_18": {
            "bufferView": "bufferView_23",
            "byteOffset": 0,
            "byteStride": 12,
            "componentType": 5126,
            "count": 66,
            "max": [
                47.6593,
                70,
                70.1557
            ],
            "min": [
                -4.74988,
                0,
                -0.975649
            ],
            "type": "VEC3"
        },
        "accessor_20": {
            "bufferView": "bufferView_23",
            "byteOffset": 792,
            "byteStride": 12,
            "componentType": 5126,
            "count": 66,
            "max": [
                0.801062,
                1,
                0.800779
            ],
            "min": [
                -0.801329,
                -1,
                -0.800903
            ],
            "type": "VEC3"
        }
    },
    "animations": {},
    "asset": {
        "generator": "collada2gltf@cf6371beb0bdc18ba603378d5e40c966da53d385",
        "premultipliedAlpha": true,
        "profile": {
            "api": "WebGL",
            "version": "1.0.2"
        },
        "version": "1.0"
    },
    "bufferViews": {
        "bufferView_22": {
            "buffer": "\\data\\3dcity\\miami\\workspace\\gridID_5\\gridID_5",
            "byteLength": 168,
            "byteOffset": 0,
            "target": 34963
        },
        "bufferView_23": {
            "buffer": "\\data\\3dcity\\miami\\workspace\\gridID_5\\gridID_5",
            "byteLength": 1584,
            "byteOffset": 168,
            "target": 34962
        }
    },
    "buffers": {
        "\\data\\3dcity\\miami\\workspace\\gridID_5\\gridID_5": {
            "byteLength": 1752,
            "type": "arraybuffer",
            "uri": "data:application/octet-stream;base64,"
        }
    },
    "materials": {
        "CityEngineMaterial_300-effect": {
            "name": "CityEngineMaterial_300",
            "technique": "technique0",
            "values": {
                "ambient": [
                    1,
                    1,
                    1,
                    1
                ],
                "diffuse": [
                    1,
                    1,
                    1,
                    1
                ],
                "emission": [
                    0,
                    0,
                    0,
                    1
                ],
                "shininess": 50,
                "specular": [
                    0.5,
                    0.5,
                    0.5,
                    1
                ]
            }
        }
    },
    "meshes": {
        "mesh_CityEngineMaterial_300-mesh": {
            "name": "mesh_CityEngineMaterial.300",
            "primitives": [
                {
                    "attributes": {
                        "NORMAL": "accessor_20",
                        "POSITION": "accessor_18"
                    },
                    "indices": "accessor_16",
                    "material": "CityEngineMaterial_300-effect",
                    "mode": 4
                }
            ]
        }
    },
    "nodes": {
        "CityEngineMaterial": {
            "children": [],
            "matrix": [
                1,
                0,
                0,
                0,
                0,
                -1.62921e-007,
                1,
                0,
                0,
                -1,
                -1.62921e-007,
                0,
                0,
                0,
                0,
                1
            ],
            "meshes": [
                "mesh_CityEngineMaterial_300-mesh"
            ],
            "name": "CityEngineMaterial"
        },
        "node_1": {
            "children": [
                "CityEngineMaterial"
            ],
            "matrix": [
                1,
                0,
                0,
                0,
                0,
                0,
                -1,
                0,
                0,
                1,
                0,
                0,
                0,
                0,
                0,
                1
            ],
            "name": "Y_UP_Transform"
        }
    },
    "programs": {
        "program_0": {
            "attributes": [
                "a_normal",
                "a_position"
            ],
            "fragmentShader": "\\data\\3dcity\\miami\\workspace\\gridID_5\\gridID_50FS",
            "vertexShader": "\\data\\3dcity\\miami\\workspace\\gridID_5\\gridID_50VS"
        }
    },
    "scene": "defaultScene",
    "scenes": {
        "defaultScene": {
            "nodes": [
                "node_1"
            ]
        }
    },
    "shaders": {
        "\\data\\3dcity\\miami\\workspace\\gridID_5\\gridID_50FS": {
            "type": 35632,
            "uri": "data:text/plain;base64,"
        },
        "\\data\\3dcity\\miami\\workspace\\gridID_5\\gridID_50VS": {
            "type": 35633,
            "uri": "data:text/plain;base64,"
        }
    },
    "skins": {},
    "techniques": {
        "technique0": {
            "attributes": {
                "a_normal": "normal",
                "a_position": "position"
            },
            "parameters": {
                "ambient": {
                    "type": 35666
                },
                "diffuse": {
                    "type": 35666
                },
                "emission": {
                    "type": 35666
                },
                "modelViewMatrix": {
                    "semantic": "MODELVIEW",
                    "type": 35676
                },
                "normal": {
                    "semantic": "NORMAL",
                    "type": 35665
                },
                "normalMatrix": {
                    "semantic": "MODELVIEWINVERSETRANSPOSE",
                    "type": 35675
                },
                "position": {
                    "semantic": "POSITION",
                    "type": 35665
                },
                "projectionMatrix": {
                    "semantic": "PROJECTION",
                    "type": 35676
                },
                "shininess": {
                    "type": 5126
                },
                "specular": {
                    "type": 35666
                }
            },
            "program": "program_0",
            "states": {
                "enable": [
                    2929,
                    2884
                ]
            },
            "uniforms": {
                "u_ambient": "ambient",
                "u_diffuse": "diffuse",
                "u_emission": "emission",
                "u_modelViewMatrix": "modelViewMatrix",
                "u_normalMatrix": "normalMatrix",
                "u_projectionMatrix": "projectionMatrix",
                "u_shininess": "shininess",
                "u_specular": "specular"
            }
        }
    }
}