{"accessors":{"accessor_101":{"bufferView":"bufferView_247","byteOffset":300,"byteStride":0,"componentType":5123,"count":15,"type":"SCALAR"},"accessor_103":{"bufferView":"bufferView_248","byteOffset":1248,"byteStride":12,"componentType":5126,"count":81,"max":[9.05905,9.68569,4.78703],"min":[-11.1029,-10.3143,-6.36794],"type":"VEC3"},"accessor_105":{"bufferView":"bufferView_248","byteOffset":2220,"byteStride":12,"componentType":5126,"count":81,"max":[0.999133,0.717335,0.99903],"min":[-0.999051,0,-0.999008],"type":"VEC3"},"accessor_133":{"bufferView":"bufferView_247","byteOffset":1074,"byteStride":0,"componentType":5123,"count":78,"type":"SCALAR"},"accessor_136":{"bufferView":"bufferView_247","byteOffset":1230,"byteStride":0,"componentType":5123,"count":15,"type":"SCALAR"},"accessor_138":{"bufferView":"bufferView_248","byteOffset":10560,"byteStride":12,"componentType":5126,"count":81,"max":[7.52805,9.685,5.72192],"min":[-6.17896,-10.315,-5.14308],"type":"VEC3"},"accessor_140":{"bufferView":"bufferView_248","byteOffset":11532,"byteStride":12,"componentType":5126,"count":81,"max":[0.999055,0.717383,1],"min":[-0.999076,0,-0.999051],"type":"VEC3"},"accessor_168":{"bufferView":"bufferView_247","byteOffset":330,"byteStride":0,"componentType":5123,"count":78,"type":"SCALAR"},"accessor_171":{"bufferView":"bufferView_247","byteOffset":486,"byteStride":0,"componentType":5123,"count":15,"type":"SCALAR"},"accessor_173":{"bufferView":"bufferView_248","byteOffset":3192,"byteStride":12,"componentType":5126,"count":73,"max":[9.0835,9.68609,5.29811],"min":[-11.0785,-10.3139,-5.84489],"type":"VEC3"},"accessor_175":{"bufferView":"bufferView_248","byteOffset":4068,"byteStride":12,"componentType":5126,"count":73,"max":[0.999059,0.716978,1],"min":[-0.999051,0,-0.999031],"type":"VEC3"},"accessor_203":{"bufferView":"bufferView_247","byteOffset":516,"byteStride":0,"componentType":5123,"count":78,"type":"SCALAR"},"accessor_206":{"bufferView":"bufferView_247","byteOffset":672,"byteStride":0,"componentType":5123,"count":15,"type":"SCALAR"},"accessor_208":{"bufferView":"bufferView_248","byteOffset":4944,"byteStride":12,"componentType":5126,"count":81,"max":[7.5549,9.68562,6.23755],"min":[-6.1521,-10.3144,-4.62747],"type":"VEC3"},"accessor_210":{"bufferView":"bufferView_248","byteOffset":5916,"byteStride":12,"componentType":5126,"count":81,"max":[0.999013,0.717334,0.999012],"min":[-0.99906,0,-0.999346],"type":"VEC3"},"accessor_238":{"bufferView":"bufferView_247","byteOffset":702,"byteStride":0,"componentType":5123,"count":78,"type":"SCALAR"},"accessor_241":{"bufferView":"bufferView_247","byteOffset":858,"byteStride":0,"componentType":5123,"count":15,"type":"SCALAR"},"accessor_243":{"bufferView":"bufferView_248","byteOffset":6888,"byteStride":12,"componentType":5126,"count":76,"max":[9.05634,9.68561,4.78644],"min":[-11.1047,-10.3144,-6.36755],"type":"VEC3"},"accessor_245":{"bufferView":"bufferView_248","byteOffset":7800,"byteStride":12,"componentType":5126,"count":76,"max":[0.999133,0.717334,0.999031],"min":[-0.999013,0,-0.999008],"type":"VEC3"},"accessor_28":{"bufferView":"bufferView_247","byteOffset":0,"byteStride":0,"componentType":5123,"count":60,"type":"SCALAR"},"accessor_31":{"bufferView":"bufferView_247","byteOffset":120,"byteStride":0,"componentType":5123,"count":12,"type":"SCALAR"},"accessor_33":{"bufferView":"bufferView_248","byteOffset":0,"byteStride":12,"componentType":5126,"count":52,"max":[19.1525,10,5.94998],"min":[-19.1525,-10,-5.95001],"type":"VEC3"},"accessor_35":{"bufferView":"bufferView_248","byteOffset":624,"byteStride":12,"componentType":5126,"count":52,"max":[0.999095,0.717321,1],"min":[-0.999095,0,-0.999093],"type":"VEC3"},"accessor_63":{"bufferView":"bufferView_247","byteOffset":888,"byteStride":0,"componentType":5123,"count":78,"type":"SCALAR"},"accessor_66":{"bufferView":"bufferView_247","byteOffset":1044,"byteStride":0,"componentType":5123,"count":15,"type":"SCALAR"},"accessor_68":{"bufferView":"bufferView_248","byteOffset":8712,"byteStride":12,"componentType":5126,"count":77,"max":[8.19543,9.68611,5.69673],"min":[-5.51254,-10.3139,-5.18028],"type":"VEC3"},"accessor_70":{"bufferView":"bufferView_248","byteOffset":9636,"byteStride":12,"componentType":5126,"count":77,"max":[0.999015,0.717382,1],"min":[-0.999068,0,-0.999011],"type":"VEC3"},"accessor_98":{"bufferView":"bufferView_247","byteOffset":144,"byteStride":0,"componentType":5123,"count":78,"type":"SCALAR"},"accessor_b0":{"bufferView":"bufferView_b","byteOffset":0,"byteStride":0,"componentType":5123,"count":52,"type":"SCALAR"},"accessor_b1":{"bufferView":"bufferView_b","byteOffset":104,"byteStride":0,"componentType":5123,"count":81,"type":"SCALAR"},"accessor_b2":{"bufferView":"bufferView_b","byteOffset":266,"byteStride":0,"componentType":5123,"count":73,"type":"SCALAR"},"accessor_b3":{"bufferView":"bufferView_b","byteOffset":412,"byteStride":0,"componentType":5123,"count":81,"type":"SCALAR"},"accessor_b4":{"bufferView":"bufferView_b","byteOffset":574,"byteStride":0,"componentType":5123,"count":76,"type":"SCALAR"},"accessor_b5":{"bufferView":"bufferView_b","byteOffset":726,"byteStride":0,"componentType":5123,"count":77,"type":"SCALAR"},"accessor_b6":{"bufferView":"bufferView_b","byteOffset":880,"byteStride":0,"componentType":5123,"count":81,"type":"SCALAR"}},"animations":{},"asset":{"generator":"collada2gltf@cf6371beb0bdc18ba603378d5e40c966da53d385","premultipliedAlpha":true,"profile":{"api":"WebGL","version":"1.0.2"},"version":"1.0"},"bufferViews":{"bufferView_247":{"buffer":"\\data\\ECNU\\workspace\\gridID_88\\gridID_88","byteLength":1260,"byteOffset":0,"target":34963},"bufferView_248":{"buffer":"\\data\\ECNU\\workspace\\gridID_88\\gridID_88","byteLength":12504,"byteOffset":1260,"target":34962},"bufferView_b":{"buffer":"buffer_b","byteLength":1042,"byteOffset":0,"target":34962}},"buffers":{"\\data\\ECNU\\workspace\\gridID_88\\gridID_88":{"byteLength":13764,"type":"arraybuffer","uri":"data:application/octet-stream;base64,"},"buffer_b":{"type":"arraybuffer","byteLength":1042,"uri":"data:application/octet-stream;base64,"}},"materials":{"BUILDING_DEFAULT_0-effect":{"name":"BUILDING_DEFAULT_0","technique":"technique0","values":{"ambient":[0,0,0,1],"diffuse":[0.723055,0.708376,0.672443,1],"emission":[0,0,0,1],"shininess":50,"specular":[0.5,0.5,0.5,1]}},"ROOF_DEFAULT_0-effect":{"name":"ROOF_DEFAULT_0","technique":"technique0","values":{"ambient":[0,0,0,1],"diffuse":[0.603827,0.381326,0.291771,1],"emission":[0,0,0,1],"shininess":50,"specular":[0.5,0.5,0.5,1]}}},"meshes":{"Building3773-mesh":{"name":"Building3773","primitives":[{"attributes":{"NORMAL":"accessor_35","POSITION":"accessor_33","BATCHID":"accessor_b0"},"indices":"accessor_28","material":"BUILDING_DEFAULT_0-effect","mode":4},{"attributes":{"NORMAL":"accessor_35","POSITION":"accessor_33","BATCHID":"accessor_b0"},"indices":"accessor_31","material":"ROOF_DEFAULT_0-effect","mode":4}]},"Building3777-mesh":{"name":"Building3777","primitives":[{"attributes":{"NORMAL":"accessor_105","POSITION":"accessor_103","BATCHID":"accessor_b1"},"indices":"accessor_98","material":"BUILDING_DEFAULT_0-effect","mode":4},{"attributes":{"NORMAL":"accessor_105","POSITION":"accessor_103","BATCHID":"accessor_b1"},"indices":"accessor_101","material":"ROOF_DEFAULT_0-effect","mode":4}]},"Building3778-mesh":{"name":"Building3778","primitives":[{"attributes":{"NORMAL":"accessor_175","POSITION":"accessor_173","BATCHID":"accessor_b2"},"indices":"accessor_168","material":"BUILDING_DEFAULT_0-effect","mode":4},{"attributes":{"NORMAL":"accessor_175","POSITION":"accessor_173","BATCHID":"accessor_b2"},"indices":"accessor_171","material":"ROOF_DEFAULT_0-effect","mode":4}]},"Building3779-mesh":{"name":"Building3779","primitives":[{"attributes":{"NORMAL":"accessor_210","POSITION":"accessor_208","BATCHID":"accessor_b3"},"indices":"accessor_203","material":"BUILDING_DEFAULT_0-effect","mode":4},{"attributes":{"NORMAL":"accessor_210","POSITION":"accessor_208","BATCHID":"accessor_b3"},"indices":"accessor_206","material":"ROOF_DEFAULT_0-effect","mode":4}]},"Building3780-mesh":{"name":"Building3780","primitives":[{"attributes":{"NORMAL":"accessor_245","POSITION":"accessor_243","BATCHID":"accessor_b4"},"indices":"accessor_238","material":"BUILDING_DEFAULT_0-effect","mode":4},{"attributes":{"NORMAL":"accessor_245","POSITION":"accessor_243","BATCHID":"accessor_b4"},"indices":"accessor_241","material":"ROOF_DEFAULT_0-effect","mode":4}]},"Building3781-mesh":{"name":"Building3781","primitives":[{"attributes":{"NORMAL":"accessor_70","POSITION":"accessor_68","BATCHID":"accessor_b5"},"indices":"accessor_63","material":"BUILDING_DEFAULT_0-effect","mode":4},{"attributes":{"NORMAL":"accessor_70","POSITION":"accessor_68","BATCHID":"accessor_b5"},"indices":"accessor_66","material":"ROOF_DEFAULT_0-effect","mode":4}]},"Building3782-mesh":{"name":"Building3782","primitives":[{"attributes":{"NORMAL":"accessor_140","POSITION":"accessor_138","BATCHID":"accessor_b6"},"indices":"accessor_133","material":"BUILDING_DEFAULT_0-effect","mode":4},{"attributes":{"NORMAL":"accessor_140","POSITION":"accessor_138","BATCHID":"accessor_b6"},"indices":"accessor_136","material":"ROOF_DEFAULT_0-effect","mode":4}]}},"nodes":{"model_gridID_88_w383801391":{"children":[],"matrix":[1,0,0,0,0,-1.62921e-7,1,0,0,-1,-1.62921e-7,0,358.525,310.057,10,1],"meshes":["Building3773-mesh"],"name":"model_gridID_88_w383801391"},"model_gridID_88_w383801395":{"children":[],"matrix":[1,0,0,0,0,-1.62921e-7,1,0,0,-1,-1.62921e-7,0,373.48,253.352,10.3139,1],"meshes":["Building3781-mesh"],"name":"model_gridID_88_w383801395"},"model_gridID_88_w383801395_001":{"children":[],"matrix":[1,0,0,0,0,-1.62921e-7,1,0,0,-1,-1.62921e-7,0,359.413,250.26,10.3144,1],"meshes":["Building3777-mesh"],"name":"model_gridID_88_w383801395_001"},"model_gridID_88_w383801396":{"children":[],"matrix":[1,0,0,0,0,-1.62921e-7,1,0,0,-1,-1.62921e-7,0,374.908,223.821,10.315,1],"meshes":["Building3782-mesh"],"name":"model_gridID_88_w383801396"},"model_gridID_88_w383801396_001":{"children":[],"matrix":[1,0,0,0,0,-1.62921e-7,1,0,0,-1,-1.62921e-7,0,360.159,221.216,10.3139,1],"meshes":["Building3778-mesh"],"name":"model_gridID_88_w383801396_001"},"model_gridID_88_w383801397":{"children":[],"matrix":[1,0,0,0,0,-1.62921e-7,1,0,0,-1,-1.62921e-7,0,373.139,283.65,10.3144,1],"meshes":["Building3779-mesh"],"name":"model_gridID_88_w383801397"},"model_gridID_88_w383801398":{"children":[],"matrix":[1,0,0,0,0,-1.62921e-7,1,0,0,-1,-1.62921e-7,0,358.435,280.016,10.3144,1],"meshes":["Building3780-mesh"],"name":"model_gridID_88_w383801398"},"node_7":{"children":["model_gridID_88_w383801391","model_gridID_88_w383801395","model_gridID_88_w383801395_001","model_gridID_88_w383801396","model_gridID_88_w383801396_001","model_gridID_88_w383801397","model_gridID_88_w383801398"],"matrix":[1,0,0,0,0,0,-1,0,0,1,0,0,0,0,0,1],"name":"Y_UP_Transform"}},"programs":{"program_0":{"attributes":["a_normal","a_position","a_batchId"],"fragmentShader":"\\data\\ECNU\\workspace\\gridID_88\\gridID_880FS","vertexShader":"\\data\\ECNU\\workspace\\gridID_88\\gridID_880VS"}},"scene":"defaultScene","scenes":{"defaultScene":{"nodes":["node_7"]}},"shaders":{"\\data\\ECNU\\workspace\\gridID_88\\gridID_880FS":{"type":35632,"uri":"data:text/plain;base64,"},"\\data\\ECNU\\workspace\\gridID_88\\gridID_880VS":{"type":35633,"uri":"data:text/plain;base64,"}},"skins":{},"techniques":{"technique0":{"attributes":{"a_normal":"normal","a_position":"position","a_batchId":"batchId"},"parameters":{"ambient":{"type":35666},"diffuse":{"type":35666},"emission":{"type":35666},"modelViewMatrix":{"semantic":"MODELVIEW","type":35676},"normal":{"semantic":"NORMAL","type":35665},"normalMatrix":{"semantic":"MODELVIEWINVERSETRANSPOSE","type":35675},"position":{"semantic":"POSITION","type":35665},"projectionMatrix":{"semantic":"PROJECTION","type":35676},"shininess":{"type":5126},"specular":{"type":35666},"batchId":{"semantic":"BATCHID","type":5126}},"program":"program_0","states":{"enable":[2929,2884]},"uniforms":{"u_ambient":"ambient","u_diffuse":"diffuse","u_emission":"emission","u_modelViewMatrix":"modelViewMatrix","u_normalMatrix":"normalMatrix","u_projectionMatrix":"projectionMatrix","u_shininess":"shininess","u_specular":"specular"}}}}