{
    "accessors": {
        "accessor_16": {
            "bufferView": "bufferView_82",
            "byteOffset": 0,
            "byteStride": 0,
            "componentType": 5123,
            "count": 420,
            "type": "SCALAR"
        },
        "accessor_18": {
            "bufferView": "bufferView_83",
            "byteOffset": 0,
            "byteStride": 12,
            "componentType": 5126,
            "count": 270,
            "max": [
                -32.3951,
                70,
                -13.0266
            ],
            "min": [
                -98.9642,
                0,
                -107.333
            ],
            "type": "VEC3"
        },
        "accessor_20": {
            "bufferView": "bufferView_83",
            "byteOffset": 3240,
            "byteStride": 12,
            "componentType": 5126,
            "count": 270,
            "max": [
                0.850362,
                1,
                0.851107
            ],
            "min": [
                -0.851281,
                -1,
                -0.886592
            ],
            "type": "VEC3"
        },
        "accessor_36": {
            "bufferView": "bufferView_82",
            "byteOffset": 840,
            "byteStride": 0,
            "componentType": 5123,
            "count": 240,
            "type": "SCALAR"
        },
        "accessor_38": {
            "bufferView": "bufferView_83",
            "byteOffset": 6480,
            "byteStride": 12,
            "componentType": 5126,
            "count": 142,
            "max": [
                -38.2728,
                10,
                -60.0317
            ],
            "min": [
                -65.368,
                0,
                -84.9
            ],
            "type": "VEC3"
        },
        "accessor_40": {
            "bufferView": "bufferView_83",
            "byteOffset": 8184,
            "byteStride": 12,
            "componentType": 5126,
            "count": 142,
            "max": [
                0.991878,
                1,
                0.999609
            ],
            "min": [
                -0.999274,
                -1,
                -0.989564
            ],
            "type": "VEC3"
        },
        "accessor_56": {
            "bufferView": "bufferView_82",
            "byteOffset": 1320,
            "byteStride": 0,
            "componentType": 5123,
            "count": 36,
            "type": "SCALAR"
        },
        "accessor_58": {
            "bufferView": "bufferView_83",
            "byteOffset": 9888,
            "byteStride": 12,
            "componentType": 5126,
            "count": 34,
            "max": [
                48.2113,
                10,
                -43.3333
            ],
            "min": [
                -7.72673,
                0,
                -105.183
            ],
            "type": "VEC3"
        },
        "accessor_60": {
            "bufferView": "bufferView_83",
            "byteOffset": 10296,
            "byteStride": 12,
            "componentType": 5126,
            "count": 34,
            "max": [
                0.731744,
                1,
                0.760918
            ],
            "min": [
                -0.802302,
                -1,
                -0.744864
            ],
            "type": "VEC3"
        },
        "accessor_76": {
            "bufferView": "bufferView_82",
            "byteOffset": 1392,
            "byteStride": 0,
            "componentType": 5123,
            "count": 24,
            "type": "SCALAR"
        },
        "accessor_78": {
            "bufferView": "bufferView_83",
            "byteOffset": 10704,
            "byteStride": 12,
            "componentType": 5126,
            "count": 22,
            "max": [
                26.5931,
                10,
                -48.6357
            ],
            "min": [
                25.235,
                0,
                -51.2561
            ],
            "type": "VEC3"
        },
        "accessor_80": {
            "bufferView": "bufferView_83",
            "byteOffset": 10968,
            "byteStride": 12,
            "componentType": 5126,
            "count": 22,
            "max": [
                0.999991,
                1,
                0.750368
            ],
            "min": [
                -0.725997,
                -1,
                -0.687701
            ],
            "type": "VEC3"
        }
    },
    "animations": {},
    "asset": {
        "generator": "collada2gltf@cf6371beb0bdc18ba603378d5e40c966da53d385",
        "premultipliedAlpha": true,
        "profile": {
            "api": "WebGL",
            "version": "1.0.2"
        },
        "version": "1.0"
    },
    "bufferViews": {
        "bufferView_82": {
            "buffer": "\\data\\3dcity\\miami\\workspace\\gridID_6\\gridID_6",
            "byteLength": 1440,
            "byteOffset": 0,
            "target": 34963
        },
        "bufferView_83": {
            "buffer": "\\data\\3dcity\\miami\\workspace\\gridID_6\\gridID_6",
            "byteLength": 11232,
            "byteOffset": 1440,
            "target": 34962
        }
    },
    "buffers": {
        "\\data\\3dcity\\miami\\workspace\\gridID_6\\gridID_6": {
            "byteLength": 12672,
            "type": "arraybuffer",
            "uri": "data:application/octet-stream;base64,"
        }
    },
    "materials": {
        "CityEngineMaterial_301-effect": {
            "name": "CityEngineMaterial_301",
            "technique": "technique0",
            "values": {
                "ambient": [
                    1,
                    1,
                    1,
                    1
                ],
                "diffuse": [
                    1,
                    1,
                    1,
                    1
                ],
                "emission": [
                    0,
                    0,
                    0,
                    1
                ],
                "shininess": 50,
                "specular": [
                    0.5,
                    0.5,
                    0.5,
                    1
                ]
            }
        },
        "CityEngineMaterial_302-effect": {
            "name": "CityEngineMaterial_302",
            "technique": "technique0",
            "values": {
                "ambient": [
                    1,
                    1,
                    1,
                    1
                ],
                "diffuse": [
                    1,
                    1,
                    1,
                    1
                ],
                "emission": [
                    0,
                    0,
                    0,
                    1
                ],
                "shininess": 50,
                "specular": [
                    0.5,
                    0.5,
                    0.5,
                    1
                ]
            }
        },
        "CityEngineMaterial_303-effect": {
            "name": "CityEngineMaterial_303",
            "technique": "technique0",
            "values": {
                "ambient": [
                    1,
                    1,
                    1,
                    1
                ],
                "diffuse": [
                    1,
                    1,
                    1,
                    1
                ],
                "emission": [
                    0,
                    0,
                    0,
                    1
                ],
                "shininess": 50,
                "specular": [
                    0.5,
                    0.5,
                    0.5,
                    1
                ]
            }
        },
        "CityEngineMaterial_304-effect": {
            "name": "CityEngineMaterial_304",
            "technique": "technique0",
            "values": {
                "ambient": [
                    1,
                    1,
                    1,
                    1
                ],
                "diffuse": [
                    1,
                    1,
                    1,
                    1
                ],
                "emission": [
                    0,
                    0,
                    0,
                    1
                ],
                "shininess": 50,
                "specular": [
                    0.5,
                    0.5,
                    0.5,
                    1
                ]
            }
        }
    },
    "meshes": {
        "mesh_CityEngineMaterial_301-mesh": {
            "name": "mesh_CityEngineMaterial.301",
            "primitives": [
                {
                    "attributes": {
                        "NORMAL": "accessor_20",
                        "POSITION": "accessor_18"
                    },
                    "indices": "accessor_16",
                    "material": "CityEngineMaterial_301-effect",
                    "mode": 4
                }
            ]
        },
        "mesh_CityEngineMaterial_302-mesh": {
            "name": "mesh_CityEngineMaterial.302",
            "primitives": [
                {
                    "attributes": {
                        "NORMAL": "accessor_40",
                        "POSITION": "accessor_38"
                    },
                    "indices": "accessor_36",
                    "material": "CityEngineMaterial_302-effect",
                    "mode": 4
                }
            ]
        },
        "mesh_CityEngineMaterial_303-mesh": {
            "name": "mesh_CityEngineMaterial.303",
            "primitives": [
                {
                    "attributes": {
                        "NORMAL": "accessor_60",
                        "POSITION": "accessor_58"
                    },
                    "indices": "accessor_56",
                    "material": "CityEngineMaterial_303-effect",
                    "mode": 4
                }
            ]
        },
        "mesh_CityEngineMaterial_304-mesh": {
            "name": "mesh_CityEngineMaterial.304",
            "primitives": [
                {
                    "attributes": {
                        "NORMAL": "accessor_80",
                        "POSITION": "accessor_78"
                    },
                    "indices": "accessor_76",
                    "material": "CityEngineMaterial_304-effect",
                    "mode": 4
                }
            ]
        }
    },
    "nodes": {
        "CityEngineMaterial": {
            "children": [],
            "matrix": [
                1,
                0,
                0,
                0,
                0,
                -1.62921e-007,
                1,
                0,
                0,
                -1,
                -1.62921e-007,
                0,
                0,
                0,
                0,
                1
            ],
            "meshes": [
                "mesh_CityEngineMaterial_301-mesh"
            ],
            "name": "CityEngineMaterial"
        },
        "CityEngineMaterial_001": {
            "children": [],
            "matrix": [
                1,
                0,
                0,
                0,
                0,
                -1.62921e-007,
                1,
                0,
                0,
                -1,
                -1.62921e-007,
                0,
                0,
                0,
                0,
                1
            ],
            "meshes": [
                "mesh_CityEngineMaterial_302-mesh"
            ],
            "name": "CityEngineMaterial_001"
        },
        "CityEngineMaterial_002": {
            "children": [],
            "matrix": [
                1,
                0,
                0,
                0,
                0,
                -1.62921e-007,
                1,
                0,
                0,
                -1,
                -1.62921e-007,
                0,
                0,
                0,
                0,
                1
            ],
            "meshes": [
                "mesh_CityEngineMaterial_303-mesh"
            ],
            "name": "CityEngineMaterial_002"
        },
        "CityEngineMaterial_003": {
            "children": [],
            "matrix": [
                1,
                0,
                0,
                0,
                0,
                -1.62921e-007,
                1,
                0,
                0,
                -1,
                -1.62921e-007,
                0,
                0,
                0,
                0,
                1
            ],
            "meshes": [
                "mesh_CityEngineMaterial_304-mesh"
            ],
            "name": "CityEngineMaterial_003"
        },
        "node_4": {
            "children": [
                "CityEngineMaterial",
                "CityEngineMaterial_001",
                "CityEngineMaterial_002",
                "CityEngineMaterial_003"
            ],
            "matrix": [
                1,
                0,
                0,
                0,
                0,
                0,
                -1,
                0,
                0,
                1,
                0,
                0,
                0,
                0,
                0,
                1
            ],
            "name": "Y_UP_Transform"
        }
    },
    "programs": {
        "program_0": {
            "attributes": [
                "a_normal",
                "a_position"
            ],
            "fragmentShader": "\\data\\3dcity\\miami\\workspace\\gridID_6\\gridID_60FS",
            "vertexShader": "\\data\\3dcity\\miami\\workspace\\gridID_6\\gridID_60VS"
        }
    },
    "scene": "defaultScene",
    "scenes": {
        "defaultScene": {
            "nodes": [
                "node_4"
            ]
        }
    },
    "shaders": {
        "\\data\\3dcity\\miami\\workspace\\gridID_6\\gridID_60FS": {
            "type": 35632,
            "uri": "data:text/plain;base64,"
        },
        "\\data\\3dcity\\miami\\workspace\\gridID_6\\gridID_60VS": {
            "type": 35633,
            "uri": "data:text/plain;base64,"
        }
    },
    "skins": {},
    "techniques": {
        "technique0": {
            "attributes": {
                "a_normal": "normal",
                "a_position": "position"
            },
            "parameters": {
                "ambient": {
                    "type": 35666
                },
                "diffuse": {
                    "type": 35666
                },
                "emission": {
                    "type": 35666
                },
                "modelViewMatrix": {
                    "semantic": "MODELVIEW",
                    "type": 35676
                },
                "normal": {
                    "semantic": "NORMAL",
                    "type": 35665
                },
                "normalMatrix": {
                    "semantic": "MODELVIEWINVERSETRANSPOSE",
                    "type": 35675
                },
                "position": {
                    "semantic": "POSITION",
                    "type": 35665
                },
                "projectionMatrix": {
                    "semantic": "PROJECTION",
                    "type": 35676
                },
                "shininess": {
                    "type": 5126
                },
                "specular": {
                    "type": 35666
                }
            },
            "program": "program_0",
            "states": {
                "enable": [
                    2929,
                    2884
                ]
            },
            "uniforms": {
                "u_ambient": "ambient",
                "u_diffuse": "diffuse",
                "u_emission": "emission",
                "u_modelViewMatrix": "modelViewMatrix",
                "u_normalMatrix": "normalMatrix",
                "u_projectionMatrix": "projectionMatrix",
                "u_shininess": "shininess",
                "u_specular": "specular"
            }
        }
    }
}