{"accessors":{"accessor_16":{"bufferView":"bufferView_22","byteOffset":0,"byteStride":0,"componentType":5123,"count":738,"type":"SCALAR"},"accessor_18":{"bufferView":"bufferView_23","byteOffset":0,"byteStride":12,"componentType":5126,"count":656,"max":[56.596,-35.6457,12.7172],"min":[8.98048,-79.2945,0.769939],"type":"VEC3"},"accessor_20":{"bufferView":"bufferView_23","byteOffset":7872,"byteStride":12,"componentType":5126,"count":656,"max":[0.999711,0.999703,1],"min":[-0.999709,-0.999703,0],"type":"VEC3"},"accessor_b0":{"bufferView":"bufferView_b","byteOffset":0,"byteStride":0,"componentType":5123,"count":656,"type":"SCALAR"}},"animations":{},"asset":{"generator":"collada2gltf@cf6371beb0bdc18ba603378d5e40c966da53d385","premultipliedAlpha":true,"profile":{"api":"WebGL","version":"1.0.2"},"version":"1.0"},"bufferViews":{"bufferView_22":{"buffer":"\\data\\3dcity\\miami\\workspace\\gridID_63\\gridID_63_high","byteLength":1476,"byteOffset":0,"target":34963},"bufferView_23":{"buffer":"\\data\\3dcity\\miami\\workspace\\gridID_63\\gridID_63_high","byteLength":15744,"byteOffset":1476,"target":34962},"bufferView_b":{"buffer":"buffer_b","byteLength":1312,"byteOffset":0,"target":34962}},"buffers":{"\\data\\3dcity\\miami\\workspace\\gridID_63\\gridID_63_high":{"byteLength":17220,"type":"arraybuffer","uri":"data:application/octet-stream;base64,"},"buffer_b":{"type":"arraybuffer","byteLength":1312,"uri":"data:application/octet-stream;base64,"}},"materials":{"__glTF__defaultMaterial0":{"name":"__glTF__defaultMaterial0","technique":"technique0","values":{"diffuse":[1,1,1,1]}}},"meshes":{"multipatch_footprint_124-mesh":{"name":"multipatch_footprint.124","primitives":[{"attributes":{"NORMAL":"accessor_20","POSITION":"accessor_18","BATCHID":"accessor_b0"},"indices":"accessor_16","material":"__glTF__defaultMaterial0","mode":4}]}},"nodes":{"gridID_63_w300753329_join":{"children":[],"matrix":[1,0,0,0,0,1,0,0,0,0,1,0,0.00038147,0.000335693,0,1],"meshes":["multipatch_footprint_124-mesh"],"name":"gridID_63_w300753329_join"},"node_1":{"children":["gridID_63_w300753329_join"],"matrix":[1,0,0,0,0,0,-1,0,0,1,0,0,0,0,0,1],"name":"Y_UP_Transform"}},"programs":{"program_0":{"attributes":["a_normal","a_position","a_batchId"],"fragmentShader":"\\data\\3dcity\\miami\\workspace\\gridID_63\\gridID_63_high0FS","vertexShader":"\\data\\3dcity\\miami\\workspace\\gridID_63\\gridID_63_high0VS"}},"scene":"defaultScene","scenes":{"defaultScene":{"nodes":["node_1"]}},"shaders":{"\\data\\3dcity\\miami\\workspace\\gridID_63\\gridID_63_high0FS":{"type":35632,"uri":"data:text/plain;base64,"},"\\data\\3dcity\\miami\\workspace\\gridID_63\\gridID_63_high0VS":{"type":35633,"uri":"data:text/plain;base64,"}},"skins":{},"techniques":{"technique0":{"attributes":{"a_normal":"normal","a_position":"position","a_batchId":"batchId"},"parameters":{"diffuse":{"type":35666},"modelViewMatrix":{"semantic":"MODELVIEW","type":35676},"normal":{"semantic":"NORMAL","type":35665},"normalMatrix":{"semantic":"MODELVIEWINVERSETRANSPOSE","type":35675},"position":{"semantic":"POSITION","type":35665},"projectionMatrix":{"semantic":"PROJECTION","type":35676},"batchId":{"semantic":"BATCHID","type":5126}},"program":"program_0","states":{"enable":[2929,2884]},"uniforms":{"u_diffuse":"diffuse","u_modelViewMatrix":"modelViewMatrix","u_normalMatrix":"normalMatrix","u_projectionMatrix":"projectionMatrix"}}}}