{"accessors":{"accessor_16":{"bufferView":"bufferView_82","byteOffset":0,"byteStride":0,"componentType":5123,"count":36,"type":"SCALAR"},"accessor_18":{"bufferView":"bufferView_83","byteOffset":0,"byteStride":12,"componentType":5126,"count":32,"max":[54.5304,10,79.9353],"min":[12.1956,0,35.2135],"type":"VEC3"},"accessor_20":{"bufferView":"bufferView_83","byteOffset":384,"byteStride":12,"componentType":5126,"count":32,"max":[0.999648,1,0.999643],"min":[-0.999648,-1,-0.999643],"type":"VEC3"},"accessor_36":{"bufferView":"bufferView_82","byteOffset":72,"byteStride":0,"componentType":5123,"count":36,"type":"SCALAR"},"accessor_38":{"bufferView":"bufferView_83","byteOffset":768,"byteStride":12,"componentType":5126,"count":24,"max":[-64.7484,8,-35.8002],"min":[-72.1957,0,-40.2749],"type":"VEC3"},"accessor_40":{"bufferView":"bufferView_83","byteOffset":1056,"byteStride":12,"componentType":5126,"count":24,"max":[0.999731,1,0.999761],"min":[-0.999787,-1,-0.999762],"type":"VEC3"},"accessor_56":{"bufferView":"bufferView_82","byteOffset":144,"byteStride":0,"componentType":5123,"count":60,"type":"SCALAR"},"accessor_58":{"bufferView":"bufferView_83","byteOffset":1344,"byteStride":12,"componentType":5126,"count":44,"max":[38.4114,14,-38.7174],"min":[21.1568,0,-88.7054],"type":"VEC3"},"accessor_60":{"bufferView":"bufferView_83","byteOffset":1872,"byteStride":12,"componentType":5126,"count":44,"max":[0.999617,1,0.999578],"min":[-0.999593,-1,-0.999592],"type":"VEC3"},"accessor_76":{"bufferView":"bufferView_82","byteOffset":264,"byteStride":0,"componentType":5123,"count":72,"type":"SCALAR"},"accessor_78":{"bufferView":"bufferView_83","byteOffset":2400,"byteStride":12,"componentType":5126,"count":56,"max":[38.9012,36,9.31735],"min":[5.70569,0,-32.6852],"type":"VEC3"},"accessor_80":{"bufferView":"bufferView_83","byteOffset":3072,"byteStride":12,"componentType":5126,"count":56,"max":[0.99928,1,0.999116],"min":[-0.999985,-1,-0.999977],"type":"VEC3"},"accessor_b0":{"bufferView":"bufferView_b","byteOffset":0,"byteStride":0,"componentType":5123,"count":32,"type":"SCALAR"},"accessor_b1":{"bufferView":"bufferView_b","byteOffset":64,"byteStride":0,"componentType":5123,"count":24,"type":"SCALAR"},"accessor_b2":{"bufferView":"bufferView_b","byteOffset":112,"byteStride":0,"componentType":5123,"count":44,"type":"SCALAR"},"accessor_b3":{"bufferView":"bufferView_b","byteOffset":200,"byteStride":0,"componentType":5123,"count":56,"type":"SCALAR"}},"animations":{},"asset":{"generator":"collada2gltf@cf6371beb0bdc18ba603378d5e40c966da53d385","premultipliedAlpha":true,"profile":{"api":"WebGL","version":"1.0.2"},"version":"1.0"},"bufferViews":{"bufferView_82":{"buffer":"\\data\\3dcity\\miami\\workspace\\gridID_63\\gridID_63","byteLength":408,"byteOffset":0,"target":34963},"bufferView_83":{"buffer":"\\data\\3dcity\\miami\\workspace\\gridID_63\\gridID_63","byteLength":3744,"byteOffset":408,"target":34962},"bufferView_b":{"buffer":"buffer_b","byteLength":312,"byteOffset":0,"target":34962}},"buffers":{"\\data\\3dcity\\miami\\workspace\\gridID_63\\gridID_63":{"byteLength":4152,"type":"arraybuffer","uri":"data:application/octet-stream;base64,"},"buffer_b":{"type":"arraybuffer","byteLength":312,"uri":"data:application/octet-stream;base64,"}},"materials":{"CityEngineMaterial_594-effect":{"name":"CityEngineMaterial_594","technique":"technique0","values":{"ambient":[1,1,1,1],"diffuse":[1,1,1,1],"emission":[0,0,0,1],"shininess":50,"specular":[0.5,0.5,0.5,1]}},"CityEngineMaterial_595-effect":{"name":"CityEngineMaterial_595","technique":"technique0","values":{"ambient":[1,1,1,1],"diffuse":[1,1,1,1],"emission":[0,0,0,1],"shininess":50,"specular":[0.5,0.5,0.5,1]}},"CityEngineMaterial_596-effect":{"name":"CityEngineMaterial_596","technique":"technique0","values":{"ambient":[1,1,1,1],"diffuse":[1,1,1,1],"emission":[0,0,0,1],"shininess":50,"specular":[0.5,0.5,0.5,1]}},"CityEngineMaterial_597-effect":{"name":"CityEngineMaterial_597","technique":"technique0","values":{"ambient":[1,1,1,1],"diffuse":[1,1,1,1],"emission":[0,0,0,1],"shininess":50,"specular":[0.5,0.5,0.5,1]}}},"meshes":{"mesh_CityEngineMaterial_592-mesh":{"name":"mesh_CityEngineMaterial.592","primitives":[{"attributes":{"NORMAL":"accessor_20","POSITION":"accessor_18","BATCHID":"accessor_b0"},"indices":"accessor_16","material":"CityEngineMaterial_594-effect","mode":4}]},"mesh_CityEngineMaterial_593-mesh":{"name":"mesh_CityEngineMaterial.593","primitives":[{"attributes":{"NORMAL":"accessor_40","POSITION":"accessor_38","BATCHID":"accessor_b1"},"indices":"accessor_36","material":"CityEngineMaterial_595-effect","mode":4}]},"mesh_CityEngineMaterial_594-mesh":{"name":"mesh_CityEngineMaterial.594","primitives":[{"attributes":{"NORMAL":"accessor_60","POSITION":"accessor_58","BATCHID":"accessor_b2"},"indices":"accessor_56","material":"CityEngineMaterial_596-effect","mode":4}]},"mesh_CityEngineMaterial_595-mesh":{"name":"mesh_CityEngineMaterial.595","primitives":[{"attributes":{"NORMAL":"accessor_80","POSITION":"accessor_78","BATCHID":"accessor_b3"},"indices":"accessor_76","material":"CityEngineMaterial_597-effect","mode":4}]}},"nodes":{"CityEngineMaterial":{"children":[],"matrix":[1,0,0,0,0,-1.62921e-7,1,0,0,-1,-1.62921e-7,0,0,0,0,1],"meshes":["mesh_CityEngineMaterial_592-mesh"],"name":"CityEngineMaterial"},"CityEngineMaterial_001":{"children":[],"matrix":[1,0,0,0,0,-1.62921e-7,1,0,0,-1,-1.62921e-7,0,0,0,0,1],"meshes":["mesh_CityEngineMaterial_593-mesh"],"name":"CityEngineMaterial_001"},"CityEngineMaterial_002":{"children":[],"matrix":[1,0,0,0,0,-1.62921e-7,1,0,0,-1,-1.62921e-7,0,0,0,0,1],"meshes":["mesh_CityEngineMaterial_594-mesh"],"name":"CityEngineMaterial_002"},"CityEngineMaterial_003":{"children":[],"matrix":[1,0,0,0,0,-1.62921e-7,1,0,0,-1,-1.62921e-7,0,0,0,0,1],"meshes":["mesh_CityEngineMaterial_595-mesh"],"name":"CityEngineMaterial_003"},"node_4":{"children":["CityEngineMaterial","CityEngineMaterial_001","CityEngineMaterial_002","CityEngineMaterial_003"],"matrix":[1,0,0,0,0,0,-1,0,0,1,0,0,0,0,0,1],"name":"Y_UP_Transform"}},"programs":{"program_0":{"attributes":["a_normal","a_position","a_batchId"],"fragmentShader":"\\data\\3dcity\\miami\\workspace\\gridID_63\\gridID_630FS","vertexShader":"\\data\\3dcity\\miami\\workspace\\gridID_63\\gridID_630VS"}},"scene":"defaultScene","scenes":{"defaultScene":{"nodes":["node_4"]}},"shaders":{"\\data\\3dcity\\miami\\workspace\\gridID_63\\gridID_630FS":{"type":35632,"uri":"data:text/plain;base64,"},"\\data\\3dcity\\miami\\workspace\\gridID_63\\gridID_630VS":{"type":35633,"uri":"data:text/plain;base64,"}},"skins":{},"techniques":{"technique0":{"attributes":{"a_normal":"normal","a_position":"position","a_batchId":"batchId"},"parameters":{"ambient":{"type":35666},"diffuse":{"type":35666},"emission":{"type":35666},"modelViewMatrix":{"semantic":"MODELVIEW","type":35676},"normal":{"semantic":"NORMAL","type":35665},"normalMatrix":{"semantic":"MODELVIEWINVERSETRANSPOSE","type":35675},"position":{"semantic":"POSITION","type":35665},"projectionMatrix":{"semantic":"PROJECTION","type":35676},"shininess":{"type":5126},"specular":{"type":35666},"batchId":{"semantic":"BATCHID","type":5126}},"program":"program_0","states":{"enable":[2929,2884]},"uniforms":{"u_ambient":"ambient","u_diffuse":"diffuse","u_emission":"emission","u_modelViewMatrix":"modelViewMatrix","u_normalMatrix":"normalMatrix","u_projectionMatrix":"projectionMatrix","u_shininess":"shininess","u_specular":"specular"}}}}