{"accessors":{"accessor_16":{"bufferView":"bufferView_82","byteOffset":0,"byteStride":0,"componentType":5123,"count":2553,"type":"SCALAR"},"accessor_18":{"bufferView":"bufferView_83","byteOffset":0,"byteStride":12,"componentType":5126,"count":2297,"max":[13.6951,60.1411,82.3763],"min":[-143.368,-23.6462,0.370316],"type":"VEC3"},"accessor_20":{"bufferView":"bufferView_83","byteOffset":27564,"byteStride":12,"componentType":5126,"count":2297,"max":[0.975925,0.980091,1],"min":[-0.98578,-0.975965,0],"type":"VEC3"},"accessor_36":{"bufferView":"bufferView_82","byteOffset":5106,"byteStride":0,"componentType":5123,"count":90,"type":"SCALAR"},"accessor_38":{"bufferView":"bufferView_83","byteOffset":55128,"byteStride":12,"componentType":5126,"count":90,"max":[29.5549,32.6338,8.07112],"min":[14.0355,11.3716,0.257397],"type":"VEC3"},"accessor_40":{"bufferView":"bufferView_83","byteOffset":56208,"byteStride":12,"componentType":5126,"count":90,"max":[0.977876,0.977405,1],"min":[-0.977876,-0.977405,0],"type":"VEC3"},"accessor_56":{"bufferView":"bufferView_82","byteOffset":5286,"byteStride":0,"componentType":5123,"count":234,"type":"SCALAR"},"accessor_58":{"bufferView":"bufferView_83","byteOffset":57288,"byteStride":12,"componentType":5126,"count":220,"max":[23.3799,-5.09085,9.5366],"min":[4.40939,-29.1849,0.362091],"type":"VEC3"},"accessor_60":{"bufferView":"bufferView_83","byteOffset":59928,"byteStride":12,"componentType":5126,"count":220,"max":[0.997995,0.97466,1],"min":[-0.997995,-0.974659,0],"type":"VEC3"},"accessor_76":{"bufferView":"bufferView_82","byteOffset":5754,"byteStride":0,"componentType":5123,"count":861,"type":"SCALAR"},"accessor_78":{"bufferView":"bufferView_83","byteOffset":62568,"byteStride":12,"componentType":5126,"count":795,"max":[78.2057,-69.7176,155.812],"min":[48.218,-120,0.012413],"type":"VEC3"},"accessor_80":{"bufferView":"bufferView_83","byteOffset":72108,"byteStride":12,"componentType":5126,"count":795,"max":[0.99901,0.999823,1],"min":[-0.99545,-0.981681,0],"type":"VEC3"},"accessor_b0":{"bufferView":"bufferView_b","byteOffset":0,"byteStride":0,"componentType":5123,"count":2297,"type":"SCALAR"},"accessor_b1":{"bufferView":"bufferView_b","byteOffset":4594,"byteStride":0,"componentType":5123,"count":90,"type":"SCALAR"},"accessor_b2":{"bufferView":"bufferView_b","byteOffset":4774,"byteStride":0,"componentType":5123,"count":220,"type":"SCALAR"},"accessor_b3":{"bufferView":"bufferView_b","byteOffset":5214,"byteStride":0,"componentType":5123,"count":795,"type":"SCALAR"}},"animations":{},"asset":{"generator":"collada2gltf@cf6371beb0bdc18ba603378d5e40c966da53d385","premultipliedAlpha":true,"profile":{"api":"WebGL","version":"1.0.2"},"version":"1.0"},"bufferViews":{"bufferView_82":{"buffer":"\\data\\3dcity\\miami\\workspace\\gridID_31\\gridID_31_high","byteLength":7476,"byteOffset":0,"target":34963},"bufferView_83":{"buffer":"\\data\\3dcity\\miami\\workspace\\gridID_31\\gridID_31_high","byteLength":81648,"byteOffset":7476,"target":34962},"bufferView_b":{"buffer":"buffer_b","byteLength":6804,"byteOffset":0,"target":34962}},"buffers":{"\\data\\3dcity\\miami\\workspace\\gridID_31\\gridID_31_high":{"byteLength":89124,"type":"arraybuffer","uri":"data:application/octet-stream;base64,"},"buffer_b":{"type":"arraybuffer","byteLength":6804,"uri":"data:application/octet-stream;base64,"}},"materials":{"__glTF__defaultMaterial0":{"name":"__glTF__defaultMaterial0","technique":"technique0","values":{"diffuse":[1,1,1,1]}}},"meshes":{"multipatch_footprint_1064-mesh":{"name":"multipatch_footprint.1064","primitives":[{"attributes":{"NORMAL":"accessor_20","POSITION":"accessor_18","BATCHID":"accessor_b0"},"indices":"accessor_16","material":"__glTF__defaultMaterial0","mode":4}]},"multipatch_footprint_1069-mesh":{"name":"multipatch_footprint.1069","primitives":[{"attributes":{"NORMAL":"accessor_40","POSITION":"accessor_38","BATCHID":"accessor_b1"},"indices":"accessor_36","material":"__glTF__defaultMaterial0","mode":4}]},"multipatch_footprint_1072-mesh":{"name":"multipatch_footprint.1072","primitives":[{"attributes":{"NORMAL":"accessor_60","POSITION":"accessor_58","BATCHID":"accessor_b2"},"indices":"accessor_56","material":"__glTF__defaultMaterial0","mode":4}]},"multipatch_footprint_1640-mesh":{"name":"multipatch_footprint.1640","primitives":[{"attributes":{"NORMAL":"accessor_80","POSITION":"accessor_78","BATCHID":"accessor_b3"},"indices":"accessor_76","material":"__glTF__defaultMaterial0","mode":4}]}},"nodes":{"gridID_31_w300492634_join":{"children":[],"matrix":[1,0,0,0,0,1,0,0,0,0,1,0,0.000366211,0.000335693,0,1],"meshes":["multipatch_footprint_1640-mesh"],"name":"gridID_31_w300492634_join"},"gridID_31_w300510703_join":{"children":[],"matrix":[1,0,0,0,0,1,0,0,0,0,1,0,0.000366211,0.000335693,0,1],"meshes":["multipatch_footprint_1064-mesh"],"name":"gridID_31_w300510703_join"},"gridID_31_w300510704_join":{"children":[],"matrix":[1,0,0,0,0,1,0,0,0,0,1,0,0.000366211,0.000335693,0,1],"meshes":["multipatch_footprint_1072-mesh"],"name":"gridID_31_w300510704_join"},"gridID_31_w300510706_join":{"children":[],"matrix":[1,0,0,0,0,1,0,0,0,0,1,0,0.000366211,0.000335693,0,1],"meshes":["multipatch_footprint_1069-mesh"],"name":"gridID_31_w300510706_join"},"node_4":{"children":["gridID_31_w300510703_join","gridID_31_w300510706_join","gridID_31_w300510704_join","gridID_31_w300492634_join"],"matrix":[1,0,0,0,0,0,-1,0,0,1,0,0,0,0,0,1],"name":"Y_UP_Transform"}},"programs":{"program_0":{"attributes":["a_normal","a_position","a_batchId"],"fragmentShader":"\\data\\3dcity\\miami\\workspace\\gridID_31\\gridID_31_high0FS","vertexShader":"\\data\\3dcity\\miami\\workspace\\gridID_31\\gridID_31_high0VS"}},"scene":"defaultScene","scenes":{"defaultScene":{"nodes":["node_4"]}},"shaders":{"\\data\\3dcity\\miami\\workspace\\gridID_31\\gridID_31_high0FS":{"type":35632,"uri":"data:text/plain;base64,"},"\\data\\3dcity\\miami\\workspace\\gridID_31\\gridID_31_high0VS":{"type":35633,"uri":"data:text/plain;base64,"}},"skins":{},"techniques":{"technique0":{"attributes":{"a_normal":"normal","a_position":"position","a_batchId":"batchId"},"parameters":{"diffuse":{"type":35666},"modelViewMatrix":{"semantic":"MODELVIEW","type":35676},"normal":{"semantic":"NORMAL","type":35665},"normalMatrix":{"semantic":"MODELVIEWINVERSETRANSPOSE","type":35675},"position":{"semantic":"POSITION","type":35665},"projectionMatrix":{"semantic":"PROJECTION","type":35676},"batchId":{"semantic":"BATCHID","type":5126}},"program":"program_0","states":{"enable":[2929,2884]},"uniforms":{"u_diffuse":"diffuse","u_modelViewMatrix":"modelViewMatrix","u_normalMatrix":"normalMatrix","u_projectionMatrix":"projectionMatrix"}}}}