{"accessors":{"accessor_101":{"bufferView":"bufferView_142","byteOffset":972,"byteStride":0,"componentType":5123,"count":66,"type":"SCALAR"},"accessor_103":{"bufferView":"bufferView_143","byteOffset":6000,"byteStride":12,"componentType":5126,"count":158,"max":[11.339,9.15385,12.4245],"min":[-10.25,-8.34616,-10.8865],"type":"VEC3"},"accessor_105":{"bufferView":"bufferView_143","byteOffset":7896,"byteStride":12,"componentType":5126,"count":158,"max":[0.987312,1,0.987361],"min":[-0.987312,0,-0.987807],"type":"VEC3"},"accessor_133":{"bufferView":"bufferView_142","byteOffset":1104,"byteStride":0,"componentType":5123,"count":168,"type":"SCALAR"},"accessor_136":{"bufferView":"bufferView_142","byteOffset":1440,"byteStride":0,"componentType":5123,"count":66,"type":"SCALAR"},"accessor_138":{"bufferView":"bufferView_143","byteOffset":9792,"byteStride":12,"componentType":5126,"count":168,"max":[11.3416,9.15385,12.425],"min":[-10.2474,-8.34616,-10.887],"type":"VEC3"},"accessor_140":{"bufferView":"bufferView_143","byteOffset":11808,"byteStride":12,"componentType":5126,"count":168,"max":[0.987481,1,0.987366],"min":[-0.987318,0,-0.987708],"type":"VEC3"},"accessor_28":{"bufferView":"bufferView_142","byteOffset":0,"byteStride":0,"componentType":5123,"count":216,"type":"SCALAR"},"accessor_31":{"bufferView":"bufferView_142","byteOffset":432,"byteStride":0,"componentType":5123,"count":102,"type":"SCALAR"},"accessor_33":{"bufferView":"bufferView_143","byteOffset":0,"byteStride":12,"componentType":5126,"count":250,"max":[19.9052,6.25,9.8685],"min":[-21.6828,-6.25,-8.87848],"type":"VEC3"},"accessor_35":{"bufferView":"bufferView_143","byteOffset":3000,"byteStride":12,"componentType":5126,"count":250,"max":[0.989496,1,0.989794],"min":[-0.989228,0,-0.989358],"type":"VEC3"},"accessor_63":{"bufferView":"bufferView_142","byteOffset":1572,"byteStride":0,"componentType":5123,"count":372,"type":"SCALAR"},"accessor_66":{"bufferView":"bufferView_142","byteOffset":2316,"byteStride":0,"componentType":5123,"count":114,"type":"SCALAR"},"accessor_68":{"bufferView":"bufferView_143","byteOffset":13824,"byteStride":12,"componentType":5126,"count":361,"max":[31.1814,8.42727,10.0103],"min":[-29.8356,-9.07273,-11.7977],"type":"VEC3"},"accessor_70":{"bufferView":"bufferView_143","byteOffset":18156,"byteStride":12,"componentType":5126,"count":361,"max":[0.987919,1,0.988126],"min":[-0.988787,0,-0.988212],"type":"VEC3"},"accessor_98":{"bufferView":"bufferView_142","byteOffset":636,"byteStride":0,"componentType":5123,"count":168,"type":"SCALAR"},"accessor_b0":{"bufferView":"bufferView_b","byteOffset":0,"byteStride":0,"componentType":5123,"count":250,"type":"SCALAR"},"accessor_b1":{"bufferView":"bufferView_b","byteOffset":500,"byteStride":0,"componentType":5123,"count":158,"type":"SCALAR"},"accessor_b2":{"bufferView":"bufferView_b","byteOffset":816,"byteStride":0,"componentType":5123,"count":168,"type":"SCALAR"},"accessor_b3":{"bufferView":"bufferView_b","byteOffset":1152,"byteStride":0,"componentType":5123,"count":361,"type":"SCALAR"}},"animations":{},"asset":{"generator":"collada2gltf@cf6371beb0bdc18ba603378d5e40c966da53d385","premultipliedAlpha":true,"profile":{"api":"WebGL","version":"1.0.2"},"version":"1.0"},"bufferViews":{"bufferView_142":{"buffer":"\\data\\ECNU\\workspace\\gridID_107\\gridID_107","byteLength":2544,"byteOffset":0,"target":34963},"bufferView_143":{"buffer":"\\data\\ECNU\\workspace\\gridID_107\\gridID_107","byteLength":22488,"byteOffset":2544,"target":34962},"bufferView_b":{"buffer":"buffer_b","byteLength":1874,"byteOffset":0,"target":34962}},"buffers":{"\\data\\ECNU\\workspace\\gridID_107\\gridID_107":{"byteLength":25032,"type":"arraybuffer","uri":"data:application/octet-stream;base64,"},"buffer_b":{"type":"arraybuffer","byteLength":1874,"uri":"data:application/octet-stream;base64,"}},"materials":{"BUILDING_DEFAULT_0-effect":{"name":"BUILDING_DEFAULT_0","technique":"technique0","values":{"ambient":[0,0,0,1],"diffuse":[0.723055,0.708376,0.672443,1],"emission":[0,0,0,1],"shininess":50,"specular":[0.5,0.5,0.5,1]}},"CONCRETE_0-effect":{"name":"CONCRETE_0","technique":"technique0","values":{"ambient":[0,0,0,1],"diffuse":[0.309469,0.327778,0.309469,1],"emission":[0,0,0,1],"shininess":50,"specular":[0.5,0.5,0.5,1]}}},"meshes":{"Building3382-mesh":{"name":"Building3382","primitives":[{"attributes":{"NORMAL":"accessor_35","POSITION":"accessor_33","BATCHID":"accessor_b0"},"indices":"accessor_28","material":"BUILDING_DEFAULT_0-effect","mode":4},{"attributes":{"NORMAL":"accessor_35","POSITION":"accessor_33","BATCHID":"accessor_b0"},"indices":"accessor_31","material":"CONCRETE_0-effect","mode":4}]},"Building3565-mesh":{"name":"Building3565","primitives":[{"attributes":{"NORMAL":"accessor_105","POSITION":"accessor_103","BATCHID":"accessor_b1"},"indices":"accessor_98","material":"BUILDING_DEFAULT_0-effect","mode":4},{"attributes":{"NORMAL":"accessor_105","POSITION":"accessor_103","BATCHID":"accessor_b1"},"indices":"accessor_101","material":"CONCRETE_0-effect","mode":4}]},"Building3566-mesh":{"name":"Building3566","primitives":[{"attributes":{"NORMAL":"accessor_140","POSITION":"accessor_138","BATCHID":"accessor_b2"},"indices":"accessor_133","material":"BUILDING_DEFAULT_0-effect","mode":4},{"attributes":{"NORMAL":"accessor_140","POSITION":"accessor_138","BATCHID":"accessor_b2"},"indices":"accessor_136","material":"CONCRETE_0-effect","mode":4}]},"Building4213-mesh":{"name":"Building4213","primitives":[{"attributes":{"NORMAL":"accessor_70","POSITION":"accessor_68","BATCHID":"accessor_b3"},"indices":"accessor_63","material":"BUILDING_DEFAULT_0-effect","mode":4},{"attributes":{"NORMAL":"accessor_70","POSITION":"accessor_68","BATCHID":"accessor_b3"},"indices":"accessor_66","material":"CONCRETE_0-effect","mode":4}]}},"nodes":{"model_gridID_107_w376403045":{"children":[],"matrix":[1,0,0,0,0,-1.62921e-7,1,0,0,-1,-1.62921e-7,0,66.7558,440.65,6.25007,1],"meshes":["Building3382-mesh"],"name":"model_gridID_107_w376403045"},"model_gridID_107_w387303595":{"children":[],"matrix":[1,0,0,0,0,-1.62921e-7,1,0,0,-1,-1.62921e-7,0,124.341,499.371,9.07281,1],"meshes":["Building4213-mesh"],"name":"model_gridID_107_w387303595"},"model_gridID_107_w387321870":{"children":[],"matrix":[1,0,0,0,0,-1.62921e-7,1,0,0,-1,-1.62921e-7,0,141.927,464.559,8.34623,1],"meshes":["Building3565-mesh"],"name":"model_gridID_107_w387321870"},"model_gridID_107_w387321871":{"children":[],"matrix":[1,0,0,0,0,-1.62921e-7,1,0,0,-1,-1.62921e-7,0,112.643,469.468,8.34623,1],"meshes":["Building3566-mesh"],"name":"model_gridID_107_w387321871"},"node_4":{"children":["model_gridID_107_w376403045","model_gridID_107_w387303595","model_gridID_107_w387321870","model_gridID_107_w387321871"],"matrix":[1,0,0,0,0,0,-1,0,0,1,0,0,0,0,0,1],"name":"Y_UP_Transform"}},"programs":{"program_0":{"attributes":["a_normal","a_position","a_batchId"],"fragmentShader":"\\data\\ECNU\\workspace\\gridID_107\\gridID_1070FS","vertexShader":"\\data\\ECNU\\workspace\\gridID_107\\gridID_1070VS"}},"scene":"defaultScene","scenes":{"defaultScene":{"nodes":["node_4"]}},"shaders":{"\\data\\ECNU\\workspace\\gridID_107\\gridID_1070FS":{"type":35632,"uri":"data:text/plain;base64,"},"\\data\\ECNU\\workspace\\gridID_107\\gridID_1070VS":{"type":35633,"uri":"data:text/plain;base64,"}},"skins":{},"techniques":{"technique0":{"attributes":{"a_normal":"normal","a_position":"position","a_batchId":"batchId"},"parameters":{"ambient":{"type":35666},"diffuse":{"type":35666},"emission":{"type":35666},"modelViewMatrix":{"semantic":"MODELVIEW","type":35676},"normal":{"semantic":"NORMAL","type":35665},"normalMatrix":{"semantic":"MODELVIEWINVERSETRANSPOSE","type":35675},"position":{"semantic":"POSITION","type":35665},"projectionMatrix":{"semantic":"PROJECTION","type":35676},"shininess":{"type":5126},"specular":{"type":35666},"batchId":{"semantic":"BATCHID","type":5126}},"program":"program_0","states":{"enable":[2929,2884]},"uniforms":{"u_ambient":"ambient","u_diffuse":"diffuse","u_emission":"emission","u_modelViewMatrix":"modelViewMatrix","u_normalMatrix":"normalMatrix","u_projectionMatrix":"projectionMatrix","u_shininess":"shininess","u_specular":"specular"}}}}