{
    "accessors": {
        "accessor_101": {
            "bufferView": "bufferView_177",
            "byteOffset": 228,
            "byteStride": 0,
            "componentType": 5123,
            "count": 12,
            "type": "SCALAR"
        },
        "accessor_103": {
            "bufferView": "bufferView_178",
            "byteOffset": 1392,
            "byteStride": 12,
            "componentType": 5126,
            "count": 40,
            "max": [
                13.5883,
                3.75,
                9.15497
            ],
            "min": [
                -13.3317,
                -3.75,
                -5.98303
            ],
            "type": "VEC3"
        },
        "accessor_105": {
            "bufferView": "bufferView_178",
            "byteOffset": 1872,
            "byteStride": 12,
            "componentType": 5126,
            "count": 40,
            "max": [
                0.996777,
                1,
                0.996745
            ],
            "min": [
                -0.996749,
                0,
                -0.996741
            ],
            "type": "VEC3"
        },
        "accessor_133": {
            "bufferView": "bufferView_177",
            "byteOffset": 0,
            "byteStride": 0,
            "componentType": 5123,
            "count": 30,
            "type": "SCALAR"
        },
        "accessor_136": {
            "bufferView": "bufferView_177",
            "byteOffset": 60,
            "byteStride": 0,
            "componentType": 5123,
            "count": 9,
            "type": "SCALAR"
        },
        "accessor_138": {
            "bufferView": "bufferView_178",
            "byteOffset": 0,
            "byteStride": 12,
            "componentType": 5126,
            "count": 25,
            "max": [
                10.0218,
                3.75,
                6.16217
            ],
            "min": [
                -6.97919,
                -3.75,
                -8.17487
            ],
            "type": "VEC3"
        },
        "accessor_140": {
            "bufferView": "bufferView_178",
            "byteOffset": 300,
            "byteStride": 12,
            "componentType": 5126,
            "count": 25,
            "max": [
                0.996734,
                1,
                0.996734
            ],
            "min": [
                -0.996725,
                0,
                -0.996738
            ],
            "type": "VEC3"
        },
        "accessor_168": {
            "bufferView": "bufferView_177",
            "byteOffset": 78,
            "byteStride": 0,
            "componentType": 5123,
            "count": 30,
            "type": "SCALAR"
        },
        "accessor_171": {
            "bufferView": "bufferView_177",
            "byteOffset": 138,
            "byteStride": 0,
            "componentType": 5123,
            "count": 9,
            "type": "SCALAR"
        },
        "accessor_173": {
            "bufferView": "bufferView_178",
            "byteOffset": 600,
            "byteStride": 12,
            "componentType": 5126,
            "count": 33,
            "max": [
                6.84961,
                3.75,
                6.27802
            ],
            "min": [
                -10.2174,
                -3.75,
                -8.07001
            ],
            "type": "VEC3"
        },
        "accessor_175": {
            "bufferView": "bufferView_178",
            "byteOffset": 996,
            "byteStride": 12,
            "componentType": 5126,
            "count": 33,
            "max": [
                0.996749,
                1,
                0.99671
            ],
            "min": [
                -0.99674,
                0,
                -0.99671
            ],
            "type": "VEC3"
        },
        "accessor_28": {
            "bufferView": "bufferView_177",
            "byteOffset": 330,
            "byteStride": 0,
            "componentType": 5123,
            "count": 30,
            "type": "SCALAR"
        },
        "accessor_31": {
            "bufferView": "bufferView_177",
            "byteOffset": 390,
            "byteStride": 0,
            "componentType": 5123,
            "count": 9,
            "type": "SCALAR"
        },
        "accessor_33": {
            "bufferView": "bufferView_178",
            "byteOffset": 2952,
            "byteStride": 12,
            "componentType": 5126,
            "count": 25,
            "max": [
                12.0494,
                3.75,
                9.04279
            ],
            "min": [
                -17.5456,
                -3.75,
                -6.76325
            ],
            "type": "VEC3"
        },
        "accessor_35": {
            "bufferView": "bufferView_178",
            "byteOffset": 3252,
            "byteStride": 12,
            "componentType": 5126,
            "count": 25,
            "max": [
                0.995492,
                1,
                0.995203
            ],
            "min": [
                -0.995167,
                0,
                -0.995206
            ],
            "type": "VEC3"
        },
        "accessor_63": {
            "bufferView": "bufferView_177",
            "byteOffset": 252,
            "byteStride": 0,
            "componentType": 5123,
            "count": 30,
            "type": "SCALAR"
        },
        "accessor_66": {
            "bufferView": "bufferView_177",
            "byteOffset": 312,
            "byteStride": 0,
            "componentType": 5123,
            "count": 9,
            "type": "SCALAR"
        },
        "accessor_68": {
            "bufferView": "bufferView_178",
            "byteOffset": 2352,
            "byteStride": 12,
            "componentType": 5126,
            "count": 25,
            "max": [
                17.5432,
                3.75,
                6.7608
            ],
            "min": [
                -12.0508,
                -3.75,
                -9.04517
            ],
            "type": "VEC3"
        },
        "accessor_70": {
            "bufferView": "bufferView_178",
            "byteOffset": 2652,
            "byteStride": 12,
            "componentType": 5126,
            "count": 25,
            "max": [
                0.995176,
                1,
                0.995244
            ],
            "min": [
                -0.995181,
                0,
                -0.995203
            ],
            "type": "VEC3"
        },
        "accessor_98": {
            "bufferView": "bufferView_177",
            "byteOffset": 156,
            "byteStride": 0,
            "componentType": 5123,
            "count": 36,
            "type": "SCALAR"
        }
    },
    "animations": {},
    "asset": {
        "generator": "collada2gltf@cf6371beb0bdc18ba603378d5e40c966da53d385",
        "premultipliedAlpha": true,
        "profile": {
            "api": "WebGL",
            "version": "1.0.2"
        },
        "version": "1.0"
    },
    "bufferViews": {
        "bufferView_177": {
            "buffer": "\\data\\ECNU\\workspace\\gridID_1\\gridID_1",
            "byteLength": 408,
            "byteOffset": 0,
            "target": 34963
        },
        "bufferView_178": {
            "buffer": "\\data\\ECNU\\workspace\\gridID_1\\gridID_1",
            "byteLength": 3552,
            "byteOffset": 408,
            "target": 34962
        }
    },
    "buffers": {
        "\\data\\ECNU\\workspace\\gridID_1\\gridID_1": {
            "byteLength": 3960,
            "type": "arraybuffer",
            "uri": "data:application/octet-stream;base64,"
        }
    },
    "materials": {
        "BUILDING_DEFAULT_0-effect": {
            "name": "BUILDING_DEFAULT_0",
            "technique": "technique0",
            "values": {
                "ambient": [
                    0,
                    0,
                    0,
                    1
                ],
                "diffuse": [
                    0.723055,
                    0.708376,
                    0.672443,
                    1
                ],
                "emission": [
                    0,
                    0,
                    0,
                    1
                ],
                "shininess": 50,
                "specular": [
                    0.5,
                    0.5,
                    0.5,
                    1
                ]
            }
        },
        "ROOF_DEFAULT_0-effect": {
            "name": "ROOF_DEFAULT_0",
            "technique": "technique0",
            "values": {
                "ambient": [
                    0,
                    0,
                    0,
                    1
                ],
                "diffuse": [
                    0.603827,
                    0.381326,
                    0.291771,
                    1
                ],
                "emission": [
                    0,
                    0,
                    0,
                    1
                ],
                "shininess": 50,
                "specular": [
                    0.5,
                    0.5,
                    0.5,
                    1
                ]
            }
        }
    },
    "meshes": {
        "Building3626-mesh": {
            "name": "Building3626",
            "primitives": [
                {
                    "attributes": {
                        "NORMAL": "accessor_140",
                        "POSITION": "accessor_138"
                    },
                    "indices": "accessor_133",
                    "material": "BUILDING_DEFAULT_0-effect",
                    "mode": 4
                },
                {
                    "attributes": {
                        "NORMAL": "accessor_140",
                        "POSITION": "accessor_138"
                    },
                    "indices": "accessor_136",
                    "material": "ROOF_DEFAULT_0-effect",
                    "mode": 4
                }
            ]
        },
        "Building3628-mesh": {
            "name": "Building3628",
            "primitives": [
                {
                    "attributes": {
                        "NORMAL": "accessor_175",
                        "POSITION": "accessor_173"
                    },
                    "indices": "accessor_168",
                    "material": "BUILDING_DEFAULT_0-effect",
                    "mode": 4
                },
                {
                    "attributes": {
                        "NORMAL": "accessor_175",
                        "POSITION": "accessor_173"
                    },
                    "indices": "accessor_171",
                    "material": "ROOF_DEFAULT_0-effect",
                    "mode": 4
                }
            ]
        },
        "Building3629-mesh": {
            "name": "Building3629",
            "primitives": [
                {
                    "attributes": {
                        "NORMAL": "accessor_105",
                        "POSITION": "accessor_103"
                    },
                    "indices": "accessor_98",
                    "material": "BUILDING_DEFAULT_0-effect",
                    "mode": 4
                },
                {
                    "attributes": {
                        "NORMAL": "accessor_105",
                        "POSITION": "accessor_103"
                    },
                    "indices": "accessor_101",
                    "material": "ROOF_DEFAULT_0-effect",
                    "mode": 4
                }
            ]
        },
        "Building3630-mesh": {
            "name": "Building3630",
            "primitives": [
                {
                    "attributes": {
                        "NORMAL": "accessor_70",
                        "POSITION": "accessor_68"
                    },
                    "indices": "accessor_63",
                    "material": "BUILDING_DEFAULT_0-effect",
                    "mode": 4
                },
                {
                    "attributes": {
                        "NORMAL": "accessor_70",
                        "POSITION": "accessor_68"
                    },
                    "indices": "accessor_66",
                    "material": "ROOF_DEFAULT_0-effect",
                    "mode": 4
                }
            ]
        },
        "Building3638-mesh": {
            "name": "Building3638",
            "primitives": [
                {
                    "attributes": {
                        "NORMAL": "accessor_35",
                        "POSITION": "accessor_33"
                    },
                    "indices": "accessor_28",
                    "material": "BUILDING_DEFAULT_0-effect",
                    "mode": 4
                },
                {
                    "attributes": {
                        "NORMAL": "accessor_35",
                        "POSITION": "accessor_33"
                    },
                    "indices": "accessor_31",
                    "material": "ROOF_DEFAULT_0-effect",
                    "mode": 4
                }
            ]
        }
    },
    "nodes": {
        "model_gridID_1_w389865175": {
            "children": [],
            "matrix": [
                1,
                0,
                0,
                0,
                0,
                -1.62921e-007,
                1,
                0,
                0,
                -1,
                -1.62921e-007,
                0,
                -453.95,
                -563.602,
                3.74991,
                1
            ],
            "meshes": [
                "Building3638-mesh"
            ],
            "name": "model_gridID_1_w389865175"
        },
        "model_gridID_1_w389865176": {
            "children": [],
            "matrix": [
                1,
                0,
                0,
                0,
                0,
                -1.62921e-007,
                1,
                0,
                0,
                -1,
                -1.62921e-007,
                0,
                -430.916,
                -565.305,
                3.74991,
                1
            ],
            "meshes": [
                "Building3630-mesh"
            ],
            "name": "model_gridID_1_w389865176"
        },
        "model_gridID_1_w389865180": {
            "children": [],
            "matrix": [
                1,
                0,
                0,
                0,
                0,
                -1.62921e-007,
                1,
                0,
                0,
                -1,
                -1.62921e-007,
                0,
                -439.526,
                -600.802,
                3.7499,
                1
            ],
            "meshes": [
                "Building3629-mesh"
            ],
            "name": "model_gridID_1_w389865180"
        },
        "model_gridID_1_w389865180_001": {
            "children": [],
            "matrix": [
                1,
                0,
                0,
                0,
                0,
                -1.62921e-007,
                1,
                0,
                0,
                -1,
                -1.62921e-007,
                0,
                -419.844,
                -603.84,
                3.7499,
                1
            ],
            "meshes": [
                "Building3626-mesh"
            ],
            "name": "model_gridID_1_w389865180_001"
        },
        "model_gridID_1_w389865182": {
            "children": [],
            "matrix": [
                1,
                0,
                0,
                0,
                0,
                -1.62921e-007,
                1,
                0,
                0,
                -1,
                -1.62921e-007,
                0,
                -458.537,
                -606.373,
                3.7499,
                1
            ],
            "meshes": [
                "Building3628-mesh"
            ],
            "name": "model_gridID_1_w389865182"
        },
        "node_5": {
            "children": [
                "model_gridID_1_w389865175",
                "model_gridID_1_w389865176",
                "model_gridID_1_w389865180",
                "model_gridID_1_w389865180_001",
                "model_gridID_1_w389865182"
            ],
            "matrix": [
                1,
                0,
                0,
                0,
                0,
                0,
                -1,
                0,
                0,
                1,
                0,
                0,
                0,
                0,
                0,
                1
            ],
            "name": "Y_UP_Transform"
        }
    },
    "programs": {
        "program_0": {
            "attributes": [
                "a_normal",
                "a_position"
            ],
            "fragmentShader": "\\data\\ECNU\\workspace\\gridID_1\\gridID_10FS",
            "vertexShader": "\\data\\ECNU\\workspace\\gridID_1\\gridID_10VS"
        }
    },
    "scene": "defaultScene",
    "scenes": {
        "defaultScene": {
            "nodes": [
                "node_5"
            ]
        }
    },
    "shaders": {
        "\\data\\ECNU\\workspace\\gridID_1\\gridID_10FS": {
            "type": 35632,
            "uri": "data:text/plain;base64,"
        },
        "\\data\\ECNU\\workspace\\gridID_1\\gridID_10VS": {
            "type": 35633,
            "uri": "data:text/plain;base64,"
        }
    },
    "skins": {},
    "techniques": {
        "technique0": {
            "attributes": {
                "a_normal": "normal",
                "a_position": "position"
            },
            "parameters": {
                "ambient": {
                    "type": 35666
                },
                "diffuse": {
                    "type": 35666
                },
                "emission": {
                    "type": 35666
                },
                "modelViewMatrix": {
                    "semantic": "MODELVIEW",
                    "type": 35676
                },
                "normal": {
                    "semantic": "NORMAL",
                    "type": 35665
                },
                "normalMatrix": {
                    "semantic": "MODELVIEWINVERSETRANSPOSE",
                    "type": 35675
                },
                "position": {
                    "semantic": "POSITION",
                    "type": 35665
                },
                "projectionMatrix": {
                    "semantic": "PROJECTION",
                    "type": 35676
                },
                "shininess": {
                    "type": 5126
                },
                "specular": {
                    "type": 35666
                }
            },
            "program": "program_0",
            "states": {
                "enable": [
                    2929,
                    2884
                ]
            },
            "uniforms": {
                "u_ambient": "ambient",
                "u_diffuse": "diffuse",
                "u_emission": "emission",
                "u_modelViewMatrix": "modelViewMatrix",
                "u_normalMatrix": "normalMatrix",
                "u_projectionMatrix": "projectionMatrix",
                "u_shininess": "shininess",
                "u_specular": "specular"
            }
        }
    }
}