{"accessors":{"accessor_100":{"bufferView":"bufferView_263","byteOffset":6672,"byteStride":12,"componentType":5126,"count":58,"max":[0.999606,1,0.99969],"min":[-0.999624,-1,-0.999585],"type":"VEC3"},"accessor_116":{"bufferView":"bufferView_262","byteOffset":888,"byteStride":0,"componentType":5123,"count":36,"type":"SCALAR"},"accessor_118":{"bufferView":"bufferView_263","byteOffset":7368,"byteStride":12,"componentType":5126,"count":28,"max":[-55.5219,8,-65.4598],"min":[-70.1939,0,-78.4014],"type":"VEC3"},"accessor_120":{"bufferView":"bufferView_263","byteOffset":7704,"byteStride":12,"componentType":5126,"count":28,"max":[0.999758,1,0.999751],"min":[-0.999757,-1,-0.99977],"type":"VEC3"},"accessor_136":{"bufferView":"bufferView_262","byteOffset":960,"byteStride":0,"componentType":5123,"count":36,"type":"SCALAR"},"accessor_138":{"bufferView":"bufferView_263","byteOffset":8040,"byteStride":12,"componentType":5126,"count":32,"max":[-7.64342,11,-16.4625],"min":[-17.0165,0,-38.3284],"type":"VEC3"},"accessor_140":{"bufferView":"bufferView_263","byteOffset":8424,"byteStride":12,"componentType":5126,"count":32,"max":[0.999992,1,0.999992],"min":[-0.999992,-1,-0.999992],"type":"VEC3"},"accessor_156":{"bufferView":"bufferView_262","byteOffset":1032,"byteStride":0,"componentType":5123,"count":36,"type":"SCALAR"},"accessor_158":{"bufferView":"bufferView_263","byteOffset":8808,"byteStride":12,"componentType":5126,"count":24,"max":[37.3519,11,-40.6027],"min":[20.743,0,-52.5677],"type":"VEC3"},"accessor_16":{"bufferView":"bufferView_262","byteOffset":0,"byteStride":0,"componentType":5123,"count":84,"type":"SCALAR"},"accessor_160":{"bufferView":"bufferView_263","byteOffset":9096,"byteStride":12,"componentType":5126,"count":24,"max":[0.999998,1,0.999999],"min":[-0.999998,-1,-0.999997],"type":"VEC3"},"accessor_176":{"bufferView":"bufferView_262","byteOffset":1104,"byteStride":0,"componentType":5123,"count":36,"type":"SCALAR"},"accessor_178":{"bufferView":"bufferView_263","byteOffset":9384,"byteStride":12,"componentType":5126,"count":30,"max":[-3.59141,11,-52.1351],"min":[-14.4896,0,-60.7505],"type":"VEC3"},"accessor_18":{"bufferView":"bufferView_263","byteOffset":0,"byteStride":12,"componentType":5126,"count":60,"max":[-55.7557,13,-27.4634],"min":[-67.2884,0,-55.8927],"type":"VEC3"},"accessor_180":{"bufferView":"bufferView_263","byteOffset":9744,"byteStride":12,"componentType":5126,"count":30,"max":[0.999987,1,0.999994],"min":[-0.999992,-1,-0.99999],"type":"VEC3"},"accessor_196":{"bufferView":"bufferView_262","byteOffset":1176,"byteStride":0,"componentType":5123,"count":84,"type":"SCALAR"},"accessor_198":{"bufferView":"bufferView_263","byteOffset":10104,"byteStride":12,"componentType":5126,"count":63,"max":[40.0904,10,-17.6368],"min":[16.4907,0,-35.0652],"type":"VEC3"},"accessor_20":{"bufferView":"bufferView_263","byteOffset":720,"byteStride":12,"componentType":5126,"count":60,"max":[0.999588,1,0.999566],"min":[-0.999571,-1,-0.999566],"type":"VEC3"},"accessor_200":{"bufferView":"bufferView_263","byteOffset":10860,"byteStride":12,"componentType":5126,"count":63,"max":[0.999794,1,0.999801],"min":[-0.999813,-1,-0.999793],"type":"VEC3"},"accessor_216":{"bufferView":"bufferView_262","byteOffset":1344,"byteStride":0,"componentType":5123,"count":84,"type":"SCALAR"},"accessor_218":{"bufferView":"bufferView_263","byteOffset":11616,"byteStride":12,"componentType":5126,"count":63,"max":[-34.1375,59,53.6834],"min":[-46.7945,0,14.2287],"type":"VEC3"},"accessor_220":{"bufferView":"bufferView_263","byteOffset":12372,"byteStride":12,"componentType":5126,"count":63,"max":[0.999959,1,0.999964],"min":[-0.999978,-1,-0.999975],"type":"VEC3"},"accessor_236":{"bufferView":"bufferView_262","byteOffset":1512,"byteStride":0,"componentType":5123,"count":84,"type":"SCALAR"},"accessor_238":{"bufferView":"bufferView_263","byteOffset":13128,"byteStride":12,"componentType":5126,"count":70,"max":[-2.87895,57,53.8194],"min":[-17.1056,0,13.3634],"type":"VEC3"},"accessor_240":{"bufferView":"bufferView_263","byteOffset":13968,"byteStride":12,"componentType":5126,"count":70,"max":[0.999514,1,0.999569],"min":[-0.999507,-1,-0.999497],"type":"VEC3"},"accessor_256":{"bufferView":"bufferView_262","byteOffset":1680,"byteStride":0,"componentType":5123,"count":84,"type":"SCALAR"},"accessor_258":{"bufferView":"bufferView_263","byteOffset":14808,"byteStride":12,"componentType":5126,"count":50,"max":[-22.4044,11,-28.7736],"min":[-32.9018,0,-56.5108],"type":"VEC3"},"accessor_260":{"bufferView":"bufferView_263","byteOffset":15408,"byteStride":12,"componentType":5126,"count":50,"max":[0.999999,1,1],"min":[-1,-1,-1],"type":"VEC3"},"accessor_36":{"bufferView":"bufferView_262","byteOffset":168,"byteStride":0,"componentType":5123,"count":84,"type":"SCALAR"},"accessor_38":{"bufferView":"bufferView_263","byteOffset":1440,"byteStride":12,"componentType":5126,"count":56,"max":[-39.0132,11,-27.8713],"min":[-50.2009,0,-56.5602],"type":"VEC3"},"accessor_40":{"bufferView":"bufferView_263","byteOffset":2112,"byteStride":12,"componentType":5126,"count":56,"max":[0.999803,1,0.999812],"min":[-0.999891,-1,-0.999784],"type":"VEC3"},"accessor_56":{"bufferView":"bufferView_262","byteOffset":336,"byteStride":0,"componentType":5123,"count":156,"type":"SCALAR"},"accessor_58":{"bufferView":"bufferView_263","byteOffset":2784,"byteStride":12,"componentType":5126,"count":105,"max":[39.8343,12,-59.1683],"min":[16.1233,0,-110.551],"type":"VEC3"},"accessor_60":{"bufferView":"bufferView_263","byteOffset":4044,"byteStride":12,"componentType":5126,"count":105,"max":[0.999578,1,0.999709],"min":[-0.999548,-1,-0.999547],"type":"VEC3"},"accessor_76":{"bufferView":"bufferView_262","byteOffset":648,"byteStride":0,"componentType":5123,"count":36,"type":"SCALAR"},"accessor_78":{"bufferView":"bufferView_263","byteOffset":5304,"byteStride":12,"componentType":5126,"count":28,"max":[37.5078,10,26.4656],"min":[13.6186,0,13.178],"type":"VEC3"},"accessor_80":{"bufferView":"bufferView_263","byteOffset":5640,"byteStride":12,"componentType":5126,"count":28,"max":[0.999866,1,0.99986],"min":[-0.999851,-1,-0.999861],"type":"VEC3"},"accessor_96":{"bufferView":"bufferView_262","byteOffset":720,"byteStride":0,"componentType":5123,"count":84,"type":"SCALAR"},"accessor_98":{"bufferView":"bufferView_263","byteOffset":5976,"byteStride":12,"componentType":5126,"count":58,"max":[12.3384,15,-19.256],"min":[0.404985,0,-47.3392],"type":"VEC3"},"accessor_b0":{"bufferView":"bufferView_b","byteOffset":0,"byteStride":0,"componentType":5123,"count":60,"type":"SCALAR"},"accessor_b1":{"bufferView":"bufferView_b","byteOffset":120,"byteStride":0,"componentType":5123,"count":56,"type":"SCALAR"},"accessor_b2":{"bufferView":"bufferView_b","byteOffset":232,"byteStride":0,"componentType":5123,"count":105,"type":"SCALAR"},"accessor_b3":{"bufferView":"bufferView_b","byteOffset":442,"byteStride":0,"componentType":5123,"count":28,"type":"SCALAR"},"accessor_b4":{"bufferView":"bufferView_b","byteOffset":498,"byteStride":0,"componentType":5123,"count":58,"type":"SCALAR"},"accessor_b5":{"bufferView":"bufferView_b","byteOffset":614,"byteStride":0,"componentType":5123,"count":28,"type":"SCALAR"},"accessor_b6":{"bufferView":"bufferView_b","byteOffset":670,"byteStride":0,"componentType":5123,"count":32,"type":"SCALAR"},"accessor_b7":{"bufferView":"bufferView_b","byteOffset":734,"byteStride":0,"componentType":5123,"count":24,"type":"SCALAR"},"accessor_b8":{"bufferView":"bufferView_b","byteOffset":782,"byteStride":0,"componentType":5123,"count":30,"type":"SCALAR"},"accessor_b9":{"bufferView":"bufferView_b","byteOffset":842,"byteStride":0,"componentType":5123,"count":63,"type":"SCALAR"},"accessor_b10":{"bufferView":"bufferView_b","byteOffset":968,"byteStride":0,"componentType":5123,"count":63,"type":"SCALAR"},"accessor_b11":{"bufferView":"bufferView_b","byteOffset":1094,"byteStride":0,"componentType":5123,"count":70,"type":"SCALAR"},"accessor_b12":{"bufferView":"bufferView_b","byteOffset":1234,"byteStride":0,"componentType":5123,"count":50,"type":"SCALAR"}},"animations":{},"asset":{"generator":"collada2gltf@cf6371beb0bdc18ba603378d5e40c966da53d385","premultipliedAlpha":true,"profile":{"api":"WebGL","version":"1.0.2"},"version":"1.0"},"bufferViews":{"bufferView_262":{"buffer":"\\data\\3dcity\\miami\\workspace\\gridID_34\\gridID_34","byteLength":1848,"byteOffset":0,"target":34963},"bufferView_263":{"buffer":"\\data\\3dcity\\miami\\workspace\\gridID_34\\gridID_34","byteLength":16008,"byteOffset":1848,"target":34962},"bufferView_b":{"buffer":"buffer_b","byteLength":1334,"byteOffset":0,"target":34962}},"buffers":{"\\data\\3dcity\\miami\\workspace\\gridID_34\\gridID_34":{"byteLength":17856,"type":"arraybuffer","uri":"data:application/octet-stream;base64,"},"buffer_b":{"type":"arraybuffer","byteLength":1334,"uri":"data:application/octet-stream;base64,"}},"materials":{"CityEngineMaterial_406-effect":{"name":"CityEngineMaterial_406","technique":"technique0","values":{"ambient":[1,1,1,1],"diffuse":[1,1,1,1],"emission":[0,0,0,1],"shininess":50,"specular":[0.5,0.5,0.5,1]}},"CityEngineMaterial_407-effect":{"name":"CityEngineMaterial_407","technique":"technique0","values":{"ambient":[1,1,1,1],"diffuse":[1,1,1,1],"emission":[0,0,0,1],"shininess":50,"specular":[0.5,0.5,0.5,1]}},"CityEngineMaterial_408-effect":{"name":"CityEngineMaterial_408","technique":"technique0","values":{"ambient":[1,1,1,1],"diffuse":[1,1,1,1],"emission":[0,0,0,1],"shininess":50,"specular":[0.5,0.5,0.5,1]}},"CityEngineMaterial_409-effect":{"name":"CityEngineMaterial_409","technique":"technique0","values":{"ambient":[1,1,1,1],"diffuse":[1,1,1,1],"emission":[0,0,0,1],"shininess":50,"specular":[0.5,0.5,0.5,1]}},"CityEngineMaterial_410-effect":{"name":"CityEngineMaterial_410","technique":"technique0","values":{"ambient":[1,1,1,1],"diffuse":[1,1,1,1],"emission":[0,0,0,1],"shininess":50,"specular":[0.5,0.5,0.5,1]}},"CityEngineMaterial_411-effect":{"name":"CityEngineMaterial_411","technique":"technique0","values":{"ambient":[1,1,1,1],"diffuse":[1,1,1,1],"emission":[0,0,0,1],"shininess":50,"specular":[0.5,0.5,0.5,1]}},"CityEngineMaterial_412-effect":{"name":"CityEngineMaterial_412","technique":"technique0","values":{"ambient":[1,1,1,1],"diffuse":[1,1,1,1],"emission":[0,0,0,1],"shininess":50,"specular":[0.5,0.5,0.5,1]}},"CityEngineMaterial_413-effect":{"name":"CityEngineMaterial_413","technique":"technique0","values":{"ambient":[1,1,1,1],"diffuse":[1,1,1,1],"emission":[0,0,0,1],"shininess":50,"specular":[0.5,0.5,0.5,1]}},"CityEngineMaterial_414-effect":{"name":"CityEngineMaterial_414","technique":"technique0","values":{"ambient":[1,1,1,1],"diffuse":[1,1,1,1],"emission":[0,0,0,1],"shininess":50,"specular":[0.5,0.5,0.5,1]}},"CityEngineMaterial_415-effect":{"name":"CityEngineMaterial_415","technique":"technique0","values":{"ambient":[1,1,1,1],"diffuse":[1,1,1,1],"emission":[0,0,0,1],"shininess":50,"specular":[0.5,0.5,0.5,1]}},"CityEngineMaterial_416-effect":{"name":"CityEngineMaterial_416","technique":"technique0","values":{"ambient":[1,1,1,1],"diffuse":[1,1,1,1],"emission":[0,0,0,1],"shininess":50,"specular":[0.5,0.5,0.5,1]}},"CityEngineMaterial_417-effect":{"name":"CityEngineMaterial_417","technique":"technique0","values":{"ambient":[1,1,1,1],"diffuse":[1,1,1,1],"emission":[0,0,0,1],"shininess":50,"specular":[0.5,0.5,0.5,1]}},"CityEngineMaterial_418-effect":{"name":"CityEngineMaterial_418","technique":"technique0","values":{"ambient":[1,1,1,1],"diffuse":[1,1,1,1],"emission":[0,0,0,1],"shininess":50,"specular":[0.5,0.5,0.5,1]}}},"meshes":{"mesh_CityEngineMaterial_404-mesh":{"name":"mesh_CityEngineMaterial.404","primitives":[{"attributes":{"NORMAL":"accessor_20","POSITION":"accessor_18","BATCHID":"accessor_b0"},"indices":"accessor_16","material":"CityEngineMaterial_406-effect","mode":4}]},"mesh_CityEngineMaterial_405-mesh":{"name":"mesh_CityEngineMaterial.405","primitives":[{"attributes":{"NORMAL":"accessor_40","POSITION":"accessor_38","BATCHID":"accessor_b1"},"indices":"accessor_36","material":"CityEngineMaterial_407-effect","mode":4}]},"mesh_CityEngineMaterial_406-mesh":{"name":"mesh_CityEngineMaterial.406","primitives":[{"attributes":{"NORMAL":"accessor_60","POSITION":"accessor_58","BATCHID":"accessor_b2"},"indices":"accessor_56","material":"CityEngineMaterial_408-effect","mode":4}]},"mesh_CityEngineMaterial_407-mesh":{"name":"mesh_CityEngineMaterial.407","primitives":[{"attributes":{"NORMAL":"accessor_80","POSITION":"accessor_78","BATCHID":"accessor_b3"},"indices":"accessor_76","material":"CityEngineMaterial_409-effect","mode":4}]},"mesh_CityEngineMaterial_408-mesh":{"name":"mesh_CityEngineMaterial.408","primitives":[{"attributes":{"NORMAL":"accessor_100","POSITION":"accessor_98","BATCHID":"accessor_b4"},"indices":"accessor_96","material":"CityEngineMaterial_410-effect","mode":4}]},"mesh_CityEngineMaterial_409-mesh":{"name":"mesh_CityEngineMaterial.409","primitives":[{"attributes":{"NORMAL":"accessor_120","POSITION":"accessor_118","BATCHID":"accessor_b5"},"indices":"accessor_116","material":"CityEngineMaterial_411-effect","mode":4}]},"mesh_CityEngineMaterial_410-mesh":{"name":"mesh_CityEngineMaterial.410","primitives":[{"attributes":{"NORMAL":"accessor_140","POSITION":"accessor_138","BATCHID":"accessor_b6"},"indices":"accessor_136","material":"CityEngineMaterial_412-effect","mode":4}]},"mesh_CityEngineMaterial_411-mesh":{"name":"mesh_CityEngineMaterial.411","primitives":[{"attributes":{"NORMAL":"accessor_160","POSITION":"accessor_158","BATCHID":"accessor_b7"},"indices":"accessor_156","material":"CityEngineMaterial_413-effect","mode":4}]},"mesh_CityEngineMaterial_412-mesh":{"name":"mesh_CityEngineMaterial.412","primitives":[{"attributes":{"NORMAL":"accessor_180","POSITION":"accessor_178","BATCHID":"accessor_b8"},"indices":"accessor_176","material":"CityEngineMaterial_414-effect","mode":4}]},"mesh_CityEngineMaterial_413-mesh":{"name":"mesh_CityEngineMaterial.413","primitives":[{"attributes":{"NORMAL":"accessor_200","POSITION":"accessor_198","BATCHID":"accessor_b9"},"indices":"accessor_196","material":"CityEngineMaterial_415-effect","mode":4}]},"mesh_CityEngineMaterial_414-mesh":{"name":"mesh_CityEngineMaterial.414","primitives":[{"attributes":{"NORMAL":"accessor_220","POSITION":"accessor_218","BATCHID":"accessor_b10"},"indices":"accessor_216","material":"CityEngineMaterial_416-effect","mode":4}]},"mesh_CityEngineMaterial_415-mesh":{"name":"mesh_CityEngineMaterial.415","primitives":[{"attributes":{"NORMAL":"accessor_240","POSITION":"accessor_238","BATCHID":"accessor_b11"},"indices":"accessor_236","material":"CityEngineMaterial_417-effect","mode":4}]},"mesh_CityEngineMaterial_416-mesh":{"name":"mesh_CityEngineMaterial.416","primitives":[{"attributes":{"NORMAL":"accessor_260","POSITION":"accessor_258","BATCHID":"accessor_b12"},"indices":"accessor_256","material":"CityEngineMaterial_418-effect","mode":4}]}},"nodes":{"CityEngineMaterial":{"children":[],"matrix":[1,0,0,0,0,-1.62921e-7,1,0,0,-1,-1.62921e-7,0,0,0,0,1],"meshes":["mesh_CityEngineMaterial_404-mesh"],"name":"CityEngineMaterial"},"CityEngineMaterial_001":{"children":[],"matrix":[1,0,0,0,0,-1.62921e-7,1,0,0,-1,-1.62921e-7,0,0,0,0,1],"meshes":["mesh_CityEngineMaterial_405-mesh"],"name":"CityEngineMaterial_001"},"CityEngineMaterial_002":{"children":[],"matrix":[1,0,0,0,0,-1.62921e-7,1,0,0,-1,-1.62921e-7,0,0,0,0,1],"meshes":["mesh_CityEngineMaterial_406-mesh"],"name":"CityEngineMaterial_002"},"CityEngineMaterial_003":{"children":[],"matrix":[1,0,0,0,0,-1.62921e-7,1,0,0,-1,-1.62921e-7,0,0,0,0,1],"meshes":["mesh_CityEngineMaterial_407-mesh"],"name":"CityEngineMaterial_003"},"CityEngineMaterial_004":{"children":[],"matrix":[1,0,0,0,0,-1.62921e-7,1,0,0,-1,-1.62921e-7,0,0,0,0,1],"meshes":["mesh_CityEngineMaterial_408-mesh"],"name":"CityEngineMaterial_004"},"CityEngineMaterial_005":{"children":[],"matrix":[1,0,0,0,0,-1.62921e-7,1,0,0,-1,-1.62921e-7,0,0,0,0,1],"meshes":["mesh_CityEngineMaterial_409-mesh"],"name":"CityEngineMaterial_005"},"CityEngineMaterial_006":{"children":[],"matrix":[1,0,0,0,0,-1.62921e-7,1,0,0,-1,-1.62921e-7,0,0,0,0,1],"meshes":["mesh_CityEngineMaterial_410-mesh"],"name":"CityEngineMaterial_006"},"CityEngineMaterial_007":{"children":[],"matrix":[1,0,0,0,0,-1.62921e-7,1,0,0,-1,-1.62921e-7,0,0,0,0,1],"meshes":["mesh_CityEngineMaterial_411-mesh"],"name":"CityEngineMaterial_007"},"CityEngineMaterial_008":{"children":[],"matrix":[1,0,0,0,0,-1.62921e-7,1,0,0,-1,-1.62921e-7,0,0,0,0,1],"meshes":["mesh_CityEngineMaterial_412-mesh"],"name":"CityEngineMaterial_008"},"CityEngineMaterial_009":{"children":[],"matrix":[1,0,0,0,0,-1.62921e-7,1,0,0,-1,-1.62921e-7,0,0,0,0,1],"meshes":["mesh_CityEngineMaterial_413-mesh"],"name":"CityEngineMaterial_009"},"CityEngineMaterial_010":{"children":[],"matrix":[1,0,0,0,0,-1.62921e-7,1,0,0,-1,-1.62921e-7,0,0,0,0,1],"meshes":["mesh_CityEngineMaterial_414-mesh"],"name":"CityEngineMaterial_010"},"CityEngineMaterial_011":{"children":[],"matrix":[1,0,0,0,0,-1.62921e-7,1,0,0,-1,-1.62921e-7,0,0,0,0,1],"meshes":["mesh_CityEngineMaterial_415-mesh"],"name":"CityEngineMaterial_011"},"CityEngineMaterial_012":{"children":[],"matrix":[1,0,0,0,0,-1.62921e-7,1,0,0,-1,-1.62921e-7,0,0,0,0,1],"meshes":["mesh_CityEngineMaterial_416-mesh"],"name":"CityEngineMaterial_012"},"node_13":{"children":["CityEngineMaterial","CityEngineMaterial_001","CityEngineMaterial_002","CityEngineMaterial_003","CityEngineMaterial_004","CityEngineMaterial_005","CityEngineMaterial_006","CityEngineMaterial_007","CityEngineMaterial_008","CityEngineMaterial_009","CityEngineMaterial_010","CityEngineMaterial_011","CityEngineMaterial_012"],"matrix":[1,0,0,0,0,0,-1,0,0,1,0,0,0,0,0,1],"name":"Y_UP_Transform"}},"programs":{"program_0":{"attributes":["a_normal","a_position","a_batchId"],"fragmentShader":"\\data\\3dcity\\miami\\workspace\\gridID_34\\gridID_340FS","vertexShader":"\\data\\3dcity\\miami\\workspace\\gridID_34\\gridID_340VS"}},"scene":"defaultScene","scenes":{"defaultScene":{"nodes":["node_13"]}},"shaders":{"\\data\\3dcity\\miami\\workspace\\gridID_34\\gridID_340FS":{"type":35632,"uri":"data:text/plain;base64,"},"\\data\\3dcity\\miami\\workspace\\gridID_34\\gridID_340VS":{"type":35633,"uri":"data:text/plain;base64,"}},"skins":{},"techniques":{"technique0":{"attributes":{"a_normal":"normal","a_position":"position","a_batchId":"batchId"},"parameters":{"ambient":{"type":35666},"diffuse":{"type":35666},"emission":{"type":35666},"modelViewMatrix":{"semantic":"MODELVIEW","type":35676},"normal":{"semantic":"NORMAL","type":35665},"normalMatrix":{"semantic":"MODELVIEWINVERSETRANSPOSE","type":35675},"position":{"semantic":"POSITION","type":35665},"projectionMatrix":{"semantic":"PROJECTION","type":35676},"shininess":{"type":5126},"specular":{"type":35666},"batchId":{"semantic":"BATCHID","type":5126}},"program":"program_0","states":{"enable":[2929,2884]},"uniforms":{"u_ambient":"ambient","u_diffuse":"diffuse","u_emission":"emission","u_modelViewMatrix":"modelViewMatrix","u_normalMatrix":"normalMatrix","u_projectionMatrix":"projectionMatrix","u_shininess":"shininess","u_specular":"specular"}}}}