{
    "accessors": {
        "accessor_16": {
            "bufferView": "bufferView_82",
            "byteOffset": 0,
            "byteStride": 0,
            "componentType": 5123,
            "count": 66,
            "type": "SCALAR"
        },
        "accessor_18": {
            "bufferView": "bufferView_83",
            "byteOffset": 0,
            "byteStride": 12,
            "componentType": 5126,
            "count": 62,
            "max": [
                50.4559,
                65.8979,
                12.1606
            ],
            "min": [
                3.26112,
                45.1279,
                0.815304
            ],
            "type": "VEC3"
        },
        "accessor_20": {
            "bufferView": "bufferView_83",
            "byteOffset": 744,
            "byteStride": 12,
            "componentType": 5126,
            "count": 62,
            "max": [
                0.993987,
                0.99967,
                1
            ],
            "min": [
                -0.999385,
                -0.999554,
                0
            ],
            "type": "VEC3"
        },
        "accessor_36": {
            "bufferView": "bufferView_82",
            "byteOffset": 132,
            "byteStride": 0,
            "componentType": 5123,
            "count": 60,
            "type": "SCALAR"
        },
        "accessor_38": {
            "bufferView": "bufferView_83",
            "byteOffset": 1488,
            "byteStride": 12,
            "componentType": 5126,
            "count": 58,
            "max": [
                50.9258,
                81.7149,
                5.05847
            ],
            "min": [
                28.2198,
                65.5009,
                1.57447
            ],
            "type": "VEC3"
        },
        "accessor_40": {
            "bufferView": "bufferView_83",
            "byteOffset": 2184,
            "byteStride": 12,
            "componentType": 5126,
            "count": 58,
            "max": [
                0.999677,
                0.99967,
                1
            ],
            "min": [
                -0.999677,
                -0.99967,
                0
            ],
            "type": "VEC3"
        },
        "accessor_56": {
            "bufferView": "bufferView_82",
            "byteOffset": 252,
            "byteStride": 0,
            "componentType": 5123,
            "count": 2094,
            "type": "SCALAR"
        },
        "accessor_58": {
            "bufferView": "bufferView_83",
            "byteOffset": 2880,
            "byteStride": 12,
            "componentType": 5126,
            "count": 1849,
            "max": [
                35.3313,
                29.8323,
                20.1805
            ],
            "min": [
                -43.6753,
                -60.769,
                0.760132
            ],
            "type": "VEC3"
        },
        "accessor_60": {
            "bufferView": "bufferView_83",
            "byteOffset": 25068,
            "byteStride": 12,
            "componentType": 5126,
            "count": 1849,
            "max": [
                0.999698,
                0.999687,
                1
            ],
            "min": [
                -0.999698,
                -0.99969,
                -1
            ],
            "type": "VEC3"
        },
        "accessor_76": {
            "bufferView": "bufferView_82",
            "byteOffset": 4440,
            "byteStride": 0,
            "componentType": 5123,
            "count": 591,
            "type": "SCALAR"
        },
        "accessor_78": {
            "bufferView": "bufferView_83",
            "byteOffset": 47256,
            "byteStride": 12,
            "componentType": 5126,
            "count": 557,
            "max": [
                97.4546,
                -14.1359,
                37.3631
            ],
            "min": [
                43.4758,
                -84.0756,
                0.33326
            ],
            "type": "VEC3"
        },
        "accessor_80": {
            "bufferView": "bufferView_83",
            "byteOffset": 53940,
            "byteStride": 12,
            "componentType": 5126,
            "count": 557,
            "max": [
                0.982134,
                0.981783,
                1
            ],
            "min": [
                -0.982127,
                -0.981714,
                0
            ],
            "type": "VEC3"
        }
    },
    "animations": {},
    "asset": {
        "generator": "collada2gltf@cf6371beb0bdc18ba603378d5e40c966da53d385",
        "premultipliedAlpha": true,
        "profile": {
            "api": "WebGL",
            "version": "1.0.2"
        },
        "version": "1.0"
    },
    "bufferViews": {
        "bufferView_82": {
            "buffer": "\\data\\3dcity\\miami\\workspace\\gridID_56\\gridID_56_high",
            "byteLength": 5624,
            "byteOffset": 0,
            "target": 34963
        },
        "bufferView_83": {
            "buffer": "\\data\\3dcity\\miami\\workspace\\gridID_56\\gridID_56_high",
            "byteLength": 60624,
            "byteOffset": 5624,
            "target": 34962
        }
    },
    "buffers": {
        "\\data\\3dcity\\miami\\workspace\\gridID_56\\gridID_56_high": {
            "byteLength": 66248,
            "type": "arraybuffer",
            "uri": "data:application/octet-stream;base64,"
        }
    },
    "materials": {
        "__glTF__defaultMaterial0": {
            "name": "__glTF__defaultMaterial0",
            "technique": "technique0",
            "values": {
                "diffuse": [
                    1,
                    1,
                    1,
                    1
                ]
            }
        }
    },
    "meshes": {
        "multipatch_footprint_202-mesh": {
            "name": "multipatch_footprint.202",
            "primitives": [
                {
                    "attributes": {
                        "NORMAL": "accessor_20",
                        "POSITION": "accessor_18"
                    },
                    "indices": "accessor_16",
                    "material": "__glTF__defaultMaterial0",
                    "mode": 4
                }
            ]
        },
        "multipatch_footprint_205-mesh": {
            "name": "multipatch_footprint.205",
            "primitives": [
                {
                    "attributes": {
                        "NORMAL": "accessor_40",
                        "POSITION": "accessor_38"
                    },
                    "indices": "accessor_36",
                    "material": "__glTF__defaultMaterial0",
                    "mode": 4
                }
            ]
        },
        "multipatch_footprint_212-mesh": {
            "name": "multipatch_footprint.212",
            "primitives": [
                {
                    "attributes": {
                        "NORMAL": "accessor_60",
                        "POSITION": "accessor_58"
                    },
                    "indices": "accessor_56",
                    "material": "__glTF__defaultMaterial0",
                    "mode": 4
                }
            ]
        },
        "multipatch_footprint_454-mesh": {
            "name": "multipatch_footprint.454",
            "primitives": [
                {
                    "attributes": {
                        "NORMAL": "accessor_80",
                        "POSITION": "accessor_78"
                    },
                    "indices": "accessor_76",
                    "material": "__glTF__defaultMaterial0",
                    "mode": 4
                }
            ]
        }
    },
    "nodes": {
        "gridID_56_w300225635_join": {
            "children": [],
            "matrix": [
                1,
                0,
                0,
                0,
                0,
                1,
                0,
                0,
                0,
                0,
                1,
                0,
                0.00038147,
                0.000335693,
                0,
                1
            ],
            "meshes": [
                "multipatch_footprint_454-mesh"
            ],
            "name": "gridID_56_w300225635_join"
        },
        "gridID_56_w300462722_join": {
            "children": [],
            "matrix": [
                1,
                0,
                0,
                0,
                0,
                1,
                0,
                0,
                0,
                0,
                1,
                0,
                0.00038147,
                0.000335693,
                0,
                1
            ],
            "meshes": [
                "multipatch_footprint_205-mesh"
            ],
            "name": "gridID_56_w300462722_join"
        },
        "gridID_56_w435237191_join": {
            "children": [],
            "matrix": [
                1,
                0,
                0,
                0,
                0,
                1,
                0,
                0,
                0,
                0,
                1,
                0,
                0.00038147,
                0.000335693,
                0,
                1
            ],
            "meshes": [
                "multipatch_footprint_202-mesh"
            ],
            "name": "gridID_56_w435237191_join"
        },
        "gridID_56_w435532183_join": {
            "children": [],
            "matrix": [
                1,
                0,
                0,
                0,
                0,
                1,
                0,
                0,
                0,
                0,
                1,
                0,
                0.00038147,
                0.000335693,
                0,
                1
            ],
            "meshes": [
                "multipatch_footprint_212-mesh"
            ],
            "name": "gridID_56_w435532183_join"
        },
        "node_4": {
            "children": [
                "gridID_56_w435237191_join",
                "gridID_56_w300462722_join",
                "gridID_56_w435532183_join",
                "gridID_56_w300225635_join"
            ],
            "matrix": [
                1,
                0,
                0,
                0,
                0,
                0,
                -1,
                0,
                0,
                1,
                0,
                0,
                0,
                0,
                0,
                1
            ],
            "name": "Y_UP_Transform"
        }
    },
    "programs": {
        "program_0": {
            "attributes": [
                "a_normal",
                "a_position"
            ],
            "fragmentShader": "\\data\\3dcity\\miami\\workspace\\gridID_56\\gridID_56_high0FS",
            "vertexShader": "\\data\\3dcity\\miami\\workspace\\gridID_56\\gridID_56_high0VS"
        }
    },
    "scene": "defaultScene",
    "scenes": {
        "defaultScene": {
            "nodes": [
                "node_4"
            ]
        }
    },
    "shaders": {
        "\\data\\3dcity\\miami\\workspace\\gridID_56\\gridID_56_high0FS": {
            "type": 35632,
            "uri": "data:text/plain;base64,"
        },
        "\\data\\3dcity\\miami\\workspace\\gridID_56\\gridID_56_high0VS": {
            "type": 35633,
            "uri": "data:text/plain;base64,"
        }
    },
    "skins": {},
    "techniques": {
        "technique0": {
            "attributes": {
                "a_normal": "normal",
                "a_position": "position"
            },
            "parameters": {
                "diffuse": {
                    "type": 35666
                },
                "modelViewMatrix": {
                    "semantic": "MODELVIEW",
                    "type": 35676
                },
                "normal": {
                    "semantic": "NORMAL",
                    "type": 35665
                },
                "normalMatrix": {
                    "semantic": "MODELVIEWINVERSETRANSPOSE",
                    "type": 35675
                },
                "position": {
                    "semantic": "POSITION",
                    "type": 35665
                },
                "projectionMatrix": {
                    "semantic": "PROJECTION",
                    "type": 35676
                }
            },
            "program": "program_0",
            "states": {
                "enable": [
                    2929,
                    2884
                ]
            },
            "uniforms": {
                "u_diffuse": "diffuse",
                "u_modelViewMatrix": "modelViewMatrix",
                "u_normalMatrix": "normalMatrix",
                "u_projectionMatrix": "projectionMatrix"
            }
        }
    }
}