{"accessors":{"accessor_16":{"bufferView":"bufferView_82","byteOffset":0,"byteStride":0,"componentType":5123,"count":84,"type":"SCALAR"},"accessor_18":{"bufferView":"bufferView_83","byteOffset":0,"byteStride":12,"componentType":5126,"count":59,"max":[97.3347,10,83.1846],"min":[43.8568,0,14.0384],"type":"VEC3"},"accessor_20":{"bufferView":"bufferView_83","byteOffset":708,"byteStride":12,"componentType":5126,"count":59,"max":[0.974885,1,0.970136],"min":[-0.974996,-1,-0.978955],"type":"VEC3"},"accessor_36":{"bufferView":"bufferView_82","byteOffset":168,"byteStride":0,"componentType":5123,"count":36,"type":"SCALAR"},"accessor_38":{"bufferView":"bufferView_83","byteOffset":1416,"byteStride":12,"componentType":5126,"count":32,"max":[53.4525,10,-64.6136],"min":[33.2592,0,-82.5369],"type":"VEC3"},"accessor_40":{"bufferView":"bufferView_83","byteOffset":1800,"byteStride":12,"componentType":5126,"count":32,"max":[0.999752,1,0.999748],"min":[-0.999752,-1,-0.999748],"type":"VEC3"},"accessor_56":{"bufferView":"bufferView_82","byteOffset":240,"byteStride":0,"componentType":5123,"count":228,"type":"SCALAR"},"accessor_58":{"bufferView":"bufferView_83","byteOffset":2184,"byteStride":12,"componentType":5126,"count":155,"max":[51.3263,21,-43.9215],"min":[5.64081,0,-62.6235],"type":"VEC3"},"accessor_60":{"bufferView":"bufferView_83","byteOffset":4044,"byteStride":12,"componentType":5126,"count":155,"max":[0.992586,1,0.999475],"min":[-0.999689,-1,-0.999824],"type":"VEC3"},"accessor_76":{"bufferView":"bufferView_82","byteOffset":696,"byteStride":0,"componentType":5123,"count":516,"type":"SCALAR"},"accessor_78":{"bufferView":"bufferView_83","byteOffset":5904,"byteStride":12,"componentType":5126,"count":328,"max":[35.2963,20,52.0355],"min":[-42.8834,0,-29.7683],"type":"VEC3"},"accessor_80":{"bufferView":"bufferView_83","byteOffset":9840,"byteStride":12,"componentType":5126,"count":328,"max":[0.99963,1,0.999552],"min":[-0.999946,-1,-0.999939],"type":"VEC3"},"accessor_b0":{"bufferView":"bufferView_b","byteOffset":0,"byteStride":0,"componentType":5123,"count":59,"type":"SCALAR"},"accessor_b1":{"bufferView":"bufferView_b","byteOffset":118,"byteStride":0,"componentType":5123,"count":32,"type":"SCALAR"},"accessor_b2":{"bufferView":"bufferView_b","byteOffset":182,"byteStride":0,"componentType":5123,"count":155,"type":"SCALAR"},"accessor_b3":{"bufferView":"bufferView_b","byteOffset":492,"byteStride":0,"componentType":5123,"count":328,"type":"SCALAR"}},"animations":{},"asset":{"generator":"collada2gltf@cf6371beb0bdc18ba603378d5e40c966da53d385","premultipliedAlpha":true,"profile":{"api":"WebGL","version":"1.0.2"},"version":"1.0"},"bufferViews":{"bufferView_82":{"buffer":"\\data\\3dcity\\miami\\workspace\\gridID_56\\gridID_56","byteLength":1728,"byteOffset":0,"target":34963},"bufferView_83":{"buffer":"\\data\\3dcity\\miami\\workspace\\gridID_56\\gridID_56","byteLength":13776,"byteOffset":1728,"target":34962},"bufferView_b":{"buffer":"buffer_b","byteLength":1148,"byteOffset":0,"target":34962}},"buffers":{"\\data\\3dcity\\miami\\workspace\\gridID_56\\gridID_56":{"byteLength":15504,"type":"arraybuffer","uri":"data:application/octet-stream;base64,"},"buffer_b":{"type":"arraybuffer","byteLength":1148,"uri":"data:application/octet-stream;base64,"}},"materials":{"CityEngineMaterial_551-effect":{"name":"CityEngineMaterial_551","technique":"technique0","values":{"ambient":[1,1,1,1],"diffuse":[1,1,1,1],"emission":[0,0,0,1],"shininess":50,"specular":[0.5,0.5,0.5,1]}},"CityEngineMaterial_552-effect":{"name":"CityEngineMaterial_552","technique":"technique0","values":{"ambient":[1,1,1,1],"diffuse":[1,1,1,1],"emission":[0,0,0,1],"shininess":50,"specular":[0.5,0.5,0.5,1]}},"CityEngineMaterial_553-effect":{"name":"CityEngineMaterial_553","technique":"technique0","values":{"ambient":[1,1,1,1],"diffuse":[1,1,1,1],"emission":[0,0,0,1],"shininess":50,"specular":[0.5,0.5,0.5,1]}},"CityEngineMaterial_554-effect":{"name":"CityEngineMaterial_554","technique":"technique0","values":{"ambient":[1,1,1,1],"diffuse":[1,1,1,1],"emission":[0,0,0,1],"shininess":50,"specular":[0.5,0.5,0.5,1]}}},"meshes":{"mesh_CityEngineMaterial_549-mesh":{"name":"mesh_CityEngineMaterial.549","primitives":[{"attributes":{"NORMAL":"accessor_20","POSITION":"accessor_18","BATCHID":"accessor_b0"},"indices":"accessor_16","material":"CityEngineMaterial_551-effect","mode":4}]},"mesh_CityEngineMaterial_550-mesh":{"name":"mesh_CityEngineMaterial.550","primitives":[{"attributes":{"NORMAL":"accessor_40","POSITION":"accessor_38","BATCHID":"accessor_b1"},"indices":"accessor_36","material":"CityEngineMaterial_552-effect","mode":4}]},"mesh_CityEngineMaterial_551-mesh":{"name":"mesh_CityEngineMaterial.551","primitives":[{"attributes":{"NORMAL":"accessor_60","POSITION":"accessor_58","BATCHID":"accessor_b2"},"indices":"accessor_56","material":"CityEngineMaterial_553-effect","mode":4}]},"mesh_CityEngineMaterial_552-mesh":{"name":"mesh_CityEngineMaterial.552","primitives":[{"attributes":{"NORMAL":"accessor_80","POSITION":"accessor_78","BATCHID":"accessor_b3"},"indices":"accessor_76","material":"CityEngineMaterial_554-effect","mode":4}]}},"nodes":{"CityEngineMaterial":{"children":[],"matrix":[1,0,0,0,0,-1.62921e-7,1,0,0,-1,-1.62921e-7,0,0,0,0,1],"meshes":["mesh_CityEngineMaterial_549-mesh"],"name":"CityEngineMaterial"},"CityEngineMaterial_001":{"children":[],"matrix":[1,0,0,0,0,-1.62921e-7,1,0,0,-1,-1.62921e-7,0,0,0,0,1],"meshes":["mesh_CityEngineMaterial_550-mesh"],"name":"CityEngineMaterial_001"},"CityEngineMaterial_002":{"children":[],"matrix":[1,0,0,0,0,-1.62921e-7,1,0,0,-1,-1.62921e-7,0,0,0,0,1],"meshes":["mesh_CityEngineMaterial_551-mesh"],"name":"CityEngineMaterial_002"},"CityEngineMaterial_003":{"children":[],"matrix":[1,0,0,0,0,-1.62921e-7,1,0,0,-1,-1.62921e-7,0,0,0,0,1],"meshes":["mesh_CityEngineMaterial_552-mesh"],"name":"CityEngineMaterial_003"},"node_4":{"children":["CityEngineMaterial","CityEngineMaterial_001","CityEngineMaterial_002","CityEngineMaterial_003"],"matrix":[1,0,0,0,0,0,-1,0,0,1,0,0,0,0,0,1],"name":"Y_UP_Transform"}},"programs":{"program_0":{"attributes":["a_normal","a_position","a_batchId"],"fragmentShader":"\\data\\3dcity\\miami\\workspace\\gridID_56\\gridID_560FS","vertexShader":"\\data\\3dcity\\miami\\workspace\\gridID_56\\gridID_560VS"}},"scene":"defaultScene","scenes":{"defaultScene":{"nodes":["node_4"]}},"shaders":{"\\data\\3dcity\\miami\\workspace\\gridID_56\\gridID_560FS":{"type":35632,"uri":"data:text/plain;base64,"},"\\data\\3dcity\\miami\\workspace\\gridID_56\\gridID_560VS":{"type":35633,"uri":"data:text/plain;base64,"}},"skins":{},"techniques":{"technique0":{"attributes":{"a_normal":"normal","a_position":"position","a_batchId":"batchId"},"parameters":{"ambient":{"type":35666},"diffuse":{"type":35666},"emission":{"type":35666},"modelViewMatrix":{"semantic":"MODELVIEW","type":35676},"normal":{"semantic":"NORMAL","type":35665},"normalMatrix":{"semantic":"MODELVIEWINVERSETRANSPOSE","type":35675},"position":{"semantic":"POSITION","type":35665},"projectionMatrix":{"semantic":"PROJECTION","type":35676},"shininess":{"type":5126},"specular":{"type":35666},"batchId":{"semantic":"BATCHID","type":5126}},"program":"program_0","states":{"enable":[2929,2884]},"uniforms":{"u_ambient":"ambient","u_diffuse":"diffuse","u_emission":"emission","u_modelViewMatrix":"modelViewMatrix","u_normalMatrix":"normalMatrix","u_projectionMatrix":"projectionMatrix","u_shininess":"shininess","u_specular":"specular"}}}}