{"accessors":{"accessor_100":{"bufferView":"bufferView_223","byteOffset":37800,"byteStride":12,"componentType":5126,"count":66,"max":[0.999193,0.999175,1],"min":[-0.999193,-0.999175,0],"type":"VEC3"},"accessor_116":{"bufferView":"bufferView_222","byteOffset":3558,"byteStride":0,"componentType":5123,"count":186,"type":"SCALAR"},"accessor_118":{"bufferView":"bufferView_223","byteOffset":38592,"byteStride":12,"componentType":5126,"count":179,"max":[38.1791,-4.34471,10.5848],"min":[17.9916,-16.0153,3.21806],"type":"VEC3"},"accessor_120":{"bufferView":"bufferView_223","byteOffset":40740,"byteStride":12,"componentType":5126,"count":179,"max":[0.999537,0.999527,1],"min":[-0.999558,-0.999527,0],"type":"VEC3"},"accessor_136":{"bufferView":"bufferView_222","byteOffset":3930,"byteStride":0,"componentType":5123,"count":246,"type":"SCALAR"},"accessor_138":{"bufferView":"bufferView_223","byteOffset":42888,"byteStride":12,"componentType":5126,"count":223,"max":[10.57,-8.45461,11.437],"min":[-5.15024,-31.8776,3.18611],"type":"VEC3"},"accessor_140":{"bufferView":"bufferView_223","byteOffset":45564,"byteStride":12,"componentType":5126,"count":223,"max":[0.999443,0.999431,1],"min":[-0.999443,-0.999431,0],"type":"VEC3"},"accessor_156":{"bufferView":"bufferView_222","byteOffset":4422,"byteStride":0,"componentType":5123,"count":120,"type":"SCALAR"},"accessor_158":{"bufferView":"bufferView_223","byteOffset":48240,"byteStride":12,"componentType":5126,"count":118,"max":[-11.0129,-12.7041,9.26777],"min":[-21.5761,-34.1177,3.49763],"type":"VEC3"},"accessor_16":{"bufferView":"bufferView_222","byteOffset":0,"byteStride":0,"componentType":5123,"count":984,"type":"SCALAR"},"accessor_160":{"bufferView":"bufferView_223","byteOffset":49656,"byteStride":12,"componentType":5126,"count":118,"max":[0.999649,0.999499,1],"min":[-0.99966,-0.999653,0],"type":"VEC3"},"accessor_176":{"bufferView":"bufferView_222","byteOffset":4662,"byteStride":0,"componentType":5123,"count":102,"type":"SCALAR"},"accessor_178":{"bufferView":"bufferView_223","byteOffset":51072,"byteStride":12,"componentType":5126,"count":95,"max":[-41.8171,-7.90685,10.1974],"min":[-54.9201,-35.8701,3.91599],"type":"VEC3"},"accessor_18":{"bufferView":"bufferView_223","byteOffset":0,"byteStride":12,"componentType":5126,"count":889,"max":[9.35025,-73.4874,22.593],"min":[-50.7906,-95.2573,3.59932],"type":"VEC3"},"accessor_180":{"bufferView":"bufferView_223","byteOffset":52212,"byteStride":12,"componentType":5126,"count":95,"max":[0.999543,0.999533,1],"min":[-0.999542,-0.999533,0],"type":"VEC3"},"accessor_196":{"bufferView":"bufferView_222","byteOffset":4866,"byteStride":0,"componentType":5123,"count":126,"type":"SCALAR"},"accessor_198":{"bufferView":"bufferView_223","byteOffset":53352,"byteStride":12,"componentType":5126,"count":118,"max":[-59.4697,-6.42033,7.96993],"min":[-72.2722,-36.3418,3.90103],"type":"VEC3"},"accessor_20":{"bufferView":"bufferView_223","byteOffset":10668,"byteStride":12,"componentType":5126,"count":889,"max":[0.999685,0.999679,1],"min":[-0.999685,-0.999679,0],"type":"VEC3"},"accessor_200":{"bufferView":"bufferView_223","byteOffset":54768,"byteStride":12,"componentType":5126,"count":118,"max":[0.999744,0.999731,1],"min":[-0.999727,-0.99946,0],"type":"VEC3"},"accessor_216":{"bufferView":"bufferView_222","byteOffset":5118,"byteStride":0,"componentType":5123,"count":30,"type":"SCALAR"},"accessor_218":{"bufferView":"bufferView_223","byteOffset":56184,"byteStride":12,"componentType":5126,"count":30,"max":[-46.2298,53.2983,11.943],"min":[-59.1207,12.9868,3.7409],"type":"VEC3"},"accessor_220":{"bufferView":"bufferView_223","byteOffset":56544,"byteStride":12,"componentType":5126,"count":30,"max":[0.999534,0.999524,1],"min":[-0.999534,-0.999523,0],"type":"VEC3"},"accessor_36":{"bufferView":"bufferView_222","byteOffset":1968,"byteStride":0,"componentType":5123,"count":291,"type":"SCALAR"},"accessor_38":{"bufferView":"bufferView_223","byteOffset":21336,"byteStride":12,"componentType":5126,"count":270,"max":[-55.1712,-66.7775,10.6683],"min":[-68.6305,-89.5924,3.70816],"type":"VEC3"},"accessor_40":{"bufferView":"bufferView_223","byteOffset":24576,"byteStride":12,"componentType":5126,"count":270,"max":[0.999453,0.99944,1],"min":[-0.999452,-0.99944,0],"type":"VEC3"},"accessor_56":{"bufferView":"bufferView_222","byteOffset":2550,"byteStride":0,"componentType":5123,"count":246,"type":"SCALAR"},"accessor_58":{"bufferView":"bufferView_223","byteOffset":27816,"byteStride":12,"componentType":5126,"count":220,"max":[32.7147,56.046,9.43205],"min":[0.652802,23.7514,3.40373],"type":"VEC3"},"accessor_60":{"bufferView":"bufferView_223","byteOffset":30456,"byteStride":12,"componentType":5126,"count":220,"max":[0.999523,0.99951,1],"min":[-0.999521,-0.99951,0],"type":"VEC3"},"accessor_76":{"bufferView":"bufferView_222","byteOffset":3042,"byteStride":0,"componentType":5123,"count":174,"type":"SCALAR"},"accessor_78":{"bufferView":"bufferView_223","byteOffset":33096,"byteStride":12,"componentType":5126,"count":163,"max":[-11.2158,54.4559,9.88743],"min":[-24.573,36.5103,3.40724],"type":"VEC3"},"accessor_80":{"bufferView":"bufferView_223","byteOffset":35052,"byteStride":12,"componentType":5126,"count":163,"max":[0.999753,0.999747,1],"min":[-0.999753,-0.999747,0],"type":"VEC3"},"accessor_96":{"bufferView":"bufferView_222","byteOffset":3390,"byteStride":0,"componentType":5123,"count":84,"type":"SCALAR"},"accessor_98":{"bufferView":"bufferView_223","byteOffset":37008,"byteStride":12,"componentType":5126,"count":66,"max":[-7.82895,9.59914,9.51953],"min":[-23.3232,-4.45847,3.54025],"type":"VEC3"},"accessor_b0":{"bufferView":"bufferView_b","byteOffset":0,"byteStride":0,"componentType":5123,"count":889,"type":"SCALAR"},"accessor_b1":{"bufferView":"bufferView_b","byteOffset":1778,"byteStride":0,"componentType":5123,"count":270,"type":"SCALAR"},"accessor_b2":{"bufferView":"bufferView_b","byteOffset":2318,"byteStride":0,"componentType":5123,"count":220,"type":"SCALAR"},"accessor_b3":{"bufferView":"bufferView_b","byteOffset":2758,"byteStride":0,"componentType":5123,"count":163,"type":"SCALAR"},"accessor_b4":{"bufferView":"bufferView_b","byteOffset":3084,"byteStride":0,"componentType":5123,"count":66,"type":"SCALAR"},"accessor_b5":{"bufferView":"bufferView_b","byteOffset":3216,"byteStride":0,"componentType":5123,"count":179,"type":"SCALAR"},"accessor_b6":{"bufferView":"bufferView_b","byteOffset":3574,"byteStride":0,"componentType":5123,"count":223,"type":"SCALAR"},"accessor_b7":{"bufferView":"bufferView_b","byteOffset":4020,"byteStride":0,"componentType":5123,"count":118,"type":"SCALAR"},"accessor_b8":{"bufferView":"bufferView_b","byteOffset":4256,"byteStride":0,"componentType":5123,"count":95,"type":"SCALAR"},"accessor_b9":{"bufferView":"bufferView_b","byteOffset":4446,"byteStride":0,"componentType":5123,"count":118,"type":"SCALAR"},"accessor_b10":{"bufferView":"bufferView_b","byteOffset":4682,"byteStride":0,"componentType":5123,"count":30,"type":"SCALAR"}},"animations":{},"asset":{"generator":"collada2gltf@cf6371beb0bdc18ba603378d5e40c966da53d385","premultipliedAlpha":true,"profile":{"api":"WebGL","version":"1.0.2"},"version":"1.0"},"bufferViews":{"bufferView_222":{"buffer":"\\data\\3dcity\\miami\\workspace\\gridID_43\\gridID_43_high","byteLength":5180,"byteOffset":0,"target":34963},"bufferView_223":{"buffer":"\\data\\3dcity\\miami\\workspace\\gridID_43\\gridID_43_high","byteLength":56904,"byteOffset":5180,"target":34962},"bufferView_b":{"buffer":"buffer_b","byteLength":4742,"byteOffset":0,"target":34962}},"buffers":{"\\data\\3dcity\\miami\\workspace\\gridID_43\\gridID_43_high":{"byteLength":62084,"type":"arraybuffer","uri":"data:application/octet-stream;base64,"},"buffer_b":{"type":"arraybuffer","byteLength":4742,"uri":"data:application/octet-stream;base64,"}},"materials":{"__glTF__defaultMaterial0":{"name":"__glTF__defaultMaterial0","technique":"technique0","values":{"diffuse":[1,1,1,1]}}},"meshes":{"multipatch_footprint_1646-mesh":{"name":"multipatch_footprint.1646","primitives":[{"attributes":{"NORMAL":"accessor_20","POSITION":"accessor_18","BATCHID":"accessor_b0"},"indices":"accessor_16","material":"__glTF__defaultMaterial0","mode":4}]},"multipatch_footprint_1666-mesh":{"name":"multipatch_footprint.1666","primitives":[{"attributes":{"NORMAL":"accessor_40","POSITION":"accessor_38","BATCHID":"accessor_b1"},"indices":"accessor_36","material":"__glTF__defaultMaterial0","mode":4}]},"multipatch_footprint_1949-mesh":{"name":"multipatch_footprint.1949","primitives":[{"attributes":{"NORMAL":"accessor_60","POSITION":"accessor_58","BATCHID":"accessor_b2"},"indices":"accessor_56","material":"__glTF__defaultMaterial0","mode":4}]},"multipatch_footprint_1956-mesh":{"name":"multipatch_footprint.1956","primitives":[{"attributes":{"NORMAL":"accessor_80","POSITION":"accessor_78","BATCHID":"accessor_b3"},"indices":"accessor_76","material":"__glTF__defaultMaterial0","mode":4}]},"multipatch_footprint_1957-mesh":{"name":"multipatch_footprint.1957","primitives":[{"attributes":{"NORMAL":"accessor_100","POSITION":"accessor_98","BATCHID":"accessor_b4"},"indices":"accessor_96","material":"__glTF__defaultMaterial0","mode":4}]},"multipatch_footprint_1962-mesh":{"name":"multipatch_footprint.1962","primitives":[{"attributes":{"NORMAL":"accessor_120","POSITION":"accessor_118","BATCHID":"accessor_b5"},"indices":"accessor_116","material":"__glTF__defaultMaterial0","mode":4}]},"multipatch_footprint_1968-mesh":{"name":"multipatch_footprint.1968","primitives":[{"attributes":{"NORMAL":"accessor_140","POSITION":"accessor_138","BATCHID":"accessor_b6"},"indices":"accessor_136","material":"__glTF__defaultMaterial0","mode":4}]},"multipatch_footprint_1972-mesh":{"name":"multipatch_footprint.1972","primitives":[{"attributes":{"NORMAL":"accessor_160","POSITION":"accessor_158","BATCHID":"accessor_b7"},"indices":"accessor_156","material":"__glTF__defaultMaterial0","mode":4}]},"multipatch_footprint_1973-mesh":{"name":"multipatch_footprint.1973","primitives":[{"attributes":{"NORMAL":"accessor_180","POSITION":"accessor_178","BATCHID":"accessor_b8"},"indices":"accessor_176","material":"__glTF__defaultMaterial0","mode":4}]},"multipatch_footprint_1976-mesh":{"name":"multipatch_footprint.1976","primitives":[{"attributes":{"NORMAL":"accessor_200","POSITION":"accessor_198","BATCHID":"accessor_b9"},"indices":"accessor_196","material":"__glTF__defaultMaterial0","mode":4}]},"multipatch_footprint_1997-mesh":{"name":"multipatch_footprint.1997","primitives":[{"attributes":{"NORMAL":"accessor_220","POSITION":"accessor_218","BATCHID":"accessor_b10"},"indices":"accessor_216","material":"__glTF__defaultMaterial0","mode":4}]}},"nodes":{"gridID_43_w435238979_join":{"children":[],"matrix":[1,0,0,0,0,1,0,0,0,0,1,0,0.000366211,0.000335693,0,1],"meshes":["multipatch_footprint_1646-mesh"],"name":"gridID_43_w435238979_join"},"gridID_43_w435517628_join":{"children":[],"matrix":[1,0,0,0,0,1,0,0,0,0,1,0,0.000366211,0.000335693,0,1],"meshes":["multipatch_footprint_1957-mesh"],"name":"gridID_43_w435517628_join"},"gridID_43_w435531761_join":{"children":[],"matrix":[1,0,0,0,0,1,0,0,0,0,1,0,0.000366211,0.000335693,0,1],"meshes":["multipatch_footprint_1976-mesh"],"name":"gridID_43_w435531761_join"},"gridID_43_w435536656_join":{"children":[],"matrix":[1,0,0,0,0,1,0,0,0,0,1,0,0.000366211,0.000335693,0,1],"meshes":["multipatch_footprint_1968-mesh"],"name":"gridID_43_w435536656_join"},"gridID_43_w435538613_join":{"children":[],"matrix":[1,0,0,0,0,1,0,0,0,0,1,0,0.000366211,0.000335693,0,1],"meshes":["multipatch_footprint_1997-mesh"],"name":"gridID_43_w435538613_join"},"gridID_43_w435731497_join":{"children":[],"matrix":[1,0,0,0,0,1,0,0,0,0,1,0,0.000366211,0.000335693,0,1],"meshes":["multipatch_footprint_1956-mesh"],"name":"gridID_43_w435731497_join"},"gridID_43_w435731915_join":{"children":[],"matrix":[1,0,0,0,0,1,0,0,0,0,1,0,0.000366211,0.000335693,0,1],"meshes":["multipatch_footprint_1973-mesh"],"name":"gridID_43_w435731915_join"},"gridID_43_w435737285_join":{"children":[],"matrix":[1,0,0,0,0,1,0,0,0,0,1,0,0.000366211,0.000335693,0,1],"meshes":["multipatch_footprint_1949-mesh"],"name":"gridID_43_w435737285_join"},"gridID_43_w435745947_join":{"children":[],"matrix":[1,0,0,0,0,1,0,0,0,0,1,0,0.000366211,0.000335693,0,1],"meshes":["multipatch_footprint_1972-mesh"],"name":"gridID_43_w435745947_join"},"gridID_43_w435847775_join":{"children":[],"matrix":[1,0,0,0,0,1,0,0,0,0,1,0,0.000366211,0.000335693,0,1],"meshes":["multipatch_footprint_1666-mesh"],"name":"gridID_43_w435847775_join"},"gridID_43_w436040177_join":{"children":[],"matrix":[1,0,0,0,0,1,0,0,0,0,1,0,0.000366211,0.000335693,0,1],"meshes":["multipatch_footprint_1962-mesh"],"name":"gridID_43_w436040177_join"},"node_11":{"children":["gridID_43_w435238979_join","gridID_43_w435847775_join","gridID_43_w435737285_join","gridID_43_w435731497_join","gridID_43_w435517628_join","gridID_43_w436040177_join","gridID_43_w435536656_join","gridID_43_w435745947_join","gridID_43_w435731915_join","gridID_43_w435531761_join","gridID_43_w435538613_join"],"matrix":[1,0,0,0,0,0,-1,0,0,1,0,0,0,0,0,1],"name":"Y_UP_Transform"}},"programs":{"program_0":{"attributes":["a_normal","a_position","a_batchId"],"fragmentShader":"\\data\\3dcity\\miami\\workspace\\gridID_43\\gridID_43_high0FS","vertexShader":"\\data\\3dcity\\miami\\workspace\\gridID_43\\gridID_43_high0VS"}},"scene":"defaultScene","scenes":{"defaultScene":{"nodes":["node_11"]}},"shaders":{"\\data\\3dcity\\miami\\workspace\\gridID_43\\gridID_43_high0FS":{"type":35632,"uri":"data:text/plain;base64,"},"\\data\\3dcity\\miami\\workspace\\gridID_43\\gridID_43_high0VS":{"type":35633,"uri":"data:text/plain;base64,"}},"skins":{},"techniques":{"technique0":{"attributes":{"a_normal":"normal","a_position":"position","a_batchId":"batchId"},"parameters":{"diffuse":{"type":35666},"modelViewMatrix":{"semantic":"MODELVIEW","type":35676},"normal":{"semantic":"NORMAL","type":35665},"normalMatrix":{"semantic":"MODELVIEWINVERSETRANSPOSE","type":35675},"position":{"semantic":"POSITION","type":35665},"projectionMatrix":{"semantic":"PROJECTION","type":35676},"batchId":{"semantic":"BATCHID","type":5126}},"program":"program_0","states":{"enable":[2929,2884]},"uniforms":{"u_diffuse":"diffuse","u_modelViewMatrix":"modelViewMatrix","u_normalMatrix":"normalMatrix","u_projectionMatrix":"projectionMatrix"}}}}