{
    "accessors": {
        "accessor_100": {
            "bufferView": "bufferView_163",
            "byteOffset": 28176,
            "byteStride": 12,
            "componentType": 5126,
            "count": 120,
            "max": [
                0.999677,
                0.99967,
                1
            ],
            "min": [
                -0.999677,
                -0.99967,
                0
            ],
            "type": "VEC3"
        },
        "accessor_116": {
            "bufferView": "bufferView_162",
            "byteOffset": 2646,
            "byteStride": 0,
            "componentType": 5123,
            "count": 132,
            "type": "SCALAR"
        },
        "accessor_118": {
            "bufferView": "bufferView_163",
            "byteOffset": 29616,
            "byteStride": 12,
            "componentType": 5126,
            "count": 124,
            "max": [
                58.4385,
                -9.13446,
                6.70226
            ],
            "min": [
                47.6767,
                -23.9367,
                1.55441
            ],
            "type": "VEC3"
        },
        "accessor_120": {
            "bufferView": "bufferView_163",
            "byteOffset": 31104,
            "byteStride": 12,
            "componentType": 5126,
            "count": 124,
            "max": [
                0.999473,
                0.999461,
                1
            ],
            "min": [
                -0.999473,
                -0.999461,
                0
            ],
            "type": "VEC3"
        },
        "accessor_136": {
            "bufferView": "bufferView_162",
            "byteOffset": 2910,
            "byteStride": 0,
            "componentType": 5123,
            "count": 732,
            "type": "SCALAR"
        },
        "accessor_138": {
            "bufferView": "bufferView_163",
            "byteOffset": 32592,
            "byteStride": 12,
            "componentType": 5126,
            "count": 669,
            "max": [
                12.5035,
                71.0359,
                45.2879
            ],
            "min": [
                -84.9174,
                -25.6988,
                0.948723
            ],
            "type": "VEC3"
        },
        "accessor_140": {
            "bufferView": "bufferView_163",
            "byteOffset": 40620,
            "byteStride": 12,
            "componentType": 5126,
            "count": 669,
            "max": [
                0.999673,
                0.999666,
                1
            ],
            "min": [
                -0.999673,
                -0.999666,
                0
            ],
            "type": "VEC3"
        },
        "accessor_156": {
            "bufferView": "bufferView_162",
            "byteOffset": 4374,
            "byteStride": 0,
            "componentType": 5123,
            "count": 996,
            "type": "SCALAR"
        },
        "accessor_158": {
            "bufferView": "bufferView_163",
            "byteOffset": 48648,
            "byteStride": 12,
            "componentType": 5126,
            "count": 919,
            "max": [
                22.3817,
                74.6233,
                50.6164
            ],
            "min": [
                -67.4338,
                -26.2998,
                0.846321
            ],
            "type": "VEC3"
        },
        "accessor_16": {
            "bufferView": "bufferView_162",
            "byteOffset": 0,
            "byteStride": 0,
            "componentType": 5123,
            "count": 867,
            "type": "SCALAR"
        },
        "accessor_160": {
            "bufferView": "bufferView_163",
            "byteOffset": 59676,
            "byteStride": 12,
            "componentType": 5126,
            "count": 919,
            "max": [
                0.99984,
                0.999721,
                1
            ],
            "min": [
                -0.99984,
                -0.999721,
                0
            ],
            "type": "VEC3"
        },
        "accessor_18": {
            "bufferView": "bufferView_163",
            "byteOffset": 0,
            "byteStride": 12,
            "componentType": 5126,
            "count": 798,
            "max": [
                75.7513,
                78.005,
                9.2827
            ],
            "min": [
                31.862,
                46.2237,
                1.07726
            ],
            "type": "VEC3"
        },
        "accessor_20": {
            "bufferView": "bufferView_163",
            "byteOffset": 9576,
            "byteStride": 12,
            "componentType": 5126,
            "count": 798,
            "max": [
                0.999925,
                0.999924,
                1
            ],
            "min": [
                -0.999925,
                -0.999924,
                0
            ],
            "type": "VEC3"
        },
        "accessor_36": {
            "bufferView": "bufferView_162",
            "byteOffset": 1734,
            "byteStride": 0,
            "componentType": 5123,
            "count": 156,
            "type": "SCALAR"
        },
        "accessor_38": {
            "bufferView": "bufferView_163",
            "byteOffset": 19152,
            "byteStride": 12,
            "componentType": 5126,
            "count": 148,
            "max": [
                74.2138,
                27.0019,
                11.1533
            ],
            "min": [
                72.715,
                15.2663,
                1.81553
            ],
            "type": "VEC3"
        },
        "accessor_40": {
            "bufferView": "bufferView_163",
            "byteOffset": 20928,
            "byteStride": 12,
            "componentType": 5126,
            "count": 148,
            "max": [
                0.999644,
                0.999636,
                1
            ],
            "min": [
                -0.999644,
                -0.999636,
                0
            ],
            "type": "VEC3"
        },
        "accessor_56": {
            "bufferView": "bufferView_162",
            "byteOffset": 2046,
            "byteStride": 0,
            "componentType": 5123,
            "count": 144,
            "type": "SCALAR"
        },
        "accessor_58": {
            "bufferView": "bufferView_163",
            "byteOffset": 22704,
            "byteStride": 12,
            "componentType": 5126,
            "count": 138,
            "max": [
                79.3416,
                30.668,
                7.38837
            ],
            "min": [
                48.5667,
                -1.72586,
                1.46536
            ],
            "type": "VEC3"
        },
        "accessor_60": {
            "bufferView": "bufferView_163",
            "byteOffset": 24360,
            "byteStride": 12,
            "componentType": 5126,
            "count": 138,
            "max": [
                0.999644,
                0.999636,
                1
            ],
            "min": [
                -0.999644,
                -0.999637,
                0
            ],
            "type": "VEC3"
        },
        "accessor_76": {
            "bufferView": "bufferView_162",
            "byteOffset": 2334,
            "byteStride": 0,
            "componentType": 5123,
            "count": 30,
            "type": "SCALAR"
        },
        "accessor_78": {
            "bufferView": "bufferView_163",
            "byteOffset": 26016,
            "byteStride": 12,
            "componentType": 5126,
            "count": 30,
            "max": [
                29.1574,
                11.5923,
                9.14402
            ],
            "min": [
                15.79,
                -14.1589,
                1.48164
            ],
            "type": "VEC3"
        },
        "accessor_80": {
            "bufferView": "bufferView_163",
            "byteOffset": 26376,
            "byteStride": 12,
            "componentType": 5126,
            "count": 30,
            "max": [
                0.999454,
                0.999442,
                1
            ],
            "min": [
                -0.999454,
                -0.999443,
                0
            ],
            "type": "VEC3"
        },
        "accessor_96": {
            "bufferView": "bufferView_162",
            "byteOffset": 2394,
            "byteStride": 0,
            "componentType": 5123,
            "count": 126,
            "type": "SCALAR"
        },
        "accessor_98": {
            "bufferView": "bufferView_163",
            "byteOffset": 26736,
            "byteStride": 12,
            "componentType": 5126,
            "count": 120,
            "max": [
                42.8141,
                -4.61134,
                6.71628
            ],
            "min": [
                31.6221,
                -21.2236,
                1.33163
            ],
            "type": "VEC3"
        }
    },
    "animations": {},
    "asset": {
        "generator": "collada2gltf@cf6371beb0bdc18ba603378d5e40c966da53d385",
        "premultipliedAlpha": true,
        "profile": {
            "api": "WebGL",
            "version": "1.0.2"
        },
        "version": "1.0"
    },
    "bufferViews": {
        "bufferView_162": {
            "buffer": "\\data\\3dcity\\miami\\workspace\\gridID_46\\gridID_46_high",
            "byteLength": 6368,
            "byteOffset": 0,
            "target": 34963
        },
        "bufferView_163": {
            "buffer": "\\data\\3dcity\\miami\\workspace\\gridID_46\\gridID_46_high",
            "byteLength": 70704,
            "byteOffset": 6368,
            "target": 34962
        }
    },
    "buffers": {
        "\\data\\3dcity\\miami\\workspace\\gridID_46\\gridID_46_high": {
            "byteLength": 77072,
            "type": "arraybuffer",
            "uri": "data:application/octet-stream;base64,"
        }
    },
    "materials": {
        "__glTF__defaultMaterial0": {
            "name": "__glTF__defaultMaterial0",
            "technique": "technique0",
            "values": {
                "diffuse": [
                    1,
                    1,
                    1,
                    1
                ]
            }
        }
    },
    "meshes": {
        "multipatch_footprint_075-mesh": {
            "name": "multipatch_footprint.075",
            "primitives": [
                {
                    "attributes": {
                        "NORMAL": "accessor_20",
                        "POSITION": "accessor_18"
                    },
                    "indices": "accessor_16",
                    "material": "__glTF__defaultMaterial0",
                    "mode": 4
                }
            ]
        },
        "multipatch_footprint_078-mesh": {
            "name": "multipatch_footprint.078",
            "primitives": [
                {
                    "attributes": {
                        "NORMAL": "accessor_40",
                        "POSITION": "accessor_38"
                    },
                    "indices": "accessor_36",
                    "material": "__glTF__defaultMaterial0",
                    "mode": 4
                }
            ]
        },
        "multipatch_footprint_081-mesh": {
            "name": "multipatch_footprint.081",
            "primitives": [
                {
                    "attributes": {
                        "NORMAL": "accessor_60",
                        "POSITION": "accessor_58"
                    },
                    "indices": "accessor_56",
                    "material": "__glTF__defaultMaterial0",
                    "mode": 4
                }
            ]
        },
        "multipatch_footprint_083-mesh": {
            "name": "multipatch_footprint.083",
            "primitives": [
                {
                    "attributes": {
                        "NORMAL": "accessor_80",
                        "POSITION": "accessor_78"
                    },
                    "indices": "accessor_76",
                    "material": "__glTF__defaultMaterial0",
                    "mode": 4
                }
            ]
        },
        "multipatch_footprint_086-mesh": {
            "name": "multipatch_footprint.086",
            "primitives": [
                {
                    "attributes": {
                        "NORMAL": "accessor_100",
                        "POSITION": "accessor_98"
                    },
                    "indices": "accessor_96",
                    "material": "__glTF__defaultMaterial0",
                    "mode": 4
                }
            ]
        },
        "multipatch_footprint_103-mesh": {
            "name": "multipatch_footprint.103",
            "primitives": [
                {
                    "attributes": {
                        "NORMAL": "accessor_120",
                        "POSITION": "accessor_118"
                    },
                    "indices": "accessor_116",
                    "material": "__glTF__defaultMaterial0",
                    "mode": 4
                }
            ]
        },
        "multipatch_footprint_172-mesh": {
            "name": "multipatch_footprint.172",
            "primitives": [
                {
                    "attributes": {
                        "NORMAL": "accessor_140",
                        "POSITION": "accessor_138"
                    },
                    "indices": "accessor_136",
                    "material": "__glTF__defaultMaterial0",
                    "mode": 4
                }
            ]
        },
        "multipatch_footprint_177-mesh": {
            "name": "multipatch_footprint.177",
            "primitives": [
                {
                    "attributes": {
                        "NORMAL": "accessor_160",
                        "POSITION": "accessor_158"
                    },
                    "indices": "accessor_156",
                    "material": "__glTF__defaultMaterial0",
                    "mode": 4
                }
            ]
        }
    },
    "nodes": {
        "gridID_46_w300465823_join": {
            "children": [],
            "matrix": [
                1,
                0,
                0,
                0,
                0,
                1,
                0,
                0,
                0,
                0,
                1,
                0,
                0.000379562,
                0.000335693,
                0,
                1
            ],
            "meshes": [
                "multipatch_footprint_177-mesh"
            ],
            "name": "gridID_46_w300465823_join"
        },
        "gridID_46_w300465824_join": {
            "children": [],
            "matrix": [
                1,
                0,
                0,
                0,
                0,
                1,
                0,
                0,
                0,
                0,
                1,
                0,
                0.000379562,
                0.000335693,
                0,
                1
            ],
            "meshes": [
                "multipatch_footprint_172-mesh"
            ],
            "name": "gridID_46_w300465824_join"
        },
        "gridID_46_w300499400_join": {
            "children": [],
            "matrix": [
                1,
                0,
                0,
                0,
                0,
                1,
                0,
                0,
                0,
                0,
                1,
                0,
                0.000379562,
                0.000335693,
                0,
                1
            ],
            "meshes": [
                "multipatch_footprint_078-mesh"
            ],
            "name": "gridID_46_w300499400_join"
        },
        "gridID_46_w300499403_join": {
            "children": [],
            "matrix": [
                1,
                0,
                0,
                0,
                0,
                1,
                0,
                0,
                0,
                0,
                1,
                0,
                0.000379562,
                0.000335693,
                0,
                1
            ],
            "meshes": [
                "multipatch_footprint_081-mesh"
            ],
            "name": "gridID_46_w300499403_join"
        },
        "gridID_46_w435375270_join": {
            "children": [],
            "matrix": [
                1,
                0,
                0,
                0,
                0,
                1,
                0,
                0,
                0,
                0,
                1,
                0,
                0.000379562,
                0.000335693,
                0,
                1
            ],
            "meshes": [
                "multipatch_footprint_103-mesh"
            ],
            "name": "gridID_46_w435375270_join"
        },
        "gridID_46_w435520034_join": {
            "children": [],
            "matrix": [
                1,
                0,
                0,
                0,
                0,
                1,
                0,
                0,
                0,
                0,
                1,
                0,
                0.000379562,
                0.000335693,
                0,
                1
            ],
            "meshes": [
                "multipatch_footprint_075-mesh"
            ],
            "name": "gridID_46_w435520034_join"
        },
        "gridID_46_w435847200_join": {
            "children": [],
            "matrix": [
                1,
                0,
                0,
                0,
                0,
                1,
                0,
                0,
                0,
                0,
                1,
                0,
                0.000379562,
                0.000335693,
                0,
                1
            ],
            "meshes": [
                "multipatch_footprint_086-mesh"
            ],
            "name": "gridID_46_w435847200_join"
        },
        "gridID_46_w436126666_join": {
            "children": [],
            "matrix": [
                1,
                0,
                0,
                0,
                0,
                1,
                0,
                0,
                0,
                0,
                1,
                0,
                0.000379562,
                0.000335693,
                0,
                1
            ],
            "meshes": [
                "multipatch_footprint_083-mesh"
            ],
            "name": "gridID_46_w436126666_join"
        },
        "node_8": {
            "children": [
                "gridID_46_w435520034_join",
                "gridID_46_w300499400_join",
                "gridID_46_w300499403_join",
                "gridID_46_w436126666_join",
                "gridID_46_w435847200_join",
                "gridID_46_w435375270_join",
                "gridID_46_w300465824_join",
                "gridID_46_w300465823_join"
            ],
            "matrix": [
                1,
                0,
                0,
                0,
                0,
                0,
                -1,
                0,
                0,
                1,
                0,
                0,
                0,
                0,
                0,
                1
            ],
            "name": "Y_UP_Transform"
        }
    },
    "programs": {
        "program_0": {
            "attributes": [
                "a_normal",
                "a_position"
            ],
            "fragmentShader": "\\data\\3dcity\\miami\\workspace\\gridID_46\\gridID_46_high0FS",
            "vertexShader": "\\data\\3dcity\\miami\\workspace\\gridID_46\\gridID_46_high0VS"
        }
    },
    "scene": "defaultScene",
    "scenes": {
        "defaultScene": {
            "nodes": [
                "node_8"
            ]
        }
    },
    "shaders": {
        "\\data\\3dcity\\miami\\workspace\\gridID_46\\gridID_46_high0FS": {
            "type": 35632,
            "uri": "data:text/plain;base64,"
        },
        "\\data\\3dcity\\miami\\workspace\\gridID_46\\gridID_46_high0VS": {
            "type": 35633,
            "uri": "data:text/plain;base64,"
        }
    },
    "skins": {},
    "techniques": {
        "technique0": {
            "attributes": {
                "a_normal": "normal",
                "a_position": "position"
            },
            "parameters": {
                "diffuse": {
                    "type": 35666
                },
                "modelViewMatrix": {
                    "semantic": "MODELVIEW",
                    "type": 35676
                },
                "normal": {
                    "semantic": "NORMAL",
                    "type": 35665
                },
                "normalMatrix": {
                    "semantic": "MODELVIEWINVERSETRANSPOSE",
                    "type": 35675
                },
                "position": {
                    "semantic": "POSITION",
                    "type": 35665
                },
                "projectionMatrix": {
                    "semantic": "PROJECTION",
                    "type": 35676
                }
            },
            "program": "program_0",
            "states": {
                "enable": [
                    2929,
                    2884
                ]
            },
            "uniforms": {
                "u_diffuse": "diffuse",
                "u_modelViewMatrix": "modelViewMatrix",
                "u_normalMatrix": "normalMatrix",
                "u_projectionMatrix": "projectionMatrix"
            }
        }
    }
}