{"accessors":{"accessor_40":{"bufferView":"bufferView_52","byteOffset":0,"byteStride":0,"componentType":5123,"count":120,"type":"SCALAR"},"accessor_43":{"bufferView":"bufferView_52","byteOffset":240,"byteStride":0,"componentType":5123,"count":42,"type":"SCALAR"},"accessor_46":{"bufferView":"bufferView_52","byteOffset":324,"byteStride":0,"componentType":5123,"count":12,"type":"SCALAR"},"accessor_48":{"bufferView":"bufferView_53","byteOffset":0,"byteStride":12,"componentType":5126,"count":128,"max":[37.9242,7.5,18.6923],"min":[-36.7528,-10,-19.4127],"type":"VEC3"},"accessor_50":{"bufferView":"bufferView_53","byteOffset":1536,"byteStride":12,"componentType":5126,"count":128,"max":[0.936209,1,0.936465],"min":[-0.936209,0,-0.936465],"type":"VEC3"},"accessor_b0":{"bufferView":"bufferView_b","byteOffset":0,"byteStride":0,"componentType":5123,"count":128,"type":"SCALAR"}},"animations":{},"asset":{"generator":"collada2gltf@cf6371beb0bdc18ba603378d5e40c966da53d385","premultipliedAlpha":true,"profile":{"api":"WebGL","version":"1.0.2"},"version":"1.0"},"bufferViews":{"bufferView_52":{"buffer":"\\data\\ECNU\\workspace\\gridID_84\\gridID_84","byteLength":348,"byteOffset":0,"target":34963},"bufferView_53":{"buffer":"\\data\\ECNU\\workspace\\gridID_84\\gridID_84","byteLength":3072,"byteOffset":348,"target":34962},"bufferView_b":{"buffer":"buffer_b","byteLength":256,"byteOffset":0,"target":34962}},"buffers":{"\\data\\ECNU\\workspace\\gridID_84\\gridID_84":{"byteLength":3420,"type":"arraybuffer","uri":"data:application/octet-stream;base64,"},"buffer_b":{"type":"arraybuffer","byteLength":256,"uri":"data:application/octet-stream;base64,"}},"materials":{"BUILDING_DEFAULT_0-effect":{"name":"BUILDING_DEFAULT_0","technique":"technique0","values":{"ambient":[0,0,0,1],"diffuse":[0.723055,0.708376,0.672443,1],"emission":[0,0,0,1],"shininess":50,"specular":[0.5,0.5,0.5,1]}},"CONCRETE_0-effect":{"name":"CONCRETE_0","technique":"technique0","values":{"ambient":[0,0,0,1],"diffuse":[0.309469,0.327778,0.309469,1],"emission":[0,0,0,1],"shininess":50,"specular":[0.5,0.5,0.5,1]}},"ROOF_DEFAULT_0-effect":{"name":"ROOF_DEFAULT_0","technique":"technique0","values":{"ambient":[0,0,0,1],"diffuse":[0.603827,0.381326,0.291771,1],"emission":[0,0,0,1],"shininess":50,"specular":[0.5,0.5,0.5,1]}}},"meshes":{"Building4126-mesh":{"name":"Building4126","primitives":[{"attributes":{"NORMAL":"accessor_50","POSITION":"accessor_48","BATCHID":"accessor_b0"},"indices":"accessor_40","material":"BUILDING_DEFAULT_0-effect","mode":4},{"attributes":{"NORMAL":"accessor_50","POSITION":"accessor_48","BATCHID":"accessor_b0"},"indices":"accessor_43","material":"ROOF_DEFAULT_0-effect","mode":4},{"attributes":{"NORMAL":"accessor_50","POSITION":"accessor_48","BATCHID":"accessor_b0"},"indices":"accessor_46","material":"CONCRETE_0-effect","mode":4}]}},"nodes":{"model_gridID_84_w116940046":{"children":[],"matrix":[1,0,0,0,0,-1.62921e-7,1,0,0,-1,-1.62921e-7,0,-27.9002,289.681,10,1],"meshes":["Building4126-mesh"],"name":"model_gridID_84_w116940046"},"node_1":{"children":["model_gridID_84_w116940046"],"matrix":[1,0,0,0,0,0,-1,0,0,1,0,0,0,0,0,1],"name":"Y_UP_Transform"}},"programs":{"program_0":{"attributes":["a_normal","a_position","a_batchId"],"fragmentShader":"\\data\\ECNU\\workspace\\gridID_84\\gridID_840FS","vertexShader":"\\data\\ECNU\\workspace\\gridID_84\\gridID_840VS"}},"scene":"defaultScene","scenes":{"defaultScene":{"nodes":["node_1"]}},"shaders":{"\\data\\ECNU\\workspace\\gridID_84\\gridID_840FS":{"type":35632,"uri":"data:text/plain;base64,"},"\\data\\ECNU\\workspace\\gridID_84\\gridID_840VS":{"type":35633,"uri":"data:text/plain;base64,"}},"skins":{},"techniques":{"technique0":{"attributes":{"a_normal":"normal","a_position":"position","a_batchId":"batchId"},"parameters":{"ambient":{"type":35666},"diffuse":{"type":35666},"emission":{"type":35666},"modelViewMatrix":{"semantic":"MODELVIEW","type":35676},"normal":{"semantic":"NORMAL","type":35665},"normalMatrix":{"semantic":"MODELVIEWINVERSETRANSPOSE","type":35675},"position":{"semantic":"POSITION","type":35665},"projectionMatrix":{"semantic":"PROJECTION","type":35676},"shininess":{"type":5126},"specular":{"type":35666},"batchId":{"semantic":"BATCHID","type":5126}},"program":"program_0","states":{"enable":[2929,2884]},"uniforms":{"u_ambient":"ambient","u_diffuse":"diffuse","u_emission":"emission","u_modelViewMatrix":"modelViewMatrix","u_normalMatrix":"normalMatrix","u_projectionMatrix":"projectionMatrix","u_shininess":"shininess","u_specular":"specular"}}}}