{"accessors":{"accessor_16":{"bufferView":"bufferView_42","byteOffset":0,"byteStride":0,"componentType":5123,"count":624,"type":"SCALAR"},"accessor_18":{"bufferView":"bufferView_43","byteOffset":0,"byteStride":12,"componentType":5126,"count":568,"max":[-0.475447,25.8652,34.312],"min":[-79.1615,-76.7705,0.1949],"type":"VEC3"},"accessor_20":{"bufferView":"bufferView_43","byteOffset":6816,"byteStride":12,"componentType":5126,"count":568,"max":[0.999517,0.999524,1],"min":[-0.99951,-0.999515,0],"type":"VEC3"},"accessor_36":{"bufferView":"bufferView_42","byteOffset":1248,"byteStride":0,"componentType":5123,"count":897,"type":"SCALAR"},"accessor_38":{"bufferView":"bufferView_43","byteOffset":13632,"byteStride":12,"componentType":5126,"count":810,"max":[60.7964,-4.18298,16.1294],"min":[-6.65278,-47.0663,0.697338],"type":"VEC3"},"accessor_40":{"bufferView":"bufferView_43","byteOffset":23352,"byteStride":12,"componentType":5126,"count":810,"max":[0.999834,0.999425,1],"min":[-0.99972,-0.999425,-1],"type":"VEC3"},"accessor_b0":{"bufferView":"bufferView_b","byteOffset":0,"byteStride":0,"componentType":5123,"count":568,"type":"SCALAR"},"accessor_b1":{"bufferView":"bufferView_b","byteOffset":1136,"byteStride":0,"componentType":5123,"count":810,"type":"SCALAR"}},"animations":{},"asset":{"generator":"collada2gltf@cf6371beb0bdc18ba603378d5e40c966da53d385","premultipliedAlpha":true,"profile":{"api":"WebGL","version":"1.0.2"},"version":"1.0"},"bufferViews":{"bufferView_42":{"buffer":"\\data\\3dcity\\miami\\workspace\\gridID_55\\gridID_55_high","byteLength":3044,"byteOffset":0,"target":34963},"bufferView_43":{"buffer":"\\data\\3dcity\\miami\\workspace\\gridID_55\\gridID_55_high","byteLength":33072,"byteOffset":3044,"target":34962},"bufferView_b":{"buffer":"buffer_b","byteLength":2756,"byteOffset":0,"target":34962}},"buffers":{"\\data\\3dcity\\miami\\workspace\\gridID_55\\gridID_55_high":{"byteLength":36116,"type":"arraybuffer","uri":"data:application/octet-stream;base64,"},"buffer_b":{"type":"arraybuffer","byteLength":2756,"uri":"data:application/octet-stream;base64,"}},"materials":{"__glTF__defaultMaterial0":{"name":"__glTF__defaultMaterial0","technique":"technique0","values":{"diffuse":[1,1,1,1]}}},"meshes":{"multipatch_footprint_123-mesh":{"name":"multipatch_footprint.123","primitives":[{"attributes":{"NORMAL":"accessor_20","POSITION":"accessor_18","BATCHID":"accessor_b0"},"indices":"accessor_16","material":"__glTF__defaultMaterial0","mode":4}]},"multipatch_footprint_129-mesh":{"name":"multipatch_footprint.129","primitives":[{"attributes":{"NORMAL":"accessor_40","POSITION":"accessor_38","BATCHID":"accessor_b1"},"indices":"accessor_36","material":"__glTF__defaultMaterial0","mode":4}]}},"nodes":{"gridID_55_w319426351_join":{"children":[],"matrix":[1,0,0,0,0,1,0,0,0,0,1,0,0.000379562,0.000335693,0,1],"meshes":["multipatch_footprint_123-mesh"],"name":"gridID_55_w319426351_join"},"gridID_55_w436110281_join":{"children":[],"matrix":[1,0,0,0,0,1,0,0,0,0,1,0,0.000379562,0.000335693,0,1],"meshes":["multipatch_footprint_129-mesh"],"name":"gridID_55_w436110281_join"},"node_2":{"children":["gridID_55_w319426351_join","gridID_55_w436110281_join"],"matrix":[1,0,0,0,0,0,-1,0,0,1,0,0,0,0,0,1],"name":"Y_UP_Transform"}},"programs":{"program_0":{"attributes":["a_normal","a_position","a_batchId"],"fragmentShader":"\\data\\3dcity\\miami\\workspace\\gridID_55\\gridID_55_high0FS","vertexShader":"\\data\\3dcity\\miami\\workspace\\gridID_55\\gridID_55_high0VS"}},"scene":"defaultScene","scenes":{"defaultScene":{"nodes":["node_2"]}},"shaders":{"\\data\\3dcity\\miami\\workspace\\gridID_55\\gridID_55_high0FS":{"type":35632,"uri":"data:text/plain;base64,"},"\\data\\3dcity\\miami\\workspace\\gridID_55\\gridID_55_high0VS":{"type":35633,"uri":"data:text/plain;base64,"}},"skins":{},"techniques":{"technique0":{"attributes":{"a_normal":"normal","a_position":"position","a_batchId":"batchId"},"parameters":{"diffuse":{"type":35666},"modelViewMatrix":{"semantic":"MODELVIEW","type":35676},"normal":{"semantic":"NORMAL","type":35665},"normalMatrix":{"semantic":"MODELVIEWINVERSETRANSPOSE","type":35675},"position":{"semantic":"POSITION","type":35665},"projectionMatrix":{"semantic":"PROJECTION","type":35676},"batchId":{"semantic":"BATCHID","type":5126}},"program":"program_0","states":{"enable":[2929,2884]},"uniforms":{"u_diffuse":"diffuse","u_modelViewMatrix":"modelViewMatrix","u_normalMatrix":"normalMatrix","u_projectionMatrix":"projectionMatrix"}}}}