{
    "accessors": {
        "accessor_108": {
            "bufferView": "bufferView_152",
            "byteOffset": 0,
            "byteStride": 0,
            "componentType": 5123,
            "count": 24,
            "type": "SCALAR"
        },
        "accessor_111": {
            "bufferView": "bufferView_152",
            "byteOffset": 48,
            "byteStride": 0,
            "componentType": 5123,
            "count": 6,
            "type": "SCALAR"
        },
        "accessor_113": {
            "bufferView": "bufferView_153",
            "byteOffset": 0,
            "byteStride": 12,
            "componentType": 5126,
            "count": 20,
            "max": [
                2.66254,
                10,
                3.73502
            ],
            "min": [
                -2.66748,
                -10,
                -3.75699
            ],
            "type": "VEC3"
        },
        "accessor_115": {
            "bufferView": "bufferView_153",
            "byteOffset": 240,
            "byteStride": 12,
            "componentType": 5126,
            "count": 20,
            "max": [
                0.964159,
                1,
                0.9628
            ],
            "min": [
                -0.96331,
                0,
                -0.959839
            ],
            "type": "VEC3"
        },
        "accessor_143": {
            "bufferView": "bufferView_152",
            "byteOffset": 60,
            "byteStride": 0,
            "componentType": 5123,
            "count": 372,
            "type": "SCALAR"
        },
        "accessor_146": {
            "bufferView": "bufferView_152",
            "byteOffset": 804,
            "byteStride": 0,
            "componentType": 5123,
            "count": 168,
            "type": "SCALAR"
        },
        "accessor_148": {
            "bufferView": "bufferView_153",
            "byteOffset": 480,
            "byteStride": 12,
            "componentType": 5126,
            "count": 382,
            "max": [
                43.326,
                9.32759,
                36.9408
            ],
            "min": [
                -38.119,
                -10.6724,
                -35.9762
            ],
            "type": "VEC3"
        },
        "accessor_150": {
            "bufferView": "bufferView_153",
            "byteOffset": 5064,
            "byteStride": 12,
            "componentType": 5126,
            "count": 382,
            "max": [
                0.963973,
                1,
                0.962991
            ],
            "min": [
                -0.962763,
                -1,
                -0.963003
            ],
            "type": "VEC3"
        },
        "accessor_64": {
            "bufferView": "bufferView_152",
            "byteOffset": 1140,
            "byteStride": 0,
            "componentType": 5123,
            "count": 192,
            "type": "SCALAR"
        },
        "accessor_67": {
            "bufferView": "bufferView_152",
            "byteOffset": 1524,
            "byteStride": 0,
            "componentType": 5123,
            "count": 84,
            "type": "SCALAR"
        },
        "accessor_70": {
            "bufferView": "bufferView_152",
            "byteOffset": 1692,
            "byteStride": 0,
            "componentType": 5123,
            "count": 300,
            "type": "SCALAR"
        },
        "accessor_73": {
            "bufferView": "bufferView_152",
            "byteOffset": 2292,
            "byteStride": 0,
            "componentType": 5123,
            "count": 48,
            "type": "SCALAR"
        },
        "accessor_76": {
            "bufferView": "bufferView_152",
            "byteOffset": 2388,
            "byteStride": 0,
            "componentType": 5123,
            "count": 162,
            "type": "SCALAR"
        },
        "accessor_78": {
            "bufferView": "bufferView_153",
            "byteOffset": 9648,
            "byteStride": 12,
            "componentType": 5126,
            "count": 666,
            "max": [
                5.65476,
                3.32572,
                11.8669
            ],
            "min": [
                -10.4893,
                -2.17428,
                -11.5441
            ],
            "type": "VEC3"
        },
        "accessor_80": {
            "bufferView": "bufferView_153",
            "byteOffset": 17640,
            "byteStride": 12,
            "componentType": 5126,
            "count": 666,
            "max": [
                0.96498,
                1,
                0.974213
            ],
            "min": [
                -0.96556,
                -1,
                -0.97246
            ],
            "type": "VEC3"
        }
    },
    "animations": {},
    "asset": {
        "generator": "collada2gltf@cf6371beb0bdc18ba603378d5e40c966da53d385",
        "premultipliedAlpha": true,
        "profile": {
            "api": "WebGL",
            "version": "1.0.2"
        },
        "version": "1.0"
    },
    "bufferViews": {
        "bufferView_152": {
            "buffer": "\\data\\ECNU\\workspace\\gridID_90\\gridID_90",
            "byteLength": 2712,
            "byteOffset": 0,
            "target": 34963
        },
        "bufferView_153": {
            "buffer": "\\data\\ECNU\\workspace\\gridID_90\\gridID_90",
            "byteLength": 25632,
            "byteOffset": 2712,
            "target": 34962
        }
    },
    "buffers": {
        "\\data\\ECNU\\workspace\\gridID_90\\gridID_90": {
            "byteLength": 28344,
            "type": "arraybuffer",
            "uri": "data:application/octet-stream;base64,"
        }
    },
    "materials": {
        "BUILDING_DEFAULT_0-effect": {
            "name": "BUILDING_DEFAULT_0",
            "technique": "technique0",
            "values": {
                "ambient": [
                    0,
                    0,
                    0,
                    1
                ],
                "diffuse": [
                    0.723055,
                    0.708376,
                    0.672443,
                    1
                ],
                "emission": [
                    0,
                    0,
                    0,
                    1
                ],
                "shininess": 50,
                "specular": [
                    0.5,
                    0.5,
                    0.5,
                    1
                ]
            }
        },
        "CONCRETE_0-effect": {
            "name": "CONCRETE_0",
            "technique": "technique0",
            "values": {
                "ambient": [
                    0,
                    0,
                    0,
                    1
                ],
                "diffuse": [
                    0.309469,
                    0.327778,
                    0.309469,
                    1
                ],
                "emission": [
                    0,
                    0,
                    0,
                    1
                ],
                "shininess": 50,
                "specular": [
                    0.5,
                    0.5,
                    0.5,
                    1
                ]
            }
        },
        "GLASS_0-effect": {
            "name": "GLASS_0",
            "technique": "technique0",
            "values": {
                "ambient": [
                    0,
                    0,
                    0,
                    1
                ],
                "diffuse": [
                    0.491021,
                    0.665387,
                    0.658375,
                    1
                ],
                "emission": [
                    0,
                    0,
                    0,
                    1
                ],
                "shininess": 50,
                "specular": [
                    0.5,
                    0.5,
                    0.5,
                    1
                ]
            }
        },
        "MAT_5_0-effect": {
            "name": "MAT_5_0",
            "technique": "technique0",
            "values": {
                "ambient": [
                    0,
                    0,
                    0,
                    1
                ],
                "diffuse": [
                    0.470588,
                    0.470588,
                    0.470588,
                    1
                ],
                "emission": [
                    0,
                    0,
                    0,
                    1
                ],
                "shininess": 50,
                "specular": [
                    0.5,
                    0.5,
                    0.5,
                    1
                ]
            }
        },
        "ROOF_DEFAULT_0-effect": {
            "name": "ROOF_DEFAULT_0",
            "technique": "technique0",
            "values": {
                "ambient": [
                    0,
                    0,
                    0,
                    1
                ],
                "diffuse": [
                    0.603827,
                    0.381326,
                    0.291771,
                    1
                ],
                "emission": [
                    0,
                    0,
                    0,
                    1
                ],
                "shininess": 50,
                "specular": [
                    0.5,
                    0.5,
                    0.5,
                    1
                ]
            }
        }
    },
    "meshes": {
        "Building3545-mesh": {
            "name": "Building3545",
            "primitives": [
                {
                    "attributes": {
                        "NORMAL": "accessor_115",
                        "POSITION": "accessor_113"
                    },
                    "indices": "accessor_108",
                    "material": "BUILDING_DEFAULT_0-effect",
                    "mode": 4
                },
                {
                    "attributes": {
                        "NORMAL": "accessor_115",
                        "POSITION": "accessor_113"
                    },
                    "indices": "accessor_111",
                    "material": "CONCRETE_0-effect",
                    "mode": 4
                }
            ]
        },
        "Building3807-mesh": {
            "name": "Building3807",
            "primitives": [
                {
                    "attributes": {
                        "NORMAL": "accessor_150",
                        "POSITION": "accessor_148"
                    },
                    "indices": "accessor_143",
                    "material": "BUILDING_DEFAULT_0-effect",
                    "mode": 4
                },
                {
                    "attributes": {
                        "NORMAL": "accessor_150",
                        "POSITION": "accessor_148"
                    },
                    "indices": "accessor_146",
                    "material": "CONCRETE_0-effect",
                    "mode": 4
                }
            ]
        },
        "Building4198-mesh": {
            "name": "Building4198",
            "primitives": [
                {
                    "attributes": {
                        "NORMAL": "accessor_80",
                        "POSITION": "accessor_78"
                    },
                    "indices": "accessor_64",
                    "material": "GLASS_0-effect",
                    "mode": 4
                },
                {
                    "attributes": {
                        "NORMAL": "accessor_80",
                        "POSITION": "accessor_78"
                    },
                    "indices": "accessor_67",
                    "material": "MAT_5_0-effect",
                    "mode": 4
                },
                {
                    "attributes": {
                        "NORMAL": "accessor_80",
                        "POSITION": "accessor_78"
                    },
                    "indices": "accessor_70",
                    "material": "BUILDING_DEFAULT_0-effect",
                    "mode": 4
                },
                {
                    "attributes": {
                        "NORMAL": "accessor_80",
                        "POSITION": "accessor_78"
                    },
                    "indices": "accessor_73",
                    "material": "ROOF_DEFAULT_0-effect",
                    "mode": 4
                },
                {
                    "attributes": {
                        "NORMAL": "accessor_80",
                        "POSITION": "accessor_78"
                    },
                    "indices": "accessor_76",
                    "material": "CONCRETE_0-effect",
                    "mode": 4
                }
            ]
        }
    },
    "nodes": {
        "model_gridID_90_w114518349": {
            "children": [],
            "matrix": [
                1,
                0,
                0,
                0,
                0,
                -1.62921e-007,
                1,
                0,
                0,
                -1,
                -1.62921e-007,
                0,
                -424.806,
                350.562,
                2.17434,
                1
            ],
            "meshes": [
                "Building4198-mesh"
            ],
            "name": "model_gridID_90_w114518349"
        },
        "model_gridID_90_w114518349_001": {
            "children": [],
            "matrix": [
                1,
                0,
                0,
                0,
                0,
                -1.62921e-007,
                1,
                0,
                0,
                -1,
                -1.62921e-007,
                0,
                -431.714,
                375.348,
                10.0001,
                1
            ],
            "meshes": [
                "Building3545-mesh"
            ],
            "name": "model_gridID_90_w114518349_001"
        },
        "model_gridID_90_w114518349_002": {
            "children": [],
            "matrix": [
                1,
                0,
                0,
                0,
                0,
                -1.62921e-007,
                1,
                0,
                0,
                -1,
                -1.62921e-007,
                0,
                -458.279,
                342.094,
                10.6725,
                1
            ],
            "meshes": [
                "Building3807-mesh"
            ],
            "name": "model_gridID_90_w114518349_002"
        },
        "node_3": {
            "children": [
                "model_gridID_90_w114518349",
                "model_gridID_90_w114518349_001",
                "model_gridID_90_w114518349_002"
            ],
            "matrix": [
                1,
                0,
                0,
                0,
                0,
                0,
                -1,
                0,
                0,
                1,
                0,
                0,
                0,
                0,
                0,
                1
            ],
            "name": "Y_UP_Transform"
        }
    },
    "programs": {
        "program_0": {
            "attributes": [
                "a_normal",
                "a_position"
            ],
            "fragmentShader": "\\data\\ECNU\\workspace\\gridID_90\\gridID_900FS",
            "vertexShader": "\\data\\ECNU\\workspace\\gridID_90\\gridID_900VS"
        }
    },
    "scene": "defaultScene",
    "scenes": {
        "defaultScene": {
            "nodes": [
                "node_3"
            ]
        }
    },
    "shaders": {
        "\\data\\ECNU\\workspace\\gridID_90\\gridID_900FS": {
            "type": 35632,
            "uri": "data:text/plain;base64,"
        },
        "\\data\\ECNU\\workspace\\gridID_90\\gridID_900VS": {
            "type": 35633,
            "uri": "data:text/plain;base64,"
        }
    },
    "skins": {},
    "techniques": {
        "technique0": {
            "attributes": {
                "a_normal": "normal",
                "a_position": "position"
            },
            "parameters": {
                "ambient": {
                    "type": 35666
                },
                "diffuse": {
                    "type": 35666
                },
                "emission": {
                    "type": 35666
                },
                "modelViewMatrix": {
                    "semantic": "MODELVIEW",
                    "type": 35676
                },
                "normal": {
                    "semantic": "NORMAL",
                    "type": 35665
                },
                "normalMatrix": {
                    "semantic": "MODELVIEWINVERSETRANSPOSE",
                    "type": 35675
                },
                "position": {
                    "semantic": "POSITION",
                    "type": 35665
                },
                "projectionMatrix": {
                    "semantic": "PROJECTION",
                    "type": 35676
                },
                "shininess": {
                    "type": 5126
                },
                "specular": {
                    "type": 35666
                }
            },
            "program": "program_0",
            "states": {
                "enable": [
                    2929,
                    2884
                ]
            },
            "uniforms": {
                "u_ambient": "ambient",
                "u_diffuse": "diffuse",
                "u_emission": "emission",
                "u_modelViewMatrix": "modelViewMatrix",
                "u_normalMatrix": "normalMatrix",
                "u_projectionMatrix": "projectionMatrix",
                "u_shininess": "shininess",
                "u_specular": "specular"
            }
        }
    }
}