{
    "accessors": {
        "accessor_101": {
            "bufferView": "bufferView_142",
            "byteOffset": 48,
            "byteStride": 0,
            "componentType": 5123,
            "count": 6,
            "type": "SCALAR"
        },
        "accessor_103": {
            "bufferView": "bufferView_143",
            "byteOffset": 0,
            "byteStride": 12,
            "componentType": 5126,
            "count": 20,
            "max": [
                29.3425,
                3.75,
                5.51004
            ],
            "min": [
                -29.3425,
                -3.75,
                -5.50995
            ],
            "type": "VEC3"
        },
        "accessor_105": {
            "bufferView": "bufferView_143",
            "byteOffset": 240,
            "byteStride": 12,
            "componentType": 5126,
            "count": 20,
            "max": [
                1,
                1,
                1
            ],
            "min": [
                -1,
                0,
                -1
            ],
            "type": "VEC3"
        },
        "accessor_133": {
            "bufferView": "bufferView_142",
            "byteOffset": 120,
            "byteStride": 0,
            "componentType": 5123,
            "count": 78,
            "type": "SCALAR"
        },
        "accessor_136": {
            "bufferView": "bufferView_142",
            "byteOffset": 276,
            "byteStride": 0,
            "componentType": 5123,
            "count": 33,
            "type": "SCALAR"
        },
        "accessor_138": {
            "bufferView": "bufferView_143",
            "byteOffset": 960,
            "byteStride": 12,
            "componentType": 5126,
            "count": 69,
            "max": [
                5.92877,
                3.75,
                10.2617
            ],
            "min": [
                -7.52124,
                -3.75,
                -5.41132
            ],
            "type": "VEC3"
        },
        "accessor_140": {
            "bufferView": "bufferView_143",
            "byteOffset": 1788,
            "byteStride": 12,
            "componentType": 5126,
            "count": 69,
            "max": [
                0.997737,
                1,
                0.997433
            ],
            "min": [
                -0.997419,
                0,
                -0.997541
            ],
            "type": "VEC3"
        },
        "accessor_28": {
            "bufferView": "bufferView_142",
            "byteOffset": 342,
            "byteStride": 0,
            "componentType": 5123,
            "count": 24,
            "type": "SCALAR"
        },
        "accessor_31": {
            "bufferView": "bufferView_142",
            "byteOffset": 390,
            "byteStride": 0,
            "componentType": 5123,
            "count": 6,
            "type": "SCALAR"
        },
        "accessor_33": {
            "bufferView": "bufferView_143",
            "byteOffset": 2616,
            "byteStride": 12,
            "componentType": 5126,
            "count": 20,
            "max": [
                25.3917,
                3.75,
                5.02576
            ],
            "min": [
                -25.3923,
                -3.75,
                -5.02524
            ],
            "type": "VEC3"
        },
        "accessor_35": {
            "bufferView": "bufferView_143",
            "byteOffset": 2856,
            "byteStride": 12,
            "componentType": 5126,
            "count": 20,
            "max": [
                0.999961,
                1,
                0.999967
            ],
            "min": [
                -0.99996,
                0,
                -0.999967
            ],
            "type": "VEC3"
        },
        "accessor_63": {
            "bufferView": "bufferView_142",
            "byteOffset": 60,
            "byteStride": 0,
            "componentType": 5123,
            "count": 24,
            "type": "SCALAR"
        },
        "accessor_66": {
            "bufferView": "bufferView_142",
            "byteOffset": 108,
            "byteStride": 0,
            "componentType": 5123,
            "count": 6,
            "type": "SCALAR"
        },
        "accessor_68": {
            "bufferView": "bufferView_143",
            "byteOffset": 480,
            "byteStride": 12,
            "componentType": 5126,
            "count": 20,
            "max": [
                29.342,
                3.75,
                5.51001
            ],
            "min": [
                -29.342,
                -3.75,
                -5.50998
            ],
            "type": "VEC3"
        },
        "accessor_70": {
            "bufferView": "bufferView_143",
            "byteOffset": 720,
            "byteStride": 12,
            "componentType": 5126,
            "count": 20,
            "max": [
                1,
                1,
                1
            ],
            "min": [
                -1,
                0,
                -1
            ],
            "type": "VEC3"
        },
        "accessor_98": {
            "bufferView": "bufferView_142",
            "byteOffset": 0,
            "byteStride": 0,
            "componentType": 5123,
            "count": 24,
            "type": "SCALAR"
        }
    },
    "animations": {},
    "asset": {
        "generator": "collada2gltf@cf6371beb0bdc18ba603378d5e40c966da53d385",
        "premultipliedAlpha": true,
        "profile": {
            "api": "WebGL",
            "version": "1.0.2"
        },
        "version": "1.0"
    },
    "bufferViews": {
        "bufferView_142": {
            "buffer": "\\data\\ECNU\\workspace\\gridID_17\\gridID_17",
            "byteLength": 404,
            "byteOffset": 0,
            "target": 34963
        },
        "bufferView_143": {
            "buffer": "\\data\\ECNU\\workspace\\gridID_17\\gridID_17",
            "byteLength": 3096,
            "byteOffset": 404,
            "target": 34962
        }
    },
    "buffers": {
        "\\data\\ECNU\\workspace\\gridID_17\\gridID_17": {
            "byteLength": 3500,
            "type": "arraybuffer",
            "uri": "data:application/octet-stream;base64,"
        }
    },
    "materials": {
        "BUILDING_DEFAULT_0-effect": {
            "name": "BUILDING_DEFAULT_0",
            "technique": "technique0",
            "values": {
                "ambient": [
                    0,
                    0,
                    0,
                    1
                ],
                "diffuse": [
                    0.723055,
                    0.708376,
                    0.672443,
                    1
                ],
                "emission": [
                    0,
                    0,
                    0,
                    1
                ],
                "shininess": 50,
                "specular": [
                    0.5,
                    0.5,
                    0.5,
                    1
                ]
            }
        },
        "ROOF_DEFAULT_0-effect": {
            "name": "ROOF_DEFAULT_0",
            "technique": "technique0",
            "values": {
                "ambient": [
                    0,
                    0,
                    0,
                    1
                ],
                "diffuse": [
                    0.603827,
                    0.381326,
                    0.291771,
                    1
                ],
                "emission": [
                    0,
                    0,
                    0,
                    1
                ],
                "shininess": 50,
                "specular": [
                    0.5,
                    0.5,
                    0.5,
                    1
                ]
            }
        }
    },
    "meshes": {
        "Building3864-mesh": {
            "name": "Building3864",
            "primitives": [
                {
                    "attributes": {
                        "NORMAL": "accessor_105",
                        "POSITION": "accessor_103"
                    },
                    "indices": "accessor_98",
                    "material": "BUILDING_DEFAULT_0-effect",
                    "mode": 4
                },
                {
                    "attributes": {
                        "NORMAL": "accessor_105",
                        "POSITION": "accessor_103"
                    },
                    "indices": "accessor_101",
                    "material": "ROOF_DEFAULT_0-effect",
                    "mode": 4
                }
            ]
        },
        "Building3866-mesh": {
            "name": "Building3866",
            "primitives": [
                {
                    "attributes": {
                        "NORMAL": "accessor_70",
                        "POSITION": "accessor_68"
                    },
                    "indices": "accessor_63",
                    "material": "BUILDING_DEFAULT_0-effect",
                    "mode": 4
                },
                {
                    "attributes": {
                        "NORMAL": "accessor_70",
                        "POSITION": "accessor_68"
                    },
                    "indices": "accessor_66",
                    "material": "ROOF_DEFAULT_0-effect",
                    "mode": 4
                }
            ]
        },
        "Building3969-mesh": {
            "name": "Building3969",
            "primitives": [
                {
                    "attributes": {
                        "NORMAL": "accessor_140",
                        "POSITION": "accessor_138"
                    },
                    "indices": "accessor_133",
                    "material": "BUILDING_DEFAULT_0-effect",
                    "mode": 4
                },
                {
                    "attributes": {
                        "NORMAL": "accessor_140",
                        "POSITION": "accessor_138"
                    },
                    "indices": "accessor_136",
                    "material": "ROOF_DEFAULT_0-effect",
                    "mode": 4
                }
            ]
        },
        "Building4127-mesh": {
            "name": "Building4127",
            "primitives": [
                {
                    "attributes": {
                        "NORMAL": "accessor_35",
                        "POSITION": "accessor_33"
                    },
                    "indices": "accessor_28",
                    "material": "BUILDING_DEFAULT_0-effect",
                    "mode": 4
                },
                {
                    "attributes": {
                        "NORMAL": "accessor_35",
                        "POSITION": "accessor_33"
                    },
                    "indices": "accessor_31",
                    "material": "ROOF_DEFAULT_0-effect",
                    "mode": 4
                }
            ]
        }
    },
    "nodes": {
        "model_gridID_17_w116940032": {
            "children": [],
            "matrix": [
                1,
                0,
                0,
                0,
                0,
                -1.62921e-007,
                1,
                0,
                0,
                -1,
                -1.62921e-007,
                0,
                -196.116,
                -354.83,
                3.74994,
                1
            ],
            "meshes": [
                "Building4127-mesh"
            ],
            "name": "model_gridID_17_w116940032"
        },
        "model_gridID_17_w389539182": {
            "children": [],
            "matrix": [
                1,
                0,
                0,
                0,
                0,
                -1.62921e-007,
                1,
                0,
                0,
                -1,
                -1.62921e-007,
                0,
                -188.624,
                -408.468,
                3.74993,
                1
            ],
            "meshes": [
                "Building3866-mesh"
            ],
            "name": "model_gridID_17_w389539182"
        },
        "model_gridID_17_w389539186": {
            "children": [],
            "matrix": [
                1,
                0,
                0,
                0,
                0,
                -1.62921e-007,
                1,
                0,
                0,
                -1,
                -1.62921e-007,
                0,
                -189.29,
                -380.65,
                3.74994,
                1
            ],
            "meshes": [
                "Building3864-mesh"
            ],
            "name": "model_gridID_17_w389539186"
        },
        "model_gridID_17_w389702064": {
            "children": [],
            "matrix": [
                1,
                0,
                0,
                0,
                0,
                -1.62921e-007,
                1,
                0,
                0,
                -1,
                -1.62921e-007,
                0,
                -141.775,
                -365.034,
                3.74994,
                1
            ],
            "meshes": [
                "Building3969-mesh"
            ],
            "name": "model_gridID_17_w389702064"
        },
        "node_4": {
            "children": [
                "model_gridID_17_w116940032",
                "model_gridID_17_w389539182",
                "model_gridID_17_w389539186",
                "model_gridID_17_w389702064"
            ],
            "matrix": [
                1,
                0,
                0,
                0,
                0,
                0,
                -1,
                0,
                0,
                1,
                0,
                0,
                0,
                0,
                0,
                1
            ],
            "name": "Y_UP_Transform"
        }
    },
    "programs": {
        "program_0": {
            "attributes": [
                "a_normal",
                "a_position"
            ],
            "fragmentShader": "\\data\\ECNU\\workspace\\gridID_17\\gridID_170FS",
            "vertexShader": "\\data\\ECNU\\workspace\\gridID_17\\gridID_170VS"
        }
    },
    "scene": "defaultScene",
    "scenes": {
        "defaultScene": {
            "nodes": [
                "node_4"
            ]
        }
    },
    "shaders": {
        "\\data\\ECNU\\workspace\\gridID_17\\gridID_170FS": {
            "type": 35632,
            "uri": "data:text/plain;base64,"
        },
        "\\data\\ECNU\\workspace\\gridID_17\\gridID_170VS": {
            "type": 35633,
            "uri": "data:text/plain;base64,"
        }
    },
    "skins": {},
    "techniques": {
        "technique0": {
            "attributes": {
                "a_normal": "normal",
                "a_position": "position"
            },
            "parameters": {
                "ambient": {
                    "type": 35666
                },
                "diffuse": {
                    "type": 35666
                },
                "emission": {
                    "type": 35666
                },
                "modelViewMatrix": {
                    "semantic": "MODELVIEW",
                    "type": 35676
                },
                "normal": {
                    "semantic": "NORMAL",
                    "type": 35665
                },
                "normalMatrix": {
                    "semantic": "MODELVIEWINVERSETRANSPOSE",
                    "type": 35675
                },
                "position": {
                    "semantic": "POSITION",
                    "type": 35665
                },
                "projectionMatrix": {
                    "semantic": "PROJECTION",
                    "type": 35676
                },
                "shininess": {
                    "type": 5126
                },
                "specular": {
                    "type": 35666
                }
            },
            "program": "program_0",
            "states": {
                "enable": [
                    2929,
                    2884
                ]
            },
            "uniforms": {
                "u_ambient": "ambient",
                "u_diffuse": "diffuse",
                "u_emission": "emission",
                "u_modelViewMatrix": "modelViewMatrix",
                "u_normalMatrix": "normalMatrix",
                "u_projectionMatrix": "projectionMatrix",
                "u_shininess": "shininess",
                "u_specular": "specular"
            }
        }
    }
}