{"accessors":{"accessor_100":{"bufferView":"bufferView_103","byteOffset":4332,"byteStride":12,"componentType":5126,"count":67,"max":[0.999812,1,0.999806],"min":[-0.999818,-1,-0.999804],"type":"VEC3"},"accessor_16":{"bufferView":"bufferView_102","byteOffset":0,"byteStride":0,"componentType":5123,"count":36,"type":"SCALAR"},"accessor_18":{"bufferView":"bufferView_103","byteOffset":0,"byteStride":12,"componentType":5126,"count":28,"max":[104.861,10,1.60408],"min":[23.8089,0,-26.0227],"type":"VEC3"},"accessor_20":{"bufferView":"bufferView_103","byteOffset":336,"byteStride":12,"componentType":5126,"count":28,"max":[0.999658,1,0.999659],"min":[-0.999658,-1,-0.999659],"type":"VEC3"},"accessor_36":{"bufferView":"bufferView_102","byteOffset":72,"byteStride":0,"componentType":5123,"count":72,"type":"SCALAR"},"accessor_38":{"bufferView":"bufferView_103","byteOffset":672,"byteStride":12,"componentType":5126,"count":47,"max":[18.0871,10,4.79324],"min":[8.48024,0,-18.2847],"type":"VEC3"},"accessor_40":{"bufferView":"bufferView_103","byteOffset":1236,"byteStride":12,"componentType":5126,"count":47,"max":[0.999692,1,0.999743],"min":[-0.999692,-1,-0.999673],"type":"VEC3"},"accessor_56":{"bufferView":"bufferView_102","byteOffset":216,"byteStride":0,"componentType":5123,"count":60,"type":"SCALAR"},"accessor_58":{"bufferView":"bufferView_103","byteOffset":1800,"byteStride":12,"componentType":5126,"count":44,"max":[69.9063,16,81.3815],"min":[7.701,0,59.2061],"type":"VEC3"},"accessor_60":{"bufferView":"bufferView_103","byteOffset":2328,"byteStride":12,"componentType":5126,"count":44,"max":[0.999845,1,0.99984],"min":[-0.999839,-1,-0.999838],"type":"VEC3"},"accessor_76":{"bufferView":"bufferView_102","byteOffset":336,"byteStride":0,"componentType":5123,"count":36,"type":"SCALAR"},"accessor_78":{"bufferView":"bufferView_103","byteOffset":2856,"byteStride":12,"componentType":5126,"count":28,"max":[-19.0157,9,-32.3021],"min":[-31.105,0,-66.8264],"type":"VEC3"},"accessor_80":{"bufferView":"bufferView_103","byteOffset":3192,"byteStride":12,"componentType":5126,"count":28,"max":[0.999259,1,0.999241],"min":[-0.999259,-1,-0.99924],"type":"VEC3"},"accessor_96":{"bufferView":"bufferView_102","byteOffset":408,"byteStride":0,"componentType":5123,"count":84,"type":"SCALAR"},"accessor_98":{"bufferView":"bufferView_103","byteOffset":3528,"byteStride":12,"componentType":5126,"count":67,"max":[30.221,10,-28.8781],"min":[6.26497,0,-69.1749],"type":"VEC3"},"accessor_b0":{"bufferView":"bufferView_b","byteOffset":0,"byteStride":0,"componentType":5123,"count":28,"type":"SCALAR"},"accessor_b1":{"bufferView":"bufferView_b","byteOffset":56,"byteStride":0,"componentType":5123,"count":47,"type":"SCALAR"},"accessor_b2":{"bufferView":"bufferView_b","byteOffset":150,"byteStride":0,"componentType":5123,"count":44,"type":"SCALAR"},"accessor_b3":{"bufferView":"bufferView_b","byteOffset":238,"byteStride":0,"componentType":5123,"count":28,"type":"SCALAR"},"accessor_b4":{"bufferView":"bufferView_b","byteOffset":294,"byteStride":0,"componentType":5123,"count":67,"type":"SCALAR"}},"animations":{},"asset":{"generator":"collada2gltf@cf6371beb0bdc18ba603378d5e40c966da53d385","premultipliedAlpha":true,"profile":{"api":"WebGL","version":"1.0.2"},"version":"1.0"},"bufferViews":{"bufferView_102":{"buffer":"\\data\\3dcity\\miami\\workspace\\gridID_60\\gridID_60","byteLength":576,"byteOffset":0,"target":34963},"bufferView_103":{"buffer":"\\data\\3dcity\\miami\\workspace\\gridID_60\\gridID_60","byteLength":5136,"byteOffset":576,"target":34962},"bufferView_b":{"buffer":"buffer_b","byteLength":428,"byteOffset":0,"target":34962}},"buffers":{"\\data\\3dcity\\miami\\workspace\\gridID_60\\gridID_60":{"byteLength":5712,"type":"arraybuffer","uri":"data:application/octet-stream;base64,"},"buffer_b":{"type":"arraybuffer","byteLength":428,"uri":"data:application/octet-stream;base64,"}},"materials":{"CityEngineMaterial_573-effect":{"name":"CityEngineMaterial_573","technique":"technique0","values":{"ambient":[1,1,1,1],"diffuse":[1,1,1,1],"emission":[0,0,0,1],"shininess":50,"specular":[0.5,0.5,0.5,1]}},"CityEngineMaterial_574-effect":{"name":"CityEngineMaterial_574","technique":"technique0","values":{"ambient":[1,1,1,1],"diffuse":[1,1,1,1],"emission":[0,0,0,1],"shininess":50,"specular":[0.5,0.5,0.5,1]}},"CityEngineMaterial_575-effect":{"name":"CityEngineMaterial_575","technique":"technique0","values":{"ambient":[1,1,1,1],"diffuse":[1,1,1,1],"emission":[0,0,0,1],"shininess":50,"specular":[0.5,0.5,0.5,1]}},"CityEngineMaterial_576-effect":{"name":"CityEngineMaterial_576","technique":"technique0","values":{"ambient":[1,1,1,1],"diffuse":[1,1,1,1],"emission":[0,0,0,1],"shininess":50,"specular":[0.5,0.5,0.5,1]}},"CityEngineMaterial_577-effect":{"name":"CityEngineMaterial_577","technique":"technique0","values":{"ambient":[1,1,1,1],"diffuse":[1,1,1,1],"emission":[0,0,0,1],"shininess":50,"specular":[0.5,0.5,0.5,1]}}},"meshes":{"mesh_CityEngineMaterial_571-mesh":{"name":"mesh_CityEngineMaterial.571","primitives":[{"attributes":{"NORMAL":"accessor_20","POSITION":"accessor_18","BATCHID":"accessor_b0"},"indices":"accessor_16","material":"CityEngineMaterial_573-effect","mode":4}]},"mesh_CityEngineMaterial_572-mesh":{"name":"mesh_CityEngineMaterial.572","primitives":[{"attributes":{"NORMAL":"accessor_40","POSITION":"accessor_38","BATCHID":"accessor_b1"},"indices":"accessor_36","material":"CityEngineMaterial_574-effect","mode":4}]},"mesh_CityEngineMaterial_573-mesh":{"name":"mesh_CityEngineMaterial.573","primitives":[{"attributes":{"NORMAL":"accessor_60","POSITION":"accessor_58","BATCHID":"accessor_b2"},"indices":"accessor_56","material":"CityEngineMaterial_575-effect","mode":4}]},"mesh_CityEngineMaterial_574-mesh":{"name":"mesh_CityEngineMaterial.574","primitives":[{"attributes":{"NORMAL":"accessor_80","POSITION":"accessor_78","BATCHID":"accessor_b3"},"indices":"accessor_76","material":"CityEngineMaterial_576-effect","mode":4}]},"mesh_CityEngineMaterial_575-mesh":{"name":"mesh_CityEngineMaterial.575","primitives":[{"attributes":{"NORMAL":"accessor_100","POSITION":"accessor_98","BATCHID":"accessor_b4"},"indices":"accessor_96","material":"CityEngineMaterial_577-effect","mode":4}]}},"nodes":{"CityEngineMaterial":{"children":[],"matrix":[1,0,0,0,0,-1.62921e-7,1,0,0,-1,-1.62921e-7,0,0,0,0,1],"meshes":["mesh_CityEngineMaterial_571-mesh"],"name":"CityEngineMaterial"},"CityEngineMaterial_001":{"children":[],"matrix":[1,0,0,0,0,-1.62921e-7,1,0,0,-1,-1.62921e-7,0,0,0,0,1],"meshes":["mesh_CityEngineMaterial_572-mesh"],"name":"CityEngineMaterial_001"},"CityEngineMaterial_002":{"children":[],"matrix":[1,0,0,0,0,-1.62921e-7,1,0,0,-1,-1.62921e-7,0,0,0,0,1],"meshes":["mesh_CityEngineMaterial_573-mesh"],"name":"CityEngineMaterial_002"},"CityEngineMaterial_003":{"children":[],"matrix":[1,0,0,0,0,-1.62921e-7,1,0,0,-1,-1.62921e-7,0,0,0,0,1],"meshes":["mesh_CityEngineMaterial_574-mesh"],"name":"CityEngineMaterial_003"},"CityEngineMaterial_004":{"children":[],"matrix":[1,0,0,0,0,-1.62921e-7,1,0,0,-1,-1.62921e-7,0,0,0,0,1],"meshes":["mesh_CityEngineMaterial_575-mesh"],"name":"CityEngineMaterial_004"},"node_5":{"children":["CityEngineMaterial","CityEngineMaterial_001","CityEngineMaterial_002","CityEngineMaterial_003","CityEngineMaterial_004"],"matrix":[1,0,0,0,0,0,-1,0,0,1,0,0,0,0,0,1],"name":"Y_UP_Transform"}},"programs":{"program_0":{"attributes":["a_normal","a_position","a_batchId"],"fragmentShader":"\\data\\3dcity\\miami\\workspace\\gridID_60\\gridID_600FS","vertexShader":"\\data\\3dcity\\miami\\workspace\\gridID_60\\gridID_600VS"}},"scene":"defaultScene","scenes":{"defaultScene":{"nodes":["node_5"]}},"shaders":{"\\data\\3dcity\\miami\\workspace\\gridID_60\\gridID_600FS":{"type":35632,"uri":"data:text/plain;base64,"},"\\data\\3dcity\\miami\\workspace\\gridID_60\\gridID_600VS":{"type":35633,"uri":"data:text/plain;base64,"}},"skins":{},"techniques":{"technique0":{"attributes":{"a_normal":"normal","a_position":"position","a_batchId":"batchId"},"parameters":{"ambient":{"type":35666},"diffuse":{"type":35666},"emission":{"type":35666},"modelViewMatrix":{"semantic":"MODELVIEW","type":35676},"normal":{"semantic":"NORMAL","type":35665},"normalMatrix":{"semantic":"MODELVIEWINVERSETRANSPOSE","type":35675},"position":{"semantic":"POSITION","type":35665},"projectionMatrix":{"semantic":"PROJECTION","type":35676},"shininess":{"type":5126},"specular":{"type":35666},"batchId":{"semantic":"BATCHID","type":5126}},"program":"program_0","states":{"enable":[2929,2884]},"uniforms":{"u_ambient":"ambient","u_diffuse":"diffuse","u_emission":"emission","u_modelViewMatrix":"modelViewMatrix","u_normalMatrix":"normalMatrix","u_projectionMatrix":"projectionMatrix","u_shininess":"shininess","u_specular":"specular"}}}}