{
    "accessors": {
        "accessor_110": {
            "bufferView": "bufferView_122",
            "byteOffset": 300,
            "byteStride": 0,
            "componentType": 5123,
            "count": 174,
            "type": "SCALAR"
        },
        "accessor_113": {
            "bufferView": "bufferView_122",
            "byteOffset": 648,
            "byteStride": 0,
            "componentType": 5123,
            "count": 12,
            "type": "SCALAR"
        },
        "accessor_116": {
            "bufferView": "bufferView_122",
            "byteOffset": 672,
            "byteStride": 0,
            "componentType": 5123,
            "count": 72,
            "type": "SCALAR"
        },
        "accessor_118": {
            "bufferView": "bufferView_123",
            "byteOffset": 2592,
            "byteStride": 12,
            "componentType": 5126,
            "count": 191,
            "max": [
                21.7729,
                25.8673,
                20.4643
            ],
            "min": [
                -23.4041,
                -29.2668,
                -16.0387
            ],
            "type": "VEC3"
        },
        "accessor_120": {
            "bufferView": "bufferView_123",
            "byteOffset": 4884,
            "byteStride": 12,
            "componentType": 5126,
            "count": 191,
            "max": [
                0.990675,
                1,
                0.990621
            ],
            "min": [
                -0.990675,
                -1,
                -0.990664
            ],
            "type": "VEC3"
        },
        "accessor_28": {
            "bufferView": "bufferView_122",
            "byteOffset": 0,
            "byteStride": 0,
            "componentType": 5123,
            "count": 24,
            "type": "SCALAR"
        },
        "accessor_31": {
            "bufferView": "bufferView_122",
            "byteOffset": 48,
            "byteStride": 0,
            "componentType": 5123,
            "count": 6,
            "type": "SCALAR"
        },
        "accessor_33": {
            "bufferView": "bufferView_123",
            "byteOffset": 0,
            "byteStride": 12,
            "componentType": 5126,
            "count": 28,
            "max": [
                3.72002,
                3.75,
                4.56976
            ],
            "min": [
                -3.76198,
                -3.75,
                -4.60324
            ],
            "type": "VEC3"
        },
        "accessor_35": {
            "bufferView": "bufferView_123",
            "byteOffset": 336,
            "byteStride": 12,
            "componentType": 5126,
            "count": 28,
            "max": [
                0.93618,
                1,
                0.938255
            ],
            "min": [
                -0.93159,
                0,
                -0.935892
            ],
            "type": "VEC3"
        },
        "accessor_63": {
            "bufferView": "bufferView_122",
            "byteOffset": 60,
            "byteStride": 0,
            "componentType": 5123,
            "count": 84,
            "type": "SCALAR"
        },
        "accessor_66": {
            "bufferView": "bufferView_122",
            "byteOffset": 228,
            "byteStride": 0,
            "componentType": 5123,
            "count": 36,
            "type": "SCALAR"
        },
        "accessor_68": {
            "bufferView": "bufferView_123",
            "byteOffset": 672,
            "byteStride": 12,
            "componentType": 5126,
            "count": 80,
            "max": [
                19.2862,
                6.25,
                12.3458
            ],
            "min": [
                -18.0188,
                -6.25,
                -12.8812
            ],
            "type": "VEC3"
        },
        "accessor_70": {
            "bufferView": "bufferView_123",
            "byteOffset": 1632,
            "byteStride": 12,
            "componentType": 5126,
            "count": 80,
            "max": [
                0.988525,
                1,
                0.990664
            ],
            "min": [
                -0.988449,
                0,
                -0.9885
            ],
            "type": "VEC3"
        }
    },
    "animations": {},
    "asset": {
        "generator": "collada2gltf@cf6371beb0bdc18ba603378d5e40c966da53d385",
        "premultipliedAlpha": true,
        "profile": {
            "api": "WebGL",
            "version": "1.0.2"
        },
        "version": "1.0"
    },
    "bufferViews": {
        "bufferView_122": {
            "buffer": "\\data\\ECNU\\workspace\\gridID_108\\gridID_108",
            "byteLength": 816,
            "byteOffset": 0,
            "target": 34963
        },
        "bufferView_123": {
            "buffer": "\\data\\ECNU\\workspace\\gridID_108\\gridID_108",
            "byteLength": 7176,
            "byteOffset": 816,
            "target": 34962
        }
    },
    "buffers": {
        "\\data\\ECNU\\workspace\\gridID_108\\gridID_108": {
            "byteLength": 7992,
            "type": "arraybuffer",
            "uri": "data:application/octet-stream;base64,"
        }
    },
    "materials": {
        "BUILDING_DEFAULT_0-effect": {
            "name": "BUILDING_DEFAULT_0",
            "technique": "technique0",
            "values": {
                "ambient": [
                    0,
                    0,
                    0,
                    1
                ],
                "diffuse": [
                    0.723055,
                    0.708376,
                    0.672443,
                    1
                ],
                "emission": [
                    0,
                    0,
                    0,
                    1
                ],
                "shininess": 50,
                "specular": [
                    0.5,
                    0.5,
                    0.5,
                    1
                ]
            }
        },
        "CONCRETE_0-effect": {
            "name": "CONCRETE_0",
            "technique": "technique0",
            "values": {
                "ambient": [
                    0,
                    0,
                    0,
                    1
                ],
                "diffuse": [
                    0.309469,
                    0.327778,
                    0.309469,
                    1
                ],
                "emission": [
                    0,
                    0,
                    0,
                    1
                ],
                "shininess": 50,
                "specular": [
                    0.5,
                    0.5,
                    0.5,
                    1
                ]
            }
        },
        "ROOF_DEFAULT_0-effect": {
            "name": "ROOF_DEFAULT_0",
            "technique": "technique0",
            "values": {
                "ambient": [
                    0,
                    0,
                    0,
                    1
                ],
                "diffuse": [
                    0.603827,
                    0.381326,
                    0.291771,
                    1
                ],
                "emission": [
                    0,
                    0,
                    0,
                    1
                ],
                "shininess": 50,
                "specular": [
                    0.5,
                    0.5,
                    0.5,
                    1
                ]
            }
        }
    },
    "meshes": {
        "Building3617-mesh": {
            "name": "Building3617",
            "primitives": [
                {
                    "attributes": {
                        "NORMAL": "accessor_35",
                        "POSITION": "accessor_33"
                    },
                    "indices": "accessor_28",
                    "material": "BUILDING_DEFAULT_0-effect",
                    "mode": 4
                },
                {
                    "attributes": {
                        "NORMAL": "accessor_35",
                        "POSITION": "accessor_33"
                    },
                    "indices": "accessor_31",
                    "material": "CONCRETE_0-effect",
                    "mode": 4
                }
            ]
        },
        "Building3814-mesh": {
            "name": "Building3814",
            "primitives": [
                {
                    "attributes": {
                        "NORMAL": "accessor_70",
                        "POSITION": "accessor_68"
                    },
                    "indices": "accessor_63",
                    "material": "BUILDING_DEFAULT_0-effect",
                    "mode": 4
                },
                {
                    "attributes": {
                        "NORMAL": "accessor_70",
                        "POSITION": "accessor_68"
                    },
                    "indices": "accessor_66",
                    "material": "CONCRETE_0-effect",
                    "mode": 4
                }
            ]
        },
        "Building3823-mesh": {
            "name": "Building3823",
            "primitives": [
                {
                    "attributes": {
                        "NORMAL": "accessor_120",
                        "POSITION": "accessor_118"
                    },
                    "indices": "accessor_110",
                    "material": "BUILDING_DEFAULT_0-effect",
                    "mode": 4
                },
                {
                    "attributes": {
                        "NORMAL": "accessor_120",
                        "POSITION": "accessor_118"
                    },
                    "indices": "accessor_113",
                    "material": "ROOF_DEFAULT_0-effect",
                    "mode": 4
                },
                {
                    "attributes": {
                        "NORMAL": "accessor_120",
                        "POSITION": "accessor_118"
                    },
                    "indices": "accessor_116",
                    "material": "CONCRETE_0-effect",
                    "mode": 4
                }
            ]
        }
    },
    "nodes": {
        "model_gridID_108_w376043945_001": {
            "children": [],
            "matrix": [
                1,
                0,
                0,
                0,
                0,
                -1.62921e-007,
                1,
                0,
                0,
                -1,
                -1.62921e-007,
                0,
                208.821,
                456.526,
                3.75008,
                1
            ],
            "meshes": [
                "Building3617-mesh"
            ],
            "name": "model_gridID_108_w376043945_001"
        },
        "model_gridID_108_w376043945_002": {
            "children": [],
            "matrix": [
                1,
                0,
                0,
                0,
                0,
                -1.62921e-007,
                1,
                0,
                0,
                -1,
                -1.62921e-007,
                0,
                192.16,
                476.38,
                6.25008,
                1
            ],
            "meshes": [
                "Building3814-mesh"
            ],
            "name": "model_gridID_108_w376043945_002"
        },
        "model_gridID_108_w376043954_001": {
            "children": [],
            "matrix": [
                1,
                0,
                0,
                0,
                0,
                -1.62921e-007,
                1,
                0,
                0,
                -1,
                -1.62921e-007,
                0,
                191.586,
                461.176,
                29.2669,
                1
            ],
            "meshes": [
                "Building3823-mesh"
            ],
            "name": "model_gridID_108_w376043954_001"
        },
        "node_3": {
            "children": [
                "model_gridID_108_w376043945_001",
                "model_gridID_108_w376043945_002",
                "model_gridID_108_w376043954_001"
            ],
            "matrix": [
                1,
                0,
                0,
                0,
                0,
                0,
                -1,
                0,
                0,
                1,
                0,
                0,
                0,
                0,
                0,
                1
            ],
            "name": "Y_UP_Transform"
        }
    },
    "programs": {
        "program_0": {
            "attributes": [
                "a_normal",
                "a_position"
            ],
            "fragmentShader": "\\data\\ECNU\\workspace\\gridID_108\\gridID_1080FS",
            "vertexShader": "\\data\\ECNU\\workspace\\gridID_108\\gridID_1080VS"
        }
    },
    "scene": "defaultScene",
    "scenes": {
        "defaultScene": {
            "nodes": [
                "node_3"
            ]
        }
    },
    "shaders": {
        "\\data\\ECNU\\workspace\\gridID_108\\gridID_1080FS": {
            "type": 35632,
            "uri": "data:text/plain;base64,"
        },
        "\\data\\ECNU\\workspace\\gridID_108\\gridID_1080VS": {
            "type": 35633,
            "uri": "data:text/plain;base64,"
        }
    },
    "skins": {},
    "techniques": {
        "technique0": {
            "attributes": {
                "a_normal": "normal",
                "a_position": "position"
            },
            "parameters": {
                "ambient": {
                    "type": 35666
                },
                "diffuse": {
                    "type": 35666
                },
                "emission": {
                    "type": 35666
                },
                "modelViewMatrix": {
                    "semantic": "MODELVIEW",
                    "type": 35676
                },
                "normal": {
                    "semantic": "NORMAL",
                    "type": 35665
                },
                "normalMatrix": {
                    "semantic": "MODELVIEWINVERSETRANSPOSE",
                    "type": 35675
                },
                "position": {
                    "semantic": "POSITION",
                    "type": 35665
                },
                "projectionMatrix": {
                    "semantic": "PROJECTION",
                    "type": 35676
                },
                "shininess": {
                    "type": 5126
                },
                "specular": {
                    "type": 35666
                }
            },
            "program": "program_0",
            "states": {
                "enable": [
                    2929,
                    2884
                ]
            },
            "uniforms": {
                "u_ambient": "ambient",
                "u_diffuse": "diffuse",
                "u_emission": "emission",
                "u_modelViewMatrix": "modelViewMatrix",
                "u_normalMatrix": "normalMatrix",
                "u_projectionMatrix": "projectionMatrix",
                "u_shininess": "shininess",
                "u_specular": "specular"
            }
        }
    }
}