{"accessors":{"accessor_16":{"bufferView":"bufferView_42","byteOffset":0,"byteStride":0,"componentType":5123,"count":138,"type":"SCALAR"},"accessor_18":{"bufferView":"bufferView_43","byteOffset":0,"byteStride":12,"componentType":5126,"count":132,"max":[69.6837,77.9703,136.592],"min":[33.6738,48.3201,130.374],"type":"VEC3"},"accessor_20":{"bufferView":"bufferView_43","byteOffset":1584,"byteStride":12,"componentType":5126,"count":132,"max":[0.974261,0.973721,1],"min":[-0.97427,-0.973718,0],"type":"VEC3"},"accessor_36":{"bufferView":"bufferView_42","byteOffset":276,"byteStride":0,"componentType":5123,"count":1824,"type":"SCALAR"},"accessor_38":{"bufferView":"bufferView_43","byteOffset":3168,"byteStride":12,"componentType":5126,"count":1595,"max":[89.2484,21.6924,60.7303],"min":[6.79019,-50.8615,0.640247],"type":"VEC3"},"accessor_40":{"bufferView":"bufferView_43","byteOffset":22308,"byteStride":12,"componentType":5126,"count":1595,"max":[0.997981,0.999981,1],"min":[-0.999842,-0.999981,0],"type":"VEC3"},"accessor_b0":{"bufferView":"bufferView_b","byteOffset":0,"byteStride":0,"componentType":5123,"count":132,"type":"SCALAR"},"accessor_b1":{"bufferView":"bufferView_b","byteOffset":264,"byteStride":0,"componentType":5123,"count":1595,"type":"SCALAR"}},"animations":{},"asset":{"generator":"collada2gltf@cf6371beb0bdc18ba603378d5e40c966da53d385","premultipliedAlpha":true,"profile":{"api":"WebGL","version":"1.0.2"},"version":"1.0"},"bufferViews":{"bufferView_42":{"buffer":"\\data\\3dcity\\miami\\workspace\\gridID_67\\gridID_67_high","byteLength":3924,"byteOffset":0,"target":34963},"bufferView_43":{"buffer":"\\data\\3dcity\\miami\\workspace\\gridID_67\\gridID_67_high","byteLength":41448,"byteOffset":3924,"target":34962},"bufferView_b":{"buffer":"buffer_b","byteLength":3454,"byteOffset":0,"target":34962}},"buffers":{"\\data\\3dcity\\miami\\workspace\\gridID_67\\gridID_67_high":{"byteLength":45372,"type":"arraybuffer","uri":"data:application/octet-stream;base64,"},"buffer_b":{"type":"arraybuffer","byteLength":3454,"uri":"data:application/octet-stream;base64,"}},"materials":{"__glTF__defaultMaterial0":{"name":"__glTF__defaultMaterial0","technique":"technique0","values":{"diffuse":[1,1,1,1]}}},"meshes":{"multipatch_footprint_559-mesh":{"name":"multipatch_footprint.559","primitives":[{"attributes":{"NORMAL":"accessor_20","POSITION":"accessor_18","BATCHID":"accessor_b0"},"indices":"accessor_16","material":"__glTF__defaultMaterial0","mode":4}]},"multipatch_footprint_616-mesh":{"name":"multipatch_footprint.616","primitives":[{"attributes":{"NORMAL":"accessor_40","POSITION":"accessor_38","BATCHID":"accessor_b1"},"indices":"accessor_36","material":"__glTF__defaultMaterial0","mode":4}]}},"nodes":{"gridID_67_w300193829_join":{"children":[],"matrix":[1,0,0,0,0,1,0,0,0,0,1,0,0.000366211,0.000335693,0,1],"meshes":["multipatch_footprint_616-mesh"],"name":"gridID_67_w300193829_join"},"gridID_67_w300193839_join":{"children":[],"matrix":[1,0,0,0,0,1,0,0,0,0,1,0,0.000366211,0.000335693,0,1],"meshes":["multipatch_footprint_559-mesh"],"name":"gridID_67_w300193839_join"},"node_2":{"children":["gridID_67_w300193839_join","gridID_67_w300193829_join"],"matrix":[1,0,0,0,0,0,-1,0,0,1,0,0,0,0,0,1],"name":"Y_UP_Transform"}},"programs":{"program_0":{"attributes":["a_normal","a_position","a_batchId"],"fragmentShader":"\\data\\3dcity\\miami\\workspace\\gridID_67\\gridID_67_high0FS","vertexShader":"\\data\\3dcity\\miami\\workspace\\gridID_67\\gridID_67_high0VS"}},"scene":"defaultScene","scenes":{"defaultScene":{"nodes":["node_2"]}},"shaders":{"\\data\\3dcity\\miami\\workspace\\gridID_67\\gridID_67_high0FS":{"type":35632,"uri":"data:text/plain;base64,"},"\\data\\3dcity\\miami\\workspace\\gridID_67\\gridID_67_high0VS":{"type":35633,"uri":"data:text/plain;base64,"}},"skins":{},"techniques":{"technique0":{"attributes":{"a_normal":"normal","a_position":"position","a_batchId":"batchId"},"parameters":{"diffuse":{"type":35666},"modelViewMatrix":{"semantic":"MODELVIEW","type":35676},"normal":{"semantic":"NORMAL","type":35665},"normalMatrix":{"semantic":"MODELVIEWINVERSETRANSPOSE","type":35675},"position":{"semantic":"POSITION","type":35665},"projectionMatrix":{"semantic":"PROJECTION","type":35676},"batchId":{"semantic":"BATCHID","type":5126}},"program":"program_0","states":{"enable":[2929,2884]},"uniforms":{"u_diffuse":"diffuse","u_modelViewMatrix":"modelViewMatrix","u_normalMatrix":"normalMatrix","u_projectionMatrix":"projectionMatrix"}}}}