{"accessors":{"accessor_16":{"bufferView":"bufferView_62","byteOffset":456,"byteStride":0,"componentType":5123,"count":810,"type":"SCALAR"},"accessor_18":{"bufferView":"bufferView_63","byteOffset":4848,"byteStride":12,"componentType":5126,"count":719,"max":[-47.4651,34.6574,47.6479],"min":[-79.9918,11.8922,0.966228],"type":"VEC3"},"accessor_20":{"bufferView":"bufferView_63","byteOffset":13476,"byteStride":12,"componentType":5126,"count":719,"max":[0.999978,0.999671,1],"min":[-0.999978,-0.999664,-1],"type":"VEC3"},"accessor_36":{"bufferView":"bufferView_62","byteOffset":2076,"byteStride":0,"componentType":5123,"count":2478,"type":"SCALAR"},"accessor_38":{"bufferView":"bufferView_63","byteOffset":22104,"byteStride":12,"componentType":5126,"count":2221,"max":[11.1447,46.7012,51.7341],"min":[-72.5877,-25.1742,0.0408707],"type":"VEC3"},"accessor_40":{"bufferView":"bufferView_63","byteOffset":48756,"byteStride":12,"componentType":5126,"count":2221,"max":[0.996836,0.979165,1],"min":[-0.996834,-0.989988,0],"type":"VEC3"},"accessor_56":{"bufferView":"bufferView_62","byteOffset":0,"byteStride":0,"componentType":5123,"count":228,"type":"SCALAR"},"accessor_58":{"bufferView":"bufferView_63","byteOffset":0,"byteStride":12,"componentType":5126,"count":202,"max":[-19.8707,-29.5573,11.5489],"min":[-42.9701,-48.9054,1.30014],"type":"VEC3"},"accessor_60":{"bufferView":"bufferView_63","byteOffset":2424,"byteStride":12,"componentType":5126,"count":202,"max":[0.97309,0.972521,1],"min":[-0.97309,-0.972521,-1],"type":"VEC3"},"accessor_b0":{"bufferView":"bufferView_b","byteOffset":0,"byteStride":0,"componentType":5123,"count":202,"type":"SCALAR"},"accessor_b1":{"bufferView":"bufferView_b","byteOffset":404,"byteStride":0,"componentType":5123,"count":719,"type":"SCALAR"},"accessor_b2":{"bufferView":"bufferView_b","byteOffset":1842,"byteStride":0,"componentType":5123,"count":2221,"type":"SCALAR"}},"animations":{},"asset":{"generator":"collada2gltf@cf6371beb0bdc18ba603378d5e40c966da53d385","premultipliedAlpha":true,"profile":{"api":"WebGL","version":"1.0.2"},"version":"1.0"},"bufferViews":{"bufferView_62":{"buffer":"\\data\\3dcity\\miami\\workspace\\gridID_49\\gridID_49_high","byteLength":7032,"byteOffset":0,"target":34963},"bufferView_63":{"buffer":"\\data\\3dcity\\miami\\workspace\\gridID_49\\gridID_49_high","byteLength":75408,"byteOffset":7032,"target":34962},"bufferView_b":{"buffer":"buffer_b","byteLength":6284,"byteOffset":0,"target":34962}},"buffers":{"\\data\\3dcity\\miami\\workspace\\gridID_49\\gridID_49_high":{"byteLength":82440,"type":"arraybuffer","uri":"data:application/octet-stream;base64,"},"buffer_b":{"type":"arraybuffer","byteLength":6284,"uri":"data:application/octet-stream;base64,"}},"materials":{"__glTF__defaultMaterial0":{"name":"__glTF__defaultMaterial0","technique":"technique0","values":{"diffuse":[1,1,1,1]}}},"meshes":{"multipatch_footprint_1062-mesh":{"name":"multipatch_footprint.1062","primitives":[{"attributes":{"NORMAL":"accessor_60","POSITION":"accessor_58","BATCHID":"accessor_b0"},"indices":"accessor_56","material":"__glTF__defaultMaterial0","mode":4}]},"multipatch_footprint_540-mesh":{"name":"multipatch_footprint.540","primitives":[{"attributes":{"NORMAL":"accessor_20","POSITION":"accessor_18","BATCHID":"accessor_b1"},"indices":"accessor_16","material":"__glTF__defaultMaterial0","mode":4}]},"multipatch_footprint_542-mesh":{"name":"multipatch_footprint.542","primitives":[{"attributes":{"NORMAL":"accessor_40","POSITION":"accessor_38","BATCHID":"accessor_b2"},"indices":"accessor_36","material":"__glTF__defaultMaterial0","mode":4}]}},"nodes":{"gridID_49_w300483933_join":{"children":[],"matrix":[1,0,0,0,0,1,0,0,0,0,1,0,0.000366211,0.000335693,0,1],"meshes":["multipatch_footprint_540-mesh"],"name":"gridID_49_w300483933_join"},"gridID_49_w300483934_join":{"children":[],"matrix":[1,0,0,0,0,1,0,0,0,0,1,0,0.000366211,0.000335693,0,1],"meshes":["multipatch_footprint_542-mesh"],"name":"gridID_49_w300483934_join"},"gridID_49_w435236366_join":{"children":[],"matrix":[1,0,0,0,0,1,0,0,0,0,1,0,0.000366211,0.000335693,0,1],"meshes":["multipatch_footprint_1062-mesh"],"name":"gridID_49_w435236366_join"},"node_3":{"children":["gridID_49_w300483933_join","gridID_49_w300483934_join","gridID_49_w435236366_join"],"matrix":[1,0,0,0,0,0,-1,0,0,1,0,0,0,0,0,1],"name":"Y_UP_Transform"}},"programs":{"program_0":{"attributes":["a_normal","a_position","a_batchId"],"fragmentShader":"\\data\\3dcity\\miami\\workspace\\gridID_49\\gridID_49_high0FS","vertexShader":"\\data\\3dcity\\miami\\workspace\\gridID_49\\gridID_49_high0VS"}},"scene":"defaultScene","scenes":{"defaultScene":{"nodes":["node_3"]}},"shaders":{"\\data\\3dcity\\miami\\workspace\\gridID_49\\gridID_49_high0FS":{"type":35632,"uri":"data:text/plain;base64,"},"\\data\\3dcity\\miami\\workspace\\gridID_49\\gridID_49_high0VS":{"type":35633,"uri":"data:text/plain;base64,"}},"skins":{},"techniques":{"technique0":{"attributes":{"a_normal":"normal","a_position":"position","a_batchId":"batchId"},"parameters":{"diffuse":{"type":35666},"modelViewMatrix":{"semantic":"MODELVIEW","type":35676},"normal":{"semantic":"NORMAL","type":35665},"normalMatrix":{"semantic":"MODELVIEWINVERSETRANSPOSE","type":35675},"position":{"semantic":"POSITION","type":35665},"projectionMatrix":{"semantic":"PROJECTION","type":35676},"batchId":{"semantic":"BATCHID","type":5126}},"program":"program_0","states":{"enable":[2929,2884]},"uniforms":{"u_diffuse":"diffuse","u_modelViewMatrix":"modelViewMatrix","u_normalMatrix":"normalMatrix","u_projectionMatrix":"projectionMatrix"}}}}