{"accessors":{"accessor_16":{"bufferView":"bufferView_62","byteOffset":0,"byteStride":0,"componentType":5123,"count":156,"type":"SCALAR"},"accessor_18":{"bufferView":"bufferView_63","byteOffset":0,"byteStride":12,"componentType":5126,"count":106,"max":[-25.9052,42,1.24235],"min":[-72.7818,0,-37.9534],"type":"VEC3"},"accessor_20":{"bufferView":"bufferView_63","byteOffset":1272,"byteStride":12,"componentType":5126,"count":106,"max":[0.991049,1,0.975792],"min":[-0.974799,-1,-0.980676],"type":"VEC3"},"accessor_36":{"bufferView":"bufferView_62","byteOffset":312,"byteStride":0,"componentType":5123,"count":252,"type":"SCALAR"},"accessor_38":{"bufferView":"bufferView_63","byteOffset":2544,"byteStride":12,"componentType":5126,"count":174,"max":[12.6447,10,25.6299],"min":[-43.0373,0,-46.6183],"type":"VEC3"},"accessor_40":{"bufferView":"bufferView_63","byteOffset":4632,"byteStride":12,"componentType":5126,"count":174,"max":[0.980618,1,0.992335],"min":[-0.991049,-1,-0.979527],"type":"VEC3"},"accessor_56":{"bufferView":"bufferView_62","byteOffset":816,"byteStride":0,"componentType":5123,"count":84,"type":"SCALAR"},"accessor_58":{"bufferView":"bufferView_63","byteOffset":6720,"byteStride":12,"componentType":5126,"count":64,"max":[-19.6379,3,47.2734],"min":[-42.0577,0,29.4865],"type":"VEC3"},"accessor_60":{"bufferView":"bufferView_63","byteOffset":7488,"byteStride":12,"componentType":5126,"count":64,"max":[0.972595,1,0.971817],"min":[-0.972766,-1,-0.971988],"type":"VEC3"},"accessor_b0":{"bufferView":"bufferView_b","byteOffset":0,"byteStride":0,"componentType":5123,"count":106,"type":"SCALAR"},"accessor_b1":{"bufferView":"bufferView_b","byteOffset":212,"byteStride":0,"componentType":5123,"count":174,"type":"SCALAR"},"accessor_b2":{"bufferView":"bufferView_b","byteOffset":560,"byteStride":0,"componentType":5123,"count":64,"type":"SCALAR"}},"animations":{},"asset":{"generator":"collada2gltf@cf6371beb0bdc18ba603378d5e40c966da53d385","premultipliedAlpha":true,"profile":{"api":"WebGL","version":"1.0.2"},"version":"1.0"},"bufferViews":{"bufferView_62":{"buffer":"\\data\\3dcity\\miami\\workspace\\gridID_49\\gridID_49","byteLength":984,"byteOffset":0,"target":34963},"bufferView_63":{"buffer":"\\data\\3dcity\\miami\\workspace\\gridID_49\\gridID_49","byteLength":8256,"byteOffset":984,"target":34962},"bufferView_b":{"buffer":"buffer_b","byteLength":688,"byteOffset":0,"target":34962}},"buffers":{"\\data\\3dcity\\miami\\workspace\\gridID_49\\gridID_49":{"byteLength":9240,"type":"arraybuffer","uri":"data:application/octet-stream;base64,"},"buffer_b":{"type":"arraybuffer","byteLength":688,"uri":"data:application/octet-stream;base64,"}},"materials":{"CityEngineMaterial_503-effect":{"name":"CityEngineMaterial_503","technique":"technique0","values":{"ambient":[1,1,1,1],"diffuse":[1,1,1,1],"emission":[0,0,0,1],"shininess":50,"specular":[0.5,0.5,0.5,1]}},"CityEngineMaterial_504-effect":{"name":"CityEngineMaterial_504","technique":"technique0","values":{"ambient":[1,1,1,1],"diffuse":[1,1,1,1],"emission":[0,0,0,1],"shininess":50,"specular":[0.5,0.5,0.5,1]}},"CityEngineMaterial_505-effect":{"name":"CityEngineMaterial_505","technique":"technique0","values":{"ambient":[1,1,1,1],"diffuse":[1,1,1,1],"emission":[0,0,0,1],"shininess":50,"specular":[0.5,0.5,0.5,1]}}},"meshes":{"mesh_CityEngineMaterial_501-mesh":{"name":"mesh_CityEngineMaterial.501","primitives":[{"attributes":{"NORMAL":"accessor_20","POSITION":"accessor_18","BATCHID":"accessor_b0"},"indices":"accessor_16","material":"CityEngineMaterial_503-effect","mode":4}]},"mesh_CityEngineMaterial_502-mesh":{"name":"mesh_CityEngineMaterial.502","primitives":[{"attributes":{"NORMAL":"accessor_40","POSITION":"accessor_38","BATCHID":"accessor_b1"},"indices":"accessor_36","material":"CityEngineMaterial_504-effect","mode":4}]},"mesh_CityEngineMaterial_503-mesh":{"name":"mesh_CityEngineMaterial.503","primitives":[{"attributes":{"NORMAL":"accessor_60","POSITION":"accessor_58","BATCHID":"accessor_b2"},"indices":"accessor_56","material":"CityEngineMaterial_505-effect","mode":4}]}},"nodes":{"CityEngineMaterial":{"children":[],"matrix":[1,0,0,0,0,-1.62921e-7,1,0,0,-1,-1.62921e-7,0,0,0,0,1],"meshes":["mesh_CityEngineMaterial_501-mesh"],"name":"CityEngineMaterial"},"CityEngineMaterial_001":{"children":[],"matrix":[1,0,0,0,0,-1.62921e-7,1,0,0,-1,-1.62921e-7,0,0,0,0,1],"meshes":["mesh_CityEngineMaterial_502-mesh"],"name":"CityEngineMaterial_001"},"CityEngineMaterial_002":{"children":[],"matrix":[1,0,0,0,0,-1.62921e-7,1,0,0,-1,-1.62921e-7,0,0,0,0,1],"meshes":["mesh_CityEngineMaterial_503-mesh"],"name":"CityEngineMaterial_002"},"node_3":{"children":["CityEngineMaterial","CityEngineMaterial_001","CityEngineMaterial_002"],"matrix":[1,0,0,0,0,0,-1,0,0,1,0,0,0,0,0,1],"name":"Y_UP_Transform"}},"programs":{"program_0":{"attributes":["a_normal","a_position","a_batchId"],"fragmentShader":"\\data\\3dcity\\miami\\workspace\\gridID_49\\gridID_490FS","vertexShader":"\\data\\3dcity\\miami\\workspace\\gridID_49\\gridID_490VS"}},"scene":"defaultScene","scenes":{"defaultScene":{"nodes":["node_3"]}},"shaders":{"\\data\\3dcity\\miami\\workspace\\gridID_49\\gridID_490FS":{"type":35632,"uri":"data:text/plain;base64,"},"\\data\\3dcity\\miami\\workspace\\gridID_49\\gridID_490VS":{"type":35633,"uri":"data:text/plain;base64,"}},"skins":{},"techniques":{"technique0":{"attributes":{"a_normal":"normal","a_position":"position","a_batchId":"batchId"},"parameters":{"ambient":{"type":35666},"diffuse":{"type":35666},"emission":{"type":35666},"modelViewMatrix":{"semantic":"MODELVIEW","type":35676},"normal":{"semantic":"NORMAL","type":35665},"normalMatrix":{"semantic":"MODELVIEWINVERSETRANSPOSE","type":35675},"position":{"semantic":"POSITION","type":35665},"projectionMatrix":{"semantic":"PROJECTION","type":35676},"shininess":{"type":5126},"specular":{"type":35666},"batchId":{"semantic":"BATCHID","type":5126}},"program":"program_0","states":{"enable":[2929,2884]},"uniforms":{"u_ambient":"ambient","u_diffuse":"diffuse","u_emission":"emission","u_modelViewMatrix":"modelViewMatrix","u_normalMatrix":"normalMatrix","u_projectionMatrix":"projectionMatrix","u_shininess":"shininess","u_specular":"specular"}}}}