{
    "accessors": {
        "accessor_28": {
            "bufferView": "bufferView_87",
            "byteOffset": 0,
            "byteStride": 0,
            "componentType": 5123,
            "count": 66,
            "type": "SCALAR"
        },
        "accessor_31": {
            "bufferView": "bufferView_87",
            "byteOffset": 132,
            "byteStride": 0,
            "componentType": 5123,
            "count": 12,
            "type": "SCALAR"
        },
        "accessor_33": {
            "bufferView": "bufferView_88",
            "byteOffset": 0,
            "byteStride": 12,
            "componentType": 5126,
            "count": 72,
            "max": [
                7.32251,
                2.64671,
                5.30217
            ],
            "min": [
                -6.50848,
                -1.85329,
                -4.99483
            ],
            "type": "VEC3"
        },
        "accessor_35": {
            "bufferView": "bufferView_88",
            "byteOffset": 864,
            "byteStride": 12,
            "componentType": 5126,
            "count": 72,
            "max": [
                0.979925,
                0.893869,
                1
            ],
            "min": [
                -0.97989,
                0,
                -0.979869
            ],
            "type": "VEC3"
        },
        "accessor_75": {
            "bufferView": "bufferView_87",
            "byteOffset": 156,
            "byteStride": 0,
            "componentType": 5123,
            "count": 264,
            "type": "SCALAR"
        },
        "accessor_78": {
            "bufferView": "bufferView_87",
            "byteOffset": 684,
            "byteStride": 0,
            "componentType": 5123,
            "count": 72,
            "type": "SCALAR"
        },
        "accessor_81": {
            "bufferView": "bufferView_87",
            "byteOffset": 828,
            "byteStride": 0,
            "componentType": 5123,
            "count": 6,
            "type": "SCALAR"
        },
        "accessor_83": {
            "bufferView": "bufferView_88",
            "byteOffset": 1728,
            "byteStride": 12,
            "componentType": 5126,
            "count": 292,
            "max": [
                17.0714,
                5.63333,
                10.8741
            ],
            "min": [
                -17.1396,
                -1.86667,
                -10.8999
            ],
            "type": "VEC3"
        },
        "accessor_85": {
            "bufferView": "bufferView_88",
            "byteOffset": 5232,
            "byteStride": 12,
            "componentType": 5126,
            "count": 292,
            "max": [
                0.98478,
                1,
                0.985393
            ],
            "min": [
                -0.984812,
                0,
                -0.98589
            ],
            "type": "VEC3"
        }
    },
    "animations": {},
    "asset": {
        "generator": "collada2gltf@cf6371beb0bdc18ba603378d5e40c966da53d385",
        "premultipliedAlpha": true,
        "profile": {
            "api": "WebGL",
            "version": "1.0.2"
        },
        "version": "1.0"
    },
    "bufferViews": {
        "bufferView_87": {
            "buffer": "\\data\\ECNU\\workspace\\gridID_33\\gridID_33",
            "byteLength": 840,
            "byteOffset": 0,
            "target": 34963
        },
        "bufferView_88": {
            "buffer": "\\data\\ECNU\\workspace\\gridID_33\\gridID_33",
            "byteLength": 8736,
            "byteOffset": 840,
            "target": 34962
        }
    },
    "buffers": {
        "\\data\\ECNU\\workspace\\gridID_33\\gridID_33": {
            "byteLength": 9576,
            "type": "arraybuffer",
            "uri": "data:application/octet-stream;base64,"
        }
    },
    "materials": {
        "BUILDING_DEFAULT_0-effect": {
            "name": "BUILDING_DEFAULT_0",
            "technique": "technique0",
            "values": {
                "ambient": [
                    0,
                    0,
                    0,
                    1
                ],
                "diffuse": [
                    0.723055,
                    0.708376,
                    0.672443,
                    1
                ],
                "emission": [
                    0,
                    0,
                    0,
                    1
                ],
                "shininess": 50,
                "specular": [
                    0.5,
                    0.5,
                    0.5,
                    1
                ]
            }
        },
        "CONCRETE_0-effect": {
            "name": "CONCRETE_0",
            "technique": "technique0",
            "values": {
                "ambient": [
                    0,
                    0,
                    0,
                    1
                ],
                "diffuse": [
                    0.309469,
                    0.327778,
                    0.309469,
                    1
                ],
                "emission": [
                    0,
                    0,
                    0,
                    1
                ],
                "shininess": 50,
                "specular": [
                    0.5,
                    0.5,
                    0.5,
                    1
                ]
            }
        },
        "ROOF_DEFAULT_0-effect": {
            "name": "ROOF_DEFAULT_0",
            "technique": "technique0",
            "values": {
                "ambient": [
                    0,
                    0,
                    0,
                    1
                ],
                "diffuse": [
                    0.603827,
                    0.381326,
                    0.291771,
                    1
                ],
                "emission": [
                    0,
                    0,
                    0,
                    1
                ],
                "shininess": 50,
                "specular": [
                    0.5,
                    0.5,
                    0.5,
                    1
                ]
            }
        }
    },
    "meshes": {
        "Building3828-mesh": {
            "name": "Building3828",
            "primitives": [
                {
                    "attributes": {
                        "NORMAL": "accessor_35",
                        "POSITION": "accessor_33"
                    },
                    "indices": "accessor_28",
                    "material": "BUILDING_DEFAULT_0-effect",
                    "mode": 4
                },
                {
                    "attributes": {
                        "NORMAL": "accessor_35",
                        "POSITION": "accessor_33"
                    },
                    "indices": "accessor_31",
                    "material": "ROOF_DEFAULT_0-effect",
                    "mode": 4
                }
            ]
        },
        "Building4193-mesh": {
            "name": "Building4193",
            "primitives": [
                {
                    "attributes": {
                        "NORMAL": "accessor_85",
                        "POSITION": "accessor_83"
                    },
                    "indices": "accessor_75",
                    "material": "BUILDING_DEFAULT_0-effect",
                    "mode": 4
                },
                {
                    "attributes": {
                        "NORMAL": "accessor_85",
                        "POSITION": "accessor_83"
                    },
                    "indices": "accessor_78",
                    "material": "ROOF_DEFAULT_0-effect",
                    "mode": 4
                },
                {
                    "attributes": {
                        "NORMAL": "accessor_85",
                        "POSITION": "accessor_83"
                    },
                    "indices": "accessor_81",
                    "material": "CONCRETE_0-effect",
                    "mode": 4
                }
            ]
        }
    },
    "nodes": {
        "model_gridID_33_w390027484": {
            "children": [],
            "matrix": [
                1,
                0,
                0,
                0,
                0,
                -1.62921e-007,
                1,
                0,
                0,
                -1,
                -1.62921e-007,
                0,
                -556.589,
                -187.301,
                1.85326,
                1
            ],
            "meshes": [
                "Building3828-mesh"
            ],
            "name": "model_gridID_33_w390027484"
        },
        "model_gridID_33_w390383621": {
            "children": [],
            "matrix": [
                1,
                0,
                0,
                0,
                0,
                -1.62921e-007,
                1,
                0,
                0,
                -1,
                -1.62921e-007,
                0,
                -543.625,
                -202.134,
                1.86663,
                1
            ],
            "meshes": [
                "Building4193-mesh"
            ],
            "name": "model_gridID_33_w390383621"
        },
        "node_2": {
            "children": [
                "model_gridID_33_w390027484",
                "model_gridID_33_w390383621"
            ],
            "matrix": [
                1,
                0,
                0,
                0,
                0,
                0,
                -1,
                0,
                0,
                1,
                0,
                0,
                0,
                0,
                0,
                1
            ],
            "name": "Y_UP_Transform"
        }
    },
    "programs": {
        "program_0": {
            "attributes": [
                "a_normal",
                "a_position"
            ],
            "fragmentShader": "\\data\\ECNU\\workspace\\gridID_33\\gridID_330FS",
            "vertexShader": "\\data\\ECNU\\workspace\\gridID_33\\gridID_330VS"
        }
    },
    "scene": "defaultScene",
    "scenes": {
        "defaultScene": {
            "nodes": [
                "node_2"
            ]
        }
    },
    "shaders": {
        "\\data\\ECNU\\workspace\\gridID_33\\gridID_330FS": {
            "type": 35632,
            "uri": "data:text/plain;base64,"
        },
        "\\data\\ECNU\\workspace\\gridID_33\\gridID_330VS": {
            "type": 35633,
            "uri": "data:text/plain;base64,"
        }
    },
    "skins": {},
    "techniques": {
        "technique0": {
            "attributes": {
                "a_normal": "normal",
                "a_position": "position"
            },
            "parameters": {
                "ambient": {
                    "type": 35666
                },
                "diffuse": {
                    "type": 35666
                },
                "emission": {
                    "type": 35666
                },
                "modelViewMatrix": {
                    "semantic": "MODELVIEW",
                    "type": 35676
                },
                "normal": {
                    "semantic": "NORMAL",
                    "type": 35665
                },
                "normalMatrix": {
                    "semantic": "MODELVIEWINVERSETRANSPOSE",
                    "type": 35675
                },
                "position": {
                    "semantic": "POSITION",
                    "type": 35665
                },
                "projectionMatrix": {
                    "semantic": "PROJECTION",
                    "type": 35676
                },
                "shininess": {
                    "type": 5126
                },
                "specular": {
                    "type": 35666
                }
            },
            "program": "program_0",
            "states": {
                "enable": [
                    2929,
                    2884
                ]
            },
            "uniforms": {
                "u_ambient": "ambient",
                "u_diffuse": "diffuse",
                "u_emission": "emission",
                "u_modelViewMatrix": "modelViewMatrix",
                "u_normalMatrix": "normalMatrix",
                "u_projectionMatrix": "projectionMatrix",
                "u_shininess": "shininess",
                "u_specular": "specular"
            }
        }
    }
}