{"accessors":{"accessor_101":{"bufferView":"bufferView_247","byteOffset":2358,"byteStride":0,"componentType":5123,"count":54,"type":"SCALAR"},"accessor_103":{"bufferView":"bufferView_248","byteOffset":20208,"byteStride":12,"componentType":5126,"count":112,"max":[13.1168,6.25,11.2577],"min":[-14.3171,-6.25,-10.3382],"type":"VEC3"},"accessor_105":{"bufferView":"bufferView_248","byteOffset":21552,"byteStride":12,"componentType":5126,"count":112,"max":[0.910615,1,0.910651],"min":[-0.911188,0,-0.910721],"type":"VEC3"},"accessor_133":{"bufferView":"bufferView_247","byteOffset":1770,"byteStride":0,"componentType":5123,"count":120,"type":"SCALAR"},"accessor_136":{"bufferView":"bufferView_247","byteOffset":2010,"byteStride":0,"componentType":5123,"count":54,"type":"SCALAR"},"accessor_138":{"bufferView":"bufferView_248","byteOffset":17352,"byteStride":12,"componentType":5126,"count":119,"max":[13.1168,6.25,11.256],"min":[-14.3161,-6.25,-10.341],"type":"VEC3"},"accessor_140":{"bufferView":"bufferView_248","byteOffset":18780,"byteStride":12,"componentType":5126,"count":119,"max":[0.910454,1,0.91058],"min":[-0.911184,0,-0.911715],"type":"VEC3"},"accessor_168":{"bufferView":"bufferView_247","byteOffset":1404,"byteStride":0,"componentType":5123,"count":126,"type":"SCALAR"},"accessor_171":{"bufferView":"bufferView_247","byteOffset":1656,"byteStride":0,"componentType":5123,"count":57,"type":"SCALAR"},"accessor_173":{"bufferView":"bufferView_248","byteOffset":14040,"byteStride":12,"componentType":5126,"count":138,"max":[10.4583,3.75,7.38843],"min":[-8.94072,-3.75,-7.17258],"type":"VEC3"},"accessor_175":{"bufferView":"bufferView_248","byteOffset":15696,"byteStride":12,"componentType":5126,"count":138,"max":[0.990867,1,0.990898],"min":[-0.991214,0,-0.991228],"type":"VEC3"},"accessor_203":{"bufferView":"bufferView_247","byteOffset":1020,"byteStride":0,"componentType":5123,"count":132,"type":"SCALAR"},"accessor_206":{"bufferView":"bufferView_247","byteOffset":1284,"byteStride":0,"componentType":5123,"count":60,"type":"SCALAR"},"accessor_208":{"bufferView":"bufferView_248","byteOffset":10416,"byteStride":12,"componentType":5126,"count":151,"max":[11.5889,3.75,6.04053],"min":[-11.5431,-3.75,-7.28448],"type":"VEC3"},"accessor_210":{"bufferView":"bufferView_248","byteOffset":12228,"byteStride":12,"componentType":5126,"count":151,"max":[0.99119,1,0.991777],"min":[-0.991163,0,-0.99103],"type":"VEC3"},"accessor_238":{"bufferView":"bufferView_247","byteOffset":474,"byteStride":0,"componentType":5123,"count":186,"type":"SCALAR"},"accessor_241":{"bufferView":"bufferView_247","byteOffset":846,"byteStride":0,"componentType":5123,"count":87,"type":"SCALAR"},"accessor_243":{"bufferView":"bufferView_248","byteOffset":4512,"byteStride":12,"componentType":5126,"count":246,"max":[15.4133,3.75,6.91522],"min":[-15.7136,-3.75,-7.27878],"type":"VEC3"},"accessor_245":{"bufferView":"bufferView_248","byteOffset":7464,"byteStride":12,"componentType":5126,"count":246,"max":[0.991667,1,0.991147],"min":[-0.99108,0,-0.991355],"type":"VEC3"},"accessor_28":{"bufferView":"bufferView_247","byteOffset":0,"byteStride":0,"componentType":5123,"count":132,"type":"SCALAR"},"accessor_31":{"bufferView":"bufferView_247","byteOffset":264,"byteStride":0,"componentType":5123,"count":66,"type":"SCALAR"},"accessor_33":{"bufferView":"bufferView_248","byteOffset":0,"byteStride":12,"componentType":5126,"count":157,"max":[26.563,8.75,34.1479],"min":[-31.674,-8.75,-27.592],"type":"VEC3"},"accessor_35":{"bufferView":"bufferView_248","byteOffset":1884,"byteStride":12,"componentType":5126,"count":157,"max":[0.936368,1,0.94251],"min":[-0.945346,0,-0.947955],"type":"VEC3"},"accessor_63":{"bufferView":"bufferView_247","byteOffset":396,"byteStride":0,"componentType":5123,"count":30,"type":"SCALAR"},"accessor_66":{"bufferView":"bufferView_247","byteOffset":456,"byteStride":0,"componentType":5123,"count":9,"type":"SCALAR"},"accessor_68":{"bufferView":"bufferView_248","byteOffset":3768,"byteStride":12,"componentType":5126,"count":31,"max":[10.9258,3.75,16.516],"min":[-15.9272,-3.75,-22.258],"type":"VEC3"},"accessor_70":{"bufferView":"bufferView_248","byteOffset":4140,"byteStride":12,"componentType":5126,"count":31,"max":[0.910186,1,0.910182],"min":[-0.910546,0,-0.918307],"type":"VEC3"},"accessor_98":{"bufferView":"bufferView_247","byteOffset":2118,"byteStride":0,"componentType":5123,"count":120,"type":"SCALAR"},"accessor_b0":{"bufferView":"bufferView_b","byteOffset":0,"byteStride":0,"componentType":5123,"count":157,"type":"SCALAR"},"accessor_b1":{"bufferView":"bufferView_b","byteOffset":314,"byteStride":0,"componentType":5123,"count":31,"type":"SCALAR"},"accessor_b2":{"bufferView":"bufferView_b","byteOffset":376,"byteStride":0,"componentType":5123,"count":246,"type":"SCALAR"},"accessor_b3":{"bufferView":"bufferView_b","byteOffset":868,"byteStride":0,"componentType":5123,"count":151,"type":"SCALAR"},"accessor_b4":{"bufferView":"bufferView_b","byteOffset":1170,"byteStride":0,"componentType":5123,"count":138,"type":"SCALAR"},"accessor_b5":{"bufferView":"bufferView_b","byteOffset":1446,"byteStride":0,"componentType":5123,"count":119,"type":"SCALAR"},"accessor_b6":{"bufferView":"bufferView_b","byteOffset":1684,"byteStride":0,"componentType":5123,"count":112,"type":"SCALAR"}},"animations":{},"asset":{"generator":"collada2gltf@cf6371beb0bdc18ba603378d5e40c966da53d385","premultipliedAlpha":true,"profile":{"api":"WebGL","version":"1.0.2"},"version":"1.0"},"bufferViews":{"bufferView_247":{"buffer":"\\data\\ECNU\\workspace\\gridID_95\\gridID_95","byteLength":2468,"byteOffset":0,"target":34963},"bufferView_248":{"buffer":"\\data\\ECNU\\workspace\\gridID_95\\gridID_95","byteLength":22896,"byteOffset":2468,"target":34962},"bufferView_b":{"buffer":"buffer_b","byteLength":1908,"byteOffset":0,"target":34962}},"buffers":{"\\data\\ECNU\\workspace\\gridID_95\\gridID_95":{"byteLength":25364,"type":"arraybuffer","uri":"data:application/octet-stream;base64,"},"buffer_b":{"type":"arraybuffer","byteLength":1908,"uri":"data:application/octet-stream;base64,"}},"materials":{"BUILDING_DEFAULT_0-effect":{"name":"BUILDING_DEFAULT_0","technique":"technique0","values":{"ambient":[0,0,0,1],"diffuse":[0.723055,0.708376,0.672443,1],"emission":[0,0,0,1],"shininess":50,"specular":[0.5,0.5,0.5,1]}},"CONCRETE_0-effect":{"name":"CONCRETE_0","technique":"technique0","values":{"ambient":[0,0,0,1],"diffuse":[0.309469,0.327778,0.309469,1],"emission":[0,0,0,1],"shininess":50,"specular":[0.5,0.5,0.5,1]}},"ROOF_DEFAULT_0-effect":{"name":"ROOF_DEFAULT_0","technique":"technique0","values":{"ambient":[0,0,0,1],"diffuse":[0.603827,0.381326,0.291771,1],"emission":[0,0,0,1],"shininess":50,"specular":[0.5,0.5,0.5,1]}}},"meshes":{"Building3276-mesh":{"name":"Building3276","primitives":[{"attributes":{"NORMAL":"accessor_35","POSITION":"accessor_33","BATCHID":"accessor_b0"},"indices":"accessor_28","material":"BUILDING_DEFAULT_0-effect","mode":4},{"attributes":{"NORMAL":"accessor_35","POSITION":"accessor_33","BATCHID":"accessor_b0"},"indices":"accessor_31","material":"ROOF_DEFAULT_0-effect","mode":4}]},"Building3353-mesh":{"name":"Building3353","primitives":[{"attributes":{"NORMAL":"accessor_70","POSITION":"accessor_68","BATCHID":"accessor_b1"},"indices":"accessor_63","material":"BUILDING_DEFAULT_0-effect","mode":4},{"attributes":{"NORMAL":"accessor_70","POSITION":"accessor_68","BATCHID":"accessor_b1"},"indices":"accessor_66","material":"ROOF_DEFAULT_0-effect","mode":4}]},"Building3383-mesh":{"name":"Building3383","primitives":[{"attributes":{"NORMAL":"accessor_245","POSITION":"accessor_243","BATCHID":"accessor_b2"},"indices":"accessor_238","material":"BUILDING_DEFAULT_0-effect","mode":4},{"attributes":{"NORMAL":"accessor_245","POSITION":"accessor_243","BATCHID":"accessor_b2"},"indices":"accessor_241","material":"ROOF_DEFAULT_0-effect","mode":4}]},"Building3385-mesh":{"name":"Building3385","primitives":[{"attributes":{"NORMAL":"accessor_210","POSITION":"accessor_208","BATCHID":"accessor_b3"},"indices":"accessor_203","material":"BUILDING_DEFAULT_0-effect","mode":4},{"attributes":{"NORMAL":"accessor_210","POSITION":"accessor_208","BATCHID":"accessor_b3"},"indices":"accessor_206","material":"ROOF_DEFAULT_0-effect","mode":4}]},"Building3386-mesh":{"name":"Building3386","primitives":[{"attributes":{"NORMAL":"accessor_175","POSITION":"accessor_173","BATCHID":"accessor_b4"},"indices":"accessor_168","material":"BUILDING_DEFAULT_0-effect","mode":4},{"attributes":{"NORMAL":"accessor_175","POSITION":"accessor_173","BATCHID":"accessor_b4"},"indices":"accessor_171","material":"ROOF_DEFAULT_0-effect","mode":4}]},"Building4093-mesh":{"name":"Building4093","primitives":[{"attributes":{"NORMAL":"accessor_140","POSITION":"accessor_138","BATCHID":"accessor_b5"},"indices":"accessor_133","material":"BUILDING_DEFAULT_0-effect","mode":4},{"attributes":{"NORMAL":"accessor_140","POSITION":"accessor_138","BATCHID":"accessor_b5"},"indices":"accessor_136","material":"CONCRETE_0-effect","mode":4}]},"Building4094-mesh":{"name":"Building4094","primitives":[{"attributes":{"NORMAL":"accessor_105","POSITION":"accessor_103","BATCHID":"accessor_b6"},"indices":"accessor_98","material":"BUILDING_DEFAULT_0-effect","mode":4},{"attributes":{"NORMAL":"accessor_105","POSITION":"accessor_103","BATCHID":"accessor_b6"},"indices":"accessor_101","material":"CONCRETE_0-effect","mode":4}]}},"nodes":{"model_gridID_95_r1618082_001":{"children":[],"matrix":[1,0,0,0,0,-1.62921e-7,1,0,0,-1,-1.62921e-7,0,-3.10796,348.363,8.75006,1],"meshes":["Building3276-mesh"],"name":"model_gridID_95_r1618082_001"},"model_gridID_95_w376198997":{"children":[],"matrix":[1,0,0,0,0,-1.62921e-7,1,0,0,-1,-1.62921e-7,0,53.8032,378.856,3.75006,1],"meshes":["Building3353-mesh"],"name":"model_gridID_95_w376198997"},"model_gridID_95_w376400917":{"children":[],"matrix":[1,0,0,0,0,-1.62921e-7,1,0,0,-1,-1.62921e-7,0,19.3241,390.13,6.25006,1],"meshes":["Building4094-mesh"],"name":"model_gridID_95_w376400917"},"model_gridID_95_w376400918":{"children":[],"matrix":[1,0,0,0,0,-1.62921e-7,1,0,0,-1,-1.62921e-7,0,34.1731,363.332,6.25006,1],"meshes":["Building4093-mesh"],"name":"model_gridID_95_w376400918"},"model_gridID_95_w376403039":{"children":[],"matrix":[1,0,0,0,0,-1.62921e-7,1,0,0,-1,-1.62921e-7,0,-17.0363,435.754,3.75007,1],"meshes":["Building3386-mesh"],"name":"model_gridID_95_w376403039"},"model_gridID_95_w376403041":{"children":[],"matrix":[1,0,0,0,0,-1.62921e-7,1,0,0,-1,-1.62921e-7,0,27.5251,427.56,3.75007,1],"meshes":["Building3385-mesh"],"name":"model_gridID_95_w376403041"},"model_gridID_95_w376403043":{"children":[],"matrix":[1,0,0,0,0,-1.62921e-7,1,0,0,-1,-1.62921e-7,0,3.55764,421.633,3.75007,1],"meshes":["Building3383-mesh"],"name":"model_gridID_95_w376403043"},"node_7":{"children":["model_gridID_95_r1618082_001","model_gridID_95_w376198997","model_gridID_95_w376400917","model_gridID_95_w376400918","model_gridID_95_w376403039","model_gridID_95_w376403041","model_gridID_95_w376403043"],"matrix":[1,0,0,0,0,0,-1,0,0,1,0,0,0,0,0,1],"name":"Y_UP_Transform"}},"programs":{"program_0":{"attributes":["a_normal","a_position","a_batchId"],"fragmentShader":"\\data\\ECNU\\workspace\\gridID_95\\gridID_950FS","vertexShader":"\\data\\ECNU\\workspace\\gridID_95\\gridID_950VS"}},"scene":"defaultScene","scenes":{"defaultScene":{"nodes":["node_7"]}},"shaders":{"\\data\\ECNU\\workspace\\gridID_95\\gridID_950FS":{"type":35632,"uri":"data:text/plain;base64,"},"\\data\\ECNU\\workspace\\gridID_95\\gridID_950VS":{"type":35633,"uri":"data:text/plain;base64,"}},"skins":{},"techniques":{"technique0":{"attributes":{"a_normal":"normal","a_position":"position","a_batchId":"batchId"},"parameters":{"ambient":{"type":35666},"diffuse":{"type":35666},"emission":{"type":35666},"modelViewMatrix":{"semantic":"MODELVIEW","type":35676},"normal":{"semantic":"NORMAL","type":35665},"normalMatrix":{"semantic":"MODELVIEWINVERSETRANSPOSE","type":35675},"position":{"semantic":"POSITION","type":35665},"projectionMatrix":{"semantic":"PROJECTION","type":35676},"shininess":{"type":5126},"specular":{"type":35666},"batchId":{"semantic":"BATCHID","type":5126}},"program":"program_0","states":{"enable":[2929,2884]},"uniforms":{"u_ambient":"ambient","u_diffuse":"diffuse","u_emission":"emission","u_modelViewMatrix":"modelViewMatrix","u_normalMatrix":"normalMatrix","u_projectionMatrix":"projectionMatrix","u_shininess":"shininess","u_specular":"specular"}}}}