{"accessors":{"accessor_107":{"bufferView":"bufferView_157","byteOffset":156,"byteStride":0,"componentType":5123,"count":36,"type":"SCALAR"},"accessor_110":{"bufferView":"bufferView_157","byteOffset":228,"byteStride":0,"componentType":5123,"count":252,"type":"SCALAR"},"accessor_113":{"bufferView":"bufferView_157","byteOffset":732,"byteStride":0,"componentType":5123,"count":12,"type":"SCALAR"},"accessor_116":{"bufferView":"bufferView_157","byteOffset":756,"byteStride":0,"componentType":5123,"count":84,"type":"SCALAR"},"accessor_118":{"bufferView":"bufferView_158","byteOffset":1584,"byteStride":12,"componentType":5126,"count":320,"max":[34.0066,11.8688,20.0913],"min":[-31.1614,-5.63117,-30.9507],"type":"VEC3"},"accessor_120":{"bufferView":"bufferView_158","byteOffset":5424,"byteStride":12,"componentType":5126,"count":320,"max":[0.933541,1,0.934341],"min":[-0.933125,0,-0.933208],"type":"VEC3"},"accessor_148":{"bufferView":"bufferView_157","byteOffset":924,"byteStride":0,"componentType":5123,"count":6,"type":"SCALAR"},"accessor_151":{"bufferView":"bufferView_157","byteOffset":936,"byteStride":0,"componentType":5123,"count":30,"type":"SCALAR"},"accessor_153":{"bufferView":"bufferView_158","byteOffset":9264,"byteStride":12,"componentType":5126,"count":32,"max":[1.11124,0.15,1.72553],"min":[-1.11575,-0.15,-1.72546],"type":"VEC3"},"accessor_155":{"bufferView":"bufferView_158","byteOffset":9648,"byteStride":12,"componentType":5126,"count":32,"max":[0.933125,1,0.93055],"min":[-0.932195,-1,-0.931611],"type":"VEC3"},"accessor_16":{"bufferView":"bufferView_157","byteOffset":996,"byteStride":0,"componentType":5123,"count":36,"type":"SCALAR"},"accessor_18":{"bufferView":"bufferView_158","byteOffset":10032,"byteStride":12,"componentType":5126,"count":24,"max":[0.228989,1,0.483795],"min":[-0.228989,-1,-0.483765],"type":"VEC3"},"accessor_20":{"bufferView":"bufferView_158","byteOffset":10320,"byteStride":12,"componentType":5126,"count":24,"max":[0.93106,1,0.931022],"min":[-0.93106,-1,-0.931022],"type":"VEC3"},"accessor_48":{"bufferView":"bufferView_157","byteOffset":0,"byteStride":0,"componentType":5123,"count":48,"type":"SCALAR"},"accessor_51":{"bufferView":"bufferView_157","byteOffset":96,"byteStride":0,"componentType":5123,"count":30,"type":"SCALAR"},"accessor_53":{"bufferView":"bufferView_158","byteOffset":0,"byteStride":12,"componentType":5126,"count":66,"max":[19.5758,7.77778,13.4778],"min":[-26.4002,-4.72222,-16.6122],"type":"VEC3"},"accessor_55":{"bufferView":"bufferView_158","byteOffset":792,"byteStride":12,"componentType":5126,"count":66,"max":[0.933707,0.842375,0.933674],"min":[-0.933316,0,-0.933442],"type":"VEC3"},"accessor_b0":{"bufferView":"bufferView_b","byteOffset":0,"byteStride":0,"componentType":5123,"count":66,"type":"SCALAR"},"accessor_b1":{"bufferView":"bufferView_b","byteOffset":132,"byteStride":0,"componentType":5123,"count":320,"type":"SCALAR"},"accessor_b2":{"bufferView":"bufferView_b","byteOffset":772,"byteStride":0,"componentType":5123,"count":32,"type":"SCALAR"},"accessor_b3":{"bufferView":"bufferView_b","byteOffset":836,"byteStride":0,"componentType":5123,"count":24,"type":"SCALAR"}},"animations":{},"asset":{"generator":"collada2gltf@cf6371beb0bdc18ba603378d5e40c966da53d385","premultipliedAlpha":true,"profile":{"api":"WebGL","version":"1.0.2"},"version":"1.0"},"bufferViews":{"bufferView_157":{"buffer":"\\data\\ECNU\\workspace\\gridID_93\\gridID_93","byteLength":1068,"byteOffset":0,"target":34963},"bufferView_158":{"buffer":"\\data\\ECNU\\workspace\\gridID_93\\gridID_93","byteLength":10608,"byteOffset":1068,"target":34962},"bufferView_b":{"buffer":"buffer_b","byteLength":884,"byteOffset":0,"target":34962}},"buffers":{"\\data\\ECNU\\workspace\\gridID_93\\gridID_93":{"byteLength":11676,"type":"arraybuffer","uri":"data:application/octet-stream;base64,"},"buffer_b":{"type":"arraybuffer","byteLength":884,"uri":"data:application/octet-stream;base64,"}},"materials":{"BUILDING_DEFAULT_0-effect":{"name":"BUILDING_DEFAULT_0","technique":"technique0","values":{"ambient":[0,0,0,1],"diffuse":[0.723055,0.708376,0.672443,1],"emission":[0,0,0,1],"shininess":50,"specular":[0.5,0.5,0.5,1]}},"CONCRETE_0-effect":{"name":"CONCRETE_0","technique":"technique0","values":{"ambient":[0,0,0,1],"diffuse":[0.309469,0.327778,0.309469,1],"emission":[0,0,0,1],"shininess":50,"specular":[0.5,0.5,0.5,1]}},"ENTRANCE_DEFAULT_0-effect":{"name":"ENTRANCE_DEFAULT_0","technique":"technique0","values":{"ambient":[0,0,0,1],"diffuse":[0.101961,0,0,1],"emission":[0,0,0,1],"shininess":50,"specular":[0.5,0.5,0.5,1]}},"GLASS_0-effect":{"name":"GLASS_0","technique":"technique0","values":{"ambient":[0,0,0,1],"diffuse":[0.491021,0.665387,0.658375,1],"emission":[0,0,0,1],"shininess":50,"specular":[0.5,0.5,0.5,1]}},"GLASS_ROOF_0-effect":{"name":"GLASS_ROOF_0","technique":"technique0","values":{"ambient":[0,0,0,1],"diffuse":[0.708376,0.887923,0.83077,1],"emission":[0,0,0,1],"shininess":50,"specular":[0.5,0.5,0.5,1]}},"ROOF_DEFAULT_0-effect":{"name":"ROOF_DEFAULT_0","technique":"technique0","values":{"ambient":[0,0,0,1],"diffuse":[0.603827,0.381326,0.291771,1],"emission":[0,0,0,1],"shininess":50,"specular":[0.5,0.5,0.5,1]}}},"meshes":{"Building3798-mesh":{"name":"Building3798","primitives":[{"attributes":{"NORMAL":"accessor_55","POSITION":"accessor_53","BATCHID":"accessor_b0"},"indices":"accessor_48","material":"BUILDING_DEFAULT_0-effect","mode":4},{"attributes":{"NORMAL":"accessor_55","POSITION":"accessor_53","BATCHID":"accessor_b0"},"indices":"accessor_51","material":"ROOF_DEFAULT_0-effect","mode":4}]},"Building3942-mesh":{"name":"Building3942","primitives":[{"attributes":{"NORMAL":"accessor_120","POSITION":"accessor_118","BATCHID":"accessor_b1"},"indices":"accessor_107","material":"GLASS_0-effect","mode":4},{"attributes":{"NORMAL":"accessor_120","POSITION":"accessor_118","BATCHID":"accessor_b1"},"indices":"accessor_110","material":"BUILDING_DEFAULT_0-effect","mode":4},{"attributes":{"NORMAL":"accessor_120","POSITION":"accessor_118","BATCHID":"accessor_b1"},"indices":"accessor_113","material":"ROOF_DEFAULT_0-effect","mode":4},{"attributes":{"NORMAL":"accessor_120","POSITION":"accessor_118","BATCHID":"accessor_b1"},"indices":"accessor_116","material":"CONCRETE_0-effect","mode":4}]},"Building3988-mesh":{"name":"Building3988","primitives":[{"attributes":{"NORMAL":"accessor_155","POSITION":"accessor_153","BATCHID":"accessor_b2"},"indices":"accessor_148","material":"GLASS_ROOF_0-effect","mode":4},{"attributes":{"NORMAL":"accessor_155","POSITION":"accessor_153","BATCHID":"accessor_b2"},"indices":"accessor_151","material":"BUILDING_DEFAULT_0-effect","mode":4}]},"BuildingEntrance827-mesh":{"name":"BuildingEntrance827","primitives":[{"attributes":{"NORMAL":"accessor_20","POSITION":"accessor_18","BATCHID":"accessor_b3"},"indices":"accessor_16","material":"ENTRANCE_DEFAULT_0-effect","mode":4}]}},"nodes":{"model_gridID_93_w114518357":{"children":[],"matrix":[1,0,0,0,0,-1.62921e-7,1,0,0,-1,-1.62921e-7,0,-184.241,354.191,1.00006,1],"meshes":["BuildingEntrance827-mesh"],"name":"model_gridID_93_w114518357"},"model_gridID_93_w114518357_001":{"children":[],"matrix":[1,0,0,0,0,-1.62921e-7,1,0,0,-1,-1.62921e-7,0,-195.069,360.556,4.72228,1],"meshes":["Building3798-mesh"],"name":"model_gridID_93_w114518357_001"},"model_gridID_93_w383026103":{"children":[],"matrix":[1,0,0,0,0,-1.62921e-7,1,0,0,-1,-1.62921e-7,0,-156.621,400.176,5.63123,1],"meshes":["Building3942-mesh"],"name":"model_gridID_93_w383026103"},"model_gridID_93_w383026103_001":{"children":[],"matrix":[1,0,0,0,0,-1.62921e-7,1,0,0,-1,-1.62921e-7,0,-161.278,387.934,2.85006,1],"meshes":["Building3988-mesh"],"name":"model_gridID_93_w383026103_001"},"node_4":{"children":["model_gridID_93_w114518357","model_gridID_93_w114518357_001","model_gridID_93_w383026103","model_gridID_93_w383026103_001"],"matrix":[1,0,0,0,0,0,-1,0,0,1,0,0,0,0,0,1],"name":"Y_UP_Transform"}},"programs":{"program_0":{"attributes":["a_normal","a_position","a_batchId"],"fragmentShader":"\\data\\ECNU\\workspace\\gridID_93\\gridID_930FS","vertexShader":"\\data\\ECNU\\workspace\\gridID_93\\gridID_930VS"}},"scene":"defaultScene","scenes":{"defaultScene":{"nodes":["node_4"]}},"shaders":{"\\data\\ECNU\\workspace\\gridID_93\\gridID_930FS":{"type":35632,"uri":"data:text/plain;base64,"},"\\data\\ECNU\\workspace\\gridID_93\\gridID_930VS":{"type":35633,"uri":"data:text/plain;base64,"}},"skins":{},"techniques":{"technique0":{"attributes":{"a_normal":"normal","a_position":"position","a_batchId":"batchId"},"parameters":{"ambient":{"type":35666},"diffuse":{"type":35666},"emission":{"type":35666},"modelViewMatrix":{"semantic":"MODELVIEW","type":35676},"normal":{"semantic":"NORMAL","type":35665},"normalMatrix":{"semantic":"MODELVIEWINVERSETRANSPOSE","type":35675},"position":{"semantic":"POSITION","type":35665},"projectionMatrix":{"semantic":"PROJECTION","type":35676},"shininess":{"type":5126},"specular":{"type":35666},"batchId":{"semantic":"BATCHID","type":5126}},"program":"program_0","states":{"enable":[2929,2884]},"uniforms":{"u_ambient":"ambient","u_diffuse":"diffuse","u_emission":"emission","u_modelViewMatrix":"modelViewMatrix","u_normalMatrix":"normalMatrix","u_projectionMatrix":"projectionMatrix","u_shininess":"shininess","u_specular":"specular"}}}}