{
    "accessors": {
        "accessor_101": {
            "bufferView": "bufferView_177",
            "byteOffset": 204,
            "byteStride": 0,
            "componentType": 5123,
            "count": 6,
            "type": "SCALAR"
        },
        "accessor_103": {
            "bufferView": "bufferView_178",
            "byteOffset": 1200,
            "byteStride": 12,
            "componentType": 5126,
            "count": 22,
            "max": [
                21.6085,
                3.75,
                9.27802
            ],
            "min": [
                -21.6085,
                -3.75,
                -9.27796
            ],
            "type": "VEC3"
        },
        "accessor_105": {
            "bufferView": "bufferView_178",
            "byteOffset": 1464,
            "byteStride": 12,
            "componentType": 5126,
            "count": 22,
            "max": [
                0.988403,
                1,
                0.988426
            ],
            "min": [
                -0.988403,
                0,
                -0.988426
            ],
            "type": "VEC3"
        },
        "accessor_133": {
            "bufferView": "bufferView_177",
            "byteOffset": 78,
            "byteStride": 0,
            "componentType": 5123,
            "count": 30,
            "type": "SCALAR"
        },
        "accessor_136": {
            "bufferView": "bufferView_177",
            "byteOffset": 138,
            "byteStride": 0,
            "componentType": 5123,
            "count": 9,
            "type": "SCALAR"
        },
        "accessor_138": {
            "bufferView": "bufferView_178",
            "byteOffset": 600,
            "byteStride": 12,
            "componentType": 5126,
            "count": 25,
            "max": [
                2.78302,
                3.75,
                9.60394
            ],
            "min": [
                -3.75598,
                -3.75,
                -14.2501
            ],
            "type": "VEC3"
        },
        "accessor_140": {
            "bufferView": "bufferView_178",
            "byteOffset": 900,
            "byteStride": 12,
            "componentType": 5126,
            "count": 25,
            "max": [
                0.996526,
                1,
                0.997251
            ],
            "min": [
                -0.996536,
                0,
                -0.99699
            ],
            "type": "VEC3"
        },
        "accessor_168": {
            "bufferView": "bufferView_177",
            "byteOffset": 0,
            "byteStride": 0,
            "componentType": 5123,
            "count": 30,
            "type": "SCALAR"
        },
        "accessor_171": {
            "bufferView": "bufferView_177",
            "byteOffset": 60,
            "byteStride": 0,
            "componentType": 5123,
            "count": 9,
            "type": "SCALAR"
        },
        "accessor_173": {
            "bufferView": "bufferView_178",
            "byteOffset": 0,
            "byteStride": 12,
            "componentType": 5126,
            "count": 25,
            "max": [
                3.95401,
                3.75,
                14.8982
            ],
            "min": [
                -2.93799,
                -3.75,
                -10.0248
            ],
            "type": "VEC3"
        },
        "accessor_175": {
            "bufferView": "bufferView_178",
            "byteOffset": 300,
            "byteStride": 12,
            "componentType": 5126,
            "count": 25,
            "max": [
                0.995824,
                1,
                0.99588
            ],
            "min": [
                -0.995821,
                0,
                -0.997251
            ],
            "type": "VEC3"
        },
        "accessor_28": {
            "bufferView": "bufferView_177",
            "byteOffset": 216,
            "byteStride": 0,
            "componentType": 5123,
            "count": 24,
            "type": "SCALAR"
        },
        "accessor_31": {
            "bufferView": "bufferView_177",
            "byteOffset": 264,
            "byteStride": 0,
            "componentType": 5123,
            "count": 6,
            "type": "SCALAR"
        },
        "accessor_33": {
            "bufferView": "bufferView_178",
            "byteOffset": 1728,
            "byteStride": 12,
            "componentType": 5126,
            "count": 20,
            "max": [
                6.47726,
                3.75,
                3.69598
            ],
            "min": [
                -6.47775,
                -3.75,
                -3.69604
            ],
            "type": "VEC3"
        },
        "accessor_35": {
            "bufferView": "bufferView_178",
            "byteOffset": 1968,
            "byteStride": 12,
            "componentType": 5126,
            "count": 20,
            "max": [
                0.987329,
                1,
                0.987244
            ],
            "min": [
                -0.9873,
                0,
                -0.987246
            ],
            "type": "VEC3"
        },
        "accessor_63": {
            "bufferView": "bufferView_177",
            "byteOffset": 276,
            "byteStride": 0,
            "componentType": 5123,
            "count": 24,
            "type": "SCALAR"
        },
        "accessor_66": {
            "bufferView": "bufferView_177",
            "byteOffset": 324,
            "byteStride": 0,
            "componentType": 5123,
            "count": 6,
            "type": "SCALAR"
        },
        "accessor_68": {
            "bufferView": "bufferView_178",
            "byteOffset": 2208,
            "byteStride": 12,
            "componentType": 5126,
            "count": 24,
            "max": [
                21.608,
                3.75,
                9.27802
            ],
            "min": [
                -21.608,
                -3.75,
                -9.27802
            ],
            "type": "VEC3"
        },
        "accessor_70": {
            "bufferView": "bufferView_178",
            "byteOffset": 2496,
            "byteStride": 12,
            "componentType": 5126,
            "count": 24,
            "max": [
                0.988416,
                1,
                0.988426
            ],
            "min": [
                -0.988416,
                0,
                -0.988426
            ],
            "type": "VEC3"
        },
        "accessor_98": {
            "bufferView": "bufferView_177",
            "byteOffset": 156,
            "byteStride": 0,
            "componentType": 5123,
            "count": 24,
            "type": "SCALAR"
        }
    },
    "animations": {},
    "asset": {
        "generator": "collada2gltf@cf6371beb0bdc18ba603378d5e40c966da53d385",
        "premultipliedAlpha": true,
        "profile": {
            "api": "WebGL",
            "version": "1.0.2"
        },
        "version": "1.0"
    },
    "bufferViews": {
        "bufferView_177": {
            "buffer": "\\data\\ECNU\\workspace\\gridID_2\\gridID_2",
            "byteLength": 336,
            "byteOffset": 0,
            "target": 34963
        },
        "bufferView_178": {
            "buffer": "\\data\\ECNU\\workspace\\gridID_2\\gridID_2",
            "byteLength": 2784,
            "byteOffset": 336,
            "target": 34962
        }
    },
    "buffers": {
        "\\data\\ECNU\\workspace\\gridID_2\\gridID_2": {
            "byteLength": 3120,
            "type": "arraybuffer",
            "uri": "data:application/octet-stream;base64,"
        }
    },
    "materials": {
        "BUILDING_DEFAULT_0-effect": {
            "name": "BUILDING_DEFAULT_0",
            "technique": "technique0",
            "values": {
                "ambient": [
                    0,
                    0,
                    0,
                    1
                ],
                "diffuse": [
                    0.723055,
                    0.708376,
                    0.672443,
                    1
                ],
                "emission": [
                    0,
                    0,
                    0,
                    1
                ],
                "shininess": 50,
                "specular": [
                    0.5,
                    0.5,
                    0.5,
                    1
                ]
            }
        },
        "ROOF_DEFAULT_0-effect": {
            "name": "ROOF_DEFAULT_0",
            "technique": "technique0",
            "values": {
                "ambient": [
                    0,
                    0,
                    0,
                    1
                ],
                "diffuse": [
                    0.603827,
                    0.381326,
                    0.291771,
                    1
                ],
                "emission": [
                    0,
                    0,
                    0,
                    1
                ],
                "shininess": 50,
                "specular": [
                    0.5,
                    0.5,
                    0.5,
                    1
                ]
            }
        }
    },
    "meshes": {
        "Building3627-mesh": {
            "name": "Building3627",
            "primitives": [
                {
                    "attributes": {
                        "NORMAL": "accessor_175",
                        "POSITION": "accessor_173"
                    },
                    "indices": "accessor_168",
                    "material": "BUILDING_DEFAULT_0-effect",
                    "mode": 4
                },
                {
                    "attributes": {
                        "NORMAL": "accessor_175",
                        "POSITION": "accessor_173"
                    },
                    "indices": "accessor_171",
                    "material": "ROOF_DEFAULT_0-effect",
                    "mode": 4
                }
            ]
        },
        "Building3632-mesh": {
            "name": "Building3632",
            "primitives": [
                {
                    "attributes": {
                        "NORMAL": "accessor_140",
                        "POSITION": "accessor_138"
                    },
                    "indices": "accessor_133",
                    "material": "BUILDING_DEFAULT_0-effect",
                    "mode": 4
                },
                {
                    "attributes": {
                        "NORMAL": "accessor_140",
                        "POSITION": "accessor_138"
                    },
                    "indices": "accessor_136",
                    "material": "ROOF_DEFAULT_0-effect",
                    "mode": 4
                }
            ]
        },
        "Building3636-mesh": {
            "name": "Building3636",
            "primitives": [
                {
                    "attributes": {
                        "NORMAL": "accessor_105",
                        "POSITION": "accessor_103"
                    },
                    "indices": "accessor_98",
                    "material": "BUILDING_DEFAULT_0-effect",
                    "mode": 4
                },
                {
                    "attributes": {
                        "NORMAL": "accessor_105",
                        "POSITION": "accessor_103"
                    },
                    "indices": "accessor_101",
                    "material": "ROOF_DEFAULT_0-effect",
                    "mode": 4
                }
            ]
        },
        "Building3641-mesh": {
            "name": "Building3641",
            "primitives": [
                {
                    "attributes": {
                        "NORMAL": "accessor_35",
                        "POSITION": "accessor_33"
                    },
                    "indices": "accessor_28",
                    "material": "BUILDING_DEFAULT_0-effect",
                    "mode": 4
                },
                {
                    "attributes": {
                        "NORMAL": "accessor_35",
                        "POSITION": "accessor_33"
                    },
                    "indices": "accessor_31",
                    "material": "ROOF_DEFAULT_0-effect",
                    "mode": 4
                }
            ]
        },
        "Building3642-mesh": {
            "name": "Building3642",
            "primitives": [
                {
                    "attributes": {
                        "NORMAL": "accessor_70",
                        "POSITION": "accessor_68"
                    },
                    "indices": "accessor_63",
                    "material": "BUILDING_DEFAULT_0-effect",
                    "mode": 4
                },
                {
                    "attributes": {
                        "NORMAL": "accessor_70",
                        "POSITION": "accessor_68"
                    },
                    "indices": "accessor_66",
                    "material": "ROOF_DEFAULT_0-effect",
                    "mode": 4
                }
            ]
        }
    },
    "nodes": {
        "model_gridID_2_w389865170": {
            "children": [],
            "matrix": [
                1,
                0,
                0,
                0,
                0,
                -1.62921e-007,
                1,
                0,
                0,
                -1,
                -1.62921e-007,
                0,
                -325.393,
                -608.566,
                3.7499,
                1
            ],
            "meshes": [
                "Building3641-mesh"
            ],
            "name": "model_gridID_2_w389865170"
        },
        "model_gridID_2_w389865171": {
            "children": [],
            "matrix": [
                1,
                0,
                0,
                0,
                0,
                -1.62921e-007,
                1,
                0,
                0,
                -1,
                -1.62921e-007,
                0,
                -369.176,
                -599.8,
                3.7499,
                1
            ],
            "meshes": [
                "Building3642-mesh"
            ],
            "name": "model_gridID_2_w389865171"
        },
        "model_gridID_2_w389865173": {
            "children": [],
            "matrix": [
                1,
                0,
                0,
                0,
                0,
                -1.62921e-007,
                1,
                0,
                0,
                -1,
                -1.62921e-007,
                0,
                -375.201,
                -571.215,
                3.74991,
                1
            ],
            "meshes": [
                "Building3636-mesh"
            ],
            "name": "model_gridID_2_w389865173"
        },
        "model_gridID_2_w389865178": {
            "children": [],
            "matrix": [
                1,
                0,
                0,
                0,
                0,
                -1.62921e-007,
                1,
                0,
                0,
                -1,
                -1.62921e-007,
                0,
                -341.984,
                -578.191,
                3.74991,
                1
            ],
            "meshes": [
                "Building3632-mesh"
            ],
            "name": "model_gridID_2_w389865178"
        },
        "model_gridID_2_w389865178_001": {
            "children": [],
            "matrix": [
                1,
                0,
                0,
                0,
                0,
                -1.62921e-007,
                1,
                0,
                0,
                -1,
                -1.62921e-007,
                0,
                -341.746,
                -597.542,
                3.7499,
                1
            ],
            "meshes": [
                "Building3627-mesh"
            ],
            "name": "model_gridID_2_w389865178_001"
        },
        "node_5": {
            "children": [
                "model_gridID_2_w389865170",
                "model_gridID_2_w389865171",
                "model_gridID_2_w389865173",
                "model_gridID_2_w389865178",
                "model_gridID_2_w389865178_001"
            ],
            "matrix": [
                1,
                0,
                0,
                0,
                0,
                0,
                -1,
                0,
                0,
                1,
                0,
                0,
                0,
                0,
                0,
                1
            ],
            "name": "Y_UP_Transform"
        }
    },
    "programs": {
        "program_0": {
            "attributes": [
                "a_normal",
                "a_position"
            ],
            "fragmentShader": "\\data\\ECNU\\workspace\\gridID_2\\gridID_20FS",
            "vertexShader": "\\data\\ECNU\\workspace\\gridID_2\\gridID_20VS"
        }
    },
    "scene": "defaultScene",
    "scenes": {
        "defaultScene": {
            "nodes": [
                "node_5"
            ]
        }
    },
    "shaders": {
        "\\data\\ECNU\\workspace\\gridID_2\\gridID_20FS": {
            "type": 35632,
            "uri": "data:text/plain;base64,"
        },
        "\\data\\ECNU\\workspace\\gridID_2\\gridID_20VS": {
            "type": 35633,
            "uri": "data:text/plain;base64,"
        }
    },
    "skins": {},
    "techniques": {
        "technique0": {
            "attributes": {
                "a_normal": "normal",
                "a_position": "position"
            },
            "parameters": {
                "ambient": {
                    "type": 35666
                },
                "diffuse": {
                    "type": 35666
                },
                "emission": {
                    "type": 35666
                },
                "modelViewMatrix": {
                    "semantic": "MODELVIEW",
                    "type": 35676
                },
                "normal": {
                    "semantic": "NORMAL",
                    "type": 35665
                },
                "normalMatrix": {
                    "semantic": "MODELVIEWINVERSETRANSPOSE",
                    "type": 35675
                },
                "position": {
                    "semantic": "POSITION",
                    "type": 35665
                },
                "projectionMatrix": {
                    "semantic": "PROJECTION",
                    "type": 35676
                },
                "shininess": {
                    "type": 5126
                },
                "specular": {
                    "type": 35666
                }
            },
            "program": "program_0",
            "states": {
                "enable": [
                    2929,
                    2884
                ]
            },
            "uniforms": {
                "u_ambient": "ambient",
                "u_diffuse": "diffuse",
                "u_emission": "emission",
                "u_modelViewMatrix": "modelViewMatrix",
                "u_normalMatrix": "normalMatrix",
                "u_projectionMatrix": "projectionMatrix",
                "u_shininess": "shininess",
                "u_specular": "specular"
            }
        }
    }
}