{
    "accessors": {
        "accessor_134": {
            "bufferView": "bufferView_192",
            "byteOffset": 1950,
            "byteStride": 0,
            "componentType": 5123,
            "count": 150,
            "type": "SCALAR"
        },
        "accessor_137": {
            "bufferView": "bufferView_192",
            "byteOffset": 2250,
            "byteStride": 0,
            "componentType": 5123,
            "count": 24,
            "type": "SCALAR"
        },
        "accessor_140": {
            "bufferView": "bufferView_192",
            "byteOffset": 2298,
            "byteStride": 0,
            "componentType": 5123,
            "count": 246,
            "type": "SCALAR"
        },
        "accessor_143": {
            "bufferView": "bufferView_192",
            "byteOffset": 2790,
            "byteStride": 0,
            "componentType": 5123,
            "count": 108,
            "type": "SCALAR"
        },
        "accessor_146": {
            "bufferView": "bufferView_192",
            "byteOffset": 3006,
            "byteStride": 0,
            "componentType": 5123,
            "count": 30,
            "type": "SCALAR"
        },
        "accessor_148": {
            "bufferView": "bufferView_193",
            "byteOffset": 18264,
            "byteStride": 12,
            "componentType": 5126,
            "count": 477,
            "max": [
                24.9681,
                6.31046,
                11.0651
            ],
            "min": [
                -24.1209,
                -3.68954,
                -22.3089
            ],
            "type": "VEC3"
        },
        "accessor_150": {
            "bufferView": "bufferView_193",
            "byteOffset": 23988,
            "byteStride": 12,
            "componentType": 5126,
            "count": 477,
            "max": [
                0.961422,
                1,
                1
            ],
            "min": [
                -0.961422,
                -1,
                -0.957636
            ],
            "type": "VEC3"
        },
        "accessor_166": {
            "bufferView": "bufferView_192",
            "byteOffset": 432,
            "byteStride": 0,
            "componentType": 5123,
            "count": 216,
            "type": "SCALAR"
        },
        "accessor_168": {
            "bufferView": "bufferView_193",
            "byteOffset": 3456,
            "byteStride": 12,
            "componentType": 5126,
            "count": 144,
            "max": [
                0.75,
                0.620833,
                0.288208
            ],
            "min": [
                -0.75,
                -0.379167,
                -0.211792
            ],
            "type": "VEC3"
        },
        "accessor_170": {
            "bufferView": "bufferView_193",
            "byteOffset": 5184,
            "byteStride": 12,
            "componentType": 5126,
            "count": 144,
            "max": [
                1,
                1,
                1
            ],
            "min": [
                -1,
                -1,
                -1
            ],
            "type": "VEC3"
        },
        "accessor_186": {
            "bufferView": "bufferView_192",
            "byteOffset": 0,
            "byteStride": 0,
            "componentType": 5123,
            "count": 216,
            "type": "SCALAR"
        },
        "accessor_188": {
            "bufferView": "bufferView_193",
            "byteOffset": 0,
            "byteStride": 12,
            "componentType": 5126,
            "count": 144,
            "max": [
                0.750023,
                0.620833,
                0.2883
            ],
            "min": [
                -0.749977,
                -0.379167,
                -0.2117
            ],
            "type": "VEC3"
        },
        "accessor_190": {
            "bufferView": "bufferView_193",
            "byteOffset": 1728,
            "byteStride": 12,
            "componentType": 5126,
            "count": 144,
            "max": [
                1,
                1,
                1
            ],
            "min": [
                -1,
                -1,
                -1
            ],
            "type": "VEC3"
        },
        "accessor_28": {
            "bufferView": "bufferView_192",
            "byteOffset": 864,
            "byteStride": 0,
            "componentType": 5123,
            "count": 108,
            "type": "SCALAR"
        },
        "accessor_31": {
            "bufferView": "bufferView_192",
            "byteOffset": 1080,
            "byteStride": 0,
            "componentType": 5123,
            "count": 78,
            "type": "SCALAR"
        },
        "accessor_33": {
            "bufferView": "bufferView_193",
            "byteOffset": 6912,
            "byteStride": 12,
            "componentType": 5126,
            "count": 162,
            "max": [
                12.3612,
                6.17647,
                15.5234
            ],
            "min": [
                -14.8447,
                -3.82353,
                -14.7776
            ],
            "type": "VEC3"
        },
        "accessor_35": {
            "bufferView": "bufferView_193",
            "byteOffset": 8856,
            "byteStride": 12,
            "componentType": 5126,
            "count": 162,
            "max": [
                0.95507,
                0.725053,
                0.95568
            ],
            "min": [
                -0.954882,
                0,
                -0.954973
            ],
            "type": "VEC3"
        },
        "accessor_63": {
            "bufferView": "bufferView_192",
            "byteOffset": 1236,
            "byteStride": 0,
            "componentType": 5123,
            "count": 243,
            "type": "SCALAR"
        },
        "accessor_66": {
            "bufferView": "bufferView_192",
            "byteOffset": 1722,
            "byteStride": 0,
            "componentType": 5123,
            "count": 114,
            "type": "SCALAR"
        },
        "accessor_68": {
            "bufferView": "bufferView_193",
            "byteOffset": 10800,
            "byteStride": 12,
            "componentType": 5126,
            "count": 311,
            "max": [
                11.9746,
                6.92356,
                8.1183
            ],
            "min": [
                -15.5444,
                -3.07644,
                -22.3947
            ],
            "type": "VEC3"
        },
        "accessor_70": {
            "bufferView": "bufferView_193",
            "byteOffset": 14532,
            "byteStride": 12,
            "componentType": 5126,
            "count": 311,
            "max": [
                0.956675,
                1,
                0.959974
            ],
            "min": [
                -0.950537,
                -1,
                -0.962108
            ],
            "type": "VEC3"
        }
    },
    "animations": {},
    "asset": {
        "generator": "collada2gltf@cf6371beb0bdc18ba603378d5e40c966da53d385",
        "premultipliedAlpha": true,
        "profile": {
            "api": "WebGL",
            "version": "1.0.2"
        },
        "version": "1.0"
    },
    "bufferViews": {
        "bufferView_192": {
            "buffer": "\\data\\ECNU\\workspace\\gridID_72\\gridID_72",
            "byteLength": 3068,
            "byteOffset": 0,
            "target": 34963
        },
        "bufferView_193": {
            "buffer": "\\data\\ECNU\\workspace\\gridID_72\\gridID_72",
            "byteLength": 29712,
            "byteOffset": 3068,
            "target": 34962
        }
    },
    "buffers": {
        "\\data\\ECNU\\workspace\\gridID_72\\gridID_72": {
            "byteLength": 32780,
            "type": "arraybuffer",
            "uri": "data:application/octet-stream;base64,"
        }
    },
    "materials": {
        "BUILDING_DEFAULT_0-effect": {
            "name": "BUILDING_DEFAULT_0",
            "technique": "technique0",
            "values": {
                "ambient": [
                    0,
                    0,
                    0,
                    1
                ],
                "diffuse": [
                    0.723055,
                    0.708376,
                    0.672443,
                    1
                ],
                "emission": [
                    0,
                    0,
                    0,
                    1
                ],
                "shininess": 50,
                "specular": [
                    0.5,
                    0.5,
                    0.5,
                    1
                ]
            }
        },
        "CONCRETE_0-effect": {
            "name": "CONCRETE_0",
            "technique": "technique0",
            "values": {
                "ambient": [
                    0,
                    0,
                    0,
                    1
                ],
                "diffuse": [
                    0.309469,
                    0.327778,
                    0.309469,
                    1
                ],
                "emission": [
                    0,
                    0,
                    0,
                    1
                ],
                "shininess": 50,
                "specular": [
                    0.5,
                    0.5,
                    0.5,
                    1
                ]
            }
        },
        "GLASS_0-effect": {
            "name": "GLASS_0",
            "technique": "technique0",
            "values": {
                "ambient": [
                    0,
                    0,
                    0,
                    1
                ],
                "diffuse": [
                    0.491021,
                    0.665387,
                    0.658375,
                    1
                ],
                "emission": [
                    0,
                    0,
                    0,
                    1
                ],
                "shininess": 50,
                "specular": [
                    0.5,
                    0.5,
                    0.5,
                    1
                ]
            }
        },
        "MAT_5_0-effect": {
            "name": "MAT_5_0",
            "technique": "technique0",
            "values": {
                "ambient": [
                    0,
                    0,
                    0,
                    1
                ],
                "diffuse": [
                    0.470588,
                    0.470588,
                    0.470588,
                    1
                ],
                "emission": [
                    0,
                    0,
                    0,
                    1
                ],
                "shininess": 50,
                "specular": [
                    0.5,
                    0.5,
                    0.5,
                    1
                ]
            }
        },
        "ROOF_DEFAULT_0-effect": {
            "name": "ROOF_DEFAULT_0",
            "technique": "technique0",
            "values": {
                "ambient": [
                    0,
                    0,
                    0,
                    1
                ],
                "diffuse": [
                    0.603827,
                    0.381326,
                    0.291771,
                    1
                ],
                "emission": [
                    0,
                    0,
                    0,
                    1
                ],
                "shininess": 50,
                "specular": [
                    0.5,
                    0.5,
                    0.5,
                    1
                ]
            }
        },
        "WOOD_0-effect": {
            "name": "WOOD_0",
            "technique": "technique0",
            "values": {
                "ambient": [
                    0,
                    0,
                    0,
                    1
                ],
                "diffuse": [
                    0.14902,
                    0.101961,
                    0.101961,
                    1
                ],
                "emission": [
                    0,
                    0,
                    0,
                    1
                ],
                "shininess": 50,
                "specular": [
                    0.5,
                    0.5,
                    0.5,
                    1
                ]
            }
        }
    },
    "meshes": {
        "Bench1453-mesh": {
            "name": "Bench1453",
            "primitives": [
                {
                    "attributes": {
                        "NORMAL": "accessor_190",
                        "POSITION": "accessor_188"
                    },
                    "indices": "accessor_186",
                    "material": "WOOD_0-effect",
                    "mode": 4
                }
            ]
        },
        "Bench1454-mesh": {
            "name": "Bench1454",
            "primitives": [
                {
                    "attributes": {
                        "NORMAL": "accessor_170",
                        "POSITION": "accessor_168"
                    },
                    "indices": "accessor_166",
                    "material": "WOOD_0-effect",
                    "mode": 4
                }
            ]
        },
        "Building4073-mesh": {
            "name": "Building4073",
            "primitives": [
                {
                    "attributes": {
                        "NORMAL": "accessor_35",
                        "POSITION": "accessor_33"
                    },
                    "indices": "accessor_28",
                    "material": "BUILDING_DEFAULT_0-effect",
                    "mode": 4
                },
                {
                    "attributes": {
                        "NORMAL": "accessor_35",
                        "POSITION": "accessor_33"
                    },
                    "indices": "accessor_31",
                    "material": "ROOF_DEFAULT_0-effect",
                    "mode": 4
                }
            ]
        },
        "Building4123-mesh": {
            "name": "Building4123",
            "primitives": [
                {
                    "attributes": {
                        "NORMAL": "accessor_70",
                        "POSITION": "accessor_68"
                    },
                    "indices": "accessor_63",
                    "material": "BUILDING_DEFAULT_0-effect",
                    "mode": 4
                },
                {
                    "attributes": {
                        "NORMAL": "accessor_70",
                        "POSITION": "accessor_68"
                    },
                    "indices": "accessor_66",
                    "material": "ROOF_DEFAULT_0-effect",
                    "mode": 4
                }
            ]
        },
        "Building_-mesh": {
            "name": "Building ",
            "primitives": [
                {
                    "attributes": {
                        "NORMAL": "accessor_150",
                        "POSITION": "accessor_148"
                    },
                    "indices": "accessor_134",
                    "material": "MAT_5_0-effect",
                    "mode": 4
                },
                {
                    "attributes": {
                        "NORMAL": "accessor_150",
                        "POSITION": "accessor_148"
                    },
                    "indices": "accessor_137",
                    "material": "GLASS_0-effect",
                    "mode": 4
                },
                {
                    "attributes": {
                        "NORMAL": "accessor_150",
                        "POSITION": "accessor_148"
                    },
                    "indices": "accessor_140",
                    "material": "BUILDING_DEFAULT_0-effect",
                    "mode": 4
                },
                {
                    "attributes": {
                        "NORMAL": "accessor_150",
                        "POSITION": "accessor_148"
                    },
                    "indices": "accessor_143",
                    "material": "ROOF_DEFAULT_0-effect",
                    "mode": 4
                },
                {
                    "attributes": {
                        "NORMAL": "accessor_150",
                        "POSITION": "accessor_148"
                    },
                    "indices": "accessor_146",
                    "material": "CONCRETE_0-effect",
                    "mode": 4
                }
            ]
        }
    },
    "nodes": {
        "model_gridID_72_w116940018": {
            "children": [],
            "matrix": [
                1,
                0,
                0,
                0,
                0,
                -1.62921e-007,
                1,
                0,
                0,
                -1,
                -1.62921e-007,
                0,
                -131.596,
                123.259,
                3.82355,
                1
            ],
            "meshes": [
                "Building4073-mesh"
            ],
            "name": "model_gridID_72_w116940018"
        },
        "model_gridID_72_w116940055": {
            "children": [],
            "matrix": [
                1,
                0,
                0,
                0,
                0,
                -1.62921e-007,
                1,
                0,
                0,
                -1,
                -1.62921e-007,
                0,
                -57.7706,
                138.385,
                3.07646,
                1
            ],
            "meshes": [
                "Building4123-mesh"
            ],
            "name": "model_gridID_72_w116940055"
        },
        "model_gridID_72_w116940064": {
            "children": [],
            "matrix": [
                1,
                0,
                0,
                0,
                0,
                -1.62921e-007,
                1,
                0,
                0,
                -1,
                -1.62921e-007,
                0,
                -94.7141,
                125.558,
                3.68956,
                1
            ],
            "meshes": [
                "Building_-mesh"
            ],
            "name": "model_gridID_72_w116940064"
        },
        "model_gridID_72_w116940064_001": {
            "children": [],
            "matrix": [
                1,
                0,
                0,
                0,
                0,
                -1.62921e-007,
                1,
                0,
                0,
                -1,
                -1.62921e-007,
                0,
                -104.795,
                261.141,
                0.379209,
                1
            ],
            "meshes": [
                "Bench1454-mesh"
            ],
            "name": "model_gridID_72_w116940064_001"
        },
        "model_gridID_72_w116940064_002": {
            "children": [],
            "matrix": [
                1,
                0,
                0,
                0,
                0,
                -1.62921e-007,
                1,
                0,
                0,
                -1,
                -1.62921e-007,
                0,
                -108.698,
                268.344,
                0.37921,
                1
            ],
            "meshes": [
                "Bench1453-mesh"
            ],
            "name": "model_gridID_72_w116940064_002"
        },
        "node_5": {
            "children": [
                "model_gridID_72_w116940018",
                "model_gridID_72_w116940055",
                "model_gridID_72_w116940064",
                "model_gridID_72_w116940064_001",
                "model_gridID_72_w116940064_002"
            ],
            "matrix": [
                1,
                0,
                0,
                0,
                0,
                0,
                -1,
                0,
                0,
                1,
                0,
                0,
                0,
                0,
                0,
                1
            ],
            "name": "Y_UP_Transform"
        }
    },
    "programs": {
        "program_0": {
            "attributes": [
                "a_normal",
                "a_position"
            ],
            "fragmentShader": "\\data\\ECNU\\workspace\\gridID_72\\gridID_720FS",
            "vertexShader": "\\data\\ECNU\\workspace\\gridID_72\\gridID_720VS"
        }
    },
    "scene": "defaultScene",
    "scenes": {
        "defaultScene": {
            "nodes": [
                "node_5"
            ]
        }
    },
    "shaders": {
        "\\data\\ECNU\\workspace\\gridID_72\\gridID_720FS": {
            "type": 35632,
            "uri": "data:text/plain;base64,"
        },
        "\\data\\ECNU\\workspace\\gridID_72\\gridID_720VS": {
            "type": 35633,
            "uri": "data:text/plain;base64,"
        }
    },
    "skins": {},
    "techniques": {
        "technique0": {
            "attributes": {
                "a_normal": "normal",
                "a_position": "position"
            },
            "parameters": {
                "ambient": {
                    "type": 35666
                },
                "diffuse": {
                    "type": 35666
                },
                "emission": {
                    "type": 35666
                },
                "modelViewMatrix": {
                    "semantic": "MODELVIEW",
                    "type": 35676
                },
                "normal": {
                    "semantic": "NORMAL",
                    "type": 35665
                },
                "normalMatrix": {
                    "semantic": "MODELVIEWINVERSETRANSPOSE",
                    "type": 35675
                },
                "position": {
                    "semantic": "POSITION",
                    "type": 35665
                },
                "projectionMatrix": {
                    "semantic": "PROJECTION",
                    "type": 35676
                },
                "shininess": {
                    "type": 5126
                },
                "specular": {
                    "type": 35666
                }
            },
            "program": "program_0",
            "states": {
                "enable": [
                    2929,
                    2884
                ]
            },
            "uniforms": {
                "u_ambient": "ambient",
                "u_diffuse": "diffuse",
                "u_emission": "emission",
                "u_modelViewMatrix": "modelViewMatrix",
                "u_normalMatrix": "normalMatrix",
                "u_projectionMatrix": "projectionMatrix",
                "u_shininess": "shininess",
                "u_specular": "specular"
            }
        }
    }
}