{
    "accessors": {
        "accessor_100": {
            "bufferView": "bufferView_103",
            "byteOffset": 23424,
            "byteStride": 12,
            "componentType": 5126,
            "count": 144,
            "max": [
                0.99954,
                1,
                0.999557
            ],
            "min": [
                -0.999628,
                -1,
                -0.999516
            ],
            "type": "VEC3"
        },
        "accessor_16": {
            "bufferView": "bufferView_102",
            "byteOffset": 0,
            "byteStride": 0,
            "componentType": 5123,
            "count": 168,
            "type": "SCALAR"
        },
        "accessor_18": {
            "bufferView": "bufferView_103",
            "byteOffset": 0,
            "byteStride": 12,
            "componentType": 5126,
            "count": 120,
            "max": [
                -8.94855,
                10,
                -27.2038
            ],
            "min": [
                -113.155,
                0,
                -116.237
            ],
            "type": "VEC3"
        },
        "accessor_20": {
            "bufferView": "bufferView_103",
            "byteOffset": 1440,
            "byteStride": 12,
            "componentType": 5126,
            "count": 120,
            "max": [
                0.999978,
                1,
                0.999623
            ],
            "min": [
                -0.999892,
                -1,
                -0.999859
            ],
            "type": "VEC3"
        },
        "accessor_36": {
            "bufferView": "bufferView_102",
            "byteOffset": 336,
            "byteStride": 0,
            "componentType": 5123,
            "count": 540,
            "type": "SCALAR"
        },
        "accessor_38": {
            "bufferView": "bufferView_103",
            "byteOffset": 2880,
            "byteStride": 12,
            "componentType": 5126,
            "count": 400,
            "max": [
                17.2894,
                54,
                44.9816
            ],
            "min": [
                -66.3449,
                0,
                -2.17374
            ],
            "type": "VEC3"
        },
        "accessor_40": {
            "bufferView": "bufferView_103",
            "byteOffset": 7680,
            "byteStride": 12,
            "componentType": 5126,
            "count": 400,
            "max": [
                0.999321,
                1,
                0.999394
            ],
            "min": [
                -0.999371,
                -1,
                -0.999375
            ],
            "type": "VEC3"
        },
        "accessor_56": {
            "bufferView": "bufferView_102",
            "byteOffset": 1416,
            "byteStride": 0,
            "componentType": 5123,
            "count": 396,
            "type": "SCALAR"
        },
        "accessor_58": {
            "bufferView": "bufferView_103",
            "byteOffset": 12480,
            "byteStride": 12,
            "componentType": 5126,
            "count": 268,
            "max": [
                19.1151,
                15,
                88.8737
            ],
            "min": [
                -49.0904,
                0,
                46.057
            ],
            "type": "VEC3"
        },
        "accessor_60": {
            "bufferView": "bufferView_103",
            "byteOffset": 15696,
            "byteStride": 12,
            "componentType": 5126,
            "count": 268,
            "max": [
                0.999474,
                1,
                0.999493
            ],
            "min": [
                -0.999501,
                -1,
                -0.999461
            ],
            "type": "VEC3"
        },
        "accessor_76": {
            "bufferView": "bufferView_102",
            "byteOffset": 2208,
            "byteStride": 0,
            "componentType": 5123,
            "count": 156,
            "type": "SCALAR"
        },
        "accessor_78": {
            "bufferView": "bufferView_103",
            "byteOffset": 18912,
            "byteStride": 12,
            "componentType": 5126,
            "count": 116,
            "max": [
                81.454,
                122,
                90.0727
            ],
            "min": [
                28.7665,
                0,
                -6.11675
            ],
            "type": "VEC3"
        },
        "accessor_80": {
            "bufferView": "bufferView_103",
            "byteOffset": 20304,
            "byteStride": 12,
            "componentType": 5126,
            "count": 116,
            "max": [
                0.999915,
                1,
                0.999872
            ],
            "min": [
                -0.999878,
                -1,
                -0.999874
            ],
            "type": "VEC3"
        },
        "accessor_96": {
            "bufferView": "bufferView_102",
            "byteOffset": 2520,
            "byteStride": 0,
            "componentType": 5123,
            "count": 228,
            "type": "SCALAR"
        },
        "accessor_98": {
            "bufferView": "bufferView_103",
            "byteOffset": 21696,
            "byteStride": 12,
            "componentType": 5126,
            "count": 144,
            "max": [
                80.8417,
                20,
                -30.1704
            ],
            "min": [
                48.9153,
                0,
                -77.8946
            ],
            "type": "VEC3"
        }
    },
    "animations": {},
    "asset": {
        "generator": "collada2gltf@cf6371beb0bdc18ba603378d5e40c966da53d385",
        "premultipliedAlpha": true,
        "profile": {
            "api": "WebGL",
            "version": "1.0.2"
        },
        "version": "1.0"
    },
    "bufferViews": {
        "bufferView_102": {
            "buffer": "\\data\\3dcity\\miami\\workspace\\gridID_37\\gridID_37",
            "byteLength": 2976,
            "byteOffset": 0,
            "target": 34963
        },
        "bufferView_103": {
            "buffer": "\\data\\3dcity\\miami\\workspace\\gridID_37\\gridID_37",
            "byteLength": 25152,
            "byteOffset": 2976,
            "target": 34962
        }
    },
    "buffers": {
        "\\data\\3dcity\\miami\\workspace\\gridID_37\\gridID_37": {
            "byteLength": 28128,
            "type": "arraybuffer",
            "uri": "data:application/octet-stream;base64,"
        }
    },
    "materials": {
        "CityEngineMaterial_433-effect": {
            "name": "CityEngineMaterial_433",
            "technique": "technique0",
            "values": {
                "ambient": [
                    1,
                    1,
                    1,
                    1
                ],
                "diffuse": [
                    1,
                    1,
                    1,
                    1
                ],
                "emission": [
                    0,
                    0,
                    0,
                    1
                ],
                "shininess": 50,
                "specular": [
                    0.5,
                    0.5,
                    0.5,
                    1
                ]
            }
        },
        "CityEngineMaterial_434-effect": {
            "name": "CityEngineMaterial_434",
            "technique": "technique0",
            "values": {
                "ambient": [
                    1,
                    1,
                    1,
                    1
                ],
                "diffuse": [
                    1,
                    1,
                    1,
                    1
                ],
                "emission": [
                    0,
                    0,
                    0,
                    1
                ],
                "shininess": 50,
                "specular": [
                    0.5,
                    0.5,
                    0.5,
                    1
                ]
            }
        },
        "CityEngineMaterial_435-effect": {
            "name": "CityEngineMaterial_435",
            "technique": "technique0",
            "values": {
                "ambient": [
                    1,
                    1,
                    1,
                    1
                ],
                "diffuse": [
                    1,
                    1,
                    1,
                    1
                ],
                "emission": [
                    0,
                    0,
                    0,
                    1
                ],
                "shininess": 50,
                "specular": [
                    0.5,
                    0.5,
                    0.5,
                    1
                ]
            }
        },
        "CityEngineMaterial_436-effect": {
            "name": "CityEngineMaterial_436",
            "technique": "technique0",
            "values": {
                "ambient": [
                    1,
                    1,
                    1,
                    1
                ],
                "diffuse": [
                    1,
                    1,
                    1,
                    1
                ],
                "emission": [
                    0,
                    0,
                    0,
                    1
                ],
                "shininess": 50,
                "specular": [
                    0.5,
                    0.5,
                    0.5,
                    1
                ]
            }
        },
        "CityEngineMaterial_437-effect": {
            "name": "CityEngineMaterial_437",
            "technique": "technique0",
            "values": {
                "ambient": [
                    1,
                    1,
                    1,
                    1
                ],
                "diffuse": [
                    1,
                    1,
                    1,
                    1
                ],
                "emission": [
                    0,
                    0,
                    0,
                    1
                ],
                "shininess": 50,
                "specular": [
                    0.5,
                    0.5,
                    0.5,
                    1
                ]
            }
        }
    },
    "meshes": {
        "mesh_CityEngineMaterial_431-mesh": {
            "name": "mesh_CityEngineMaterial.431",
            "primitives": [
                {
                    "attributes": {
                        "NORMAL": "accessor_20",
                        "POSITION": "accessor_18"
                    },
                    "indices": "accessor_16",
                    "material": "CityEngineMaterial_433-effect",
                    "mode": 4
                }
            ]
        },
        "mesh_CityEngineMaterial_432-mesh": {
            "name": "mesh_CityEngineMaterial.432",
            "primitives": [
                {
                    "attributes": {
                        "NORMAL": "accessor_40",
                        "POSITION": "accessor_38"
                    },
                    "indices": "accessor_36",
                    "material": "CityEngineMaterial_434-effect",
                    "mode": 4
                }
            ]
        },
        "mesh_CityEngineMaterial_433-mesh": {
            "name": "mesh_CityEngineMaterial.433",
            "primitives": [
                {
                    "attributes": {
                        "NORMAL": "accessor_60",
                        "POSITION": "accessor_58"
                    },
                    "indices": "accessor_56",
                    "material": "CityEngineMaterial_435-effect",
                    "mode": 4
                }
            ]
        },
        "mesh_CityEngineMaterial_434-mesh": {
            "name": "mesh_CityEngineMaterial.434",
            "primitives": [
                {
                    "attributes": {
                        "NORMAL": "accessor_80",
                        "POSITION": "accessor_78"
                    },
                    "indices": "accessor_76",
                    "material": "CityEngineMaterial_436-effect",
                    "mode": 4
                }
            ]
        },
        "mesh_CityEngineMaterial_435-mesh": {
            "name": "mesh_CityEngineMaterial.435",
            "primitives": [
                {
                    "attributes": {
                        "NORMAL": "accessor_100",
                        "POSITION": "accessor_98"
                    },
                    "indices": "accessor_96",
                    "material": "CityEngineMaterial_437-effect",
                    "mode": 4
                }
            ]
        }
    },
    "nodes": {
        "CityEngineMaterial": {
            "children": [],
            "matrix": [
                1,
                0,
                0,
                0,
                0,
                -1.62921e-007,
                1,
                0,
                0,
                -1,
                -1.62921e-007,
                0,
                0,
                0,
                0,
                1
            ],
            "meshes": [
                "mesh_CityEngineMaterial_431-mesh"
            ],
            "name": "CityEngineMaterial"
        },
        "CityEngineMaterial_001": {
            "children": [],
            "matrix": [
                1,
                0,
                0,
                0,
                0,
                -1.62921e-007,
                1,
                0,
                0,
                -1,
                -1.62921e-007,
                0,
                0,
                0,
                0,
                1
            ],
            "meshes": [
                "mesh_CityEngineMaterial_432-mesh"
            ],
            "name": "CityEngineMaterial_001"
        },
        "CityEngineMaterial_002": {
            "children": [],
            "matrix": [
                1,
                0,
                0,
                0,
                0,
                -1.62921e-007,
                1,
                0,
                0,
                -1,
                -1.62921e-007,
                0,
                0,
                0,
                0,
                1
            ],
            "meshes": [
                "mesh_CityEngineMaterial_433-mesh"
            ],
            "name": "CityEngineMaterial_002"
        },
        "CityEngineMaterial_003": {
            "children": [],
            "matrix": [
                1,
                0,
                0,
                0,
                0,
                -1.62921e-007,
                1,
                0,
                0,
                -1,
                -1.62921e-007,
                0,
                0,
                0,
                0,
                1
            ],
            "meshes": [
                "mesh_CityEngineMaterial_434-mesh"
            ],
            "name": "CityEngineMaterial_003"
        },
        "CityEngineMaterial_004": {
            "children": [],
            "matrix": [
                1,
                0,
                0,
                0,
                0,
                -1.62921e-007,
                1,
                0,
                0,
                -1,
                -1.62921e-007,
                0,
                0,
                0,
                0,
                1
            ],
            "meshes": [
                "mesh_CityEngineMaterial_435-mesh"
            ],
            "name": "CityEngineMaterial_004"
        },
        "node_5": {
            "children": [
                "CityEngineMaterial",
                "CityEngineMaterial_001",
                "CityEngineMaterial_002",
                "CityEngineMaterial_003",
                "CityEngineMaterial_004"
            ],
            "matrix": [
                1,
                0,
                0,
                0,
                0,
                0,
                -1,
                0,
                0,
                1,
                0,
                0,
                0,
                0,
                0,
                1
            ],
            "name": "Y_UP_Transform"
        }
    },
    "programs": {
        "program_0": {
            "attributes": [
                "a_normal",
                "a_position"
            ],
            "fragmentShader": "\\data\\3dcity\\miami\\workspace\\gridID_37\\gridID_370FS",
            "vertexShader": "\\data\\3dcity\\miami\\workspace\\gridID_37\\gridID_370VS"
        }
    },
    "scene": "defaultScene",
    "scenes": {
        "defaultScene": {
            "nodes": [
                "node_5"
            ]
        }
    },
    "shaders": {
        "\\data\\3dcity\\miami\\workspace\\gridID_37\\gridID_370FS": {
            "type": 35632,
            "uri": "data:text/plain;base64,"
        },
        "\\data\\3dcity\\miami\\workspace\\gridID_37\\gridID_370VS": {
            "type": 35633,
            "uri": "data:text/plain;base64,"
        }
    },
    "skins": {},
    "techniques": {
        "technique0": {
            "attributes": {
                "a_normal": "normal",
                "a_position": "position"
            },
            "parameters": {
                "ambient": {
                    "type": 35666
                },
                "diffuse": {
                    "type": 35666
                },
                "emission": {
                    "type": 35666
                },
                "modelViewMatrix": {
                    "semantic": "MODELVIEW",
                    "type": 35676
                },
                "normal": {
                    "semantic": "NORMAL",
                    "type": 35665
                },
                "normalMatrix": {
                    "semantic": "MODELVIEWINVERSETRANSPOSE",
                    "type": 35675
                },
                "position": {
                    "semantic": "POSITION",
                    "type": 35665
                },
                "projectionMatrix": {
                    "semantic": "PROJECTION",
                    "type": 35676
                },
                "shininess": {
                    "type": 5126
                },
                "specular": {
                    "type": 35666
                }
            },
            "program": "program_0",
            "states": {
                "enable": [
                    2929,
                    2884
                ]
            },
            "uniforms": {
                "u_ambient": "ambient",
                "u_diffuse": "diffuse",
                "u_emission": "emission",
                "u_modelViewMatrix": "modelViewMatrix",
                "u_normalMatrix": "normalMatrix",
                "u_projectionMatrix": "projectionMatrix",
                "u_shininess": "shininess",
                "u_specular": "specular"
            }
        }
    }
}