{
    "accessors": {
        "accessor_16": {
            "bufferView": "bufferView_82",
            "byteOffset": 0,
            "byteStride": 0,
            "componentType": 5123,
            "count": 60,
            "type": "SCALAR"
        },
        "accessor_18": {
            "bufferView": "bufferView_83",
            "byteOffset": 0,
            "byteStride": 12,
            "componentType": 5126,
            "count": 50,
            "max": [
                39.3837,
                147,
                115.733
            ],
            "min": [
                -72.9266,
                0,
                51.2731
            ],
            "type": "VEC3"
        },
        "accessor_20": {
            "bufferView": "bufferView_83",
            "byteOffset": 600,
            "byteStride": 12,
            "componentType": 5126,
            "count": 50,
            "max": [
                0.973566,
                1,
                0.973517
            ],
            "min": [
                -0.97344,
                -1,
                -0.973536
            ],
            "type": "VEC3"
        },
        "accessor_36": {
            "bufferView": "bufferView_82",
            "byteOffset": 120,
            "byteStride": 0,
            "componentType": 5123,
            "count": 276,
            "type": "SCALAR"
        },
        "accessor_38": {
            "bufferView": "bufferView_83",
            "byteOffset": 1200,
            "byteStride": 12,
            "componentType": 5126,
            "count": 207,
            "max": [
                48.4896,
                108.5,
                49.7899
            ],
            "min": [
                -19.2706,
                0,
                -11.2217
            ],
            "type": "VEC3"
        },
        "accessor_40": {
            "bufferView": "bufferView_83",
            "byteOffset": 3684,
            "byteStride": 12,
            "componentType": 5126,
            "count": 207,
            "max": [
                1,
                1,
                0.988454
            ],
            "min": [
                -0.999756,
                -1,
                -0.998263
            ],
            "type": "VEC3"
        },
        "accessor_56": {
            "bufferView": "bufferView_82",
            "byteOffset": 672,
            "byteStride": 0,
            "componentType": 5123,
            "count": 216,
            "type": "SCALAR"
        },
        "accessor_58": {
            "bufferView": "bufferView_83",
            "byteOffset": 6168,
            "byteStride": 12,
            "componentType": 5126,
            "count": 162,
            "max": [
                41.9774,
                10,
                38.5542
            ],
            "min": [
                -120.471,
                0,
                -50.0091
            ],
            "type": "VEC3"
        },
        "accessor_60": {
            "bufferView": "bufferView_83",
            "byteOffset": 8112,
            "byteStride": 12,
            "componentType": 5126,
            "count": 162,
            "max": [
                0.999756,
                1,
                0.974361
            ],
            "min": [
                -0.974347,
                -1,
                -0.971682
            ],
            "type": "VEC3"
        },
        "accessor_76": {
            "bufferView": "bufferView_82",
            "byteOffset": 1104,
            "byteStride": 0,
            "componentType": 5123,
            "count": 36,
            "type": "SCALAR"
        },
        "accessor_78": {
            "bufferView": "bufferView_83",
            "byteOffset": 10056,
            "byteStride": 12,
            "componentType": 5126,
            "count": 32,
            "max": [
                -5.60054,
                10,
                -49.2551
            ],
            "min": [
                -57.6201,
                0,
                -111.268
            ],
            "type": "VEC3"
        },
        "accessor_80": {
            "bufferView": "bufferView_83",
            "byteOffset": 10440,
            "byteStride": 12,
            "componentType": 5126,
            "count": 32,
            "max": [
                0.970423,
                1,
                0.970426
            ],
            "min": [
                -0.970423,
                -1,
                -0.970426
            ],
            "type": "VEC3"
        }
    },
    "animations": {},
    "asset": {
        "generator": "collada2gltf@cf6371beb0bdc18ba603378d5e40c966da53d385",
        "premultipliedAlpha": true,
        "profile": {
            "api": "WebGL",
            "version": "1.0.2"
        },
        "version": "1.0"
    },
    "bufferViews": {
        "bufferView_82": {
            "buffer": "\\data\\3dcity\\miami\\workspace\\gridID_40\\gridID_40",
            "byteLength": 1176,
            "byteOffset": 0,
            "target": 34963
        },
        "bufferView_83": {
            "buffer": "\\data\\3dcity\\miami\\workspace\\gridID_40\\gridID_40",
            "byteLength": 10824,
            "byteOffset": 1176,
            "target": 34962
        }
    },
    "buffers": {
        "\\data\\3dcity\\miami\\workspace\\gridID_40\\gridID_40": {
            "byteLength": 12000,
            "type": "arraybuffer",
            "uri": "data:application/octet-stream;base64,"
        }
    },
    "materials": {
        "CityEngineMaterial_442-effect": {
            "name": "CityEngineMaterial_442",
            "technique": "technique0",
            "values": {
                "ambient": [
                    1,
                    1,
                    1,
                    1
                ],
                "diffuse": [
                    1,
                    1,
                    1,
                    1
                ],
                "emission": [
                    0,
                    0,
                    0,
                    1
                ],
                "shininess": 50,
                "specular": [
                    0.5,
                    0.5,
                    0.5,
                    1
                ]
            }
        },
        "CityEngineMaterial_443-effect": {
            "name": "CityEngineMaterial_443",
            "technique": "technique0",
            "values": {
                "ambient": [
                    1,
                    1,
                    1,
                    1
                ],
                "diffuse": [
                    1,
                    1,
                    1,
                    1
                ],
                "emission": [
                    0,
                    0,
                    0,
                    1
                ],
                "shininess": 50,
                "specular": [
                    0.5,
                    0.5,
                    0.5,
                    1
                ]
            }
        },
        "CityEngineMaterial_444-effect": {
            "name": "CityEngineMaterial_444",
            "technique": "technique0",
            "values": {
                "ambient": [
                    1,
                    1,
                    1,
                    1
                ],
                "diffuse": [
                    1,
                    1,
                    1,
                    1
                ],
                "emission": [
                    0,
                    0,
                    0,
                    1
                ],
                "shininess": 50,
                "specular": [
                    0.5,
                    0.5,
                    0.5,
                    1
                ]
            }
        },
        "CityEngineMaterial_445-effect": {
            "name": "CityEngineMaterial_445",
            "technique": "technique0",
            "values": {
                "ambient": [
                    1,
                    1,
                    1,
                    1
                ],
                "diffuse": [
                    1,
                    1,
                    1,
                    1
                ],
                "emission": [
                    0,
                    0,
                    0,
                    1
                ],
                "shininess": 50,
                "specular": [
                    0.5,
                    0.5,
                    0.5,
                    1
                ]
            }
        }
    },
    "meshes": {
        "mesh_CityEngineMaterial_440-mesh": {
            "name": "mesh_CityEngineMaterial.440",
            "primitives": [
                {
                    "attributes": {
                        "NORMAL": "accessor_20",
                        "POSITION": "accessor_18"
                    },
                    "indices": "accessor_16",
                    "material": "CityEngineMaterial_442-effect",
                    "mode": 4
                }
            ]
        },
        "mesh_CityEngineMaterial_441-mesh": {
            "name": "mesh_CityEngineMaterial.441",
            "primitives": [
                {
                    "attributes": {
                        "NORMAL": "accessor_40",
                        "POSITION": "accessor_38"
                    },
                    "indices": "accessor_36",
                    "material": "CityEngineMaterial_443-effect",
                    "mode": 4
                }
            ]
        },
        "mesh_CityEngineMaterial_442-mesh": {
            "name": "mesh_CityEngineMaterial.442",
            "primitives": [
                {
                    "attributes": {
                        "NORMAL": "accessor_60",
                        "POSITION": "accessor_58"
                    },
                    "indices": "accessor_56",
                    "material": "CityEngineMaterial_444-effect",
                    "mode": 4
                }
            ]
        },
        "mesh_CityEngineMaterial_443-mesh": {
            "name": "mesh_CityEngineMaterial.443",
            "primitives": [
                {
                    "attributes": {
                        "NORMAL": "accessor_80",
                        "POSITION": "accessor_78"
                    },
                    "indices": "accessor_76",
                    "material": "CityEngineMaterial_445-effect",
                    "mode": 4
                }
            ]
        }
    },
    "nodes": {
        "CityEngineMaterial": {
            "children": [],
            "matrix": [
                1,
                0,
                0,
                0,
                0,
                -1.62921e-007,
                1,
                0,
                0,
                -1,
                -1.62921e-007,
                0,
                0,
                0,
                0,
                1
            ],
            "meshes": [
                "mesh_CityEngineMaterial_440-mesh"
            ],
            "name": "CityEngineMaterial"
        },
        "CityEngineMaterial_001": {
            "children": [],
            "matrix": [
                1,
                0,
                0,
                0,
                0,
                -1.62921e-007,
                1,
                0,
                0,
                -1,
                -1.62921e-007,
                0,
                0,
                0,
                0,
                1
            ],
            "meshes": [
                "mesh_CityEngineMaterial_441-mesh"
            ],
            "name": "CityEngineMaterial_001"
        },
        "CityEngineMaterial_002": {
            "children": [],
            "matrix": [
                1,
                0,
                0,
                0,
                0,
                -1.62921e-007,
                1,
                0,
                0,
                -1,
                -1.62921e-007,
                0,
                0,
                0,
                0,
                1
            ],
            "meshes": [
                "mesh_CityEngineMaterial_442-mesh"
            ],
            "name": "CityEngineMaterial_002"
        },
        "CityEngineMaterial_003": {
            "children": [],
            "matrix": [
                1,
                0,
                0,
                0,
                0,
                -1.62921e-007,
                1,
                0,
                0,
                -1,
                -1.62921e-007,
                0,
                0,
                0,
                0,
                1
            ],
            "meshes": [
                "mesh_CityEngineMaterial_443-mesh"
            ],
            "name": "CityEngineMaterial_003"
        },
        "node_4": {
            "children": [
                "CityEngineMaterial",
                "CityEngineMaterial_001",
                "CityEngineMaterial_002",
                "CityEngineMaterial_003"
            ],
            "matrix": [
                1,
                0,
                0,
                0,
                0,
                0,
                -1,
                0,
                0,
                1,
                0,
                0,
                0,
                0,
                0,
                1
            ],
            "name": "Y_UP_Transform"
        }
    },
    "programs": {
        "program_0": {
            "attributes": [
                "a_normal",
                "a_position"
            ],
            "fragmentShader": "\\data\\3dcity\\miami\\workspace\\gridID_40\\gridID_400FS",
            "vertexShader": "\\data\\3dcity\\miami\\workspace\\gridID_40\\gridID_400VS"
        }
    },
    "scene": "defaultScene",
    "scenes": {
        "defaultScene": {
            "nodes": [
                "node_4"
            ]
        }
    },
    "shaders": {
        "\\data\\3dcity\\miami\\workspace\\gridID_40\\gridID_400FS": {
            "type": 35632,
            "uri": "data:text/plain;base64,"
        },
        "\\data\\3dcity\\miami\\workspace\\gridID_40\\gridID_400VS": {
            "type": 35633,
            "uri": "data:text/plain;base64,"
        }
    },
    "skins": {},
    "techniques": {
        "technique0": {
            "attributes": {
                "a_normal": "normal",
                "a_position": "position"
            },
            "parameters": {
                "ambient": {
                    "type": 35666
                },
                "diffuse": {
                    "type": 35666
                },
                "emission": {
                    "type": 35666
                },
                "modelViewMatrix": {
                    "semantic": "MODELVIEW",
                    "type": 35676
                },
                "normal": {
                    "semantic": "NORMAL",
                    "type": 35665
                },
                "normalMatrix": {
                    "semantic": "MODELVIEWINVERSETRANSPOSE",
                    "type": 35675
                },
                "position": {
                    "semantic": "POSITION",
                    "type": 35665
                },
                "projectionMatrix": {
                    "semantic": "PROJECTION",
                    "type": 35676
                },
                "shininess": {
                    "type": 5126
                },
                "specular": {
                    "type": 35666
                }
            },
            "program": "program_0",
            "states": {
                "enable": [
                    2929,
                    2884
                ]
            },
            "uniforms": {
                "u_ambient": "ambient",
                "u_diffuse": "diffuse",
                "u_emission": "emission",
                "u_modelViewMatrix": "modelViewMatrix",
                "u_normalMatrix": "normalMatrix",
                "u_projectionMatrix": "projectionMatrix",
                "u_shininess": "shininess",
                "u_specular": "specular"
            }
        }
    }
}