{"accessors":{"accessor_16":{"bufferView":"bufferView_42","byteOffset":0,"byteStride":0,"componentType":5123,"count":504,"type":"SCALAR"},"accessor_18":{"bufferView":"bufferView_43","byteOffset":0,"byteStride":12,"componentType":5126,"count":458,"max":[-21.3504,53.1215,58.3373],"min":[-64.0163,-13.4066,1.18323],"type":"VEC3"},"accessor_20":{"bufferView":"bufferView_43","byteOffset":5496,"byteStride":12,"componentType":5126,"count":458,"max":[0.975239,0.999981,1],"min":[-0.975259,-0.999981,0],"type":"VEC3"},"accessor_36":{"bufferView":"bufferView_42","byteOffset":1008,"byteStride":0,"componentType":5123,"count":7623,"type":"SCALAR"},"accessor_38":{"bufferView":"bufferView_43","byteOffset":10992,"byteStride":12,"componentType":5126,"count":6790,"max":[125.212,56.6378,94.5461],"min":[-33.2534,-56.3176,0.402393],"type":"VEC3"},"accessor_40":{"bufferView":"bufferView_43","byteOffset":92472,"byteStride":12,"componentType":5126,"count":6790,"max":[0.999879,0.989199,1],"min":[-0.99988,-0.999876,-1],"type":"VEC3"},"accessor_b0":{"bufferView":"bufferView_b","byteOffset":0,"byteStride":0,"componentType":5123,"count":458,"type":"SCALAR"},"accessor_b1":{"bufferView":"bufferView_b","byteOffset":916,"byteStride":0,"componentType":5123,"count":6790,"type":"SCALAR"}},"animations":{},"asset":{"generator":"collada2gltf@cf6371beb0bdc18ba603378d5e40c966da53d385","premultipliedAlpha":true,"profile":{"api":"WebGL","version":"1.0.2"},"version":"1.0"},"bufferViews":{"bufferView_42":{"buffer":"\\data\\3dcity\\miami\\workspace\\gridID_21\\gridID_21_high","byteLength":16256,"byteOffset":0,"target":34963},"bufferView_43":{"buffer":"\\data\\3dcity\\miami\\workspace\\gridID_21\\gridID_21_high","byteLength":173952,"byteOffset":16256,"target":34962},"bufferView_b":{"buffer":"buffer_b","byteLength":14496,"byteOffset":0,"target":34962}},"buffers":{"\\data\\3dcity\\miami\\workspace\\gridID_21\\gridID_21_high":{"byteLength":190208,"type":"arraybuffer","uri":"data:application/octet-stream;base64,"},"buffer_b":{"type":"arraybuffer","byteLength":14496,"uri":"data:application/octet-stream;base64,"}},"materials":{"__glTF__defaultMaterial0":{"name":"__glTF__defaultMaterial0","technique":"technique0","values":{"diffuse":[1,1,1,1]}}},"meshes":{"multipatch_footprint_1310-mesh":{"name":"multipatch_footprint.1310","primitives":[{"attributes":{"NORMAL":"accessor_20","POSITION":"accessor_18","BATCHID":"accessor_b0"},"indices":"accessor_16","material":"__glTF__defaultMaterial0","mode":4}]},"multipatch_footprint_1601-mesh":{"name":"multipatch_footprint.1601","primitives":[{"attributes":{"NORMAL":"accessor_40","POSITION":"accessor_38","BATCHID":"accessor_b1"},"indices":"accessor_36","material":"__glTF__defaultMaterial0","mode":4}]}},"nodes":{"gridID_21_w255188208_join":{"children":[],"matrix":[1,0,0,0,0,1,0,0,0,0,1,0,0.000366211,0.000335693,0,1],"meshes":["multipatch_footprint_1310-mesh"],"name":"gridID_21_w255188208_join"},"gridID_21_w435531750_join":{"children":[],"matrix":[1,0,0,0,0,1,0,0,0,0,1,0,0.000366211,0.000335693,0,1],"meshes":["multipatch_footprint_1601-mesh"],"name":"gridID_21_w435531750_join"},"node_2":{"children":["gridID_21_w255188208_join","gridID_21_w435531750_join"],"matrix":[1,0,0,0,0,0,-1,0,0,1,0,0,0,0,0,1],"name":"Y_UP_Transform"}},"programs":{"program_0":{"attributes":["a_normal","a_position","a_batchId"],"fragmentShader":"\\data\\3dcity\\miami\\workspace\\gridID_21\\gridID_21_high0FS","vertexShader":"\\data\\3dcity\\miami\\workspace\\gridID_21\\gridID_21_high0VS"}},"scene":"defaultScene","scenes":{"defaultScene":{"nodes":["node_2"]}},"shaders":{"\\data\\3dcity\\miami\\workspace\\gridID_21\\gridID_21_high0FS":{"type":35632,"uri":"data:text/plain;base64,"},"\\data\\3dcity\\miami\\workspace\\gridID_21\\gridID_21_high0VS":{"type":35633,"uri":"data:text/plain;base64,"}},"skins":{},"techniques":{"technique0":{"attributes":{"a_normal":"normal","a_position":"position","a_batchId":"batchId"},"parameters":{"diffuse":{"type":35666},"modelViewMatrix":{"semantic":"MODELVIEW","type":35676},"normal":{"semantic":"NORMAL","type":35665},"normalMatrix":{"semantic":"MODELVIEWINVERSETRANSPOSE","type":35675},"position":{"semantic":"POSITION","type":35665},"projectionMatrix":{"semantic":"PROJECTION","type":35676},"batchId":{"semantic":"BATCHID","type":5126}},"program":"program_0","states":{"enable":[2929,2884]},"uniforms":{"u_diffuse":"diffuse","u_modelViewMatrix":"modelViewMatrix","u_normalMatrix":"normalMatrix","u_projectionMatrix":"projectionMatrix"}}}}