{"accessors":{"accessor_100":{"bufferView":"bufferView_303","byteOffset":14652,"byteStride":12,"componentType":5126,"count":197,"max":[0.999986,0.999987,1],"min":[-0.999986,-0.999987,0],"type":"VEC3"},"accessor_116":{"bufferView":"bufferView_302","byteOffset":1524,"byteStride":0,"componentType":5123,"count":150,"type":"SCALAR"},"accessor_118":{"bufferView":"bufferView_303","byteOffset":17016,"byteStride":12,"componentType":5126,"count":142,"max":[11.2864,-45.6046,12.4121],"min":[-6.90756,-60.9942,3.41531],"type":"VEC3"},"accessor_120":{"bufferView":"bufferView_303","byteOffset":18720,"byteStride":12,"componentType":5126,"count":142,"max":[0.999958,0.999954,1],"min":[-0.999959,-0.999954,0],"type":"VEC3"},"accessor_136":{"bufferView":"bufferView_302","byteOffset":1824,"byteStride":0,"componentType":5123,"count":252,"type":"SCALAR"},"accessor_138":{"bufferView":"bufferView_303","byteOffset":20424,"byteStride":12,"componentType":5126,"count":236,"max":[-50.5595,-47.6136,12.4121],"min":[-71.5746,-63.1869,3.81382],"type":"VEC3"},"accessor_140":{"bufferView":"bufferView_303","byteOffset":23256,"byteStride":12,"componentType":5126,"count":236,"max":[0.999956,0.999953,1],"min":[-0.999956,-0.999954,0],"type":"VEC3"},"accessor_156":{"bufferView":"bufferView_302","byteOffset":2328,"byteStride":0,"componentType":5123,"count":318,"type":"SCALAR"},"accessor_158":{"bufferView":"bufferView_303","byteOffset":26088,"byteStride":12,"componentType":5126,"count":285,"max":[-29.9592,-46.9123,12.4121],"min":[-50.914,-63.2906,3.60668],"type":"VEC3"},"accessor_16":{"bufferView":"bufferView_302","byteOffset":0,"byteStride":0,"componentType":5123,"count":102,"type":"SCALAR"},"accessor_160":{"bufferView":"bufferView_303","byteOffset":29508,"byteStride":12,"componentType":5126,"count":285,"max":[0.999956,0.999959,1],"min":[-0.999956,-0.999954,0],"type":"VEC3"},"accessor_176":{"bufferView":"bufferView_302","byteOffset":2964,"byteStride":0,"componentType":5123,"count":318,"type":"SCALAR"},"accessor_178":{"bufferView":"bufferView_303","byteOffset":32928,"byteStride":12,"componentType":5126,"count":286,"max":[-9.36752,-46.2649,12.4121],"min":[-30.3053,-62.6103,3.40328],"type":"VEC3"},"accessor_18":{"bufferView":"bufferView_303","byteOffset":0,"byteStride":12,"componentType":5126,"count":97,"max":[-50.468,61.9879,10.4821],"min":[-62.8879,34.0795,3.94718],"type":"VEC3"},"accessor_180":{"bufferView":"bufferView_303","byteOffset":36360,"byteStride":12,"componentType":5126,"count":286,"max":[0.999956,0.999959,1],"min":[-0.999955,-0.999953,0],"type":"VEC3"},"accessor_196":{"bufferView":"bufferView_302","byteOffset":3600,"byteStride":0,"componentType":5123,"count":234,"type":"SCALAR"},"accessor_198":{"bufferView":"bufferView_303","byteOffset":39792,"byteStride":12,"componentType":5126,"count":219,"max":[31.8991,-42.3196,12.4121],"min":[15.7506,-62.3796,3.70641],"type":"VEC3"},"accessor_20":{"bufferView":"bufferView_303","byteOffset":1164,"byteStride":12,"componentType":5126,"count":97,"max":[0.999354,0.999352,1],"min":[-0.999353,-0.999343,0],"type":"VEC3"},"accessor_200":{"bufferView":"bufferView_303","byteOffset":42420,"byteStride":12,"componentType":5126,"count":219,"max":[0.999959,0.999953,1],"min":[-0.999959,-0.999953,0],"type":"VEC3"},"accessor_216":{"bufferView":"bufferView_302","byteOffset":4068,"byteStride":0,"componentType":5123,"count":312,"type":"SCALAR"},"accessor_218":{"bufferView":"bufferView_303","byteOffset":45048,"byteStride":12,"componentType":5126,"count":278,"max":[32.5834,-62.523,12.4121],"min":[16.4779,-83.5689,3.69595],"type":"VEC3"},"accessor_220":{"bufferView":"bufferView_303","byteOffset":48384,"byteStride":12,"componentType":5126,"count":278,"max":[0.999959,0.999959,1],"min":[-0.999958,-0.999954,0],"type":"VEC3"},"accessor_236":{"bufferView":"bufferView_302","byteOffset":4692,"byteStride":0,"componentType":5123,"count":348,"type":"SCALAR"},"accessor_238":{"bufferView":"bufferView_303","byteOffset":51720,"byteStride":12,"componentType":5126,"count":313,"max":[12.0384,-68.6868,12.4121],"min":[-8.88455,-85.4286,3.37406],"type":"VEC3"},"accessor_240":{"bufferView":"bufferView_303","byteOffset":55476,"byteStride":12,"componentType":5126,"count":313,"max":[0.999959,0.999954,1],"min":[-0.999958,-0.999954,0],"type":"VEC3"},"accessor_256":{"bufferView":"bufferView_302","byteOffset":5388,"byteStride":0,"componentType":5123,"count":282,"type":"SCALAR"},"accessor_258":{"bufferView":"bufferView_303","byteOffset":59232,"byteStride":12,"componentType":5126,"count":266,"max":[-8.56021,-69.3674,12.4121],"min":[-29.5631,-85.2349,3.38344],"type":"VEC3"},"accessor_260":{"bufferView":"bufferView_303","byteOffset":62424,"byteStride":12,"componentType":5126,"count":266,"max":[0.999959,0.999959,1],"min":[-0.999959,-0.999953,0],"type":"VEC3"},"accessor_276":{"bufferView":"bufferView_302","byteOffset":5952,"byteStride":0,"componentType":5123,"count":348,"type":"SCALAR"},"accessor_278":{"bufferView":"bufferView_303","byteOffset":65616,"byteStride":12,"componentType":5126,"count":322,"max":[-29.2301,-70.0699,12.4121],"min":[-50.1563,-86.79,3.472],"type":"VEC3"},"accessor_280":{"bufferView":"bufferView_303","byteOffset":69480,"byteStride":12,"componentType":5126,"count":322,"max":[0.999956,0.999959,1],"min":[-0.999956,-0.999959,0],"type":"VEC3"},"accessor_296":{"bufferView":"bufferView_302","byteOffset":6648,"byteStride":0,"componentType":5123,"count":348,"type":"SCALAR"},"accessor_298":{"bufferView":"bufferView_303","byteOffset":73344,"byteStride":12,"componentType":5126,"count":311,"max":[-49.8234,-70.6849,12.4121],"min":[-70.8031,-87.4701,3.6603],"type":"VEC3"},"accessor_300":{"bufferView":"bufferView_303","byteOffset":77076,"byteStride":12,"componentType":5126,"count":311,"max":[0.999959,0.999954,1],"min":[-0.999958,-0.999954,0],"type":"VEC3"},"accessor_36":{"bufferView":"bufferView_302","byteOffset":204,"byteStride":0,"componentType":5123,"count":30,"type":"SCALAR"},"accessor_38":{"bufferView":"bufferView_303","byteOffset":2328,"byteStride":12,"componentType":5126,"count":30,"max":[-33.6566,65.0598,10.8308],"min":[-45.5433,32.6381,3.68705],"type":"VEC3"},"accessor_40":{"bufferView":"bufferView_303","byteOffset":2688,"byteStride":12,"componentType":5126,"count":30,"max":[0.9995,0.999488,1],"min":[-0.9995,-0.999488,0],"type":"VEC3"},"accessor_56":{"bufferView":"bufferView_302","byteOffset":264,"byteStride":0,"componentType":5123,"count":156,"type":"SCALAR"},"accessor_58":{"bufferView":"bufferView_303","byteOffset":3048,"byteStride":12,"componentType":5126,"count":152,"max":[-17.4663,58.0962,16.1575],"min":[-30.1308,29.4978,3.27849],"type":"VEC3"},"accessor_60":{"bufferView":"bufferView_303","byteOffset":4872,"byteStride":12,"componentType":5126,"count":152,"max":[0.999877,0.999875,1],"min":[-0.999877,-0.999875,0],"type":"VEC3"},"accessor_76":{"bufferView":"bufferView_302","byteOffset":576,"byteStride":0,"componentType":5123,"count":252,"type":"SCALAR"},"accessor_78":{"bufferView":"bufferView_303","byteOffset":6696,"byteStride":12,"componentType":5126,"count":233,"max":[-36.0852,3.78885,12.8769],"min":[-123.119,-10.9858,3.44718],"type":"VEC3"},"accessor_80":{"bufferView":"bufferView_303","byteOffset":9492,"byteStride":12,"componentType":5126,"count":233,"max":[0.999564,0.999555,1],"min":[-0.999564,-0.999555,0],"type":"VEC3"},"accessor_96":{"bufferView":"bufferView_302","byteOffset":1080,"byteStride":0,"componentType":5123,"count":222,"type":"SCALAR"},"accessor_98":{"bufferView":"bufferView_303","byteOffset":12288,"byteStride":12,"componentType":5126,"count":197,"max":[34.3468,-7.52341,9.56312],"min":[4.62088,-37.2372,3.42237],"type":"VEC3"},"accessor_b0":{"bufferView":"bufferView_b","byteOffset":0,"byteStride":0,"componentType":5123,"count":97,"type":"SCALAR"},"accessor_b1":{"bufferView":"bufferView_b","byteOffset":194,"byteStride":0,"componentType":5123,"count":30,"type":"SCALAR"},"accessor_b2":{"bufferView":"bufferView_b","byteOffset":254,"byteStride":0,"componentType":5123,"count":152,"type":"SCALAR"},"accessor_b3":{"bufferView":"bufferView_b","byteOffset":558,"byteStride":0,"componentType":5123,"count":233,"type":"SCALAR"},"accessor_b4":{"bufferView":"bufferView_b","byteOffset":1024,"byteStride":0,"componentType":5123,"count":197,"type":"SCALAR"},"accessor_b5":{"bufferView":"bufferView_b","byteOffset":1418,"byteStride":0,"componentType":5123,"count":142,"type":"SCALAR"},"accessor_b6":{"bufferView":"bufferView_b","byteOffset":1702,"byteStride":0,"componentType":5123,"count":236,"type":"SCALAR"},"accessor_b7":{"bufferView":"bufferView_b","byteOffset":2174,"byteStride":0,"componentType":5123,"count":285,"type":"SCALAR"},"accessor_b8":{"bufferView":"bufferView_b","byteOffset":2744,"byteStride":0,"componentType":5123,"count":286,"type":"SCALAR"},"accessor_b9":{"bufferView":"bufferView_b","byteOffset":3316,"byteStride":0,"componentType":5123,"count":219,"type":"SCALAR"},"accessor_b10":{"bufferView":"bufferView_b","byteOffset":3754,"byteStride":0,"componentType":5123,"count":278,"type":"SCALAR"},"accessor_b11":{"bufferView":"bufferView_b","byteOffset":4310,"byteStride":0,"componentType":5123,"count":313,"type":"SCALAR"},"accessor_b12":{"bufferView":"bufferView_b","byteOffset":4936,"byteStride":0,"componentType":5123,"count":266,"type":"SCALAR"},"accessor_b13":{"bufferView":"bufferView_b","byteOffset":5468,"byteStride":0,"componentType":5123,"count":322,"type":"SCALAR"},"accessor_b14":{"bufferView":"bufferView_b","byteOffset":6112,"byteStride":0,"componentType":5123,"count":311,"type":"SCALAR"}},"animations":{},"asset":{"generator":"collada2gltf@cf6371beb0bdc18ba603378d5e40c966da53d385","premultipliedAlpha":true,"profile":{"api":"WebGL","version":"1.0.2"},"version":"1.0"},"bufferViews":{"bufferView_302":{"buffer":"\\data\\3dcity\\miami\\workspace\\gridID_52\\gridID_52_high","byteLength":7344,"byteOffset":0,"target":34963},"bufferView_303":{"buffer":"\\data\\3dcity\\miami\\workspace\\gridID_52\\gridID_52_high","byteLength":80808,"byteOffset":7344,"target":34962},"bufferView_b":{"buffer":"buffer_b","byteLength":6734,"byteOffset":0,"target":34962}},"buffers":{"\\data\\3dcity\\miami\\workspace\\gridID_52\\gridID_52_high":{"byteLength":88152,"type":"arraybuffer","uri":"data:application/octet-stream;base64,"},"buffer_b":{"type":"arraybuffer","byteLength":6734,"uri":"data:application/octet-stream;base64,"}},"materials":{"__glTF__defaultMaterial0":{"name":"__glTF__defaultMaterial0","technique":"technique0","values":{"diffuse":[1,1,1,1]}}},"meshes":{"multipatch_footprint_1803-mesh":{"name":"multipatch_footprint.1803","primitives":[{"attributes":{"NORMAL":"accessor_20","POSITION":"accessor_18","BATCHID":"accessor_b0"},"indices":"accessor_16","material":"__glTF__defaultMaterial0","mode":4}]},"multipatch_footprint_1804-mesh":{"name":"multipatch_footprint.1804","primitives":[{"attributes":{"NORMAL":"accessor_40","POSITION":"accessor_38","BATCHID":"accessor_b1"},"indices":"accessor_36","material":"__glTF__defaultMaterial0","mode":4}]},"multipatch_footprint_1808-mesh":{"name":"multipatch_footprint.1808","primitives":[{"attributes":{"NORMAL":"accessor_60","POSITION":"accessor_58","BATCHID":"accessor_b2"},"indices":"accessor_56","material":"__glTF__defaultMaterial0","mode":4}]},"multipatch_footprint_1872-mesh":{"name":"multipatch_footprint.1872","primitives":[{"attributes":{"NORMAL":"accessor_80","POSITION":"accessor_78","BATCHID":"accessor_b3"},"indices":"accessor_76","material":"__glTF__defaultMaterial0","mode":4}]},"multipatch_footprint_1887-mesh":{"name":"multipatch_footprint.1887","primitives":[{"attributes":{"NORMAL":"accessor_100","POSITION":"accessor_98","BATCHID":"accessor_b4"},"indices":"accessor_96","material":"__glTF__defaultMaterial0","mode":4}]},"multipatch_footprint_1907-mesh":{"name":"multipatch_footprint.1907","primitives":[{"attributes":{"NORMAL":"accessor_120","POSITION":"accessor_118","BATCHID":"accessor_b5"},"indices":"accessor_116","material":"__glTF__defaultMaterial0","mode":4}]},"multipatch_footprint_1932-mesh":{"name":"multipatch_footprint.1932","primitives":[{"attributes":{"NORMAL":"accessor_140","POSITION":"accessor_138","BATCHID":"accessor_b6"},"indices":"accessor_136","material":"__glTF__defaultMaterial0","mode":4}]},"multipatch_footprint_1933-mesh":{"name":"multipatch_footprint.1933","primitives":[{"attributes":{"NORMAL":"accessor_160","POSITION":"accessor_158","BATCHID":"accessor_b7"},"indices":"accessor_156","material":"__glTF__defaultMaterial0","mode":4}]},"multipatch_footprint_1934-mesh":{"name":"multipatch_footprint.1934","primitives":[{"attributes":{"NORMAL":"accessor_180","POSITION":"accessor_178","BATCHID":"accessor_b8"},"indices":"accessor_176","material":"__glTF__defaultMaterial0","mode":4}]},"multipatch_footprint_1936-mesh":{"name":"multipatch_footprint.1936","primitives":[{"attributes":{"NORMAL":"accessor_200","POSITION":"accessor_198","BATCHID":"accessor_b9"},"indices":"accessor_196","material":"__glTF__defaultMaterial0","mode":4}]},"multipatch_footprint_1937-mesh":{"name":"multipatch_footprint.1937","primitives":[{"attributes":{"NORMAL":"accessor_220","POSITION":"accessor_218","BATCHID":"accessor_b10"},"indices":"accessor_216","material":"__glTF__defaultMaterial0","mode":4}]},"multipatch_footprint_1941-mesh":{"name":"multipatch_footprint.1941","primitives":[{"attributes":{"NORMAL":"accessor_240","POSITION":"accessor_238","BATCHID":"accessor_b11"},"indices":"accessor_236","material":"__glTF__defaultMaterial0","mode":4}]},"multipatch_footprint_1942-mesh":{"name":"multipatch_footprint.1942","primitives":[{"attributes":{"NORMAL":"accessor_260","POSITION":"accessor_258","BATCHID":"accessor_b12"},"indices":"accessor_256","material":"__glTF__defaultMaterial0","mode":4}]},"multipatch_footprint_1943-mesh":{"name":"multipatch_footprint.1943","primitives":[{"attributes":{"NORMAL":"accessor_280","POSITION":"accessor_278","BATCHID":"accessor_b13"},"indices":"accessor_276","material":"__glTF__defaultMaterial0","mode":4}]},"multipatch_footprint_1944-mesh":{"name":"multipatch_footprint.1944","primitives":[{"attributes":{"NORMAL":"accessor_300","POSITION":"accessor_298","BATCHID":"accessor_b14"},"indices":"accessor_296","material":"__glTF__defaultMaterial0","mode":4}]}},"nodes":{"gridID_52_w182421434_join":{"children":[],"matrix":[1,0,0,0,0,1,0,0,0,0,1,0,0.000366211,0.000335693,0,1],"meshes":["multipatch_footprint_1932-mesh"],"name":"gridID_52_w182421434_join"},"gridID_52_w182421435_join":{"children":[],"matrix":[1,0,0,0,0,1,0,0,0,0,1,0,0.000366211,0.000335693,0,1],"meshes":["multipatch_footprint_1936-mesh"],"name":"gridID_52_w182421435_join"},"gridID_52_w182421436_join":{"children":[],"matrix":[1,0,0,0,0,1,0,0,0,0,1,0,0.000366211,0.000335693,0,1],"meshes":["multipatch_footprint_1941-mesh"],"name":"gridID_52_w182421436_join"},"gridID_52_w182421437_join":{"children":[],"matrix":[1,0,0,0,0,1,0,0,0,0,1,0,0.000366211,0.000335693,0,1],"meshes":["multipatch_footprint_1887-mesh"],"name":"gridID_52_w182421437_join"},"gridID_52_w182421439_join":{"children":[],"matrix":[1,0,0,0,0,1,0,0,0,0,1,0,0.000366211,0.000335693,0,1],"meshes":["multipatch_footprint_1944-mesh"],"name":"gridID_52_w182421439_join"},"gridID_52_w182421441_join":{"children":[],"matrix":[1,0,0,0,0,1,0,0,0,0,1,0,0.000366211,0.000335693,0,1],"meshes":["multipatch_footprint_1942-mesh"],"name":"gridID_52_w182421441_join"},"gridID_52_w182421442_join":{"children":[],"matrix":[1,0,0,0,0,1,0,0,0,0,1,0,0.000366211,0.000335693,0,1],"meshes":["multipatch_footprint_1933-mesh"],"name":"gridID_52_w182421442_join"},"gridID_52_w182421444_join":{"children":[],"matrix":[1,0,0,0,0,1,0,0,0,0,1,0,0.000366211,0.000335693,0,1],"meshes":["multipatch_footprint_1937-mesh"],"name":"gridID_52_w182421444_join"},"gridID_52_w182421445_join":{"children":[],"matrix":[1,0,0,0,0,1,0,0,0,0,1,0,0.000366211,0.000335693,0,1],"meshes":["multipatch_footprint_1943-mesh"],"name":"gridID_52_w182421445_join"},"gridID_52_w182421446_join":{"children":[],"matrix":[1,0,0,0,0,1,0,0,0,0,1,0,0.000366211,0.000335693,0,1],"meshes":["multipatch_footprint_1934-mesh"],"name":"gridID_52_w182421446_join"},"gridID_52_w182421447_join":{"children":[],"matrix":[1,0,0,0,0,1,0,0,0,0,1,0,0.000366211,0.000335693,0,1],"meshes":["multipatch_footprint_1907-mesh"],"name":"gridID_52_w182421447_join"},"gridID_52_w182421450_join":{"children":[],"matrix":[1,0,0,0,0,1,0,0,0,0,1,0,0.000366211,0.000335693,0,1],"meshes":["multipatch_footprint_1872-mesh"],"name":"gridID_52_w182421450_join"},"gridID_52_w255188240_join":{"children":[],"matrix":[1,0,0,0,0,1,0,0,0,0,1,0,0.000366211,0.000335693,0,1],"meshes":["multipatch_footprint_1804-mesh"],"name":"gridID_52_w255188240_join"},"gridID_52_w435531572_join":{"children":[],"matrix":[1,0,0,0,0,1,0,0,0,0,1,0,0.000366211,0.000335693,0,1],"meshes":["multipatch_footprint_1808-mesh"],"name":"gridID_52_w435531572_join"},"gridID_52_w435537091_join":{"children":[],"matrix":[1,0,0,0,0,1,0,0,0,0,1,0,0.000366211,0.000335693,0,1],"meshes":["multipatch_footprint_1803-mesh"],"name":"gridID_52_w435537091_join"},"node_15":{"children":["gridID_52_w435537091_join","gridID_52_w255188240_join","gridID_52_w435531572_join","gridID_52_w182421450_join","gridID_52_w182421437_join","gridID_52_w182421447_join","gridID_52_w182421434_join","gridID_52_w182421442_join","gridID_52_w182421446_join","gridID_52_w182421435_join","gridID_52_w182421444_join","gridID_52_w182421436_join","gridID_52_w182421441_join","gridID_52_w182421445_join","gridID_52_w182421439_join"],"matrix":[1,0,0,0,0,0,-1,0,0,1,0,0,0,0,0,1],"name":"Y_UP_Transform"}},"programs":{"program_0":{"attributes":["a_normal","a_position","a_batchId"],"fragmentShader":"\\data\\3dcity\\miami\\workspace\\gridID_52\\gridID_52_high0FS","vertexShader":"\\data\\3dcity\\miami\\workspace\\gridID_52\\gridID_52_high0VS"}},"scene":"defaultScene","scenes":{"defaultScene":{"nodes":["node_15"]}},"shaders":{"\\data\\3dcity\\miami\\workspace\\gridID_52\\gridID_52_high0FS":{"type":35632,"uri":"data:text/plain;base64,"},"\\data\\3dcity\\miami\\workspace\\gridID_52\\gridID_52_high0VS":{"type":35633,"uri":"data:text/plain;base64,"}},"skins":{},"techniques":{"technique0":{"attributes":{"a_normal":"normal","a_position":"position","a_batchId":"batchId"},"parameters":{"diffuse":{"type":35666},"modelViewMatrix":{"semantic":"MODELVIEW","type":35676},"normal":{"semantic":"NORMAL","type":35665},"normalMatrix":{"semantic":"MODELVIEWINVERSETRANSPOSE","type":35675},"position":{"semantic":"POSITION","type":35665},"projectionMatrix":{"semantic":"PROJECTION","type":35676},"batchId":{"semantic":"BATCHID","type":5126}},"program":"program_0","states":{"enable":[2929,2884]},"uniforms":{"u_diffuse":"diffuse","u_modelViewMatrix":"modelViewMatrix","u_normalMatrix":"normalMatrix","u_projectionMatrix":"projectionMatrix"}}}}