{"accessors":{"accessor_100":{"bufferView":"bufferView_183","byteOffset":6792,"byteStride":12,"componentType":5126,"count":60,"max":[0.806761,1,0.80375],"min":[-0.806235,-1,-0.803755],"type":"VEC3"},"accessor_116":{"bufferView":"bufferView_182","byteOffset":888,"byteStride":0,"componentType":5123,"count":36,"type":"SCALAR"},"accessor_118":{"bufferView":"bufferView_183","byteOffset":7512,"byteStride":12,"componentType":5126,"count":30,"max":[50.5655,11,-23.2136],"min":[27.1662,0,-49.9241],"type":"VEC3"},"accessor_120":{"bufferView":"bufferView_183","byteOffset":7872,"byteStride":12,"componentType":5126,"count":30,"max":[0.815583,1,0.812499],"min":[-0.815583,-1,-0.812498],"type":"VEC3"},"accessor_136":{"bufferView":"bufferView_182","byteOffset":960,"byteStride":0,"componentType":5123,"count":36,"type":"SCALAR"},"accessor_138":{"bufferView":"bufferView_183","byteOffset":8232,"byteStride":12,"componentType":5126,"count":34,"max":[22.001,11,-5.35297],"min":[0.237994,0,-28.9487],"type":"VEC3"},"accessor_140":{"bufferView":"bufferView_183","byteOffset":8640,"byteStride":12,"componentType":5126,"count":34,"max":[0.7907,1,0.787374],"min":[-0.7907,-1,-0.787374],"type":"VEC3"},"accessor_156":{"bufferView":"bufferView_182","byteOffset":1032,"byteStride":0,"componentType":5123,"count":84,"type":"SCALAR"},"accessor_158":{"bufferView":"bufferView_183","byteOffset":9048,"byteStride":12,"componentType":5126,"count":52,"max":[-8.62303,23,107.693],"min":[-55.5776,0,57.7707],"type":"VEC3"},"accessor_16":{"bufferView":"bufferView_182","byteOffset":0,"byteStride":0,"componentType":5123,"count":180,"type":"SCALAR"},"accessor_160":{"bufferView":"bufferView_183","byteOffset":9672,"byteStride":12,"componentType":5126,"count":52,"max":[0.801586,1,0.798854],"min":[-0.801684,-1,-0.79975],"type":"VEC3"},"accessor_176":{"bufferView":"bufferView_182","byteOffset":1200,"byteStride":0,"componentType":5123,"count":192,"type":"SCALAR"},"accessor_178":{"bufferView":"bufferView_183","byteOffset":10296,"byteStride":12,"componentType":5126,"count":138,"max":[-47.8075,35,59.1056],"min":[-83.5967,0,24.1756],"type":"VEC3"},"accessor_18":{"bufferView":"bufferView_183","byteOffset":0,"byteStride":12,"componentType":5126,"count":110,"max":[96.4292,32,30.3681],"min":[35.9493,0,-32.0264],"type":"VEC3"},"accessor_180":{"bufferView":"bufferView_183","byteOffset":11952,"byteStride":12,"componentType":5126,"count":138,"max":[0.901408,1,0.820759],"min":[-0.799768,-1,-0.99641],"type":"VEC3"},"accessor_20":{"bufferView":"bufferView_183","byteOffset":1320,"byteStride":12,"componentType":5126,"count":110,"max":[0.749245,1,0.745136],"min":[-0.751146,-1,-0.745226],"type":"VEC3"},"accessor_36":{"bufferView":"bufferView_182","byteOffset":360,"byteStride":0,"componentType":5123,"count":84,"type":"SCALAR"},"accessor_38":{"bufferView":"bufferView_183","byteOffset":2640,"byteStride":12,"componentType":5126,"count":68,"max":[52.8476,27,74.2839],"min":[-8.80116,0,13.3851],"type":"VEC3"},"accessor_40":{"bufferView":"bufferView_183","byteOffset":3456,"byteStride":12,"componentType":5126,"count":68,"max":[0.733719,1,0.729971],"min":[-0.733877,-1,-0.729982],"type":"VEC3"},"accessor_56":{"bufferView":"bufferView_182","byteOffset":528,"byteStride":0,"componentType":5123,"count":36,"type":"SCALAR"},"accessor_58":{"bufferView":"bufferView_183","byteOffset":4272,"byteStride":12,"componentType":5126,"count":28,"max":[58.1798,12,-34.8199],"min":[39.389,0,-57.7853],"type":"VEC3"},"accessor_60":{"bufferView":"bufferView_183","byteOffset":4608,"byteStride":12,"componentType":5126,"count":28,"max":[0.851635,1,0.849022],"min":[-0.851635,-1,-0.84902],"type":"VEC3"},"accessor_76":{"bufferView":"bufferView_182","byteOffset":600,"byteStride":0,"componentType":5123,"count":60,"type":"SCALAR"},"accessor_78":{"bufferView":"bufferView_183","byteOffset":4944,"byteStride":12,"componentType":5126,"count":47,"max":[12.3496,8,14.6706],"min":[-13.51,0,-18.8627],"type":"VEC3"},"accessor_80":{"bufferView":"bufferView_183","byteOffset":5508,"byteStride":12,"componentType":5126,"count":47,"max":[0.831589,1,0.829089],"min":[-0.831546,-1,-0.828518],"type":"VEC3"},"accessor_96":{"bufferView":"bufferView_182","byteOffset":720,"byteStride":0,"componentType":5123,"count":84,"type":"SCALAR"},"accessor_98":{"bufferView":"bufferView_183","byteOffset":6072,"byteStride":12,"componentType":5126,"count":60,"max":[30.6059,8,-22.6821],"min":[12.9173,0,-36.7233],"type":"VEC3"},"accessor_b0":{"bufferView":"bufferView_b","byteOffset":0,"byteStride":0,"componentType":5123,"count":110,"type":"SCALAR"},"accessor_b1":{"bufferView":"bufferView_b","byteOffset":220,"byteStride":0,"componentType":5123,"count":68,"type":"SCALAR"},"accessor_b2":{"bufferView":"bufferView_b","byteOffset":356,"byteStride":0,"componentType":5123,"count":28,"type":"SCALAR"},"accessor_b3":{"bufferView":"bufferView_b","byteOffset":412,"byteStride":0,"componentType":5123,"count":47,"type":"SCALAR"},"accessor_b4":{"bufferView":"bufferView_b","byteOffset":506,"byteStride":0,"componentType":5123,"count":60,"type":"SCALAR"},"accessor_b5":{"bufferView":"bufferView_b","byteOffset":626,"byteStride":0,"componentType":5123,"count":30,"type":"SCALAR"},"accessor_b6":{"bufferView":"bufferView_b","byteOffset":686,"byteStride":0,"componentType":5123,"count":34,"type":"SCALAR"},"accessor_b7":{"bufferView":"bufferView_b","byteOffset":754,"byteStride":0,"componentType":5123,"count":52,"type":"SCALAR"},"accessor_b8":{"bufferView":"bufferView_b","byteOffset":858,"byteStride":0,"componentType":5123,"count":138,"type":"SCALAR"}},"animations":{},"asset":{"generator":"collada2gltf@cf6371beb0bdc18ba603378d5e40c966da53d385","premultipliedAlpha":true,"profile":{"api":"WebGL","version":"1.0.2"},"version":"1.0"},"bufferViews":{"bufferView_182":{"buffer":"\\data\\3dcity\\miami\\workspace\\gridID_16\\gridID_16","byteLength":1584,"byteOffset":0,"target":34963},"bufferView_183":{"buffer":"\\data\\3dcity\\miami\\workspace\\gridID_16\\gridID_16","byteLength":13608,"byteOffset":1584,"target":34962},"bufferView_b":{"buffer":"buffer_b","byteLength":1134,"byteOffset":0,"target":34962}},"buffers":{"\\data\\3dcity\\miami\\workspace\\gridID_16\\gridID_16":{"byteLength":15192,"type":"arraybuffer","uri":"data:application/octet-stream;base64,"},"buffer_b":{"type":"arraybuffer","byteLength":1134,"uri":"data:application/octet-stream;base64,"}},"materials":{"CityEngineMaterial_327-effect":{"name":"CityEngineMaterial_327","technique":"technique0","values":{"ambient":[1,1,1,1],"diffuse":[1,1,1,1],"emission":[0,0,0,1],"shininess":50,"specular":[0.5,0.5,0.5,1]}},"CityEngineMaterial_328-effect":{"name":"CityEngineMaterial_328","technique":"technique0","values":{"ambient":[1,1,1,1],"diffuse":[1,1,1,1],"emission":[0,0,0,1],"shininess":50,"specular":[0.5,0.5,0.5,1]}},"CityEngineMaterial_329-effect":{"name":"CityEngineMaterial_329","technique":"technique0","values":{"ambient":[1,1,1,1],"diffuse":[1,1,1,1],"emission":[0,0,0,1],"shininess":50,"specular":[0.5,0.5,0.5,1]}},"CityEngineMaterial_330-effect":{"name":"CityEngineMaterial_330","technique":"technique0","values":{"ambient":[1,1,1,1],"diffuse":[1,1,1,1],"emission":[0,0,0,1],"shininess":50,"specular":[0.5,0.5,0.5,1]}},"CityEngineMaterial_331-effect":{"name":"CityEngineMaterial_331","technique":"technique0","values":{"ambient":[1,1,1,1],"diffuse":[1,1,1,1],"emission":[0,0,0,1],"shininess":50,"specular":[0.5,0.5,0.5,1]}},"CityEngineMaterial_332-effect":{"name":"CityEngineMaterial_332","technique":"technique0","values":{"ambient":[1,1,1,1],"diffuse":[1,1,1,1],"emission":[0,0,0,1],"shininess":50,"specular":[0.5,0.5,0.5,1]}},"CityEngineMaterial_333-effect":{"name":"CityEngineMaterial_333","technique":"technique0","values":{"ambient":[1,1,1,1],"diffuse":[1,1,1,1],"emission":[0,0,0,1],"shininess":50,"specular":[0.5,0.5,0.5,1]}},"CityEngineMaterial_334-effect":{"name":"CityEngineMaterial_334","technique":"technique0","values":{"ambient":[1,1,1,1],"diffuse":[1,1,1,1],"emission":[0,0,0,1],"shininess":50,"specular":[0.5,0.5,0.5,1]}},"CityEngineMaterial_335-effect":{"name":"CityEngineMaterial_335","technique":"technique0","values":{"ambient":[1,1,1,1],"diffuse":[1,1,1,1],"emission":[0,0,0,1],"shininess":50,"specular":[0.5,0.5,0.5,1]}}},"meshes":{"mesh_CityEngineMaterial_326-mesh":{"name":"mesh_CityEngineMaterial.326","primitives":[{"attributes":{"NORMAL":"accessor_20","POSITION":"accessor_18","BATCHID":"accessor_b0"},"indices":"accessor_16","material":"CityEngineMaterial_327-effect","mode":4}]},"mesh_CityEngineMaterial_327-mesh":{"name":"mesh_CityEngineMaterial.327","primitives":[{"attributes":{"NORMAL":"accessor_40","POSITION":"accessor_38","BATCHID":"accessor_b1"},"indices":"accessor_36","material":"CityEngineMaterial_328-effect","mode":4}]},"mesh_CityEngineMaterial_328-mesh":{"name":"mesh_CityEngineMaterial.328","primitives":[{"attributes":{"NORMAL":"accessor_60","POSITION":"accessor_58","BATCHID":"accessor_b2"},"indices":"accessor_56","material":"CityEngineMaterial_329-effect","mode":4}]},"mesh_CityEngineMaterial_329-mesh":{"name":"mesh_CityEngineMaterial.329","primitives":[{"attributes":{"NORMAL":"accessor_80","POSITION":"accessor_78","BATCHID":"accessor_b3"},"indices":"accessor_76","material":"CityEngineMaterial_330-effect","mode":4}]},"mesh_CityEngineMaterial_330-mesh":{"name":"mesh_CityEngineMaterial.330","primitives":[{"attributes":{"NORMAL":"accessor_100","POSITION":"accessor_98","BATCHID":"accessor_b4"},"indices":"accessor_96","material":"CityEngineMaterial_331-effect","mode":4}]},"mesh_CityEngineMaterial_331-mesh":{"name":"mesh_CityEngineMaterial.331","primitives":[{"attributes":{"NORMAL":"accessor_120","POSITION":"accessor_118","BATCHID":"accessor_b5"},"indices":"accessor_116","material":"CityEngineMaterial_332-effect","mode":4}]},"mesh_CityEngineMaterial_332-mesh":{"name":"mesh_CityEngineMaterial.332","primitives":[{"attributes":{"NORMAL":"accessor_140","POSITION":"accessor_138","BATCHID":"accessor_b6"},"indices":"accessor_136","material":"CityEngineMaterial_333-effect","mode":4}]},"mesh_CityEngineMaterial_333-mesh":{"name":"mesh_CityEngineMaterial.333","primitives":[{"attributes":{"NORMAL":"accessor_160","POSITION":"accessor_158","BATCHID":"accessor_b7"},"indices":"accessor_156","material":"CityEngineMaterial_334-effect","mode":4}]},"mesh_CityEngineMaterial_334-mesh":{"name":"mesh_CityEngineMaterial.334","primitives":[{"attributes":{"NORMAL":"accessor_180","POSITION":"accessor_178","BATCHID":"accessor_b8"},"indices":"accessor_176","material":"CityEngineMaterial_335-effect","mode":4}]}},"nodes":{"CityEngineMaterial":{"children":[],"matrix":[1,0,0,0,0,-1.62921e-7,1,0,0,-1,-1.62921e-7,0,0,0,0,1],"meshes":["mesh_CityEngineMaterial_326-mesh"],"name":"CityEngineMaterial"},"CityEngineMaterial_001":{"children":[],"matrix":[1,0,0,0,0,-1.62921e-7,1,0,0,-1,-1.62921e-7,0,0,0,0,1],"meshes":["mesh_CityEngineMaterial_327-mesh"],"name":"CityEngineMaterial_001"},"CityEngineMaterial_002":{"children":[],"matrix":[1,0,0,0,0,-1.62921e-7,1,0,0,-1,-1.62921e-7,0,0,0,0,1],"meshes":["mesh_CityEngineMaterial_328-mesh"],"name":"CityEngineMaterial_002"},"CityEngineMaterial_003":{"children":[],"matrix":[1,0,0,0,0,-1.62921e-7,1,0,0,-1,-1.62921e-7,0,0,0,0,1],"meshes":["mesh_CityEngineMaterial_329-mesh"],"name":"CityEngineMaterial_003"},"CityEngineMaterial_004":{"children":[],"matrix":[1,0,0,0,0,-1.62921e-7,1,0,0,-1,-1.62921e-7,0,0,0,0,1],"meshes":["mesh_CityEngineMaterial_330-mesh"],"name":"CityEngineMaterial_004"},"CityEngineMaterial_005":{"children":[],"matrix":[1,0,0,0,0,-1.62921e-7,1,0,0,-1,-1.62921e-7,0,0,0,0,1],"meshes":["mesh_CityEngineMaterial_331-mesh"],"name":"CityEngineMaterial_005"},"CityEngineMaterial_006":{"children":[],"matrix":[1,0,0,0,0,-1.62921e-7,1,0,0,-1,-1.62921e-7,0,0,0,0,1],"meshes":["mesh_CityEngineMaterial_332-mesh"],"name":"CityEngineMaterial_006"},"CityEngineMaterial_007":{"children":[],"matrix":[1,0,0,0,0,-1.62921e-7,1,0,0,-1,-1.62921e-7,0,0,0,0,1],"meshes":["mesh_CityEngineMaterial_333-mesh"],"name":"CityEngineMaterial_007"},"CityEngineMaterial_008":{"children":[],"matrix":[1,0,0,0,0,-1.62921e-7,1,0,0,-1,-1.62921e-7,0,0,0,0,1],"meshes":["mesh_CityEngineMaterial_334-mesh"],"name":"CityEngineMaterial_008"},"node_9":{"children":["CityEngineMaterial","CityEngineMaterial_001","CityEngineMaterial_002","CityEngineMaterial_003","CityEngineMaterial_004","CityEngineMaterial_005","CityEngineMaterial_006","CityEngineMaterial_007","CityEngineMaterial_008"],"matrix":[1,0,0,0,0,0,-1,0,0,1,0,0,0,0,0,1],"name":"Y_UP_Transform"}},"programs":{"program_0":{"attributes":["a_normal","a_position","a_batchId"],"fragmentShader":"\\data\\3dcity\\miami\\workspace\\gridID_16\\gridID_160FS","vertexShader":"\\data\\3dcity\\miami\\workspace\\gridID_16\\gridID_160VS"}},"scene":"defaultScene","scenes":{"defaultScene":{"nodes":["node_9"]}},"shaders":{"\\data\\3dcity\\miami\\workspace\\gridID_16\\gridID_160FS":{"type":35632,"uri":"data:text/plain;base64,"},"\\data\\3dcity\\miami\\workspace\\gridID_16\\gridID_160VS":{"type":35633,"uri":"data:text/plain;base64,"}},"skins":{},"techniques":{"technique0":{"attributes":{"a_normal":"normal","a_position":"position","a_batchId":"batchId"},"parameters":{"ambient":{"type":35666},"diffuse":{"type":35666},"emission":{"type":35666},"modelViewMatrix":{"semantic":"MODELVIEW","type":35676},"normal":{"semantic":"NORMAL","type":35665},"normalMatrix":{"semantic":"MODELVIEWINVERSETRANSPOSE","type":35675},"position":{"semantic":"POSITION","type":35665},"projectionMatrix":{"semantic":"PROJECTION","type":35676},"shininess":{"type":5126},"specular":{"type":35666},"batchId":{"semantic":"BATCHID","type":5126}},"program":"program_0","states":{"enable":[2929,2884]},"uniforms":{"u_ambient":"ambient","u_diffuse":"diffuse","u_emission":"emission","u_modelViewMatrix":"modelViewMatrix","u_normalMatrix":"normalMatrix","u_projectionMatrix":"projectionMatrix","u_shininess":"shininess","u_specular":"specular"}}}}