{
    "accessors": {
        "accessor_101": {
            "bufferView": "bufferView_107",
            "byteOffset": 330,
            "byteStride": 0,
            "componentType": 5123,
            "count": 72,
            "type": "SCALAR"
        },
        "accessor_103": {
            "bufferView": "bufferView_108",
            "byteOffset": 480,
            "byteStride": 12,
            "componentType": 5126,
            "count": 151,
            "max": [
                3.02429,
                5.30942,
                2.21905
            ],
            "min": [
                -1.95471,
                -2.19058,
                -4.27094
            ],
            "type": "VEC3"
        },
        "accessor_105": {
            "bufferView": "bufferView_108",
            "byteOffset": 2292,
            "byteStride": 12,
            "componentType": 5126,
            "count": 151,
            "max": [
                0.992094,
                1,
                1
            ],
            "min": [
                -0.992217,
                -1,
                -0.993361
            ],
            "type": "VEC3"
        },
        "accessor_28": {
            "bufferView": "bufferView_107",
            "byteOffset": 474,
            "byteStride": 0,
            "componentType": 5123,
            "count": 36,
            "type": "SCALAR"
        },
        "accessor_31": {
            "bufferView": "bufferView_107",
            "byteOffset": 546,
            "byteStride": 0,
            "componentType": 5123,
            "count": 12,
            "type": "SCALAR"
        },
        "accessor_33": {
            "bufferView": "bufferView_108",
            "byteOffset": 4104,
            "byteStride": 12,
            "componentType": 5126,
            "count": 34,
            "max": [
                12.5113,
                3.75,
                43.528
            ],
            "min": [
                -23.9658,
                -3.75,
                -32.039
            ],
            "type": "VEC3"
        },
        "accessor_35": {
            "bufferView": "bufferView_108",
            "byteOffset": 4512,
            "byteStride": 12,
            "componentType": 5126,
            "count": 34,
            "max": [
                0.967684,
                1,
                0.967681
            ],
            "min": [
                -0.967661,
                0,
                -0.967668
            ],
            "type": "VEC3"
        },
        "accessor_63": {
            "bufferView": "bufferView_107",
            "byteOffset": 0,
            "byteStride": 0,
            "componentType": 5123,
            "count": 24,
            "type": "SCALAR"
        },
        "accessor_66": {
            "bufferView": "bufferView_107",
            "byteOffset": 48,
            "byteStride": 0,
            "componentType": 5123,
            "count": 6,
            "type": "SCALAR"
        },
        "accessor_68": {
            "bufferView": "bufferView_108",
            "byteOffset": 0,
            "byteStride": 12,
            "componentType": 5126,
            "count": 20,
            "max": [
                5.47375,
                2.5,
                13.515
            ],
            "min": [
                -5.47327,
                -2.5,
                -13.515
            ],
            "type": "VEC3"
        },
        "accessor_70": {
            "bufferView": "bufferView_108",
            "byteOffset": 240,
            "byteStride": 12,
            "componentType": 5126,
            "count": 20,
            "max": [
                0.991871,
                1,
                0.991801
            ],
            "min": [
                -0.991876,
                0,
                -0.9918
            ],
            "type": "VEC3"
        },
        "accessor_98": {
            "bufferView": "bufferView_107",
            "byteOffset": 60,
            "byteStride": 0,
            "componentType": 5123,
            "count": 135,
            "type": "SCALAR"
        }
    },
    "animations": {},
    "asset": {
        "generator": "collada2gltf@cf6371beb0bdc18ba603378d5e40c966da53d385",
        "premultipliedAlpha": true,
        "profile": {
            "api": "WebGL",
            "version": "1.0.2"
        },
        "version": "1.0"
    },
    "bufferViews": {
        "bufferView_107": {
            "buffer": "\\data\\ECNU\\workspace\\gridID_89\\gridID_89",
            "byteLength": 572,
            "byteOffset": 0,
            "target": 34963
        },
        "bufferView_108": {
            "buffer": "\\data\\ECNU\\workspace\\gridID_89\\gridID_89",
            "byteLength": 4920,
            "byteOffset": 572,
            "target": 34962
        }
    },
    "buffers": {
        "\\data\\ECNU\\workspace\\gridID_89\\gridID_89": {
            "byteLength": 5492,
            "type": "arraybuffer",
            "uri": "data:application/octet-stream;base64,"
        }
    },
    "materials": {
        "BUILDING_DEFAULT_0-effect": {
            "name": "BUILDING_DEFAULT_0",
            "technique": "technique0",
            "values": {
                "ambient": [
                    0,
                    0,
                    0,
                    1
                ],
                "diffuse": [
                    0.723055,
                    0.708376,
                    0.672443,
                    1
                ],
                "emission": [
                    0,
                    0,
                    0,
                    1
                ],
                "shininess": 50,
                "specular": [
                    0.5,
                    0.5,
                    0.5,
                    1
                ]
            }
        },
        "CONCRETE_0-effect": {
            "name": "CONCRETE_0",
            "technique": "technique0",
            "values": {
                "ambient": [
                    0,
                    0,
                    0,
                    1
                ],
                "diffuse": [
                    0.309469,
                    0.327778,
                    0.309469,
                    1
                ],
                "emission": [
                    0,
                    0,
                    0,
                    1
                ],
                "shininess": 50,
                "specular": [
                    0.5,
                    0.5,
                    0.5,
                    1
                ]
            }
        },
        "ROOF_DEFAULT_0-effect": {
            "name": "ROOF_DEFAULT_0",
            "technique": "technique0",
            "values": {
                "ambient": [
                    0,
                    0,
                    0,
                    1
                ],
                "diffuse": [
                    0.603827,
                    0.381326,
                    0.291771,
                    1
                ],
                "emission": [
                    0,
                    0,
                    0,
                    1
                ],
                "shininess": 50,
                "specular": [
                    0.5,
                    0.5,
                    0.5,
                    1
                ]
            }
        }
    },
    "meshes": {
        "Building3315-mesh": {
            "name": "Building3315",
            "primitives": [
                {
                    "attributes": {
                        "NORMAL": "accessor_70",
                        "POSITION": "accessor_68"
                    },
                    "indices": "accessor_63",
                    "material": "BUILDING_DEFAULT_0-effect",
                    "mode": 4
                },
                {
                    "attributes": {
                        "NORMAL": "accessor_70",
                        "POSITION": "accessor_68"
                    },
                    "indices": "accessor_66",
                    "material": "CONCRETE_0-effect",
                    "mode": 4
                }
            ]
        },
        "Building3327-mesh": {
            "name": "Building3327",
            "primitives": [
                {
                    "attributes": {
                        "NORMAL": "accessor_105",
                        "POSITION": "accessor_103"
                    },
                    "indices": "accessor_98",
                    "material": "BUILDING_DEFAULT_0-effect",
                    "mode": 4
                },
                {
                    "attributes": {
                        "NORMAL": "accessor_105",
                        "POSITION": "accessor_103"
                    },
                    "indices": "accessor_101",
                    "material": "ROOF_DEFAULT_0-effect",
                    "mode": 4
                }
            ]
        },
        "Building3576-mesh": {
            "name": "Building3576",
            "primitives": [
                {
                    "attributes": {
                        "NORMAL": "accessor_35",
                        "POSITION": "accessor_33"
                    },
                    "indices": "accessor_28",
                    "material": "BUILDING_DEFAULT_0-effect",
                    "mode": 4
                },
                {
                    "attributes": {
                        "NORMAL": "accessor_35",
                        "POSITION": "accessor_33"
                    },
                    "indices": "accessor_31",
                    "material": "ROOF_DEFAULT_0-effect",
                    "mode": 4
                }
            ]
        }
    },
    "nodes": {
        "model_gridID_89_w116941140": {
            "children": [],
            "matrix": [
                1,
                0,
                0,
                0,
                0,
                -1.62921e-007,
                1,
                0,
                0,
                -1,
                -1.62921e-007,
                0,
                -514.525,
                415.319,
                3.75007,
                1
            ],
            "meshes": [
                "Building3576-mesh"
            ],
            "name": "model_gridID_89_w116941140"
        },
        "model_gridID_89_w116941140_001": {
            "children": [],
            "matrix": [
                1,
                0,
                0,
                0,
                0,
                -1.62921e-007,
                1,
                0,
                0,
                -1,
                -1.62921e-007,
                0,
                -540.766,
                383.703,
                2.50006,
                1
            ],
            "meshes": [
                "Building3315-mesh"
            ],
            "name": "model_gridID_89_w116941140_001"
        },
        "model_gridID_89_w116941140_002": {
            "children": [],
            "matrix": [
                1,
                0,
                0,
                0,
                0,
                -1.62921e-007,
                1,
                0,
                0,
                -1,
                -1.62921e-007,
                0,
                -532.5,
                365.238,
                2.19064,
                1
            ],
            "meshes": [
                "Building3327-mesh"
            ],
            "name": "model_gridID_89_w116941140_002"
        },
        "node_3": {
            "children": [
                "model_gridID_89_w116941140",
                "model_gridID_89_w116941140_001",
                "model_gridID_89_w116941140_002"
            ],
            "matrix": [
                1,
                0,
                0,
                0,
                0,
                0,
                -1,
                0,
                0,
                1,
                0,
                0,
                0,
                0,
                0,
                1
            ],
            "name": "Y_UP_Transform"
        }
    },
    "programs": {
        "program_0": {
            "attributes": [
                "a_normal",
                "a_position"
            ],
            "fragmentShader": "\\data\\ECNU\\workspace\\gridID_89\\gridID_890FS",
            "vertexShader": "\\data\\ECNU\\workspace\\gridID_89\\gridID_890VS"
        }
    },
    "scene": "defaultScene",
    "scenes": {
        "defaultScene": {
            "nodes": [
                "node_3"
            ]
        }
    },
    "shaders": {
        "\\data\\ECNU\\workspace\\gridID_89\\gridID_890FS": {
            "type": 35632,
            "uri": "data:text/plain;base64,"
        },
        "\\data\\ECNU\\workspace\\gridID_89\\gridID_890VS": {
            "type": 35633,
            "uri": "data:text/plain;base64,"
        }
    },
    "skins": {},
    "techniques": {
        "technique0": {
            "attributes": {
                "a_normal": "normal",
                "a_position": "position"
            },
            "parameters": {
                "ambient": {
                    "type": 35666
                },
                "diffuse": {
                    "type": 35666
                },
                "emission": {
                    "type": 35666
                },
                "modelViewMatrix": {
                    "semantic": "MODELVIEW",
                    "type": 35676
                },
                "normal": {
                    "semantic": "NORMAL",
                    "type": 35665
                },
                "normalMatrix": {
                    "semantic": "MODELVIEWINVERSETRANSPOSE",
                    "type": 35675
                },
                "position": {
                    "semantic": "POSITION",
                    "type": 35665
                },
                "projectionMatrix": {
                    "semantic": "PROJECTION",
                    "type": 35676
                },
                "shininess": {
                    "type": 5126
                },
                "specular": {
                    "type": 35666
                }
            },
            "program": "program_0",
            "states": {
                "enable": [
                    2929,
                    2884
                ]
            },
            "uniforms": {
                "u_ambient": "ambient",
                "u_diffuse": "diffuse",
                "u_emission": "emission",
                "u_modelViewMatrix": "modelViewMatrix",
                "u_normalMatrix": "normalMatrix",
                "u_projectionMatrix": "projectionMatrix",
                "u_shininess": "shininess",
                "u_specular": "specular"
            }
        }
    }
}