{
    "accessors": {
        "accessor_101": {
            "bufferView": "bufferView_142",
            "byteOffset": 108,
            "byteStride": 0,
            "componentType": 5123,
            "count": 6,
            "type": "SCALAR"
        },
        "accessor_103": {
            "bufferView": "bufferView_143",
            "byteOffset": 480,
            "byteStride": 12,
            "componentType": 5126,
            "count": 20,
            "max": [
                11.2232,
                5,
                7.692
            ],
            "min": [
                -11.2228,
                -5,
                -7.692
            ],
            "type": "VEC3"
        },
        "accessor_105": {
            "bufferView": "bufferView_143",
            "byteOffset": 720,
            "byteStride": 12,
            "componentType": 5126,
            "count": 20,
            "max": [
                0.983723,
                1,
                0.983754
            ],
            "min": [
                -0.983737,
                0,
                -0.983753
            ],
            "type": "VEC3"
        },
        "accessor_133": {
            "bufferView": "bufferView_142",
            "byteOffset": 120,
            "byteStride": 0,
            "componentType": 5123,
            "count": 24,
            "type": "SCALAR"
        },
        "accessor_136": {
            "bufferView": "bufferView_142",
            "byteOffset": 168,
            "byteStride": 0,
            "componentType": 5123,
            "count": 6,
            "type": "SCALAR"
        },
        "accessor_138": {
            "bufferView": "bufferView_143",
            "byteOffset": 960,
            "byteStride": 12,
            "componentType": 5126,
            "count": 28,
            "max": [
                11.2178,
                5,
                7.692
            ],
            "min": [
                -11.2182,
                -5,
                -7.692
            ],
            "type": "VEC3"
        },
        "accessor_140": {
            "bufferView": "bufferView_143",
            "byteOffset": 1296,
            "byteStride": 12,
            "componentType": 5126,
            "count": 28,
            "max": [
                0.983886,
                1,
                0.983753
            ],
            "min": [
                -0.983872,
                0,
                -0.983754
            ],
            "type": "VEC3"
        },
        "accessor_28": {
            "bufferView": "bufferView_142",
            "byteOffset": 180,
            "byteStride": 0,
            "componentType": 5123,
            "count": 96,
            "type": "SCALAR"
        },
        "accessor_31": {
            "bufferView": "bufferView_142",
            "byteOffset": 372,
            "byteStride": 0,
            "componentType": 5123,
            "count": 42,
            "type": "SCALAR"
        },
        "accessor_33": {
            "bufferView": "bufferView_143",
            "byteOffset": 1632,
            "byteStride": 12,
            "componentType": 5126,
            "count": 80,
            "max": [
                10.7529,
                3.75,
                7.57873
            ],
            "min": [
                -5.44806,
                -3.75,
                -11.2133
            ],
            "type": "VEC3"
        },
        "accessor_35": {
            "bufferView": "bufferView_143",
            "byteOffset": 2592,
            "byteStride": 12,
            "componentType": 5126,
            "count": 80,
            "max": [
                1,
                1,
                0.999995
            ],
            "min": [
                -1,
                0,
                -0.999994
            ],
            "type": "VEC3"
        },
        "accessor_63": {
            "bufferView": "bufferView_142",
            "byteOffset": 0,
            "byteStride": 0,
            "componentType": 5123,
            "count": 24,
            "type": "SCALAR"
        },
        "accessor_66": {
            "bufferView": "bufferView_142",
            "byteOffset": 48,
            "byteStride": 0,
            "componentType": 5123,
            "count": 6,
            "type": "SCALAR"
        },
        "accessor_68": {
            "bufferView": "bufferView_143",
            "byteOffset": 0,
            "byteStride": 12,
            "componentType": 5126,
            "count": 20,
            "max": [
                11.2112,
                5,
                7.66475
            ],
            "min": [
                -11.2068,
                -5,
                -7.66425
            ],
            "type": "VEC3"
        },
        "accessor_70": {
            "bufferView": "bufferView_143",
            "byteOffset": 240,
            "byteStride": 12,
            "componentType": 5126,
            "count": 20,
            "max": [
                0.984328,
                1,
                0.984343
            ],
            "min": [
                -0.984461,
                0,
                -0.984338
            ],
            "type": "VEC3"
        },
        "accessor_98": {
            "bufferView": "bufferView_142",
            "byteOffset": 60,
            "byteStride": 0,
            "componentType": 5123,
            "count": 24,
            "type": "SCALAR"
        }
    },
    "animations": {},
    "asset": {
        "generator": "collada2gltf@cf6371beb0bdc18ba603378d5e40c966da53d385",
        "premultipliedAlpha": true,
        "profile": {
            "api": "WebGL",
            "version": "1.0.2"
        },
        "version": "1.0"
    },
    "bufferViews": {
        "bufferView_142": {
            "buffer": "\\data\\ECNU\\workspace\\gridID_77\\gridID_77",
            "byteLength": 456,
            "byteOffset": 0,
            "target": 34963
        },
        "bufferView_143": {
            "buffer": "\\data\\ECNU\\workspace\\gridID_77\\gridID_77",
            "byteLength": 3552,
            "byteOffset": 456,
            "target": 34962
        }
    },
    "buffers": {
        "\\data\\ECNU\\workspace\\gridID_77\\gridID_77": {
            "byteLength": 4008,
            "type": "arraybuffer",
            "uri": "data:application/octet-stream;base64,"
        }
    },
    "materials": {
        "BUILDING_DEFAULT_0-effect": {
            "name": "BUILDING_DEFAULT_0",
            "technique": "technique0",
            "values": {
                "ambient": [
                    0,
                    0,
                    0,
                    1
                ],
                "diffuse": [
                    0.723055,
                    0.708376,
                    0.672443,
                    1
                ],
                "emission": [
                    0,
                    0,
                    0,
                    1
                ],
                "shininess": 50,
                "specular": [
                    0.5,
                    0.5,
                    0.5,
                    1
                ]
            }
        },
        "CONCRETE_0-effect": {
            "name": "CONCRETE_0",
            "technique": "technique0",
            "values": {
                "ambient": [
                    0,
                    0,
                    0,
                    1
                ],
                "diffuse": [
                    0.309469,
                    0.327778,
                    0.309469,
                    1
                ],
                "emission": [
                    0,
                    0,
                    0,
                    1
                ],
                "shininess": 50,
                "specular": [
                    0.5,
                    0.5,
                    0.5,
                    1
                ]
            }
        }
    },
    "meshes": {
        "Building3758-mesh": {
            "name": "Building3758",
            "primitives": [
                {
                    "attributes": {
                        "NORMAL": "accessor_70",
                        "POSITION": "accessor_68"
                    },
                    "indices": "accessor_63",
                    "material": "BUILDING_DEFAULT_0-effect",
                    "mode": 4
                },
                {
                    "attributes": {
                        "NORMAL": "accessor_70",
                        "POSITION": "accessor_68"
                    },
                    "indices": "accessor_66",
                    "material": "CONCRETE_0-effect",
                    "mode": 4
                }
            ]
        },
        "Building3762-mesh": {
            "name": "Building3762",
            "primitives": [
                {
                    "attributes": {
                        "NORMAL": "accessor_105",
                        "POSITION": "accessor_103"
                    },
                    "indices": "accessor_98",
                    "material": "BUILDING_DEFAULT_0-effect",
                    "mode": 4
                },
                {
                    "attributes": {
                        "NORMAL": "accessor_105",
                        "POSITION": "accessor_103"
                    },
                    "indices": "accessor_101",
                    "material": "CONCRETE_0-effect",
                    "mode": 4
                }
            ]
        },
        "Building3776-mesh": {
            "name": "Building3776",
            "primitives": [
                {
                    "attributes": {
                        "NORMAL": "accessor_140",
                        "POSITION": "accessor_138"
                    },
                    "indices": "accessor_133",
                    "material": "BUILDING_DEFAULT_0-effect",
                    "mode": 4
                },
                {
                    "attributes": {
                        "NORMAL": "accessor_140",
                        "POSITION": "accessor_138"
                    },
                    "indices": "accessor_136",
                    "material": "CONCRETE_0-effect",
                    "mode": 4
                }
            ]
        },
        "Building3793-mesh": {
            "name": "Building3793",
            "primitives": [
                {
                    "attributes": {
                        "NORMAL": "accessor_35",
                        "POSITION": "accessor_33"
                    },
                    "indices": "accessor_28",
                    "material": "BUILDING_DEFAULT_0-effect",
                    "mode": 4
                },
                {
                    "attributes": {
                        "NORMAL": "accessor_35",
                        "POSITION": "accessor_33"
                    },
                    "indices": "accessor_31",
                    "material": "CONCRETE_0-effect",
                    "mode": 4
                }
            ]
        }
    },
    "nodes": {
        "model_gridID_77_w383801375": {
            "children": [],
            "matrix": [
                1,
                0,
                0,
                0,
                0,
                -1.62921e-007,
                1,
                0,
                0,
                -1,
                -1.62921e-007,
                0,
                357.509,
                195.109,
                3.75003,
                1
            ],
            "meshes": [
                "Building3793-mesh"
            ],
            "name": "model_gridID_77_w383801375"
        },
        "model_gridID_77_w383801377_001": {
            "children": [],
            "matrix": [
                1,
                0,
                0,
                0,
                0,
                -1.62921e-007,
                1,
                0,
                0,
                -1,
                -1.62921e-007,
                0,
                374.081,
                136.963,
                5.00002,
                1
            ],
            "meshes": [
                "Building3758-mesh"
            ],
            "name": "model_gridID_77_w383801377_001"
        },
        "model_gridID_77_w383801381_002": {
            "children": [],
            "matrix": [
                1,
                0,
                0,
                0,
                0,
                -1.62921e-007,
                1,
                0,
                0,
                -1,
                -1.62921e-007,
                0,
                370.014,
                164.843,
                5.00003,
                1
            ],
            "meshes": [
                "Building3762-mesh"
            ],
            "name": "model_gridID_77_w383801381_002"
        },
        "model_gridID_77_w383801394_003": {
            "children": [],
            "matrix": [
                1,
                0,
                0,
                0,
                0,
                -1.62921e-007,
                1,
                0,
                0,
                -1,
                -1.62921e-007,
                0,
                376.891,
                107.958,
                5.00002,
                1
            ],
            "meshes": [
                "Building3776-mesh"
            ],
            "name": "model_gridID_77_w383801394_003"
        },
        "node_4": {
            "children": [
                "model_gridID_77_w383801375",
                "model_gridID_77_w383801377_001",
                "model_gridID_77_w383801381_002",
                "model_gridID_77_w383801394_003"
            ],
            "matrix": [
                1,
                0,
                0,
                0,
                0,
                0,
                -1,
                0,
                0,
                1,
                0,
                0,
                0,
                0,
                0,
                1
            ],
            "name": "Y_UP_Transform"
        }
    },
    "programs": {
        "program_0": {
            "attributes": [
                "a_normal",
                "a_position"
            ],
            "fragmentShader": "\\data\\ECNU\\workspace\\gridID_77\\gridID_770FS",
            "vertexShader": "\\data\\ECNU\\workspace\\gridID_77\\gridID_770VS"
        }
    },
    "scene": "defaultScene",
    "scenes": {
        "defaultScene": {
            "nodes": [
                "node_4"
            ]
        }
    },
    "shaders": {
        "\\data\\ECNU\\workspace\\gridID_77\\gridID_770FS": {
            "type": 35632,
            "uri": "data:text/plain;base64,"
        },
        "\\data\\ECNU\\workspace\\gridID_77\\gridID_770VS": {
            "type": 35633,
            "uri": "data:text/plain;base64,"
        }
    },
    "skins": {},
    "techniques": {
        "technique0": {
            "attributes": {
                "a_normal": "normal",
                "a_position": "position"
            },
            "parameters": {
                "ambient": {
                    "type": 35666
                },
                "diffuse": {
                    "type": 35666
                },
                "emission": {
                    "type": 35666
                },
                "modelViewMatrix": {
                    "semantic": "MODELVIEW",
                    "type": 35676
                },
                "normal": {
                    "semantic": "NORMAL",
                    "type": 35665
                },
                "normalMatrix": {
                    "semantic": "MODELVIEWINVERSETRANSPOSE",
                    "type": 35675
                },
                "position": {
                    "semantic": "POSITION",
                    "type": 35665
                },
                "projectionMatrix": {
                    "semantic": "PROJECTION",
                    "type": 35676
                },
                "shininess": {
                    "type": 5126
                },
                "specular": {
                    "type": 35666
                }
            },
            "program": "program_0",
            "states": {
                "enable": [
                    2929,
                    2884
                ]
            },
            "uniforms": {
                "u_ambient": "ambient",
                "u_diffuse": "diffuse",
                "u_emission": "emission",
                "u_modelViewMatrix": "modelViewMatrix",
                "u_normalMatrix": "normalMatrix",
                "u_projectionMatrix": "projectionMatrix",
                "u_shininess": "shininess",
                "u_specular": "specular"
            }
        }
    }
}