{"accessors":{"accessor_28":{"bufferView":"bufferView_87","byteOffset":1998,"byteStride":0,"componentType":5123,"count":258,"type":"SCALAR"},"accessor_31":{"bufferView":"bufferView_87","byteOffset":2514,"byteStride":0,"componentType":5123,"count":21,"type":"SCALAR"},"accessor_33":{"bufferView":"bufferView_88","byteOffset":19680,"byteStride":12,"componentType":5126,"count":246,"max":[7.62137,0.745763,14.0069],"min":[-6.46664,-2.75424,-13.3001],"type":"VEC3"},"accessor_35":{"bufferView":"bufferView_88","byteOffset":22632,"byteStride":12,"componentType":5126,"count":246,"max":[0.970143,1,0.96357],"min":[-0.973334,-1,-0.994074],"type":"VEC3"},"accessor_75":{"bufferView":"bufferView_87","byteOffset":0,"byteStride":0,"componentType":5123,"count":294,"type":"SCALAR"},"accessor_78":{"bufferView":"bufferView_87","byteOffset":588,"byteStride":0,"componentType":5123,"count":420,"type":"SCALAR"},"accessor_81":{"bufferView":"bufferView_87","byteOffset":1428,"byteStride":0,"componentType":5123,"count":285,"type":"SCALAR"},"accessor_83":{"bufferView":"bufferView_88","byteOffset":0,"byteStride":12,"componentType":5126,"count":820,"max":[13.7854,5.25594,13.786],"min":[-14.1236,-5.34406,-13.932],"type":"VEC3"},"accessor_85":{"bufferView":"bufferView_88","byteOffset":9840,"byteStride":12,"componentType":5126,"count":820,"max":[0.99359,1,0.999904],"min":[-0.993787,-1,-0.999904],"type":"VEC3"},"accessor_b0":{"bufferView":"bufferView_b","byteOffset":0,"byteStride":0,"componentType":5123,"count":820,"type":"SCALAR"},"accessor_b1":{"bufferView":"bufferView_b","byteOffset":1640,"byteStride":0,"componentType":5123,"count":246,"type":"SCALAR"}},"animations":{},"asset":{"generator":"collada2gltf@cf6371beb0bdc18ba603378d5e40c966da53d385","premultipliedAlpha":true,"profile":{"api":"WebGL","version":"1.0.2"},"version":"1.0"},"bufferViews":{"bufferView_87":{"buffer":"\\data\\ECNU\\workspace\\gridID_62\\gridID_62","byteLength":2556,"byteOffset":0,"target":34963},"bufferView_88":{"buffer":"\\data\\ECNU\\workspace\\gridID_62\\gridID_62","byteLength":25584,"byteOffset":2556,"target":34962},"bufferView_b":{"buffer":"buffer_b","byteLength":2132,"byteOffset":0,"target":34962}},"buffers":{"\\data\\ECNU\\workspace\\gridID_62\\gridID_62":{"byteLength":28140,"type":"arraybuffer","uri":"data:application/octet-stream;base64,"},"buffer_b":{"type":"arraybuffer","byteLength":2132,"uri":"data:application/octet-stream;base64,"}},"materials":{"BUILDING_DEFAULT_0-effect":{"name":"BUILDING_DEFAULT_0","technique":"technique0","values":{"ambient":[0,0,0,1],"diffuse":[0.723055,0.708376,0.672443,1],"emission":[0,0,0,1],"shininess":50,"specular":[0.5,0.5,0.5,1]}},"CONCRETE_0-effect":{"name":"CONCRETE_0","technique":"technique0","values":{"ambient":[0,0,0,1],"diffuse":[0.309469,0.327778,0.309469,1],"emission":[0,0,0,1],"shininess":50,"specular":[0.5,0.5,0.5,1]}},"GLASS_0-effect":{"name":"GLASS_0","technique":"technique0","values":{"ambient":[0,0,0,1],"diffuse":[0.491021,0.665387,0.658375,1],"emission":[0,0,0,1],"shininess":50,"specular":[0.5,0.5,0.5,1]}},"ROOF_DEFAULT_0-effect":{"name":"ROOF_DEFAULT_0","technique":"technique0","values":{"ambient":[0,0,0,1],"diffuse":[0.603827,0.381326,0.291771,1],"emission":[0,0,0,1],"shininess":50,"specular":[0.5,0.5,0.5,1]}}},"meshes":{"Building3998-mesh":{"name":"Building3998","primitives":[{"attributes":{"NORMAL":"accessor_85","POSITION":"accessor_83","BATCHID":"accessor_b0"},"indices":"accessor_75","material":"GLASS_0-effect","mode":4},{"attributes":{"NORMAL":"accessor_85","POSITION":"accessor_83","BATCHID":"accessor_b0"},"indices":"accessor_78","material":"BUILDING_DEFAULT_0-effect","mode":4},{"attributes":{"NORMAL":"accessor_85","POSITION":"accessor_83","BATCHID":"accessor_b0"},"indices":"accessor_81","material":"ROOF_DEFAULT_0-effect","mode":4}]},"Building3999-mesh":{"name":"Building3999","primitives":[{"attributes":{"NORMAL":"accessor_35","POSITION":"accessor_33","BATCHID":"accessor_b1"},"indices":"accessor_28","material":"BUILDING_DEFAULT_0-effect","mode":4},{"attributes":{"NORMAL":"accessor_35","POSITION":"accessor_33","BATCHID":"accessor_b1"},"indices":"accessor_31","material":"CONCRETE_0-effect","mode":4}]}},"nodes":{"model_gridID_62_w113655506":{"children":[],"matrix":[1,0,0,0,0,-1.62921e-7,1,0,0,-1,-1.62921e-7,0,3.52563,46.5459,2.75425,1],"meshes":["Building3999-mesh"],"name":"model_gridID_62_w113655506"},"model_gridID_62_w113655509":{"children":[],"matrix":[1,0,0,0,0,-1.62921e-7,1,0,0,-1,-1.62921e-7,0,-4.11441,70.849,5.34407,1],"meshes":["Building3998-mesh"],"name":"model_gridID_62_w113655509"},"node_2":{"children":["model_gridID_62_w113655506","model_gridID_62_w113655509"],"matrix":[1,0,0,0,0,0,-1,0,0,1,0,0,0,0,0,1],"name":"Y_UP_Transform"}},"programs":{"program_0":{"attributes":["a_normal","a_position","a_batchId"],"fragmentShader":"\\data\\ECNU\\workspace\\gridID_62\\gridID_620FS","vertexShader":"\\data\\ECNU\\workspace\\gridID_62\\gridID_620VS"}},"scene":"defaultScene","scenes":{"defaultScene":{"nodes":["node_2"]}},"shaders":{"\\data\\ECNU\\workspace\\gridID_62\\gridID_620FS":{"type":35632,"uri":"data:text/plain;base64,"},"\\data\\ECNU\\workspace\\gridID_62\\gridID_620VS":{"type":35633,"uri":"data:text/plain;base64,"}},"skins":{},"techniques":{"technique0":{"attributes":{"a_normal":"normal","a_position":"position","a_batchId":"batchId"},"parameters":{"ambient":{"type":35666},"diffuse":{"type":35666},"emission":{"type":35666},"modelViewMatrix":{"semantic":"MODELVIEW","type":35676},"normal":{"semantic":"NORMAL","type":35665},"normalMatrix":{"semantic":"MODELVIEWINVERSETRANSPOSE","type":35675},"position":{"semantic":"POSITION","type":35665},"projectionMatrix":{"semantic":"PROJECTION","type":35676},"shininess":{"type":5126},"specular":{"type":35666},"batchId":{"semantic":"BATCHID","type":5126}},"program":"program_0","states":{"enable":[2929,2884]},"uniforms":{"u_ambient":"ambient","u_diffuse":"diffuse","u_emission":"emission","u_modelViewMatrix":"modelViewMatrix","u_normalMatrix":"normalMatrix","u_projectionMatrix":"projectionMatrix","u_shininess":"shininess","u_specular":"specular"}}}}