{"accessors":{"accessor_101":{"bufferView":"bufferView_177","byteOffset":204,"byteStride":0,"componentType":5123,"count":6,"type":"SCALAR"},"accessor_103":{"bufferView":"bufferView_178","byteOffset":1248,"byteStride":12,"componentType":5126,"count":20,"max":[18.9425,20,6.423],"min":[-18.9425,-20,-6.42297],"type":"VEC3"},"accessor_105":{"bufferView":"bufferView_178","byteOffset":1488,"byteStride":12,"componentType":5126,"count":20,"max":[1,1,1],"min":[-1,0,-1],"type":"VEC3"},"accessor_133":{"bufferView":"bufferView_177","byteOffset":0,"byteStride":0,"componentType":5123,"count":36,"type":"SCALAR"},"accessor_136":{"bufferView":"bufferView_177","byteOffset":72,"byteStride":0,"componentType":5123,"count":12,"type":"SCALAR"},"accessor_138":{"bufferView":"bufferView_178","byteOffset":0,"byteStride":12,"componentType":5126,"count":32,"max":[18.4274,3.75,22.4446],"min":[-28.2826,-3.75,-11.4173],"type":"VEC3"},"accessor_140":{"bufferView":"bufferView_178","byteOffset":384,"byteStride":12,"componentType":5126,"count":32,"max":[0.852505,1,0.852118],"min":[-0.852224,0,-0.852087],"type":"VEC3"},"accessor_168":{"bufferView":"bufferView_177","byteOffset":276,"byteStride":0,"componentType":5123,"count":30,"type":"SCALAR"},"accessor_171":{"bufferView":"bufferView_177","byteOffset":336,"byteStride":0,"componentType":5123,"count":9,"type":"SCALAR"},"accessor_173":{"bufferView":"bufferView_178","byteOffset":2208,"byteStride":12,"componentType":5126,"count":35,"max":[11.8152,3.75,7.83643],"min":[-9.62177,-3.75,-11.2646],"type":"VEC3"},"accessor_175":{"bufferView":"bufferView_178","byteOffset":2628,"byteStride":12,"componentType":5126,"count":35,"max":[0.869637,1,0.869799],"min":[-0.871076,0,-0.869689],"type":"VEC3"},"accessor_28":{"bufferView":"bufferView_177","byteOffset":96,"byteStride":0,"componentType":5123,"count":24,"type":"SCALAR"},"accessor_31":{"bufferView":"bufferView_177","byteOffset":144,"byteStride":0,"componentType":5123,"count":6,"type":"SCALAR"},"accessor_33":{"bufferView":"bufferView_178","byteOffset":768,"byteStride":12,"componentType":5126,"count":20,"max":[18.9425,20,6.42853],"min":[-18.9425,-20,-6.42847],"type":"VEC3"},"accessor_35":{"bufferView":"bufferView_178","byteOffset":1008,"byteStride":12,"componentType":5126,"count":20,"max":[1,1,1],"min":[-1,0,-1],"type":"VEC3"},"accessor_63":{"bufferView":"bufferView_177","byteOffset":216,"byteStride":0,"componentType":5123,"count":24,"type":"SCALAR"},"accessor_66":{"bufferView":"bufferView_177","byteOffset":264,"byteStride":0,"componentType":5123,"count":6,"type":"SCALAR"},"accessor_68":{"bufferView":"bufferView_178","byteOffset":1728,"byteStride":12,"componentType":5126,"count":20,"max":[17.891,20,6.42297],"min":[-17.891,-20,-6.42304],"type":"VEC3"},"accessor_70":{"bufferView":"bufferView_178","byteOffset":1968,"byteStride":12,"componentType":5126,"count":20,"max":[1,1,1],"min":[-1,0,-1],"type":"VEC3"},"accessor_98":{"bufferView":"bufferView_177","byteOffset":156,"byteStride":0,"componentType":5123,"count":24,"type":"SCALAR"},"accessor_b0":{"bufferView":"bufferView_b","byteOffset":0,"byteStride":0,"componentType":5123,"count":32,"type":"SCALAR"},"accessor_b1":{"bufferView":"bufferView_b","byteOffset":64,"byteStride":0,"componentType":5123,"count":20,"type":"SCALAR"},"accessor_b2":{"bufferView":"bufferView_b","byteOffset":104,"byteStride":0,"componentType":5123,"count":20,"type":"SCALAR"},"accessor_b3":{"bufferView":"bufferView_b","byteOffset":144,"byteStride":0,"componentType":5123,"count":20,"type":"SCALAR"},"accessor_b4":{"bufferView":"bufferView_b","byteOffset":184,"byteStride":0,"componentType":5123,"count":35,"type":"SCALAR"}},"animations":{},"asset":{"generator":"collada2gltf@cf6371beb0bdc18ba603378d5e40c966da53d385","premultipliedAlpha":true,"profile":{"api":"WebGL","version":"1.0.2"},"version":"1.0"},"bufferViews":{"bufferView_177":{"buffer":"\\data\\ECNU\\workspace\\gridID_6\\gridID_6","byteLength":356,"byteOffset":0,"target":34963},"bufferView_178":{"buffer":"\\data\\ECNU\\workspace\\gridID_6\\gridID_6","byteLength":3048,"byteOffset":356,"target":34962},"bufferView_b":{"buffer":"buffer_b","byteLength":254,"byteOffset":0,"target":34962}},"buffers":{"\\data\\ECNU\\workspace\\gridID_6\\gridID_6":{"byteLength":3404,"type":"arraybuffer","uri":"data:application/octet-stream;base64,"},"buffer_b":{"type":"arraybuffer","byteLength":254,"uri":"data:application/octet-stream;base64,"}},"materials":{"BUILDING_DEFAULT_0-effect":{"name":"BUILDING_DEFAULT_0","technique":"technique0","values":{"ambient":[0,0,0,1],"diffuse":[0.723055,0.708376,0.672443,1],"emission":[0,0,0,1],"shininess":50,"specular":[0.5,0.5,0.5,1]}},"ROOF_DEFAULT_0-effect":{"name":"ROOF_DEFAULT_0","technique":"technique0","values":{"ambient":[0,0,0,1],"diffuse":[0.603827,0.381326,0.291771,1],"emission":[0,0,0,1],"shininess":50,"specular":[0.5,0.5,0.5,1]}}},"meshes":{"Building3312-mesh":{"name":"Building3312","primitives":[{"attributes":{"NORMAL":"accessor_140","POSITION":"accessor_138","BATCHID":"accessor_b0"},"indices":"accessor_133","material":"BUILDING_DEFAULT_0-effect","mode":4},{"attributes":{"NORMAL":"accessor_140","POSITION":"accessor_138","BATCHID":"accessor_b0"},"indices":"accessor_136","material":"ROOF_DEFAULT_0-effect","mode":4}]},"Building3318-mesh":{"name":"Building3318","primitives":[{"attributes":{"NORMAL":"accessor_35","POSITION":"accessor_33","BATCHID":"accessor_b1"},"indices":"accessor_28","material":"BUILDING_DEFAULT_0-effect","mode":4},{"attributes":{"NORMAL":"accessor_35","POSITION":"accessor_33","BATCHID":"accessor_b1"},"indices":"accessor_31","material":"ROOF_DEFAULT_0-effect","mode":4}]},"Building3320-mesh":{"name":"Building3320","primitives":[{"attributes":{"NORMAL":"accessor_105","POSITION":"accessor_103","BATCHID":"accessor_b2"},"indices":"accessor_98","material":"BUILDING_DEFAULT_0-effect","mode":4},{"attributes":{"NORMAL":"accessor_105","POSITION":"accessor_103","BATCHID":"accessor_b2"},"indices":"accessor_101","material":"ROOF_DEFAULT_0-effect","mode":4}]},"Building3321-mesh":{"name":"Building3321","primitives":[{"attributes":{"NORMAL":"accessor_70","POSITION":"accessor_68","BATCHID":"accessor_b3"},"indices":"accessor_63","material":"BUILDING_DEFAULT_0-effect","mode":4},{"attributes":{"NORMAL":"accessor_70","POSITION":"accessor_68","BATCHID":"accessor_b3"},"indices":"accessor_66","material":"ROOF_DEFAULT_0-effect","mode":4}]},"Building3403-mesh":{"name":"Building3403","primitives":[{"attributes":{"NORMAL":"accessor_175","POSITION":"accessor_173","BATCHID":"accessor_b4"},"indices":"accessor_168","material":"BUILDING_DEFAULT_0-effect","mode":4},{"attributes":{"NORMAL":"accessor_175","POSITION":"accessor_173","BATCHID":"accessor_b4"},"indices":"accessor_171","material":"ROOF_DEFAULT_0-effect","mode":4}]}},"nodes":{"model_gridID_6_w389371677":{"children":[],"matrix":[1,0,0,0,0,-1.62921e-7,1,0,0,-1,-1.62921e-7,0,-527.81,-452.398,19.9999,1],"meshes":["Building3318-mesh"],"name":"model_gridID_6_w389371677"},"model_gridID_6_w389371678_001":{"children":[],"matrix":[1,0,0,0,0,-1.62921e-7,1,0,0,-1,-1.62921e-7,0,-527.872,-532.795,19.9999,1],"meshes":["Building3321-mesh"],"name":"model_gridID_6_w389371678_001"},"model_gridID_6_w389371679":{"children":[],"matrix":[1,0,0,0,0,-1.62921e-7,1,0,0,-1,-1.62921e-7,0,-528.362,-493.39,19.9999,1],"meshes":["Building3320-mesh"],"name":"model_gridID_6_w389371679"},"model_gridID_6_w389371681":{"children":[],"matrix":[1,0,0,0,0,-1.62921e-7,1,0,0,-1,-1.62921e-7,0,-579.411,-493.831,3.74992,1],"meshes":["Building3312-mesh"],"name":"model_gridID_6_w389371681"},"model_gridID_6_w390190541":{"children":[],"matrix":[1,0,0,0,0,-1.62921e-7,1,0,0,-1,-1.62921e-7,0,-571,-539.541,3.74991,1],"meshes":["Building3403-mesh"],"name":"model_gridID_6_w390190541"},"node_5":{"children":["model_gridID_6_w389371677","model_gridID_6_w389371678_001","model_gridID_6_w389371679","model_gridID_6_w389371681","model_gridID_6_w390190541"],"matrix":[1,0,0,0,0,0,-1,0,0,1,0,0,0,0,0,1],"name":"Y_UP_Transform"}},"programs":{"program_0":{"attributes":["a_normal","a_position","a_batchId"],"fragmentShader":"\\data\\ECNU\\workspace\\gridID_6\\gridID_60FS","vertexShader":"\\data\\ECNU\\workspace\\gridID_6\\gridID_60VS"}},"scene":"defaultScene","scenes":{"defaultScene":{"nodes":["node_5"]}},"shaders":{"\\data\\ECNU\\workspace\\gridID_6\\gridID_60FS":{"type":35632,"uri":"data:text/plain;base64,"},"\\data\\ECNU\\workspace\\gridID_6\\gridID_60VS":{"type":35633,"uri":"data:text/plain;base64,"}},"skins":{},"techniques":{"technique0":{"attributes":{"a_normal":"normal","a_position":"position","a_batchId":"batchId"},"parameters":{"ambient":{"type":35666},"diffuse":{"type":35666},"emission":{"type":35666},"modelViewMatrix":{"semantic":"MODELVIEW","type":35676},"normal":{"semantic":"NORMAL","type":35665},"normalMatrix":{"semantic":"MODELVIEWINVERSETRANSPOSE","type":35675},"position":{"semantic":"POSITION","type":35665},"projectionMatrix":{"semantic":"PROJECTION","type":35676},"shininess":{"type":5126},"specular":{"type":35666},"batchId":{"semantic":"BATCHID","type":5126}},"program":"program_0","states":{"enable":[2929,2884]},"uniforms":{"u_ambient":"ambient","u_diffuse":"diffuse","u_emission":"emission","u_modelViewMatrix":"modelViewMatrix","u_normalMatrix":"normalMatrix","u_projectionMatrix":"projectionMatrix","u_shininess":"shininess","u_specular":"specular"}}}}