{
    "accessors": {
        "accessor_16": {
            "bufferView": "bufferView_82",
            "byteOffset": 0,
            "byteStride": 0,
            "componentType": 5123,
            "count": 108,
            "type": "SCALAR"
        },
        "accessor_18": {
            "bufferView": "bufferView_83",
            "byteOffset": 0,
            "byteStride": 12,
            "componentType": 5126,
            "count": 102,
            "max": [
                59.0052,
                -36.9551,
                5.19898
            ],
            "min": [
                47.7688,
                -79.8029,
                3.07849
            ],
            "type": "VEC3"
        },
        "accessor_20": {
            "bufferView": "bufferView_83",
            "byteOffset": 1224,
            "byteStride": 12,
            "componentType": 5126,
            "count": 102,
            "max": [
                0.999929,
                0.999928,
                1
            ],
            "min": [
                -0.999929,
                -0.999928,
                0
            ],
            "type": "VEC3"
        },
        "accessor_36": {
            "bufferView": "bufferView_82",
            "byteOffset": 216,
            "byteStride": 0,
            "componentType": 5123,
            "count": 318,
            "type": "SCALAR"
        },
        "accessor_38": {
            "bufferView": "bufferView_83",
            "byteOffset": 2448,
            "byteStride": 12,
            "componentType": 5126,
            "count": 295,
            "max": [
                58.6101,
                -37.4577,
                13.7441
            ],
            "min": [
                18.8626,
                -82.0759,
                3.07849
            ],
            "type": "VEC3"
        },
        "accessor_40": {
            "bufferView": "bufferView_83",
            "byteOffset": 5988,
            "byteStride": 12,
            "componentType": 5126,
            "count": 295,
            "max": [
                0.999822,
                0.999811,
                1
            ],
            "min": [
                -0.99984,
                -0.999825,
                0
            ],
            "type": "VEC3"
        },
        "accessor_56": {
            "bufferView": "bufferView_82",
            "byteOffset": 852,
            "byteStride": 0,
            "componentType": 5123,
            "count": 96,
            "type": "SCALAR"
        },
        "accessor_58": {
            "bufferView": "bufferView_83",
            "byteOffset": 9528,
            "byteStride": 12,
            "componentType": 5126,
            "count": 92,
            "max": [
                -40.8811,
                -47.8035,
                6.38953
            ],
            "min": [
                -67.0844,
                -75.0841,
                2.30428
            ],
            "type": "VEC3"
        },
        "accessor_60": {
            "bufferView": "bufferView_83",
            "byteOffset": 10632,
            "byteStride": 12,
            "componentType": 5126,
            "count": 92,
            "max": [
                0.999465,
                0.999453,
                1
            ],
            "min": [
                -0.999465,
                -0.999453,
                0
            ],
            "type": "VEC3"
        },
        "accessor_76": {
            "bufferView": "bufferView_82",
            "byteOffset": 1044,
            "byteStride": 0,
            "componentType": 5123,
            "count": 336,
            "type": "SCALAR"
        },
        "accessor_78": {
            "bufferView": "bufferView_83",
            "byteOffset": 11736,
            "byteStride": 12,
            "componentType": 5126,
            "count": 299,
            "max": [
                12.9575,
                -38.5526,
                7.56088
            ],
            "min": [
                -41.2145,
                -84.2308,
                3.07206
            ],
            "type": "VEC3"
        },
        "accessor_80": {
            "bufferView": "bufferView_83",
            "byteOffset": 15324,
            "byteStride": 12,
            "componentType": 5126,
            "count": 299,
            "max": [
                0.999465,
                0.999456,
                1
            ],
            "min": [
                -0.999466,
                -0.999453,
                0
            ],
            "type": "VEC3"
        }
    },
    "animations": {},
    "asset": {
        "generator": "collada2gltf@cf6371beb0bdc18ba603378d5e40c966da53d385",
        "premultipliedAlpha": true,
        "profile": {
            "api": "WebGL",
            "version": "1.0.2"
        },
        "version": "1.0"
    },
    "bufferViews": {
        "bufferView_82": {
            "buffer": "\\data\\3dcity\\miami\\workspace\\gridID_62\\gridID_62_high",
            "byteLength": 1716,
            "byteOffset": 0,
            "target": 34963
        },
        "bufferView_83": {
            "buffer": "\\data\\3dcity\\miami\\workspace\\gridID_62\\gridID_62_high",
            "byteLength": 18912,
            "byteOffset": 1716,
            "target": 34962
        }
    },
    "buffers": {
        "\\data\\3dcity\\miami\\workspace\\gridID_62\\gridID_62_high": {
            "byteLength": 20628,
            "type": "arraybuffer",
            "uri": "data:application/octet-stream;base64,"
        }
    },
    "materials": {
        "__glTF__defaultMaterial0": {
            "name": "__glTF__defaultMaterial0",
            "technique": "technique0",
            "values": {
                "diffuse": [
                    1,
                    1,
                    1,
                    1
                ]
            }
        }
    },
    "meshes": {
        "multipatch_footprint_2079-mesh": {
            "name": "multipatch_footprint.2079",
            "primitives": [
                {
                    "attributes": {
                        "NORMAL": "accessor_20",
                        "POSITION": "accessor_18"
                    },
                    "indices": "accessor_16",
                    "material": "__glTF__defaultMaterial0",
                    "mode": 4
                }
            ]
        },
        "multipatch_footprint_2080-mesh": {
            "name": "multipatch_footprint.2080",
            "primitives": [
                {
                    "attributes": {
                        "NORMAL": "accessor_40",
                        "POSITION": "accessor_38"
                    },
                    "indices": "accessor_36",
                    "material": "__glTF__defaultMaterial0",
                    "mode": 4
                }
            ]
        },
        "multipatch_footprint_2087-mesh": {
            "name": "multipatch_footprint.2087",
            "primitives": [
                {
                    "attributes": {
                        "NORMAL": "accessor_60",
                        "POSITION": "accessor_58"
                    },
                    "indices": "accessor_56",
                    "material": "__glTF__defaultMaterial0",
                    "mode": 4
                }
            ]
        },
        "multipatch_footprint_2089-mesh": {
            "name": "multipatch_footprint.2089",
            "primitives": [
                {
                    "attributes": {
                        "NORMAL": "accessor_80",
                        "POSITION": "accessor_78"
                    },
                    "indices": "accessor_76",
                    "material": "__glTF__defaultMaterial0",
                    "mode": 4
                }
            ]
        }
    },
    "nodes": {
        "gridID_62_w435539670_join": {
            "children": [],
            "matrix": [
                1,
                0,
                0,
                0,
                0,
                1,
                0,
                0,
                0,
                0,
                1,
                0,
                0.000366211,
                0.000335693,
                0,
                1
            ],
            "meshes": [
                "multipatch_footprint_2087-mesh"
            ],
            "name": "gridID_62_w435539670_join"
        },
        "gridID_62_w435810148_join": {
            "children": [],
            "matrix": [
                1,
                0,
                0,
                0,
                0,
                1,
                0,
                0,
                0,
                0,
                1,
                0,
                0.000366211,
                0.000335693,
                0,
                1
            ],
            "meshes": [
                "multipatch_footprint_2079-mesh"
            ],
            "name": "gridID_62_w435810148_join"
        },
        "gridID_62_w436038268_join": {
            "children": [],
            "matrix": [
                1,
                0,
                0,
                0,
                0,
                1,
                0,
                0,
                0,
                0,
                1,
                0,
                0.000366211,
                0.000335693,
                0,
                1
            ],
            "meshes": [
                "multipatch_footprint_2080-mesh"
            ],
            "name": "gridID_62_w436038268_join"
        },
        "gridID_62_w436121931_join": {
            "children": [],
            "matrix": [
                1,
                0,
                0,
                0,
                0,
                1,
                0,
                0,
                0,
                0,
                1,
                0,
                0.000366211,
                0.000335693,
                0,
                1
            ],
            "meshes": [
                "multipatch_footprint_2089-mesh"
            ],
            "name": "gridID_62_w436121931_join"
        },
        "node_4": {
            "children": [
                "gridID_62_w435810148_join",
                "gridID_62_w436038268_join",
                "gridID_62_w435539670_join",
                "gridID_62_w436121931_join"
            ],
            "matrix": [
                1,
                0,
                0,
                0,
                0,
                0,
                -1,
                0,
                0,
                1,
                0,
                0,
                0,
                0,
                0,
                1
            ],
            "name": "Y_UP_Transform"
        }
    },
    "programs": {
        "program_0": {
            "attributes": [
                "a_normal",
                "a_position"
            ],
            "fragmentShader": "\\data\\3dcity\\miami\\workspace\\gridID_62\\gridID_62_high0FS",
            "vertexShader": "\\data\\3dcity\\miami\\workspace\\gridID_62\\gridID_62_high0VS"
        }
    },
    "scene": "defaultScene",
    "scenes": {
        "defaultScene": {
            "nodes": [
                "node_4"
            ]
        }
    },
    "shaders": {
        "\\data\\3dcity\\miami\\workspace\\gridID_62\\gridID_62_high0FS": {
            "type": 35632,
            "uri": "data:text/plain;base64,"
        },
        "\\data\\3dcity\\miami\\workspace\\gridID_62\\gridID_62_high0VS": {
            "type": 35633,
            "uri": "data:text/plain;base64,"
        }
    },
    "skins": {},
    "techniques": {
        "technique0": {
            "attributes": {
                "a_normal": "normal",
                "a_position": "position"
            },
            "parameters": {
                "diffuse": {
                    "type": 35666
                },
                "modelViewMatrix": {
                    "semantic": "MODELVIEW",
                    "type": 35676
                },
                "normal": {
                    "semantic": "NORMAL",
                    "type": 35665
                },
                "normalMatrix": {
                    "semantic": "MODELVIEWINVERSETRANSPOSE",
                    "type": 35675
                },
                "position": {
                    "semantic": "POSITION",
                    "type": 35665
                },
                "projectionMatrix": {
                    "semantic": "PROJECTION",
                    "type": 35676
                }
            },
            "program": "program_0",
            "states": {
                "enable": [
                    2929,
                    2884
                ]
            },
            "uniforms": {
                "u_diffuse": "diffuse",
                "u_modelViewMatrix": "modelViewMatrix",
                "u_normalMatrix": "normalMatrix",
                "u_projectionMatrix": "projectionMatrix"
            }
        }
    }
}