{"accessors":{"accessor_100":{"bufferView":"bufferView_203","byteOffset":5208,"byteStride":12,"componentType":5126,"count":62,"max":[0.999987,1,0.999987],"min":[-0.999986,-1,-0.999992],"type":"VEC3"},"accessor_116":{"bufferView":"bufferView_202","byteOffset":648,"byteStride":0,"componentType":5123,"count":36,"type":"SCALAR"},"accessor_118":{"bufferView":"bufferView_203","byteOffset":5952,"byteStride":12,"componentType":5126,"count":28,"max":[27.5623,9,-36.2699],"min":[19.1799,0,-47.3825],"type":"VEC3"},"accessor_120":{"bufferView":"bufferView_203","byteOffset":6288,"byteStride":12,"componentType":5126,"count":28,"max":[0.998757,1,0.998652],"min":[-0.998757,-1,-0.998652],"type":"VEC3"},"accessor_136":{"bufferView":"bufferView_202","byteOffset":720,"byteStride":0,"componentType":5123,"count":36,"type":"SCALAR"},"accessor_138":{"bufferView":"bufferView_203","byteOffset":6624,"byteStride":12,"componentType":5126,"count":28,"max":[59.9118,8,81.2085],"min":[50.6277,0,36.1035],"type":"VEC3"},"accessor_140":{"bufferView":"bufferView_203","byteOffset":6960,"byteStride":12,"componentType":5126,"count":28,"max":[0.999405,1,0.999383],"min":[-0.999405,-1,-0.999383],"type":"VEC3"},"accessor_156":{"bufferView":"bufferView_202","byteOffset":792,"byteStride":0,"componentType":5123,"count":84,"type":"SCALAR"},"accessor_158":{"bufferView":"bufferView_203","byteOffset":7296,"byteStride":12,"componentType":5126,"count":65,"max":[47.3215,14,80.9983],"min":[19.8813,0,36.7957],"type":"VEC3"},"accessor_16":{"bufferView":"bufferView_202","byteOffset":0,"byteStride":0,"componentType":5123,"count":36,"type":"SCALAR"},"accessor_160":{"bufferView":"bufferView_203","byteOffset":8076,"byteStride":12,"componentType":5126,"count":65,"max":[0.999819,1,0.999826],"min":[-0.999845,-1,-0.999824],"type":"VEC3"},"accessor_176":{"bufferView":"bufferView_202","byteOffset":960,"byteStride":0,"componentType":5123,"count":84,"type":"SCALAR"},"accessor_178":{"bufferView":"bufferView_203","byteOffset":8856,"byteStride":12,"componentType":5126,"count":60,"max":[43.9151,10,10.8748],"min":[25.6253,0,-83.3283],"type":"VEC3"},"accessor_18":{"bufferView":"bufferView_203","byteOffset":0,"byteStride":12,"componentType":5126,"count":30,"max":[23.2765,10,11.0726],"min":[2.27052,0,-30.621],"type":"VEC3"},"accessor_180":{"bufferView":"bufferView_203","byteOffset":9576,"byteStride":12,"componentType":5126,"count":60,"max":[0.999155,1,0.999152],"min":[-0.999155,-1,-0.99914],"type":"VEC3"},"accessor_196":{"bufferView":"bufferView_202","byteOffset":1128,"byteStride":0,"componentType":5123,"count":84,"type":"SCALAR"},"accessor_198":{"bufferView":"bufferView_203","byteOffset":10296,"byteStride":12,"componentType":5126,"count":62,"max":[13.614,51,85.4854],"min":[-37.9269,0,40.4916],"type":"VEC3"},"accessor_20":{"bufferView":"bufferView_203","byteOffset":360,"byteStride":12,"componentType":5126,"count":30,"max":[0.999705,1,0.999694],"min":[-0.999698,-1,-0.99971],"type":"VEC3"},"accessor_200":{"bufferView":"bufferView_203","byteOffset":11040,"byteStride":12,"componentType":5126,"count":62,"max":[0.999745,1,0.999739],"min":[-0.999753,-1,-0.999739],"type":"VEC3"},"accessor_36":{"bufferView":"bufferView_202","byteOffset":72,"byteStride":0,"componentType":5123,"count":36,"type":"SCALAR"},"accessor_38":{"bufferView":"bufferView_203","byteOffset":720,"byteStride":12,"componentType":5126,"count":30,"max":[-40.2313,10,-32.9819],"min":[-55.6379,0,-63.7114],"type":"VEC3"},"accessor_40":{"bufferView":"bufferView_203","byteOffset":1080,"byteStride":12,"componentType":5126,"count":30,"max":[0.999965,1,0.999967],"min":[-0.999965,-1,-0.99996],"type":"VEC3"},"accessor_56":{"bufferView":"bufferView_202","byteOffset":144,"byteStride":0,"componentType":5123,"count":84,"type":"SCALAR"},"accessor_58":{"bufferView":"bufferView_203","byteOffset":1440,"byteStride":12,"componentType":5126,"count":62,"max":[10.1297,10,-35.5283],"min":[-7.63692,0,-83.4643],"type":"VEC3"},"accessor_60":{"bufferView":"bufferView_203","byteOffset":2184,"byteStride":12,"componentType":5126,"count":62,"max":[0.999454,1,0.9995],"min":[-0.999444,-1,-0.99941],"type":"VEC3"},"accessor_76":{"bufferView":"bufferView_202","byteOffset":312,"byteStride":0,"componentType":5123,"count":84,"type":"SCALAR"},"accessor_78":{"bufferView":"bufferView_203","byteOffset":2928,"byteStride":12,"componentType":5126,"count":64,"max":[63.7523,9,10.2691],"min":[43.5589,0,-82.4878],"type":"VEC3"},"accessor_80":{"bufferView":"bufferView_203","byteOffset":3696,"byteStride":12,"componentType":5126,"count":64,"max":[0.999786,1,0.999807],"min":[-0.999786,-1,-0.999788],"type":"VEC3"},"accessor_96":{"bufferView":"bufferView_202","byteOffset":480,"byteStride":0,"componentType":5123,"count":84,"type":"SCALAR"},"accessor_98":{"bufferView":"bufferView_203","byteOffset":4464,"byteStride":12,"componentType":5126,"count":62,"max":[-39.5856,7,73.2481],"min":[-66.4693,0,46.635],"type":"VEC3"},"accessor_b0":{"bufferView":"bufferView_b","byteOffset":0,"byteStride":0,"componentType":5123,"count":30,"type":"SCALAR"},"accessor_b1":{"bufferView":"bufferView_b","byteOffset":60,"byteStride":0,"componentType":5123,"count":30,"type":"SCALAR"},"accessor_b2":{"bufferView":"bufferView_b","byteOffset":120,"byteStride":0,"componentType":5123,"count":62,"type":"SCALAR"},"accessor_b3":{"bufferView":"bufferView_b","byteOffset":244,"byteStride":0,"componentType":5123,"count":64,"type":"SCALAR"},"accessor_b4":{"bufferView":"bufferView_b","byteOffset":372,"byteStride":0,"componentType":5123,"count":62,"type":"SCALAR"},"accessor_b5":{"bufferView":"bufferView_b","byteOffset":496,"byteStride":0,"componentType":5123,"count":28,"type":"SCALAR"},"accessor_b6":{"bufferView":"bufferView_b","byteOffset":552,"byteStride":0,"componentType":5123,"count":28,"type":"SCALAR"},"accessor_b7":{"bufferView":"bufferView_b","byteOffset":608,"byteStride":0,"componentType":5123,"count":65,"type":"SCALAR"},"accessor_b8":{"bufferView":"bufferView_b","byteOffset":738,"byteStride":0,"componentType":5123,"count":60,"type":"SCALAR"},"accessor_b9":{"bufferView":"bufferView_b","byteOffset":858,"byteStride":0,"componentType":5123,"count":62,"type":"SCALAR"}},"animations":{},"asset":{"generator":"collada2gltf@cf6371beb0bdc18ba603378d5e40c966da53d385","premultipliedAlpha":true,"profile":{"api":"WebGL","version":"1.0.2"},"version":"1.0"},"bufferViews":{"bufferView_202":{"buffer":"\\data\\3dcity\\miami\\workspace\\gridID_62\\gridID_62","byteLength":1296,"byteOffset":0,"target":34963},"bufferView_203":{"buffer":"\\data\\3dcity\\miami\\workspace\\gridID_62\\gridID_62","byteLength":11784,"byteOffset":1296,"target":34962},"bufferView_b":{"buffer":"buffer_b","byteLength":982,"byteOffset":0,"target":34962}},"buffers":{"\\data\\3dcity\\miami\\workspace\\gridID_62\\gridID_62":{"byteLength":13080,"type":"arraybuffer","uri":"data:application/octet-stream;base64,"},"buffer_b":{"type":"arraybuffer","byteLength":982,"uri":"data:application/octet-stream;base64,"}},"materials":{"CityEngineMaterial_584-effect":{"name":"CityEngineMaterial_584","technique":"technique0","values":{"ambient":[1,1,1,1],"diffuse":[1,1,1,1],"emission":[0,0,0,1],"shininess":50,"specular":[0.5,0.5,0.5,1]}},"CityEngineMaterial_585-effect":{"name":"CityEngineMaterial_585","technique":"technique0","values":{"ambient":[1,1,1,1],"diffuse":[1,1,1,1],"emission":[0,0,0,1],"shininess":50,"specular":[0.5,0.5,0.5,1]}},"CityEngineMaterial_586-effect":{"name":"CityEngineMaterial_586","technique":"technique0","values":{"ambient":[1,1,1,1],"diffuse":[1,1,1,1],"emission":[0,0,0,1],"shininess":50,"specular":[0.5,0.5,0.5,1]}},"CityEngineMaterial_587-effect":{"name":"CityEngineMaterial_587","technique":"technique0","values":{"ambient":[1,1,1,1],"diffuse":[1,1,1,1],"emission":[0,0,0,1],"shininess":50,"specular":[0.5,0.5,0.5,1]}},"CityEngineMaterial_588-effect":{"name":"CityEngineMaterial_588","technique":"technique0","values":{"ambient":[1,1,1,1],"diffuse":[1,1,1,1],"emission":[0,0,0,1],"shininess":50,"specular":[0.5,0.5,0.5,1]}},"CityEngineMaterial_589-effect":{"name":"CityEngineMaterial_589","technique":"technique0","values":{"ambient":[1,1,1,1],"diffuse":[1,1,1,1],"emission":[0,0,0,1],"shininess":50,"specular":[0.5,0.5,0.5,1]}},"CityEngineMaterial_590-effect":{"name":"CityEngineMaterial_590","technique":"technique0","values":{"ambient":[1,1,1,1],"diffuse":[1,1,1,1],"emission":[0,0,0,1],"shininess":50,"specular":[0.5,0.5,0.5,1]}},"CityEngineMaterial_591-effect":{"name":"CityEngineMaterial_591","technique":"technique0","values":{"ambient":[1,1,1,1],"diffuse":[1,1,1,1],"emission":[0,0,0,1],"shininess":50,"specular":[0.5,0.5,0.5,1]}},"CityEngineMaterial_592-effect":{"name":"CityEngineMaterial_592","technique":"technique0","values":{"ambient":[1,1,1,1],"diffuse":[1,1,1,1],"emission":[0,0,0,1],"shininess":50,"specular":[0.5,0.5,0.5,1]}},"CityEngineMaterial_593-effect":{"name":"CityEngineMaterial_593","technique":"technique0","values":{"ambient":[1,1,1,1],"diffuse":[1,1,1,1],"emission":[0,0,0,1],"shininess":50,"specular":[0.5,0.5,0.5,1]}}},"meshes":{"mesh_CityEngineMaterial_582-mesh":{"name":"mesh_CityEngineMaterial.582","primitives":[{"attributes":{"NORMAL":"accessor_20","POSITION":"accessor_18","BATCHID":"accessor_b0"},"indices":"accessor_16","material":"CityEngineMaterial_584-effect","mode":4}]},"mesh_CityEngineMaterial_583-mesh":{"name":"mesh_CityEngineMaterial.583","primitives":[{"attributes":{"NORMAL":"accessor_40","POSITION":"accessor_38","BATCHID":"accessor_b1"},"indices":"accessor_36","material":"CityEngineMaterial_585-effect","mode":4}]},"mesh_CityEngineMaterial_584-mesh":{"name":"mesh_CityEngineMaterial.584","primitives":[{"attributes":{"NORMAL":"accessor_60","POSITION":"accessor_58","BATCHID":"accessor_b2"},"indices":"accessor_56","material":"CityEngineMaterial_586-effect","mode":4}]},"mesh_CityEngineMaterial_585-mesh":{"name":"mesh_CityEngineMaterial.585","primitives":[{"attributes":{"NORMAL":"accessor_80","POSITION":"accessor_78","BATCHID":"accessor_b3"},"indices":"accessor_76","material":"CityEngineMaterial_587-effect","mode":4}]},"mesh_CityEngineMaterial_586-mesh":{"name":"mesh_CityEngineMaterial.586","primitives":[{"attributes":{"NORMAL":"accessor_100","POSITION":"accessor_98","BATCHID":"accessor_b4"},"indices":"accessor_96","material":"CityEngineMaterial_588-effect","mode":4}]},"mesh_CityEngineMaterial_587-mesh":{"name":"mesh_CityEngineMaterial.587","primitives":[{"attributes":{"NORMAL":"accessor_120","POSITION":"accessor_118","BATCHID":"accessor_b5"},"indices":"accessor_116","material":"CityEngineMaterial_589-effect","mode":4}]},"mesh_CityEngineMaterial_588-mesh":{"name":"mesh_CityEngineMaterial.588","primitives":[{"attributes":{"NORMAL":"accessor_140","POSITION":"accessor_138","BATCHID":"accessor_b6"},"indices":"accessor_136","material":"CityEngineMaterial_590-effect","mode":4}]},"mesh_CityEngineMaterial_589-mesh":{"name":"mesh_CityEngineMaterial.589","primitives":[{"attributes":{"NORMAL":"accessor_160","POSITION":"accessor_158","BATCHID":"accessor_b7"},"indices":"accessor_156","material":"CityEngineMaterial_591-effect","mode":4}]},"mesh_CityEngineMaterial_590-mesh":{"name":"mesh_CityEngineMaterial.590","primitives":[{"attributes":{"NORMAL":"accessor_180","POSITION":"accessor_178","BATCHID":"accessor_b8"},"indices":"accessor_176","material":"CityEngineMaterial_592-effect","mode":4}]},"mesh_CityEngineMaterial_591-mesh":{"name":"mesh_CityEngineMaterial.591","primitives":[{"attributes":{"NORMAL":"accessor_200","POSITION":"accessor_198","BATCHID":"accessor_b9"},"indices":"accessor_196","material":"CityEngineMaterial_593-effect","mode":4}]}},"nodes":{"CityEngineMaterial":{"children":[],"matrix":[1,0,0,0,0,-1.62921e-7,1,0,0,-1,-1.62921e-7,0,0,0,0,1],"meshes":["mesh_CityEngineMaterial_582-mesh"],"name":"CityEngineMaterial"},"CityEngineMaterial_001":{"children":[],"matrix":[1,0,0,0,0,-1.62921e-7,1,0,0,-1,-1.62921e-7,0,0,0,0,1],"meshes":["mesh_CityEngineMaterial_583-mesh"],"name":"CityEngineMaterial_001"},"CityEngineMaterial_002":{"children":[],"matrix":[1,0,0,0,0,-1.62921e-7,1,0,0,-1,-1.62921e-7,0,0,0,0,1],"meshes":["mesh_CityEngineMaterial_584-mesh"],"name":"CityEngineMaterial_002"},"CityEngineMaterial_003":{"children":[],"matrix":[1,0,0,0,0,-1.62921e-7,1,0,0,-1,-1.62921e-7,0,0,0,0,1],"meshes":["mesh_CityEngineMaterial_585-mesh"],"name":"CityEngineMaterial_003"},"CityEngineMaterial_004":{"children":[],"matrix":[1,0,0,0,0,-1.62921e-7,1,0,0,-1,-1.62921e-7,0,0,0,0,1],"meshes":["mesh_CityEngineMaterial_586-mesh"],"name":"CityEngineMaterial_004"},"CityEngineMaterial_005":{"children":[],"matrix":[1,0,0,0,0,-1.62921e-7,1,0,0,-1,-1.62921e-7,0,0,0,0,1],"meshes":["mesh_CityEngineMaterial_587-mesh"],"name":"CityEngineMaterial_005"},"CityEngineMaterial_006":{"children":[],"matrix":[1,0,0,0,0,-1.62921e-7,1,0,0,-1,-1.62921e-7,0,0,0,0,1],"meshes":["mesh_CityEngineMaterial_588-mesh"],"name":"CityEngineMaterial_006"},"CityEngineMaterial_007":{"children":[],"matrix":[1,0,0,0,0,-1.62921e-7,1,0,0,-1,-1.62921e-7,0,0,0,0,1],"meshes":["mesh_CityEngineMaterial_589-mesh"],"name":"CityEngineMaterial_007"},"CityEngineMaterial_008":{"children":[],"matrix":[1,0,0,0,0,-1.62921e-7,1,0,0,-1,-1.62921e-7,0,0,0,0,1],"meshes":["mesh_CityEngineMaterial_590-mesh"],"name":"CityEngineMaterial_008"},"CityEngineMaterial_009":{"children":[],"matrix":[1,0,0,0,0,-1.62921e-7,1,0,0,-1,-1.62921e-7,0,0,0,0,1],"meshes":["mesh_CityEngineMaterial_591-mesh"],"name":"CityEngineMaterial_009"},"node_10":{"children":["CityEngineMaterial","CityEngineMaterial_001","CityEngineMaterial_002","CityEngineMaterial_003","CityEngineMaterial_004","CityEngineMaterial_005","CityEngineMaterial_006","CityEngineMaterial_007","CityEngineMaterial_008","CityEngineMaterial_009"],"matrix":[1,0,0,0,0,0,-1,0,0,1,0,0,0,0,0,1],"name":"Y_UP_Transform"}},"programs":{"program_0":{"attributes":["a_normal","a_position","a_batchId"],"fragmentShader":"\\data\\3dcity\\miami\\workspace\\gridID_62\\gridID_620FS","vertexShader":"\\data\\3dcity\\miami\\workspace\\gridID_62\\gridID_620VS"}},"scene":"defaultScene","scenes":{"defaultScene":{"nodes":["node_10"]}},"shaders":{"\\data\\3dcity\\miami\\workspace\\gridID_62\\gridID_620FS":{"type":35632,"uri":"data:text/plain;base64,"},"\\data\\3dcity\\miami\\workspace\\gridID_62\\gridID_620VS":{"type":35633,"uri":"data:text/plain;base64,"}},"skins":{},"techniques":{"technique0":{"attributes":{"a_normal":"normal","a_position":"position","a_batchId":"batchId"},"parameters":{"ambient":{"type":35666},"diffuse":{"type":35666},"emission":{"type":35666},"modelViewMatrix":{"semantic":"MODELVIEW","type":35676},"normal":{"semantic":"NORMAL","type":35665},"normalMatrix":{"semantic":"MODELVIEWINVERSETRANSPOSE","type":35675},"position":{"semantic":"POSITION","type":35665},"projectionMatrix":{"semantic":"PROJECTION","type":35676},"shininess":{"type":5126},"specular":{"type":35666},"batchId":{"semantic":"BATCHID","type":5126}},"program":"program_0","states":{"enable":[2929,2884]},"uniforms":{"u_ambient":"ambient","u_diffuse":"diffuse","u_emission":"emission","u_modelViewMatrix":"modelViewMatrix","u_normalMatrix":"normalMatrix","u_projectionMatrix":"projectionMatrix","u_shininess":"shininess","u_specular":"specular"}}}}