{
    "accessors": {
        "accessor_101": {
            "bufferView": "bufferView_142",
            "byteOffset": 1128,
            "byteStride": 0,
            "componentType": 5123,
            "count": 60,
            "type": "SCALAR"
        },
        "accessor_103": {
            "bufferView": "bufferView_143",
            "byteOffset": 6384,
            "byteStride": 12,
            "componentType": 5126,
            "count": 110,
            "max": [
                48.2723,
                2.5,
                26.7993
            ],
            "min": [
                -34.6376,
                -2.5,
                -16.8037
            ],
            "type": "VEC3"
        },
        "accessor_105": {
            "bufferView": "bufferView_143",
            "byteOffset": 7704,
            "byteStride": 12,
            "componentType": 5126,
            "count": 110,
            "max": [
                0.910183,
                1,
                0.908396
            ],
            "min": [
                -0.912264,
                0,
                -0.909013
            ],
            "type": "VEC3"
        },
        "accessor_133": {
            "bufferView": "bufferView_142",
            "byteOffset": 444,
            "byteStride": 0,
            "componentType": 5123,
            "count": 144,
            "type": "SCALAR"
        },
        "accessor_136": {
            "bufferView": "bufferView_142",
            "byteOffset": 732,
            "byteStride": 0,
            "componentType": 5123,
            "count": 66,
            "type": "SCALAR"
        },
        "accessor_138": {
            "bufferView": "bufferView_143",
            "byteOffset": 3504,
            "byteStride": 12,
            "componentType": 5126,
            "count": 120,
            "max": [
                34.2546,
                20,
                18.5938
            ],
            "min": [
                -37.6995,
                -20,
                -30.6642
            ],
            "type": "VEC3"
        },
        "accessor_140": {
            "bufferView": "bufferView_143",
            "byteOffset": 4944,
            "byteStride": 12,
            "componentType": 5126,
            "count": 120,
            "max": [
                0.912264,
                1,
                0.909013
            ],
            "min": [
                -0.910183,
                0,
                -0.909956
            ],
            "type": "VEC3"
        },
        "accessor_28": {
            "bufferView": "bufferView_142",
            "byteOffset": 240,
            "byteStride": 0,
            "componentType": 5123,
            "count": 72,
            "type": "SCALAR"
        },
        "accessor_31": {
            "bufferView": "bufferView_142",
            "byteOffset": 384,
            "byteStride": 0,
            "componentType": 5123,
            "count": 30,
            "type": "SCALAR"
        },
        "accessor_33": {
            "bufferView": "bufferView_143",
            "byteOffset": 2064,
            "byteStride": 12,
            "componentType": 5126,
            "count": 60,
            "max": [
                26.7646,
                20,
                9.12875
            ],
            "min": [
                -28.4833,
                -20,
                -24.0432
            ],
            "type": "VEC3"
        },
        "accessor_35": {
            "bufferView": "bufferView_143",
            "byteOffset": 2784,
            "byteStride": 12,
            "componentType": 5126,
            "count": 60,
            "max": [
                0.96498,
                1,
                0.964286
            ],
            "min": [
                -0.964926,
                0,
                -0.964137
            ],
            "type": "VEC3"
        },
        "accessor_63": {
            "bufferView": "bufferView_142",
            "byteOffset": 0,
            "byteStride": 0,
            "componentType": 5123,
            "count": 84,
            "type": "SCALAR"
        },
        "accessor_66": {
            "bufferView": "bufferView_142",
            "byteOffset": 168,
            "byteStride": 0,
            "componentType": 5123,
            "count": 36,
            "type": "SCALAR"
        },
        "accessor_68": {
            "bufferView": "bufferView_143",
            "byteOffset": 0,
            "byteStride": 12,
            "componentType": 5126,
            "count": 86,
            "max": [
                18.2737,
                20,
                9.91891
            ],
            "min": [
                -28.1222,
                -20,
                -21.4171
            ],
            "type": "VEC3"
        },
        "accessor_70": {
            "bufferView": "bufferView_143",
            "byteOffset": 1032,
            "byteStride": 12,
            "componentType": 5126,
            "count": 86,
            "max": [
                0.964926,
                1,
                0.964303
            ],
            "min": [
                -0.964926,
                0,
                -0.964165
            ],
            "type": "VEC3"
        },
        "accessor_98": {
            "bufferView": "bufferView_142",
            "byteOffset": 864,
            "byteStride": 0,
            "componentType": 5123,
            "count": 132,
            "type": "SCALAR"
        }
    },
    "animations": {},
    "asset": {
        "generator": "collada2gltf@cf6371beb0bdc18ba603378d5e40c966da53d385",
        "premultipliedAlpha": true,
        "profile": {
            "api": "WebGL",
            "version": "1.0.2"
        },
        "version": "1.0"
    },
    "bufferViews": {
        "bufferView_142": {
            "buffer": "\\data\\ECNU\\workspace\\gridID_44\\gridID_44",
            "byteLength": 1248,
            "byteOffset": 0,
            "target": 34963
        },
        "bufferView_143": {
            "buffer": "\\data\\ECNU\\workspace\\gridID_44\\gridID_44",
            "byteLength": 9024,
            "byteOffset": 1248,
            "target": 34962
        }
    },
    "buffers": {
        "\\data\\ECNU\\workspace\\gridID_44\\gridID_44": {
            "byteLength": 10272,
            "type": "arraybuffer",
            "uri": "data:application/octet-stream;base64,"
        }
    },
    "materials": {
        "BUILDING_DEFAULT_0-effect": {
            "name": "BUILDING_DEFAULT_0",
            "technique": "technique0",
            "values": {
                "ambient": [
                    0,
                    0,
                    0,
                    1
                ],
                "diffuse": [
                    0.723055,
                    0.708376,
                    0.672443,
                    1
                ],
                "emission": [
                    0,
                    0,
                    0,
                    1
                ],
                "shininess": 50,
                "specular": [
                    0.5,
                    0.5,
                    0.5,
                    1
                ]
            }
        },
        "CONCRETE_0-effect": {
            "name": "CONCRETE_0",
            "technique": "technique0",
            "values": {
                "ambient": [
                    0,
                    0,
                    0,
                    1
                ],
                "diffuse": [
                    0.309469,
                    0.327778,
                    0.309469,
                    1
                ],
                "emission": [
                    0,
                    0,
                    0,
                    1
                ],
                "shininess": 50,
                "specular": [
                    0.5,
                    0.5,
                    0.5,
                    1
                ]
            }
        }
    },
    "meshes": {
        "Building3645-mesh": {
            "name": "Building3645",
            "primitives": [
                {
                    "attributes": {
                        "NORMAL": "accessor_70",
                        "POSITION": "accessor_68"
                    },
                    "indices": "accessor_63",
                    "material": "BUILDING_DEFAULT_0-effect",
                    "mode": 4
                },
                {
                    "attributes": {
                        "NORMAL": "accessor_70",
                        "POSITION": "accessor_68"
                    },
                    "indices": "accessor_66",
                    "material": "CONCRETE_0-effect",
                    "mode": 4
                }
            ]
        },
        "Building3646-mesh": {
            "name": "Building3646",
            "primitives": [
                {
                    "attributes": {
                        "NORMAL": "accessor_35",
                        "POSITION": "accessor_33"
                    },
                    "indices": "accessor_28",
                    "material": "BUILDING_DEFAULT_0-effect",
                    "mode": 4
                },
                {
                    "attributes": {
                        "NORMAL": "accessor_35",
                        "POSITION": "accessor_33"
                    },
                    "indices": "accessor_31",
                    "material": "CONCRETE_0-effect",
                    "mode": 4
                }
            ]
        },
        "Building3647-mesh": {
            "name": "Building3647",
            "primitives": [
                {
                    "attributes": {
                        "NORMAL": "accessor_140",
                        "POSITION": "accessor_138"
                    },
                    "indices": "accessor_133",
                    "material": "BUILDING_DEFAULT_0-effect",
                    "mode": 4
                },
                {
                    "attributes": {
                        "NORMAL": "accessor_140",
                        "POSITION": "accessor_138"
                    },
                    "indices": "accessor_136",
                    "material": "CONCRETE_0-effect",
                    "mode": 4
                }
            ]
        },
        "Building3649-mesh": {
            "name": "Building3649",
            "primitives": [
                {
                    "attributes": {
                        "NORMAL": "accessor_105",
                        "POSITION": "accessor_103"
                    },
                    "indices": "accessor_98",
                    "material": "BUILDING_DEFAULT_0-effect",
                    "mode": 4
                },
                {
                    "attributes": {
                        "NORMAL": "accessor_105",
                        "POSITION": "accessor_103"
                    },
                    "indices": "accessor_101",
                    "material": "CONCRETE_0-effect",
                    "mode": 4
                }
            ]
        }
    },
    "nodes": {
        "model_gridID_44_w396205528": {
            "children": [],
            "matrix": [
                1,
                0,
                0,
                0,
                0,
                -1.62921e-007,
                1,
                0,
                0,
                -1,
                -1.62921e-007,
                0,
                597.035,
                -201.73,
                20,
                1
            ],
            "meshes": [
                "Building3646-mesh"
            ],
            "name": "model_gridID_44_w396205528"
        },
        "model_gridID_44_w396205529": {
            "children": [],
            "matrix": [
                1,
                0,
                0,
                0,
                0,
                -1.62921e-007,
                1,
                0,
                0,
                -1,
                -1.62921e-007,
                0,
                589.906,
                -141.975,
                20,
                1
            ],
            "meshes": [
                "Building3645-mesh"
            ],
            "name": "model_gridID_44_w396205529"
        },
        "model_gridID_44_w396205530": {
            "children": [],
            "matrix": [
                1,
                0,
                0,
                0,
                0,
                -1.62921e-007,
                1,
                0,
                0,
                -1,
                -1.62921e-007,
                0,
                551.797,
                -285.737,
                2.49995,
                1
            ],
            "meshes": [
                "Building3649-mesh"
            ],
            "name": "model_gridID_44_w396205530"
        },
        "model_gridID_44_w396205530_001": {
            "children": [],
            "matrix": [
                1,
                0,
                0,
                0,
                0,
                -1.62921e-007,
                1,
                0,
                0,
                -1,
                -1.62921e-007,
                0,
                560.398,
                -279.56,
                20,
                1
            ],
            "meshes": [
                "Building3647-mesh"
            ],
            "name": "model_gridID_44_w396205530_001"
        },
        "node_4": {
            "children": [
                "model_gridID_44_w396205528",
                "model_gridID_44_w396205529",
                "model_gridID_44_w396205530",
                "model_gridID_44_w396205530_001"
            ],
            "matrix": [
                1,
                0,
                0,
                0,
                0,
                0,
                -1,
                0,
                0,
                1,
                0,
                0,
                0,
                0,
                0,
                1
            ],
            "name": "Y_UP_Transform"
        }
    },
    "programs": {
        "program_0": {
            "attributes": [
                "a_normal",
                "a_position"
            ],
            "fragmentShader": "\\data\\ECNU\\workspace\\gridID_44\\gridID_440FS",
            "vertexShader": "\\data\\ECNU\\workspace\\gridID_44\\gridID_440VS"
        }
    },
    "scene": "defaultScene",
    "scenes": {
        "defaultScene": {
            "nodes": [
                "node_4"
            ]
        }
    },
    "shaders": {
        "\\data\\ECNU\\workspace\\gridID_44\\gridID_440FS": {
            "type": 35632,
            "uri": "data:text/plain;base64,"
        },
        "\\data\\ECNU\\workspace\\gridID_44\\gridID_440VS": {
            "type": 35633,
            "uri": "data:text/plain;base64,"
        }
    },
    "skins": {},
    "techniques": {
        "technique0": {
            "attributes": {
                "a_normal": "normal",
                "a_position": "position"
            },
            "parameters": {
                "ambient": {
                    "type": 35666
                },
                "diffuse": {
                    "type": 35666
                },
                "emission": {
                    "type": 35666
                },
                "modelViewMatrix": {
                    "semantic": "MODELVIEW",
                    "type": 35676
                },
                "normal": {
                    "semantic": "NORMAL",
                    "type": 35665
                },
                "normalMatrix": {
                    "semantic": "MODELVIEWINVERSETRANSPOSE",
                    "type": 35675
                },
                "position": {
                    "semantic": "POSITION",
                    "type": 35665
                },
                "projectionMatrix": {
                    "semantic": "PROJECTION",
                    "type": 35676
                },
                "shininess": {
                    "type": 5126
                },
                "specular": {
                    "type": 35666
                }
            },
            "program": "program_0",
            "states": {
                "enable": [
                    2929,
                    2884
                ]
            },
            "uniforms": {
                "u_ambient": "ambient",
                "u_diffuse": "diffuse",
                "u_emission": "emission",
                "u_modelViewMatrix": "modelViewMatrix",
                "u_normalMatrix": "normalMatrix",
                "u_projectionMatrix": "projectionMatrix",
                "u_shininess": "shininess",
                "u_specular": "specular"
            }
        }
    }
}