{"accessors":{"accessor_16":{"bufferView":"bufferView_82","byteOffset":0,"byteStride":0,"componentType":5123,"count":120,"type":"SCALAR"},"accessor_18":{"bufferView":"bufferView_83","byteOffset":0,"byteStride":12,"componentType":5126,"count":85,"max":[63.9361,70,10.6145],"min":[18.8295,0,-35.2813],"type":"VEC3"},"accessor_20":{"bufferView":"bufferView_83","byteOffset":1020,"byteStride":12,"componentType":5126,"count":85,"max":[0.983187,1,0.97885],"min":[-0.979052,-1,-0.967279],"type":"VEC3"},"accessor_36":{"bufferView":"bufferView_82","byteOffset":240,"byteStride":0,"componentType":5123,"count":108,"type":"SCALAR"},"accessor_38":{"bufferView":"bufferView_83","byteOffset":2040,"byteStride":12,"componentType":5126,"count":88,"max":[3.10005,70,41.4917],"min":[-43.0308,0,-5.2321],"type":"VEC3"},"accessor_40":{"bufferView":"bufferView_83","byteOffset":3096,"byteStride":12,"componentType":5126,"count":88,"max":[0.977001,1,0.972899],"min":[-0.977093,-1,-0.970302],"type":"VEC3"},"accessor_56":{"bufferView":"bufferView_82","byteOffset":456,"byteStride":0,"componentType":5123,"count":108,"type":"SCALAR"},"accessor_58":{"bufferView":"bufferView_83","byteOffset":4152,"byteStride":12,"componentType":5126,"count":80,"max":[44.7113,70,94.2475],"min":[-1.37498,0,49.1307],"type":"VEC3"},"accessor_60":{"bufferView":"bufferView_83","byteOffset":5112,"byteStride":12,"componentType":5126,"count":80,"max":[0.972892,1,0.973599],"min":[-0.966497,-1,-0.969804],"type":"VEC3"},"accessor_76":{"bufferView":"bufferView_82","byteOffset":672,"byteStride":0,"componentType":5123,"count":504,"type":"SCALAR"},"accessor_78":{"bufferView":"bufferView_83","byteOffset":6072,"byteStride":12,"componentType":5126,"count":359,"max":[36.2844,10,158.597],"min":[-43.8879,0,-41.4493],"type":"VEC3"},"accessor_80":{"bufferView":"bufferView_83","byteOffset":10380,"byteStride":12,"componentType":5126,"count":359,"max":[0.979053,1,0.980792],"min":[-0.984208,-1,-0.988129],"type":"VEC3"},"accessor_b0":{"bufferView":"bufferView_b","byteOffset":0,"byteStride":0,"componentType":5123,"count":85,"type":"SCALAR"},"accessor_b1":{"bufferView":"bufferView_b","byteOffset":170,"byteStride":0,"componentType":5123,"count":88,"type":"SCALAR"},"accessor_b2":{"bufferView":"bufferView_b","byteOffset":346,"byteStride":0,"componentType":5123,"count":80,"type":"SCALAR"},"accessor_b3":{"bufferView":"bufferView_b","byteOffset":506,"byteStride":0,"componentType":5123,"count":359,"type":"SCALAR"}},"animations":{},"asset":{"generator":"collada2gltf@cf6371beb0bdc18ba603378d5e40c966da53d385","premultipliedAlpha":true,"profile":{"api":"WebGL","version":"1.0.2"},"version":"1.0"},"bufferViews":{"bufferView_82":{"buffer":"\\data\\3dcity\\miami\\workspace\\gridID_59\\gridID_59","byteLength":1680,"byteOffset":0,"target":34963},"bufferView_83":{"buffer":"\\data\\3dcity\\miami\\workspace\\gridID_59\\gridID_59","byteLength":14688,"byteOffset":1680,"target":34962},"bufferView_b":{"buffer":"buffer_b","byteLength":1224,"byteOffset":0,"target":34962}},"buffers":{"\\data\\3dcity\\miami\\workspace\\gridID_59\\gridID_59":{"byteLength":16368,"type":"arraybuffer","uri":"data:application/octet-stream;base64,"},"buffer_b":{"type":"arraybuffer","byteLength":1224,"uri":"data:application/octet-stream;base64,"}},"materials":{"CityEngineMaterial_569-effect":{"name":"CityEngineMaterial_569","technique":"technique0","values":{"ambient":[1,1,1,1],"diffuse":[1,1,1,1],"emission":[0,0,0,1],"shininess":50,"specular":[0.5,0.5,0.5,1]}},"CityEngineMaterial_570-effect":{"name":"CityEngineMaterial_570","technique":"technique0","values":{"ambient":[1,1,1,1],"diffuse":[1,1,1,1],"emission":[0,0,0,1],"shininess":50,"specular":[0.5,0.5,0.5,1]}},"CityEngineMaterial_571-effect":{"name":"CityEngineMaterial_571","technique":"technique0","values":{"ambient":[1,1,1,1],"diffuse":[1,1,1,1],"emission":[0,0,0,1],"shininess":50,"specular":[0.5,0.5,0.5,1]}},"CityEngineMaterial_572-effect":{"name":"CityEngineMaterial_572","technique":"technique0","values":{"ambient":[1,1,1,1],"diffuse":[1,1,1,1],"emission":[0,0,0,1],"shininess":50,"specular":[0.5,0.5,0.5,1]}}},"meshes":{"mesh_CityEngineMaterial_567-mesh":{"name":"mesh_CityEngineMaterial.567","primitives":[{"attributes":{"NORMAL":"accessor_20","POSITION":"accessor_18","BATCHID":"accessor_b0"},"indices":"accessor_16","material":"CityEngineMaterial_569-effect","mode":4}]},"mesh_CityEngineMaterial_568-mesh":{"name":"mesh_CityEngineMaterial.568","primitives":[{"attributes":{"NORMAL":"accessor_40","POSITION":"accessor_38","BATCHID":"accessor_b1"},"indices":"accessor_36","material":"CityEngineMaterial_570-effect","mode":4}]},"mesh_CityEngineMaterial_569-mesh":{"name":"mesh_CityEngineMaterial.569","primitives":[{"attributes":{"NORMAL":"accessor_60","POSITION":"accessor_58","BATCHID":"accessor_b2"},"indices":"accessor_56","material":"CityEngineMaterial_571-effect","mode":4}]},"mesh_CityEngineMaterial_570-mesh":{"name":"mesh_CityEngineMaterial.570","primitives":[{"attributes":{"NORMAL":"accessor_80","POSITION":"accessor_78","BATCHID":"accessor_b3"},"indices":"accessor_76","material":"CityEngineMaterial_572-effect","mode":4}]}},"nodes":{"CityEngineMaterial":{"children":[],"matrix":[1,0,0,0,0,-1.62921e-7,1,0,0,-1,-1.62921e-7,0,0,0,0,1],"meshes":["mesh_CityEngineMaterial_567-mesh"],"name":"CityEngineMaterial"},"CityEngineMaterial_001":{"children":[],"matrix":[1,0,0,0,0,-1.62921e-7,1,0,0,-1,-1.62921e-7,0,0,0,0,1],"meshes":["mesh_CityEngineMaterial_568-mesh"],"name":"CityEngineMaterial_001"},"CityEngineMaterial_002":{"children":[],"matrix":[1,0,0,0,0,-1.62921e-7,1,0,0,-1,-1.62921e-7,0,0,0,0,1],"meshes":["mesh_CityEngineMaterial_569-mesh"],"name":"CityEngineMaterial_002"},"CityEngineMaterial_003":{"children":[],"matrix":[1,0,0,0,0,-1.62921e-7,1,0,0,-1,-1.62921e-7,0,0,0,0,1],"meshes":["mesh_CityEngineMaterial_570-mesh"],"name":"CityEngineMaterial_003"},"node_4":{"children":["CityEngineMaterial","CityEngineMaterial_001","CityEngineMaterial_002","CityEngineMaterial_003"],"matrix":[1,0,0,0,0,0,-1,0,0,1,0,0,0,0,0,1],"name":"Y_UP_Transform"}},"programs":{"program_0":{"attributes":["a_normal","a_position","a_batchId"],"fragmentShader":"\\data\\3dcity\\miami\\workspace\\gridID_59\\gridID_590FS","vertexShader":"\\data\\3dcity\\miami\\workspace\\gridID_59\\gridID_590VS"}},"scene":"defaultScene","scenes":{"defaultScene":{"nodes":["node_4"]}},"shaders":{"\\data\\3dcity\\miami\\workspace\\gridID_59\\gridID_590FS":{"type":35632,"uri":"data:text/plain;base64,"},"\\data\\3dcity\\miami\\workspace\\gridID_59\\gridID_590VS":{"type":35633,"uri":"data:text/plain;base64,"}},"skins":{},"techniques":{"technique0":{"attributes":{"a_normal":"normal","a_position":"position","a_batchId":"batchId"},"parameters":{"ambient":{"type":35666},"diffuse":{"type":35666},"emission":{"type":35666},"modelViewMatrix":{"semantic":"MODELVIEW","type":35676},"normal":{"semantic":"NORMAL","type":35665},"normalMatrix":{"semantic":"MODELVIEWINVERSETRANSPOSE","type":35675},"position":{"semantic":"POSITION","type":35665},"projectionMatrix":{"semantic":"PROJECTION","type":35676},"shininess":{"type":5126},"specular":{"type":35666},"batchId":{"semantic":"BATCHID","type":5126}},"program":"program_0","states":{"enable":[2929,2884]},"uniforms":{"u_ambient":"ambient","u_diffuse":"diffuse","u_emission":"emission","u_modelViewMatrix":"modelViewMatrix","u_normalMatrix":"normalMatrix","u_projectionMatrix":"projectionMatrix","u_shininess":"shininess","u_specular":"specular"}}}}