{"accessors":{"accessor_137":{"bufferView":"bufferView_332","byteOffset":8322,"byteStride":0,"componentType":5123,"count":66,"type":"SCALAR"},"accessor_140":{"bufferView":"bufferView_332","byteOffset":8454,"byteStride":0,"componentType":5123,"count":1149,"type":"SCALAR"},"accessor_143":{"bufferView":"bufferView_332","byteOffset":10752,"byteStride":0,"componentType":5123,"count":138,"type":"SCALAR"},"accessor_146":{"bufferView":"bufferView_332","byteOffset":11028,"byteStride":0,"componentType":5123,"count":195,"type":"SCALAR"},"accessor_148":{"bufferView":"bufferView_333","byteOffset":84720,"byteStride":12,"componentType":5126,"count":1329,"max":[19.9427,16.0411,14.331],"min":[-23.2443,-22.1634,-11.306],"type":"VEC3"},"accessor_150":{"bufferView":"bufferView_333","byteOffset":100668,"byteStride":12,"componentType":5126,"count":1329,"max":[0.96078,1,0.97422],"min":[-0.997554,-1,-0.999956],"type":"VEC3"},"accessor_202":{"bufferView":"bufferView_332","byteOffset":3966,"byteStride":0,"componentType":5123,"count":168,"type":"SCALAR"},"accessor_205":{"bufferView":"bufferView_332","byteOffset":4302,"byteStride":0,"componentType":5123,"count":156,"type":"SCALAR"},"accessor_208":{"bufferView":"bufferView_332","byteOffset":4614,"byteStride":0,"componentType":5123,"count":36,"type":"SCALAR"},"accessor_211":{"bufferView":"bufferView_332","byteOffset":4686,"byteStride":0,"componentType":5123,"count":66,"type":"SCALAR"},"accessor_213":{"bufferView":"bufferView_333","byteOffset":41616,"byteStride":12,"componentType":5126,"count":323,"max":[17.1984,5.06383,8.54418],"min":[-20.2786,-5.93617,-12.4728],"type":"VEC3"},"accessor_215":{"bufferView":"bufferView_333","byteOffset":45492,"byteStride":12,"componentType":5126,"count":323,"max":[0.959485,1,0.959829],"min":[-0.959347,-1,-0.959371],"type":"VEC3"},"accessor_243":{"bufferView":"bufferView_332","byteOffset":0,"byteStride":0,"componentType":5123,"count":30,"type":"SCALAR"},"accessor_246":{"bufferView":"bufferView_332","byteOffset":60,"byteStride":0,"componentType":5123,"count":9,"type":"SCALAR"},"accessor_248":{"bufferView":"bufferView_333","byteOffset":0,"byteStride":12,"componentType":5126,"count":25,"max":[4.828,2.5,7.11359],"min":[-4.50999,-2.5,-4.9874],"type":"VEC3"},"accessor_250":{"bufferView":"bufferView_333","byteOffset":300,"byteStride":12,"componentType":5126,"count":25,"max":[0.958993,1,0.959249],"min":[-0.958911,0,-0.958923],"type":"VEC3"},"accessor_314":{"bufferView":"bufferView_332","byteOffset":4896,"byteStride":0,"componentType":5123,"count":198,"type":"SCALAR"},"accessor_317":{"bufferView":"bufferView_332","byteOffset":5292,"byteStride":0,"componentType":5123,"count":66,"type":"SCALAR"},"accessor_320":{"bufferView":"bufferView_332","byteOffset":5424,"byteStride":0,"componentType":5123,"count":1092,"type":"SCALAR"},"accessor_323":{"bufferView":"bufferView_332","byteOffset":7608,"byteStride":0,"componentType":5123,"count":135,"type":"SCALAR"},"accessor_326":{"bufferView":"bufferView_332","byteOffset":7878,"byteStride":0,"componentType":5123,"count":222,"type":"SCALAR"},"accessor_328":{"bufferView":"bufferView_333","byteOffset":49968,"byteStride":12,"componentType":5126,"count":1448,"max":[11.9175,6.28006,16.2057],"min":[-24.3695,-6.71994,-28.2662],"type":"VEC3"},"accessor_330":{"bufferView":"bufferView_333","byteOffset":67344,"byteStride":12,"componentType":5126,"count":1448,"max":[0.999926,1,0.964207],"min":[-0.999877,-1,-0.973112],"type":"VEC3"},"accessor_40":{"bufferView":"bufferView_332","byteOffset":78,"byteStride":0,"componentType":5123,"count":1488,"type":"SCALAR"},"accessor_43":{"bufferView":"bufferView_332","byteOffset":3054,"byteStride":0,"componentType":5123,"count":114,"type":"SCALAR"},"accessor_46":{"bufferView":"bufferView_332","byteOffset":3282,"byteStride":0,"componentType":5123,"count":342,"type":"SCALAR"},"accessor_48":{"bufferView":"bufferView_333","byteOffset":600,"byteStride":12,"componentType":5126,"count":1709,"max":[27.1759,10.696,23.3022],"min":[-25.6261,-8.20404,-10.8948],"type":"VEC3"},"accessor_50":{"bufferView":"bufferView_333","byteOffset":21108,"byteStride":12,"componentType":5126,"count":1709,"max":[0.962365,1,0.959746],"min":[-0.962366,-1,-0.959954],"type":"VEC3"},"accessor_78":{"bufferView":"bufferView_332","byteOffset":4818,"byteStride":0,"componentType":5123,"count":30,"type":"SCALAR"},"accessor_81":{"bufferView":"bufferView_332","byteOffset":4878,"byteStride":0,"componentType":5123,"count":9,"type":"SCALAR"},"accessor_83":{"bufferView":"bufferView_333","byteOffset":49368,"byteStride":12,"componentType":5126,"count":25,"max":[3.8966,2.5,5.7436],"min":[-5.0314,-2.5,-4.9534],"type":"VEC3"},"accessor_85":{"bufferView":"bufferView_333","byteOffset":49668,"byteStride":12,"componentType":5126,"count":25,"max":[0.958858,1,0.959358],"min":[-0.959113,0,-0.959249],"type":"VEC3"},"accessor_b0":{"bufferView":"bufferView_b","byteOffset":0,"byteStride":0,"componentType":5123,"count":25,"type":"SCALAR"},"accessor_b1":{"bufferView":"bufferView_b","byteOffset":50,"byteStride":0,"componentType":5123,"count":1709,"type":"SCALAR"},"accessor_b2":{"bufferView":"bufferView_b","byteOffset":3468,"byteStride":0,"componentType":5123,"count":323,"type":"SCALAR"},"accessor_b3":{"bufferView":"bufferView_b","byteOffset":4114,"byteStride":0,"componentType":5123,"count":25,"type":"SCALAR"},"accessor_b4":{"bufferView":"bufferView_b","byteOffset":4164,"byteStride":0,"componentType":5123,"count":1448,"type":"SCALAR"},"accessor_b5":{"bufferView":"bufferView_b","byteOffset":7060,"byteStride":0,"componentType":5123,"count":1329,"type":"SCALAR"}},"animations":{},"asset":{"generator":"collada2gltf@cf6371beb0bdc18ba603378d5e40c966da53d385","premultipliedAlpha":true,"profile":{"api":"WebGL","version":"1.0.2"},"version":"1.0"},"bufferViews":{"bufferView_332":{"buffer":"\\data\\ECNU\\workspace\\gridID_50\\gridID_50","byteLength":11420,"byteOffset":0,"target":34963},"bufferView_333":{"buffer":"\\data\\ECNU\\workspace\\gridID_50\\gridID_50","byteLength":116616,"byteOffset":11420,"target":34962},"bufferView_b":{"buffer":"buffer_b","byteLength":9718,"byteOffset":0,"target":34962}},"buffers":{"\\data\\ECNU\\workspace\\gridID_50\\gridID_50":{"byteLength":128036,"type":"arraybuffer","uri":"data:application/octet-stream;base64,"},"buffer_b":{"type":"arraybuffer","byteLength":9718,"uri":"data:application/octet-stream;base64,"}},"materials":{"BUILDING_DEFAULT_0-effect":{"name":"BUILDING_DEFAULT_0","technique":"technique0","values":{"ambient":[0,0,0,1],"diffuse":[0.723055,0.708376,0.672443,1],"emission":[0,0,0,1],"shininess":50,"specular":[0.5,0.5,0.5,1]}},"CONCRETE_0-effect":{"name":"CONCRETE_0","technique":"technique0","values":{"ambient":[0,0,0,1],"diffuse":[0.309469,0.327778,0.309469,1],"emission":[0,0,0,1],"shininess":50,"specular":[0.5,0.5,0.5,1]}},"GLASS_0-effect":{"name":"GLASS_0","technique":"technique0","values":{"ambient":[0,0,0,1],"diffuse":[0.491021,0.665387,0.658375,1],"emission":[0,0,0,1],"shininess":50,"specular":[0.5,0.5,0.5,1]}},"GLASS_ROOF_0-effect":{"name":"GLASS_ROOF_0","technique":"technique0","values":{"ambient":[0,0,0,1],"diffuse":[0.708376,0.887923,0.83077,1],"emission":[0,0,0,1],"shininess":50,"specular":[0.5,0.5,0.5,1]}},"ROOF_DEFAULT_0-effect":{"name":"ROOF_DEFAULT_0","technique":"technique0","values":{"ambient":[0,0,0,1],"diffuse":[0.603827,0.381326,0.291771,1],"emission":[0,0,0,1],"shininess":50,"specular":[0.5,0.5,0.5,1]}}},"meshes":{"Building3394-mesh":{"name":"Building3394","primitives":[{"attributes":{"NORMAL":"accessor_250","POSITION":"accessor_248","BATCHID":"accessor_b0"},"indices":"accessor_243","material":"BUILDING_DEFAULT_0-effect","mode":4},{"attributes":{"NORMAL":"accessor_250","POSITION":"accessor_248","BATCHID":"accessor_b0"},"indices":"accessor_246","material":"ROOF_DEFAULT_0-effect","mode":4}]},"Building3571-mesh":{"name":"Building3571","primitives":[{"attributes":{"NORMAL":"accessor_50","POSITION":"accessor_48","BATCHID":"accessor_b1"},"indices":"accessor_40","material":"BUILDING_DEFAULT_0-effect","mode":4},{"attributes":{"NORMAL":"accessor_50","POSITION":"accessor_48","BATCHID":"accessor_b1"},"indices":"accessor_43","material":"ROOF_DEFAULT_0-effect","mode":4},{"attributes":{"NORMAL":"accessor_50","POSITION":"accessor_48","BATCHID":"accessor_b1"},"indices":"accessor_46","material":"CONCRETE_0-effect","mode":4}]},"Building3572-mesh":{"name":"Building3572","primitives":[{"attributes":{"NORMAL":"accessor_215","POSITION":"accessor_213","BATCHID":"accessor_b2"},"indices":"accessor_202","material":"GLASS_0-effect","mode":4},{"attributes":{"NORMAL":"accessor_215","POSITION":"accessor_213","BATCHID":"accessor_b2"},"indices":"accessor_205","material":"BUILDING_DEFAULT_0-effect","mode":4},{"attributes":{"NORMAL":"accessor_215","POSITION":"accessor_213","BATCHID":"accessor_b2"},"indices":"accessor_208","material":"ROOF_DEFAULT_0-effect","mode":4},{"attributes":{"NORMAL":"accessor_215","POSITION":"accessor_213","BATCHID":"accessor_b2"},"indices":"accessor_211","material":"CONCRETE_0-effect","mode":4}]},"Building3756-mesh":{"name":"Building3756","primitives":[{"attributes":{"NORMAL":"accessor_85","POSITION":"accessor_83","BATCHID":"accessor_b3"},"indices":"accessor_78","material":"BUILDING_DEFAULT_0-effect","mode":4},{"attributes":{"NORMAL":"accessor_85","POSITION":"accessor_83","BATCHID":"accessor_b3"},"indices":"accessor_81","material":"CONCRETE_0-effect","mode":4}]},"Building_-mesh":{"name":"Building ","primitives":[{"attributes":{"NORMAL":"accessor_330","POSITION":"accessor_328","BATCHID":"accessor_b4"},"indices":"accessor_314","material":"GLASS_0-effect","mode":4},{"attributes":{"NORMAL":"accessor_330","POSITION":"accessor_328","BATCHID":"accessor_b4"},"indices":"accessor_317","material":"GLASS_ROOF_0-effect","mode":4},{"attributes":{"NORMAL":"accessor_330","POSITION":"accessor_328","BATCHID":"accessor_b4"},"indices":"accessor_320","material":"BUILDING_DEFAULT_0-effect","mode":4},{"attributes":{"NORMAL":"accessor_330","POSITION":"accessor_328","BATCHID":"accessor_b4"},"indices":"accessor_323","material":"ROOF_DEFAULT_0-effect","mode":4},{"attributes":{"NORMAL":"accessor_330","POSITION":"accessor_328","BATCHID":"accessor_b4"},"indices":"accessor_326","material":"CONCRETE_0-effect","mode":4}]},"Building_-mesh":{"name":"Building ","primitives":[{"attributes":{"NORMAL":"accessor_150","POSITION":"accessor_148","BATCHID":"accessor_b5"},"indices":"accessor_137","material":"GLASS_0-effect","mode":4},{"attributes":{"NORMAL":"accessor_150","POSITION":"accessor_148","BATCHID":"accessor_b5"},"indices":"accessor_140","material":"BUILDING_DEFAULT_0-effect","mode":4},{"attributes":{"NORMAL":"accessor_150","POSITION":"accessor_148","BATCHID":"accessor_b5"},"indices":"accessor_143","material":"ROOF_DEFAULT_0-effect","mode":4},{"attributes":{"NORMAL":"accessor_150","POSITION":"accessor_148","BATCHID":"accessor_b5"},"indices":"accessor_146","material":"CONCRETE_0-effect","mode":4}]}},"nodes":{"model_gridID_50_w116941144":{"children":[],"matrix":[1,0,0,0,0,-1.62921e-7,1,0,0,-1,-1.62921e-7,0,-41.0829,-85.5788,8.20403,1],"meshes":["Building3571-mesh"],"name":"model_gridID_50_w116941144"},"model_gridID_50_w116941146":{"children":[],"matrix":[1,0,0,0,0,-1.62921e-7,1,0,0,-1,-1.62921e-7,0,-110.539,-69.4744,2.49999,1],"meshes":["Building3756-mesh"],"name":"model_gridID_50_w116941146"},"model_gridID_50_w116941146_001":{"children":[],"matrix":[1,0,0,0,0,-1.62921e-7,1,0,0,-1,-1.62921e-7,0,-99.0937,-40.672,22.1634,1],"meshes":["Building_-mesh"],"name":"model_gridID_50_w116941146_001"},"model_gridID_50_w116941146_002":{"children":[],"matrix":[1,0,0,0,0,-1.62921e-7,1,0,0,-1,-1.62921e-7,0,-87.9814,-67.9098,5.93616,1],"meshes":["Building3572-mesh"],"name":"model_gridID_50_w116941146_002"},"model_gridID_50_w116941146_003":{"children":[],"matrix":[1,0,0,0,0,-1.62921e-7,1,0,0,-1,-1.62921e-7,0,-114.087,-59.2664,2.49999,1],"meshes":["Building3394-mesh"],"name":"model_gridID_50_w116941146_003"},"model_gridID_50_w375411989":{"children":[],"matrix":[1,0,0,0,0,-1.62921e-7,1,0,0,-1,-1.62921e-7,0,-103.7,-21.7323,6.71993,1],"meshes":["Building_-mesh"],"name":"model_gridID_50_w375411989"},"node_6":{"children":["model_gridID_50_w116941144","model_gridID_50_w116941146","model_gridID_50_w116941146_001","model_gridID_50_w116941146_002","model_gridID_50_w116941146_003","model_gridID_50_w375411989"],"matrix":[1,0,0,0,0,0,-1,0,0,1,0,0,0,0,0,1],"name":"Y_UP_Transform"}},"programs":{"program_0":{"attributes":["a_normal","a_position","a_batchId"],"fragmentShader":"\\data\\ECNU\\workspace\\gridID_50\\gridID_500FS","vertexShader":"\\data\\ECNU\\workspace\\gridID_50\\gridID_500VS"}},"scene":"defaultScene","scenes":{"defaultScene":{"nodes":["node_6"]}},"shaders":{"\\data\\ECNU\\workspace\\gridID_50\\gridID_500FS":{"type":35632,"uri":"data:text/plain;base64,"},"\\data\\ECNU\\workspace\\gridID_50\\gridID_500VS":{"type":35633,"uri":"data:text/plain;base64,"}},"skins":{},"techniques":{"technique0":{"attributes":{"a_normal":"normal","a_position":"position","a_batchId":"batchId"},"parameters":{"ambient":{"type":35666},"diffuse":{"type":35666},"emission":{"type":35666},"modelViewMatrix":{"semantic":"MODELVIEW","type":35676},"normal":{"semantic":"NORMAL","type":35665},"normalMatrix":{"semantic":"MODELVIEWINVERSETRANSPOSE","type":35675},"position":{"semantic":"POSITION","type":35665},"projectionMatrix":{"semantic":"PROJECTION","type":35676},"shininess":{"type":5126},"specular":{"type":35666},"batchId":{"semantic":"BATCHID","type":5126}},"program":"program_0","states":{"enable":[2929,2884]},"uniforms":{"u_ambient":"ambient","u_diffuse":"diffuse","u_emission":"emission","u_modelViewMatrix":"modelViewMatrix","u_normalMatrix":"normalMatrix","u_projectionMatrix":"projectionMatrix","u_shininess":"shininess","u_specular":"specular"}}}}