{"accessors":{"accessor_106":{"bufferView":"bufferView_422","byteOffset":10680,"byteStride":0,"componentType":5123,"count":6,"type":"SCALAR"},"accessor_108":{"bufferView":"bufferView_423","byteOffset":104472,"byteStride":12,"componentType":5126,"count":4,"max":[9.77126,0,4.85101],"min":[-9.78075,0,-4.823],"type":"VEC3"},"accessor_110":{"bufferView":"bufferView_423","byteOffset":104520,"byteStride":12,"componentType":5126,"count":4,"max":[0,1,0],"min":[0,1,0],"type":"VEC3"},"accessor_16":{"bufferView":"bufferView_422","byteOffset":10692,"byteStride":0,"componentType":5123,"count":6,"type":"SCALAR"},"accessor_162":{"bufferView":"bufferView_422","byteOffset":960,"byteStride":0,"componentType":5123,"count":327,"type":"SCALAR"},"accessor_165":{"bufferView":"bufferView_422","byteOffset":1614,"byteStride":0,"componentType":5123,"count":2997,"type":"SCALAR"},"accessor_168":{"bufferView":"bufferView_422","byteOffset":7608,"byteStride":0,"componentType":5123,"count":648,"type":"SCALAR"},"accessor_171":{"bufferView":"bufferView_422","byteOffset":8904,"byteStride":0,"componentType":5123,"count":519,"type":"SCALAR"},"accessor_173":{"bufferView":"bufferView_423","byteOffset":9432,"byteStride":12,"componentType":5126,"count":3648,"max":[35.1555,28.8919,38.8953],"min":[-50.1725,-11.5493,-27.6076],"type":"VEC3"},"accessor_175":{"bufferView":"bufferView_423","byteOffset":53208,"byteStride":12,"componentType":5126,"count":3648,"max":[0.995964,1,0.994453],"min":[-0.99597,-1,-0.994558],"type":"VEC3"},"accessor_18":{"bufferView":"bufferView_423","byteOffset":104568,"byteStride":12,"componentType":5126,"count":4,"max":[17.8503,0,7.52251],"min":[-17.8837,0,-7.49449],"type":"VEC3"},"accessor_20":{"bufferView":"bufferView_423","byteOffset":104616,"byteStride":12,"componentType":5126,"count":4,"max":[0,1,0],"min":[0,1,0],"type":"VEC3"},"accessor_203":{"bufferView":"bufferView_422","byteOffset":636,"byteStride":0,"componentType":5123,"count":78,"type":"SCALAR"},"accessor_206":{"bufferView":"bufferView_422","byteOffset":792,"byteStride":0,"componentType":5123,"count":12,"type":"SCALAR"},"accessor_208":{"bufferView":"bufferView_423","byteOffset":6264,"byteStride":12,"componentType":5126,"count":84,"max":[2.62305,0.616341,2.44995],"min":[-3.01294,-0.283659,-2.77106],"type":"VEC3"},"accessor_210":{"bufferView":"bufferView_423","byteOffset":7272,"byteStride":12,"componentType":5126,"count":84,"max":[0.956061,0.989107,0.95499],"min":[-0.956063,-1,-0.955719],"type":"VEC3"},"accessor_226":{"bufferView":"bufferView_422","byteOffset":816,"byteStride":0,"componentType":5123,"count":36,"type":"SCALAR"},"accessor_228":{"bufferView":"bufferView_423","byteOffset":8280,"byteStride":12,"componentType":5126,"count":24,"max":[0.335922,1,0.432816],"min":[-0.335922,-1,-0.432846],"type":"VEC3"},"accessor_230":{"bufferView":"bufferView_423","byteOffset":8568,"byteStride":12,"componentType":5126,"count":24,"max":[0.806531,1,0.80648],"min":[-0.806531,-1,-0.80648],"type":"VEC3"},"accessor_246":{"bufferView":"bufferView_422","byteOffset":888,"byteStride":0,"componentType":5123,"count":36,"type":"SCALAR"},"accessor_248":{"bufferView":"bufferView_423","byteOffset":8856,"byteStride":12,"componentType":5126,"count":24,"max":[0.491638,1,0.199188],"min":[-0.491638,-1,-0.199188],"type":"VEC3"},"accessor_250":{"bufferView":"bufferView_423","byteOffset":9144,"byteStride":12,"componentType":5126,"count":24,"max":[0.952972,1,0.952963],"min":[-0.952942,-1,-0.952969],"type":"VEC3"},"accessor_278":{"bufferView":"bufferView_422","byteOffset":0,"byteStride":0,"componentType":5123,"count":96,"type":"SCALAR"},"accessor_281":{"bufferView":"bufferView_422","byteOffset":192,"byteStride":0,"componentType":5123,"count":42,"type":"SCALAR"},"accessor_283":{"bufferView":"bufferView_423","byteOffset":0,"byteStride":12,"componentType":5126,"count":112,"max":[0.585129,3.5,0.587921],"min":[-0.584869,-3.5,-0.592087],"type":"VEC3"},"accessor_285":{"bufferView":"bufferView_423","byteOffset":1344,"byteStride":12,"componentType":5126,"count":112,"max":[0.999262,1,0.998933],"min":[-0.999261,0,-0.995754],"type":"VEC3"},"accessor_313":{"bufferView":"bufferView_422","byteOffset":276,"byteStride":0,"componentType":5123,"count":24,"type":"SCALAR"},"accessor_316":{"bufferView":"bufferView_422","byteOffset":324,"byteStride":0,"componentType":5123,"count":9,"type":"SCALAR"},"accessor_318":{"bufferView":"bufferView_423","byteOffset":2688,"byteStride":12,"componentType":5126,"count":29,"max":[5.5458,0.770119,9.12363],"min":[-4.0112,-0.229881,-6.41638],"type":"VEC3"},"accessor_320":{"bufferView":"bufferView_423","byteOffset":3036,"byteStride":12,"componentType":5126,"count":29,"max":[0.910704,0.960915,1],"min":[-0.418439,0,-0.911318],"type":"VEC3"},"accessor_348":{"bufferView":"bufferView_422","byteOffset":342,"byteStride":0,"componentType":5123,"count":24,"type":"SCALAR"},"accessor_351":{"bufferView":"bufferView_422","byteOffset":390,"byteStride":0,"componentType":5123,"count":9,"type":"SCALAR"},"accessor_353":{"bufferView":"bufferView_423","byteOffset":3384,"byteStride":12,"componentType":5126,"count":33,"max":[4.29879,0.766151,6.46359],"min":[-5.3632,-0.233852,-9.45639],"type":"VEC3"},"accessor_355":{"bufferView":"bufferView_423","byteOffset":3780,"byteStride":12,"componentType":5126,"count":33,"max":[0.915198,0.963221,0.919863],"min":[-0.915218,0,-0.916133],"type":"VEC3"},"accessor_407":{"bufferView":"bufferView_422","byteOffset":9942,"byteStride":0,"componentType":5123,"count":24,"type":"SCALAR"},"accessor_410":{"bufferView":"bufferView_422","byteOffset":9990,"byteStride":0,"componentType":5123,"count":261,"type":"SCALAR"},"accessor_413":{"bufferView":"bufferView_422","byteOffset":10512,"byteStride":0,"componentType":5123,"count":15,"type":"SCALAR"},"accessor_416":{"bufferView":"bufferView_422","byteOffset":10542,"byteStride":0,"componentType":5123,"count":69,"type":"SCALAR"},"accessor_418":{"bufferView":"bufferView_423","byteOffset":96984,"byteStride":12,"componentType":5126,"count":312,"max":[36.6171,9.71231,21.9222],"min":[-10.3879,-5.28769,-30.6448],"type":"VEC3"},"accessor_420":{"bufferView":"bufferView_423","byteOffset":100728,"byteStride":12,"componentType":5126,"count":312,"max":[0.940225,1,0.939954],"min":[-0.938888,-1,-0.941318],"type":"VEC3"},"accessor_48":{"bufferView":"bufferView_422","byteOffset":408,"byteStride":0,"componentType":5123,"count":42,"type":"SCALAR"},"accessor_51":{"bufferView":"bufferView_422","byteOffset":492,"byteStride":0,"componentType":5123,"count":15,"type":"SCALAR"},"accessor_53":{"bufferView":"bufferView_423","byteOffset":4176,"byteStride":12,"componentType":5126,"count":35,"max":[6.59145,2.5,4.13286],"min":[-6.05956,-2.5,-5.24014],"type":"VEC3"},"accessor_55":{"bufferView":"bufferView_423","byteOffset":4596,"byteStride":12,"componentType":5126,"count":35,"max":[0.955512,1,0.955718],"min":[-0.955499,0,-0.955696],"type":"VEC3"},"accessor_83":{"bufferView":"bufferView_422","byteOffset":522,"byteStride":0,"componentType":5123,"count":42,"type":"SCALAR"},"accessor_86":{"bufferView":"bufferView_422","byteOffset":606,"byteStride":0,"componentType":5123,"count":15,"type":"SCALAR"},"accessor_88":{"bufferView":"bufferView_423","byteOffset":5016,"byteStride":12,"componentType":5126,"count":52,"max":[5.50359,1.4,7.05614],"min":[-6.30042,-1.4,-3.89786],"type":"VEC3"},"accessor_90":{"bufferView":"bufferView_423","byteOffset":5640,"byteStride":12,"componentType":5126,"count":52,"max":[0.956061,1,0.955667],"min":[-0.954853,0,-0.955613],"type":"VEC3"},"accessor_b0":{"bufferView":"bufferView_b","byteOffset":0,"byteStride":0,"componentType":5123,"count":112,"type":"SCALAR"},"accessor_b1":{"bufferView":"bufferView_b","byteOffset":224,"byteStride":0,"componentType":5123,"count":29,"type":"SCALAR"},"accessor_b2":{"bufferView":"bufferView_b","byteOffset":282,"byteStride":0,"componentType":5123,"count":33,"type":"SCALAR"},"accessor_b3":{"bufferView":"bufferView_b","byteOffset":348,"byteStride":0,"componentType":5123,"count":35,"type":"SCALAR"},"accessor_b4":{"bufferView":"bufferView_b","byteOffset":418,"byteStride":0,"componentType":5123,"count":52,"type":"SCALAR"},"accessor_b5":{"bufferView":"bufferView_b","byteOffset":522,"byteStride":0,"componentType":5123,"count":84,"type":"SCALAR"},"accessor_b6":{"bufferView":"bufferView_b","byteOffset":690,"byteStride":0,"componentType":5123,"count":24,"type":"SCALAR"},"accessor_b7":{"bufferView":"bufferView_b","byteOffset":738,"byteStride":0,"componentType":5123,"count":24,"type":"SCALAR"},"accessor_b8":{"bufferView":"bufferView_b","byteOffset":786,"byteStride":0,"componentType":5123,"count":3648,"type":"SCALAR"},"accessor_b9":{"bufferView":"bufferView_b","byteOffset":8082,"byteStride":0,"componentType":5123,"count":312,"type":"SCALAR"},"accessor_b10":{"bufferView":"bufferView_b","byteOffset":8706,"byteStride":0,"componentType":5123,"count":4,"type":"SCALAR"},"accessor_b11":{"bufferView":"bufferView_b","byteOffset":8714,"byteStride":0,"componentType":5123,"count":4,"type":"SCALAR"}},"animations":{},"asset":{"generator":"collada2gltf@cf6371beb0bdc18ba603378d5e40c966da53d385","premultipliedAlpha":true,"profile":{"api":"WebGL","version":"1.0.2"},"version":"1.0"},"bufferViews":{"bufferView_422":{"buffer":"\\data\\ECNU\\workspace\\gridID_83\\gridID_83","byteLength":10704,"byteOffset":0,"target":34963},"bufferView_423":{"buffer":"\\data\\ECNU\\workspace\\gridID_83\\gridID_83","byteLength":104664,"byteOffset":10704,"target":34962},"bufferView_b":{"buffer":"buffer_b","byteLength":8722,"byteOffset":0,"target":34962}},"buffers":{"\\data\\ECNU\\workspace\\gridID_83\\gridID_83":{"byteLength":115368,"type":"arraybuffer","uri":"data:application/octet-stream;base64,"},"buffer_b":{"type":"arraybuffer","byteLength":8722,"uri":"data:application/octet-stream;base64,"}},"materials":{"BUILDING_DEFAULT_0-effect":{"name":"BUILDING_DEFAULT_0","technique":"technique0","values":{"ambient":[0,0,0,1],"diffuse":[0.723055,0.708376,0.672443,1],"emission":[0,0,0,1],"shininess":50,"specular":[0.5,0.5,0.5,1]}},"CONCRETE_0-effect":{"name":"CONCRETE_0","technique":"technique0","values":{"ambient":[0,0,0,1],"diffuse":[0.309469,0.327778,0.309469,1],"emission":[0,0,0,1],"shininess":50,"specular":[0.5,0.5,0.5,1]}},"ENTRANCE_DEFAULT_0-effect":{"name":"ENTRANCE_DEFAULT_0","technique":"technique0","values":{"ambient":[0,0,0,1],"diffuse":[0.101961,0,0,1],"emission":[0,0,0,1],"shininess":50,"specular":[0.5,0.5,0.5,1]}},"GLASS_0-effect":{"name":"GLASS_0","technique":"technique0","values":{"ambient":[0,0,0,1],"diffuse":[0.491021,0.665387,0.658375,1],"emission":[0,0,0,1],"shininess":50,"specular":[0.5,0.5,0.5,1]}},"ROOF_DEFAULT_0-effect":{"name":"ROOF_DEFAULT_0","technique":"technique0","values":{"ambient":[0,0,0,1],"diffuse":[0.603827,0.381326,0.291771,1],"emission":[0,0,0,1],"shininess":50,"specular":[0.5,0.5,0.5,1]}}},"meshes":{"Building3474-mesh":{"name":"Building3474","primitives":[{"attributes":{"NORMAL":"accessor_285","POSITION":"accessor_283","BATCHID":"accessor_b0"},"indices":"accessor_278","material":"BUILDING_DEFAULT_0-effect","mode":4},{"attributes":{"NORMAL":"accessor_285","POSITION":"accessor_283","BATCHID":"accessor_b0"},"indices":"accessor_281","material":"ROOF_DEFAULT_0-effect","mode":4}]},"Building3947-mesh":{"name":"Building3947","primitives":[{"attributes":{"NORMAL":"accessor_320","POSITION":"accessor_318","BATCHID":"accessor_b1"},"indices":"accessor_313","material":"BUILDING_DEFAULT_0-effect","mode":4},{"attributes":{"NORMAL":"accessor_320","POSITION":"accessor_318","BATCHID":"accessor_b1"},"indices":"accessor_316","material":"ROOF_DEFAULT_0-effect","mode":4}]},"Building3948-mesh":{"name":"Building3948","primitives":[{"attributes":{"NORMAL":"accessor_355","POSITION":"accessor_353","BATCHID":"accessor_b2"},"indices":"accessor_348","material":"BUILDING_DEFAULT_0-effect","mode":4},{"attributes":{"NORMAL":"accessor_355","POSITION":"accessor_353","BATCHID":"accessor_b2"},"indices":"accessor_351","material":"ROOF_DEFAULT_0-effect","mode":4}]},"Building3978-mesh":{"name":"Building3978","primitives":[{"attributes":{"NORMAL":"accessor_55","POSITION":"accessor_53","BATCHID":"accessor_b3"},"indices":"accessor_48","material":"BUILDING_DEFAULT_0-effect","mode":4},{"attributes":{"NORMAL":"accessor_55","POSITION":"accessor_53","BATCHID":"accessor_b3"},"indices":"accessor_51","material":"CONCRETE_0-effect","mode":4}]},"Building4001-mesh":{"name":"Building4001","primitives":[{"attributes":{"NORMAL":"accessor_90","POSITION":"accessor_88","BATCHID":"accessor_b4"},"indices":"accessor_83","material":"BUILDING_DEFAULT_0-effect","mode":4},{"attributes":{"NORMAL":"accessor_90","POSITION":"accessor_88","BATCHID":"accessor_b4"},"indices":"accessor_86","material":"CONCRETE_0-effect","mode":4}]},"Building4206-mesh":{"name":"Building4206","primitives":[{"attributes":{"NORMAL":"accessor_210","POSITION":"accessor_208","BATCHID":"accessor_b5"},"indices":"accessor_203","material":"BUILDING_DEFAULT_0-effect","mode":4},{"attributes":{"NORMAL":"accessor_210","POSITION":"accessor_208","BATCHID":"accessor_b5"},"indices":"accessor_206","material":"ROOF_DEFAULT_0-effect","mode":4}]},"BuildingEntrance324-mesh":{"name":"BuildingEntrance324","primitives":[{"attributes":{"NORMAL":"accessor_230","POSITION":"accessor_228","BATCHID":"accessor_b6"},"indices":"accessor_226","material":"ENTRANCE_DEFAULT_0-effect","mode":4}]},"BuildingEntrance985-mesh":{"name":"BuildingEntrance985","primitives":[{"attributes":{"NORMAL":"accessor_250","POSITION":"accessor_248","BATCHID":"accessor_b7"},"indices":"accessor_246","material":"ENTRANCE_DEFAULT_0-effect","mode":4}]},"Building_-mesh":{"name":"Building ","primitives":[{"attributes":{"NORMAL":"accessor_175","POSITION":"accessor_173","BATCHID":"accessor_b8"},"indices":"accessor_162","material":"GLASS_0-effect","mode":4},{"attributes":{"NORMAL":"accessor_175","POSITION":"accessor_173","BATCHID":"accessor_b8"},"indices":"accessor_165","material":"BUILDING_DEFAULT_0-effect","mode":4},{"attributes":{"NORMAL":"accessor_175","POSITION":"accessor_173","BATCHID":"accessor_b8"},"indices":"accessor_168","material":"ROOF_DEFAULT_0-effect","mode":4},{"attributes":{"NORMAL":"accessor_175","POSITION":"accessor_173","BATCHID":"accessor_b8"},"indices":"accessor_171","material":"CONCRETE_0-effect","mode":4}]},"Building_-mesh":{"name":"Building ","primitives":[{"attributes":{"NORMAL":"accessor_420","POSITION":"accessor_418","BATCHID":"accessor_b9"},"indices":"accessor_407","material":"GLASS_0-effect","mode":4},{"attributes":{"NORMAL":"accessor_420","POSITION":"accessor_418","BATCHID":"accessor_b9"},"indices":"accessor_410","material":"BUILDING_DEFAULT_0-effect","mode":4},{"attributes":{"NORMAL":"accessor_420","POSITION":"accessor_418","BATCHID":"accessor_b9"},"indices":"accessor_413","material":"ROOF_DEFAULT_0-effect","mode":4},{"attributes":{"NORMAL":"accessor_420","POSITION":"accessor_418","BATCHID":"accessor_b9"},"indices":"accessor_416","material":"CONCRETE_0-effect","mode":4}]},"SurfaceParking3675-mesh":{"name":"SurfaceParking3675","primitives":[{"attributes":{"NORMAL":"accessor_110","POSITION":"accessor_108","BATCHID":"accessor_b10"},"indices":"accessor_106","material":"CONCRETE_0-effect","mode":4}]},"SurfaceParking3676-mesh":{"name":"SurfaceParking3676","primitives":[{"attributes":{"NORMAL":"accessor_20","POSITION":"accessor_18","BATCHID":"accessor_b11"},"indices":"accessor_16","material":"CONCRETE_0-effect","mode":4}]}},"nodes":{"model_gridID_83_r5699952":{"children":[],"matrix":[1,0,0,0,0,-1.62921e-7,1,0,0,-1,-1.62921e-7,0,-161.359,236.097,0.0000384652,1],"meshes":["SurfaceParking3676-mesh"],"name":"model_gridID_83_r5699952"},"model_gridID_83_r5699952_001":{"children":[],"matrix":[1,0,0,0,0,-1.62921e-7,1,0,0,-1,-1.62921e-7,0,-174.116,184.773,2.50003,1],"meshes":["Building3978-mesh"],"name":"model_gridID_83_r5699952_001"},"model_gridID_83_r5699952_002":{"children":[],"matrix":[1,0,0,0,0,-1.62921e-7,1,0,0,-1,-1.62921e-7,0,-170.04,178.701,1.40003,1],"meshes":["Building4001-mesh"],"name":"model_gridID_83_r5699952_002"},"model_gridID_83_r5699952_003":{"children":[],"matrix":[1,0,0,0,0,-1.62921e-7,1,0,0,-1,-1.62921e-7,0,-126.465,247.419,0.0000403097,1],"meshes":["SurfaceParking3675-mesh"],"name":"model_gridID_83_r5699952_003"},"model_gridID_83_r5699952_004":{"children":[],"matrix":[1,0,0,0,0,-1.62921e-7,1,0,0,-1,-1.62921e-7,0,-126.833,218.511,11.1081,1],"meshes":["Building_-mesh"],"name":"model_gridID_83_r5699952_004"},"model_gridID_83_r5699952_005":{"children":[],"matrix":[1,0,0,0,0,-1.62921e-7,1,0,0,-1,-1.62921e-7,0,-168.958,181.197,3.18369,1],"meshes":["Building4206-mesh"],"name":"model_gridID_83_r5699952_005"},"model_gridID_83_r5699952_006":{"children":[],"matrix":[1,0,0,0,0,-1.62921e-7,1,0,0,-1,-1.62921e-7,0,-111.068,195.679,1.00003,1],"meshes":["BuildingEntrance324-mesh"],"name":"model_gridID_83_r5699952_006"},"model_gridID_83_r5699952_007":{"children":[],"matrix":[1,0,0,0,0,-1.62921e-7,1,0,0,-1,-1.62921e-7,0,-138.311,238.995,1.00004,1],"meshes":["BuildingEntrance985-mesh"],"name":"model_gridID_83_r5699952_007"},"model_gridID_83_r5699952_008":{"children":[],"matrix":[1,0,0,0,0,-1.62921e-7,1,0,0,-1,-1.62921e-7,0,-102.277,241.898,3.50004,1],"meshes":["Building3474-mesh"],"name":"model_gridID_83_r5699952_008"},"model_gridID_83_w375923702":{"children":[],"matrix":[1,0,0,0,0,-1.62921e-7,1,0,0,-1,-1.62921e-7,0,-93.0448,302.166,0.22993,1],"meshes":["Building3947-mesh"],"name":"model_gridID_83_w375923702"},"model_gridID_83_w375923703":{"children":[],"matrix":[1,0,0,0,0,-1.62921e-7,1,0,0,-1,-1.62921e-7,0,-83.6398,281.315,0.233895,1],"meshes":["Building3948-mesh"],"name":"model_gridID_83_w375923703"},"model_gridID_83_w380054521":{"children":[],"matrix":[1,0,0,0,0,-1.62921e-7,1,0,0,-1,-1.62921e-7,0,-72.2661,316.533,5.28774,1],"meshes":["Building_-mesh"],"name":"model_gridID_83_w380054521"},"node_12":{"children":["model_gridID_83_r5699952","model_gridID_83_r5699952_001","model_gridID_83_r5699952_002","model_gridID_83_r5699952_003","model_gridID_83_r5699952_004","model_gridID_83_r5699952_005","model_gridID_83_r5699952_006","model_gridID_83_r5699952_007","model_gridID_83_r5699952_008","model_gridID_83_w375923702","model_gridID_83_w375923703","model_gridID_83_w380054521"],"matrix":[1,0,0,0,0,0,-1,0,0,1,0,0,0,0,0,1],"name":"Y_UP_Transform"}},"programs":{"program_0":{"attributes":["a_normal","a_position","a_batchId"],"fragmentShader":"\\data\\ECNU\\workspace\\gridID_83\\gridID_830FS","vertexShader":"\\data\\ECNU\\workspace\\gridID_83\\gridID_830VS"}},"scene":"defaultScene","scenes":{"defaultScene":{"nodes":["node_12"]}},"shaders":{"\\data\\ECNU\\workspace\\gridID_83\\gridID_830FS":{"type":35632,"uri":"data:text/plain;base64,"},"\\data\\ECNU\\workspace\\gridID_83\\gridID_830VS":{"type":35633,"uri":"data:text/plain;base64,"}},"skins":{},"techniques":{"technique0":{"attributes":{"a_normal":"normal","a_position":"position","a_batchId":"batchId"},"parameters":{"ambient":{"type":35666},"diffuse":{"type":35666},"emission":{"type":35666},"modelViewMatrix":{"semantic":"MODELVIEW","type":35676},"normal":{"semantic":"NORMAL","type":35665},"normalMatrix":{"semantic":"MODELVIEWINVERSETRANSPOSE","type":35675},"position":{"semantic":"POSITION","type":35665},"projectionMatrix":{"semantic":"PROJECTION","type":35676},"shininess":{"type":5126},"specular":{"type":35666},"batchId":{"semantic":"BATCHID","type":5126}},"program":"program_0","states":{"enable":[2929,2884]},"uniforms":{"u_ambient":"ambient","u_diffuse":"diffuse","u_emission":"emission","u_modelViewMatrix":"modelViewMatrix","u_normalMatrix":"normalMatrix","u_projectionMatrix":"projectionMatrix","u_shininess":"shininess","u_specular":"specular"}}}}