{"accessors":{"accessor_100":{"bufferView":"bufferView_103","byteOffset":7368,"byteStride":12,"componentType":5126,"count":30,"max":[0.972129,1,0.971064],"min":[-0.99908,-1,-0.972314],"type":"VEC3"},"accessor_16":{"bufferView":"bufferView_102","byteOffset":0,"byteStride":0,"componentType":5123,"count":36,"type":"SCALAR"},"accessor_18":{"bufferView":"bufferView_103","byteOffset":0,"byteStride":12,"componentType":5126,"count":32,"max":[42.1935,147,-42.9343],"min":[-12.9764,0,-90.5866],"type":"VEC3"},"accessor_20":{"bufferView":"bufferView_103","byteOffset":384,"byteStride":12,"componentType":5126,"count":32,"max":[0.970423,1,0.97044],"min":[-0.970442,-1,-0.970379],"type":"VEC3"},"accessor_36":{"bufferView":"bufferView_102","byteOffset":72,"byteStride":0,"componentType":5123,"count":36,"type":"SCALAR"},"accessor_38":{"bufferView":"bufferView_103","byteOffset":768,"byteStride":12,"componentType":5126,"count":32,"max":[74.6432,35,-34.9367],"min":[33.1989,0,-79.0908],"type":"VEC3"},"accessor_40":{"bufferView":"bufferView_103","byteOffset":1152,"byteStride":12,"componentType":5126,"count":32,"max":[0.974169,1,0.971913],"min":[-0.970423,-1,-0.971968],"type":"VEC3"},"accessor_56":{"bufferView":"bufferView_102","byteOffset":144,"byteStride":0,"componentType":5123,"count":132,"type":"SCALAR"},"accessor_58":{"bufferView":"bufferView_103","byteOffset":1536,"byteStride":12,"componentType":5126,"count":97,"max":[93.3003,140,75.5343],"min":[19.4509,0,23.2471],"type":"VEC3"},"accessor_60":{"bufferView":"bufferView_103","byteOffset":2700,"byteStride":12,"componentType":5126,"count":97,"max":[0.974518,1,0.974548],"min":[-0.97477,-1,-0.974552],"type":"VEC3"},"accessor_76":{"bufferView":"bufferView_102","byteOffset":408,"byteStride":0,"componentType":5123,"count":180,"type":"SCALAR"},"accessor_78":{"bufferView":"bufferView_103","byteOffset":3864,"byteStride":12,"componentType":5126,"count":131,"max":[95.3708,38.5,84.4714],"min":[12.4378,0,15.2989],"type":"VEC3"},"accessor_80":{"bufferView":"bufferView_103","byteOffset":5436,"byteStride":12,"componentType":5126,"count":131,"max":[0.97908,1,0.974552],"min":[-0.974487,-1,-0.974547],"type":"VEC3"},"accessor_96":{"bufferView":"bufferView_102","byteOffset":768,"byteStride":0,"componentType":5123,"count":36,"type":"SCALAR"},"accessor_98":{"bufferView":"bufferView_103","byteOffset":7008,"byteStride":12,"componentType":5126,"count":30,"max":[-19.7335,88,-65.716],"min":[-62.6806,0,-103.64],"type":"VEC3"},"accessor_b0":{"bufferView":"bufferView_b","byteOffset":0,"byteStride":0,"componentType":5123,"count":32,"type":"SCALAR"},"accessor_b1":{"bufferView":"bufferView_b","byteOffset":64,"byteStride":0,"componentType":5123,"count":32,"type":"SCALAR"},"accessor_b2":{"bufferView":"bufferView_b","byteOffset":128,"byteStride":0,"componentType":5123,"count":97,"type":"SCALAR"},"accessor_b3":{"bufferView":"bufferView_b","byteOffset":322,"byteStride":0,"componentType":5123,"count":131,"type":"SCALAR"},"accessor_b4":{"bufferView":"bufferView_b","byteOffset":584,"byteStride":0,"componentType":5123,"count":30,"type":"SCALAR"}},"animations":{},"asset":{"generator":"collada2gltf@cf6371beb0bdc18ba603378d5e40c966da53d385","premultipliedAlpha":true,"profile":{"api":"WebGL","version":"1.0.2"},"version":"1.0"},"bufferViews":{"bufferView_102":{"buffer":"\\data\\3dcity\\miami\\workspace\\gridID_74\\gridID_74","byteLength":840,"byteOffset":0,"target":34963},"bufferView_103":{"buffer":"\\data\\3dcity\\miami\\workspace\\gridID_74\\gridID_74","byteLength":7728,"byteOffset":840,"target":34962},"bufferView_b":{"buffer":"buffer_b","byteLength":644,"byteOffset":0,"target":34962}},"buffers":{"\\data\\3dcity\\miami\\workspace\\gridID_74\\gridID_74":{"byteLength":8568,"type":"arraybuffer","uri":"data:application/octet-stream;base64,"},"buffer_b":{"type":"arraybuffer","byteLength":644,"uri":"data:application/octet-stream;base64,"}},"materials":{"CityEngineMaterial_633-effect":{"name":"CityEngineMaterial_633","technique":"technique0","values":{"ambient":[1,1,1,1],"diffuse":[1,1,1,1],"emission":[0,0,0,1],"shininess":50,"specular":[0.5,0.5,0.5,1]}},"CityEngineMaterial_634-effect":{"name":"CityEngineMaterial_634","technique":"technique0","values":{"ambient":[1,1,1,1],"diffuse":[1,1,1,1],"emission":[0,0,0,1],"shininess":50,"specular":[0.5,0.5,0.5,1]}},"CityEngineMaterial_635-effect":{"name":"CityEngineMaterial_635","technique":"technique0","values":{"ambient":[1,1,1,1],"diffuse":[1,1,1,1],"emission":[0,0,0,1],"shininess":50,"specular":[0.5,0.5,0.5,1]}},"CityEngineMaterial_636-effect":{"name":"CityEngineMaterial_636","technique":"technique0","values":{"ambient":[1,1,1,1],"diffuse":[1,1,1,1],"emission":[0,0,0,1],"shininess":50,"specular":[0.5,0.5,0.5,1]}},"CityEngineMaterial_637-effect":{"name":"CityEngineMaterial_637","technique":"technique0","values":{"ambient":[1,1,1,1],"diffuse":[1,1,1,1],"emission":[0,0,0,1],"shininess":50,"specular":[0.5,0.5,0.5,1]}}},"meshes":{"mesh_CityEngineMaterial_631-mesh":{"name":"mesh_CityEngineMaterial.631","primitives":[{"attributes":{"NORMAL":"accessor_20","POSITION":"accessor_18","BATCHID":"accessor_b0"},"indices":"accessor_16","material":"CityEngineMaterial_633-effect","mode":4}]},"mesh_CityEngineMaterial_632-mesh":{"name":"mesh_CityEngineMaterial.632","primitives":[{"attributes":{"NORMAL":"accessor_40","POSITION":"accessor_38","BATCHID":"accessor_b1"},"indices":"accessor_36","material":"CityEngineMaterial_634-effect","mode":4}]},"mesh_CityEngineMaterial_633-mesh":{"name":"mesh_CityEngineMaterial.633","primitives":[{"attributes":{"NORMAL":"accessor_60","POSITION":"accessor_58","BATCHID":"accessor_b2"},"indices":"accessor_56","material":"CityEngineMaterial_635-effect","mode":4}]},"mesh_CityEngineMaterial_634-mesh":{"name":"mesh_CityEngineMaterial.634","primitives":[{"attributes":{"NORMAL":"accessor_80","POSITION":"accessor_78","BATCHID":"accessor_b3"},"indices":"accessor_76","material":"CityEngineMaterial_636-effect","mode":4}]},"mesh_CityEngineMaterial_635-mesh":{"name":"mesh_CityEngineMaterial.635","primitives":[{"attributes":{"NORMAL":"accessor_100","POSITION":"accessor_98","BATCHID":"accessor_b4"},"indices":"accessor_96","material":"CityEngineMaterial_637-effect","mode":4}]}},"nodes":{"CityEngineMaterial":{"children":[],"matrix":[1,0,0,0,0,-1.62921e-7,1,0,0,-1,-1.62921e-7,0,0,0,0,1],"meshes":["mesh_CityEngineMaterial_631-mesh"],"name":"CityEngineMaterial"},"CityEngineMaterial_001":{"children":[],"matrix":[1,0,0,0,0,-1.62921e-7,1,0,0,-1,-1.62921e-7,0,0,0,0,1],"meshes":["mesh_CityEngineMaterial_632-mesh"],"name":"CityEngineMaterial_001"},"CityEngineMaterial_002":{"children":[],"matrix":[1,0,0,0,0,-1.62921e-7,1,0,0,-1,-1.62921e-7,0,0,0,0,1],"meshes":["mesh_CityEngineMaterial_633-mesh"],"name":"CityEngineMaterial_002"},"CityEngineMaterial_003":{"children":[],"matrix":[1,0,0,0,0,-1.62921e-7,1,0,0,-1,-1.62921e-7,0,0,0,0,1],"meshes":["mesh_CityEngineMaterial_634-mesh"],"name":"CityEngineMaterial_003"},"CityEngineMaterial_004":{"children":[],"matrix":[1,0,0,0,0,-1.62921e-7,1,0,0,-1,-1.62921e-7,0,0,0,0,1],"meshes":["mesh_CityEngineMaterial_635-mesh"],"name":"CityEngineMaterial_004"},"node_5":{"children":["CityEngineMaterial","CityEngineMaterial_001","CityEngineMaterial_002","CityEngineMaterial_003","CityEngineMaterial_004"],"matrix":[1,0,0,0,0,0,-1,0,0,1,0,0,0,0,0,1],"name":"Y_UP_Transform"}},"programs":{"program_0":{"attributes":["a_normal","a_position","a_batchId"],"fragmentShader":"\\data\\3dcity\\miami\\workspace\\gridID_74\\gridID_740FS","vertexShader":"\\data\\3dcity\\miami\\workspace\\gridID_74\\gridID_740VS"}},"scene":"defaultScene","scenes":{"defaultScene":{"nodes":["node_5"]}},"shaders":{"\\data\\3dcity\\miami\\workspace\\gridID_74\\gridID_740FS":{"type":35632,"uri":"data:text/plain;base64,"},"\\data\\3dcity\\miami\\workspace\\gridID_74\\gridID_740VS":{"type":35633,"uri":"data:text/plain;base64,"}},"skins":{},"techniques":{"technique0":{"attributes":{"a_normal":"normal","a_position":"position","a_batchId":"batchId"},"parameters":{"ambient":{"type":35666},"diffuse":{"type":35666},"emission":{"type":35666},"modelViewMatrix":{"semantic":"MODELVIEW","type":35676},"normal":{"semantic":"NORMAL","type":35665},"normalMatrix":{"semantic":"MODELVIEWINVERSETRANSPOSE","type":35675},"position":{"semantic":"POSITION","type":35665},"projectionMatrix":{"semantic":"PROJECTION","type":35676},"shininess":{"type":5126},"specular":{"type":35666},"batchId":{"semantic":"BATCHID","type":5126}},"program":"program_0","states":{"enable":[2929,2884]},"uniforms":{"u_ambient":"ambient","u_diffuse":"diffuse","u_emission":"emission","u_modelViewMatrix":"modelViewMatrix","u_normalMatrix":"normalMatrix","u_projectionMatrix":"projectionMatrix","u_shininess":"shininess","u_specular":"specular"}}}}