{
    "accessors": {
        "accessor_16": {
            "bufferView": "bufferView_42",
            "byteOffset": 0,
            "byteStride": 0,
            "componentType": 5123,
            "count": 156,
            "type": "SCALAR"
        },
        "accessor_18": {
            "bufferView": "bufferView_43",
            "byteOffset": 0,
            "byteStride": 12,
            "componentType": 5126,
            "count": 108,
            "max": [
                -29.2106,
                31,
                -19.4313
            ],
            "min": [
                -62.3282,
                0,
                -58.4527
            ],
            "type": "VEC3"
        },
        "accessor_20": {
            "bufferView": "bufferView_43",
            "byteOffset": 1296,
            "byteStride": 12,
            "componentType": 5126,
            "count": 108,
            "max": [
                0.810217,
                1,
                0.807144
            ],
            "min": [
                -0.81231,
                -1,
                -0.808938
            ],
            "type": "VEC3"
        },
        "accessor_36": {
            "bufferView": "bufferView_42",
            "byteOffset": 312,
            "byteStride": 0,
            "componentType": 5123,
            "count": 84,
            "type": "SCALAR"
        },
        "accessor_38": {
            "bufferView": "bufferView_43",
            "byteOffset": 2592,
            "byteStride": 12,
            "componentType": 5126,
            "count": 60,
            "max": [
                -48.6915,
                31,
                -45.2148
            ],
            "min": [
                -85.8166,
                0,
                -70.0467
            ],
            "type": "VEC3"
        },
        "accessor_40": {
            "bufferView": "bufferView_43",
            "byteOffset": 3312,
            "byteStride": 12,
            "componentType": 5126,
            "count": 60,
            "max": [
                0.77674,
                1,
                0.773063
            ],
            "min": [
                -0.776763,
                -1,
                -0.77366
            ],
            "type": "VEC3"
        }
    },
    "animations": {},
    "asset": {
        "generator": "collada2gltf@cf6371beb0bdc18ba603378d5e40c966da53d385",
        "premultipliedAlpha": true,
        "profile": {
            "api": "WebGL",
            "version": "1.0.2"
        },
        "version": "1.0"
    },
    "bufferViews": {
        "bufferView_42": {
            "buffer": "\\data\\3dcity\\miami\\workspace\\gridID_17\\gridID_17",
            "byteLength": 480,
            "byteOffset": 0,
            "target": 34963
        },
        "bufferView_43": {
            "buffer": "\\data\\3dcity\\miami\\workspace\\gridID_17\\gridID_17",
            "byteLength": 4032,
            "byteOffset": 480,
            "target": 34962
        }
    },
    "buffers": {
        "\\data\\3dcity\\miami\\workspace\\gridID_17\\gridID_17": {
            "byteLength": 4512,
            "type": "arraybuffer",
            "uri": "data:application/octet-stream;base64,"
        }
    },
    "materials": {
        "CityEngineMaterial_336-effect": {
            "name": "CityEngineMaterial_336",
            "technique": "technique0",
            "values": {
                "ambient": [
                    1,
                    1,
                    1,
                    1
                ],
                "diffuse": [
                    1,
                    1,
                    1,
                    1
                ],
                "emission": [
                    0,
                    0,
                    0,
                    1
                ],
                "shininess": 50,
                "specular": [
                    0.5,
                    0.5,
                    0.5,
                    1
                ]
            }
        },
        "CityEngineMaterial_337-effect": {
            "name": "CityEngineMaterial_337",
            "technique": "technique0",
            "values": {
                "ambient": [
                    1,
                    1,
                    1,
                    1
                ],
                "diffuse": [
                    1,
                    1,
                    1,
                    1
                ],
                "emission": [
                    0,
                    0,
                    0,
                    1
                ],
                "shininess": 50,
                "specular": [
                    0.5,
                    0.5,
                    0.5,
                    1
                ]
            }
        }
    },
    "meshes": {
        "mesh_CityEngineMaterial_335-mesh": {
            "name": "mesh_CityEngineMaterial.335",
            "primitives": [
                {
                    "attributes": {
                        "NORMAL": "accessor_20",
                        "POSITION": "accessor_18"
                    },
                    "indices": "accessor_16",
                    "material": "CityEngineMaterial_336-effect",
                    "mode": 4
                }
            ]
        },
        "mesh_CityEngineMaterial_336-mesh": {
            "name": "mesh_CityEngineMaterial.336",
            "primitives": [
                {
                    "attributes": {
                        "NORMAL": "accessor_40",
                        "POSITION": "accessor_38"
                    },
                    "indices": "accessor_36",
                    "material": "CityEngineMaterial_337-effect",
                    "mode": 4
                }
            ]
        }
    },
    "nodes": {
        "CityEngineMaterial": {
            "children": [],
            "matrix": [
                1,
                0,
                0,
                0,
                0,
                -1.62921e-007,
                1,
                0,
                0,
                -1,
                -1.62921e-007,
                0,
                0,
                0,
                0,
                1
            ],
            "meshes": [
                "mesh_CityEngineMaterial_335-mesh"
            ],
            "name": "CityEngineMaterial"
        },
        "CityEngineMaterial_001": {
            "children": [],
            "matrix": [
                1,
                0,
                0,
                0,
                0,
                -1.62921e-007,
                1,
                0,
                0,
                -1,
                -1.62921e-007,
                0,
                0,
                0,
                0,
                1
            ],
            "meshes": [
                "mesh_CityEngineMaterial_336-mesh"
            ],
            "name": "CityEngineMaterial_001"
        },
        "node_2": {
            "children": [
                "CityEngineMaterial",
                "CityEngineMaterial_001"
            ],
            "matrix": [
                1,
                0,
                0,
                0,
                0,
                0,
                -1,
                0,
                0,
                1,
                0,
                0,
                0,
                0,
                0,
                1
            ],
            "name": "Y_UP_Transform"
        }
    },
    "programs": {
        "program_0": {
            "attributes": [
                "a_normal",
                "a_position"
            ],
            "fragmentShader": "\\data\\3dcity\\miami\\workspace\\gridID_17\\gridID_170FS",
            "vertexShader": "\\data\\3dcity\\miami\\workspace\\gridID_17\\gridID_170VS"
        }
    },
    "scene": "defaultScene",
    "scenes": {
        "defaultScene": {
            "nodes": [
                "node_2"
            ]
        }
    },
    "shaders": {
        "\\data\\3dcity\\miami\\workspace\\gridID_17\\gridID_170FS": {
            "type": 35632,
            "uri": "data:text/plain;base64,"
        },
        "\\data\\3dcity\\miami\\workspace\\gridID_17\\gridID_170VS": {
            "type": 35633,
            "uri": "data:text/plain;base64,"
        }
    },
    "skins": {},
    "techniques": {
        "technique0": {
            "attributes": {
                "a_normal": "normal",
                "a_position": "position"
            },
            "parameters": {
                "ambient": {
                    "type": 35666
                },
                "diffuse": {
                    "type": 35666
                },
                "emission": {
                    "type": 35666
                },
                "modelViewMatrix": {
                    "semantic": "MODELVIEW",
                    "type": 35676
                },
                "normal": {
                    "semantic": "NORMAL",
                    "type": 35665
                },
                "normalMatrix": {
                    "semantic": "MODELVIEWINVERSETRANSPOSE",
                    "type": 35675
                },
                "position": {
                    "semantic": "POSITION",
                    "type": 35665
                },
                "projectionMatrix": {
                    "semantic": "PROJECTION",
                    "type": 35676
                },
                "shininess": {
                    "type": 5126
                },
                "specular": {
                    "type": 35666
                }
            },
            "program": "program_0",
            "states": {
                "enable": [
                    2929,
                    2884
                ]
            },
            "uniforms": {
                "u_ambient": "ambient",
                "u_diffuse": "diffuse",
                "u_emission": "emission",
                "u_modelViewMatrix": "modelViewMatrix",
                "u_normalMatrix": "normalMatrix",
                "u_projectionMatrix": "projectionMatrix",
                "u_shininess": "shininess",
                "u_specular": "specular"
            }
        }
    }
}