{"accessors":{"accessor_101":{"bufferView":"bufferView_177","byteOffset":684,"byteStride":0,"componentType":5123,"count":111,"type":"SCALAR"},"accessor_103":{"bufferView":"bufferView_178","byteOffset":2112,"byteStride":12,"componentType":5126,"count":244,"max":[25.5273,9.45946,21.3609],"min":[-18.8797,-8.04054,-14.719],"type":"VEC3"},"accessor_105":{"bufferView":"bufferView_178","byteOffset":5040,"byteStride":12,"componentType":5126,"count":244,"max":[0.999888,1,0.998208],"min":[-0.996566,0,-0.996777],"type":"VEC3"},"accessor_133":{"bufferView":"bufferView_177","byteOffset":1038,"byteStride":0,"componentType":5123,"count":60,"type":"SCALAR"},"accessor_136":{"bufferView":"bufferView_177","byteOffset":1158,"byteStride":0,"componentType":5123,"count":24,"type":"SCALAR"},"accessor_138":{"bufferView":"bufferView_178","byteOffset":9000,"byteStride":12,"componentType":5126,"count":70,"max":[7.79202,3.75,4.12714],"min":[-9.27498,-3.75,-7.5069],"type":"VEC3"},"accessor_140":{"bufferView":"bufferView_178","byteOffset":9840,"byteStride":12,"componentType":5126,"count":70,"max":[0.938775,1,0.994188],"min":[-0.930767,0,-0.928784],"type":"VEC3"},"accessor_168":{"bufferView":"bufferView_177","byteOffset":906,"byteStride":0,"componentType":5123,"count":48,"type":"SCALAR"},"accessor_171":{"bufferView":"bufferView_177","byteOffset":1002,"byteStride":0,"componentType":5123,"count":18,"type":"SCALAR"},"accessor_173":{"bufferView":"bufferView_178","byteOffset":7968,"byteStride":12,"componentType":5126,"count":43,"max":[12.5054,3.75,7.15936],"min":[-13.5666,-3.75,-9.24963],"type":"VEC3"},"accessor_175":{"bufferView":"bufferView_178","byteOffset":8484,"byteStride":12,"componentType":5126,"count":43,"max":[0.929105,1,0.929353],"min":[-0.929031,0,-0.928771],"type":"VEC3"},"accessor_28":{"bufferView":"bufferView_177","byteOffset":0,"byteStride":0,"componentType":5123,"count":36,"type":"SCALAR"},"accessor_31":{"bufferView":"bufferView_177","byteOffset":72,"byteStride":0,"componentType":5123,"count":12,"type":"SCALAR"},"accessor_33":{"bufferView":"bufferView_178","byteOffset":0,"byteStride":12,"componentType":5126,"count":33,"max":[11.5739,3.75,9.7688],"min":[-13.6331,-3.75,-11.1492],"type":"VEC3"},"accessor_35":{"bufferView":"bufferView_178","byteOffset":396,"byteStride":12,"componentType":5126,"count":33,"max":[0.810151,1,0.810388],"min":[-0.809605,0,-0.810141],"type":"VEC3"},"accessor_63":{"bufferView":"bufferView_177","byteOffset":96,"byteStride":0,"componentType":5123,"count":48,"type":"SCALAR"},"accessor_66":{"bufferView":"bufferView_177","byteOffset":192,"byteStride":0,"componentType":5123,"count":12,"type":"SCALAR"},"accessor_68":{"bufferView":"bufferView_178","byteOffset":792,"byteStride":12,"componentType":5126,"count":55,"max":[15.8508,0.15,16.9344],"min":[-13.7912,-0.15,-14.0916],"type":"VEC3"},"accessor_70":{"bufferView":"bufferView_178","byteOffset":1452,"byteStride":12,"componentType":5126,"count":55,"max":[0.810244,1,0.810344],"min":[-0.81085,-1,-0.810327],"type":"VEC3"},"accessor_98":{"bufferView":"bufferView_177","byteOffset":216,"byteStride":0,"componentType":5123,"count":234,"type":"SCALAR"},"accessor_b0":{"bufferView":"bufferView_b","byteOffset":0,"byteStride":0,"componentType":5123,"count":33,"type":"SCALAR"},"accessor_b1":{"bufferView":"bufferView_b","byteOffset":66,"byteStride":0,"componentType":5123,"count":55,"type":"SCALAR"},"accessor_b2":{"bufferView":"bufferView_b","byteOffset":176,"byteStride":0,"componentType":5123,"count":244,"type":"SCALAR"},"accessor_b3":{"bufferView":"bufferView_b","byteOffset":664,"byteStride":0,"componentType":5123,"count":43,"type":"SCALAR"},"accessor_b4":{"bufferView":"bufferView_b","byteOffset":750,"byteStride":0,"componentType":5123,"count":70,"type":"SCALAR"}},"animations":{},"asset":{"generator":"collada2gltf@cf6371beb0bdc18ba603378d5e40c966da53d385","premultipliedAlpha":true,"profile":{"api":"WebGL","version":"1.0.2"},"version":"1.0"},"bufferViews":{"bufferView_177":{"buffer":"\\data\\ECNU\\workspace\\gridID_119\\gridID_119","byteLength":1208,"byteOffset":0,"target":34963},"bufferView_178":{"buffer":"\\data\\ECNU\\workspace\\gridID_119\\gridID_119","byteLength":10680,"byteOffset":1208,"target":34962},"bufferView_b":{"buffer":"buffer_b","byteLength":890,"byteOffset":0,"target":34962}},"buffers":{"\\data\\ECNU\\workspace\\gridID_119\\gridID_119":{"byteLength":11888,"type":"arraybuffer","uri":"data:application/octet-stream;base64,"},"buffer_b":{"type":"arraybuffer","byteLength":890,"uri":"data:application/octet-stream;base64,"}},"materials":{"BUILDING_DEFAULT_0-effect":{"name":"BUILDING_DEFAULT_0","technique":"technique0","values":{"ambient":[0,0,0,1],"diffuse":[0.723055,0.708376,0.672443,1],"emission":[0,0,0,1],"shininess":50,"specular":[0.5,0.5,0.5,1]}},"CONCRETE_0-effect":{"name":"CONCRETE_0","technique":"technique0","values":{"ambient":[0,0,0,1],"diffuse":[0.309469,0.327778,0.309469,1],"emission":[0,0,0,1],"shininess":50,"specular":[0.5,0.5,0.5,1]}},"ROOF_DEFAULT_0-effect":{"name":"ROOF_DEFAULT_0","technique":"technique0","values":{"ambient":[0,0,0,1],"diffuse":[0.603827,0.381326,0.291771,1],"emission":[0,0,0,1],"shininess":50,"specular":[0.5,0.5,0.5,1]}}},"meshes":{"Building3260-mesh":{"name":"Building3260","primitives":[{"attributes":{"NORMAL":"accessor_35","POSITION":"accessor_33","BATCHID":"accessor_b0"},"indices":"accessor_28","material":"BUILDING_DEFAULT_0-effect","mode":4},{"attributes":{"NORMAL":"accessor_35","POSITION":"accessor_33","BATCHID":"accessor_b0"},"indices":"accessor_31","material":"ROOF_DEFAULT_0-effect","mode":4}]},"Building3262-mesh":{"name":"Building3262","primitives":[{"attributes":{"NORMAL":"accessor_70","POSITION":"accessor_68","BATCHID":"accessor_b1"},"indices":"accessor_63","material":"BUILDING_DEFAULT_0-effect","mode":4},{"attributes":{"NORMAL":"accessor_70","POSITION":"accessor_68","BATCHID":"accessor_b1"},"indices":"accessor_66","material":"ROOF_DEFAULT_0-effect","mode":4}]},"Building3392-mesh":{"name":"Building3392","primitives":[{"attributes":{"NORMAL":"accessor_105","POSITION":"accessor_103","BATCHID":"accessor_b2"},"indices":"accessor_98","material":"BUILDING_DEFAULT_0-effect","mode":4},{"attributes":{"NORMAL":"accessor_105","POSITION":"accessor_103","BATCHID":"accessor_b2"},"indices":"accessor_101","material":"CONCRETE_0-effect","mode":4}]},"Building3476-mesh":{"name":"Building3476","primitives":[{"attributes":{"NORMAL":"accessor_175","POSITION":"accessor_173","BATCHID":"accessor_b3"},"indices":"accessor_168","material":"BUILDING_DEFAULT_0-effect","mode":4},{"attributes":{"NORMAL":"accessor_175","POSITION":"accessor_173","BATCHID":"accessor_b3"},"indices":"accessor_171","material":"ROOF_DEFAULT_0-effect","mode":4}]},"Building3477-mesh":{"name":"Building3477","primitives":[{"attributes":{"NORMAL":"accessor_140","POSITION":"accessor_138","BATCHID":"accessor_b4"},"indices":"accessor_133","material":"BUILDING_DEFAULT_0-effect","mode":4},{"attributes":{"NORMAL":"accessor_140","POSITION":"accessor_138","BATCHID":"accessor_b4"},"indices":"accessor_136","material":"ROOF_DEFAULT_0-effect","mode":4}]}},"nodes":{"model_gridID_119_r2261942_001":{"children":[],"matrix":[1,0,0,0,0,-1.62921e-7,1,0,0,-1,-1.62921e-7,0,199.301,586.965,3.7501,1],"meshes":["Building3260-mesh"],"name":"model_gridID_119_r2261942_001"},"model_gridID_119_r2261942_002":{"children":[],"matrix":[1,0,0,0,0,-1.62921e-7,1,0,0,-1,-1.62921e-7,0,207.608,576.953,2.35009,1],"meshes":["Building3262-mesh"],"name":"model_gridID_119_r2261942_002"},"model_gridID_119_w169937057":{"children":[],"matrix":[1,0,0,0,0,-1.62921e-7,1,0,0,-1,-1.62921e-7,0,178.304,602.365,8.04064,1],"meshes":["Building3392-mesh"],"name":"model_gridID_119_w169937057"},"model_gridID_119_w387511399":{"children":[],"matrix":[1,0,0,0,0,-1.62921e-7,1,0,0,-1,-1.62921e-7,0,245.147,630.084,3.7501,1],"meshes":["Building3477-mesh"],"name":"model_gridID_119_w387511399"},"model_gridID_119_w387511399_001":{"children":[],"matrix":[1,0,0,0,0,-1.62921e-7,1,0,0,-1,-1.62921e-7,0,243.404,634.252,3.7501,1],"meshes":["Building3476-mesh"],"name":"model_gridID_119_w387511399_001"},"node_5":{"children":["model_gridID_119_r2261942_001","model_gridID_119_r2261942_002","model_gridID_119_w169937057","model_gridID_119_w387511399","model_gridID_119_w387511399_001"],"matrix":[1,0,0,0,0,0,-1,0,0,1,0,0,0,0,0,1],"name":"Y_UP_Transform"}},"programs":{"program_0":{"attributes":["a_normal","a_position","a_batchId"],"fragmentShader":"\\data\\ECNU\\workspace\\gridID_119\\gridID_1190FS","vertexShader":"\\data\\ECNU\\workspace\\gridID_119\\gridID_1190VS"}},"scene":"defaultScene","scenes":{"defaultScene":{"nodes":["node_5"]}},"shaders":{"\\data\\ECNU\\workspace\\gridID_119\\gridID_1190FS":{"type":35632,"uri":"data:text/plain;base64,"},"\\data\\ECNU\\workspace\\gridID_119\\gridID_1190VS":{"type":35633,"uri":"data:text/plain;base64,"}},"skins":{},"techniques":{"technique0":{"attributes":{"a_normal":"normal","a_position":"position","a_batchId":"batchId"},"parameters":{"ambient":{"type":35666},"diffuse":{"type":35666},"emission":{"type":35666},"modelViewMatrix":{"semantic":"MODELVIEW","type":35676},"normal":{"semantic":"NORMAL","type":35665},"normalMatrix":{"semantic":"MODELVIEWINVERSETRANSPOSE","type":35675},"position":{"semantic":"POSITION","type":35665},"projectionMatrix":{"semantic":"PROJECTION","type":35676},"shininess":{"type":5126},"specular":{"type":35666},"batchId":{"semantic":"BATCHID","type":5126}},"program":"program_0","states":{"enable":[2929,2884]},"uniforms":{"u_ambient":"ambient","u_diffuse":"diffuse","u_emission":"emission","u_modelViewMatrix":"modelViewMatrix","u_normalMatrix":"normalMatrix","u_projectionMatrix":"projectionMatrix","u_shininess":"shininess","u_specular":"specular"}}}}