{"accessors":{"accessor_100":{"bufferView":"bufferView_138","byteOffset":4200,"byteStride":12,"componentType":5126,"count":350,"max":[0.999999,1,1],"min":[-1,-1,-1],"type":"VEC3"},"accessor_128":{"bufferView":"bufferView_137","byteOffset":1740,"byteStride":0,"componentType":5123,"count":24,"type":"SCALAR"},"accessor_131":{"bufferView":"bufferView_137","byteOffset":1788,"byteStride":0,"componentType":5123,"count":6,"type":"SCALAR"},"accessor_133":{"bufferView":"bufferView_138","byteOffset":17256,"byteStride":12,"componentType":5126,"count":20,"max":[13.9025,3.75,2.97199],"min":[-13.9025,-3.75,-2.97201],"type":"VEC3"},"accessor_135":{"bufferView":"bufferView_138","byteOffset":17496,"byteStride":12,"componentType":5126,"count":20,"max":[1,1,1],"min":[-1,0,-1],"type":"VEC3"},"accessor_40":{"bufferView":"bufferView_137","byteOffset":840,"byteStride":0,"componentType":5123,"count":288,"type":"SCALAR"},"accessor_43":{"bufferView":"bufferView_137","byteOffset":1416,"byteStride":0,"componentType":5123,"count":51,"type":"SCALAR"},"accessor_46":{"bufferView":"bufferView_137","byteOffset":1518,"byteStride":0,"componentType":5123,"count":111,"type":"SCALAR"},"accessor_48":{"bufferView":"bufferView_138","byteOffset":8400,"byteStride":12,"componentType":5126,"count":369,"max":[18.3611,25.8625,14.006],"min":[-16.6879,-26.7355,-14.546],"type":"VEC3"},"accessor_50":{"bufferView":"bufferView_138","byteOffset":12828,"byteStride":12,"componentType":5126,"count":369,"max":[1,1,1],"min":[-1,-1,-1],"type":"VEC3"},"accessor_90":{"bufferView":"bufferView_137","byteOffset":0,"byteStride":0,"componentType":5123,"count":264,"type":"SCALAR"},"accessor_93":{"bufferView":"bufferView_137","byteOffset":528,"byteStride":0,"componentType":5123,"count":48,"type":"SCALAR"},"accessor_96":{"bufferView":"bufferView_137","byteOffset":624,"byteStride":0,"componentType":5123,"count":108,"type":"SCALAR"},"accessor_98":{"bufferView":"bufferView_138","byteOffset":0,"byteStride":12,"componentType":5126,"count":350,"max":[17.5939,25.0891,14.437],"min":[-17.4451,-27.4312,-14.116],"type":"VEC3"},"accessor_b0":{"bufferView":"bufferView_b","byteOffset":0,"byteStride":0,"componentType":5123,"count":350,"type":"SCALAR"},"accessor_b1":{"bufferView":"bufferView_b","byteOffset":700,"byteStride":0,"componentType":5123,"count":369,"type":"SCALAR"},"accessor_b2":{"bufferView":"bufferView_b","byteOffset":1438,"byteStride":0,"componentType":5123,"count":20,"type":"SCALAR"}},"animations":{},"asset":{"generator":"collada2gltf@cf6371beb0bdc18ba603378d5e40c966da53d385","premultipliedAlpha":true,"profile":{"api":"WebGL","version":"1.0.2"},"version":"1.0"},"bufferViews":{"bufferView_137":{"buffer":"\\data\\ECNU\\workspace\\gridID_21\\gridID_21","byteLength":1800,"byteOffset":0,"target":34963},"bufferView_138":{"buffer":"\\data\\ECNU\\workspace\\gridID_21\\gridID_21","byteLength":17736,"byteOffset":1800,"target":34962},"bufferView_b":{"buffer":"buffer_b","byteLength":1478,"byteOffset":0,"target":34962}},"buffers":{"\\data\\ECNU\\workspace\\gridID_21\\gridID_21":{"byteLength":19536,"type":"arraybuffer","uri":"data:application/octet-stream;base64,"},"buffer_b":{"type":"arraybuffer","byteLength":1478,"uri":"data:application/octet-stream;base64,"}},"materials":{"BUILDING_DEFAULT_0-effect":{"name":"BUILDING_DEFAULT_0","technique":"technique0","values":{"ambient":[0,0,0,1],"diffuse":[0.723055,0.708376,0.672443,1],"emission":[0,0,0,1],"shininess":50,"specular":[0.5,0.5,0.5,1]}},"CONCRETE_0-effect":{"name":"CONCRETE_0","technique":"technique0","values":{"ambient":[0,0,0,1],"diffuse":[0.309469,0.327778,0.309469,1],"emission":[0,0,0,1],"shininess":50,"specular":[0.5,0.5,0.5,1]}},"ROOF_DEFAULT_0-effect":{"name":"ROOF_DEFAULT_0","technique":"technique0","values":{"ambient":[0,0,0,1],"diffuse":[0.603827,0.381326,0.291771,1],"emission":[0,0,0,1],"shininess":50,"specular":[0.5,0.5,0.5,1]}}},"meshes":{"Building3531-mesh":{"name":"Building3531","primitives":[{"attributes":{"NORMAL":"accessor_100","POSITION":"accessor_98","BATCHID":"accessor_b0"},"indices":"accessor_90","material":"BUILDING_DEFAULT_0-effect","mode":4},{"attributes":{"NORMAL":"accessor_100","POSITION":"accessor_98","BATCHID":"accessor_b0"},"indices":"accessor_93","material":"ROOF_DEFAULT_0-effect","mode":4},{"attributes":{"NORMAL":"accessor_100","POSITION":"accessor_98","BATCHID":"accessor_b0"},"indices":"accessor_96","material":"CONCRETE_0-effect","mode":4}]},"Building3533-mesh":{"name":"Building3533","primitives":[{"attributes":{"NORMAL":"accessor_50","POSITION":"accessor_48","BATCHID":"accessor_b1"},"indices":"accessor_40","material":"BUILDING_DEFAULT_0-effect","mode":4},{"attributes":{"NORMAL":"accessor_50","POSITION":"accessor_48","BATCHID":"accessor_b1"},"indices":"accessor_43","material":"ROOF_DEFAULT_0-effect","mode":4},{"attributes":{"NORMAL":"accessor_50","POSITION":"accessor_48","BATCHID":"accessor_b1"},"indices":"accessor_46","material":"CONCRETE_0-effect","mode":4}]},"Building3537-mesh":{"name":"Building3537","primitives":[{"attributes":{"NORMAL":"accessor_135","POSITION":"accessor_133","BATCHID":"accessor_b2"},"indices":"accessor_128","material":"BUILDING_DEFAULT_0-effect","mode":4},{"attributes":{"NORMAL":"accessor_135","POSITION":"accessor_133","BATCHID":"accessor_b2"},"indices":"accessor_131","material":"CONCRETE_0-effect","mode":4}]}},"nodes":{"model_gridID_21_w399692308":{"children":[],"matrix":[1,0,0,0,0,-1.62921e-7,1,0,0,-1,-1.62921e-7,0,179.32,-372.911,26.7354,1],"meshes":["Building3533-mesh"],"name":"model_gridID_21_w399692308"},"model_gridID_21_w399692310":{"children":[],"matrix":[1,0,0,0,0,-1.62921e-7,1,0,0,-1,-1.62921e-7,0,238.353,-371.434,27.4312,1],"meshes":["Building3531-mesh"],"name":"model_gridID_21_w399692310"},"model_gridID_21_w399692320_003":{"children":[],"matrix":[1,0,0,0,0,-1.62921e-7,1,0,0,-1,-1.62921e-7,0,195.154,-398.427,3.74993,1],"meshes":["Building3537-mesh"],"name":"model_gridID_21_w399692320_003"},"node_3":{"children":["model_gridID_21_w399692308","model_gridID_21_w399692310","model_gridID_21_w399692320_003"],"matrix":[1,0,0,0,0,0,-1,0,0,1,0,0,0,0,0,1],"name":"Y_UP_Transform"}},"programs":{"program_0":{"attributes":["a_normal","a_position","a_batchId"],"fragmentShader":"\\data\\ECNU\\workspace\\gridID_21\\gridID_210FS","vertexShader":"\\data\\ECNU\\workspace\\gridID_21\\gridID_210VS"}},"scene":"defaultScene","scenes":{"defaultScene":{"nodes":["node_3"]}},"shaders":{"\\data\\ECNU\\workspace\\gridID_21\\gridID_210FS":{"type":35632,"uri":"data:text/plain;base64,"},"\\data\\ECNU\\workspace\\gridID_21\\gridID_210VS":{"type":35633,"uri":"data:text/plain;base64,"}},"skins":{},"techniques":{"technique0":{"attributes":{"a_normal":"normal","a_position":"position","a_batchId":"batchId"},"parameters":{"ambient":{"type":35666},"diffuse":{"type":35666},"emission":{"type":35666},"modelViewMatrix":{"semantic":"MODELVIEW","type":35676},"normal":{"semantic":"NORMAL","type":35665},"normalMatrix":{"semantic":"MODELVIEWINVERSETRANSPOSE","type":35675},"position":{"semantic":"POSITION","type":35665},"projectionMatrix":{"semantic":"PROJECTION","type":35676},"shininess":{"type":5126},"specular":{"type":35666},"batchId":{"semantic":"BATCHID","type":5126}},"program":"program_0","states":{"enable":[2929,2884]},"uniforms":{"u_ambient":"ambient","u_diffuse":"diffuse","u_emission":"emission","u_modelViewMatrix":"modelViewMatrix","u_normalMatrix":"normalMatrix","u_projectionMatrix":"projectionMatrix","u_shininess":"shininess","u_specular":"specular"}}}}