{"accessors":{"accessor_16":{"bufferView":"bufferView_62","byteOffset":0,"byteStride":0,"componentType":5123,"count":228,"type":"SCALAR"},"accessor_18":{"bufferView":"bufferView_63","byteOffset":0,"byteStride":12,"componentType":5126,"count":164,"max":[72.5995,147,85],"min":[-23.024,0,-5.47468],"type":"VEC3"},"accessor_20":{"bufferView":"bufferView_63","byteOffset":1968,"byteStride":12,"componentType":5126,"count":164,"max":[0.905249,1,0.905477],"min":[-0.905216,-1,-0.905551],"type":"VEC3"},"accessor_36":{"bufferView":"bufferView_62","byteOffset":456,"byteStride":0,"componentType":5123,"count":84,"type":"SCALAR"},"accessor_38":{"bufferView":"bufferView_63","byteOffset":3936,"byteStride":12,"componentType":5126,"count":69,"max":[59.2077,15,-31.7149],"min":[1.80029,0,-85.5675],"type":"VEC3"},"accessor_40":{"bufferView":"bufferView_63","byteOffset":4764,"byteStride":12,"componentType":5126,"count":69,"max":[0.863902,1,0.861559],"min":[-0.864015,-1,-0.861524],"type":"VEC3"},"accessor_56":{"bufferView":"bufferView_62","byteOffset":624,"byteStride":0,"componentType":5123,"count":180,"type":"SCALAR"},"accessor_58":{"bufferView":"bufferView_63","byteOffset":5592,"byteStride":12,"componentType":5126,"count":131,"max":[6.45344,15,-54.8405],"min":[-37.9742,0,-92.5632],"type":"VEC3"},"accessor_60":{"bufferView":"bufferView_63","byteOffset":7164,"byteStride":12,"componentType":5126,"count":131,"max":[0.814441,1,0.811022],"min":[-0.813455,-1,-0.810749],"type":"VEC3"},"accessor_b0":{"bufferView":"bufferView_b","byteOffset":0,"byteStride":0,"componentType":5123,"count":164,"type":"SCALAR"},"accessor_b1":{"bufferView":"bufferView_b","byteOffset":328,"byteStride":0,"componentType":5123,"count":69,"type":"SCALAR"},"accessor_b2":{"bufferView":"bufferView_b","byteOffset":466,"byteStride":0,"componentType":5123,"count":131,"type":"SCALAR"}},"animations":{},"asset":{"generator":"collada2gltf@cf6371beb0bdc18ba603378d5e40c966da53d385","premultipliedAlpha":true,"profile":{"api":"WebGL","version":"1.0.2"},"version":"1.0"},"bufferViews":{"bufferView_62":{"buffer":"\\data\\3dcity\\miami\\workspace\\gridID_4\\gridID_4","byteLength":984,"byteOffset":0,"target":34963},"bufferView_63":{"buffer":"\\data\\3dcity\\miami\\workspace\\gridID_4\\gridID_4","byteLength":8736,"byteOffset":984,"target":34962},"bufferView_b":{"buffer":"buffer_b","byteLength":728,"byteOffset":0,"target":34962}},"buffers":{"\\data\\3dcity\\miami\\workspace\\gridID_4\\gridID_4":{"byteLength":9720,"type":"arraybuffer","uri":"data:application/octet-stream;base64,"},"buffer_b":{"type":"arraybuffer","byteLength":728,"uri":"data:application/octet-stream;base64,"}},"materials":{"CityEngineMaterial_297-effect":{"name":"CityEngineMaterial_297","technique":"technique0","values":{"ambient":[1,1,1,1],"diffuse":[1,1,1,1],"emission":[0,0,0,1],"shininess":50,"specular":[0.5,0.5,0.5,1]}},"CityEngineMaterial_298-effect":{"name":"CityEngineMaterial_298","technique":"technique0","values":{"ambient":[1,1,1,1],"diffuse":[1,1,1,1],"emission":[0,0,0,1],"shininess":50,"specular":[0.5,0.5,0.5,1]}},"CityEngineMaterial_299-effect":{"name":"CityEngineMaterial_299","technique":"technique0","values":{"ambient":[1,1,1,1],"diffuse":[1,1,1,1],"emission":[0,0,0,1],"shininess":50,"specular":[0.5,0.5,0.5,1]}}},"meshes":{"mesh_CityEngineMaterial_297-mesh":{"name":"mesh_CityEngineMaterial.297","primitives":[{"attributes":{"NORMAL":"accessor_20","POSITION":"accessor_18","BATCHID":"accessor_b0"},"indices":"accessor_16","material":"CityEngineMaterial_297-effect","mode":4}]},"mesh_CityEngineMaterial_298-mesh":{"name":"mesh_CityEngineMaterial.298","primitives":[{"attributes":{"NORMAL":"accessor_40","POSITION":"accessor_38","BATCHID":"accessor_b1"},"indices":"accessor_36","material":"CityEngineMaterial_298-effect","mode":4}]},"mesh_CityEngineMaterial_299-mesh":{"name":"mesh_CityEngineMaterial.299","primitives":[{"attributes":{"NORMAL":"accessor_60","POSITION":"accessor_58","BATCHID":"accessor_b2"},"indices":"accessor_56","material":"CityEngineMaterial_299-effect","mode":4}]}},"nodes":{"CityEngineMaterial":{"children":[],"matrix":[1,0,0,0,0,-1.62921e-7,1,0,0,-1,-1.62921e-7,0,0,0,0,1],"meshes":["mesh_CityEngineMaterial_297-mesh"],"name":"CityEngineMaterial"},"CityEngineMaterial_001":{"children":[],"matrix":[1,0,0,0,0,-1.62921e-7,1,0,0,-1,-1.62921e-7,0,0,0,0,1],"meshes":["mesh_CityEngineMaterial_298-mesh"],"name":"CityEngineMaterial_001"},"CityEngineMaterial_002":{"children":[],"matrix":[1,0,0,0,0,-1.62921e-7,1,0,0,-1,-1.62921e-7,0,0,0,0,1],"meshes":["mesh_CityEngineMaterial_299-mesh"],"name":"CityEngineMaterial_002"},"node_3":{"children":["CityEngineMaterial","CityEngineMaterial_001","CityEngineMaterial_002"],"matrix":[1,0,0,0,0,0,-1,0,0,1,0,0,0,0,0,1],"name":"Y_UP_Transform"}},"programs":{"program_0":{"attributes":["a_normal","a_position","a_batchId"],"fragmentShader":"\\data\\3dcity\\miami\\workspace\\gridID_4\\gridID_40FS","vertexShader":"\\data\\3dcity\\miami\\workspace\\gridID_4\\gridID_40VS"}},"scene":"defaultScene","scenes":{"defaultScene":{"nodes":["node_3"]}},"shaders":{"\\data\\3dcity\\miami\\workspace\\gridID_4\\gridID_40FS":{"type":35632,"uri":"data:text/plain;base64,"},"\\data\\3dcity\\miami\\workspace\\gridID_4\\gridID_40VS":{"type":35633,"uri":"data:text/plain;base64,"}},"skins":{},"techniques":{"technique0":{"attributes":{"a_normal":"normal","a_position":"position","a_batchId":"batchId"},"parameters":{"ambient":{"type":35666},"diffuse":{"type":35666},"emission":{"type":35666},"modelViewMatrix":{"semantic":"MODELVIEW","type":35676},"normal":{"semantic":"NORMAL","type":35665},"normalMatrix":{"semantic":"MODELVIEWINVERSETRANSPOSE","type":35675},"position":{"semantic":"POSITION","type":35665},"projectionMatrix":{"semantic":"PROJECTION","type":35676},"shininess":{"type":5126},"specular":{"type":35666},"batchId":{"semantic":"BATCHID","type":5126}},"program":"program_0","states":{"enable":[2929,2884]},"uniforms":{"u_ambient":"ambient","u_diffuse":"diffuse","u_emission":"emission","u_modelViewMatrix":"modelViewMatrix","u_normalMatrix":"normalMatrix","u_projectionMatrix":"projectionMatrix","u_shininess":"shininess","u_specular":"specular"}}}}