{
    "accessors": {
        "accessor_16": {
            "bufferView": "bufferView_62",
            "byteOffset": 0,
            "byteStride": 0,
            "componentType": 5123,
            "count": 48,
            "type": "SCALAR"
        },
        "accessor_18": {
            "bufferView": "bufferView_63",
            "byteOffset": 0,
            "byteStride": 12,
            "componentType": 5126,
            "count": 42,
            "max": [
                15.6232,
                -50.8864,
                7.70018
            ],
            "min": [
                -12.8877,
                -75.3066,
                1.3752
            ],
            "type": "VEC3"
        },
        "accessor_20": {
            "bufferView": "bufferView_63",
            "byteOffset": 504,
            "byteStride": 12,
            "componentType": 5126,
            "count": 42,
            "max": [
                0.999589,
                0.99958,
                1
            ],
            "min": [
                -0.999589,
                -0.99958,
                0
            ],
            "type": "VEC3"
        },
        "accessor_36": {
            "bufferView": "bufferView_62",
            "byteOffset": 96,
            "byteStride": 0,
            "componentType": 5123,
            "count": 30,
            "type": "SCALAR"
        },
        "accessor_38": {
            "bufferView": "bufferView_63",
            "byteOffset": 1008,
            "byteStride": 12,
            "componentType": 5126,
            "count": 30,
            "max": [
                52.444,
                -43.626,
                12.7489
            ],
            "min": [
                48.7002,
                -47.383,
                1.4769
            ],
            "type": "VEC3"
        },
        "accessor_40": {
            "bufferView": "bufferView_63",
            "byteOffset": 1368,
            "byteStride": 12,
            "componentType": 5126,
            "count": 30,
            "max": [
                0.99961,
                0.999601,
                1
            ],
            "min": [
                -0.99961,
                -0.999601,
                0
            ],
            "type": "VEC3"
        },
        "accessor_56": {
            "bufferView": "bufferView_62",
            "byteOffset": 156,
            "byteStride": 0,
            "componentType": 5123,
            "count": 225,
            "type": "SCALAR"
        },
        "accessor_58": {
            "bufferView": "bufferView_63",
            "byteOffset": 1728,
            "byteStride": 12,
            "componentType": 5126,
            "count": 200,
            "max": [
                69.0984,
                -43.4611,
                7.70018
            ],
            "min": [
                20.5786,
                -70.6009,
                1.16968
            ],
            "type": "VEC3"
        },
        "accessor_60": {
            "bufferView": "bufferView_63",
            "byteOffset": 4128,
            "byteStride": 12,
            "componentType": 5126,
            "count": 200,
            "max": [
                0.99961,
                0.999602,
                1
            ],
            "min": [
                -0.99961,
                -0.999602,
                0
            ],
            "type": "VEC3"
        }
    },
    "animations": {},
    "asset": {
        "generator": "collada2gltf@cf6371beb0bdc18ba603378d5e40c966da53d385",
        "premultipliedAlpha": true,
        "profile": {
            "api": "WebGL",
            "version": "1.0.2"
        },
        "version": "1.0"
    },
    "bufferViews": {
        "bufferView_62": {
            "buffer": "\\data\\3dcity\\miami\\workspace\\gridID_64\\gridID_64_high",
            "byteLength": 608,
            "byteOffset": 0,
            "target": 34963
        },
        "bufferView_63": {
            "buffer": "\\data\\3dcity\\miami\\workspace\\gridID_64\\gridID_64_high",
            "byteLength": 6528,
            "byteOffset": 608,
            "target": 34962
        }
    },
    "buffers": {
        "\\data\\3dcity\\miami\\workspace\\gridID_64\\gridID_64_high": {
            "byteLength": 7136,
            "type": "arraybuffer",
            "uri": "data:application/octet-stream;base64,"
        }
    },
    "materials": {
        "__glTF__defaultMaterial0": {
            "name": "__glTF__defaultMaterial0",
            "technique": "technique0",
            "values": {
                "diffuse": [
                    1,
                    1,
                    1,
                    1
                ]
            }
        }
    },
    "meshes": {
        "multipatch_footprint_007-mesh": {
            "name": "multipatch_footprint.007",
            "primitives": [
                {
                    "attributes": {
                        "NORMAL": "accessor_20",
                        "POSITION": "accessor_18"
                    },
                    "indices": "accessor_16",
                    "material": "__glTF__defaultMaterial0",
                    "mode": 4
                }
            ]
        },
        "multipatch_footprint_008-mesh": {
            "name": "multipatch_footprint.008",
            "primitives": [
                {
                    "attributes": {
                        "NORMAL": "accessor_40",
                        "POSITION": "accessor_38"
                    },
                    "indices": "accessor_36",
                    "material": "__glTF__defaultMaterial0",
                    "mode": 4
                }
            ]
        },
        "multipatch_footprint_010-mesh": {
            "name": "multipatch_footprint.010",
            "primitives": [
                {
                    "attributes": {
                        "NORMAL": "accessor_60",
                        "POSITION": "accessor_58"
                    },
                    "indices": "accessor_56",
                    "material": "__glTF__defaultMaterial0",
                    "mode": 4
                }
            ]
        }
    },
    "nodes": {
        "gridID_64_w255188232_join": {
            "children": [],
            "matrix": [
                1,
                0,
                0,
                0,
                0,
                1,
                0,
                0,
                0,
                0,
                1,
                0,
                0.000379562,
                0.000335693,
                0,
                1
            ],
            "meshes": [
                "multipatch_footprint_007-mesh"
            ],
            "name": "gridID_64_w255188232_join"
        },
        "gridID_64_w300449063_join": {
            "children": [],
            "matrix": [
                1,
                0,
                0,
                0,
                0,
                1,
                0,
                0,
                0,
                0,
                1,
                0,
                0.000379562,
                0.000335693,
                0,
                1
            ],
            "meshes": [
                "multipatch_footprint_008-mesh"
            ],
            "name": "gridID_64_w300449063_join"
        },
        "gridID_64_w300462441_join": {
            "children": [],
            "matrix": [
                1,
                0,
                0,
                0,
                0,
                1,
                0,
                0,
                0,
                0,
                1,
                0,
                0.000379562,
                0.000335693,
                0,
                1
            ],
            "meshes": [
                "multipatch_footprint_010-mesh"
            ],
            "name": "gridID_64_w300462441_join"
        },
        "node_3": {
            "children": [
                "gridID_64_w255188232_join",
                "gridID_64_w300449063_join",
                "gridID_64_w300462441_join"
            ],
            "matrix": [
                1,
                0,
                0,
                0,
                0,
                0,
                -1,
                0,
                0,
                1,
                0,
                0,
                0,
                0,
                0,
                1
            ],
            "name": "Y_UP_Transform"
        }
    },
    "programs": {
        "program_0": {
            "attributes": [
                "a_normal",
                "a_position"
            ],
            "fragmentShader": "\\data\\3dcity\\miami\\workspace\\gridID_64\\gridID_64_high0FS",
            "vertexShader": "\\data\\3dcity\\miami\\workspace\\gridID_64\\gridID_64_high0VS"
        }
    },
    "scene": "defaultScene",
    "scenes": {
        "defaultScene": {
            "nodes": [
                "node_3"
            ]
        }
    },
    "shaders": {
        "\\data\\3dcity\\miami\\workspace\\gridID_64\\gridID_64_high0FS": {
            "type": 35632,
            "uri": "data:text/plain;base64,"
        },
        "\\data\\3dcity\\miami\\workspace\\gridID_64\\gridID_64_high0VS": {
            "type": 35633,
            "uri": "data:text/plain;base64,"
        }
    },
    "skins": {},
    "techniques": {
        "technique0": {
            "attributes": {
                "a_normal": "normal",
                "a_position": "position"
            },
            "parameters": {
                "diffuse": {
                    "type": 35666
                },
                "modelViewMatrix": {
                    "semantic": "MODELVIEW",
                    "type": 35676
                },
                "normal": {
                    "semantic": "NORMAL",
                    "type": 35665
                },
                "normalMatrix": {
                    "semantic": "MODELVIEWINVERSETRANSPOSE",
                    "type": 35675
                },
                "position": {
                    "semantic": "POSITION",
                    "type": 35665
                },
                "projectionMatrix": {
                    "semantic": "PROJECTION",
                    "type": 35676
                }
            },
            "program": "program_0",
            "states": {
                "enable": [
                    2929,
                    2884
                ]
            },
            "uniforms": {
                "u_diffuse": "diffuse",
                "u_modelViewMatrix": "modelViewMatrix",
                "u_normalMatrix": "normalMatrix",
                "u_projectionMatrix": "projectionMatrix"
            }
        }
    }
}