{
    "accessors": {
        "accessor_100": {
            "bufferView": "bufferView_153",
            "byteOffset": 2664,
            "byteStride": 12,
            "componentType": 5126,
            "count": 222,
            "max": [
                0.90373,
                1,
                0.991166
            ],
            "min": [
                -0.989386,
                -1,
                -0.903302
            ],
            "type": "VEC3"
        },
        "accessor_140": {
            "bufferView": "bufferView_152",
            "byteOffset": 558,
            "byteStride": 0,
            "componentType": 5123,
            "count": 375,
            "type": "SCALAR"
        },
        "accessor_143": {
            "bufferView": "bufferView_152",
            "byteOffset": 1308,
            "byteStride": 0,
            "componentType": 5123,
            "count": 81,
            "type": "SCALAR"
        },
        "accessor_146": {
            "bufferView": "bufferView_152",
            "byteOffset": 1470,
            "byteStride": 0,
            "componentType": 5123,
            "count": 39,
            "type": "SCALAR"
        },
        "accessor_148": {
            "bufferView": "bufferView_153",
            "byteOffset": 5328,
            "byteStride": 12,
            "componentType": 5126,
            "count": 421,
            "max": [
                4.44128,
                5.5279,
                3.68576
            ],
            "min": [
                -5.13474,
                -1.9721,
                -3.87323
            ],
            "type": "VEC3"
        },
        "accessor_150": {
            "bufferView": "bufferView_153",
            "byteOffset": 10380,
            "byteStride": 12,
            "componentType": 5126,
            "count": 421,
            "max": [
                0.999942,
                1,
                1
            ],
            "min": [
                -0.999958,
                -1,
                -1
            ],
            "type": "VEC3"
        },
        "accessor_52": {
            "bufferView": "bufferView_152",
            "byteOffset": 1548,
            "byteStride": 0,
            "componentType": 5123,
            "count": 216,
            "type": "SCALAR"
        },
        "accessor_55": {
            "bufferView": "bufferView_152",
            "byteOffset": 1980,
            "byteStride": 0,
            "componentType": 5123,
            "count": 138,
            "type": "SCALAR"
        },
        "accessor_58": {
            "bufferView": "bufferView_152",
            "byteOffset": 2256,
            "byteStride": 0,
            "componentType": 5123,
            "count": 60,
            "type": "SCALAR"
        },
        "accessor_61": {
            "bufferView": "bufferView_152",
            "byteOffset": 2376,
            "byteStride": 0,
            "componentType": 5123,
            "count": 81,
            "type": "SCALAR"
        },
        "accessor_63": {
            "bufferView": "bufferView_153",
            "byteOffset": 15432,
            "byteStride": 12,
            "componentType": 5126,
            "count": 378,
            "max": [
                20.6248,
                17.474,
                37.9781
            ],
            "min": [
                -24.3912,
                -17.526,
                -11.6609
            ],
            "type": "VEC3"
        },
        "accessor_65": {
            "bufferView": "bufferView_153",
            "byteOffset": 19968,
            "byteStride": 12,
            "componentType": 5126,
            "count": 378,
            "max": [
                0.999977,
                1,
                1
            ],
            "min": [
                -0.998223,
                0,
                -1
            ],
            "type": "VEC3"
        },
        "accessor_93": {
            "bufferView": "bufferView_152",
            "byteOffset": 0,
            "byteStride": 0,
            "componentType": 5123,
            "count": 204,
            "type": "SCALAR"
        },
        "accessor_96": {
            "bufferView": "bufferView_152",
            "byteOffset": 408,
            "byteStride": 0,
            "componentType": 5123,
            "count": 75,
            "type": "SCALAR"
        },
        "accessor_98": {
            "bufferView": "bufferView_153",
            "byteOffset": 0,
            "byteStride": 12,
            "componentType": 5126,
            "count": 222,
            "max": [
                29.2155,
                7.76596,
                8.71634
            ],
            "min": [
                -10.8315,
                -12.234,
                -29.3896
            ],
            "type": "VEC3"
        }
    },
    "animations": {},
    "asset": {
        "generator": "collada2gltf@cf6371beb0bdc18ba603378d5e40c966da53d385",
        "premultipliedAlpha": true,
        "profile": {
            "api": "WebGL",
            "version": "1.0.2"
        },
        "version": "1.0"
    },
    "bufferViews": {
        "bufferView_152": {
            "buffer": "\\data\\ECNU\\workspace\\gridID_109\\gridID_109",
            "byteLength": 2540,
            "byteOffset": 0,
            "target": 34963
        },
        "bufferView_153": {
            "buffer": "\\data\\ECNU\\workspace\\gridID_109\\gridID_109",
            "byteLength": 24504,
            "byteOffset": 2540,
            "target": 34962
        }
    },
    "buffers": {
        "\\data\\ECNU\\workspace\\gridID_109\\gridID_109": {
            "byteLength": 27044,
            "type": "arraybuffer",
            "uri": "data:application/octet-stream;base64,"
        }
    },
    "materials": {
        "BUILDING_DEFAULT_0-effect": {
            "name": "BUILDING_DEFAULT_0",
            "technique": "technique0",
            "values": {
                "ambient": [
                    0,
                    0,
                    0,
                    1
                ],
                "diffuse": [
                    0.723055,
                    0.708376,
                    0.672443,
                    1
                ],
                "emission": [
                    0,
                    0,
                    0,
                    1
                ],
                "shininess": 50,
                "specular": [
                    0.5,
                    0.5,
                    0.5,
                    1
                ]
            }
        },
        "CONCRETE_0-effect": {
            "name": "CONCRETE_0",
            "technique": "technique0",
            "values": {
                "ambient": [
                    0,
                    0,
                    0,
                    1
                ],
                "diffuse": [
                    0.309469,
                    0.327778,
                    0.309469,
                    1
                ],
                "emission": [
                    0,
                    0,
                    0,
                    1
                ],
                "shininess": 50,
                "specular": [
                    0.5,
                    0.5,
                    0.5,
                    1
                ]
            }
        },
        "GLASS_0-effect": {
            "name": "GLASS_0",
            "technique": "technique0",
            "values": {
                "ambient": [
                    0,
                    0,
                    0,
                    1
                ],
                "diffuse": [
                    0.491021,
                    0.665387,
                    0.658375,
                    1
                ],
                "emission": [
                    0,
                    0,
                    0,
                    1
                ],
                "shininess": 50,
                "specular": [
                    0.5,
                    0.5,
                    0.5,
                    1
                ]
            }
        },
        "ROOF_DEFAULT_0-effect": {
            "name": "ROOF_DEFAULT_0",
            "technique": "technique0",
            "values": {
                "ambient": [
                    0,
                    0,
                    0,
                    1
                ],
                "diffuse": [
                    0.603827,
                    0.381326,
                    0.291771,
                    1
                ],
                "emission": [
                    0,
                    0,
                    0,
                    1
                ],
                "shininess": 50,
                "specular": [
                    0.5,
                    0.5,
                    0.5,
                    1
                ]
            }
        }
    },
    "meshes": {
        "Building3521-mesh": {
            "name": "Building3521",
            "primitives": [
                {
                    "attributes": {
                        "NORMAL": "accessor_100",
                        "POSITION": "accessor_98"
                    },
                    "indices": "accessor_93",
                    "material": "BUILDING_DEFAULT_0-effect",
                    "mode": 4
                },
                {
                    "attributes": {
                        "NORMAL": "accessor_100",
                        "POSITION": "accessor_98"
                    },
                    "indices": "accessor_96",
                    "material": "CONCRETE_0-effect",
                    "mode": 4
                }
            ]
        },
        "Building4068-mesh": {
            "name": "Building4068",
            "primitives": [
                {
                    "attributes": {
                        "NORMAL": "accessor_150",
                        "POSITION": "accessor_148"
                    },
                    "indices": "accessor_140",
                    "material": "BUILDING_DEFAULT_0-effect",
                    "mode": 4
                },
                {
                    "attributes": {
                        "NORMAL": "accessor_150",
                        "POSITION": "accessor_148"
                    },
                    "indices": "accessor_143",
                    "material": "ROOF_DEFAULT_0-effect",
                    "mode": 4
                },
                {
                    "attributes": {
                        "NORMAL": "accessor_150",
                        "POSITION": "accessor_148"
                    },
                    "indices": "accessor_146",
                    "material": "CONCRETE_0-effect",
                    "mode": 4
                }
            ]
        },
        "Building4214-mesh": {
            "name": "Building4214",
            "primitives": [
                {
                    "attributes": {
                        "NORMAL": "accessor_65",
                        "POSITION": "accessor_63"
                    },
                    "indices": "accessor_52",
                    "material": "GLASS_0-effect",
                    "mode": 4
                },
                {
                    "attributes": {
                        "NORMAL": "accessor_65",
                        "POSITION": "accessor_63"
                    },
                    "indices": "accessor_55",
                    "material": "BUILDING_DEFAULT_0-effect",
                    "mode": 4
                },
                {
                    "attributes": {
                        "NORMAL": "accessor_65",
                        "POSITION": "accessor_63"
                    },
                    "indices": "accessor_58",
                    "material": "ROOF_DEFAULT_0-effect",
                    "mode": 4
                },
                {
                    "attributes": {
                        "NORMAL": "accessor_65",
                        "POSITION": "accessor_63"
                    },
                    "indices": "accessor_61",
                    "material": "CONCRETE_0-effect",
                    "mode": 4
                }
            ]
        }
    },
    "nodes": {
        "model_gridID_109_w387139778": {
            "children": [],
            "matrix": [
                1,
                0,
                0,
                0,
                0,
                -1.62921e-007,
                1,
                0,
                0,
                -1,
                -1.62921e-007,
                0,
                318.376,
                464.04,
                17.5261,
                1
            ],
            "meshes": [
                "Building4214-mesh"
            ],
            "name": "model_gridID_109_w387139778"
        },
        "model_gridID_109_w387139778_001": {
            "children": [],
            "matrix": [
                1,
                0,
                0,
                0,
                0,
                -1.62921e-007,
                1,
                0,
                0,
                -1,
                -1.62921e-007,
                0,
                276.973,
                407.782,
                12.2341,
                1
            ],
            "meshes": [
                "Building3521-mesh"
            ],
            "name": "model_gridID_109_w387139778_001"
        },
        "model_gridID_109_w388845272": {
            "children": [],
            "matrix": [
                1,
                0,
                0,
                0,
                0,
                -1.62921e-007,
                1,
                0,
                0,
                -1,
                -1.62921e-007,
                0,
                316.112,
                482.226,
                1.97217,
                1
            ],
            "meshes": [
                "Building4068-mesh"
            ],
            "name": "model_gridID_109_w388845272"
        },
        "node_3": {
            "children": [
                "model_gridID_109_w387139778",
                "model_gridID_109_w387139778_001",
                "model_gridID_109_w388845272"
            ],
            "matrix": [
                1,
                0,
                0,
                0,
                0,
                0,
                -1,
                0,
                0,
                1,
                0,
                0,
                0,
                0,
                0,
                1
            ],
            "name": "Y_UP_Transform"
        }
    },
    "programs": {
        "program_0": {
            "attributes": [
                "a_normal",
                "a_position"
            ],
            "fragmentShader": "\\data\\ECNU\\workspace\\gridID_109\\gridID_1090FS",
            "vertexShader": "\\data\\ECNU\\workspace\\gridID_109\\gridID_1090VS"
        }
    },
    "scene": "defaultScene",
    "scenes": {
        "defaultScene": {
            "nodes": [
                "node_3"
            ]
        }
    },
    "shaders": {
        "\\data\\ECNU\\workspace\\gridID_109\\gridID_1090FS": {
            "type": 35632,
            "uri": "data:text/plain;base64,"
        },
        "\\data\\ECNU\\workspace\\gridID_109\\gridID_1090VS": {
            "type": 35633,
            "uri": "data:text/plain;base64,"
        }
    },
    "skins": {},
    "techniques": {
        "technique0": {
            "attributes": {
                "a_normal": "normal",
                "a_position": "position"
            },
            "parameters": {
                "ambient": {
                    "type": 35666
                },
                "diffuse": {
                    "type": 35666
                },
                "emission": {
                    "type": 35666
                },
                "modelViewMatrix": {
                    "semantic": "MODELVIEW",
                    "type": 35676
                },
                "normal": {
                    "semantic": "NORMAL",
                    "type": 35665
                },
                "normalMatrix": {
                    "semantic": "MODELVIEWINVERSETRANSPOSE",
                    "type": 35675
                },
                "position": {
                    "semantic": "POSITION",
                    "type": 35665
                },
                "projectionMatrix": {
                    "semantic": "PROJECTION",
                    "type": 35676
                },
                "shininess": {
                    "type": 5126
                },
                "specular": {
                    "type": 35666
                }
            },
            "program": "program_0",
            "states": {
                "enable": [
                    2929,
                    2884
                ]
            },
            "uniforms": {
                "u_ambient": "ambient",
                "u_diffuse": "diffuse",
                "u_emission": "emission",
                "u_modelViewMatrix": "modelViewMatrix",
                "u_normalMatrix": "normalMatrix",
                "u_projectionMatrix": "projectionMatrix",
                "u_shininess": "shininess",
                "u_specular": "specular"
            }
        }
    }
}