{"accessors":{"accessor_100":{"bufferView":"bufferView_203","byteOffset":4836,"byteStride":12,"componentType":5126,"count":75,"max":[0.99964,1,0.999518],"min":[-0.999533,-1,-0.999556],"type":"VEC3"},"accessor_116":{"bufferView":"bufferView_202","byteOffset":624,"byteStride":0,"componentType":5123,"count":36,"type":"SCALAR"},"accessor_118":{"bufferView":"bufferView_203","byteOffset":5736,"byteStride":12,"componentType":5126,"count":26,"max":[57.4274,10,-32.2652],"min":[45.7166,0,-51.165],"type":"VEC3"},"accessor_120":{"bufferView":"bufferView_203","byteOffset":6048,"byteStride":12,"componentType":5126,"count":26,"max":[0.999743,1,0.999736],"min":[-0.999743,-1,-0.999736],"type":"VEC3"},"accessor_136":{"bufferView":"bufferView_202","byteOffset":696,"byteStride":0,"componentType":5123,"count":36,"type":"SCALAR"},"accessor_138":{"bufferView":"bufferView_203","byteOffset":6360,"byteStride":12,"componentType":5126,"count":28,"max":[73.8693,10,-38.2603],"min":[62.1362,0,-62.2156],"type":"VEC3"},"accessor_140":{"bufferView":"bufferView_203","byteOffset":6696,"byteStride":12,"componentType":5126,"count":28,"max":[0.999806,1,0.999805],"min":[-0.999815,-1,-0.999826],"type":"VEC3"},"accessor_156":{"bufferView":"bufferView_202","byteOffset":768,"byteStride":0,"componentType":5123,"count":36,"type":"SCALAR"},"accessor_158":{"bufferView":"bufferView_203","byteOffset":7032,"byteStride":12,"componentType":5126,"count":34,"max":[22.1948,10,-30.8314],"min":[13.5898,0,-62.6112],"type":"VEC3"},"accessor_16":{"bufferView":"bufferView_202","byteOffset":0,"byteStride":0,"componentType":5123,"count":36,"type":"SCALAR"},"accessor_160":{"bufferView":"bufferView_203","byteOffset":7440,"byteStride":12,"componentType":5126,"count":34,"max":[0.999952,1,0.999946],"min":[-0.999948,-1,-0.999946],"type":"VEC3"},"accessor_176":{"bufferView":"bufferView_202","byteOffset":840,"byteStride":0,"componentType":5123,"count":36,"type":"SCALAR"},"accessor_178":{"bufferView":"bufferView_203","byteOffset":7848,"byteStride":12,"componentType":5126,"count":34,"max":[57.0267,11,-63.155],"min":[47.8317,0,-74.8608],"type":"VEC3"},"accessor_18":{"bufferView":"bufferView_203","byteOffset":0,"byteStride":12,"componentType":5126,"count":32,"max":[67.936,10,62.913],"min":[50.9152,0,48.043],"type":"VEC3"},"accessor_180":{"bufferView":"bufferView_203","byteOffset":8256,"byteStride":12,"componentType":5126,"count":34,"max":[0.998098,1,0.998053],"min":[-0.998037,-1,-0.998048],"type":"VEC3"},"accessor_196":{"bufferView":"bufferView_202","byteOffset":912,"byteStride":0,"componentType":5123,"count":84,"type":"SCALAR"},"accessor_198":{"bufferView":"bufferView_203","byteOffset":8664,"byteStride":12,"componentType":5126,"count":60,"max":[38.7926,11,-33.1181],"min":[26.9481,0,-61.4121],"type":"VEC3"},"accessor_20":{"bufferView":"bufferView_203","byteOffset":384,"byteStride":12,"componentType":5126,"count":32,"max":[0.999614,1,0.999642],"min":[-0.999636,-1,-0.999642],"type":"VEC3"},"accessor_200":{"bufferView":"bufferView_203","byteOffset":9384,"byteStride":12,"componentType":5126,"count":60,"max":[0.999843,1,0.999863],"min":[-0.999848,-1,-0.999833],"type":"VEC3"},"accessor_36":{"bufferView":"bufferView_202","byteOffset":72,"byteStride":0,"componentType":5123,"count":36,"type":"SCALAR"},"accessor_38":{"bufferView":"bufferView_203","byteOffset":768,"byteStride":12,"componentType":5126,"count":28,"max":[68.7709,10,86.5097],"min":[51.5942,0,71.4666],"type":"VEC3"},"accessor_40":{"bufferView":"bufferView_203","byteOffset":1104,"byteStride":12,"componentType":5126,"count":28,"max":[0.999644,1,0.999629],"min":[-0.999623,-1,-0.999629],"type":"VEC3"},"accessor_56":{"bufferView":"bufferView_202","byteOffset":144,"byteStride":0,"componentType":5123,"count":60,"type":"SCALAR"},"accessor_58":{"bufferView":"bufferView_203","byteOffset":1440,"byteStride":12,"componentType":5126,"count":47,"max":[41.6757,10,88.0671],"min":[17.7086,0,62.7894],"type":"VEC3"},"accessor_60":{"bufferView":"bufferView_203","byteOffset":2004,"byteStride":12,"componentType":5126,"count":47,"max":[0.999344,1,0.999342],"min":[-0.999378,-1,-0.999356],"type":"VEC3"},"accessor_76":{"bufferView":"bufferView_202","byteOffset":264,"byteStride":0,"componentType":5123,"count":84,"type":"SCALAR"},"accessor_78":{"bufferView":"bufferView_203","byteOffset":2568,"byteStride":12,"componentType":5126,"count":57,"max":[70.385,10,11.6033],"min":[15.8607,0,-2.64869],"type":"VEC3"},"accessor_80":{"bufferView":"bufferView_203","byteOffset":3252,"byteStride":12,"componentType":5126,"count":57,"max":[1,1,0.999925],"min":[-1,-1,-0.999354],"type":"VEC3"},"accessor_96":{"bufferView":"bufferView_202","byteOffset":432,"byteStride":0,"componentType":5123,"count":96,"type":"SCALAR"},"accessor_98":{"bufferView":"bufferView_203","byteOffset":3936,"byteStride":12,"componentType":5126,"count":75,"max":[70.8859,10,37.1037],"min":[16.8069,0,17.6725],"type":"VEC3"},"accessor_b0":{"bufferView":"bufferView_b","byteOffset":0,"byteStride":0,"componentType":5123,"count":32,"type":"SCALAR"},"accessor_b1":{"bufferView":"bufferView_b","byteOffset":64,"byteStride":0,"componentType":5123,"count":28,"type":"SCALAR"},"accessor_b2":{"bufferView":"bufferView_b","byteOffset":120,"byteStride":0,"componentType":5123,"count":47,"type":"SCALAR"},"accessor_b3":{"bufferView":"bufferView_b","byteOffset":214,"byteStride":0,"componentType":5123,"count":57,"type":"SCALAR"},"accessor_b4":{"bufferView":"bufferView_b","byteOffset":328,"byteStride":0,"componentType":5123,"count":75,"type":"SCALAR"},"accessor_b5":{"bufferView":"bufferView_b","byteOffset":478,"byteStride":0,"componentType":5123,"count":26,"type":"SCALAR"},"accessor_b6":{"bufferView":"bufferView_b","byteOffset":530,"byteStride":0,"componentType":5123,"count":28,"type":"SCALAR"},"accessor_b7":{"bufferView":"bufferView_b","byteOffset":586,"byteStride":0,"componentType":5123,"count":34,"type":"SCALAR"},"accessor_b8":{"bufferView":"bufferView_b","byteOffset":654,"byteStride":0,"componentType":5123,"count":34,"type":"SCALAR"},"accessor_b9":{"bufferView":"bufferView_b","byteOffset":722,"byteStride":0,"componentType":5123,"count":60,"type":"SCALAR"}},"animations":{},"asset":{"generator":"collada2gltf@cf6371beb0bdc18ba603378d5e40c966da53d385","premultipliedAlpha":true,"profile":{"api":"WebGL","version":"1.0.2"},"version":"1.0"},"bufferViews":{"bufferView_202":{"buffer":"\\data\\3dcity\\miami\\workspace\\gridID_51\\gridID_51","byteLength":1080,"byteOffset":0,"target":34963},"bufferView_203":{"buffer":"\\data\\3dcity\\miami\\workspace\\gridID_51\\gridID_51","byteLength":10104,"byteOffset":1080,"target":34962},"bufferView_b":{"buffer":"buffer_b","byteLength":842,"byteOffset":0,"target":34962}},"buffers":{"\\data\\3dcity\\miami\\workspace\\gridID_51\\gridID_51":{"byteLength":11184,"type":"arraybuffer","uri":"data:application/octet-stream;base64,"},"buffer_b":{"type":"arraybuffer","byteLength":842,"uri":"data:application/octet-stream;base64,"}},"materials":{"CityEngineMaterial_509-effect":{"name":"CityEngineMaterial_509","technique":"technique0","values":{"ambient":[1,1,1,1],"diffuse":[1,1,1,1],"emission":[0,0,0,1],"shininess":50,"specular":[0.5,0.5,0.5,1]}},"CityEngineMaterial_510-effect":{"name":"CityEngineMaterial_510","technique":"technique0","values":{"ambient":[1,1,1,1],"diffuse":[1,1,1,1],"emission":[0,0,0,1],"shininess":50,"specular":[0.5,0.5,0.5,1]}},"CityEngineMaterial_511-effect":{"name":"CityEngineMaterial_511","technique":"technique0","values":{"ambient":[1,1,1,1],"diffuse":[1,1,1,1],"emission":[0,0,0,1],"shininess":50,"specular":[0.5,0.5,0.5,1]}},"CityEngineMaterial_512-effect":{"name":"CityEngineMaterial_512","technique":"technique0","values":{"ambient":[1,1,1,1],"diffuse":[1,1,1,1],"emission":[0,0,0,1],"shininess":50,"specular":[0.5,0.5,0.5,1]}},"CityEngineMaterial_513-effect":{"name":"CityEngineMaterial_513","technique":"technique0","values":{"ambient":[1,1,1,1],"diffuse":[1,1,1,1],"emission":[0,0,0,1],"shininess":50,"specular":[0.5,0.5,0.5,1]}},"CityEngineMaterial_514-effect":{"name":"CityEngineMaterial_514","technique":"technique0","values":{"ambient":[1,1,1,1],"diffuse":[1,1,1,1],"emission":[0,0,0,1],"shininess":50,"specular":[0.5,0.5,0.5,1]}},"CityEngineMaterial_515-effect":{"name":"CityEngineMaterial_515","technique":"technique0","values":{"ambient":[1,1,1,1],"diffuse":[1,1,1,1],"emission":[0,0,0,1],"shininess":50,"specular":[0.5,0.5,0.5,1]}},"CityEngineMaterial_516-effect":{"name":"CityEngineMaterial_516","technique":"technique0","values":{"ambient":[1,1,1,1],"diffuse":[1,1,1,1],"emission":[0,0,0,1],"shininess":50,"specular":[0.5,0.5,0.5,1]}},"CityEngineMaterial_517-effect":{"name":"CityEngineMaterial_517","technique":"technique0","values":{"ambient":[1,1,1,1],"diffuse":[1,1,1,1],"emission":[0,0,0,1],"shininess":50,"specular":[0.5,0.5,0.5,1]}},"CityEngineMaterial_518-effect":{"name":"CityEngineMaterial_518","technique":"technique0","values":{"ambient":[1,1,1,1],"diffuse":[1,1,1,1],"emission":[0,0,0,1],"shininess":50,"specular":[0.5,0.5,0.5,1]}}},"meshes":{"mesh_CityEngineMaterial_507-mesh":{"name":"mesh_CityEngineMaterial.507","primitives":[{"attributes":{"NORMAL":"accessor_20","POSITION":"accessor_18","BATCHID":"accessor_b0"},"indices":"accessor_16","material":"CityEngineMaterial_509-effect","mode":4}]},"mesh_CityEngineMaterial_508-mesh":{"name":"mesh_CityEngineMaterial.508","primitives":[{"attributes":{"NORMAL":"accessor_40","POSITION":"accessor_38","BATCHID":"accessor_b1"},"indices":"accessor_36","material":"CityEngineMaterial_510-effect","mode":4}]},"mesh_CityEngineMaterial_509-mesh":{"name":"mesh_CityEngineMaterial.509","primitives":[{"attributes":{"NORMAL":"accessor_60","POSITION":"accessor_58","BATCHID":"accessor_b2"},"indices":"accessor_56","material":"CityEngineMaterial_511-effect","mode":4}]},"mesh_CityEngineMaterial_510-mesh":{"name":"mesh_CityEngineMaterial.510","primitives":[{"attributes":{"NORMAL":"accessor_80","POSITION":"accessor_78","BATCHID":"accessor_b3"},"indices":"accessor_76","material":"CityEngineMaterial_512-effect","mode":4}]},"mesh_CityEngineMaterial_511-mesh":{"name":"mesh_CityEngineMaterial.511","primitives":[{"attributes":{"NORMAL":"accessor_100","POSITION":"accessor_98","BATCHID":"accessor_b4"},"indices":"accessor_96","material":"CityEngineMaterial_513-effect","mode":4}]},"mesh_CityEngineMaterial_512-mesh":{"name":"mesh_CityEngineMaterial.512","primitives":[{"attributes":{"NORMAL":"accessor_120","POSITION":"accessor_118","BATCHID":"accessor_b5"},"indices":"accessor_116","material":"CityEngineMaterial_514-effect","mode":4}]},"mesh_CityEngineMaterial_513-mesh":{"name":"mesh_CityEngineMaterial.513","primitives":[{"attributes":{"NORMAL":"accessor_140","POSITION":"accessor_138","BATCHID":"accessor_b6"},"indices":"accessor_136","material":"CityEngineMaterial_515-effect","mode":4}]},"mesh_CityEngineMaterial_514-mesh":{"name":"mesh_CityEngineMaterial.514","primitives":[{"attributes":{"NORMAL":"accessor_160","POSITION":"accessor_158","BATCHID":"accessor_b7"},"indices":"accessor_156","material":"CityEngineMaterial_516-effect","mode":4}]},"mesh_CityEngineMaterial_515-mesh":{"name":"mesh_CityEngineMaterial.515","primitives":[{"attributes":{"NORMAL":"accessor_180","POSITION":"accessor_178","BATCHID":"accessor_b8"},"indices":"accessor_176","material":"CityEngineMaterial_517-effect","mode":4}]},"mesh_CityEngineMaterial_516-mesh":{"name":"mesh_CityEngineMaterial.516","primitives":[{"attributes":{"NORMAL":"accessor_200","POSITION":"accessor_198","BATCHID":"accessor_b9"},"indices":"accessor_196","material":"CityEngineMaterial_518-effect","mode":4}]}},"nodes":{"CityEngineMaterial":{"children":[],"matrix":[1,0,0,0,0,-1.62921e-7,1,0,0,-1,-1.62921e-7,0,0,0,0,1],"meshes":["mesh_CityEngineMaterial_507-mesh"],"name":"CityEngineMaterial"},"CityEngineMaterial_001":{"children":[],"matrix":[1,0,0,0,0,-1.62921e-7,1,0,0,-1,-1.62921e-7,0,0,0,0,1],"meshes":["mesh_CityEngineMaterial_508-mesh"],"name":"CityEngineMaterial_001"},"CityEngineMaterial_002":{"children":[],"matrix":[1,0,0,0,0,-1.62921e-7,1,0,0,-1,-1.62921e-7,0,0,0,0,1],"meshes":["mesh_CityEngineMaterial_509-mesh"],"name":"CityEngineMaterial_002"},"CityEngineMaterial_003":{"children":[],"matrix":[1,0,0,0,0,-1.62921e-7,1,0,0,-1,-1.62921e-7,0,0,0,0,1],"meshes":["mesh_CityEngineMaterial_510-mesh"],"name":"CityEngineMaterial_003"},"CityEngineMaterial_004":{"children":[],"matrix":[1,0,0,0,0,-1.62921e-7,1,0,0,-1,-1.62921e-7,0,0,0,0,1],"meshes":["mesh_CityEngineMaterial_511-mesh"],"name":"CityEngineMaterial_004"},"CityEngineMaterial_005":{"children":[],"matrix":[1,0,0,0,0,-1.62921e-7,1,0,0,-1,-1.62921e-7,0,0,0,0,1],"meshes":["mesh_CityEngineMaterial_512-mesh"],"name":"CityEngineMaterial_005"},"CityEngineMaterial_006":{"children":[],"matrix":[1,0,0,0,0,-1.62921e-7,1,0,0,-1,-1.62921e-7,0,0,0,0,1],"meshes":["mesh_CityEngineMaterial_513-mesh"],"name":"CityEngineMaterial_006"},"CityEngineMaterial_007":{"children":[],"matrix":[1,0,0,0,0,-1.62921e-7,1,0,0,-1,-1.62921e-7,0,0,0,0,1],"meshes":["mesh_CityEngineMaterial_514-mesh"],"name":"CityEngineMaterial_007"},"CityEngineMaterial_008":{"children":[],"matrix":[1,0,0,0,0,-1.62921e-7,1,0,0,-1,-1.62921e-7,0,0,0,0,1],"meshes":["mesh_CityEngineMaterial_515-mesh"],"name":"CityEngineMaterial_008"},"CityEngineMaterial_009":{"children":[],"matrix":[1,0,0,0,0,-1.62921e-7,1,0,0,-1,-1.62921e-7,0,0,0,0,1],"meshes":["mesh_CityEngineMaterial_516-mesh"],"name":"CityEngineMaterial_009"},"node_10":{"children":["CityEngineMaterial","CityEngineMaterial_001","CityEngineMaterial_002","CityEngineMaterial_003","CityEngineMaterial_004","CityEngineMaterial_005","CityEngineMaterial_006","CityEngineMaterial_007","CityEngineMaterial_008","CityEngineMaterial_009"],"matrix":[1,0,0,0,0,0,-1,0,0,1,0,0,0,0,0,1],"name":"Y_UP_Transform"}},"programs":{"program_0":{"attributes":["a_normal","a_position","a_batchId"],"fragmentShader":"\\data\\3dcity\\miami\\workspace\\gridID_51\\gridID_510FS","vertexShader":"\\data\\3dcity\\miami\\workspace\\gridID_51\\gridID_510VS"}},"scene":"defaultScene","scenes":{"defaultScene":{"nodes":["node_10"]}},"shaders":{"\\data\\3dcity\\miami\\workspace\\gridID_51\\gridID_510FS":{"type":35632,"uri":"data:text/plain;base64,"},"\\data\\3dcity\\miami\\workspace\\gridID_51\\gridID_510VS":{"type":35633,"uri":"data:text/plain;base64,"}},"skins":{},"techniques":{"technique0":{"attributes":{"a_normal":"normal","a_position":"position","a_batchId":"batchId"},"parameters":{"ambient":{"type":35666},"diffuse":{"type":35666},"emission":{"type":35666},"modelViewMatrix":{"semantic":"MODELVIEW","type":35676},"normal":{"semantic":"NORMAL","type":35665},"normalMatrix":{"semantic":"MODELVIEWINVERSETRANSPOSE","type":35675},"position":{"semantic":"POSITION","type":35665},"projectionMatrix":{"semantic":"PROJECTION","type":35676},"shininess":{"type":5126},"specular":{"type":35666},"batchId":{"semantic":"BATCHID","type":5126}},"program":"program_0","states":{"enable":[2929,2884]},"uniforms":{"u_ambient":"ambient","u_diffuse":"diffuse","u_emission":"emission","u_modelViewMatrix":"modelViewMatrix","u_normalMatrix":"normalMatrix","u_projectionMatrix":"projectionMatrix","u_shininess":"shininess","u_specular":"specular"}}}}