{"accessors":{"accessor_16":{"bufferView":"bufferView_82","byteOffset":0,"byteStride":0,"componentType":5123,"count":216,"type":"SCALAR"},"accessor_18":{"bufferView":"bufferView_83","byteOffset":0,"byteStride":12,"componentType":5126,"count":141,"max":[55.3626,10.5,114.719],"min":[4.60094,0,40.9861],"type":"VEC3"},"accessor_20":{"bufferView":"bufferView_83","byteOffset":1692,"byteStride":12,"componentType":5126,"count":141,"max":[1,1,0.972444],"min":[-0.986809,-1,-0.97371],"type":"VEC3"},"accessor_36":{"bufferView":"bufferView_82","byteOffset":432,"byteStride":0,"componentType":5123,"count":96,"type":"SCALAR"},"accessor_38":{"bufferView":"bufferView_83","byteOffset":3384,"byteStride":12,"componentType":5126,"count":72,"max":[1.317,10,109.441],"min":[-59.1295,0,29.9478],"type":"VEC3"},"accessor_40":{"bufferView":"bufferView_83","byteOffset":4248,"byteStride":12,"componentType":5126,"count":72,"max":[0.974624,1,0.974464],"min":[-0.974389,-1,-0.974426],"type":"VEC3"},"accessor_56":{"bufferView":"bufferView_82","byteOffset":624,"byteStride":0,"componentType":5123,"count":300,"type":"SCALAR"},"accessor_58":{"bufferView":"bufferView_83","byteOffset":5112,"byteStride":12,"componentType":5126,"count":199,"max":[90.6843,48,10.4793],"min":[-53.3186,0,-84.8611],"type":"VEC3"},"accessor_60":{"bufferView":"bufferView_83","byteOffset":7500,"byteStride":12,"componentType":5126,"count":199,"max":[0.969712,1,0.968824],"min":[-0.969579,-1,-0.96864],"type":"VEC3"},"accessor_76":{"bufferView":"bufferView_82","byteOffset":1224,"byteStride":0,"componentType":5123,"count":36,"type":"SCALAR"},"accessor_78":{"bufferView":"bufferView_83","byteOffset":9888,"byteStride":12,"componentType":5126,"count":32,"max":[76.8362,10,20.7759],"min":[50.1529,0,-11.0659],"type":"VEC3"},"accessor_80":{"bufferView":"bufferView_83","byteOffset":10272,"byteStride":12,"componentType":5126,"count":32,"max":[0.969884,1,0.969244],"min":[-0.969884,-1,-0.969244],"type":"VEC3"},"accessor_b0":{"bufferView":"bufferView_b","byteOffset":0,"byteStride":0,"componentType":5123,"count":141,"type":"SCALAR"},"accessor_b1":{"bufferView":"bufferView_b","byteOffset":282,"byteStride":0,"componentType":5123,"count":72,"type":"SCALAR"},"accessor_b2":{"bufferView":"bufferView_b","byteOffset":426,"byteStride":0,"componentType":5123,"count":199,"type":"SCALAR"},"accessor_b3":{"bufferView":"bufferView_b","byteOffset":824,"byteStride":0,"componentType":5123,"count":32,"type":"SCALAR"}},"animations":{},"asset":{"generator":"collada2gltf@cf6371beb0bdc18ba603378d5e40c966da53d385","premultipliedAlpha":true,"profile":{"api":"WebGL","version":"1.0.2"},"version":"1.0"},"bufferViews":{"bufferView_82":{"buffer":"\\data\\3dcity\\miami\\workspace\\gridID_66\\gridID_66","byteLength":1296,"byteOffset":0,"target":34963},"bufferView_83":{"buffer":"\\data\\3dcity\\miami\\workspace\\gridID_66\\gridID_66","byteLength":10656,"byteOffset":1296,"target":34962},"bufferView_b":{"buffer":"buffer_b","byteLength":888,"byteOffset":0,"target":34962}},"buffers":{"\\data\\3dcity\\miami\\workspace\\gridID_66\\gridID_66":{"byteLength":11952,"type":"arraybuffer","uri":"data:application/octet-stream;base64,"},"buffer_b":{"type":"arraybuffer","byteLength":888,"uri":"data:application/octet-stream;base64,"}},"materials":{"CityEngineMaterial_602-effect":{"name":"CityEngineMaterial_602","technique":"technique0","values":{"ambient":[1,1,1,1],"diffuse":[1,1,1,1],"emission":[0,0,0,1],"shininess":50,"specular":[0.5,0.5,0.5,1]}},"CityEngineMaterial_603-effect":{"name":"CityEngineMaterial_603","technique":"technique0","values":{"ambient":[1,1,1,1],"diffuse":[1,1,1,1],"emission":[0,0,0,1],"shininess":50,"specular":[0.5,0.5,0.5,1]}},"CityEngineMaterial_604-effect":{"name":"CityEngineMaterial_604","technique":"technique0","values":{"ambient":[1,1,1,1],"diffuse":[1,1,1,1],"emission":[0,0,0,1],"shininess":50,"specular":[0.5,0.5,0.5,1]}},"CityEngineMaterial_605-effect":{"name":"CityEngineMaterial_605","technique":"technique0","values":{"ambient":[1,1,1,1],"diffuse":[1,1,1,1],"emission":[0,0,0,1],"shininess":50,"specular":[0.5,0.5,0.5,1]}}},"meshes":{"mesh_CityEngineMaterial_600-mesh":{"name":"mesh_CityEngineMaterial.600","primitives":[{"attributes":{"NORMAL":"accessor_20","POSITION":"accessor_18","BATCHID":"accessor_b0"},"indices":"accessor_16","material":"CityEngineMaterial_602-effect","mode":4}]},"mesh_CityEngineMaterial_601-mesh":{"name":"mesh_CityEngineMaterial.601","primitives":[{"attributes":{"NORMAL":"accessor_40","POSITION":"accessor_38","BATCHID":"accessor_b1"},"indices":"accessor_36","material":"CityEngineMaterial_603-effect","mode":4}]},"mesh_CityEngineMaterial_602-mesh":{"name":"mesh_CityEngineMaterial.602","primitives":[{"attributes":{"NORMAL":"accessor_60","POSITION":"accessor_58","BATCHID":"accessor_b2"},"indices":"accessor_56","material":"CityEngineMaterial_604-effect","mode":4}]},"mesh_CityEngineMaterial_603-mesh":{"name":"mesh_CityEngineMaterial.603","primitives":[{"attributes":{"NORMAL":"accessor_80","POSITION":"accessor_78","BATCHID":"accessor_b3"},"indices":"accessor_76","material":"CityEngineMaterial_605-effect","mode":4}]}},"nodes":{"CityEngineMaterial":{"children":[],"matrix":[1,0,0,0,0,-1.62921e-7,1,0,0,-1,-1.62921e-7,0,0,0,0,1],"meshes":["mesh_CityEngineMaterial_600-mesh"],"name":"CityEngineMaterial"},"CityEngineMaterial_001":{"children":[],"matrix":[1,0,0,0,0,-1.62921e-7,1,0,0,-1,-1.62921e-7,0,0,0,0,1],"meshes":["mesh_CityEngineMaterial_601-mesh"],"name":"CityEngineMaterial_001"},"CityEngineMaterial_002":{"children":[],"matrix":[1,0,0,0,0,-1.62921e-7,1,0,0,-1,-1.62921e-7,0,0,0,0,1],"meshes":["mesh_CityEngineMaterial_602-mesh"],"name":"CityEngineMaterial_002"},"CityEngineMaterial_003":{"children":[],"matrix":[1,0,0,0,0,-1.62921e-7,1,0,0,-1,-1.62921e-7,0,0,0,0,1],"meshes":["mesh_CityEngineMaterial_603-mesh"],"name":"CityEngineMaterial_003"},"node_4":{"children":["CityEngineMaterial","CityEngineMaterial_001","CityEngineMaterial_002","CityEngineMaterial_003"],"matrix":[1,0,0,0,0,0,-1,0,0,1,0,0,0,0,0,1],"name":"Y_UP_Transform"}},"programs":{"program_0":{"attributes":["a_normal","a_position","a_batchId"],"fragmentShader":"\\data\\3dcity\\miami\\workspace\\gridID_66\\gridID_660FS","vertexShader":"\\data\\3dcity\\miami\\workspace\\gridID_66\\gridID_660VS"}},"scene":"defaultScene","scenes":{"defaultScene":{"nodes":["node_4"]}},"shaders":{"\\data\\3dcity\\miami\\workspace\\gridID_66\\gridID_660FS":{"type":35632,"uri":"data:text/plain;base64,"},"\\data\\3dcity\\miami\\workspace\\gridID_66\\gridID_660VS":{"type":35633,"uri":"data:text/plain;base64,"}},"skins":{},"techniques":{"technique0":{"attributes":{"a_normal":"normal","a_position":"position","a_batchId":"batchId"},"parameters":{"ambient":{"type":35666},"diffuse":{"type":35666},"emission":{"type":35666},"modelViewMatrix":{"semantic":"MODELVIEW","type":35676},"normal":{"semantic":"NORMAL","type":35665},"normalMatrix":{"semantic":"MODELVIEWINVERSETRANSPOSE","type":35675},"position":{"semantic":"POSITION","type":35665},"projectionMatrix":{"semantic":"PROJECTION","type":35676},"shininess":{"type":5126},"specular":{"type":35666},"batchId":{"semantic":"BATCHID","type":5126}},"program":"program_0","states":{"enable":[2929,2884]},"uniforms":{"u_ambient":"ambient","u_diffuse":"diffuse","u_emission":"emission","u_modelViewMatrix":"modelViewMatrix","u_normalMatrix":"normalMatrix","u_projectionMatrix":"projectionMatrix","u_shininess":"shininess","u_specular":"specular"}}}}