{
    "accessors": {
        "accessor_101": {
            "bufferView": "bufferView_157",
            "byteOffset": 2508,
            "byteStride": 0,
            "componentType": 5123,
            "count": 186,
            "type": "SCALAR"
        },
        "accessor_103": {
            "bufferView": "bufferView_158",
            "byteOffset": 15624,
            "byteStride": 12,
            "componentType": 5126,
            "count": 575,
            "max": [
                27.4192,
                11.6349,
                9.8674
            ],
            "min": [
                -26.7158,
                -10.8651,
                -11.9506
            ],
            "type": "VEC3"
        },
        "accessor_105": {
            "bufferView": "bufferView_158",
            "byteOffset": 22524,
            "byteStride": 12,
            "componentType": 5126,
            "count": 575,
            "max": [
                0.999129,
                1,
                1
            ],
            "min": [
                -0.999246,
                0,
                -0.998957
            ],
            "type": "VEC3"
        },
        "accessor_145": {
            "bufferView": "bufferView_157",
            "byteOffset": 648,
            "byteStride": 0,
            "componentType": 5123,
            "count": 264,
            "type": "SCALAR"
        },
        "accessor_148": {
            "bufferView": "bufferView_157",
            "byteOffset": 1176,
            "byteStride": 0,
            "componentType": 5123,
            "count": 48,
            "type": "SCALAR"
        },
        "accessor_151": {
            "bufferView": "bufferView_157",
            "byteOffset": 1272,
            "byteStride": 0,
            "componentType": 5123,
            "count": 108,
            "type": "SCALAR"
        },
        "accessor_153": {
            "bufferView": "bufferView_158",
            "byteOffset": 6888,
            "byteStride": 12,
            "componentType": 5126,
            "count": 364,
            "max": [
                17.6031,
                25.1652,
                14.4144
            ],
            "min": [
                -17.4359,
                -27.4403,
                -14.1276
            ],
            "type": "VEC3"
        },
        "accessor_155": {
            "bufferView": "bufferView_158",
            "byteOffset": 11256,
            "byteStride": 12,
            "componentType": 5126,
            "count": 364,
            "max": [
                1,
                1,
                1
            ],
            "min": [
                -1,
                -1,
                -1
            ],
            "type": "VEC3"
        },
        "accessor_28": {
            "bufferView": "bufferView_157",
            "byteOffset": 0,
            "byteStride": 0,
            "componentType": 5123,
            "count": 24,
            "type": "SCALAR"
        },
        "accessor_31": {
            "bufferView": "bufferView_157",
            "byteOffset": 48,
            "byteStride": 0,
            "componentType": 5123,
            "count": 18,
            "type": "SCALAR"
        },
        "accessor_33": {
            "bufferView": "bufferView_158",
            "byteOffset": 0,
            "byteStride": 12,
            "componentType": 5126,
            "count": 34,
            "max": [
                19.7043,
                7,
                9.49001
            ],
            "min": [
                -19.7048,
                -5.5,
                -9.49001
            ],
            "type": "VEC3"
        },
        "accessor_35": {
            "bufferView": "bufferView_158",
            "byteOffset": 408,
            "byteStride": 12,
            "componentType": 5126,
            "count": 34,
            "max": [
                0.958086,
                0.637439,
                0.958234
            ],
            "min": [
                -0.958052,
                0,
                -0.958236
            ],
            "type": "VEC3"
        },
        "accessor_63": {
            "bufferView": "bufferView_157",
            "byteOffset": 84,
            "byteStride": 0,
            "componentType": 5123,
            "count": 192,
            "type": "SCALAR"
        },
        "accessor_66": {
            "bufferView": "bufferView_157",
            "byteOffset": 468,
            "byteStride": 0,
            "componentType": 5123,
            "count": 90,
            "type": "SCALAR"
        },
        "accessor_68": {
            "bufferView": "bufferView_158",
            "byteOffset": 816,
            "byteStride": 12,
            "componentType": 5126,
            "count": 253,
            "max": [
                37.0469,
                3.75,
                12.9722
            ],
            "min": [
                -35.4401,
                -3.75,
                -15.4578
            ],
            "type": "VEC3"
        },
        "accessor_70": {
            "bufferView": "bufferView_158",
            "byteOffset": 3852,
            "byteStride": 12,
            "componentType": 5126,
            "count": 253,
            "max": [
                0.999601,
                1,
                0.999723
            ],
            "min": [
                -0.999582,
                0,
                -0.999561
            ],
            "type": "VEC3"
        },
        "accessor_98": {
            "bufferView": "bufferView_157",
            "byteOffset": 1488,
            "byteStride": 0,
            "componentType": 5123,
            "count": 510,
            "type": "SCALAR"
        }
    },
    "animations": {},
    "asset": {
        "generator": "collada2gltf@cf6371beb0bdc18ba603378d5e40c966da53d385",
        "premultipliedAlpha": true,
        "profile": {
            "api": "WebGL",
            "version": "1.0.2"
        },
        "version": "1.0"
    },
    "bufferViews": {
        "bufferView_157": {
            "buffer": "\\data\\ECNU\\workspace\\gridID_30\\gridID_30",
            "byteLength": 2880,
            "byteOffset": 0,
            "target": 34963
        },
        "bufferView_158": {
            "buffer": "\\data\\ECNU\\workspace\\gridID_30\\gridID_30",
            "byteLength": 29424,
            "byteOffset": 2880,
            "target": 34962
        }
    },
    "buffers": {
        "\\data\\ECNU\\workspace\\gridID_30\\gridID_30": {
            "byteLength": 32304,
            "type": "arraybuffer",
            "uri": "data:application/octet-stream;base64,"
        }
    },
    "materials": {
        "BUILDING_DEFAULT_0-effect": {
            "name": "BUILDING_DEFAULT_0",
            "technique": "technique0",
            "values": {
                "ambient": [
                    0,
                    0,
                    0,
                    1
                ],
                "diffuse": [
                    0.723055,
                    0.708376,
                    0.672443,
                    1
                ],
                "emission": [
                    0,
                    0,
                    0,
                    1
                ],
                "shininess": 50,
                "specular": [
                    0.5,
                    0.5,
                    0.5,
                    1
                ]
            }
        },
        "CONCRETE_0-effect": {
            "name": "CONCRETE_0",
            "technique": "technique0",
            "values": {
                "ambient": [
                    0,
                    0,
                    0,
                    1
                ],
                "diffuse": [
                    0.309469,
                    0.327778,
                    0.309469,
                    1
                ],
                "emission": [
                    0,
                    0,
                    0,
                    1
                ],
                "shininess": 50,
                "specular": [
                    0.5,
                    0.5,
                    0.5,
                    1
                ]
            }
        },
        "ROOF_DEFAULT_0-effect": {
            "name": "ROOF_DEFAULT_0",
            "technique": "technique0",
            "values": {
                "ambient": [
                    0,
                    0,
                    0,
                    1
                ],
                "diffuse": [
                    0.603827,
                    0.381326,
                    0.291771,
                    1
                ],
                "emission": [
                    0,
                    0,
                    0,
                    1
                ],
                "shininess": 50,
                "specular": [
                    0.5,
                    0.5,
                    0.5,
                    1
                ]
            }
        }
    },
    "meshes": {
        "Building3444-mesh": {
            "name": "Building3444",
            "primitives": [
                {
                    "attributes": {
                        "NORMAL": "accessor_35",
                        "POSITION": "accessor_33"
                    },
                    "indices": "accessor_28",
                    "material": "BUILDING_DEFAULT_0-effect",
                    "mode": 4
                },
                {
                    "attributes": {
                        "NORMAL": "accessor_35",
                        "POSITION": "accessor_33"
                    },
                    "indices": "accessor_31",
                    "material": "ROOF_DEFAULT_0-effect",
                    "mode": 4
                }
            ]
        },
        "Building3492-mesh": {
            "name": "Building3492",
            "primitives": [
                {
                    "attributes": {
                        "NORMAL": "accessor_70",
                        "POSITION": "accessor_68"
                    },
                    "indices": "accessor_63",
                    "material": "BUILDING_DEFAULT_0-effect",
                    "mode": 4
                },
                {
                    "attributes": {
                        "NORMAL": "accessor_70",
                        "POSITION": "accessor_68"
                    },
                    "indices": "accessor_66",
                    "material": "ROOF_DEFAULT_0-effect",
                    "mode": 4
                }
            ]
        },
        "Building3536-mesh": {
            "name": "Building3536",
            "primitives": [
                {
                    "attributes": {
                        "NORMAL": "accessor_155",
                        "POSITION": "accessor_153"
                    },
                    "indices": "accessor_145",
                    "material": "BUILDING_DEFAULT_0-effect",
                    "mode": 4
                },
                {
                    "attributes": {
                        "NORMAL": "accessor_155",
                        "POSITION": "accessor_153"
                    },
                    "indices": "accessor_148",
                    "material": "ROOF_DEFAULT_0-effect",
                    "mode": 4
                },
                {
                    "attributes": {
                        "NORMAL": "accessor_155",
                        "POSITION": "accessor_153"
                    },
                    "indices": "accessor_151",
                    "material": "CONCRETE_0-effect",
                    "mode": 4
                }
            ]
        },
        "Building3680-mesh": {
            "name": "Building3680",
            "primitives": [
                {
                    "attributes": {
                        "NORMAL": "accessor_105",
                        "POSITION": "accessor_103"
                    },
                    "indices": "accessor_98",
                    "material": "BUILDING_DEFAULT_0-effect",
                    "mode": 4
                },
                {
                    "attributes": {
                        "NORMAL": "accessor_105",
                        "POSITION": "accessor_103"
                    },
                    "indices": "accessor_101",
                    "material": "ROOF_DEFAULT_0-effect",
                    "mode": 4
                }
            ]
        }
    },
    "nodes": {
        "model_gridID_30_w376378542": {
            "children": [],
            "matrix": [
                1,
                0,
                0,
                0,
                0,
                -1.62921e-007,
                1,
                0,
                0,
                -1,
                -1.62921e-007,
                0,
                102.758,
                -239.039,
                5.49996,
                1
            ],
            "meshes": [
                "Building3444-mesh"
            ],
            "name": "model_gridID_30_w376378542"
        },
        "model_gridID_30_w389551018": {
            "children": [],
            "matrix": [
                1,
                0,
                0,
                0,
                0,
                -1.62921e-007,
                1,
                0,
                0,
                -1,
                -1.62921e-007,
                0,
                77.7811,
                -301.367,
                3.74995,
                1
            ],
            "meshes": [
                "Building3492-mesh"
            ],
            "name": "model_gridID_30_w389551018"
        },
        "model_gridID_30_w399653893": {
            "children": [],
            "matrix": [
                1,
                0,
                0,
                0,
                0,
                -1.62921e-007,
                1,
                0,
                0,
                -1,
                -1.62921e-007,
                0,
                84.6578,
                -335.273,
                10.865,
                1
            ],
            "meshes": [
                "Building3680-mesh"
            ],
            "name": "model_gridID_30_w399653893"
        },
        "model_gridID_30_w399692316": {
            "children": [],
            "matrix": [
                1,
                0,
                0,
                0,
                0,
                -1.62921e-007,
                1,
                0,
                0,
                -1,
                -1.62921e-007,
                0,
                141.869,
                -297.087,
                27.4402,
                1
            ],
            "meshes": [
                "Building3536-mesh"
            ],
            "name": "model_gridID_30_w399692316"
        },
        "node_4": {
            "children": [
                "model_gridID_30_w376378542",
                "model_gridID_30_w389551018",
                "model_gridID_30_w399653893",
                "model_gridID_30_w399692316"
            ],
            "matrix": [
                1,
                0,
                0,
                0,
                0,
                0,
                -1,
                0,
                0,
                1,
                0,
                0,
                0,
                0,
                0,
                1
            ],
            "name": "Y_UP_Transform"
        }
    },
    "programs": {
        "program_0": {
            "attributes": [
                "a_normal",
                "a_position"
            ],
            "fragmentShader": "\\data\\ECNU\\workspace\\gridID_30\\gridID_300FS",
            "vertexShader": "\\data\\ECNU\\workspace\\gridID_30\\gridID_300VS"
        }
    },
    "scene": "defaultScene",
    "scenes": {
        "defaultScene": {
            "nodes": [
                "node_4"
            ]
        }
    },
    "shaders": {
        "\\data\\ECNU\\workspace\\gridID_30\\gridID_300FS": {
            "type": 35632,
            "uri": "data:text/plain;base64,"
        },
        "\\data\\ECNU\\workspace\\gridID_30\\gridID_300VS": {
            "type": 35633,
            "uri": "data:text/plain;base64,"
        }
    },
    "skins": {},
    "techniques": {
        "technique0": {
            "attributes": {
                "a_normal": "normal",
                "a_position": "position"
            },
            "parameters": {
                "ambient": {
                    "type": 35666
                },
                "diffuse": {
                    "type": 35666
                },
                "emission": {
                    "type": 35666
                },
                "modelViewMatrix": {
                    "semantic": "MODELVIEW",
                    "type": 35676
                },
                "normal": {
                    "semantic": "NORMAL",
                    "type": 35665
                },
                "normalMatrix": {
                    "semantic": "MODELVIEWINVERSETRANSPOSE",
                    "type": 35675
                },
                "position": {
                    "semantic": "POSITION",
                    "type": 35665
                },
                "projectionMatrix": {
                    "semantic": "PROJECTION",
                    "type": 35676
                },
                "shininess": {
                    "type": 5126
                },
                "specular": {
                    "type": 35666
                }
            },
            "program": "program_0",
            "states": {
                "enable": [
                    2929,
                    2884
                ]
            },
            "uniforms": {
                "u_ambient": "ambient",
                "u_diffuse": "diffuse",
                "u_emission": "emission",
                "u_modelViewMatrix": "modelViewMatrix",
                "u_normalMatrix": "normalMatrix",
                "u_projectionMatrix": "projectionMatrix",
                "u_shininess": "shininess",
                "u_specular": "specular"
            }
        }
    }
}