{"accessors":{"accessor_101":{"bufferView":"bufferView_212","byteOffset":276,"byteStride":0,"componentType":5123,"count":6,"type":"SCALAR"},"accessor_103":{"bufferView":"bufferView_213","byteOffset":2352,"byteStride":12,"componentType":5126,"count":28,"max":[7.00595,3.75,4.603],"min":[-7.00604,-3.75,-4.603],"type":"VEC3"},"accessor_105":{"bufferView":"bufferView_213","byteOffset":2688,"byteStride":12,"componentType":5126,"count":28,"max":[0.969908,1,0.969836],"min":[-0.969907,0,-0.969836],"type":"VEC3"},"accessor_133":{"bufferView":"bufferView_212","byteOffset":84,"byteStride":0,"componentType":5123,"count":24,"type":"SCALAR"},"accessor_136":{"bufferView":"bufferView_212","byteOffset":132,"byteStride":0,"componentType":5123,"count":18,"type":"SCALAR"},"accessor_138":{"bufferView":"bufferView_213","byteOffset":816,"byteStride":12,"componentType":5126,"count":40,"max":[39.806,7,15.8578],"min":[-39.801,-5.5,-15.8572],"type":"VEC3"},"accessor_140":{"bufferView":"bufferView_213","byteOffset":1296,"byteStride":12,"componentType":5126,"count":40,"max":[0.97466,0.824956,0.974756],"min":[-0.974813,0,-0.974752],"type":"VEC3"},"accessor_168":{"bufferView":"bufferView_212","byteOffset":168,"byteStride":0,"componentType":5123,"count":24,"type":"SCALAR"},"accessor_171":{"bufferView":"bufferView_212","byteOffset":216,"byteStride":0,"componentType":5123,"count":6,"type":"SCALAR"},"accessor_173":{"bufferView":"bufferView_213","byteOffset":1776,"byteStride":12,"componentType":5126,"count":24,"max":[5.69702,3.75,5.25725],"min":[-5.69699,-3.75,-5.25175],"type":"VEC3"},"accessor_175":{"bufferView":"bufferView_213","byteOffset":2064,"byteStride":12,"componentType":5126,"count":24,"max":[0.982351,1,0.982294],"min":[-0.982395,0,-0.982497],"type":"VEC3"},"accessor_203":{"bufferView":"bufferView_212","byteOffset":0,"byteStride":0,"componentType":5123,"count":24,"type":"SCALAR"},"accessor_206":{"bufferView":"bufferView_212","byteOffset":48,"byteStride":0,"componentType":5123,"count":18,"type":"SCALAR"},"accessor_208":{"bufferView":"bufferView_213","byteOffset":0,"byteStride":12,"componentType":5126,"count":34,"max":[12.1058,7,23.149],"min":[-12.1102,-5.5,-23.149],"type":"VEC3"},"accessor_210":{"bufferView":"bufferView_213","byteOffset":408,"byteStride":12,"componentType":5126,"count":34,"max":[0.948864,0.722244,0.948827],"min":[-0.948805,0,-0.948913],"type":"VEC3"},"accessor_28":{"bufferView":"bufferView_212","byteOffset":348,"byteStride":0,"componentType":5123,"count":24,"type":"SCALAR"},"accessor_31":{"bufferView":"bufferView_212","byteOffset":396,"byteStride":0,"componentType":5123,"count":6,"type":"SCALAR"},"accessor_33":{"bufferView":"bufferView_213","byteOffset":3552,"byteStride":12,"componentType":5126,"count":26,"max":[16.4582,3.75,7.75325],"min":[-16.4588,-3.75,-7.75375],"type":"VEC3"},"accessor_35":{"bufferView":"bufferView_213","byteOffset":3864,"byteStride":12,"componentType":5126,"count":26,"max":[0.967874,1,0.967715],"min":[-0.967834,0,-0.967709],"type":"VEC3"},"accessor_63":{"bufferView":"bufferView_212","byteOffset":288,"byteStride":0,"componentType":5123,"count":24,"type":"SCALAR"},"accessor_66":{"bufferView":"bufferView_212","byteOffset":336,"byteStride":0,"componentType":5123,"count":6,"type":"SCALAR"},"accessor_68":{"bufferView":"bufferView_213","byteOffset":3024,"byteStride":12,"componentType":5126,"count":22,"max":[22.7408,3.75,35.9697],"min":[-22.7412,-3.75,-35.9642],"type":"VEC3"},"accessor_70":{"bufferView":"bufferView_213","byteOffset":3288,"byteStride":12,"componentType":5126,"count":22,"max":[0.967772,1,0.967694],"min":[-0.967778,0,-0.967786],"type":"VEC3"},"accessor_98":{"bufferView":"bufferView_212","byteOffset":228,"byteStride":0,"componentType":5123,"count":24,"type":"SCALAR"},"accessor_b0":{"bufferView":"bufferView_b","byteOffset":0,"byteStride":0,"componentType":5123,"count":34,"type":"SCALAR"},"accessor_b1":{"bufferView":"bufferView_b","byteOffset":68,"byteStride":0,"componentType":5123,"count":40,"type":"SCALAR"},"accessor_b2":{"bufferView":"bufferView_b","byteOffset":148,"byteStride":0,"componentType":5123,"count":24,"type":"SCALAR"},"accessor_b3":{"bufferView":"bufferView_b","byteOffset":196,"byteStride":0,"componentType":5123,"count":28,"type":"SCALAR"},"accessor_b4":{"bufferView":"bufferView_b","byteOffset":252,"byteStride":0,"componentType":5123,"count":22,"type":"SCALAR"},"accessor_b5":{"bufferView":"bufferView_b","byteOffset":296,"byteStride":0,"componentType":5123,"count":26,"type":"SCALAR"}},"animations":{},"asset":{"generator":"collada2gltf@cf6371beb0bdc18ba603378d5e40c966da53d385","premultipliedAlpha":true,"profile":{"api":"WebGL","version":"1.0.2"},"version":"1.0"},"bufferViews":{"bufferView_212":{"buffer":"\\data\\ECNU\\workspace\\gridID_46\\gridID_46","byteLength":408,"byteOffset":0,"target":34963},"bufferView_213":{"buffer":"\\data\\ECNU\\workspace\\gridID_46\\gridID_46","byteLength":4176,"byteOffset":408,"target":34962},"bufferView_b":{"buffer":"buffer_b","byteLength":348,"byteOffset":0,"target":34962}},"buffers":{"\\data\\ECNU\\workspace\\gridID_46\\gridID_46":{"byteLength":4584,"type":"arraybuffer","uri":"data:application/octet-stream;base64,"},"buffer_b":{"type":"arraybuffer","byteLength":348,"uri":"data:application/octet-stream;base64,"}},"materials":{"BUILDING_DEFAULT_0-effect":{"name":"BUILDING_DEFAULT_0","technique":"technique0","values":{"ambient":[0,0,0,1],"diffuse":[0.723055,0.708376,0.672443,1],"emission":[0,0,0,1],"shininess":50,"specular":[0.5,0.5,0.5,1]}},"ROOF_DEFAULT_0-effect":{"name":"ROOF_DEFAULT_0","technique":"technique0","values":{"ambient":[0,0,0,1],"diffuse":[0.603827,0.381326,0.291771,1],"emission":[0,0,0,1],"shininess":50,"specular":[0.5,0.5,0.5,1]}}},"meshes":{"Building3850-mesh":{"name":"Building3850","primitives":[{"attributes":{"NORMAL":"accessor_210","POSITION":"accessor_208","BATCHID":"accessor_b0"},"indices":"accessor_203","material":"BUILDING_DEFAULT_0-effect","mode":4},{"attributes":{"NORMAL":"accessor_210","POSITION":"accessor_208","BATCHID":"accessor_b0"},"indices":"accessor_206","material":"ROOF_DEFAULT_0-effect","mode":4}]},"Building3877-mesh":{"name":"Building3877","primitives":[{"attributes":{"NORMAL":"accessor_140","POSITION":"accessor_138","BATCHID":"accessor_b1"},"indices":"accessor_133","material":"BUILDING_DEFAULT_0-effect","mode":4},{"attributes":{"NORMAL":"accessor_140","POSITION":"accessor_138","BATCHID":"accessor_b1"},"indices":"accessor_136","material":"ROOF_DEFAULT_0-effect","mode":4}]},"Building3882-mesh":{"name":"Building3882","primitives":[{"attributes":{"NORMAL":"accessor_175","POSITION":"accessor_173","BATCHID":"accessor_b2"},"indices":"accessor_168","material":"BUILDING_DEFAULT_0-effect","mode":4},{"attributes":{"NORMAL":"accessor_175","POSITION":"accessor_173","BATCHID":"accessor_b2"},"indices":"accessor_171","material":"ROOF_DEFAULT_0-effect","mode":4}]},"Building3885-mesh":{"name":"Building3885","primitives":[{"attributes":{"NORMAL":"accessor_105","POSITION":"accessor_103","BATCHID":"accessor_b3"},"indices":"accessor_98","material":"BUILDING_DEFAULT_0-effect","mode":4},{"attributes":{"NORMAL":"accessor_105","POSITION":"accessor_103","BATCHID":"accessor_b3"},"indices":"accessor_101","material":"ROOF_DEFAULT_0-effect","mode":4}]},"Building4074-mesh":{"name":"Building4074","primitives":[{"attributes":{"NORMAL":"accessor_70","POSITION":"accessor_68","BATCHID":"accessor_b4"},"indices":"accessor_63","material":"BUILDING_DEFAULT_0-effect","mode":4},{"attributes":{"NORMAL":"accessor_70","POSITION":"accessor_68","BATCHID":"accessor_b4"},"indices":"accessor_66","material":"ROOF_DEFAULT_0-effect","mode":4}]},"Building4128-mesh":{"name":"Building4128","primitives":[{"attributes":{"NORMAL":"accessor_35","POSITION":"accessor_33","BATCHID":"accessor_b5"},"indices":"accessor_28","material":"BUILDING_DEFAULT_0-effect","mode":4},{"attributes":{"NORMAL":"accessor_35","POSITION":"accessor_33","BATCHID":"accessor_b5"},"indices":"accessor_31","material":"ROOF_DEFAULT_0-effect","mode":4}]}},"nodes":{"model_gridID_46_w116940015":{"children":[],"matrix":[1,0,0,0,0,-1.62921e-7,1,0,0,-1,-1.62921e-7,0,-424.091,-64.4148,3.74999,1],"meshes":["Building4128-mesh"],"name":"model_gridID_46_w116940015"},"model_gridID_46_w116940015_001":{"children":[],"matrix":[1,0,0,0,0,-1.62921e-7,1,0,0,-1,-1.62921e-7,0,-435.8,-21.9383,3.75,1],"meshes":["Building4074-mesh"],"name":"model_gridID_46_w116940015_001"},"model_gridID_46_w116940036_001":{"children":[],"matrix":[1,0,0,0,0,-1.62921e-7,1,0,0,-1,-1.62921e-7,0,-412.697,-72.552,3.74999,1],"meshes":["Building3885-mesh"],"name":"model_gridID_46_w116940036_001"},"model_gridID_46_w379069945":{"children":[],"matrix":[1,0,0,0,0,-1.62921e-7,1,0,0,-1,-1.62921e-7,0,-479.518,-80.0662,5.49999,1],"meshes":["Building3877-mesh"],"name":"model_gridID_46_w379069945"},"model_gridID_46_w379069950":{"children":[],"matrix":[1,0,0,0,0,-1.62921e-7,1,0,0,-1,-1.62921e-7,0,-456.708,-109.079,3.74998,1],"meshes":["Building3882-mesh"],"name":"model_gridID_46_w379069950"},"model_gridID_46_w379069956":{"children":[],"matrix":[1,0,0,0,0,-1.62921e-7,1,0,0,-1,-1.62921e-7,0,-423.975,-99.714,5.49998,1],"meshes":["Building3850-mesh"],"name":"model_gridID_46_w379069956"},"node_6":{"children":["model_gridID_46_w116940015","model_gridID_46_w116940015_001","model_gridID_46_w116940036_001","model_gridID_46_w379069945","model_gridID_46_w379069950","model_gridID_46_w379069956"],"matrix":[1,0,0,0,0,0,-1,0,0,1,0,0,0,0,0,1],"name":"Y_UP_Transform"}},"programs":{"program_0":{"attributes":["a_normal","a_position","a_batchId"],"fragmentShader":"\\data\\ECNU\\workspace\\gridID_46\\gridID_460FS","vertexShader":"\\data\\ECNU\\workspace\\gridID_46\\gridID_460VS"}},"scene":"defaultScene","scenes":{"defaultScene":{"nodes":["node_6"]}},"shaders":{"\\data\\ECNU\\workspace\\gridID_46\\gridID_460FS":{"type":35632,"uri":"data:text/plain;base64,"},"\\data\\ECNU\\workspace\\gridID_46\\gridID_460VS":{"type":35633,"uri":"data:text/plain;base64,"}},"skins":{},"techniques":{"technique0":{"attributes":{"a_normal":"normal","a_position":"position","a_batchId":"batchId"},"parameters":{"ambient":{"type":35666},"diffuse":{"type":35666},"emission":{"type":35666},"modelViewMatrix":{"semantic":"MODELVIEW","type":35676},"normal":{"semantic":"NORMAL","type":35665},"normalMatrix":{"semantic":"MODELVIEWINVERSETRANSPOSE","type":35675},"position":{"semantic":"POSITION","type":35665},"projectionMatrix":{"semantic":"PROJECTION","type":35676},"shininess":{"type":5126},"specular":{"type":35666},"batchId":{"semantic":"BATCHID","type":5126}},"program":"program_0","states":{"enable":[2929,2884]},"uniforms":{"u_ambient":"ambient","u_diffuse":"diffuse","u_emission":"emission","u_modelViewMatrix":"modelViewMatrix","u_normalMatrix":"normalMatrix","u_projectionMatrix":"projectionMatrix","u_shininess":"shininess","u_specular":"specular"}}}}