{"accessors":{"accessor_16":{"bufferView":"bufferView_62","byteOffset":0,"byteStride":0,"componentType":5123,"count":36,"type":"SCALAR"},"accessor_18":{"bufferView":"bufferView_63","byteOffset":0,"byteStride":12,"componentType":5126,"count":28,"max":[49.5682,29,22.7753],"min":[1.16652,0,-33.3779],"type":"VEC3"},"accessor_20":{"bufferView":"bufferView_63","byteOffset":336,"byteStride":12,"componentType":5126,"count":28,"max":[0.802909,1,0.79979],"min":[-0.803083,-1,-0.799891],"type":"VEC3"},"accessor_36":{"bufferView":"bufferView_62","byteOffset":72,"byteStride":0,"componentType":5123,"count":36,"type":"SCALAR"},"accessor_38":{"bufferView":"bufferView_63","byteOffset":672,"byteStride":12,"componentType":5126,"count":26,"max":[71.2199,15,-69.3839],"min":[60.8672,0,-94.8959],"type":"VEC3"},"accessor_40":{"bufferView":"bufferView_63","byteOffset":984,"byteStride":12,"componentType":5126,"count":26,"max":[0.999954,1,0.999952],"min":[-0.999954,-1,-0.999952],"type":"VEC3"},"accessor_56":{"bufferView":"bufferView_62","byteOffset":144,"byteStride":0,"componentType":5123,"count":36,"type":"SCALAR"},"accessor_58":{"bufferView":"bufferView_63","byteOffset":1296,"byteStride":12,"componentType":5126,"count":28,"max":[53.5201,16,87.729],"min":[27.0817,0,63.0948],"type":"VEC3"},"accessor_60":{"bufferView":"bufferView_63","byteOffset":1632,"byteStride":12,"componentType":5126,"count":28,"max":[0.788499,1,0.785726],"min":[-0.788932,-1,-0.785547],"type":"VEC3"},"accessor_b0":{"bufferView":"bufferView_b","byteOffset":0,"byteStride":0,"componentType":5123,"count":28,"type":"SCALAR"},"accessor_b1":{"bufferView":"bufferView_b","byteOffset":56,"byteStride":0,"componentType":5123,"count":26,"type":"SCALAR"},"accessor_b2":{"bufferView":"bufferView_b","byteOffset":108,"byteStride":0,"componentType":5123,"count":28,"type":"SCALAR"}},"animations":{},"asset":{"generator":"collada2gltf@cf6371beb0bdc18ba603378d5e40c966da53d385","premultipliedAlpha":true,"profile":{"api":"WebGL","version":"1.0.2"},"version":"1.0"},"bufferViews":{"bufferView_62":{"buffer":"\\data\\3dcity\\miami\\workspace\\gridID_24\\gridID_24","byteLength":216,"byteOffset":0,"target":34963},"bufferView_63":{"buffer":"\\data\\3dcity\\miami\\workspace\\gridID_24\\gridID_24","byteLength":1968,"byteOffset":216,"target":34962},"bufferView_b":{"buffer":"buffer_b","byteLength":164,"byteOffset":0,"target":34962}},"buffers":{"\\data\\3dcity\\miami\\workspace\\gridID_24\\gridID_24":{"byteLength":2184,"type":"arraybuffer","uri":"data:application/octet-stream;base64,"},"buffer_b":{"type":"arraybuffer","byteLength":164,"uri":"data:application/octet-stream;base64,"}},"materials":{"CityEngineMaterial_361-effect":{"name":"CityEngineMaterial_361","technique":"technique0","values":{"ambient":[1,1,1,1],"diffuse":[1,1,1,1],"emission":[0,0,0,1],"shininess":50,"specular":[0.5,0.5,0.5,1]}},"CityEngineMaterial_362-effect":{"name":"CityEngineMaterial_362","technique":"technique0","values":{"ambient":[1,1,1,1],"diffuse":[1,1,1,1],"emission":[0,0,0,1],"shininess":50,"specular":[0.5,0.5,0.5,1]}},"CityEngineMaterial_363-effect":{"name":"CityEngineMaterial_363","technique":"technique0","values":{"ambient":[1,1,1,1],"diffuse":[1,1,1,1],"emission":[0,0,0,1],"shininess":50,"specular":[0.5,0.5,0.5,1]}}},"meshes":{"mesh_CityEngineMaterial_360-mesh":{"name":"mesh_CityEngineMaterial.360","primitives":[{"attributes":{"NORMAL":"accessor_20","POSITION":"accessor_18","BATCHID":"accessor_b0"},"indices":"accessor_16","material":"CityEngineMaterial_361-effect","mode":4}]},"mesh_CityEngineMaterial_361-mesh":{"name":"mesh_CityEngineMaterial.361","primitives":[{"attributes":{"NORMAL":"accessor_40","POSITION":"accessor_38","BATCHID":"accessor_b1"},"indices":"accessor_36","material":"CityEngineMaterial_362-effect","mode":4}]},"mesh_CityEngineMaterial_362-mesh":{"name":"mesh_CityEngineMaterial.362","primitives":[{"attributes":{"NORMAL":"accessor_60","POSITION":"accessor_58","BATCHID":"accessor_b2"},"indices":"accessor_56","material":"CityEngineMaterial_363-effect","mode":4}]}},"nodes":{"CityEngineMaterial":{"children":[],"matrix":[1,0,0,0,0,-1.62921e-7,1,0,0,-1,-1.62921e-7,0,0,0,0,1],"meshes":["mesh_CityEngineMaterial_360-mesh"],"name":"CityEngineMaterial"},"CityEngineMaterial_001":{"children":[],"matrix":[1,0,0,0,0,-1.62921e-7,1,0,0,-1,-1.62921e-7,0,0,0,0,1],"meshes":["mesh_CityEngineMaterial_361-mesh"],"name":"CityEngineMaterial_001"},"CityEngineMaterial_002":{"children":[],"matrix":[1,0,0,0,0,-1.62921e-7,1,0,0,-1,-1.62921e-7,0,0,0,0,1],"meshes":["mesh_CityEngineMaterial_362-mesh"],"name":"CityEngineMaterial_002"},"node_3":{"children":["CityEngineMaterial","CityEngineMaterial_001","CityEngineMaterial_002"],"matrix":[1,0,0,0,0,0,-1,0,0,1,0,0,0,0,0,1],"name":"Y_UP_Transform"}},"programs":{"program_0":{"attributes":["a_normal","a_position","a_batchId"],"fragmentShader":"\\data\\3dcity\\miami\\workspace\\gridID_24\\gridID_240FS","vertexShader":"\\data\\3dcity\\miami\\workspace\\gridID_24\\gridID_240VS"}},"scene":"defaultScene","scenes":{"defaultScene":{"nodes":["node_3"]}},"shaders":{"\\data\\3dcity\\miami\\workspace\\gridID_24\\gridID_240FS":{"type":35632,"uri":"data:text/plain;base64,"},"\\data\\3dcity\\miami\\workspace\\gridID_24\\gridID_240VS":{"type":35633,"uri":"data:text/plain;base64,"}},"skins":{},"techniques":{"technique0":{"attributes":{"a_normal":"normal","a_position":"position","a_batchId":"batchId"},"parameters":{"ambient":{"type":35666},"diffuse":{"type":35666},"emission":{"type":35666},"modelViewMatrix":{"semantic":"MODELVIEW","type":35676},"normal":{"semantic":"NORMAL","type":35665},"normalMatrix":{"semantic":"MODELVIEWINVERSETRANSPOSE","type":35675},"position":{"semantic":"POSITION","type":35665},"projectionMatrix":{"semantic":"PROJECTION","type":35676},"shininess":{"type":5126},"specular":{"type":35666},"batchId":{"semantic":"BATCHID","type":5126}},"program":"program_0","states":{"enable":[2929,2884]},"uniforms":{"u_ambient":"ambient","u_diffuse":"diffuse","u_emission":"emission","u_modelViewMatrix":"modelViewMatrix","u_normalMatrix":"normalMatrix","u_projectionMatrix":"projectionMatrix","u_shininess":"shininess","u_specular":"specular"}}}}