{"accessors":{"accessor_100":{"bufferView":"bufferView_203","byteOffset":18684,"byteStride":12,"componentType":5126,"count":209,"max":[0.999187,0.999168,1],"min":[-0.999187,-0.999168,0],"type":"VEC3"},"accessor_116":{"bufferView":"bufferView_202","byteOffset":1896,"byteStride":0,"componentType":5123,"count":30,"type":"SCALAR"},"accessor_118":{"bufferView":"bufferView_203","byteOffset":21192,"byteStride":12,"componentType":5126,"count":30,"max":[69.9365,40.475,12.0466],"min":[56.7051,16.2086,3.3784],"type":"VEC3"},"accessor_120":{"bufferView":"bufferView_203","byteOffset":21552,"byteStride":12,"componentType":5126,"count":30,"max":[0.999686,0.999679,1],"min":[-0.999686,-0.999679,0],"type":"VEC3"},"accessor_136":{"bufferView":"bufferView_202","byteOffset":1956,"byteStride":0,"componentType":5123,"count":1386,"type":"SCALAR"},"accessor_138":{"bufferView":"bufferView_203","byteOffset":21912,"byteStride":12,"componentType":5126,"count":1310,"max":[-4.00067,6.19912,20.5561],"min":[-20.7048,-65.2373,3.99682],"type":"VEC3"},"accessor_140":{"bufferView":"bufferView_203","byteOffset":37632,"byteStride":12,"componentType":5126,"count":1310,"max":[0.999506,0.999494,1],"min":[-0.999508,-0.999494,0],"type":"VEC3"},"accessor_156":{"bufferView":"bufferView_202","byteOffset":4728,"byteStride":0,"componentType":5123,"count":555,"type":"SCALAR"},"accessor_158":{"bufferView":"bufferView_203","byteOffset":53352,"byteStride":12,"componentType":5126,"count":503,"max":[65.5345,-15.8115,25.1814],"min":[25.215,-94.4567,2.83928],"type":"VEC3"},"accessor_16":{"bufferView":"bufferView_202","byteOffset":0,"byteStride":0,"componentType":5123,"count":276,"type":"SCALAR"},"accessor_160":{"bufferView":"bufferView_203","byteOffset":59388,"byteStride":12,"componentType":5126,"count":503,"max":[0.999445,0.999431,1],"min":[-0.999444,-0.999431,-1],"type":"VEC3"},"accessor_176":{"bufferView":"bufferView_202","byteOffset":5838,"byteStride":0,"componentType":5123,"count":93,"type":"SCALAR"},"accessor_178":{"bufferView":"bufferView_203","byteOffset":65424,"byteStride":12,"componentType":5126,"count":80,"max":[46.5821,54.6828,10.8829],"min":[27.7181,43.6014,3.57662],"type":"VEC3"},"accessor_18":{"bufferView":"bufferView_203","byteOffset":0,"byteStride":12,"componentType":5126,"count":253,"max":[50.5856,87.8354,9.2949],"min":[25.8317,74.7964,3.41586],"type":"VEC3"},"accessor_180":{"bufferView":"bufferView_203","byteOffset":66384,"byteStride":12,"componentType":5126,"count":80,"max":[0.999551,0.999541,1],"min":[-0.999551,-0.999542,0],"type":"VEC3"},"accessor_196":{"bufferView":"bufferView_202","byteOffset":6024,"byteStride":0,"componentType":5123,"count":285,"type":"SCALAR"},"accessor_198":{"bufferView":"bufferView_203","byteOffset":67344,"byteStride":12,"componentType":5126,"count":269,"max":[38.2155,39.5014,11.1118],"min":[24.0372,14.9661,3.3105],"type":"VEC3"},"accessor_20":{"bufferView":"bufferView_203","byteOffset":3036,"byteStride":12,"componentType":5126,"count":253,"max":[0.999528,0.999516,1],"min":[-0.999528,-0.999516,0],"type":"VEC3"},"accessor_200":{"bufferView":"bufferView_203","byteOffset":70572,"byteStride":12,"componentType":5126,"count":269,"max":[0.999775,0.999772,1],"min":[-0.999775,-0.999772,0],"type":"VEC3"},"accessor_36":{"bufferView":"bufferView_202","byteOffset":552,"byteStride":0,"componentType":5123,"count":120,"type":"SCALAR"},"accessor_38":{"bufferView":"bufferView_203","byteOffset":6072,"byteStride":12,"componentType":5126,"count":110,"max":[67.6945,73.2396,11.1072],"min":[53.8912,62.5139,3.56385],"type":"VEC3"},"accessor_40":{"bufferView":"bufferView_203","byteOffset":7392,"byteStride":12,"componentType":5126,"count":110,"max":[0.999857,0.999853,1],"min":[-0.999856,-0.999853,0],"type":"VEC3"},"accessor_56":{"bufferView":"bufferView_202","byteOffset":792,"byteStride":0,"componentType":5123,"count":138,"type":"SCALAR"},"accessor_58":{"bufferView":"bufferView_203","byteOffset":8712,"byteStride":12,"componentType":5126,"count":132,"max":[64.5965,61.1963,10.7829],"min":[53.0237,48.961,3.54046],"type":"VEC3"},"accessor_60":{"bufferView":"bufferView_203","byteOffset":10296,"byteStride":12,"componentType":5126,"count":132,"max":[0.999622,0.999613,1],"min":[-0.999622,-0.999613,0],"type":"VEC3"},"accessor_76":{"bufferView":"bufferView_202","byteOffset":1068,"byteStride":0,"componentType":5123,"count":192,"type":"SCALAR"},"accessor_78":{"bufferView":"bufferView_203","byteOffset":11880,"byteStride":12,"componentType":5126,"count":179,"max":[44.5205,72.2652,9.78258],"min":[27.8538,59.8583,3.45516],"type":"VEC3"},"accessor_80":{"bufferView":"bufferView_203","byteOffset":14028,"byteStride":12,"componentType":5126,"count":179,"max":[0.999704,0.999697,1],"min":[-0.999704,-0.999697,0],"type":"VEC3"},"accessor_96":{"bufferView":"bufferView_202","byteOffset":1452,"byteStride":0,"componentType":5123,"count":222,"type":"SCALAR"},"accessor_98":{"bufferView":"bufferView_203","byteOffset":16176,"byteStride":12,"componentType":5126,"count":209,"max":[52.7761,40.4852,9.26137],"min":[40.2861,12.9996,3.22486],"type":"VEC3"},"accessor_b0":{"bufferView":"bufferView_b","byteOffset":0,"byteStride":0,"componentType":5123,"count":253,"type":"SCALAR"},"accessor_b1":{"bufferView":"bufferView_b","byteOffset":506,"byteStride":0,"componentType":5123,"count":110,"type":"SCALAR"},"accessor_b2":{"bufferView":"bufferView_b","byteOffset":726,"byteStride":0,"componentType":5123,"count":132,"type":"SCALAR"},"accessor_b3":{"bufferView":"bufferView_b","byteOffset":990,"byteStride":0,"componentType":5123,"count":179,"type":"SCALAR"},"accessor_b4":{"bufferView":"bufferView_b","byteOffset":1348,"byteStride":0,"componentType":5123,"count":209,"type":"SCALAR"},"accessor_b5":{"bufferView":"bufferView_b","byteOffset":1766,"byteStride":0,"componentType":5123,"count":30,"type":"SCALAR"},"accessor_b6":{"bufferView":"bufferView_b","byteOffset":1826,"byteStride":0,"componentType":5123,"count":1310,"type":"SCALAR"},"accessor_b7":{"bufferView":"bufferView_b","byteOffset":4446,"byteStride":0,"componentType":5123,"count":503,"type":"SCALAR"},"accessor_b8":{"bufferView":"bufferView_b","byteOffset":5452,"byteStride":0,"componentType":5123,"count":80,"type":"SCALAR"},"accessor_b9":{"bufferView":"bufferView_b","byteOffset":5612,"byteStride":0,"componentType":5123,"count":269,"type":"SCALAR"}},"animations":{},"asset":{"generator":"collada2gltf@cf6371beb0bdc18ba603378d5e40c966da53d385","premultipliedAlpha":true,"profile":{"api":"WebGL","version":"1.0.2"},"version":"1.0"},"bufferViews":{"bufferView_202":{"buffer":"\\data\\3dcity\\miami\\workspace\\gridID_33\\gridID_33_high","byteLength":6596,"byteOffset":0,"target":34963},"bufferView_203":{"buffer":"\\data\\3dcity\\miami\\workspace\\gridID_33\\gridID_33_high","byteLength":73800,"byteOffset":6596,"target":34962},"bufferView_b":{"buffer":"buffer_b","byteLength":6150,"byteOffset":0,"target":34962}},"buffers":{"\\data\\3dcity\\miami\\workspace\\gridID_33\\gridID_33_high":{"byteLength":80396,"type":"arraybuffer","uri":"data:application/octet-stream;base64,"},"buffer_b":{"type":"arraybuffer","byteLength":6150,"uri":"data:application/octet-stream;base64,"}},"materials":{"__glTF__defaultMaterial0":{"name":"__glTF__defaultMaterial0","technique":"technique0","values":{"diffuse":[1,1,1,1]}}},"meshes":{"multipatch_footprint_1659-mesh":{"name":"multipatch_footprint.1659","primitives":[{"attributes":{"NORMAL":"accessor_20","POSITION":"accessor_18","BATCHID":"accessor_b0"},"indices":"accessor_16","material":"__glTF__defaultMaterial0","mode":4}]},"multipatch_footprint_1670-mesh":{"name":"multipatch_footprint.1670","primitives":[{"attributes":{"NORMAL":"accessor_40","POSITION":"accessor_38","BATCHID":"accessor_b1"},"indices":"accessor_36","material":"__glTF__defaultMaterial0","mode":4}]},"multipatch_footprint_1675-mesh":{"name":"multipatch_footprint.1675","primitives":[{"attributes":{"NORMAL":"accessor_60","POSITION":"accessor_58","BATCHID":"accessor_b2"},"indices":"accessor_56","material":"__glTF__defaultMaterial0","mode":4}]},"multipatch_footprint_1684-mesh":{"name":"multipatch_footprint.1684","primitives":[{"attributes":{"NORMAL":"accessor_80","POSITION":"accessor_78","BATCHID":"accessor_b3"},"indices":"accessor_76","material":"__glTF__defaultMaterial0","mode":4}]},"multipatch_footprint_1691-mesh":{"name":"multipatch_footprint.1691","primitives":[{"attributes":{"NORMAL":"accessor_100","POSITION":"accessor_98","BATCHID":"accessor_b4"},"indices":"accessor_96","material":"__glTF__defaultMaterial0","mode":4}]},"multipatch_footprint_1727-mesh":{"name":"multipatch_footprint.1727","primitives":[{"attributes":{"NORMAL":"accessor_120","POSITION":"accessor_118","BATCHID":"accessor_b5"},"indices":"accessor_116","material":"__glTF__defaultMaterial0","mode":4}]},"multipatch_footprint_1742-mesh":{"name":"multipatch_footprint.1742","primitives":[{"attributes":{"NORMAL":"accessor_140","POSITION":"accessor_138","BATCHID":"accessor_b6"},"indices":"accessor_136","material":"__glTF__defaultMaterial0","mode":4}]},"multipatch_footprint_1752-mesh":{"name":"multipatch_footprint.1752","primitives":[{"attributes":{"NORMAL":"accessor_160","POSITION":"accessor_158","BATCHID":"accessor_b7"},"indices":"accessor_156","material":"__glTF__defaultMaterial0","mode":4}]},"multipatch_footprint_1760-mesh":{"name":"multipatch_footprint.1760","primitives":[{"attributes":{"NORMAL":"accessor_180","POSITION":"accessor_178","BATCHID":"accessor_b8"},"indices":"accessor_176","material":"__glTF__defaultMaterial0","mode":4}]},"multipatch_footprint_1762-mesh":{"name":"multipatch_footprint.1762","primitives":[{"attributes":{"NORMAL":"accessor_200","POSITION":"accessor_198","BATCHID":"accessor_b9"},"indices":"accessor_196","material":"__glTF__defaultMaterial0","mode":4}]}},"nodes":{"gridID_33_w435379166_join":{"children":[],"matrix":[1,0,0,0,0,1,0,0,0,0,1,0,0.000366211,0.000339508,0,1],"meshes":["multipatch_footprint_1691-mesh"],"name":"gridID_33_w435379166_join"},"gridID_33_w435388782_join":{"children":[],"matrix":[1,0,0,0,0,1,0,0,0,0,1,0,0.000366211,0.000339508,0,1],"meshes":["multipatch_footprint_1675-mesh"],"name":"gridID_33_w435388782_join"},"gridID_33_w435390686_join":{"children":[],"matrix":[1,0,0,0,0,1,0,0,0,0,1,0,0.000366211,0.000339508,0,1],"meshes":["multipatch_footprint_1760-mesh"],"name":"gridID_33_w435390686_join"},"gridID_33_w435517732_join":{"children":[],"matrix":[1,0,0,0,0,1,0,0,0,0,1,0,0.000366211,0.000339508,0,1],"meshes":["multipatch_footprint_1752-mesh"],"name":"gridID_33_w435517732_join"},"gridID_33_w435537027_join":{"children":[],"matrix":[1,0,0,0,0,1,0,0,0,0,1,0,0.000366211,0.000339508,0,1],"meshes":["multipatch_footprint_1670-mesh"],"name":"gridID_33_w435537027_join"},"gridID_33_w435540165_join":{"children":[],"matrix":[1,0,0,0,0,1,0,0,0,0,1,0,0.000366211,0.000339508,0,1],"meshes":["multipatch_footprint_1684-mesh"],"name":"gridID_33_w435540165_join"},"gridID_33_w435732347_join":{"children":[],"matrix":[1,0,0,0,0,1,0,0,0,0,1,0,0.000366211,0.000339508,0,1],"meshes":["multipatch_footprint_1727-mesh"],"name":"gridID_33_w435732347_join"},"gridID_33_w435748808_join":{"children":[],"matrix":[1,0,0,0,0,1,0,0,0,0,1,0,0.000366211,0.000339508,0,1],"meshes":["multipatch_footprint_1742-mesh"],"name":"gridID_33_w435748808_join"},"gridID_33_w435808864_join":{"children":[],"matrix":[1,0,0,0,0,1,0,0,0,0,1,0,0.000366211,0.000339508,0,1],"meshes":["multipatch_footprint_1659-mesh"],"name":"gridID_33_w435808864_join"},"gridID_33_w435883658_join":{"children":[],"matrix":[1,0,0,0,0,1,0,0,0,0,1,0,0.000366211,0.000339508,0,1],"meshes":["multipatch_footprint_1762-mesh"],"name":"gridID_33_w435883658_join"},"node_10":{"children":["gridID_33_w435808864_join","gridID_33_w435537027_join","gridID_33_w435388782_join","gridID_33_w435540165_join","gridID_33_w435379166_join","gridID_33_w435732347_join","gridID_33_w435748808_join","gridID_33_w435517732_join","gridID_33_w435390686_join","gridID_33_w435883658_join"],"matrix":[1,0,0,0,0,0,-1,0,0,1,0,0,0,0,0,1],"name":"Y_UP_Transform"}},"programs":{"program_0":{"attributes":["a_normal","a_position","a_batchId"],"fragmentShader":"\\data\\3dcity\\miami\\workspace\\gridID_33\\gridID_33_high0FS","vertexShader":"\\data\\3dcity\\miami\\workspace\\gridID_33\\gridID_33_high0VS"}},"scene":"defaultScene","scenes":{"defaultScene":{"nodes":["node_10"]}},"shaders":{"\\data\\3dcity\\miami\\workspace\\gridID_33\\gridID_33_high0FS":{"type":35632,"uri":"data:text/plain;base64,"},"\\data\\3dcity\\miami\\workspace\\gridID_33\\gridID_33_high0VS":{"type":35633,"uri":"data:text/plain;base64,"}},"skins":{},"techniques":{"technique0":{"attributes":{"a_normal":"normal","a_position":"position","a_batchId":"batchId"},"parameters":{"diffuse":{"type":35666},"modelViewMatrix":{"semantic":"MODELVIEW","type":35676},"normal":{"semantic":"NORMAL","type":35665},"normalMatrix":{"semantic":"MODELVIEWINVERSETRANSPOSE","type":35675},"position":{"semantic":"POSITION","type":35665},"projectionMatrix":{"semantic":"PROJECTION","type":35676},"batchId":{"semantic":"BATCHID","type":5126}},"program":"program_0","states":{"enable":[2929,2884]},"uniforms":{"u_diffuse":"diffuse","u_modelViewMatrix":"modelViewMatrix","u_normalMatrix":"normalMatrix","u_projectionMatrix":"projectionMatrix"}}}}