{"accessors":{"accessor_101":{"bufferView":"bufferView_247","byteOffset":228,"byteStride":0,"componentType":5123,"count":6,"type":"SCALAR"},"accessor_103":{"bufferView":"bufferView_248","byteOffset":1584,"byteStride":12,"componentType":5126,"count":26,"max":[37.0482,3.75,11.511],"min":[-37.0477,-3.75,-11.511],"type":"VEC3"},"accessor_105":{"bufferView":"bufferView_248","byteOffset":1896,"byteStride":12,"componentType":5126,"count":26,"max":[0.987925,1,0.987857],"min":[-0.987938,0,-0.987858],"type":"VEC3"},"accessor_133":{"bufferView":"bufferView_247","byteOffset":120,"byteStride":0,"componentType":5123,"count":24,"type":"SCALAR"},"accessor_136":{"bufferView":"bufferView_247","byteOffset":168,"byteStride":0,"componentType":5123,"count":6,"type":"SCALAR"},"accessor_138":{"bufferView":"bufferView_248","byteOffset":1056,"byteStride":12,"componentType":5126,"count":22,"max":[37.381,3.75,12.5743],"min":[-37.381,-3.75,-12.5737],"type":"VEC3"},"accessor_140":{"bufferView":"bufferView_248","byteOffset":1320,"byteStride":12,"componentType":5126,"count":22,"max":[0.987853,1,0.987872],"min":[-0.987852,0,-0.987875],"type":"VEC3"},"accessor_168":{"bufferView":"bufferView_247","byteOffset":60,"byteStride":0,"componentType":5123,"count":24,"type":"SCALAR"},"accessor_171":{"bufferView":"bufferView_247","byteOffset":108,"byteStride":0,"componentType":5123,"count":6,"type":"SCALAR"},"accessor_173":{"bufferView":"bufferView_248","byteOffset":528,"byteStride":12,"componentType":5126,"count":22,"max":[5.48275,3.75,6.98273],"min":[-5.48325,-3.75,-6.98828],"type":"VEC3"},"accessor_175":{"bufferView":"bufferView_248","byteOffset":792,"byteStride":12,"componentType":5126,"count":22,"max":[0.986872,1,0.986903],"min":[-0.986882,0,-0.986706],"type":"VEC3"},"accessor_203":{"bufferView":"bufferView_247","byteOffset":0,"byteStride":0,"componentType":5123,"count":24,"type":"SCALAR"},"accessor_206":{"bufferView":"bufferView_247","byteOffset":48,"byteStride":0,"componentType":5123,"count":6,"type":"SCALAR"},"accessor_208":{"bufferView":"bufferView_248","byteOffset":0,"byteStride":12,"componentType":5126,"count":22,"max":[27.8195,3.75,10.0805],"min":[-27.8195,-3.75,-10.0805],"type":"VEC3"},"accessor_210":{"bufferView":"bufferView_248","byteOffset":264,"byteStride":12,"componentType":5126,"count":22,"max":[0.987898,1,0.987859],"min":[-0.987898,0,-0.987859],"type":"VEC3"},"accessor_238":{"bufferView":"bufferView_247","byteOffset":936,"byteStride":0,"componentType":5123,"count":372,"type":"SCALAR"},"accessor_241":{"bufferView":"bufferView_247","byteOffset":1680,"byteStride":0,"componentType":5123,"count":114,"type":"SCALAR"},"accessor_243":{"bufferView":"bufferView_248","byteOffset":8736,"byteStride":12,"componentType":5126,"count":386,"max":[31.183,8.42727,10.0108],"min":[-29.834,-9.07273,-11.7982],"type":"VEC3"},"accessor_245":{"bufferView":"bufferView_248","byteOffset":13368,"byteStride":12,"componentType":5126,"count":386,"max":[0.988669,1,0.98812],"min":[-0.98805,0,-0.988213],"type":"VEC3"},"accessor_28":{"bufferView":"bufferView_247","byteOffset":606,"byteStride":0,"componentType":5123,"count":114,"type":"SCALAR"},"accessor_31":{"bufferView":"bufferView_247","byteOffset":834,"byteStride":0,"componentType":5123,"count":51,"type":"SCALAR"},"accessor_33":{"bufferView":"bufferView_248","byteOffset":5976,"byteStride":12,"componentType":5126,"count":115,"max":[15.5675,3.75,5.37244],"min":[-16.9215,-3.75,-5.68155],"type":"VEC3"},"accessor_35":{"bufferView":"bufferView_248","byteOffset":7356,"byteStride":12,"componentType":5126,"count":115,"max":[0.990848,1,0.991042],"min":[-0.990946,0,-0.990706],"type":"VEC3"},"accessor_63":{"bufferView":"bufferView_247","byteOffset":240,"byteStride":0,"componentType":5123,"count":126,"type":"SCALAR"},"accessor_66":{"bufferView":"bufferView_247","byteOffset":492,"byteStride":0,"componentType":5123,"count":57,"type":"SCALAR"},"accessor_68":{"bufferView":"bufferView_248","byteOffset":2208,"byteStride":12,"componentType":5126,"count":157,"max":[16.5399,3.75,9.31787],"min":[-19.6611,-3.75,-4.98712],"type":"VEC3"},"accessor_70":{"bufferView":"bufferView_248","byteOffset":4092,"byteStride":12,"componentType":5126,"count":157,"max":[0.990946,1,0.990674],"min":[-0.990848,0,-0.991042],"type":"VEC3"},"accessor_98":{"bufferView":"bufferView_247","byteOffset":180,"byteStride":0,"componentType":5123,"count":24,"type":"SCALAR"},"accessor_b0":{"bufferView":"bufferView_b","byteOffset":0,"byteStride":0,"componentType":5123,"count":22,"type":"SCALAR"},"accessor_b1":{"bufferView":"bufferView_b","byteOffset":44,"byteStride":0,"componentType":5123,"count":22,"type":"SCALAR"},"accessor_b2":{"bufferView":"bufferView_b","byteOffset":88,"byteStride":0,"componentType":5123,"count":22,"type":"SCALAR"},"accessor_b3":{"bufferView":"bufferView_b","byteOffset":132,"byteStride":0,"componentType":5123,"count":26,"type":"SCALAR"},"accessor_b4":{"bufferView":"bufferView_b","byteOffset":184,"byteStride":0,"componentType":5123,"count":157,"type":"SCALAR"},"accessor_b5":{"bufferView":"bufferView_b","byteOffset":498,"byteStride":0,"componentType":5123,"count":115,"type":"SCALAR"},"accessor_b6":{"bufferView":"bufferView_b","byteOffset":728,"byteStride":0,"componentType":5123,"count":386,"type":"SCALAR"}},"animations":{},"asset":{"generator":"collada2gltf@cf6371beb0bdc18ba603378d5e40c966da53d385","premultipliedAlpha":true,"profile":{"api":"WebGL","version":"1.0.2"},"version":"1.0"},"bufferViews":{"bufferView_247":{"buffer":"\\data\\ECNU\\workspace\\gridID_106\\gridID_106","byteLength":1908,"byteOffset":0,"target":34963},"bufferView_248":{"buffer":"\\data\\ECNU\\workspace\\gridID_106\\gridID_106","byteLength":18000,"byteOffset":1908,"target":34962},"bufferView_b":{"buffer":"buffer_b","byteLength":1500,"byteOffset":0,"target":34962}},"buffers":{"\\data\\ECNU\\workspace\\gridID_106\\gridID_106":{"byteLength":19908,"type":"arraybuffer","uri":"data:application/octet-stream;base64,"},"buffer_b":{"type":"arraybuffer","byteLength":1500,"uri":"data:application/octet-stream;base64,"}},"materials":{"BUILDING_DEFAULT_0-effect":{"name":"BUILDING_DEFAULT_0","technique":"technique0","values":{"ambient":[0,0,0,1],"diffuse":[0.723055,0.708376,0.672443,1],"emission":[0,0,0,1],"shininess":50,"specular":[0.5,0.5,0.5,1]}},"CONCRETE_0-effect":{"name":"CONCRETE_0","technique":"technique0","values":{"ambient":[0,0,0,1],"diffuse":[0.309469,0.327778,0.309469,1],"emission":[0,0,0,1],"shininess":50,"specular":[0.5,0.5,0.5,1]}},"ROOF_DEFAULT_0-effect":{"name":"ROOF_DEFAULT_0","technique":"technique0","values":{"ambient":[0,0,0,1],"diffuse":[0.603827,0.381326,0.291771,1],"emission":[0,0,0,1],"shininess":50,"specular":[0.5,0.5,0.5,1]}}},"meshes":{"Building4087-mesh":{"name":"Building4087","primitives":[{"attributes":{"NORMAL":"accessor_210","POSITION":"accessor_208","BATCHID":"accessor_b0"},"indices":"accessor_203","material":"BUILDING_DEFAULT_0-effect","mode":4},{"attributes":{"NORMAL":"accessor_210","POSITION":"accessor_208","BATCHID":"accessor_b0"},"indices":"accessor_206","material":"ROOF_DEFAULT_0-effect","mode":4}]},"Building4089-mesh":{"name":"Building4089","primitives":[{"attributes":{"NORMAL":"accessor_175","POSITION":"accessor_173","BATCHID":"accessor_b1"},"indices":"accessor_168","material":"BUILDING_DEFAULT_0-effect","mode":4},{"attributes":{"NORMAL":"accessor_175","POSITION":"accessor_173","BATCHID":"accessor_b1"},"indices":"accessor_171","material":"ROOF_DEFAULT_0-effect","mode":4}]},"Building4090-mesh":{"name":"Building4090","primitives":[{"attributes":{"NORMAL":"accessor_140","POSITION":"accessor_138","BATCHID":"accessor_b2"},"indices":"accessor_133","material":"BUILDING_DEFAULT_0-effect","mode":4},{"attributes":{"NORMAL":"accessor_140","POSITION":"accessor_138","BATCHID":"accessor_b2"},"indices":"accessor_136","material":"ROOF_DEFAULT_0-effect","mode":4}]},"Building4091-mesh":{"name":"Building4091","primitives":[{"attributes":{"NORMAL":"accessor_105","POSITION":"accessor_103","BATCHID":"accessor_b3"},"indices":"accessor_98","material":"BUILDING_DEFAULT_0-effect","mode":4},{"attributes":{"NORMAL":"accessor_105","POSITION":"accessor_103","BATCHID":"accessor_b3"},"indices":"accessor_101","material":"ROOF_DEFAULT_0-effect","mode":4}]},"Building4092-mesh":{"name":"Building4092","primitives":[{"attributes":{"NORMAL":"accessor_70","POSITION":"accessor_68","BATCHID":"accessor_b4"},"indices":"accessor_63","material":"BUILDING_DEFAULT_0-effect","mode":4},{"attributes":{"NORMAL":"accessor_70","POSITION":"accessor_68","BATCHID":"accessor_b4"},"indices":"accessor_66","material":"ROOF_DEFAULT_0-effect","mode":4}]},"Building4095-mesh":{"name":"Building4095","primitives":[{"attributes":{"NORMAL":"accessor_35","POSITION":"accessor_33","BATCHID":"accessor_b5"},"indices":"accessor_28","material":"BUILDING_DEFAULT_0-effect","mode":4},{"attributes":{"NORMAL":"accessor_35","POSITION":"accessor_33","BATCHID":"accessor_b5"},"indices":"accessor_31","material":"ROOF_DEFAULT_0-effect","mode":4}]},"Building4212-mesh":{"name":"Building4212","primitives":[{"attributes":{"NORMAL":"accessor_245","POSITION":"accessor_243","BATCHID":"accessor_b6"},"indices":"accessor_238","material":"BUILDING_DEFAULT_0-effect","mode":4},{"attributes":{"NORMAL":"accessor_245","POSITION":"accessor_243","BATCHID":"accessor_b6"},"indices":"accessor_241","material":"CONCRETE_0-effect","mode":4}]}},"nodes":{"model_gridID_106_w376400916":{"children":[],"matrix":[1,0,0,0,0,-1.62921e-7,1,0,0,-1,-1.62921e-7,0,-10.2935,468.516,3.75008,1],"meshes":["Building4095-mesh"],"name":"model_gridID_106_w376400916"},"model_gridID_106_w376400916_001":{"children":[],"matrix":[1,0,0,0,0,-1.62921e-7,1,0,0,-1,-1.62921e-7,0,-14.4739,468.12,3.75008,1],"meshes":["Building4092-mesh"],"name":"model_gridID_106_w376400916_001"},"model_gridID_106_w376400920":{"children":[],"matrix":[1,0,0,0,0,-1.62921e-7,1,0,0,-1,-1.62921e-7,0,-25.9583,530.484,3.75009,1],"meshes":["Building4091-mesh"],"name":"model_gridID_106_w376400920"},"model_gridID_106_w376400921":{"children":[],"matrix":[1,0,0,0,0,-1.62921e-7,1,0,0,-1,-1.62921e-7,0,55.848,481.807,3.75008,1],"meshes":["Building4090-mesh"],"name":"model_gridID_106_w376400921"},"model_gridID_106_w376400921_001":{"children":[],"matrix":[1,0,0,0,0,-1.62921e-7,1,0,0,-1,-1.62921e-7,0,19.8852,466.197,3.75008,1],"meshes":["Building4089-mesh"],"name":"model_gridID_106_w376400921_001"},"model_gridID_106_w376400926":{"children":[],"matrix":[1,0,0,0,0,-1.62921e-7,1,0,0,-1,-1.62921e-7,0,-20.3375,499.051,3.75008,1],"meshes":["Building4087-mesh"],"name":"model_gridID_106_w376400926"},"model_gridID_106_w387303596":{"children":[],"matrix":[1,0,0,0,0,-1.62921e-7,1,0,0,-1,-1.62921e-7,0,50.747,512.619,9.07281,1],"meshes":["Building4212-mesh"],"name":"model_gridID_106_w387303596"},"node_7":{"children":["model_gridID_106_w376400916","model_gridID_106_w376400916_001","model_gridID_106_w376400920","model_gridID_106_w376400921","model_gridID_106_w376400921_001","model_gridID_106_w376400926","model_gridID_106_w387303596"],"matrix":[1,0,0,0,0,0,-1,0,0,1,0,0,0,0,0,1],"name":"Y_UP_Transform"}},"programs":{"program_0":{"attributes":["a_normal","a_position","a_batchId"],"fragmentShader":"\\data\\ECNU\\workspace\\gridID_106\\gridID_1060FS","vertexShader":"\\data\\ECNU\\workspace\\gridID_106\\gridID_1060VS"}},"scene":"defaultScene","scenes":{"defaultScene":{"nodes":["node_7"]}},"shaders":{"\\data\\ECNU\\workspace\\gridID_106\\gridID_1060FS":{"type":35632,"uri":"data:text/plain;base64,"},"\\data\\ECNU\\workspace\\gridID_106\\gridID_1060VS":{"type":35633,"uri":"data:text/plain;base64,"}},"skins":{},"techniques":{"technique0":{"attributes":{"a_normal":"normal","a_position":"position","a_batchId":"batchId"},"parameters":{"ambient":{"type":35666},"diffuse":{"type":35666},"emission":{"type":35666},"modelViewMatrix":{"semantic":"MODELVIEW","type":35676},"normal":{"semantic":"NORMAL","type":35665},"normalMatrix":{"semantic":"MODELVIEWINVERSETRANSPOSE","type":35675},"position":{"semantic":"POSITION","type":35665},"projectionMatrix":{"semantic":"PROJECTION","type":35676},"shininess":{"type":5126},"specular":{"type":35666},"batchId":{"semantic":"BATCHID","type":5126}},"program":"program_0","states":{"enable":[2929,2884]},"uniforms":{"u_ambient":"ambient","u_diffuse":"diffuse","u_emission":"emission","u_modelViewMatrix":"modelViewMatrix","u_normalMatrix":"normalMatrix","u_projectionMatrix":"projectionMatrix","u_shininess":"shininess","u_specular":"specular"}}}}