{"accessors":{"accessor_16":{"bufferView":"bufferView_62","byteOffset":2076,"byteStride":0,"componentType":5123,"count":219,"type":"SCALAR"},"accessor_18":{"bufferView":"bufferView_63","byteOffset":22320,"byteStride":12,"componentType":5126,"count":201,"max":[46.0135,41.4255,15.0882],"min":[9.76663,-1.67534,4.37458],"type":"VEC3"},"accessor_20":{"bufferView":"bufferView_63","byteOffset":24732,"byteStride":12,"componentType":5126,"count":201,"max":[0.999996,0.999764,1],"min":[-0.999996,-0.999689,0],"type":"VEC3"},"accessor_36":{"bufferView":"bufferView_62","byteOffset":0,"byteStride":0,"componentType":5123,"count":516,"type":"SCALAR"},"accessor_38":{"bufferView":"bufferView_63","byteOffset":0,"byteStride":12,"componentType":5126,"count":472,"max":[-5.12906,94.369,18.3566],"min":[-56.1709,69.9914,3.55678],"type":"VEC3"},"accessor_40":{"bufferView":"bufferView_63","byteOffset":5664,"byteStride":12,"componentType":5126,"count":472,"max":[0.999976,0.999857,1],"min":[-0.999859,-0.999864,0],"type":"VEC3"},"accessor_56":{"bufferView":"bufferView_62","byteOffset":1032,"byteStride":0,"componentType":5123,"count":522,"type":"SCALAR"},"accessor_58":{"bufferView":"bufferView_63","byteOffset":11328,"byteStride":12,"componentType":5126,"count":458,"max":[45.6654,83.1821,13.9861],"min":[9.52243,66.9332,4.1585],"type":"VEC3"},"accessor_60":{"bufferView":"bufferView_63","byteOffset":16824,"byteStride":12,"componentType":5126,"count":458,"max":[0.999575,0.999562,1],"min":[-0.999573,-0.999562,0],"type":"VEC3"},"accessor_b0":{"bufferView":"bufferView_b","byteOffset":0,"byteStride":0,"componentType":5123,"count":472,"type":"SCALAR"},"accessor_b1":{"bufferView":"bufferView_b","byteOffset":944,"byteStride":0,"componentType":5123,"count":458,"type":"SCALAR"},"accessor_b2":{"bufferView":"bufferView_b","byteOffset":1860,"byteStride":0,"componentType":5123,"count":201,"type":"SCALAR"}},"animations":{},"asset":{"generator":"collada2gltf@cf6371beb0bdc18ba603378d5e40c966da53d385","premultipliedAlpha":true,"profile":{"api":"WebGL","version":"1.0.2"},"version":"1.0"},"bufferViews":{"bufferView_62":{"buffer":"\\data\\3dcity\\miami\\workspace\\gridID_25\\gridID_25_high","byteLength":2516,"byteOffset":0,"target":34963},"bufferView_63":{"buffer":"\\data\\3dcity\\miami\\workspace\\gridID_25\\gridID_25_high","byteLength":27144,"byteOffset":2516,"target":34962},"bufferView_b":{"buffer":"buffer_b","byteLength":2262,"byteOffset":0,"target":34962}},"buffers":{"\\data\\3dcity\\miami\\workspace\\gridID_25\\gridID_25_high":{"byteLength":29660,"type":"arraybuffer","uri":"data:application/octet-stream;base64,"},"buffer_b":{"type":"arraybuffer","byteLength":2262,"uri":"data:application/octet-stream;base64,"}},"materials":{"__glTF__defaultMaterial0":{"name":"__glTF__defaultMaterial0","technique":"technique0","values":{"diffuse":[1,1,1,1]}}},"meshes":{"multipatch_footprint_1758-mesh":{"name":"multipatch_footprint.1758","primitives":[{"attributes":{"NORMAL":"accessor_40","POSITION":"accessor_38","BATCHID":"accessor_b0"},"indices":"accessor_36","material":"__glTF__defaultMaterial0","mode":4}]},"multipatch_footprint_2109-mesh":{"name":"multipatch_footprint.2109","primitives":[{"attributes":{"NORMAL":"accessor_60","POSITION":"accessor_58","BATCHID":"accessor_b1"},"indices":"accessor_56","material":"__glTF__defaultMaterial0","mode":4}]},"multipatch_footprint_221-mesh":{"name":"multipatch_footprint.221","primitives":[{"attributes":{"NORMAL":"accessor_20","POSITION":"accessor_18","BATCHID":"accessor_b2"},"indices":"accessor_16","material":"__glTF__defaultMaterial0","mode":4}]}},"nodes":{"gridID_25_w435565560_join":{"children":[],"matrix":[1,0,0,0,0,1,0,0,0,0,1,0,0.000366211,0.000335693,0,1],"meshes":["multipatch_footprint_1758-mesh"],"name":"gridID_25_w435565560_join"},"gridID_25_w435745164_join":{"children":[],"matrix":[1,0,0,0,0,1,0,0,0,0,1,0,0.000366211,0.000335693,0,1],"meshes":["multipatch_footprint_221-mesh"],"name":"gridID_25_w435745164_join"},"gridID_25_w436125650_join":{"children":[],"matrix":[1,0,0,0,0,1,0,0,0,0,1,0,0.000366211,0.000335693,0,1],"meshes":["multipatch_footprint_2109-mesh"],"name":"gridID_25_w436125650_join"},"node_3":{"children":["gridID_25_w435745164_join","gridID_25_w435565560_join","gridID_25_w436125650_join"],"matrix":[1,0,0,0,0,0,-1,0,0,1,0,0,0,0,0,1],"name":"Y_UP_Transform"}},"programs":{"program_0":{"attributes":["a_normal","a_position","a_batchId"],"fragmentShader":"\\data\\3dcity\\miami\\workspace\\gridID_25\\gridID_25_high0FS","vertexShader":"\\data\\3dcity\\miami\\workspace\\gridID_25\\gridID_25_high0VS"}},"scene":"defaultScene","scenes":{"defaultScene":{"nodes":["node_3"]}},"shaders":{"\\data\\3dcity\\miami\\workspace\\gridID_25\\gridID_25_high0FS":{"type":35632,"uri":"data:text/plain;base64,"},"\\data\\3dcity\\miami\\workspace\\gridID_25\\gridID_25_high0VS":{"type":35633,"uri":"data:text/plain;base64,"}},"skins":{},"techniques":{"technique0":{"attributes":{"a_normal":"normal","a_position":"position","a_batchId":"batchId"},"parameters":{"diffuse":{"type":35666},"modelViewMatrix":{"semantic":"MODELVIEW","type":35676},"normal":{"semantic":"NORMAL","type":35665},"normalMatrix":{"semantic":"MODELVIEWINVERSETRANSPOSE","type":35675},"position":{"semantic":"POSITION","type":35665},"projectionMatrix":{"semantic":"PROJECTION","type":35676},"batchId":{"semantic":"BATCHID","type":5126}},"program":"program_0","states":{"enable":[2929,2884]},"uniforms":{"u_diffuse":"diffuse","u_modelViewMatrix":"modelViewMatrix","u_normalMatrix":"normalMatrix","u_projectionMatrix":"projectionMatrix"}}}}