{"accessors":{"accessor_100":{"bufferView":"bufferView_143","byteOffset":10404,"byteStride":12,"componentType":5126,"count":47,"max":[0.83279,1,0.829527],"min":[-0.832482,-1,-0.830451],"type":"VEC3"},"accessor_116":{"bufferView":"bufferView_142","byteOffset":1272,"byteStride":0,"componentType":5123,"count":84,"type":"SCALAR"},"accessor_118":{"bufferView":"bufferView_143","byteOffset":10968,"byteStride":12,"componentType":5126,"count":69,"max":[45.9012,17,0.526646],"min":[9.67787,0,-42.6977],"type":"VEC3"},"accessor_120":{"bufferView":"bufferView_143","byteOffset":11796,"byteStride":12,"componentType":5126,"count":69,"max":[0.999633,1,0.999719],"min":[-0.999634,-1,-0.999628],"type":"VEC3"},"accessor_136":{"bufferView":"bufferView_142","byteOffset":1440,"byteStride":0,"componentType":5123,"count":108,"type":"SCALAR"},"accessor_138":{"bufferView":"bufferView_143","byteOffset":12624,"byteStride":12,"componentType":5126,"count":70,"max":[49.1629,14,-66.3308],"min":[15.8116,0,-84.2288],"type":"VEC3"},"accessor_140":{"bufferView":"bufferView_143","byteOffset":13464,"byteStride":12,"componentType":5126,"count":70,"max":[0.999592,1,0.999978],"min":[-0.999656,-1,-0.999997],"type":"VEC3"},"accessor_16":{"bufferView":"bufferView_142","byteOffset":0,"byteStride":0,"componentType":5123,"count":84,"type":"SCALAR"},"accessor_18":{"bufferView":"bufferView_143","byteOffset":0,"byteStride":12,"componentType":5126,"count":64,"max":[-11.5396,15,65.7894],"min":[-60.8319,0,24.6912],"type":"VEC3"},"accessor_20":{"bufferView":"bufferView_143","byteOffset":768,"byteStride":12,"componentType":5126,"count":64,"max":[0.610714,1,0.7919],"min":[-0.795513,-1,-0.841621],"type":"VEC3"},"accessor_36":{"bufferView":"bufferView_142","byteOffset":168,"byteStride":0,"componentType":5123,"count":36,"type":"SCALAR"},"accessor_38":{"bufferView":"bufferView_143","byteOffset":1536,"byteStride":12,"componentType":5126,"count":28,"max":[2.04137,12,68.6323],"min":[-21.7921,0,47.4713],"type":"VEC3"},"accessor_40":{"bufferView":"bufferView_143","byteOffset":1872,"byteStride":12,"componentType":5126,"count":28,"max":[0.823175,1,0.820417],"min":[-0.823175,-1,-0.820417],"type":"VEC3"},"accessor_56":{"bufferView":"bufferView_142","byteOffset":240,"byteStride":0,"componentType":5123,"count":84,"type":"SCALAR"},"accessor_58":{"bufferView":"bufferView_143","byteOffset":2208,"byteStride":12,"componentType":5126,"count":62,"max":[38.1089,12,95.244],"min":[6.88378,0,71.265],"type":"VEC3"},"accessor_60":{"bufferView":"bufferView_143","byteOffset":2952,"byteStride":12,"componentType":5126,"count":62,"max":[0.802533,1,0.799842],"min":[-0.802663,-1,-0.799648],"type":"VEC3"},"accessor_76":{"bufferView":"bufferView_142","byteOffset":408,"byteStride":0,"componentType":5123,"count":372,"type":"SCALAR"},"accessor_78":{"bufferView":"bufferView_143","byteOffset":3696,"byteStride":12,"componentType":5126,"count":256,"max":[-5.8178,19,-71.102],"min":[-55.8893,0,-95.2543],"type":"VEC3"},"accessor_80":{"bufferView":"bufferView_143","byteOffset":6768,"byteStride":12,"componentType":5126,"count":256,"max":[0.999824,1,0.999802],"min":[-0.999846,-1,-0.999843],"type":"VEC3"},"accessor_96":{"bufferView":"bufferView_142","byteOffset":1152,"byteStride":0,"componentType":5123,"count":60,"type":"SCALAR"},"accessor_98":{"bufferView":"bufferView_143","byteOffset":9840,"byteStride":12,"componentType":5126,"count":47,"max":[-18.9312,18,79.4722],"min":[-35.195,0,64.1331],"type":"VEC3"},"accessor_b0":{"bufferView":"bufferView_b","byteOffset":0,"byteStride":0,"componentType":5123,"count":64,"type":"SCALAR"},"accessor_b1":{"bufferView":"bufferView_b","byteOffset":128,"byteStride":0,"componentType":5123,"count":28,"type":"SCALAR"},"accessor_b2":{"bufferView":"bufferView_b","byteOffset":184,"byteStride":0,"componentType":5123,"count":62,"type":"SCALAR"},"accessor_b3":{"bufferView":"bufferView_b","byteOffset":308,"byteStride":0,"componentType":5123,"count":256,"type":"SCALAR"},"accessor_b4":{"bufferView":"bufferView_b","byteOffset":820,"byteStride":0,"componentType":5123,"count":47,"type":"SCALAR"},"accessor_b5":{"bufferView":"bufferView_b","byteOffset":914,"byteStride":0,"componentType":5123,"count":69,"type":"SCALAR"},"accessor_b6":{"bufferView":"bufferView_b","byteOffset":1052,"byteStride":0,"componentType":5123,"count":70,"type":"SCALAR"}},"animations":{},"asset":{"generator":"collada2gltf@cf6371beb0bdc18ba603378d5e40c966da53d385","premultipliedAlpha":true,"profile":{"api":"WebGL","version":"1.0.2"},"version":"1.0"},"bufferViews":{"bufferView_142":{"buffer":"\\data\\3dcity\\miami\\workspace\\gridID_25\\gridID_25","byteLength":1656,"byteOffset":0,"target":34963},"bufferView_143":{"buffer":"\\data\\3dcity\\miami\\workspace\\gridID_25\\gridID_25","byteLength":14304,"byteOffset":1656,"target":34962},"bufferView_b":{"buffer":"buffer_b","byteLength":1192,"byteOffset":0,"target":34962}},"buffers":{"\\data\\3dcity\\miami\\workspace\\gridID_25\\gridID_25":{"byteLength":15960,"type":"arraybuffer","uri":"data:application/octet-stream;base64,"},"buffer_b":{"type":"arraybuffer","byteLength":1192,"uri":"data:application/octet-stream;base64,"}},"materials":{"CityEngineMaterial_365-effect":{"name":"CityEngineMaterial_365","technique":"technique0","values":{"ambient":[1,1,1,1],"diffuse":[1,1,1,1],"emission":[0,0,0,1],"shininess":50,"specular":[0.5,0.5,0.5,1]}},"CityEngineMaterial_366-effect":{"name":"CityEngineMaterial_366","technique":"technique0","values":{"ambient":[1,1,1,1],"diffuse":[1,1,1,1],"emission":[0,0,0,1],"shininess":50,"specular":[0.5,0.5,0.5,1]}},"CityEngineMaterial_367-effect":{"name":"CityEngineMaterial_367","technique":"technique0","values":{"ambient":[1,1,1,1],"diffuse":[1,1,1,1],"emission":[0,0,0,1],"shininess":50,"specular":[0.5,0.5,0.5,1]}},"CityEngineMaterial_368-effect":{"name":"CityEngineMaterial_368","technique":"technique0","values":{"ambient":[1,1,1,1],"diffuse":[1,1,1,1],"emission":[0,0,0,1],"shininess":50,"specular":[0.5,0.5,0.5,1]}},"CityEngineMaterial_369-effect":{"name":"CityEngineMaterial_369","technique":"technique0","values":{"ambient":[1,1,1,1],"diffuse":[1,1,1,1],"emission":[0,0,0,1],"shininess":50,"specular":[0.5,0.5,0.5,1]}},"CityEngineMaterial_370-effect":{"name":"CityEngineMaterial_370","technique":"technique0","values":{"ambient":[1,1,1,1],"diffuse":[1,1,1,1],"emission":[0,0,0,1],"shininess":50,"specular":[0.5,0.5,0.5,1]}},"CityEngineMaterial_371-effect":{"name":"CityEngineMaterial_371","technique":"technique0","values":{"ambient":[1,1,1,1],"diffuse":[1,1,1,1],"emission":[0,0,0,1],"shininess":50,"specular":[0.5,0.5,0.5,1]}}},"meshes":{"mesh_CityEngineMaterial_363-mesh":{"name":"mesh_CityEngineMaterial.363","primitives":[{"attributes":{"NORMAL":"accessor_20","POSITION":"accessor_18","BATCHID":"accessor_b0"},"indices":"accessor_16","material":"CityEngineMaterial_365-effect","mode":4}]},"mesh_CityEngineMaterial_364-mesh":{"name":"mesh_CityEngineMaterial.364","primitives":[{"attributes":{"NORMAL":"accessor_40","POSITION":"accessor_38","BATCHID":"accessor_b1"},"indices":"accessor_36","material":"CityEngineMaterial_366-effect","mode":4}]},"mesh_CityEngineMaterial_365-mesh":{"name":"mesh_CityEngineMaterial.365","primitives":[{"attributes":{"NORMAL":"accessor_60","POSITION":"accessor_58","BATCHID":"accessor_b2"},"indices":"accessor_56","material":"CityEngineMaterial_367-effect","mode":4}]},"mesh_CityEngineMaterial_366-mesh":{"name":"mesh_CityEngineMaterial.366","primitives":[{"attributes":{"NORMAL":"accessor_80","POSITION":"accessor_78","BATCHID":"accessor_b3"},"indices":"accessor_76","material":"CityEngineMaterial_368-effect","mode":4}]},"mesh_CityEngineMaterial_367-mesh":{"name":"mesh_CityEngineMaterial.367","primitives":[{"attributes":{"NORMAL":"accessor_100","POSITION":"accessor_98","BATCHID":"accessor_b4"},"indices":"accessor_96","material":"CityEngineMaterial_369-effect","mode":4}]},"mesh_CityEngineMaterial_368-mesh":{"name":"mesh_CityEngineMaterial.368","primitives":[{"attributes":{"NORMAL":"accessor_120","POSITION":"accessor_118","BATCHID":"accessor_b5"},"indices":"accessor_116","material":"CityEngineMaterial_370-effect","mode":4}]},"mesh_CityEngineMaterial_369-mesh":{"name":"mesh_CityEngineMaterial.369","primitives":[{"attributes":{"NORMAL":"accessor_140","POSITION":"accessor_138","BATCHID":"accessor_b6"},"indices":"accessor_136","material":"CityEngineMaterial_371-effect","mode":4}]}},"nodes":{"CityEngineMaterial":{"children":[],"matrix":[1,0,0,0,0,-1.62921e-7,1,0,0,-1,-1.62921e-7,0,0,0,0,1],"meshes":["mesh_CityEngineMaterial_363-mesh"],"name":"CityEngineMaterial"},"CityEngineMaterial_001":{"children":[],"matrix":[1,0,0,0,0,-1.62921e-7,1,0,0,-1,-1.62921e-7,0,0,0,0,1],"meshes":["mesh_CityEngineMaterial_364-mesh"],"name":"CityEngineMaterial_001"},"CityEngineMaterial_002":{"children":[],"matrix":[1,0,0,0,0,-1.62921e-7,1,0,0,-1,-1.62921e-7,0,0,0,0,1],"meshes":["mesh_CityEngineMaterial_365-mesh"],"name":"CityEngineMaterial_002"},"CityEngineMaterial_003":{"children":[],"matrix":[1,0,0,0,0,-1.62921e-7,1,0,0,-1,-1.62921e-7,0,0,0,0,1],"meshes":["mesh_CityEngineMaterial_366-mesh"],"name":"CityEngineMaterial_003"},"CityEngineMaterial_004":{"children":[],"matrix":[1,0,0,0,0,-1.62921e-7,1,0,0,-1,-1.62921e-7,0,0,0,0,1],"meshes":["mesh_CityEngineMaterial_367-mesh"],"name":"CityEngineMaterial_004"},"CityEngineMaterial_005":{"children":[],"matrix":[1,0,0,0,0,-1.62921e-7,1,0,0,-1,-1.62921e-7,0,0,0,0,1],"meshes":["mesh_CityEngineMaterial_368-mesh"],"name":"CityEngineMaterial_005"},"CityEngineMaterial_006":{"children":[],"matrix":[1,0,0,0,0,-1.62921e-7,1,0,0,-1,-1.62921e-7,0,0,0,0,1],"meshes":["mesh_CityEngineMaterial_369-mesh"],"name":"CityEngineMaterial_006"},"node_7":{"children":["CityEngineMaterial","CityEngineMaterial_001","CityEngineMaterial_002","CityEngineMaterial_003","CityEngineMaterial_004","CityEngineMaterial_005","CityEngineMaterial_006"],"matrix":[1,0,0,0,0,0,-1,0,0,1,0,0,0,0,0,1],"name":"Y_UP_Transform"}},"programs":{"program_0":{"attributes":["a_normal","a_position","a_batchId"],"fragmentShader":"\\data\\3dcity\\miami\\workspace\\gridID_25\\gridID_250FS","vertexShader":"\\data\\3dcity\\miami\\workspace\\gridID_25\\gridID_250VS"}},"scene":"defaultScene","scenes":{"defaultScene":{"nodes":["node_7"]}},"shaders":{"\\data\\3dcity\\miami\\workspace\\gridID_25\\gridID_250FS":{"type":35632,"uri":"data:text/plain;base64,"},"\\data\\3dcity\\miami\\workspace\\gridID_25\\gridID_250VS":{"type":35633,"uri":"data:text/plain;base64,"}},"skins":{},"techniques":{"technique0":{"attributes":{"a_normal":"normal","a_position":"position","a_batchId":"batchId"},"parameters":{"ambient":{"type":35666},"diffuse":{"type":35666},"emission":{"type":35666},"modelViewMatrix":{"semantic":"MODELVIEW","type":35676},"normal":{"semantic":"NORMAL","type":35665},"normalMatrix":{"semantic":"MODELVIEWINVERSETRANSPOSE","type":35675},"position":{"semantic":"POSITION","type":35665},"projectionMatrix":{"semantic":"PROJECTION","type":35676},"shininess":{"type":5126},"specular":{"type":35666},"batchId":{"semantic":"BATCHID","type":5126}},"program":"program_0","states":{"enable":[2929,2884]},"uniforms":{"u_ambient":"ambient","u_diffuse":"diffuse","u_emission":"emission","u_modelViewMatrix":"modelViewMatrix","u_normalMatrix":"normalMatrix","u_projectionMatrix":"projectionMatrix","u_shininess":"shininess","u_specular":"specular"}}}}