{
    "accessors": {
        "accessor_28": {
            "bufferView": "bufferView_72",
            "byteOffset": 84,
            "byteStride": 0,
            "componentType": 5123,
            "count": 24,
            "type": "SCALAR"
        },
        "accessor_31": {
            "bufferView": "bufferView_72",
            "byteOffset": 132,
            "byteStride": 0,
            "componentType": 5123,
            "count": 18,
            "type": "SCALAR"
        },
        "accessor_33": {
            "bufferView": "bufferView_73",
            "byteOffset": 816,
            "byteStride": 12,
            "componentType": 5126,
            "count": 34,
            "max": [
                10.3995,
                7,
                5.06525
            ],
            "min": [
                -10.3995,
                -5.5,
                -5.06475
            ],
            "type": "VEC3"
        },
        "accessor_35": {
            "bufferView": "bufferView_73",
            "byteOffset": 1224,
            "byteStride": 12,
            "componentType": 5126,
            "count": 34,
            "max": [
                0.994778,
                0.630048,
                0.994722
            ],
            "min": [
                -0.994779,
                0,
                -0.994727
            ],
            "type": "VEC3"
        },
        "accessor_63": {
            "bufferView": "bufferView_72",
            "byteOffset": 0,
            "byteStride": 0,
            "componentType": 5123,
            "count": 24,
            "type": "SCALAR"
        },
        "accessor_66": {
            "bufferView": "bufferView_72",
            "byteOffset": 48,
            "byteStride": 0,
            "componentType": 5123,
            "count": 18,
            "type": "SCALAR"
        },
        "accessor_68": {
            "bufferView": "bufferView_73",
            "byteOffset": 0,
            "byteStride": 12,
            "componentType": 5126,
            "count": 34,
            "max": [
                10.4037,
                7,
                5.0645
            ],
            "min": [
                -10.4042,
                -5.5,
                -5.0645
            ],
            "type": "VEC3"
        },
        "accessor_70": {
            "bufferView": "bufferView_73",
            "byteOffset": 408,
            "byteStride": 12,
            "componentType": 5126,
            "count": 34,
            "max": [
                0.994665,
                0.63005,
                0.994727
            ],
            "min": [
                -0.994652,
                0,
                -0.994727
            ],
            "type": "VEC3"
        }
    },
    "animations": {},
    "asset": {
        "generator": "collada2gltf@cf6371beb0bdc18ba603378d5e40c966da53d385",
        "premultipliedAlpha": true,
        "profile": {
            "api": "WebGL",
            "version": "1.0.2"
        },
        "version": "1.0"
    },
    "bufferViews": {
        "bufferView_72": {
            "buffer": "\\data\\ECNU\\workspace\\gridID_42\\gridID_42",
            "byteLength": 168,
            "byteOffset": 0,
            "target": 34963
        },
        "bufferView_73": {
            "buffer": "\\data\\ECNU\\workspace\\gridID_42\\gridID_42",
            "byteLength": 1632,
            "byteOffset": 168,
            "target": 34962
        }
    },
    "buffers": {
        "\\data\\ECNU\\workspace\\gridID_42\\gridID_42": {
            "byteLength": 1800,
            "type": "arraybuffer",
            "uri": "data:application/octet-stream;base64,"
        }
    },
    "materials": {
        "BUILDING_DEFAULT_0-effect": {
            "name": "BUILDING_DEFAULT_0",
            "technique": "technique0",
            "values": {
                "ambient": [
                    0,
                    0,
                    0,
                    1
                ],
                "diffuse": [
                    0.723055,
                    0.708376,
                    0.672443,
                    1
                ],
                "emission": [
                    0,
                    0,
                    0,
                    1
                ],
                "shininess": 50,
                "specular": [
                    0.5,
                    0.5,
                    0.5,
                    1
                ]
            }
        },
        "ROOF_DEFAULT_0-effect": {
            "name": "ROOF_DEFAULT_0",
            "technique": "technique0",
            "values": {
                "ambient": [
                    0,
                    0,
                    0,
                    1
                ],
                "diffuse": [
                    0.603827,
                    0.381326,
                    0.291771,
                    1
                ],
                "emission": [
                    0,
                    0,
                    0,
                    1
                ],
                "shininess": 50,
                "specular": [
                    0.5,
                    0.5,
                    0.5,
                    1
                ]
            }
        }
    },
    "meshes": {
        "Building3402-mesh": {
            "name": "Building3402",
            "primitives": [
                {
                    "attributes": {
                        "NORMAL": "accessor_70",
                        "POSITION": "accessor_68"
                    },
                    "indices": "accessor_63",
                    "material": "BUILDING_DEFAULT_0-effect",
                    "mode": 4
                },
                {
                    "attributes": {
                        "NORMAL": "accessor_70",
                        "POSITION": "accessor_68"
                    },
                    "indices": "accessor_66",
                    "material": "ROOF_DEFAULT_0-effect",
                    "mode": 4
                }
            ]
        },
        "Building3451-mesh": {
            "name": "Building3451",
            "primitives": [
                {
                    "attributes": {
                        "NORMAL": "accessor_35",
                        "POSITION": "accessor_33"
                    },
                    "indices": "accessor_28",
                    "material": "BUILDING_DEFAULT_0-effect",
                    "mode": 4
                },
                {
                    "attributes": {
                        "NORMAL": "accessor_35",
                        "POSITION": "accessor_33"
                    },
                    "indices": "accessor_31",
                    "material": "ROOF_DEFAULT_0-effect",
                    "mode": 4
                }
            ]
        }
    },
    "nodes": {
        "model_gridID_42_w376378535": {
            "children": [],
            "matrix": [
                1,
                0,
                0,
                0,
                0,
                -1.62921e-007,
                1,
                0,
                0,
                -1,
                -1.62921e-007,
                0,
                268.318,
                -126.759,
                5.49998,
                1
            ],
            "meshes": [
                "Building3451-mesh"
            ],
            "name": "model_gridID_42_w376378535"
        },
        "model_gridID_42_w376378595": {
            "children": [],
            "matrix": [
                1,
                0,
                0,
                0,
                0,
                -1.62921e-007,
                1,
                0,
                0,
                -1,
                -1.62921e-007,
                0,
                272.396,
                -150.893,
                5.49998,
                1
            ],
            "meshes": [
                "Building3402-mesh"
            ],
            "name": "model_gridID_42_w376378595"
        },
        "node_2": {
            "children": [
                "model_gridID_42_w376378535",
                "model_gridID_42_w376378595"
            ],
            "matrix": [
                1,
                0,
                0,
                0,
                0,
                0,
                -1,
                0,
                0,
                1,
                0,
                0,
                0,
                0,
                0,
                1
            ],
            "name": "Y_UP_Transform"
        }
    },
    "programs": {
        "program_0": {
            "attributes": [
                "a_normal",
                "a_position"
            ],
            "fragmentShader": "\\data\\ECNU\\workspace\\gridID_42\\gridID_420FS",
            "vertexShader": "\\data\\ECNU\\workspace\\gridID_42\\gridID_420VS"
        }
    },
    "scene": "defaultScene",
    "scenes": {
        "defaultScene": {
            "nodes": [
                "node_2"
            ]
        }
    },
    "shaders": {
        "\\data\\ECNU\\workspace\\gridID_42\\gridID_420FS": {
            "type": 35632,
            "uri": "data:text/plain;base64,"
        },
        "\\data\\ECNU\\workspace\\gridID_42\\gridID_420VS": {
            "type": 35633,
            "uri": "data:text/plain;base64,"
        }
    },
    "skins": {},
    "techniques": {
        "technique0": {
            "attributes": {
                "a_normal": "normal",
                "a_position": "position"
            },
            "parameters": {
                "ambient": {
                    "type": 35666
                },
                "diffuse": {
                    "type": 35666
                },
                "emission": {
                    "type": 35666
                },
                "modelViewMatrix": {
                    "semantic": "MODELVIEW",
                    "type": 35676
                },
                "normal": {
                    "semantic": "NORMAL",
                    "type": 35665
                },
                "normalMatrix": {
                    "semantic": "MODELVIEWINVERSETRANSPOSE",
                    "type": 35675
                },
                "position": {
                    "semantic": "POSITION",
                    "type": 35665
                },
                "projectionMatrix": {
                    "semantic": "PROJECTION",
                    "type": 35676
                },
                "shininess": {
                    "type": 5126
                },
                "specular": {
                    "type": 35666
                }
            },
            "program": "program_0",
            "states": {
                "enable": [
                    2929,
                    2884
                ]
            },
            "uniforms": {
                "u_ambient": "ambient",
                "u_diffuse": "diffuse",
                "u_emission": "emission",
                "u_modelViewMatrix": "modelViewMatrix",
                "u_normalMatrix": "normalMatrix",
                "u_projectionMatrix": "projectionMatrix",
                "u_shininess": "shininess",
                "u_specular": "specular"
            }
        }
    }
}