{
    "accessors": {
        "accessor_16": {
            "bufferView": "bufferView_62",
            "byteOffset": 0,
            "byteStride": 0,
            "componentType": 5123,
            "count": 36,
            "type": "SCALAR"
        },
        "accessor_18": {
            "bufferView": "bufferView_63",
            "byteOffset": 0,
            "byteStride": 12,
            "componentType": 5126,
            "count": 28,
            "max": [
                96.1973,
                140,
                -25.3498
            ],
            "min": [
                27.9139,
                0,
                -56.5478
            ],
            "type": "VEC3"
        },
        "accessor_20": {
            "bufferView": "bufferView_63",
            "byteOffset": 336,
            "byteStride": 12,
            "componentType": 5126,
            "count": 28,
            "max": [
                0.999627,
                1,
                0.999623
            ],
            "min": [
                -0.999627,
                -1,
                -0.999623
            ],
            "type": "VEC3"
        },
        "accessor_36": {
            "bufferView": "bufferView_62",
            "byteOffset": 72,
            "byteStride": 0,
            "componentType": 5123,
            "count": 156,
            "type": "SCALAR"
        },
        "accessor_38": {
            "bufferView": "bufferView_63",
            "byteOffset": 672,
            "byteStride": 12,
            "componentType": 5126,
            "count": 114,
            "max": [
                53.2502,
                22,
                83.6946
            ],
            "min": [
                24.541,
                0,
                -0.950061
            ],
            "type": "VEC3"
        },
        "accessor_40": {
            "bufferView": "bufferView_63",
            "byteOffset": 2040,
            "byteStride": 12,
            "componentType": 5126,
            "count": 114,
            "max": [
                0.999423,
                1,
                0.999393
            ],
            "min": [
                -0.999436,
                -1,
                -0.999421
            ],
            "type": "VEC3"
        },
        "accessor_56": {
            "bufferView": "bufferView_62",
            "byteOffset": 384,
            "byteStride": 0,
            "componentType": 5123,
            "count": 156,
            "type": "SCALAR"
        },
        "accessor_58": {
            "bufferView": "bufferView_63",
            "byteOffset": 3408,
            "byteStride": 12,
            "componentType": 5126,
            "count": 115,
            "max": [
                -38.4102,
                73,
                91.1233
            ],
            "min": [
                -73.8877,
                0,
                1.80634
            ],
            "type": "VEC3"
        },
        "accessor_60": {
            "bufferView": "bufferView_63",
            "byteOffset": 4788,
            "byteStride": 12,
            "componentType": 5126,
            "count": 115,
            "max": [
                0.999953,
                1,
                0.999721
            ],
            "min": [
                -0.999943,
                -1,
                -0.999724
            ],
            "type": "VEC3"
        }
    },
    "animations": {},
    "asset": {
        "generator": "collada2gltf@cf6371beb0bdc18ba603378d5e40c966da53d385",
        "premultipliedAlpha": true,
        "profile": {
            "api": "WebGL",
            "version": "1.0.2"
        },
        "version": "1.0"
    },
    "bufferViews": {
        "bufferView_62": {
            "buffer": "\\data\\3dcity\\miami\\workspace\\gridID_36\\gridID_36",
            "byteLength": 696,
            "byteOffset": 0,
            "target": 34963
        },
        "bufferView_63": {
            "buffer": "\\data\\3dcity\\miami\\workspace\\gridID_36\\gridID_36",
            "byteLength": 6168,
            "byteOffset": 696,
            "target": 34962
        }
    },
    "buffers": {
        "\\data\\3dcity\\miami\\workspace\\gridID_36\\gridID_36": {
            "byteLength": 6864,
            "type": "arraybuffer",
            "uri": "data:application/octet-stream;base64,"
        }
    },
    "materials": {
        "CityEngineMaterial_430-effect": {
            "name": "CityEngineMaterial_430",
            "technique": "technique0",
            "values": {
                "ambient": [
                    1,
                    1,
                    1,
                    1
                ],
                "diffuse": [
                    1,
                    1,
                    1,
                    1
                ],
                "emission": [
                    0,
                    0,
                    0,
                    1
                ],
                "shininess": 50,
                "specular": [
                    0.5,
                    0.5,
                    0.5,
                    1
                ]
            }
        },
        "CityEngineMaterial_431-effect": {
            "name": "CityEngineMaterial_431",
            "technique": "technique0",
            "values": {
                "ambient": [
                    1,
                    1,
                    1,
                    1
                ],
                "diffuse": [
                    1,
                    1,
                    1,
                    1
                ],
                "emission": [
                    0,
                    0,
                    0,
                    1
                ],
                "shininess": 50,
                "specular": [
                    0.5,
                    0.5,
                    0.5,
                    1
                ]
            }
        },
        "CityEngineMaterial_432-effect": {
            "name": "CityEngineMaterial_432",
            "technique": "technique0",
            "values": {
                "ambient": [
                    1,
                    1,
                    1,
                    1
                ],
                "diffuse": [
                    1,
                    1,
                    1,
                    1
                ],
                "emission": [
                    0,
                    0,
                    0,
                    1
                ],
                "shininess": 50,
                "specular": [
                    0.5,
                    0.5,
                    0.5,
                    1
                ]
            }
        }
    },
    "meshes": {
        "mesh_CityEngineMaterial_428-mesh": {
            "name": "mesh_CityEngineMaterial.428",
            "primitives": [
                {
                    "attributes": {
                        "NORMAL": "accessor_20",
                        "POSITION": "accessor_18"
                    },
                    "indices": "accessor_16",
                    "material": "CityEngineMaterial_430-effect",
                    "mode": 4
                }
            ]
        },
        "mesh_CityEngineMaterial_429-mesh": {
            "name": "mesh_CityEngineMaterial.429",
            "primitives": [
                {
                    "attributes": {
                        "NORMAL": "accessor_40",
                        "POSITION": "accessor_38"
                    },
                    "indices": "accessor_36",
                    "material": "CityEngineMaterial_431-effect",
                    "mode": 4
                }
            ]
        },
        "mesh_CityEngineMaterial_430-mesh": {
            "name": "mesh_CityEngineMaterial.430",
            "primitives": [
                {
                    "attributes": {
                        "NORMAL": "accessor_60",
                        "POSITION": "accessor_58"
                    },
                    "indices": "accessor_56",
                    "material": "CityEngineMaterial_432-effect",
                    "mode": 4
                }
            ]
        }
    },
    "nodes": {
        "CityEngineMaterial": {
            "children": [],
            "matrix": [
                1,
                0,
                0,
                0,
                0,
                -1.62921e-007,
                1,
                0,
                0,
                -1,
                -1.62921e-007,
                0,
                0,
                0,
                0,
                1
            ],
            "meshes": [
                "mesh_CityEngineMaterial_428-mesh"
            ],
            "name": "CityEngineMaterial"
        },
        "CityEngineMaterial_001": {
            "children": [],
            "matrix": [
                1,
                0,
                0,
                0,
                0,
                -1.62921e-007,
                1,
                0,
                0,
                -1,
                -1.62921e-007,
                0,
                0,
                0,
                0,
                1
            ],
            "meshes": [
                "mesh_CityEngineMaterial_429-mesh"
            ],
            "name": "CityEngineMaterial_001"
        },
        "CityEngineMaterial_002": {
            "children": [],
            "matrix": [
                1,
                0,
                0,
                0,
                0,
                -1.62921e-007,
                1,
                0,
                0,
                -1,
                -1.62921e-007,
                0,
                0,
                0,
                0,
                1
            ],
            "meshes": [
                "mesh_CityEngineMaterial_430-mesh"
            ],
            "name": "CityEngineMaterial_002"
        },
        "node_3": {
            "children": [
                "CityEngineMaterial",
                "CityEngineMaterial_001",
                "CityEngineMaterial_002"
            ],
            "matrix": [
                1,
                0,
                0,
                0,
                0,
                0,
                -1,
                0,
                0,
                1,
                0,
                0,
                0,
                0,
                0,
                1
            ],
            "name": "Y_UP_Transform"
        }
    },
    "programs": {
        "program_0": {
            "attributes": [
                "a_normal",
                "a_position"
            ],
            "fragmentShader": "\\data\\3dcity\\miami\\workspace\\gridID_36\\gridID_360FS",
            "vertexShader": "\\data\\3dcity\\miami\\workspace\\gridID_36\\gridID_360VS"
        }
    },
    "scene": "defaultScene",
    "scenes": {
        "defaultScene": {
            "nodes": [
                "node_3"
            ]
        }
    },
    "shaders": {
        "\\data\\3dcity\\miami\\workspace\\gridID_36\\gridID_360FS": {
            "type": 35632,
            "uri": "data:text/plain;base64,"
        },
        "\\data\\3dcity\\miami\\workspace\\gridID_36\\gridID_360VS": {
            "type": 35633,
            "uri": "data:text/plain;base64,"
        }
    },
    "skins": {},
    "techniques": {
        "technique0": {
            "attributes": {
                "a_normal": "normal",
                "a_position": "position"
            },
            "parameters": {
                "ambient": {
                    "type": 35666
                },
                "diffuse": {
                    "type": 35666
                },
                "emission": {
                    "type": 35666
                },
                "modelViewMatrix": {
                    "semantic": "MODELVIEW",
                    "type": 35676
                },
                "normal": {
                    "semantic": "NORMAL",
                    "type": 35665
                },
                "normalMatrix": {
                    "semantic": "MODELVIEWINVERSETRANSPOSE",
                    "type": 35675
                },
                "position": {
                    "semantic": "POSITION",
                    "type": 35665
                },
                "projectionMatrix": {
                    "semantic": "PROJECTION",
                    "type": 35676
                },
                "shininess": {
                    "type": 5126
                },
                "specular": {
                    "type": 35666
                }
            },
            "program": "program_0",
            "states": {
                "enable": [
                    2929,
                    2884
                ]
            },
            "uniforms": {
                "u_ambient": "ambient",
                "u_diffuse": "diffuse",
                "u_emission": "emission",
                "u_modelViewMatrix": "modelViewMatrix",
                "u_normalMatrix": "normalMatrix",
                "u_projectionMatrix": "projectionMatrix",
                "u_shininess": "shininess",
                "u_specular": "specular"
            }
        }
    }
}