{
    "accessors": {
        "accessor_113": {
            "bufferView": "bufferView_227",
            "byteOffset": 0,
            "byteStride": 0,
            "componentType": 5123,
            "count": 24,
            "type": "SCALAR"
        },
        "accessor_116": {
            "bufferView": "bufferView_227",
            "byteOffset": 48,
            "byteStride": 0,
            "componentType": 5123,
            "count": 6,
            "type": "SCALAR"
        },
        "accessor_118": {
            "bufferView": "bufferView_228",
            "byteOffset": 0,
            "byteStride": 12,
            "componentType": 5126,
            "count": 28,
            "max": [
                2.11749,
                1.25,
                1.71179
            ],
            "min": [
                -2.11752,
                -1.25,
                -1.70621
            ],
            "type": "VEC3"
        },
        "accessor_120": {
            "bufferView": "bufferView_228",
            "byteOffset": 336,
            "byteStride": 12,
            "componentType": 5126,
            "count": 28,
            "max": [
                0.963115,
                1,
                0.962597
            ],
            "min": [
                -0.963431,
                0,
                -0.963371
            ],
            "type": "VEC3"
        },
        "accessor_148": {
            "bufferView": "bufferView_227",
            "byteOffset": 120,
            "byteStride": 0,
            "componentType": 5123,
            "count": 138,
            "type": "SCALAR"
        },
        "accessor_151": {
            "bufferView": "bufferView_227",
            "byteOffset": 396,
            "byteStride": 0,
            "componentType": 5123,
            "count": 51,
            "type": "SCALAR"
        },
        "accessor_153": {
            "bufferView": "bufferView_228",
            "byteOffset": 1200,
            "byteStride": 12,
            "componentType": 5126,
            "count": 133,
            "max": [
                20.6493,
                28.6309,
                13.1072
            ],
            "min": [
                -17.2456,
                -33.869,
                -10.5378
            ],
            "type": "VEC3"
        },
        "accessor_155": {
            "bufferView": "bufferView_228",
            "byteOffset": 2796,
            "byteStride": 12,
            "componentType": 5126,
            "count": 133,
            "max": [
                0.967428,
                1,
                0.967609
            ],
            "min": [
                -0.967916,
                0,
                -0.967609
            ],
            "type": "VEC3"
        },
        "accessor_183": {
            "bufferView": "bufferView_227",
            "byteOffset": 498,
            "byteStride": 0,
            "componentType": 5123,
            "count": 288,
            "type": "SCALAR"
        },
        "accessor_186": {
            "bufferView": "bufferView_227",
            "byteOffset": 1074,
            "byteStride": 0,
            "componentType": 5123,
            "count": 114,
            "type": "SCALAR"
        },
        "accessor_188": {
            "bufferView": "bufferView_228",
            "byteOffset": 4392,
            "byteStride": 12,
            "componentType": 5126,
            "count": 321,
            "max": [
                21.554,
                31.7857,
                14.458
            ],
            "min": [
                -20.691,
                -33.2143,
                -12.137
            ],
            "type": "VEC3"
        },
        "accessor_190": {
            "bufferView": "bufferView_228",
            "byteOffset": 8244,
            "byteStride": 12,
            "componentType": 5126,
            "count": 321,
            "max": [
                0.969412,
                1,
                0.96753
            ],
            "min": [
                -0.968584,
                0,
                -0.967769
            ],
            "type": "VEC3"
        },
        "accessor_218": {
            "bufferView": "bufferView_227",
            "byteOffset": 60,
            "byteStride": 0,
            "componentType": 5123,
            "count": 24,
            "type": "SCALAR"
        },
        "accessor_221": {
            "bufferView": "bufferView_227",
            "byteOffset": 108,
            "byteStride": 0,
            "componentType": 5123,
            "count": 6,
            "type": "SCALAR"
        },
        "accessor_223": {
            "bufferView": "bufferView_228",
            "byteOffset": 672,
            "byteStride": 12,
            "componentType": 5126,
            "count": 22,
            "max": [
                8.63403,
                7.5,
                7.2355
            ],
            "min": [
                -8.63397,
                -7.5,
                -7.2355
            ],
            "type": "VEC3"
        },
        "accessor_225": {
            "bufferView": "bufferView_228",
            "byteOffset": 936,
            "byteStride": 12,
            "componentType": 5126,
            "count": 22,
            "max": [
                0.974948,
                1,
                0.97479
            ],
            "min": [
                -0.974948,
                0,
                -0.97479
            ],
            "type": "VEC3"
        },
        "accessor_28": {
            "bufferView": "bufferView_227",
            "byteOffset": 2400,
            "byteStride": 0,
            "componentType": 5123,
            "count": 156,
            "type": "SCALAR"
        },
        "accessor_31": {
            "bufferView": "bufferView_227",
            "byteOffset": 2712,
            "byteStride": 0,
            "componentType": 5123,
            "count": 72,
            "type": "SCALAR"
        },
        "accessor_33": {
            "bufferView": "bufferView_228",
            "byteOffset": 23664,
            "byteStride": 12,
            "componentType": 5126,
            "count": 168,
            "max": [
                18.0756,
                7.5,
                28.32
            ],
            "min": [
                -18.3154,
                -7.5,
                -26.684
            ],
            "type": "VEC3"
        },
        "accessor_35": {
            "bufferView": "bufferView_228",
            "byteOffset": 25680,
            "byteStride": 12,
            "componentType": 5126,
            "count": 168,
            "max": [
                0.974932,
                1,
                0.975662
            ],
            "min": [
                -0.974973,
                0,
                -0.975618
            ],
            "type": "VEC3"
        },
        "accessor_75": {
            "bufferView": "bufferView_227",
            "byteOffset": 1302,
            "byteStride": 0,
            "componentType": 5123,
            "count": 450,
            "type": "SCALAR"
        },
        "accessor_78": {
            "bufferView": "bufferView_227",
            "byteOffset": 2202,
            "byteStride": 0,
            "componentType": 5123,
            "count": 93,
            "type": "SCALAR"
        },
        "accessor_81": {
            "bufferView": "bufferView_227",
            "byteOffset": 2388,
            "byteStride": 0,
            "componentType": 5123,
            "count": 6,
            "type": "SCALAR"
        },
        "accessor_83": {
            "bufferView": "bufferView_228",
            "byteOffset": 12096,
            "byteStride": 12,
            "componentType": 5126,
            "count": 482,
            "max": [
                43.9945,
                7.91568,
                35.8134
            ],
            "min": [
                -39.1825,
                -7.08432,
                -38.4276
            ],
            "type": "VEC3"
        },
        "accessor_85": {
            "bufferView": "bufferView_228",
            "byteOffset": 17880,
            "byteStride": 12,
            "componentType": 5126,
            "count": 482,
            "max": [
                0.973466,
                1,
                1
            ],
            "min": [
                -0.972107,
                0,
                -0.972841
            ],
            "type": "VEC3"
        }
    },
    "animations": {},
    "asset": {
        "generator": "collada2gltf@cf6371beb0bdc18ba603378d5e40c966da53d385",
        "premultipliedAlpha": true,
        "profile": {
            "api": "WebGL",
            "version": "1.0.2"
        },
        "version": "1.0"
    },
    "bufferViews": {
        "bufferView_227": {
            "buffer": "\\data\\ECNU\\workspace\\gridID_68\\gridID_68",
            "byteLength": 2856,
            "byteOffset": 0,
            "target": 34963
        },
        "bufferView_228": {
            "buffer": "\\data\\ECNU\\workspace\\gridID_68\\gridID_68",
            "byteLength": 27696,
            "byteOffset": 2856,
            "target": 34962
        }
    },
    "buffers": {
        "\\data\\ECNU\\workspace\\gridID_68\\gridID_68": {
            "byteLength": 30552,
            "type": "arraybuffer",
            "uri": "data:application/octet-stream;base64,"
        }
    },
    "materials": {
        "BUILDING_DEFAULT_0-effect": {
            "name": "BUILDING_DEFAULT_0",
            "technique": "technique0",
            "values": {
                "ambient": [
                    0,
                    0,
                    0,
                    1
                ],
                "diffuse": [
                    0.723055,
                    0.708376,
                    0.672443,
                    1
                ],
                "emission": [
                    0,
                    0,
                    0,
                    1
                ],
                "shininess": 50,
                "specular": [
                    0.5,
                    0.5,
                    0.5,
                    1
                ]
            }
        },
        "CONCRETE_0-effect": {
            "name": "CONCRETE_0",
            "technique": "technique0",
            "values": {
                "ambient": [
                    0,
                    0,
                    0,
                    1
                ],
                "diffuse": [
                    0.309469,
                    0.327778,
                    0.309469,
                    1
                ],
                "emission": [
                    0,
                    0,
                    0,
                    1
                ],
                "shininess": 50,
                "specular": [
                    0.5,
                    0.5,
                    0.5,
                    1
                ]
            }
        },
        "ROOF_DEFAULT_0-effect": {
            "name": "ROOF_DEFAULT_0",
            "technique": "technique0",
            "values": {
                "ambient": [
                    0,
                    0,
                    0,
                    1
                ],
                "diffuse": [
                    0.603827,
                    0.381326,
                    0.291771,
                    1
                ],
                "emission": [
                    0,
                    0,
                    0,
                    1
                ],
                "shininess": 50,
                "specular": [
                    0.5,
                    0.5,
                    0.5,
                    1
                ]
            }
        }
    },
    "meshes": {
        "Building3519-mesh": {
            "name": "Building3519",
            "primitives": [
                {
                    "attributes": {
                        "NORMAL": "accessor_120",
                        "POSITION": "accessor_118"
                    },
                    "indices": "accessor_113",
                    "material": "BUILDING_DEFAULT_0-effect",
                    "mode": 4
                },
                {
                    "attributes": {
                        "NORMAL": "accessor_120",
                        "POSITION": "accessor_118"
                    },
                    "indices": "accessor_116",
                    "material": "CONCRETE_0-effect",
                    "mode": 4
                }
            ]
        },
        "Building3819-mesh": {
            "name": "Building3819",
            "primitives": [
                {
                    "attributes": {
                        "NORMAL": "accessor_225",
                        "POSITION": "accessor_223"
                    },
                    "indices": "accessor_218",
                    "material": "BUILDING_DEFAULT_0-effect",
                    "mode": 4
                },
                {
                    "attributes": {
                        "NORMAL": "accessor_225",
                        "POSITION": "accessor_223"
                    },
                    "indices": "accessor_221",
                    "material": "ROOF_DEFAULT_0-effect",
                    "mode": 4
                }
            ]
        },
        "Building4016-mesh": {
            "name": "Building4016",
            "primitives": [
                {
                    "attributes": {
                        "NORMAL": "accessor_155",
                        "POSITION": "accessor_153"
                    },
                    "indices": "accessor_148",
                    "material": "BUILDING_DEFAULT_0-effect",
                    "mode": 4
                },
                {
                    "attributes": {
                        "NORMAL": "accessor_155",
                        "POSITION": "accessor_153"
                    },
                    "indices": "accessor_151",
                    "material": "CONCRETE_0-effect",
                    "mode": 4
                }
            ]
        },
        "Building4018-mesh": {
            "name": "Building4018",
            "primitives": [
                {
                    "attributes": {
                        "NORMAL": "accessor_190",
                        "POSITION": "accessor_188"
                    },
                    "indices": "accessor_183",
                    "material": "BUILDING_DEFAULT_0-effect",
                    "mode": 4
                },
                {
                    "attributes": {
                        "NORMAL": "accessor_190",
                        "POSITION": "accessor_188"
                    },
                    "indices": "accessor_186",
                    "material": "CONCRETE_0-effect",
                    "mode": 4
                }
            ]
        },
        "Building4125-mesh": {
            "name": "Building4125",
            "primitives": [
                {
                    "attributes": {
                        "NORMAL": "accessor_85",
                        "POSITION": "accessor_83"
                    },
                    "indices": "accessor_75",
                    "material": "BUILDING_DEFAULT_0-effect",
                    "mode": 4
                },
                {
                    "attributes": {
                        "NORMAL": "accessor_85",
                        "POSITION": "accessor_83"
                    },
                    "indices": "accessor_78",
                    "material": "ROOF_DEFAULT_0-effect",
                    "mode": 4
                },
                {
                    "attributes": {
                        "NORMAL": "accessor_85",
                        "POSITION": "accessor_83"
                    },
                    "indices": "accessor_81",
                    "material": "CONCRETE_0-effect",
                    "mode": 4
                }
            ]
        },
        "Building4129-mesh": {
            "name": "Building4129",
            "primitives": [
                {
                    "attributes": {
                        "NORMAL": "accessor_35",
                        "POSITION": "accessor_33"
                    },
                    "indices": "accessor_28",
                    "material": "BUILDING_DEFAULT_0-effect",
                    "mode": 4
                },
                {
                    "attributes": {
                        "NORMAL": "accessor_35",
                        "POSITION": "accessor_33"
                    },
                    "indices": "accessor_31",
                    "material": "CONCRETE_0-effect",
                    "mode": 4
                }
            ]
        }
    },
    "nodes": {
        "model_gridID_68_w116940038": {
            "children": [],
            "matrix": [
                1,
                0,
                0,
                0,
                0,
                -1.62921e-007,
                1,
                0,
                0,
                -1,
                -1.62921e-007,
                0,
                -478.206,
                203.616,
                7.50003,
                1
            ],
            "meshes": [
                "Building4129-mesh"
            ],
            "name": "model_gridID_68_w116940038"
        },
        "model_gridID_68_w116940044": {
            "children": [],
            "matrix": [
                1,
                0,
                0,
                0,
                0,
                -1.62921e-007,
                1,
                0,
                0,
                -1,
                -1.62921e-007,
                0,
                -428.934,
                203.606,
                7.08435,
                1
            ],
            "meshes": [
                "Building4125-mesh"
            ],
            "name": "model_gridID_68_w116940044"
        },
        "model_gridID_68_w116940044_006": {
            "children": [],
            "matrix": [
                1,
                0,
                0,
                0,
                0,
                -1.62921e-007,
                1,
                0,
                0,
                -1,
                -1.62921e-007,
                0,
                -411.34,
                297.314,
                1.25005,
                1
            ],
            "meshes": [
                "Building3519-mesh"
            ],
            "name": "model_gridID_68_w116940044_006"
        },
        "model_gridID_68_w375393987": {
            "children": [],
            "matrix": [
                1,
                0,
                0,
                0,
                0,
                -1.62921e-007,
                1,
                0,
                0,
                -1,
                -1.62921e-007,
                0,
                -510.593,
                158.324,
                33.8691,
                1
            ],
            "meshes": [
                "Building4016-mesh"
            ],
            "name": "model_gridID_68_w375393987"
        },
        "model_gridID_68_w375393989": {
            "children": [],
            "matrix": [
                1,
                0,
                0,
                0,
                0,
                -1.62921e-007,
                1,
                0,
                0,
                -1,
                -1.62921e-007,
                0,
                -499.961,
                116.939,
                33.2143,
                1
            ],
            "meshes": [
                "Building4018-mesh"
            ],
            "name": "model_gridID_68_w375393989"
        },
        "model_gridID_68_w376043962": {
            "children": [],
            "matrix": [
                1,
                0,
                0,
                0,
                0,
                -1.62921e-007,
                1,
                0,
                0,
                -1,
                -1.62921e-007,
                0,
                -467.098,
                171.434,
                7.50003,
                1
            ],
            "meshes": [
                "Building3819-mesh"
            ],
            "name": "model_gridID_68_w376043962"
        },
        "node_6": {
            "children": [
                "model_gridID_68_w116940038",
                "model_gridID_68_w116940044",
                "model_gridID_68_w116940044_006",
                "model_gridID_68_w375393987",
                "model_gridID_68_w375393989",
                "model_gridID_68_w376043962"
            ],
            "matrix": [
                1,
                0,
                0,
                0,
                0,
                0,
                -1,
                0,
                0,
                1,
                0,
                0,
                0,
                0,
                0,
                1
            ],
            "name": "Y_UP_Transform"
        }
    },
    "programs": {
        "program_0": {
            "attributes": [
                "a_normal",
                "a_position"
            ],
            "fragmentShader": "\\data\\ECNU\\workspace\\gridID_68\\gridID_680FS",
            "vertexShader": "\\data\\ECNU\\workspace\\gridID_68\\gridID_680VS"
        }
    },
    "scene": "defaultScene",
    "scenes": {
        "defaultScene": {
            "nodes": [
                "node_6"
            ]
        }
    },
    "shaders": {
        "\\data\\ECNU\\workspace\\gridID_68\\gridID_680FS": {
            "type": 35632,
            "uri": "data:text/plain;base64,"
        },
        "\\data\\ECNU\\workspace\\gridID_68\\gridID_680VS": {
            "type": 35633,
            "uri": "data:text/plain;base64,"
        }
    },
    "skins": {},
    "techniques": {
        "technique0": {
            "attributes": {
                "a_normal": "normal",
                "a_position": "position"
            },
            "parameters": {
                "ambient": {
                    "type": 35666
                },
                "diffuse": {
                    "type": 35666
                },
                "emission": {
                    "type": 35666
                },
                "modelViewMatrix": {
                    "semantic": "MODELVIEW",
                    "type": 35676
                },
                "normal": {
                    "semantic": "NORMAL",
                    "type": 35665
                },
                "normalMatrix": {
                    "semantic": "MODELVIEWINVERSETRANSPOSE",
                    "type": 35675
                },
                "position": {
                    "semantic": "POSITION",
                    "type": 35665
                },
                "projectionMatrix": {
                    "semantic": "PROJECTION",
                    "type": 35676
                },
                "shininess": {
                    "type": 5126
                },
                "specular": {
                    "type": 35666
                }
            },
            "program": "program_0",
            "states": {
                "enable": [
                    2929,
                    2884
                ]
            },
            "uniforms": {
                "u_ambient": "ambient",
                "u_diffuse": "diffuse",
                "u_emission": "emission",
                "u_modelViewMatrix": "modelViewMatrix",
                "u_normalMatrix": "normalMatrix",
                "u_projectionMatrix": "projectionMatrix",
                "u_shininess": "shininess",
                "u_specular": "specular"
            }
        }
    }
}