{"accessors":{"accessor_101":{"bufferView":"bufferView_282","byteOffset":426,"byteStride":0,"componentType":5123,"count":6,"type":"SCALAR"},"accessor_103":{"bufferView":"bufferView_283","byteOffset":3672,"byteStride":12,"componentType":5126,"count":22,"max":[9.38625,3.75,7.55347],"min":[-9.38575,-3.75,-7.55353],"type":"VEC3"},"accessor_105":{"bufferView":"bufferView_283","byteOffset":3936,"byteStride":12,"componentType":5126,"count":22,"max":[0.916308,1,0.916436],"min":[-0.916347,0,-0.916426],"type":"VEC3"},"accessor_133":{"bufferView":"bufferView_282","byteOffset":138,"byteStride":0,"componentType":5123,"count":24,"type":"SCALAR"},"accessor_136":{"bufferView":"bufferView_282","byteOffset":186,"byteStride":0,"componentType":5123,"count":6,"type":"SCALAR"},"accessor_138":{"bufferView":"bufferView_283","byteOffset":1224,"byteStride":12,"componentType":5126,"count":26,"max":[19.8708,3.75,12.1317],"min":[-19.8713,-3.75,-12.1373],"type":"VEC3"},"accessor_140":{"bufferView":"bufferView_283","byteOffset":1536,"byteStride":12,"componentType":5126,"count":26,"max":[0.916536,1,0.916488],"min":[-0.916308,0,-0.916389],"type":"VEC3"},"accessor_168":{"bufferView":"bufferView_282","byteOffset":198,"byteStride":0,"componentType":5123,"count":24,"type":"SCALAR"},"accessor_171":{"bufferView":"bufferView_282","byteOffset":246,"byteStride":0,"componentType":5123,"count":6,"type":"SCALAR"},"accessor_173":{"bufferView":"bufferView_283","byteOffset":1848,"byteStride":12,"componentType":5126,"count":30,"max":[23.088,3.75,8.2995],"min":[-23.088,-3.75,-8.2995],"type":"VEC3"},"accessor_175":{"bufferView":"bufferView_283","byteOffset":2208,"byteStride":12,"componentType":5126,"count":30,"max":[0.986562,1,0.986534],"min":[-0.986562,0,-0.986534],"type":"VEC3"},"accessor_203":{"bufferView":"bufferView_282","byteOffset":258,"byteStride":0,"componentType":5123,"count":24,"type":"SCALAR"},"accessor_206":{"bufferView":"bufferView_282","byteOffset":306,"byteStride":0,"componentType":5123,"count":6,"type":"SCALAR"},"accessor_208":{"bufferView":"bufferView_283","byteOffset":2568,"byteStride":12,"componentType":5126,"count":26,"max":[23.0672,3.75,7.90405],"min":[-23.0717,-3.75,-7.90393],"type":"VEC3"},"accessor_210":{"bufferView":"bufferView_283","byteOffset":2880,"byteStride":12,"componentType":5126,"count":26,"max":[0.989439,1,0.989382],"min":[-0.9893,0,-0.989378],"type":"VEC3"},"accessor_238":{"bufferView":"bufferView_282","byteOffset":318,"byteStride":0,"componentType":5123,"count":24,"type":"SCALAR"},"accessor_241":{"bufferView":"bufferView_282","byteOffset":366,"byteStride":0,"componentType":5123,"count":6,"type":"SCALAR"},"accessor_243":{"bufferView":"bufferView_283","byteOffset":3192,"byteStride":12,"componentType":5126,"count":20,"max":[29.273,3.75,17.2834],"min":[-29.278,-3.75,-17.2836],"type":"VEC3"},"accessor_245":{"bufferView":"bufferView_283","byteOffset":3432,"byteStride":12,"componentType":5126,"count":20,"max":[0.901875,1,0.901557],"min":[-0.901455,0,-0.901587],"type":"VEC3"},"accessor_273":{"bufferView":"bufferView_282","byteOffset":438,"byteStride":0,"componentType":5123,"count":24,"type":"SCALAR"},"accessor_276":{"bufferView":"bufferView_282","byteOffset":486,"byteStride":0,"componentType":5123,"count":6,"type":"SCALAR"},"accessor_278":{"bufferView":"bufferView_283","byteOffset":4200,"byteStride":12,"componentType":5126,"count":30,"max":[29.2737,3.75,17.2836],"min":[-29.2782,-3.75,-17.2834],"type":"VEC3"},"accessor_28":{"bufferView":"bufferView_282","byteOffset":60,"byteStride":0,"componentType":5123,"count":30,"type":"SCALAR"},"accessor_280":{"bufferView":"bufferView_283","byteOffset":4560,"byteStride":12,"componentType":5126,"count":30,"max":[0.901832,1,0.90156],"min":[-0.901458,0,-0.901588],"type":"VEC3"},"accessor_31":{"bufferView":"bufferView_282","byteOffset":120,"byteStride":0,"componentType":5123,"count":9,"type":"SCALAR"},"accessor_33":{"bufferView":"bufferView_283","byteOffset":576,"byteStride":12,"componentType":5126,"count":27,"max":[17.8308,3.75,5.28558],"min":[-11.9352,-3.75,-4.94446],"type":"VEC3"},"accessor_35":{"bufferView":"bufferView_283","byteOffset":900,"byteStride":12,"componentType":5126,"count":27,"max":[0.998395,1,0.998356],"min":[-0.998497,0,-0.99838],"type":"VEC3"},"accessor_63":{"bufferView":"bufferView_282","byteOffset":0,"byteStride":0,"componentType":5123,"count":24,"type":"SCALAR"},"accessor_66":{"bufferView":"bufferView_282","byteOffset":48,"byteStride":0,"componentType":5123,"count":6,"type":"SCALAR"},"accessor_68":{"bufferView":"bufferView_283","byteOffset":0,"byteStride":12,"componentType":5126,"count":24,"max":[5.4735,3.75,3.27905],"min":[-5.4735,-3.75,-3.27899],"type":"VEC3"},"accessor_70":{"bufferView":"bufferView_283","byteOffset":288,"byteStride":12,"componentType":5126,"count":24,"max":[0.998346,1,0.998393],"min":[-0.998346,0,-0.998392],"type":"VEC3"},"accessor_98":{"bufferView":"bufferView_282","byteOffset":378,"byteStride":0,"componentType":5123,"count":24,"type":"SCALAR"},"accessor_b0":{"bufferView":"bufferView_b","byteOffset":0,"byteStride":0,"componentType":5123,"count":24,"type":"SCALAR"},"accessor_b1":{"bufferView":"bufferView_b","byteOffset":48,"byteStride":0,"componentType":5123,"count":27,"type":"SCALAR"},"accessor_b2":{"bufferView":"bufferView_b","byteOffset":102,"byteStride":0,"componentType":5123,"count":26,"type":"SCALAR"},"accessor_b3":{"bufferView":"bufferView_b","byteOffset":154,"byteStride":0,"componentType":5123,"count":30,"type":"SCALAR"},"accessor_b4":{"bufferView":"bufferView_b","byteOffset":214,"byteStride":0,"componentType":5123,"count":26,"type":"SCALAR"},"accessor_b5":{"bufferView":"bufferView_b","byteOffset":266,"byteStride":0,"componentType":5123,"count":20,"type":"SCALAR"},"accessor_b6":{"bufferView":"bufferView_b","byteOffset":306,"byteStride":0,"componentType":5123,"count":22,"type":"SCALAR"},"accessor_b7":{"bufferView":"bufferView_b","byteOffset":350,"byteStride":0,"componentType":5123,"count":30,"type":"SCALAR"}},"animations":{},"asset":{"generator":"collada2gltf@cf6371beb0bdc18ba603378d5e40c966da53d385","premultipliedAlpha":true,"profile":{"api":"WebGL","version":"1.0.2"},"version":"1.0"},"bufferViews":{"bufferView_282":{"buffer":"\\data\\ECNU\\workspace\\gridID_116\\gridID_116","byteLength":500,"byteOffset":0,"target":34963},"bufferView_283":{"buffer":"\\data\\ECNU\\workspace\\gridID_116\\gridID_116","byteLength":4920,"byteOffset":500,"target":34962},"bufferView_b":{"buffer":"buffer_b","byteLength":410,"byteOffset":0,"target":34962}},"buffers":{"\\data\\ECNU\\workspace\\gridID_116\\gridID_116":{"byteLength":5420,"type":"arraybuffer","uri":"data:application/octet-stream;base64,"},"buffer_b":{"type":"arraybuffer","byteLength":410,"uri":"data:application/octet-stream;base64,"}},"materials":{"BUILDING_DEFAULT_0-effect":{"name":"BUILDING_DEFAULT_0","technique":"technique0","values":{"ambient":[0,0,0,1],"diffuse":[0.723055,0.708376,0.672443,1],"emission":[0,0,0,1],"shininess":50,"specular":[0.5,0.5,0.5,1]}},"ROOF_DEFAULT_0-effect":{"name":"ROOF_DEFAULT_0","technique":"technique0","values":{"ambient":[0,0,0,1],"diffuse":[0.603827,0.381326,0.291771,1],"emission":[0,0,0,1],"shininess":50,"specular":[0.5,0.5,0.5,1]}}},"meshes":{"Building3277-mesh":{"name":"Building3277","primitives":[{"attributes":{"NORMAL":"accessor_70","POSITION":"accessor_68","BATCHID":"accessor_b0"},"indices":"accessor_63","material":"BUILDING_DEFAULT_0-effect","mode":4},{"attributes":{"NORMAL":"accessor_70","POSITION":"accessor_68","BATCHID":"accessor_b0"},"indices":"accessor_66","material":"ROOF_DEFAULT_0-effect","mode":4}]},"Building3279-mesh":{"name":"Building3279","primitives":[{"attributes":{"NORMAL":"accessor_35","POSITION":"accessor_33","BATCHID":"accessor_b1"},"indices":"accessor_28","material":"BUILDING_DEFAULT_0-effect","mode":4},{"attributes":{"NORMAL":"accessor_35","POSITION":"accessor_33","BATCHID":"accessor_b1"},"indices":"accessor_31","material":"ROOF_DEFAULT_0-effect","mode":4}]},"Building3524-mesh":{"name":"Building3524","primitives":[{"attributes":{"NORMAL":"accessor_140","POSITION":"accessor_138","BATCHID":"accessor_b2"},"indices":"accessor_133","material":"BUILDING_DEFAULT_0-effect","mode":4},{"attributes":{"NORMAL":"accessor_140","POSITION":"accessor_138","BATCHID":"accessor_b2"},"indices":"accessor_136","material":"ROOF_DEFAULT_0-effect","mode":4}]},"Building3525-mesh":{"name":"Building3525","primitives":[{"attributes":{"NORMAL":"accessor_175","POSITION":"accessor_173","BATCHID":"accessor_b3"},"indices":"accessor_168","material":"BUILDING_DEFAULT_0-effect","mode":4},{"attributes":{"NORMAL":"accessor_175","POSITION":"accessor_173","BATCHID":"accessor_b3"},"indices":"accessor_171","material":"ROOF_DEFAULT_0-effect","mode":4}]},"Building3526-mesh":{"name":"Building3526","primitives":[{"attributes":{"NORMAL":"accessor_210","POSITION":"accessor_208","BATCHID":"accessor_b4"},"indices":"accessor_203","material":"BUILDING_DEFAULT_0-effect","mode":4},{"attributes":{"NORMAL":"accessor_210","POSITION":"accessor_208","BATCHID":"accessor_b4"},"indices":"accessor_206","material":"ROOF_DEFAULT_0-effect","mode":4}]},"Building3527-mesh":{"name":"Building3527","primitives":[{"attributes":{"NORMAL":"accessor_245","POSITION":"accessor_243","BATCHID":"accessor_b5"},"indices":"accessor_238","material":"BUILDING_DEFAULT_0-effect","mode":4},{"attributes":{"NORMAL":"accessor_245","POSITION":"accessor_243","BATCHID":"accessor_b5"},"indices":"accessor_241","material":"ROOF_DEFAULT_0-effect","mode":4}]},"Building3528-mesh":{"name":"Building3528","primitives":[{"attributes":{"NORMAL":"accessor_105","POSITION":"accessor_103","BATCHID":"accessor_b6"},"indices":"accessor_98","material":"BUILDING_DEFAULT_0-effect","mode":4},{"attributes":{"NORMAL":"accessor_105","POSITION":"accessor_103","BATCHID":"accessor_b6"},"indices":"accessor_101","material":"ROOF_DEFAULT_0-effect","mode":4}]},"Building3529-mesh":{"name":"Building3529","primitives":[{"attributes":{"NORMAL":"accessor_280","POSITION":"accessor_278","BATCHID":"accessor_b7"},"indices":"accessor_273","material":"BUILDING_DEFAULT_0-effect","mode":4},{"attributes":{"NORMAL":"accessor_280","POSITION":"accessor_278","BATCHID":"accessor_b7"},"indices":"accessor_276","material":"ROOF_DEFAULT_0-effect","mode":4}]}},"nodes":{"model_gridID_116_r2262040":{"children":[],"matrix":[1,0,0,0,0,-1.62921e-7,1,0,0,-1,-1.62921e-7,0,-45.9788,609.045,3.7501,1],"meshes":["Building3279-mesh"],"name":"model_gridID_116_r2262040"},"model_gridID_116_r2262040_001":{"children":[],"matrix":[1,0,0,0,0,-1.62921e-7,1,0,0,-1,-1.62921e-7,0,-62.9015,606.436,3.7501,1],"meshes":["Building3277-mesh"],"name":"model_gridID_116_r2262040_001"},"model_gridID_116_w169930645":{"children":[],"matrix":[1,0,0,0,0,-1.62921e-7,1,0,0,-1,-1.62921e-7,0,-86.4613,616.121,3.7501,1],"meshes":["Building3528-mesh"],"name":"model_gridID_116_w169930645"},"model_gridID_116_w169930645_001":{"children":[],"matrix":[1,0,0,0,0,-1.62921e-7,1,0,0,-1,-1.62921e-7,0,-54.6057,630.118,3.7501,1],"meshes":["Building3524-mesh"],"name":"model_gridID_116_w169930645_001"},"model_gridID_116_w169930646":{"children":[],"matrix":[1,0,0,0,0,-1.62921e-7,1,0,0,-1,-1.62921e-7,0,-46.886,588.435,3.7501,1],"meshes":["Building3525-mesh"],"name":"model_gridID_116_w169930646"},"model_gridID_116_w169930648":{"children":[],"matrix":[1,0,0,0,0,-1.62921e-7,1,0,0,-1,-1.62921e-7,0,-99.6952,596.756,3.7501,1],"meshes":["Building3526-mesh"],"name":"model_gridID_116_w169930648"},"model_gridID_116_w169930651":{"children":[],"matrix":[1,0,0,0,0,-1.62921e-7,1,0,0,-1,-1.62921e-7,0,-121.817,644.677,3.7501,1],"meshes":["Building3527-mesh"],"name":"model_gridID_116_w169930651"},"model_gridID_116_w169930654":{"children":[],"matrix":[1,0,0,0,0,-1.62921e-7,1,0,0,-1,-1.62921e-7,0,-112.984,626.641,3.7501,1],"meshes":["Building3529-mesh"],"name":"model_gridID_116_w169930654"},"node_8":{"children":["model_gridID_116_r2262040","model_gridID_116_r2262040_001","model_gridID_116_w169930645","model_gridID_116_w169930645_001","model_gridID_116_w169930646","model_gridID_116_w169930648","model_gridID_116_w169930651","model_gridID_116_w169930654"],"matrix":[1,0,0,0,0,0,-1,0,0,1,0,0,0,0,0,1],"name":"Y_UP_Transform"}},"programs":{"program_0":{"attributes":["a_normal","a_position","a_batchId"],"fragmentShader":"\\data\\ECNU\\workspace\\gridID_116\\gridID_1160FS","vertexShader":"\\data\\ECNU\\workspace\\gridID_116\\gridID_1160VS"}},"scene":"defaultScene","scenes":{"defaultScene":{"nodes":["node_8"]}},"shaders":{"\\data\\ECNU\\workspace\\gridID_116\\gridID_1160FS":{"type":35632,"uri":"data:text/plain;base64,"},"\\data\\ECNU\\workspace\\gridID_116\\gridID_1160VS":{"type":35633,"uri":"data:text/plain;base64,"}},"skins":{},"techniques":{"technique0":{"attributes":{"a_normal":"normal","a_position":"position","a_batchId":"batchId"},"parameters":{"ambient":{"type":35666},"diffuse":{"type":35666},"emission":{"type":35666},"modelViewMatrix":{"semantic":"MODELVIEW","type":35676},"normal":{"semantic":"NORMAL","type":35665},"normalMatrix":{"semantic":"MODELVIEWINVERSETRANSPOSE","type":35675},"position":{"semantic":"POSITION","type":35665},"projectionMatrix":{"semantic":"PROJECTION","type":35676},"shininess":{"type":5126},"specular":{"type":35666},"batchId":{"semantic":"BATCHID","type":5126}},"program":"program_0","states":{"enable":[2929,2884]},"uniforms":{"u_ambient":"ambient","u_diffuse":"diffuse","u_emission":"emission","u_modelViewMatrix":"modelViewMatrix","u_normalMatrix":"normalMatrix","u_projectionMatrix":"projectionMatrix","u_shininess":"shininess","u_specular":"specular"}}}}