{"accessors":{"accessor_16":{"bufferView":"bufferView_82","byteOffset":0,"byteStride":0,"componentType":5123,"count":36,"type":"SCALAR"},"accessor_18":{"bufferView":"bufferView_83","byteOffset":0,"byteStride":12,"componentType":5126,"count":30,"max":[-0.221113,10,89.3757],"min":[-24.8116,0,55.447],"type":"VEC3"},"accessor_20":{"bufferView":"bufferView_83","byteOffset":360,"byteStride":12,"componentType":5126,"count":30,"max":[0.929996,1,0.929876],"min":[-0.930065,-1,-0.930278],"type":"VEC3"},"accessor_36":{"bufferView":"bufferView_82","byteOffset":72,"byteStride":0,"componentType":5123,"count":36,"type":"SCALAR"},"accessor_38":{"bufferView":"bufferView_83","byteOffset":720,"byteStride":12,"componentType":5126,"count":30,"max":[-1.22299,10,36.7583],"min":[-22.485,0,16.8089],"type":"VEC3"},"accessor_40":{"bufferView":"bufferView_83","byteOffset":1080,"byteStride":12,"componentType":5126,"count":30,"max":[0.999936,1,0.999938],"min":[-0.999943,-1,-0.999938],"type":"VEC3"},"accessor_56":{"bufferView":"bufferView_82","byteOffset":144,"byteStride":0,"componentType":5123,"count":48,"type":"SCALAR"},"accessor_58":{"bufferView":"bufferView_83","byteOffset":1440,"byteStride":12,"componentType":5126,"count":42,"max":[70.8452,140,92.5399],"min":[28.0095,0,8.81184],"type":"VEC3"},"accessor_60":{"bufferView":"bufferView_83","byteOffset":1944,"byteStride":12,"componentType":5126,"count":42,"max":[0.974723,1,0.974683],"min":[-0.974728,-1,-0.974704],"type":"VEC3"},"accessor_76":{"bufferView":"bufferView_82","byteOffset":240,"byteStride":0,"componentType":5123,"count":84,"type":"SCALAR"},"accessor_78":{"bufferView":"bufferView_83","byteOffset":2448,"byteStride":12,"componentType":5126,"count":62,"max":[-36.7116,13,62.2822],"min":[-51.3501,0,44.8295],"type":"VEC3"},"accessor_80":{"bufferView":"bufferView_83","byteOffset":3192,"byteStride":12,"componentType":5126,"count":62,"max":[0.999992,1,1],"min":[-0.999994,-1,-0.999993],"type":"VEC3"},"accessor_b0":{"bufferView":"bufferView_b","byteOffset":0,"byteStride":0,"componentType":5123,"count":30,"type":"SCALAR"},"accessor_b1":{"bufferView":"bufferView_b","byteOffset":60,"byteStride":0,"componentType":5123,"count":30,"type":"SCALAR"},"accessor_b2":{"bufferView":"bufferView_b","byteOffset":120,"byteStride":0,"componentType":5123,"count":42,"type":"SCALAR"},"accessor_b3":{"bufferView":"bufferView_b","byteOffset":204,"byteStride":0,"componentType":5123,"count":62,"type":"SCALAR"}},"animations":{},"asset":{"generator":"collada2gltf@cf6371beb0bdc18ba603378d5e40c966da53d385","premultipliedAlpha":true,"profile":{"api":"WebGL","version":"1.0.2"},"version":"1.0"},"bufferViews":{"bufferView_82":{"buffer":"\\data\\3dcity\\miami\\workspace\\gridID_19\\gridID_19","byteLength":408,"byteOffset":0,"target":34963},"bufferView_83":{"buffer":"\\data\\3dcity\\miami\\workspace\\gridID_19\\gridID_19","byteLength":3936,"byteOffset":408,"target":34962},"bufferView_b":{"buffer":"buffer_b","byteLength":328,"byteOffset":0,"target":34962}},"buffers":{"\\data\\3dcity\\miami\\workspace\\gridID_19\\gridID_19":{"byteLength":4344,"type":"arraybuffer","uri":"data:application/octet-stream;base64,"},"buffer_b":{"type":"arraybuffer","byteLength":328,"uri":"data:application/octet-stream;base64,"}},"materials":{"CityEngineMaterial_341-effect":{"name":"CityEngineMaterial_341","technique":"technique0","values":{"ambient":[1,1,1,1],"diffuse":[1,1,1,1],"emission":[0,0,0,1],"shininess":50,"specular":[0.5,0.5,0.5,1]}},"CityEngineMaterial_342-effect":{"name":"CityEngineMaterial_342","technique":"technique0","values":{"ambient":[1,1,1,1],"diffuse":[1,1,1,1],"emission":[0,0,0,1],"shininess":50,"specular":[0.5,0.5,0.5,1]}},"CityEngineMaterial_343-effect":{"name":"CityEngineMaterial_343","technique":"technique0","values":{"ambient":[1,1,1,1],"diffuse":[1,1,1,1],"emission":[0,0,0,1],"shininess":50,"specular":[0.5,0.5,0.5,1]}},"CityEngineMaterial_344-effect":{"name":"CityEngineMaterial_344","technique":"technique0","values":{"ambient":[1,1,1,1],"diffuse":[1,1,1,1],"emission":[0,0,0,1],"shininess":50,"specular":[0.5,0.5,0.5,1]}}},"meshes":{"mesh_CityEngineMaterial_340-mesh":{"name":"mesh_CityEngineMaterial.340","primitives":[{"attributes":{"NORMAL":"accessor_20","POSITION":"accessor_18","BATCHID":"accessor_b0"},"indices":"accessor_16","material":"CityEngineMaterial_341-effect","mode":4}]},"mesh_CityEngineMaterial_341-mesh":{"name":"mesh_CityEngineMaterial.341","primitives":[{"attributes":{"NORMAL":"accessor_40","POSITION":"accessor_38","BATCHID":"accessor_b1"},"indices":"accessor_36","material":"CityEngineMaterial_342-effect","mode":4}]},"mesh_CityEngineMaterial_342-mesh":{"name":"mesh_CityEngineMaterial.342","primitives":[{"attributes":{"NORMAL":"accessor_60","POSITION":"accessor_58","BATCHID":"accessor_b2"},"indices":"accessor_56","material":"CityEngineMaterial_343-effect","mode":4}]},"mesh_CityEngineMaterial_343-mesh":{"name":"mesh_CityEngineMaterial.343","primitives":[{"attributes":{"NORMAL":"accessor_80","POSITION":"accessor_78","BATCHID":"accessor_b3"},"indices":"accessor_76","material":"CityEngineMaterial_344-effect","mode":4}]}},"nodes":{"CityEngineMaterial":{"children":[],"matrix":[1,0,0,0,0,-1.62921e-7,1,0,0,-1,-1.62921e-7,0,0,0,0,1],"meshes":["mesh_CityEngineMaterial_340-mesh"],"name":"CityEngineMaterial"},"CityEngineMaterial_001":{"children":[],"matrix":[1,0,0,0,0,-1.62921e-7,1,0,0,-1,-1.62921e-7,0,0,0,0,1],"meshes":["mesh_CityEngineMaterial_341-mesh"],"name":"CityEngineMaterial_001"},"CityEngineMaterial_002":{"children":[],"matrix":[1,0,0,0,0,-1.62921e-7,1,0,0,-1,-1.62921e-7,0,0,0,0,1],"meshes":["mesh_CityEngineMaterial_342-mesh"],"name":"CityEngineMaterial_002"},"CityEngineMaterial_003":{"children":[],"matrix":[1,0,0,0,0,-1.62921e-7,1,0,0,-1,-1.62921e-7,0,0,0,0,1],"meshes":["mesh_CityEngineMaterial_343-mesh"],"name":"CityEngineMaterial_003"},"node_4":{"children":["CityEngineMaterial","CityEngineMaterial_001","CityEngineMaterial_002","CityEngineMaterial_003"],"matrix":[1,0,0,0,0,0,-1,0,0,1,0,0,0,0,0,1],"name":"Y_UP_Transform"}},"programs":{"program_0":{"attributes":["a_normal","a_position","a_batchId"],"fragmentShader":"\\data\\3dcity\\miami\\workspace\\gridID_19\\gridID_190FS","vertexShader":"\\data\\3dcity\\miami\\workspace\\gridID_19\\gridID_190VS"}},"scene":"defaultScene","scenes":{"defaultScene":{"nodes":["node_4"]}},"shaders":{"\\data\\3dcity\\miami\\workspace\\gridID_19\\gridID_190FS":{"type":35632,"uri":"data:text/plain;base64,"},"\\data\\3dcity\\miami\\workspace\\gridID_19\\gridID_190VS":{"type":35633,"uri":"data:text/plain;base64,"}},"skins":{},"techniques":{"technique0":{"attributes":{"a_normal":"normal","a_position":"position","a_batchId":"batchId"},"parameters":{"ambient":{"type":35666},"diffuse":{"type":35666},"emission":{"type":35666},"modelViewMatrix":{"semantic":"MODELVIEW","type":35676},"normal":{"semantic":"NORMAL","type":35665},"normalMatrix":{"semantic":"MODELVIEWINVERSETRANSPOSE","type":35675},"position":{"semantic":"POSITION","type":35665},"projectionMatrix":{"semantic":"PROJECTION","type":35676},"shininess":{"type":5126},"specular":{"type":35666},"batchId":{"semantic":"BATCHID","type":5126}},"program":"program_0","states":{"enable":[2929,2884]},"uniforms":{"u_ambient":"ambient","u_diffuse":"diffuse","u_emission":"emission","u_modelViewMatrix":"modelViewMatrix","u_normalMatrix":"normalMatrix","u_projectionMatrix":"projectionMatrix","u_shininess":"shininess","u_specular":"specular"}}}}