{"accessors":{"accessor_100":{"bufferView":"bufferView_103","byteOffset":8424,"byteStride":12,"componentType":5126,"count":64,"max":[0.975112,1,0.974512],"min":[-0.975931,-1,-0.974532],"type":"VEC3"},"accessor_16":{"bufferView":"bufferView_102","byteOffset":0,"byteStride":0,"componentType":5123,"count":60,"type":"SCALAR"},"accessor_18":{"bufferView":"bufferView_103","byteOffset":0,"byteStride":12,"componentType":5126,"count":45,"max":[-8.45683,147,97.8283],"min":[-44.7025,0,48.7444],"type":"VEC3"},"accessor_20":{"bufferView":"bufferView_103","byteOffset":540,"byteStride":12,"componentType":5126,"count":45,"max":[0.97384,1,0.974234],"min":[-0.97716,-1,-0.9731],"type":"VEC3"},"accessor_36":{"bufferView":"bufferView_102","byteOffset":120,"byteStride":0,"componentType":5123,"count":108,"type":"SCALAR"},"accessor_38":{"bufferView":"bufferView_103","byteOffset":1080,"byteStride":12,"componentType":5126,"count":84,"max":[89.2594,66.5,53.0829],"min":[43.0284,0,24.4557],"type":"VEC3"},"accessor_40":{"bufferView":"bufferView_103","byteOffset":2088,"byteStride":12,"componentType":5126,"count":84,"max":[0.974568,1,0.974272],"min":[-0.97437,-1,-0.974047],"type":"VEC3"},"accessor_56":{"bufferView":"bufferView_102","byteOffset":336,"byteStride":0,"componentType":5123,"count":132,"type":"SCALAR"},"accessor_58":{"bufferView":"bufferView_103","byteOffset":3096,"byteStride":12,"componentType":5126,"count":90,"max":[76.1237,10,107.086],"min":[38.5089,0,53.4661],"type":"VEC3"},"accessor_60":{"bufferView":"bufferView_103","byteOffset":4176,"byteStride":12,"componentType":5126,"count":90,"max":[0.975858,1,0.975645],"min":[-0.975387,-1,-0.97545],"type":"VEC3"},"accessor_76":{"bufferView":"bufferView_102","byteOffset":600,"byteStride":0,"componentType":5123,"count":132,"type":"SCALAR"},"accessor_78":{"bufferView":"bufferView_103","byteOffset":5256,"byteStride":12,"componentType":5126,"count":100,"max":[-5.49575,49,1.97163],"min":[-51.9382,0,-52.1435],"type":"VEC3"},"accessor_80":{"bufferView":"bufferView_103","byteOffset":6456,"byteStride":12,"componentType":5126,"count":100,"max":[0.966956,1,0.966345],"min":[-0.966865,-1,-0.966579],"type":"VEC3"},"accessor_96":{"bufferView":"bufferView_102","byteOffset":864,"byteStride":0,"componentType":5123,"count":84,"type":"SCALAR"},"accessor_98":{"bufferView":"bufferView_103","byteOffset":7656,"byteStride":12,"componentType":5126,"count":64,"max":[-15.7149,14,37.731],"min":[-62.0572,0,16.5572],"type":"VEC3"},"accessor_b0":{"bufferView":"bufferView_b","byteOffset":0,"byteStride":0,"componentType":5123,"count":45,"type":"SCALAR"},"accessor_b1":{"bufferView":"bufferView_b","byteOffset":90,"byteStride":0,"componentType":5123,"count":84,"type":"SCALAR"},"accessor_b2":{"bufferView":"bufferView_b","byteOffset":258,"byteStride":0,"componentType":5123,"count":90,"type":"SCALAR"},"accessor_b3":{"bufferView":"bufferView_b","byteOffset":438,"byteStride":0,"componentType":5123,"count":100,"type":"SCALAR"},"accessor_b4":{"bufferView":"bufferView_b","byteOffset":638,"byteStride":0,"componentType":5123,"count":64,"type":"SCALAR"}},"animations":{},"asset":{"generator":"collada2gltf@cf6371beb0bdc18ba603378d5e40c966da53d385","premultipliedAlpha":true,"profile":{"api":"WebGL","version":"1.0.2"},"version":"1.0"},"bufferViews":{"bufferView_102":{"buffer":"\\data\\3dcity\\miami\\workspace\\gridID_48\\gridID_48","byteLength":1032,"byteOffset":0,"target":34963},"bufferView_103":{"buffer":"\\data\\3dcity\\miami\\workspace\\gridID_48\\gridID_48","byteLength":9192,"byteOffset":1032,"target":34962},"bufferView_b":{"buffer":"buffer_b","byteLength":766,"byteOffset":0,"target":34962}},"buffers":{"\\data\\3dcity\\miami\\workspace\\gridID_48\\gridID_48":{"byteLength":10224,"type":"arraybuffer","uri":"data:application/octet-stream;base64,"},"buffer_b":{"type":"arraybuffer","byteLength":766,"uri":"data:application/octet-stream;base64,"}},"materials":{"CityEngineMaterial_498-effect":{"name":"CityEngineMaterial_498","technique":"technique0","values":{"ambient":[1,1,1,1],"diffuse":[1,1,1,1],"emission":[0,0,0,1],"shininess":50,"specular":[0.5,0.5,0.5,1]}},"CityEngineMaterial_499-effect":{"name":"CityEngineMaterial_499","technique":"technique0","values":{"ambient":[1,1,1,1],"diffuse":[1,1,1,1],"emission":[0,0,0,1],"shininess":50,"specular":[0.5,0.5,0.5,1]}},"CityEngineMaterial_500-effect":{"name":"CityEngineMaterial_500","technique":"technique0","values":{"ambient":[1,1,1,1],"diffuse":[1,1,1,1],"emission":[0,0,0,1],"shininess":50,"specular":[0.5,0.5,0.5,1]}},"CityEngineMaterial_501-effect":{"name":"CityEngineMaterial_501","technique":"technique0","values":{"ambient":[1,1,1,1],"diffuse":[1,1,1,1],"emission":[0,0,0,1],"shininess":50,"specular":[0.5,0.5,0.5,1]}},"CityEngineMaterial_502-effect":{"name":"CityEngineMaterial_502","technique":"technique0","values":{"ambient":[1,1,1,1],"diffuse":[1,1,1,1],"emission":[0,0,0,1],"shininess":50,"specular":[0.5,0.5,0.5,1]}}},"meshes":{"mesh_CityEngineMaterial_496-mesh":{"name":"mesh_CityEngineMaterial.496","primitives":[{"attributes":{"NORMAL":"accessor_20","POSITION":"accessor_18","BATCHID":"accessor_b0"},"indices":"accessor_16","material":"CityEngineMaterial_498-effect","mode":4}]},"mesh_CityEngineMaterial_497-mesh":{"name":"mesh_CityEngineMaterial.497","primitives":[{"attributes":{"NORMAL":"accessor_40","POSITION":"accessor_38","BATCHID":"accessor_b1"},"indices":"accessor_36","material":"CityEngineMaterial_499-effect","mode":4}]},"mesh_CityEngineMaterial_498-mesh":{"name":"mesh_CityEngineMaterial.498","primitives":[{"attributes":{"NORMAL":"accessor_60","POSITION":"accessor_58","BATCHID":"accessor_b2"},"indices":"accessor_56","material":"CityEngineMaterial_500-effect","mode":4}]},"mesh_CityEngineMaterial_499-mesh":{"name":"mesh_CityEngineMaterial.499","primitives":[{"attributes":{"NORMAL":"accessor_80","POSITION":"accessor_78","BATCHID":"accessor_b3"},"indices":"accessor_76","material":"CityEngineMaterial_501-effect","mode":4}]},"mesh_CityEngineMaterial_500-mesh":{"name":"mesh_CityEngineMaterial.500","primitives":[{"attributes":{"NORMAL":"accessor_100","POSITION":"accessor_98","BATCHID":"accessor_b4"},"indices":"accessor_96","material":"CityEngineMaterial_502-effect","mode":4}]}},"nodes":{"CityEngineMaterial":{"children":[],"matrix":[1,0,0,0,0,-1.62921e-7,1,0,0,-1,-1.62921e-7,0,0,0,0,1],"meshes":["mesh_CityEngineMaterial_496-mesh"],"name":"CityEngineMaterial"},"CityEngineMaterial_001":{"children":[],"matrix":[1,0,0,0,0,-1.62921e-7,1,0,0,-1,-1.62921e-7,0,0,0,0,1],"meshes":["mesh_CityEngineMaterial_497-mesh"],"name":"CityEngineMaterial_001"},"CityEngineMaterial_002":{"children":[],"matrix":[1,0,0,0,0,-1.62921e-7,1,0,0,-1,-1.62921e-7,0,0,0,0,1],"meshes":["mesh_CityEngineMaterial_498-mesh"],"name":"CityEngineMaterial_002"},"CityEngineMaterial_003":{"children":[],"matrix":[1,0,0,0,0,-1.62921e-7,1,0,0,-1,-1.62921e-7,0,0,0,0,1],"meshes":["mesh_CityEngineMaterial_499-mesh"],"name":"CityEngineMaterial_003"},"CityEngineMaterial_004":{"children":[],"matrix":[1,0,0,0,0,-1.62921e-7,1,0,0,-1,-1.62921e-7,0,0,0,0,1],"meshes":["mesh_CityEngineMaterial_500-mesh"],"name":"CityEngineMaterial_004"},"node_5":{"children":["CityEngineMaterial","CityEngineMaterial_001","CityEngineMaterial_002","CityEngineMaterial_003","CityEngineMaterial_004"],"matrix":[1,0,0,0,0,0,-1,0,0,1,0,0,0,0,0,1],"name":"Y_UP_Transform"}},"programs":{"program_0":{"attributes":["a_normal","a_position","a_batchId"],"fragmentShader":"\\data\\3dcity\\miami\\workspace\\gridID_48\\gridID_480FS","vertexShader":"\\data\\3dcity\\miami\\workspace\\gridID_48\\gridID_480VS"}},"scene":"defaultScene","scenes":{"defaultScene":{"nodes":["node_5"]}},"shaders":{"\\data\\3dcity\\miami\\workspace\\gridID_48\\gridID_480FS":{"type":35632,"uri":"data:text/plain;base64,"},"\\data\\3dcity\\miami\\workspace\\gridID_48\\gridID_480VS":{"type":35633,"uri":"data:text/plain;base64,"}},"skins":{},"techniques":{"technique0":{"attributes":{"a_normal":"normal","a_position":"position","a_batchId":"batchId"},"parameters":{"ambient":{"type":35666},"diffuse":{"type":35666},"emission":{"type":35666},"modelViewMatrix":{"semantic":"MODELVIEW","type":35676},"normal":{"semantic":"NORMAL","type":35665},"normalMatrix":{"semantic":"MODELVIEWINVERSETRANSPOSE","type":35675},"position":{"semantic":"POSITION","type":35665},"projectionMatrix":{"semantic":"PROJECTION","type":35676},"shininess":{"type":5126},"specular":{"type":35666},"batchId":{"semantic":"BATCHID","type":5126}},"program":"program_0","states":{"enable":[2929,2884]},"uniforms":{"u_ambient":"ambient","u_diffuse":"diffuse","u_emission":"emission","u_modelViewMatrix":"modelViewMatrix","u_normalMatrix":"normalMatrix","u_projectionMatrix":"projectionMatrix","u_shininess":"shininess","u_specular":"specular"}}}}