{"accessors":{"accessor_132":{"bufferView":"bufferView_147","byteOffset":0,"byteStride":0,"componentType":5123,"count":93,"type":"SCALAR"},"accessor_135":{"bufferView":"bufferView_147","byteOffset":186,"byteStride":0,"componentType":5123,"count":606,"type":"SCALAR"},"accessor_138":{"bufferView":"bufferView_147","byteOffset":1398,"byteStride":0,"componentType":5123,"count":150,"type":"SCALAR"},"accessor_141":{"bufferView":"bufferView_147","byteOffset":1698,"byteStride":0,"componentType":5123,"count":42,"type":"SCALAR"},"accessor_143":{"bufferView":"bufferView_148","byteOffset":0,"byteStride":12,"componentType":5126,"count":771,"max":[10.4848,5.16045,9.90086],"min":[-26.3062,-2.83955,-18.3312],"type":"VEC3"},"accessor_145":{"bufferView":"bufferView_148","byteOffset":9252,"byteStride":12,"componentType":5126,"count":771,"max":[0.947946,1,0.957471],"min":[-0.947946,-1,-0.946703],"type":"VEC3"},"accessor_64":{"bufferView":"bufferView_147","byteOffset":1782,"byteStride":0,"componentType":5123,"count":438,"type":"SCALAR"},"accessor_67":{"bufferView":"bufferView_147","byteOffset":2658,"byteStride":0,"componentType":5123,"count":216,"type":"SCALAR"},"accessor_70":{"bufferView":"bufferView_147","byteOffset":3090,"byteStride":0,"componentType":5123,"count":762,"type":"SCALAR"},"accessor_73":{"bufferView":"bufferView_147","byteOffset":4614,"byteStride":0,"componentType":5123,"count":192,"type":"SCALAR"},"accessor_76":{"bufferView":"bufferView_147","byteOffset":4998,"byteStride":0,"componentType":5123,"count":102,"type":"SCALAR"},"accessor_78":{"bufferView":"bufferView_148","byteOffset":18504,"byteStride":12,"componentType":5126,"count":1473,"max":[6.16183,7.57362,24.5128],"min":[-46.4402,-3.22638,-8.44916],"type":"VEC3"},"accessor_80":{"bufferView":"bufferView_148","byteOffset":36180,"byteStride":12,"componentType":5126,"count":1473,"max":[0.995975,1,0.993362],"min":[-0.996054,-1,-0.994556],"type":"VEC3"},"accessor_b0":{"bufferView":"bufferView_b","byteOffset":0,"byteStride":0,"componentType":5123,"count":771,"type":"SCALAR"},"accessor_b1":{"bufferView":"bufferView_b","byteOffset":1542,"byteStride":0,"componentType":5123,"count":1473,"type":"SCALAR"}},"animations":{},"asset":{"generator":"collada2gltf@cf6371beb0bdc18ba603378d5e40c966da53d385","premultipliedAlpha":true,"profile":{"api":"WebGL","version":"1.0.2"},"version":"1.0"},"bufferViews":{"bufferView_147":{"buffer":"\\data\\ECNU\\workspace\\gridID_73\\gridID_73","byteLength":5204,"byteOffset":0,"target":34963},"bufferView_148":{"buffer":"\\data\\ECNU\\workspace\\gridID_73\\gridID_73","byteLength":53856,"byteOffset":5204,"target":34962},"bufferView_b":{"buffer":"buffer_b","byteLength":4488,"byteOffset":0,"target":34962}},"buffers":{"\\data\\ECNU\\workspace\\gridID_73\\gridID_73":{"byteLength":59060,"type":"arraybuffer","uri":"data:application/octet-stream;base64,"},"buffer_b":{"type":"arraybuffer","byteLength":4488,"uri":"data:application/octet-stream;base64,"}},"materials":{"BUILDING_DEFAULT_0-effect":{"name":"BUILDING_DEFAULT_0","technique":"technique0","values":{"ambient":[0,0,0,1],"diffuse":[0.723055,0.708376,0.672443,1],"emission":[0,0,0,1],"shininess":50,"specular":[0.5,0.5,0.5,1]}},"CONCRETE_0-effect":{"name":"CONCRETE_0","technique":"technique0","values":{"ambient":[0,0,0,1],"diffuse":[0.309469,0.327778,0.309469,1],"emission":[0,0,0,1],"shininess":50,"specular":[0.5,0.5,0.5,1]}},"GLASS_0-effect":{"name":"GLASS_0","technique":"technique0","values":{"ambient":[0,0,0,1],"diffuse":[0.491021,0.665387,0.658375,1],"emission":[0,0,0,1],"shininess":50,"specular":[0.5,0.5,0.5,1]}},"MAT_5_0-effect":{"name":"MAT_5_0","technique":"technique0","values":{"ambient":[0,0,0,1],"diffuse":[0.470588,0.470588,0.470588,1],"emission":[0,0,0,1],"shininess":50,"specular":[0.5,0.5,0.5,1]}},"ROOF_DEFAULT_0-effect":{"name":"ROOF_DEFAULT_0","technique":"technique0","values":{"ambient":[0,0,0,1],"diffuse":[0.603827,0.381326,0.291771,1],"emission":[0,0,0,1],"shininess":50,"specular":[0.5,0.5,0.5,1]}}},"meshes":{"Building3473-mesh":{"name":"Building3473","primitives":[{"attributes":{"NORMAL":"accessor_145","POSITION":"accessor_143","BATCHID":"accessor_b0"},"indices":"accessor_132","material":"MAT_5_0-effect","mode":4},{"attributes":{"NORMAL":"accessor_145","POSITION":"accessor_143","BATCHID":"accessor_b0"},"indices":"accessor_135","material":"BUILDING_DEFAULT_0-effect","mode":4},{"attributes":{"NORMAL":"accessor_145","POSITION":"accessor_143","BATCHID":"accessor_b0"},"indices":"accessor_138","material":"ROOF_DEFAULT_0-effect","mode":4},{"attributes":{"NORMAL":"accessor_145","POSITION":"accessor_143","BATCHID":"accessor_b0"},"indices":"accessor_141","material":"CONCRETE_0-effect","mode":4}]},"Building_-mesh":{"name":"Building ","primitives":[{"attributes":{"NORMAL":"accessor_80","POSITION":"accessor_78","BATCHID":"accessor_b1"},"indices":"accessor_64","material":"MAT_5_0-effect","mode":4},{"attributes":{"NORMAL":"accessor_80","POSITION":"accessor_78","BATCHID":"accessor_b1"},"indices":"accessor_67","material":"GLASS_0-effect","mode":4},{"attributes":{"NORMAL":"accessor_80","POSITION":"accessor_78","BATCHID":"accessor_b1"},"indices":"accessor_70","material":"BUILDING_DEFAULT_0-effect","mode":4},{"attributes":{"NORMAL":"accessor_80","POSITION":"accessor_78","BATCHID":"accessor_b1"},"indices":"accessor_73","material":"ROOF_DEFAULT_0-effect","mode":4},{"attributes":{"NORMAL":"accessor_80","POSITION":"accessor_78","BATCHID":"accessor_b1"},"indices":"accessor_76","material":"CONCRETE_0-effect","mode":4}]}},"nodes":{"model_gridID_73_w375944085":{"children":[],"matrix":[1,0,0,0,0,-1.62921e-7,1,0,0,-1,-1.62921e-7,0,42.0422,201.568,3.22641,1],"meshes":["Building_-mesh"],"name":"model_gridID_73_w375944085"},"model_gridID_73_w375944085_001":{"children":[],"matrix":[1,0,0,0,0,-1.62921e-7,1,0,0,-1,-1.62921e-7,0,28.7622,213.428,2.83959,1],"meshes":["Building3473-mesh"],"name":"model_gridID_73_w375944085_001"},"node_2":{"children":["model_gridID_73_w375944085","model_gridID_73_w375944085_001"],"matrix":[1,0,0,0,0,0,-1,0,0,1,0,0,0,0,0,1],"name":"Y_UP_Transform"}},"programs":{"program_0":{"attributes":["a_normal","a_position","a_batchId"],"fragmentShader":"\\data\\ECNU\\workspace\\gridID_73\\gridID_730FS","vertexShader":"\\data\\ECNU\\workspace\\gridID_73\\gridID_730VS"}},"scene":"defaultScene","scenes":{"defaultScene":{"nodes":["node_2"]}},"shaders":{"\\data\\ECNU\\workspace\\gridID_73\\gridID_730FS":{"type":35632,"uri":"data:text/plain;base64,"},"\\data\\ECNU\\workspace\\gridID_73\\gridID_730VS":{"type":35633,"uri":"data:text/plain;base64,"}},"skins":{},"techniques":{"technique0":{"attributes":{"a_normal":"normal","a_position":"position","a_batchId":"batchId"},"parameters":{"ambient":{"type":35666},"diffuse":{"type":35666},"emission":{"type":35666},"modelViewMatrix":{"semantic":"MODELVIEW","type":35676},"normal":{"semantic":"NORMAL","type":35665},"normalMatrix":{"semantic":"MODELVIEWINVERSETRANSPOSE","type":35675},"position":{"semantic":"POSITION","type":35665},"projectionMatrix":{"semantic":"PROJECTION","type":35676},"shininess":{"type":5126},"specular":{"type":35666},"batchId":{"semantic":"BATCHID","type":5126}},"program":"program_0","states":{"enable":[2929,2884]},"uniforms":{"u_ambient":"ambient","u_diffuse":"diffuse","u_emission":"emission","u_modelViewMatrix":"modelViewMatrix","u_normalMatrix":"normalMatrix","u_projectionMatrix":"projectionMatrix","u_shininess":"shininess","u_specular":"specular"}}}}