{
    "accessors": {
        "accessor_100": {
            "bufferView": "bufferView_208",
            "byteOffset": 1896,
            "byteStride": 12,
            "componentType": 5126,
            "count": 92,
            "max": [
                0.988071,
                0.978093,
                1
            ],
            "min": [
                -0.988074,
                0,
                -0.988176
            ],
            "type": "VEC3"
        },
        "accessor_128": {
            "bufferView": "bufferView_207",
            "byteOffset": 390,
            "byteStride": 0,
            "componentType": 5123,
            "count": 30,
            "type": "SCALAR"
        },
        "accessor_131": {
            "bufferView": "bufferView_207",
            "byteOffset": 450,
            "byteStride": 0,
            "componentType": 5123,
            "count": 9,
            "type": "SCALAR"
        },
        "accessor_133": {
            "bufferView": "bufferView_208",
            "byteOffset": 4056,
            "byteStride": 12,
            "componentType": 5126,
            "count": 35,
            "max": [
                4.05141,
                1.25,
                3.15064
            ],
            "min": [
                -2.7356,
                -1.25,
                -3.88538
            ],
            "type": "VEC3"
        },
        "accessor_135": {
            "bufferView": "bufferView_208",
            "byteOffset": 4476,
            "byteStride": 12,
            "componentType": 5126,
            "count": 35,
            "max": [
                0.985627,
                1,
                0.985465
            ],
            "min": [
                -0.986196,
                0,
                -0.985827
            ],
            "type": "VEC3"
        },
        "accessor_163": {
            "bufferView": "bufferView_207",
            "byteOffset": 294,
            "byteStride": 0,
            "componentType": 5123,
            "count": 36,
            "type": "SCALAR"
        },
        "accessor_166": {
            "bufferView": "bufferView_207",
            "byteOffset": 366,
            "byteStride": 0,
            "componentType": 5123,
            "count": 12,
            "type": "SCALAR"
        },
        "accessor_168": {
            "bufferView": "bufferView_208",
            "byteOffset": 3000,
            "byteStride": 12,
            "componentType": 5126,
            "count": 44,
            "max": [
                16.3135,
                7.5,
                14.6583
            ],
            "min": [
                -31.2905,
                -7.5,
                -13.9197
            ],
            "type": "VEC3"
        },
        "accessor_170": {
            "bufferView": "bufferView_208",
            "byteOffset": 3528,
            "byteStride": 12,
            "componentType": 5126,
            "count": 44,
            "max": [
                0.986693,
                1,
                0.986648
            ],
            "min": [
                -0.986678,
                0,
                -0.986667
            ],
            "type": "VEC3"
        },
        "accessor_198": {
            "bufferView": "bufferView_207",
            "byteOffset": 0,
            "byteStride": 0,
            "componentType": 5123,
            "count": 30,
            "type": "SCALAR"
        },
        "accessor_201": {
            "bufferView": "bufferView_207",
            "byteOffset": 60,
            "byteStride": 0,
            "componentType": 5123,
            "count": 9,
            "type": "SCALAR"
        },
        "accessor_203": {
            "bufferView": "bufferView_208",
            "byteOffset": 0,
            "byteStride": 12,
            "componentType": 5126,
            "count": 33,
            "max": [
                5.98178,
                2,
                2.96814
            ],
            "min": [
                -4.13721,
                -2,
                -2.25287
            ],
            "type": "VEC3"
        },
        "accessor_205": {
            "bufferView": "bufferView_208",
            "byteOffset": 396,
            "byteStride": 12,
            "componentType": 5126,
            "count": 33,
            "max": [
                0.987649,
                1,
                0.987963
            ],
            "min": [
                -0.988542,
                0,
                -0.987827
            ],
            "type": "VEC3"
        },
        "accessor_52": {
            "bufferView": "bufferView_207",
            "byteOffset": 468,
            "byteStride": 0,
            "componentType": 5123,
            "count": 48,
            "type": "SCALAR"
        },
        "accessor_55": {
            "bufferView": "bufferView_207",
            "byteOffset": 564,
            "byteStride": 0,
            "componentType": 5123,
            "count": 432,
            "type": "SCALAR"
        },
        "accessor_58": {
            "bufferView": "bufferView_207",
            "byteOffset": 1428,
            "byteStride": 0,
            "componentType": 5123,
            "count": 57,
            "type": "SCALAR"
        },
        "accessor_61": {
            "bufferView": "bufferView_207",
            "byteOffset": 1542,
            "byteStride": 0,
            "componentType": 5123,
            "count": 117,
            "type": "SCALAR"
        },
        "accessor_63": {
            "bufferView": "bufferView_208",
            "byteOffset": 4896,
            "byteStride": 12,
            "componentType": 5126,
            "count": 525,
            "max": [
                20.7565,
                10.7594,
                28.0304
            ],
            "min": [
                -17.7665,
                -4.24062,
                -23.1566
            ],
            "type": "VEC3"
        },
        "accessor_65": {
            "bufferView": "bufferView_208",
            "byteOffset": 11196,
            "byteStride": 12,
            "componentType": 5126,
            "count": 525,
            "max": [
                0.998366,
                1,
                0.988245
            ],
            "min": [
                -0.99975,
                -1,
                -0.9871
            ],
            "type": "VEC3"
        },
        "accessor_93": {
            "bufferView": "bufferView_207",
            "byteOffset": 78,
            "byteStride": 0,
            "componentType": 5123,
            "count": 90,
            "type": "SCALAR"
        },
        "accessor_96": {
            "bufferView": "bufferView_207",
            "byteOffset": 258,
            "byteStride": 0,
            "componentType": 5123,
            "count": 18,
            "type": "SCALAR"
        },
        "accessor_98": {
            "bufferView": "bufferView_208",
            "byteOffset": 792,
            "byteStride": 12,
            "componentType": 5126,
            "count": 92,
            "max": [
                17.4842,
                1.78254,
                8.69952
            ],
            "min": [
                -19.9068,
                -1.71746,
                -6.18445
            ],
            "type": "VEC3"
        }
    },
    "animations": {},
    "asset": {
        "generator": "collada2gltf@cf6371beb0bdc18ba603378d5e40c966da53d385",
        "premultipliedAlpha": true,
        "profile": {
            "api": "WebGL",
            "version": "1.0.2"
        },
        "version": "1.0"
    },
    "bufferViews": {
        "bufferView_207": {
            "buffer": "\\data\\ECNU\\workspace\\gridID_104\\gridID_104",
            "byteLength": 1776,
            "byteOffset": 0,
            "target": 34963
        },
        "bufferView_208": {
            "buffer": "\\data\\ECNU\\workspace\\gridID_104\\gridID_104",
            "byteLength": 17496,
            "byteOffset": 1776,
            "target": 34962
        }
    },
    "buffers": {
        "\\data\\ECNU\\workspace\\gridID_104\\gridID_104": {
            "byteLength": 19272,
            "type": "arraybuffer",
            "uri": "data:application/octet-stream;base64,"
        }
    },
    "materials": {
        "BUILDING_DEFAULT_0-effect": {
            "name": "BUILDING_DEFAULT_0",
            "technique": "technique0",
            "values": {
                "ambient": [
                    0,
                    0,
                    0,
                    1
                ],
                "diffuse": [
                    0.723055,
                    0.708376,
                    0.672443,
                    1
                ],
                "emission": [
                    0,
                    0,
                    0,
                    1
                ],
                "shininess": 50,
                "specular": [
                    0.5,
                    0.5,
                    0.5,
                    1
                ]
            }
        },
        "CONCRETE_0-effect": {
            "name": "CONCRETE_0",
            "technique": "technique0",
            "values": {
                "ambient": [
                    0,
                    0,
                    0,
                    1
                ],
                "diffuse": [
                    0.309469,
                    0.327778,
                    0.309469,
                    1
                ],
                "emission": [
                    0,
                    0,
                    0,
                    1
                ],
                "shininess": 50,
                "specular": [
                    0.5,
                    0.5,
                    0.5,
                    1
                ]
            }
        },
        "MAT_5_0-effect": {
            "name": "MAT_5_0",
            "technique": "technique0",
            "values": {
                "ambient": [
                    0,
                    0,
                    0,
                    1
                ],
                "diffuse": [
                    0.470588,
                    0.470588,
                    0.470588,
                    1
                ],
                "emission": [
                    0,
                    0,
                    0,
                    1
                ],
                "shininess": 50,
                "specular": [
                    0.5,
                    0.5,
                    0.5,
                    1
                ]
            }
        },
        "ROOF_DEFAULT_0-effect": {
            "name": "ROOF_DEFAULT_0",
            "technique": "technique0",
            "values": {
                "ambient": [
                    0,
                    0,
                    0,
                    1
                ],
                "diffuse": [
                    0.603827,
                    0.381326,
                    0.291771,
                    1
                ],
                "emission": [
                    0,
                    0,
                    0,
                    1
                ],
                "shininess": 50,
                "specular": [
                    0.5,
                    0.5,
                    0.5,
                    1
                ]
            }
        }
    },
    "meshes": {
        "Building3487-mesh": {
            "name": "Building3487",
            "primitives": [
                {
                    "attributes": {
                        "NORMAL": "accessor_205",
                        "POSITION": "accessor_203"
                    },
                    "indices": "accessor_198",
                    "material": "BUILDING_DEFAULT_0-effect",
                    "mode": 4
                },
                {
                    "attributes": {
                        "NORMAL": "accessor_205",
                        "POSITION": "accessor_203"
                    },
                    "indices": "accessor_201",
                    "material": "CONCRETE_0-effect",
                    "mode": 4
                }
            ]
        },
        "Building3975-mesh": {
            "name": "Building3975",
            "primitives": [
                {
                    "attributes": {
                        "NORMAL": "accessor_100",
                        "POSITION": "accessor_98"
                    },
                    "indices": "accessor_93",
                    "material": "BUILDING_DEFAULT_0-effect",
                    "mode": 4
                },
                {
                    "attributes": {
                        "NORMAL": "accessor_100",
                        "POSITION": "accessor_98"
                    },
                    "indices": "accessor_96",
                    "material": "ROOF_DEFAULT_0-effect",
                    "mode": 4
                }
            ]
        },
        "Building3983-mesh": {
            "name": "Building3983",
            "primitives": [
                {
                    "attributes": {
                        "NORMAL": "accessor_170",
                        "POSITION": "accessor_168"
                    },
                    "indices": "accessor_163",
                    "material": "BUILDING_DEFAULT_0-effect",
                    "mode": 4
                },
                {
                    "attributes": {
                        "NORMAL": "accessor_170",
                        "POSITION": "accessor_168"
                    },
                    "indices": "accessor_166",
                    "material": "CONCRETE_0-effect",
                    "mode": 4
                }
            ]
        },
        "Building4133-mesh": {
            "name": "Building4133",
            "primitives": [
                {
                    "attributes": {
                        "NORMAL": "accessor_135",
                        "POSITION": "accessor_133"
                    },
                    "indices": "accessor_128",
                    "material": "BUILDING_DEFAULT_0-effect",
                    "mode": 4
                },
                {
                    "attributes": {
                        "NORMAL": "accessor_135",
                        "POSITION": "accessor_133"
                    },
                    "indices": "accessor_131",
                    "material": "CONCRETE_0-effect",
                    "mode": 4
                }
            ]
        },
        "Building4142-mesh": {
            "name": "Building4142",
            "primitives": [
                {
                    "attributes": {
                        "NORMAL": "accessor_65",
                        "POSITION": "accessor_63"
                    },
                    "indices": "accessor_52",
                    "material": "MAT_5_0-effect",
                    "mode": 4
                },
                {
                    "attributes": {
                        "NORMAL": "accessor_65",
                        "POSITION": "accessor_63"
                    },
                    "indices": "accessor_55",
                    "material": "BUILDING_DEFAULT_0-effect",
                    "mode": 4
                },
                {
                    "attributes": {
                        "NORMAL": "accessor_65",
                        "POSITION": "accessor_63"
                    },
                    "indices": "accessor_58",
                    "material": "ROOF_DEFAULT_0-effect",
                    "mode": 4
                },
                {
                    "attributes": {
                        "NORMAL": "accessor_65",
                        "POSITION": "accessor_63"
                    },
                    "indices": "accessor_61",
                    "material": "CONCRETE_0-effect",
                    "mode": 4
                }
            ]
        }
    },
    "nodes": {
        "model_gridID_104_w379964021": {
            "children": [],
            "matrix": [
                1,
                0,
                0,
                0,
                0,
                -1.62921e-007,
                1,
                0,
                0,
                -1,
                -1.62921e-007,
                0,
                -177.011,
                456.552,
                4.2407,
                1
            ],
            "meshes": [
                "Building4142-mesh"
            ],
            "name": "model_gridID_104_w379964021"
        },
        "model_gridID_104_w380829705": {
            "children": [],
            "matrix": [
                1,
                0,
                0,
                0,
                0,
                -1.62921e-007,
                1,
                0,
                0,
                -1,
                -1.62921e-007,
                0,
                -208.978,
                512.076,
                1.71754,
                1
            ],
            "meshes": [
                "Building3975-mesh"
            ],
            "name": "model_gridID_104_w380829705"
        },
        "model_gridID_104_w380971699": {
            "children": [],
            "matrix": [
                1,
                0,
                0,
                0,
                0,
                -1.62921e-007,
                1,
                0,
                0,
                -1,
                -1.62921e-007,
                0,
                -190.005,
                530.44,
                1.25009,
                1
            ],
            "meshes": [
                "Building4133-mesh"
            ],
            "name": "model_gridID_104_w380971699"
        },
        "model_gridID_104_w380977543": {
            "children": [],
            "matrix": [
                1,
                0,
                0,
                0,
                0,
                -1.62921e-007,
                1,
                0,
                0,
                -1,
                -1.62921e-007,
                0,
                -135.225,
                551.376,
                7.50009,
                1
            ],
            "meshes": [
                "Building3983-mesh"
            ],
            "name": "model_gridID_104_w380977543"
        },
        "model_gridID_104_w380977543_001": {
            "children": [],
            "matrix": [
                1,
                0,
                0,
                0,
                0,
                -1.62921e-007,
                1,
                0,
                0,
                -1,
                -1.62921e-007,
                0,
                -158.886,
                567.228,
                2.00009,
                1
            ],
            "meshes": [
                "Building3487-mesh"
            ],
            "name": "model_gridID_104_w380977543_001"
        },
        "node_5": {
            "children": [
                "model_gridID_104_w379964021",
                "model_gridID_104_w380829705",
                "model_gridID_104_w380971699",
                "model_gridID_104_w380977543",
                "model_gridID_104_w380977543_001"
            ],
            "matrix": [
                1,
                0,
                0,
                0,
                0,
                0,
                -1,
                0,
                0,
                1,
                0,
                0,
                0,
                0,
                0,
                1
            ],
            "name": "Y_UP_Transform"
        }
    },
    "programs": {
        "program_0": {
            "attributes": [
                "a_normal",
                "a_position"
            ],
            "fragmentShader": "\\data\\ECNU\\workspace\\gridID_104\\gridID_1040FS",
            "vertexShader": "\\data\\ECNU\\workspace\\gridID_104\\gridID_1040VS"
        }
    },
    "scene": "defaultScene",
    "scenes": {
        "defaultScene": {
            "nodes": [
                "node_5"
            ]
        }
    },
    "shaders": {
        "\\data\\ECNU\\workspace\\gridID_104\\gridID_1040FS": {
            "type": 35632,
            "uri": "data:text/plain;base64,"
        },
        "\\data\\ECNU\\workspace\\gridID_104\\gridID_1040VS": {
            "type": 35633,
            "uri": "data:text/plain;base64,"
        }
    },
    "skins": {},
    "techniques": {
        "technique0": {
            "attributes": {
                "a_normal": "normal",
                "a_position": "position"
            },
            "parameters": {
                "ambient": {
                    "type": 35666
                },
                "diffuse": {
                    "type": 35666
                },
                "emission": {
                    "type": 35666
                },
                "modelViewMatrix": {
                    "semantic": "MODELVIEW",
                    "type": 35676
                },
                "normal": {
                    "semantic": "NORMAL",
                    "type": 35665
                },
                "normalMatrix": {
                    "semantic": "MODELVIEWINVERSETRANSPOSE",
                    "type": 35675
                },
                "position": {
                    "semantic": "POSITION",
                    "type": 35665
                },
                "projectionMatrix": {
                    "semantic": "PROJECTION",
                    "type": 35676
                },
                "shininess": {
                    "type": 5126
                },
                "specular": {
                    "type": 35666
                }
            },
            "program": "program_0",
            "states": {
                "enable": [
                    2929,
                    2884
                ]
            },
            "uniforms": {
                "u_ambient": "ambient",
                "u_diffuse": "diffuse",
                "u_emission": "emission",
                "u_modelViewMatrix": "modelViewMatrix",
                "u_normalMatrix": "normalMatrix",
                "u_projectionMatrix": "projectionMatrix",
                "u_shininess": "shininess",
                "u_specular": "specular"
            }
        }
    }
}