{
    "accessors": {
        "accessor_16": {
            "bufferView": "bufferView_42",
            "byteOffset": 0,
            "byteStride": 0,
            "componentType": 5123,
            "count": 345,
            "type": "SCALAR"
        },
        "accessor_18": {
            "bufferView": "bufferView_43",
            "byteOffset": 0,
            "byteStride": 12,
            "componentType": 5126,
            "count": 304,
            "max": [
                -22.1121,
                28.7552,
                45.6774
            ],
            "min": [
                -83.5296,
                -21.85,
                0.559506
            ],
            "type": "VEC3"
        },
        "accessor_20": {
            "bufferView": "bufferView_43",
            "byteOffset": 3648,
            "byteStride": 12,
            "componentType": 5126,
            "count": 304,
            "max": [
                0.96915,
                0.9684,
                1
            ],
            "min": [
                -0.96904,
                -0.968537,
                -1
            ],
            "type": "VEC3"
        },
        "accessor_36": {
            "bufferView": "bufferView_42",
            "byteOffset": 690,
            "byteStride": 0,
            "componentType": 5123,
            "count": 870,
            "type": "SCALAR"
        },
        "accessor_38": {
            "bufferView": "bufferView_43",
            "byteOffset": 7296,
            "byteStride": 12,
            "componentType": 5126,
            "count": 777,
            "max": [
                -49.0426,
                16.1119,
                50.3031
            ],
            "min": [
                -78.6731,
                -6.54804,
                0.592373
            ],
            "type": "VEC3"
        },
        "accessor_40": {
            "bufferView": "bufferView_43",
            "byteOffset": 16620,
            "byteStride": 12,
            "componentType": 5126,
            "count": 777,
            "max": [
                0.98217,
                0.981778,
                1
            ],
            "min": [
                -0.982157,
                -0.981778,
                0
            ],
            "type": "VEC3"
        }
    },
    "animations": {},
    "asset": {
        "generator": "collada2gltf@cf6371beb0bdc18ba603378d5e40c966da53d385",
        "premultipliedAlpha": true,
        "profile": {
            "api": "WebGL",
            "version": "1.0.2"
        },
        "version": "1.0"
    },
    "bufferViews": {
        "bufferView_42": {
            "buffer": "\\data\\3dcity\\miami\\workspace\\gridID_14\\gridID_14_high",
            "byteLength": 2432,
            "byteOffset": 0,
            "target": 34963
        },
        "bufferView_43": {
            "buffer": "\\data\\3dcity\\miami\\workspace\\gridID_14\\gridID_14_high",
            "byteLength": 25944,
            "byteOffset": 2432,
            "target": 34962
        }
    },
    "buffers": {
        "\\data\\3dcity\\miami\\workspace\\gridID_14\\gridID_14_high": {
            "byteLength": 28376,
            "type": "arraybuffer",
            "uri": "data:application/octet-stream;base64,"
        }
    },
    "materials": {
        "__glTF__defaultMaterial0": {
            "name": "__glTF__defaultMaterial0",
            "technique": "technique0",
            "values": {
                "diffuse": [
                    1,
                    1,
                    1,
                    1
                ]
            }
        }
    },
    "meshes": {
        "multipatch_footprint_1482-mesh": {
            "name": "multipatch_footprint.1482",
            "primitives": [
                {
                    "attributes": {
                        "NORMAL": "accessor_20",
                        "POSITION": "accessor_18"
                    },
                    "indices": "accessor_16",
                    "material": "__glTF__defaultMaterial0",
                    "mode": 4
                }
            ]
        },
        "multipatch_footprint_1483-mesh": {
            "name": "multipatch_footprint.1483",
            "primitives": [
                {
                    "attributes": {
                        "NORMAL": "accessor_40",
                        "POSITION": "accessor_38"
                    },
                    "indices": "accessor_36",
                    "material": "__glTF__defaultMaterial0",
                    "mode": 4
                }
            ]
        }
    },
    "nodes": {
        "gridID_14_w301761783_join": {
            "children": [],
            "matrix": [
                1,
                0,
                0,
                0,
                0,
                1,
                0,
                0,
                0,
                0,
                1,
                0,
                0.000366211,
                0.000366211,
                0,
                1
            ],
            "meshes": [
                "multipatch_footprint_1483-mesh"
            ],
            "name": "gridID_14_w301761783_join"
        },
        "gridID_14_w301761784_join": {
            "children": [],
            "matrix": [
                1,
                0,
                0,
                0,
                0,
                1,
                0,
                0,
                0,
                0,
                1,
                0,
                0.000366211,
                0.000366211,
                0,
                1
            ],
            "meshes": [
                "multipatch_footprint_1482-mesh"
            ],
            "name": "gridID_14_w301761784_join"
        },
        "node_2": {
            "children": [
                "gridID_14_w301761784_join",
                "gridID_14_w301761783_join"
            ],
            "matrix": [
                1,
                0,
                0,
                0,
                0,
                0,
                -1,
                0,
                0,
                1,
                0,
                0,
                0,
                0,
                0,
                1
            ],
            "name": "Y_UP_Transform"
        }
    },
    "programs": {
        "program_0": {
            "attributes": [
                "a_normal",
                "a_position"
            ],
            "fragmentShader": "\\data\\3dcity\\miami\\workspace\\gridID_14\\gridID_14_high0FS",
            "vertexShader": "\\data\\3dcity\\miami\\workspace\\gridID_14\\gridID_14_high0VS"
        }
    },
    "scene": "defaultScene",
    "scenes": {
        "defaultScene": {
            "nodes": [
                "node_2"
            ]
        }
    },
    "shaders": {
        "\\data\\3dcity\\miami\\workspace\\gridID_14\\gridID_14_high0FS": {
            "type": 35632,
            "uri": "data:text/plain;base64,"
        },
        "\\data\\3dcity\\miami\\workspace\\gridID_14\\gridID_14_high0VS": {
            "type": 35633,
            "uri": "data:text/plain;base64,"
        }
    },
    "skins": {},
    "techniques": {
        "technique0": {
            "attributes": {
                "a_normal": "normal",
                "a_position": "position"
            },
            "parameters": {
                "diffuse": {
                    "type": 35666
                },
                "modelViewMatrix": {
                    "semantic": "MODELVIEW",
                    "type": 35676
                },
                "normal": {
                    "semantic": "NORMAL",
                    "type": 35665
                },
                "normalMatrix": {
                    "semantic": "MODELVIEWINVERSETRANSPOSE",
                    "type": 35675
                },
                "position": {
                    "semantic": "POSITION",
                    "type": 35665
                },
                "projectionMatrix": {
                    "semantic": "PROJECTION",
                    "type": 35676
                }
            },
            "program": "program_0",
            "states": {
                "enable": [
                    2929,
                    2884
                ]
            },
            "uniforms": {
                "u_diffuse": "diffuse",
                "u_modelViewMatrix": "modelViewMatrix",
                "u_normalMatrix": "normalMatrix",
                "u_projectionMatrix": "projectionMatrix"
            }
        }
    }
}