{
    "accessors": {
        "accessor_16": {
            "bufferView": "bufferView_82",
            "byteOffset": 0,
            "byteStride": 0,
            "componentType": 5123,
            "count": 48,
            "type": "SCALAR"
        },
        "accessor_18": {
            "bufferView": "bufferView_83",
            "byteOffset": 0,
            "byteStride": 12,
            "componentType": 5126,
            "count": 47,
            "max": [
                13.785,
                -3.08337,
                6.97201
            ],
            "min": [
                5.23722,
                -10.4613,
                5.32212
            ],
            "type": "VEC3"
        },
        "accessor_20": {
            "bufferView": "bufferView_83",
            "byteOffset": 564,
            "byteStride": 12,
            "componentType": 5126,
            "count": 47,
            "max": [
                0.974309,
                0.973543,
                1
            ],
            "min": [
                -0.974014,
                -0.973543,
                0
            ],
            "type": "VEC3"
        },
        "accessor_36": {
            "bufferView": "bufferView_82",
            "byteOffset": 96,
            "byteStride": 0,
            "componentType": 5123,
            "count": 2079,
            "type": "SCALAR"
        },
        "accessor_38": {
            "bufferView": "bufferView_83",
            "byteOffset": 1128,
            "byteStride": 12,
            "componentType": 5126,
            "count": 1885,
            "max": [
                -27.119,
                104.179,
                15.5256
            ],
            "min": [
                -79.3948,
                52.9835,
                0
            ],
            "type": "VEC3"
        },
        "accessor_40": {
            "bufferView": "bufferView_83",
            "byteOffset": 23748,
            "byteStride": 12,
            "componentType": 5126,
            "count": 1885,
            "max": [
                0.98661,
                0.99867,
                1
            ],
            "min": [
                -0.985005,
                -0.997186,
                -8.61118e-005
            ],
            "type": "VEC3"
        },
        "accessor_56": {
            "bufferView": "bufferView_82",
            "byteOffset": 4254,
            "byteStride": 0,
            "componentType": 5123,
            "count": 888,
            "type": "SCALAR"
        },
        "accessor_58": {
            "bufferView": "bufferView_83",
            "byteOffset": 46368,
            "byteStride": 12,
            "componentType": 5126,
            "count": 818,
            "max": [
                37.1203,
                88.814,
                12.5453
            ],
            "min": [
                -9.26511,
                50.4522,
                0
            ],
            "type": "VEC3"
        },
        "accessor_60": {
            "bufferView": "bufferView_83",
            "byteOffset": 56184,
            "byteStride": 12,
            "componentType": 5126,
            "count": 818,
            "max": [
                0.986891,
                0.986568,
                1
            ],
            "min": [
                -0.986893,
                -0.986568,
                0
            ],
            "type": "VEC3"
        },
        "accessor_76": {
            "bufferView": "bufferView_82",
            "byteOffset": 6030,
            "byteStride": 0,
            "componentType": 5123,
            "count": 4425,
            "type": "SCALAR"
        },
        "accessor_78": {
            "bufferView": "bufferView_83",
            "byteOffset": 66000,
            "byteStride": 12,
            "componentType": 5126,
            "count": 3937,
            "max": [
                18.5647,
                53.4007,
                147.848
            ],
            "min": [
                -111.977,
                -163.484,
                0
            ],
            "type": "VEC3"
        },
        "accessor_80": {
            "bufferView": "bufferView_83",
            "byteOffset": 113244,
            "byteStride": 12,
            "componentType": 5126,
            "count": 3937,
            "max": [
                0.995903,
                0.997953,
                1
            ],
            "min": [
                -0.997041,
                -0.99969,
                -1
            ],
            "type": "VEC3"
        }
    },
    "animations": {},
    "asset": {
        "generator": "collada2gltf@cf6371beb0bdc18ba603378d5e40c966da53d385",
        "premultipliedAlpha": true,
        "profile": {
            "api": "WebGL",
            "version": "1.0.2"
        },
        "version": "1.0"
    },
    "bufferViews": {
        "bufferView_82": {
            "buffer": "\\data\\3dcity\\miami\\workspace\\gridID_20\\gridID_20_high",
            "byteLength": 14880,
            "byteOffset": 0,
            "target": 34963
        },
        "bufferView_83": {
            "buffer": "\\data\\3dcity\\miami\\workspace\\gridID_20\\gridID_20_high",
            "byteLength": 160488,
            "byteOffset": 14880,
            "target": 34962
        }
    },
    "buffers": {
        "\\data\\3dcity\\miami\\workspace\\gridID_20\\gridID_20_high": {
            "byteLength": 175368,
            "type": "arraybuffer",
            "uri": "data:application/octet-stream;base64,"
        }
    },
    "materials": {
        "__glTF__defaultMaterial0": {
            "name": "__glTF__defaultMaterial0",
            "technique": "technique0",
            "values": {
                "diffuse": [
                    1,
                    1,
                    1,
                    1
                ]
            }
        }
    },
    "meshes": {
        "multipatch_footprint_1210-mesh": {
            "name": "multipatch_footprint.1210",
            "primitives": [
                {
                    "attributes": {
                        "NORMAL": "accessor_20",
                        "POSITION": "accessor_18"
                    },
                    "indices": "accessor_16",
                    "material": "__glTF__defaultMaterial0",
                    "mode": 4
                }
            ]
        },
        "multipatch_footprint_1252-mesh": {
            "name": "multipatch_footprint.1252",
            "primitives": [
                {
                    "attributes": {
                        "NORMAL": "accessor_40",
                        "POSITION": "accessor_38"
                    },
                    "indices": "accessor_36",
                    "material": "__glTF__defaultMaterial0",
                    "mode": 4
                }
            ]
        },
        "multipatch_footprint_1280-mesh": {
            "name": "multipatch_footprint.1280",
            "primitives": [
                {
                    "attributes": {
                        "NORMAL": "accessor_60",
                        "POSITION": "accessor_58"
                    },
                    "indices": "accessor_56",
                    "material": "__glTF__defaultMaterial0",
                    "mode": 4
                }
            ]
        },
        "multipatch_footprint_1281-mesh": {
            "name": "multipatch_footprint.1281",
            "primitives": [
                {
                    "attributes": {
                        "NORMAL": "accessor_80",
                        "POSITION": "accessor_78"
                    },
                    "indices": "accessor_76",
                    "material": "__glTF__defaultMaterial0",
                    "mode": 4
                }
            ]
        }
    },
    "nodes": {
        "gridID_20_w255188135_join": {
            "children": [],
            "matrix": [
                1,
                0,
                0,
                0,
                0,
                1,
                0,
                0,
                0,
                0,
                1,
                0,
                0.00038147,
                0.000335693,
                0,
                1
            ],
            "meshes": [
                "multipatch_footprint_1210-mesh"
            ],
            "name": "gridID_20_w255188135_join"
        },
        "gridID_20_w301823928_join": {
            "children": [],
            "matrix": [
                1,
                0,
                0,
                0,
                0,
                1,
                0,
                0,
                0,
                0,
                1,
                0,
                0.00038147,
                0.000335693,
                0,
                1
            ],
            "meshes": [
                "multipatch_footprint_1281-mesh"
            ],
            "name": "gridID_20_w301823928_join"
        },
        "gridID_20_w435234020_join": {
            "children": [],
            "matrix": [
                1,
                0,
                0,
                0,
                0,
                1,
                0,
                0,
                0,
                0,
                1,
                0,
                0.00038147,
                0.000335693,
                0,
                1
            ],
            "meshes": [
                "multipatch_footprint_1252-mesh"
            ],
            "name": "gridID_20_w435234020_join"
        },
        "gridID_20_w435238716_join": {
            "children": [],
            "matrix": [
                1,
                0,
                0,
                0,
                0,
                1,
                0,
                0,
                0,
                0,
                1,
                0,
                0.00038147,
                0.000335693,
                0,
                1
            ],
            "meshes": [
                "multipatch_footprint_1280-mesh"
            ],
            "name": "gridID_20_w435238716_join"
        },
        "node_4": {
            "children": [
                "gridID_20_w255188135_join",
                "gridID_20_w435234020_join",
                "gridID_20_w435238716_join",
                "gridID_20_w301823928_join"
            ],
            "matrix": [
                1,
                0,
                0,
                0,
                0,
                0,
                -1,
                0,
                0,
                1,
                0,
                0,
                0,
                0,
                0,
                1
            ],
            "name": "Y_UP_Transform"
        }
    },
    "programs": {
        "program_0": {
            "attributes": [
                "a_normal",
                "a_position"
            ],
            "fragmentShader": "\\data\\3dcity\\miami\\workspace\\gridID_20\\gridID_20_high0FS",
            "vertexShader": "\\data\\3dcity\\miami\\workspace\\gridID_20\\gridID_20_high0VS"
        }
    },
    "scene": "defaultScene",
    "scenes": {
        "defaultScene": {
            "nodes": [
                "node_4"
            ]
        }
    },
    "shaders": {
        "\\data\\3dcity\\miami\\workspace\\gridID_20\\gridID_20_high0FS": {
            "type": 35632,
            "uri": "data:text/plain;base64,"
        },
        "\\data\\3dcity\\miami\\workspace\\gridID_20\\gridID_20_high0VS": {
            "type": 35633,
            "uri": "data:text/plain;base64,"
        }
    },
    "skins": {},
    "techniques": {
        "technique0": {
            "attributes": {
                "a_normal": "normal",
                "a_position": "position"
            },
            "parameters": {
                "diffuse": {
                    "type": 35666
                },
                "modelViewMatrix": {
                    "semantic": "MODELVIEW",
                    "type": 35676
                },
                "normal": {
                    "semantic": "NORMAL",
                    "type": 35665
                },
                "normalMatrix": {
                    "semantic": "MODELVIEWINVERSETRANSPOSE",
                    "type": 35675
                },
                "position": {
                    "semantic": "POSITION",
                    "type": 35665
                },
                "projectionMatrix": {
                    "semantic": "PROJECTION",
                    "type": 35676
                }
            },
            "program": "program_0",
            "states": {
                "enable": [
                    2929,
                    2884
                ]
            },
            "uniforms": {
                "u_diffuse": "diffuse",
                "u_modelViewMatrix": "modelViewMatrix",
                "u_normalMatrix": "normalMatrix",
                "u_projectionMatrix": "projectionMatrix"
            }
        }
    }
}