{"accessors":{"accessor_101":{"bufferView":"bufferView_282","byteOffset":168,"byteStride":0,"componentType":5123,"count":36,"type":"SCALAR"},"accessor_103":{"bufferView":"bufferView_283","byteOffset":0,"byteStride":12,"componentType":5126,"count":79,"max":[6.36993,3.75,10.5641],"min":[-6.64207,-3.75,-5.96585],"type":"VEC3"},"accessor_105":{"bufferView":"bufferView_283","byteOffset":948,"byteStride":12,"componentType":5126,"count":79,"max":[0.997708,1,0.997503],"min":[-0.997738,0,-0.997621],"type":"VEC3"},"accessor_133":{"bufferView":"bufferView_282","byteOffset":462,"byteStride":0,"componentType":5123,"count":78,"type":"SCALAR"},"accessor_136":{"bufferView":"bufferView_282","byteOffset":618,"byteStride":0,"componentType":5123,"count":33,"type":"SCALAR"},"accessor_138":{"bufferView":"bufferView_283","byteOffset":3672,"byteStride":12,"componentType":5126,"count":76,"max":[5.93761,3.75,10.9316],"min":[-7.18939,-3.75,-5.59839],"type":"VEC3"},"accessor_140":{"bufferView":"bufferView_283","byteOffset":4584,"byteStride":12,"componentType":5126,"count":76,"max":[0.997559,1,0.997487],"min":[-0.997497,0,-0.997619],"type":"VEC3"},"accessor_168":{"bufferView":"bufferView_282","byteOffset":1770,"byteStride":0,"componentType":5123,"count":192,"type":"SCALAR"},"accessor_171":{"bufferView":"bufferView_282","byteOffset":2154,"byteStride":0,"componentType":5123,"count":90,"type":"SCALAR"},"accessor_173":{"bufferView":"bufferView_283","byteOffset":15936,"byteStride":12,"componentType":5126,"count":160,"max":[15.1137,3.75,9.40839],"min":[-19.5263,-3.75,-8.34662],"type":"VEC3"},"accessor_175":{"bufferView":"bufferView_283","byteOffset":17856,"byteStride":12,"componentType":5126,"count":160,"max":[0.998488,1,0.998076],"min":[-0.99797,0,-0.998015],"type":"VEC3"},"accessor_203":{"bufferView":"bufferView_282","byteOffset":1512,"byteStride":0,"componentType":5123,"count":90,"type":"SCALAR"},"accessor_206":{"bufferView":"bufferView_282","byteOffset":1692,"byteStride":0,"componentType":5123,"count":39,"type":"SCALAR"},"accessor_208":{"bufferView":"bufferView_283","byteOffset":13536,"byteStride":12,"componentType":5126,"count":100,"max":[7.07021,3.75,9.4303],"min":[-8.11179,-3.75,-6.64371],"type":"VEC3"},"accessor_210":{"bufferView":"bufferView_283","byteOffset":14736,"byteStride":12,"componentType":5126,"count":100,"max":[0.99789,1,0.998887],"min":[-0.998488,0,-0.997927],"type":"VEC3"},"accessor_238":{"bufferView":"bufferView_282","byteOffset":888,"byteStride":0,"componentType":5123,"count":90,"type":"SCALAR"},"accessor_241":{"bufferView":"bufferView_282","byteOffset":1068,"byteStride":0,"componentType":5123,"count":39,"type":"SCALAR"},"accessor_243":{"bufferView":"bufferView_283","byteOffset":7512,"byteStride":12,"componentType":5126,"count":113,"max":[8.38226,3.75,9.54318],"min":[-9.97974,-3.75,-6.60883],"type":"VEC3"},"accessor_245":{"bufferView":"bufferView_283","byteOffset":8868,"byteStride":12,"componentType":5126,"count":113,"max":[0.99787,1,0.997957],"min":[-0.997826,0,-0.997925],"type":"VEC3"},"accessor_273":{"bufferView":"bufferView_282","byteOffset":1146,"byteStride":0,"componentType":5123,"count":126,"type":"SCALAR"},"accessor_276":{"bufferView":"bufferView_282","byteOffset":1398,"byteStride":0,"componentType":5123,"count":57,"type":"SCALAR"},"accessor_278":{"bufferView":"bufferView_283","byteOffset":10224,"byteStride":12,"componentType":5126,"count":138,"max":[15.0905,3.75,12.9342],"min":[-20.5675,-3.75,-5.71182],"type":"VEC3"},"accessor_28":{"bufferView":"bufferView_282","byteOffset":684,"byteStride":0,"componentType":5123,"count":72,"type":"SCALAR"},"accessor_280":{"bufferView":"bufferView_283","byteOffset":11880,"byteStride":12,"componentType":5126,"count":138,"max":[0.997952,1,0.997839],"min":[-0.997939,0,-0.997926],"type":"VEC3"},"accessor_31":{"bufferView":"bufferView_282","byteOffset":828,"byteStride":0,"componentType":5123,"count":30,"type":"SCALAR"},"accessor_33":{"bufferView":"bufferView_283","byteOffset":5496,"byteStride":12,"componentType":5126,"count":84,"max":[7.73726,3.75,11.5024],"min":[-7.52174,-3.75,-5.17261],"type":"VEC3"},"accessor_35":{"bufferView":"bufferView_283","byteOffset":6504,"byteStride":12,"componentType":5126,"count":84,"max":[0.997547,1,0.997518],"min":[-0.997532,0,-0.997653],"type":"VEC3"},"accessor_63":{"bufferView":"bufferView_282","byteOffset":240,"byteStride":0,"componentType":5123,"count":78,"type":"SCALAR"},"accessor_66":{"bufferView":"bufferView_282","byteOffset":396,"byteStride":0,"componentType":5123,"count":33,"type":"SCALAR"},"accessor_68":{"bufferView":"bufferView_283","byteOffset":1896,"byteStride":12,"componentType":5126,"count":74,"max":[6.84601,3.75,10.9985],"min":[-6.14699,-3.75,-5.54248],"type":"VEC3"},"accessor_70":{"bufferView":"bufferView_283","byteOffset":2784,"byteStride":12,"componentType":5126,"count":74,"max":[0.997502,1,0.997496],"min":[-0.997604,0,-0.998292],"type":"VEC3"},"accessor_98":{"bufferView":"bufferView_282","byteOffset":0,"byteStride":0,"componentType":5123,"count":84,"type":"SCALAR"},"accessor_b0":{"bufferView":"bufferView_b","byteOffset":0,"byteStride":0,"componentType":5123,"count":79,"type":"SCALAR"},"accessor_b1":{"bufferView":"bufferView_b","byteOffset":158,"byteStride":0,"componentType":5123,"count":74,"type":"SCALAR"},"accessor_b2":{"bufferView":"bufferView_b","byteOffset":306,"byteStride":0,"componentType":5123,"count":76,"type":"SCALAR"},"accessor_b3":{"bufferView":"bufferView_b","byteOffset":458,"byteStride":0,"componentType":5123,"count":84,"type":"SCALAR"},"accessor_b4":{"bufferView":"bufferView_b","byteOffset":626,"byteStride":0,"componentType":5123,"count":113,"type":"SCALAR"},"accessor_b5":{"bufferView":"bufferView_b","byteOffset":852,"byteStride":0,"componentType":5123,"count":138,"type":"SCALAR"},"accessor_b6":{"bufferView":"bufferView_b","byteOffset":1128,"byteStride":0,"componentType":5123,"count":100,"type":"SCALAR"},"accessor_b7":{"bufferView":"bufferView_b","byteOffset":1328,"byteStride":0,"componentType":5123,"count":160,"type":"SCALAR"}},"animations":{},"asset":{"generator":"collada2gltf@cf6371beb0bdc18ba603378d5e40c966da53d385","premultipliedAlpha":true,"profile":{"api":"WebGL","version":"1.0.2"},"version":"1.0"},"bufferViews":{"bufferView_282":{"buffer":"\\data\\ECNU\\workspace\\gridID_11\\gridID_11","byteLength":2336,"byteOffset":0,"target":34963},"bufferView_283":{"buffer":"\\data\\ECNU\\workspace\\gridID_11\\gridID_11","byteLength":19776,"byteOffset":2336,"target":34962},"bufferView_b":{"buffer":"buffer_b","byteLength":1648,"byteOffset":0,"target":34962}},"buffers":{"\\data\\ECNU\\workspace\\gridID_11\\gridID_11":{"byteLength":22112,"type":"arraybuffer","uri":"data:application/octet-stream;base64,"},"buffer_b":{"type":"arraybuffer","byteLength":1648,"uri":"data:application/octet-stream;base64,"}},"materials":{"BUILDING_DEFAULT_0-effect":{"name":"BUILDING_DEFAULT_0","technique":"technique0","values":{"ambient":[0,0,0,1],"diffuse":[0.723055,0.708376,0.672443,1],"emission":[0,0,0,1],"shininess":50,"specular":[0.5,0.5,0.5,1]}},"ROOF_DEFAULT_0-effect":{"name":"ROOF_DEFAULT_0","technique":"technique0","values":{"ambient":[0,0,0,1],"diffuse":[0.603827,0.381326,0.291771,1],"emission":[0,0,0,1],"shininess":50,"specular":[0.5,0.5,0.5,1]}}},"meshes":{"Building3337-mesh":{"name":"Building3337","primitives":[{"attributes":{"NORMAL":"accessor_105","POSITION":"accessor_103","BATCHID":"accessor_b0"},"indices":"accessor_98","material":"BUILDING_DEFAULT_0-effect","mode":4},{"attributes":{"NORMAL":"accessor_105","POSITION":"accessor_103","BATCHID":"accessor_b0"},"indices":"accessor_101","material":"ROOF_DEFAULT_0-effect","mode":4}]},"Building3345-mesh":{"name":"Building3345","primitives":[{"attributes":{"NORMAL":"accessor_70","POSITION":"accessor_68","BATCHID":"accessor_b1"},"indices":"accessor_63","material":"BUILDING_DEFAULT_0-effect","mode":4},{"attributes":{"NORMAL":"accessor_70","POSITION":"accessor_68","BATCHID":"accessor_b1"},"indices":"accessor_66","material":"ROOF_DEFAULT_0-effect","mode":4}]},"Building3346-mesh":{"name":"Building3346","primitives":[{"attributes":{"NORMAL":"accessor_140","POSITION":"accessor_138","BATCHID":"accessor_b2"},"indices":"accessor_133","material":"BUILDING_DEFAULT_0-effect","mode":4},{"attributes":{"NORMAL":"accessor_140","POSITION":"accessor_138","BATCHID":"accessor_b2"},"indices":"accessor_136","material":"ROOF_DEFAULT_0-effect","mode":4}]},"Building3349-mesh":{"name":"Building3349","primitives":[{"attributes":{"NORMAL":"accessor_35","POSITION":"accessor_33","BATCHID":"accessor_b3"},"indices":"accessor_28","material":"BUILDING_DEFAULT_0-effect","mode":4},{"attributes":{"NORMAL":"accessor_35","POSITION":"accessor_33","BATCHID":"accessor_b3"},"indices":"accessor_31","material":"ROOF_DEFAULT_0-effect","mode":4}]},"Building3964-mesh":{"name":"Building3964","primitives":[{"attributes":{"NORMAL":"accessor_245","POSITION":"accessor_243","BATCHID":"accessor_b4"},"indices":"accessor_238","material":"BUILDING_DEFAULT_0-effect","mode":4},{"attributes":{"NORMAL":"accessor_245","POSITION":"accessor_243","BATCHID":"accessor_b4"},"indices":"accessor_241","material":"ROOF_DEFAULT_0-effect","mode":4}]},"Building3967-mesh":{"name":"Building3967","primitives":[{"attributes":{"NORMAL":"accessor_280","POSITION":"accessor_278","BATCHID":"accessor_b5"},"indices":"accessor_273","material":"BUILDING_DEFAULT_0-effect","mode":4},{"attributes":{"NORMAL":"accessor_280","POSITION":"accessor_278","BATCHID":"accessor_b5"},"indices":"accessor_276","material":"ROOF_DEFAULT_0-effect","mode":4}]},"Building3970-mesh":{"name":"Building3970","primitives":[{"attributes":{"NORMAL":"accessor_210","POSITION":"accessor_208","BATCHID":"accessor_b6"},"indices":"accessor_203","material":"BUILDING_DEFAULT_0-effect","mode":4},{"attributes":{"NORMAL":"accessor_210","POSITION":"accessor_208","BATCHID":"accessor_b6"},"indices":"accessor_206","material":"ROOF_DEFAULT_0-effect","mode":4}]},"Building3981-mesh":{"name":"Building3981","primitives":[{"attributes":{"NORMAL":"accessor_175","POSITION":"accessor_173","BATCHID":"accessor_b7"},"indices":"accessor_168","material":"BUILDING_DEFAULT_0-effect","mode":4},{"attributes":{"NORMAL":"accessor_175","POSITION":"accessor_173","BATCHID":"accessor_b7"},"indices":"accessor_171","material":"ROOF_DEFAULT_0-effect","mode":4}]}},"nodes":{"model_gridID_11_w389699487":{"children":[],"matrix":[1,0,0,0,0,-1.62921e-7,1,0,0,-1,-1.62921e-7,0,-81.4243,-462.096,3.74992,1],"meshes":["Building3349-mesh"],"name":"model_gridID_11_w389699487"},"model_gridID_11_w389699494":{"children":[],"matrix":[1,0,0,0,0,-1.62921e-7,1,0,0,-1,-1.62921e-7,0,-42.914,-454.551,3.74993,1],"meshes":["Building3345-mesh"],"name":"model_gridID_11_w389699494"},"model_gridID_11_w389699494_001":{"children":[],"matrix":[1,0,0,0,0,-1.62921e-7,1,0,0,-1,-1.62921e-7,0,-55.0409,-459.338,3.74992,1],"meshes":["Building3337-mesh"],"name":"model_gridID_11_w389699494_001"},"model_gridID_11_w389699495_001":{"children":[],"matrix":[1,0,0,0,0,-1.62921e-7,1,0,0,-1,-1.62921e-7,0,-67.2496,-463.545,3.74992,1],"meshes":["Building3346-mesh"],"name":"model_gridID_11_w389699495_001"},"model_gridID_11_w389702070":{"children":[],"matrix":[1,0,0,0,0,-1.62921e-7,1,0,0,-1,-1.62921e-7,0,-126.277,-465.426,3.74992,1],"meshes":["Building3981-mesh"],"name":"model_gridID_11_w389702070"},"model_gridID_11_w389702070_001":{"children":[],"matrix":[1,0,0,0,0,-1.62921e-7,1,0,0,-1,-1.62921e-7,0,-103.184,-457.322,3.74993,1],"meshes":["Building3970-mesh"],"name":"model_gridID_11_w389702070_001"},"model_gridID_11_w389702075":{"children":[],"matrix":[1,0,0,0,0,-1.62921e-7,1,0,0,-1,-1.62921e-7,0,-100.907,-492.006,3.74992,1],"meshes":["Building3964-mesh"],"name":"model_gridID_11_w389702075"},"model_gridID_11_w389702075_003":{"children":[],"matrix":[1,0,0,0,0,-1.62921e-7,1,0,0,-1,-1.62921e-7,0,-125.787,-497.543,3.74992,1],"meshes":["Building3967-mesh"],"name":"model_gridID_11_w389702075_003"},"node_8":{"children":["model_gridID_11_w389699487","model_gridID_11_w389699494","model_gridID_11_w389699494_001","model_gridID_11_w389699495_001","model_gridID_11_w389702070","model_gridID_11_w389702070_001","model_gridID_11_w389702075","model_gridID_11_w389702075_003"],"matrix":[1,0,0,0,0,0,-1,0,0,1,0,0,0,0,0,1],"name":"Y_UP_Transform"}},"programs":{"program_0":{"attributes":["a_normal","a_position","a_batchId"],"fragmentShader":"\\data\\ECNU\\workspace\\gridID_11\\gridID_110FS","vertexShader":"\\data\\ECNU\\workspace\\gridID_11\\gridID_110VS"}},"scene":"defaultScene","scenes":{"defaultScene":{"nodes":["node_8"]}},"shaders":{"\\data\\ECNU\\workspace\\gridID_11\\gridID_110FS":{"type":35632,"uri":"data:text/plain;base64,"},"\\data\\ECNU\\workspace\\gridID_11\\gridID_110VS":{"type":35633,"uri":"data:text/plain;base64,"}},"skins":{},"techniques":{"technique0":{"attributes":{"a_normal":"normal","a_position":"position","a_batchId":"batchId"},"parameters":{"ambient":{"type":35666},"diffuse":{"type":35666},"emission":{"type":35666},"modelViewMatrix":{"semantic":"MODELVIEW","type":35676},"normal":{"semantic":"NORMAL","type":35665},"normalMatrix":{"semantic":"MODELVIEWINVERSETRANSPOSE","type":35675},"position":{"semantic":"POSITION","type":35665},"projectionMatrix":{"semantic":"PROJECTION","type":35676},"shininess":{"type":5126},"specular":{"type":35666},"batchId":{"semantic":"BATCHID","type":5126}},"program":"program_0","states":{"enable":[2929,2884]},"uniforms":{"u_ambient":"ambient","u_diffuse":"diffuse","u_emission":"emission","u_modelViewMatrix":"modelViewMatrix","u_normalMatrix":"normalMatrix","u_projectionMatrix":"projectionMatrix","u_shininess":"shininess","u_specular":"specular"}}}}