{
    "accessors": {
        "accessor_125": {
            "bufferView": "bufferView_202",
            "byteOffset": 822,
            "byteStride": 0,
            "componentType": 5123,
            "count": 72,
            "type": "SCALAR"
        },
        "accessor_128": {
            "bufferView": "bufferView_202",
            "byteOffset": 966,
            "byteStride": 0,
            "componentType": 5123,
            "count": 6,
            "type": "SCALAR"
        },
        "accessor_131": {
            "bufferView": "bufferView_202",
            "byteOffset": 978,
            "byteStride": 0,
            "componentType": 5123,
            "count": 12,
            "type": "SCALAR"
        },
        "accessor_133": {
            "bufferView": "bufferView_203",
            "byteOffset": 7104,
            "byteStride": 12,
            "componentType": 5126,
            "count": 54,
            "max": [
                1.30399,
                4.76,
                4.45302
            ],
            "min": [
                -1.96101,
                -14.04,
                -4.47499
            ],
            "type": "VEC3"
        },
        "accessor_135": {
            "bufferView": "bufferView_203",
            "byteOffset": 7752,
            "byteStride": 12,
            "componentType": 5126,
            "count": 54,
            "max": [
                1,
                1,
                1
            ],
            "min": [
                -1,
                -1,
                -1
            ],
            "type": "VEC3"
        },
        "accessor_187": {
            "bufferView": "bufferView_202",
            "byteOffset": 1266,
            "byteStride": 0,
            "componentType": 5123,
            "count": 186,
            "type": "SCALAR"
        },
        "accessor_190": {
            "bufferView": "bufferView_202",
            "byteOffset": 1638,
            "byteStride": 0,
            "componentType": 5123,
            "count": 477,
            "type": "SCALAR"
        },
        "accessor_193": {
            "bufferView": "bufferView_202",
            "byteOffset": 2592,
            "byteStride": 0,
            "componentType": 5123,
            "count": 108,
            "type": "SCALAR"
        },
        "accessor_196": {
            "bufferView": "bufferView_202",
            "byteOffset": 2808,
            "byteStride": 0,
            "componentType": 5123,
            "count": 99,
            "type": "SCALAR"
        },
        "accessor_198": {
            "bufferView": "bufferView_203",
            "byteOffset": 11328,
            "byteStride": 12,
            "componentType": 5126,
            "count": 671,
            "max": [
                6.13263,
                7.4662,
                12.688
            ],
            "min": [
                -21.1114,
                -12.5338,
                -12.5809
            ],
            "type": "VEC3"
        },
        "accessor_200": {
            "bufferView": "bufferView_203",
            "byteOffset": 19380,
            "byteStride": 12,
            "componentType": 5126,
            "count": 671,
            "max": [
                1,
                1,
                1
            ],
            "min": [
                -1,
                -1,
                -1
            ],
            "type": "VEC3"
        },
        "accessor_40": {
            "bufferView": "bufferView_202",
            "byteOffset": 0,
            "byteStride": 0,
            "componentType": 5123,
            "count": 282,
            "type": "SCALAR"
        },
        "accessor_43": {
            "bufferView": "bufferView_202",
            "byteOffset": 564,
            "byteStride": 0,
            "componentType": 5123,
            "count": 105,
            "type": "SCALAR"
        },
        "accessor_46": {
            "bufferView": "bufferView_202",
            "byteOffset": 774,
            "byteStride": 0,
            "componentType": 5123,
            "count": 24,
            "type": "SCALAR"
        },
        "accessor_48": {
            "bufferView": "bufferView_203",
            "byteOffset": 0,
            "byteStride": 12,
            "componentType": 5126,
            "count": 296,
            "max": [
                28.2601,
                14.0774,
                8.09348
            ],
            "min": [
                -22.8189,
                -5.92262,
                -9.78352
            ],
            "type": "VEC3"
        },
        "accessor_50": {
            "bufferView": "bufferView_203",
            "byteOffset": 3552,
            "byteStride": 12,
            "componentType": 5126,
            "count": 296,
            "max": [
                1,
                1,
                0.999999
            ],
            "min": [
                -1,
                0,
                -0.999999
            ],
            "type": "VEC3"
        },
        "accessor_78": {
            "bufferView": "bufferView_202",
            "byteOffset": 1002,
            "byteStride": 0,
            "componentType": 5123,
            "count": 96,
            "type": "SCALAR"
        },
        "accessor_81": {
            "bufferView": "bufferView_202",
            "byteOffset": 1194,
            "byteStride": 0,
            "componentType": 5123,
            "count": 36,
            "type": "SCALAR"
        },
        "accessor_83": {
            "bufferView": "bufferView_203",
            "byteOffset": 8400,
            "byteStride": 12,
            "componentType": 5126,
            "count": 122,
            "max": [
                5.02138,
                1.22727,
                4.42128
            ],
            "min": [
                -5.02162,
                -0.272727,
                -4.42772
            ],
            "type": "VEC3"
        },
        "accessor_85": {
            "bufferView": "bufferView_203",
            "byteOffset": 9864,
            "byteStride": 12,
            "componentType": 5126,
            "count": 122,
            "max": [
                0.982791,
                0.929268,
                0.982942
            ],
            "min": [
                -0.982735,
                -1,
                -0.982955
            ],
            "type": "VEC3"
        }
    },
    "animations": {},
    "asset": {
        "generator": "collada2gltf@cf6371beb0bdc18ba603378d5e40c966da53d385",
        "premultipliedAlpha": true,
        "profile": {
            "api": "WebGL",
            "version": "1.0.2"
        },
        "version": "1.0"
    },
    "bufferViews": {
        "bufferView_202": {
            "buffer": "\\data\\ECNU\\workspace\\gridID_37\\gridID_37",
            "byteLength": 3008,
            "byteOffset": 0,
            "target": 34963
        },
        "bufferView_203": {
            "buffer": "\\data\\ECNU\\workspace\\gridID_37\\gridID_37",
            "byteLength": 27432,
            "byteOffset": 3008,
            "target": 34962
        }
    },
    "buffers": {
        "\\data\\ECNU\\workspace\\gridID_37\\gridID_37": {
            "byteLength": 30440,
            "type": "arraybuffer",
            "uri": "data:application/octet-stream;base64,"
        }
    },
    "materials": {
        "BUILDING_DEFAULT_0-effect": {
            "name": "BUILDING_DEFAULT_0",
            "technique": "technique0",
            "values": {
                "ambient": [
                    0,
                    0,
                    0,
                    1
                ],
                "diffuse": [
                    0.723055,
                    0.708376,
                    0.672443,
                    1
                ],
                "emission": [
                    0,
                    0,
                    0,
                    1
                ],
                "shininess": 50,
                "specular": [
                    0.5,
                    0.5,
                    0.5,
                    1
                ]
            }
        },
        "CONCRETE_0-effect": {
            "name": "CONCRETE_0",
            "technique": "technique0",
            "values": {
                "ambient": [
                    0,
                    0,
                    0,
                    1
                ],
                "diffuse": [
                    0.309469,
                    0.327778,
                    0.309469,
                    1
                ],
                "emission": [
                    0,
                    0,
                    0,
                    1
                ],
                "shininess": 50,
                "specular": [
                    0.5,
                    0.5,
                    0.5,
                    1
                ]
            }
        },
        "GLASS_0-effect": {
            "name": "GLASS_0",
            "technique": "technique0",
            "values": {
                "ambient": [
                    0,
                    0,
                    0,
                    1
                ],
                "diffuse": [
                    0.491021,
                    0.665387,
                    0.658375,
                    1
                ],
                "emission": [
                    0,
                    0,
                    0,
                    1
                ],
                "shininess": 50,
                "specular": [
                    0.5,
                    0.5,
                    0.5,
                    1
                ]
            }
        },
        "ROOF_DEFAULT_0-effect": {
            "name": "ROOF_DEFAULT_0",
            "technique": "technique0",
            "values": {
                "ambient": [
                    0,
                    0,
                    0,
                    1
                ],
                "diffuse": [
                    0.603827,
                    0.381326,
                    0.291771,
                    1
                ],
                "emission": [
                    0,
                    0,
                    0,
                    1
                ],
                "shininess": 50,
                "specular": [
                    0.5,
                    0.5,
                    0.5,
                    1
                ]
            }
        }
    },
    "meshes": {
        "Building3516-mesh": {
            "name": "Building3516",
            "primitives": [
                {
                    "attributes": {
                        "NORMAL": "accessor_50",
                        "POSITION": "accessor_48"
                    },
                    "indices": "accessor_40",
                    "material": "BUILDING_DEFAULT_0-effect",
                    "mode": 4
                },
                {
                    "attributes": {
                        "NORMAL": "accessor_50",
                        "POSITION": "accessor_48"
                    },
                    "indices": "accessor_43",
                    "material": "ROOF_DEFAULT_0-effect",
                    "mode": 4
                },
                {
                    "attributes": {
                        "NORMAL": "accessor_50",
                        "POSITION": "accessor_48"
                    },
                    "indices": "accessor_46",
                    "material": "CONCRETE_0-effect",
                    "mode": 4
                }
            ]
        },
        "Building3620-mesh": {
            "name": "Building3620",
            "primitives": [
                {
                    "attributes": {
                        "NORMAL": "accessor_135",
                        "POSITION": "accessor_133"
                    },
                    "indices": "accessor_125",
                    "material": "BUILDING_DEFAULT_0-effect",
                    "mode": 4
                },
                {
                    "attributes": {
                        "NORMAL": "accessor_135",
                        "POSITION": "accessor_133"
                    },
                    "indices": "accessor_128",
                    "material": "ROOF_DEFAULT_0-effect",
                    "mode": 4
                },
                {
                    "attributes": {
                        "NORMAL": "accessor_135",
                        "POSITION": "accessor_133"
                    },
                    "indices": "accessor_131",
                    "material": "CONCRETE_0-effect",
                    "mode": 4
                }
            ]
        },
        "Building3943-mesh": {
            "name": "Building3943",
            "primitives": [
                {
                    "attributes": {
                        "NORMAL": "accessor_85",
                        "POSITION": "accessor_83"
                    },
                    "indices": "accessor_78",
                    "material": "BUILDING_DEFAULT_0-effect",
                    "mode": 4
                },
                {
                    "attributes": {
                        "NORMAL": "accessor_85",
                        "POSITION": "accessor_83"
                    },
                    "indices": "accessor_81",
                    "material": "ROOF_DEFAULT_0-effect",
                    "mode": 4
                }
            ]
        },
        "Building4019-mesh": {
            "name": "Building4019",
            "primitives": [
                {
                    "attributes": {
                        "NORMAL": "accessor_200",
                        "POSITION": "accessor_198"
                    },
                    "indices": "accessor_187",
                    "material": "GLASS_0-effect",
                    "mode": 4
                },
                {
                    "attributes": {
                        "NORMAL": "accessor_200",
                        "POSITION": "accessor_198"
                    },
                    "indices": "accessor_190",
                    "material": "BUILDING_DEFAULT_0-effect",
                    "mode": 4
                },
                {
                    "attributes": {
                        "NORMAL": "accessor_200",
                        "POSITION": "accessor_198"
                    },
                    "indices": "accessor_193",
                    "material": "ROOF_DEFAULT_0-effect",
                    "mode": 4
                },
                {
                    "attributes": {
                        "NORMAL": "accessor_200",
                        "POSITION": "accessor_198"
                    },
                    "indices": "accessor_196",
                    "material": "CONCRETE_0-effect",
                    "mode": 4
                }
            ]
        }
    },
    "nodes": {
        "model_gridID_37_w382440373": {
            "children": [],
            "matrix": [
                1,
                0,
                0,
                0,
                0,
                -1.62921e-007,
                1,
                0,
                0,
                -1,
                -1.62921e-007,
                0,
                -202.41,
                -219.674,
                5.92258,
                1
            ],
            "meshes": [
                "Building3516-mesh"
            ],
            "name": "model_gridID_37_w382440373"
        },
        "model_gridID_37_w383050666": {
            "children": [],
            "matrix": [
                1,
                0,
                0,
                0,
                0,
                -1.62921e-007,
                1,
                0,
                0,
                -1,
                -1.62921e-007,
                0,
                -152.756,
                -220.887,
                2.77269,
                1
            ],
            "meshes": [
                "Building3943-mesh"
            ],
            "name": "model_gridID_37_w383050666"
        },
        "model_gridID_37_w389193352_001": {
            "children": [],
            "matrix": [
                1,
                0,
                0,
                0,
                0,
                -1.62921e-007,
                1,
                0,
                0,
                -1,
                -1.62921e-007,
                0,
                -196.72,
                -170.362,
                14.04,
                1
            ],
            "meshes": [
                "Building3620-mesh"
            ],
            "name": "model_gridID_37_w389193352_001"
        },
        "model_gridID_37_w389193352_002": {
            "children": [],
            "matrix": [
                1,
                0,
                0,
                0,
                0,
                -1.62921e-007,
                1,
                0,
                0,
                -1,
                -1.62921e-007,
                0,
                -174.305,
                -178.39,
                12.5338,
                1
            ],
            "meshes": [
                "Building4019-mesh"
            ],
            "name": "model_gridID_37_w389193352_002"
        },
        "node_4": {
            "children": [
                "model_gridID_37_w382440373",
                "model_gridID_37_w383050666",
                "model_gridID_37_w389193352_001",
                "model_gridID_37_w389193352_002"
            ],
            "matrix": [
                1,
                0,
                0,
                0,
                0,
                0,
                -1,
                0,
                0,
                1,
                0,
                0,
                0,
                0,
                0,
                1
            ],
            "name": "Y_UP_Transform"
        }
    },
    "programs": {
        "program_0": {
            "attributes": [
                "a_normal",
                "a_position"
            ],
            "fragmentShader": "\\data\\ECNU\\workspace\\gridID_37\\gridID_370FS",
            "vertexShader": "\\data\\ECNU\\workspace\\gridID_37\\gridID_370VS"
        }
    },
    "scene": "defaultScene",
    "scenes": {
        "defaultScene": {
            "nodes": [
                "node_4"
            ]
        }
    },
    "shaders": {
        "\\data\\ECNU\\workspace\\gridID_37\\gridID_370FS": {
            "type": 35632,
            "uri": "data:text/plain;base64,"
        },
        "\\data\\ECNU\\workspace\\gridID_37\\gridID_370VS": {
            "type": 35633,
            "uri": "data:text/plain;base64,"
        }
    },
    "skins": {},
    "techniques": {
        "technique0": {
            "attributes": {
                "a_normal": "normal",
                "a_position": "position"
            },
            "parameters": {
                "ambient": {
                    "type": 35666
                },
                "diffuse": {
                    "type": 35666
                },
                "emission": {
                    "type": 35666
                },
                "modelViewMatrix": {
                    "semantic": "MODELVIEW",
                    "type": 35676
                },
                "normal": {
                    "semantic": "NORMAL",
                    "type": 35665
                },
                "normalMatrix": {
                    "semantic": "MODELVIEWINVERSETRANSPOSE",
                    "type": 35675
                },
                "position": {
                    "semantic": "POSITION",
                    "type": 35665
                },
                "projectionMatrix": {
                    "semantic": "PROJECTION",
                    "type": 35676
                },
                "shininess": {
                    "type": 5126
                },
                "specular": {
                    "type": 35666
                }
            },
            "program": "program_0",
            "states": {
                "enable": [
                    2929,
                    2884
                ]
            },
            "uniforms": {
                "u_ambient": "ambient",
                "u_diffuse": "diffuse",
                "u_emission": "emission",
                "u_modelViewMatrix": "modelViewMatrix",
                "u_normalMatrix": "normalMatrix",
                "u_projectionMatrix": "projectionMatrix",
                "u_shininess": "shininess",
                "u_specular": "specular"
            }
        }
    }
}