{"accessors":{"accessor_16":{"bufferView":"bufferView_62","byteOffset":0,"byteStride":0,"componentType":5123,"count":36,"type":"SCALAR"},"accessor_18":{"bufferView":"bufferView_63","byteOffset":0,"byteStride":12,"componentType":5126,"count":30,"max":[29.5327,10,0.600825],"min":[-50.4392,0,-43.9214],"type":"VEC3"},"accessor_20":{"bufferView":"bufferView_63","byteOffset":360,"byteStride":12,"componentType":5126,"count":30,"max":[0.999767,1,0.999771],"min":[-0.999773,-1,-0.999771],"type":"VEC3"},"accessor_36":{"bufferView":"bufferView_62","byteOffset":72,"byteStride":0,"componentType":5123,"count":84,"type":"SCALAR"},"accessor_38":{"bufferView":"bufferView_63","byteOffset":720,"byteStride":12,"componentType":5126,"count":58,"max":[-40.6988,12,-70.9289],"min":[-63.8866,0,-94.5621],"type":"VEC3"},"accessor_40":{"bufferView":"bufferView_63","byteOffset":1416,"byteStride":12,"componentType":5126,"count":58,"max":[0.999816,1,0.99981],"min":[-0.998362,-1,-0.999545],"type":"VEC3"},"accessor_56":{"bufferView":"bufferView_62","byteOffset":240,"byteStride":0,"componentType":5123,"count":48,"type":"SCALAR"},"accessor_58":{"bufferView":"bufferView_63","byteOffset":2112,"byteStride":12,"componentType":5126,"count":32,"max":[55.3254,12,47.5826],"min":[37.5365,0,-1.93307],"type":"VEC3"},"accessor_60":{"bufferView":"bufferView_63","byteOffset":2496,"byteStride":12,"componentType":5126,"count":32,"max":[0.999614,1,0.999596],"min":[-0.999611,-1,-0.999622],"type":"VEC3"},"accessor_b0":{"bufferView":"bufferView_b","byteOffset":0,"byteStride":0,"componentType":5123,"count":30,"type":"SCALAR"},"accessor_b1":{"bufferView":"bufferView_b","byteOffset":60,"byteStride":0,"componentType":5123,"count":58,"type":"SCALAR"},"accessor_b2":{"bufferView":"bufferView_b","byteOffset":176,"byteStride":0,"componentType":5123,"count":32,"type":"SCALAR"}},"animations":{},"asset":{"generator":"collada2gltf@cf6371beb0bdc18ba603378d5e40c966da53d385","premultipliedAlpha":true,"profile":{"api":"WebGL","version":"1.0.2"},"version":"1.0"},"bufferViews":{"bufferView_62":{"buffer":"\\data\\3dcity\\miami\\workspace\\gridID_26\\gridID_26","byteLength":336,"byteOffset":0,"target":34963},"bufferView_63":{"buffer":"\\data\\3dcity\\miami\\workspace\\gridID_26\\gridID_26","byteLength":2880,"byteOffset":336,"target":34962},"bufferView_b":{"buffer":"buffer_b","byteLength":240,"byteOffset":0,"target":34962}},"buffers":{"\\data\\3dcity\\miami\\workspace\\gridID_26\\gridID_26":{"byteLength":3216,"type":"arraybuffer","uri":"data:application/octet-stream;base64,"},"buffer_b":{"type":"arraybuffer","byteLength":240,"uri":"data:application/octet-stream;base64,"}},"materials":{"CityEngineMaterial_372-effect":{"name":"CityEngineMaterial_372","technique":"technique0","values":{"ambient":[1,1,1,1],"diffuse":[1,1,1,1],"emission":[0,0,0,1],"shininess":50,"specular":[0.5,0.5,0.5,1]}},"CityEngineMaterial_373-effect":{"name":"CityEngineMaterial_373","technique":"technique0","values":{"ambient":[1,1,1,1],"diffuse":[1,1,1,1],"emission":[0,0,0,1],"shininess":50,"specular":[0.5,0.5,0.5,1]}},"CityEngineMaterial_374-effect":{"name":"CityEngineMaterial_374","technique":"technique0","values":{"ambient":[1,1,1,1],"diffuse":[1,1,1,1],"emission":[0,0,0,1],"shininess":50,"specular":[0.5,0.5,0.5,1]}}},"meshes":{"mesh_CityEngineMaterial_370-mesh":{"name":"mesh_CityEngineMaterial.370","primitives":[{"attributes":{"NORMAL":"accessor_20","POSITION":"accessor_18","BATCHID":"accessor_b0"},"indices":"accessor_16","material":"CityEngineMaterial_372-effect","mode":4}]},"mesh_CityEngineMaterial_371-mesh":{"name":"mesh_CityEngineMaterial.371","primitives":[{"attributes":{"NORMAL":"accessor_40","POSITION":"accessor_38","BATCHID":"accessor_b1"},"indices":"accessor_36","material":"CityEngineMaterial_373-effect","mode":4}]},"mesh_CityEngineMaterial_372-mesh":{"name":"mesh_CityEngineMaterial.372","primitives":[{"attributes":{"NORMAL":"accessor_60","POSITION":"accessor_58","BATCHID":"accessor_b2"},"indices":"accessor_56","material":"CityEngineMaterial_374-effect","mode":4}]}},"nodes":{"CityEngineMaterial":{"children":[],"matrix":[1,0,0,0,0,-1.62921e-7,1,0,0,-1,-1.62921e-7,0,0,0,0,1],"meshes":["mesh_CityEngineMaterial_370-mesh"],"name":"CityEngineMaterial"},"CityEngineMaterial_001":{"children":[],"matrix":[1,0,0,0,0,-1.62921e-7,1,0,0,-1,-1.62921e-7,0,0,0,0,1],"meshes":["mesh_CityEngineMaterial_371-mesh"],"name":"CityEngineMaterial_001"},"CityEngineMaterial_002":{"children":[],"matrix":[1,0,0,0,0,-1.62921e-7,1,0,0,-1,-1.62921e-7,0,0,0,0,1],"meshes":["mesh_CityEngineMaterial_372-mesh"],"name":"CityEngineMaterial_002"},"node_3":{"children":["CityEngineMaterial","CityEngineMaterial_001","CityEngineMaterial_002"],"matrix":[1,0,0,0,0,0,-1,0,0,1,0,0,0,0,0,1],"name":"Y_UP_Transform"}},"programs":{"program_0":{"attributes":["a_normal","a_position","a_batchId"],"fragmentShader":"\\data\\3dcity\\miami\\workspace\\gridID_26\\gridID_260FS","vertexShader":"\\data\\3dcity\\miami\\workspace\\gridID_26\\gridID_260VS"}},"scene":"defaultScene","scenes":{"defaultScene":{"nodes":["node_3"]}},"shaders":{"\\data\\3dcity\\miami\\workspace\\gridID_26\\gridID_260FS":{"type":35632,"uri":"data:text/plain;base64,"},"\\data\\3dcity\\miami\\workspace\\gridID_26\\gridID_260VS":{"type":35633,"uri":"data:text/plain;base64,"}},"skins":{},"techniques":{"technique0":{"attributes":{"a_normal":"normal","a_position":"position","a_batchId":"batchId"},"parameters":{"ambient":{"type":35666},"diffuse":{"type":35666},"emission":{"type":35666},"modelViewMatrix":{"semantic":"MODELVIEW","type":35676},"normal":{"semantic":"NORMAL","type":35665},"normalMatrix":{"semantic":"MODELVIEWINVERSETRANSPOSE","type":35675},"position":{"semantic":"POSITION","type":35665},"projectionMatrix":{"semantic":"PROJECTION","type":35676},"shininess":{"type":5126},"specular":{"type":35666},"batchId":{"semantic":"BATCHID","type":5126}},"program":"program_0","states":{"enable":[2929,2884]},"uniforms":{"u_ambient":"ambient","u_diffuse":"diffuse","u_emission":"emission","u_modelViewMatrix":"modelViewMatrix","u_normalMatrix":"normalMatrix","u_projectionMatrix":"projectionMatrix","u_shininess":"shininess","u_specular":"specular"}}}}