{
    "accessors": {
        "accessor_16": {
            "bufferView": "bufferView_62",
            "byteOffset": 246,
            "byteStride": 0,
            "componentType": 5123,
            "count": 258,
            "type": "SCALAR"
        },
        "accessor_18": {
            "bufferView": "bufferView_63",
            "byteOffset": 2784,
            "byteStride": 12,
            "componentType": 5126,
            "count": 230,
            "max": [
                56.6089,
                1.64418,
                10.4702
            ],
            "min": [
                37.4101,
                -49.2233,
                3.86521
            ],
            "type": "VEC3"
        },
        "accessor_20": {
            "bufferView": "bufferView_63",
            "byteOffset": 5544,
            "byteStride": 12,
            "componentType": 5126,
            "count": 230,
            "max": [
                0.999995,
                0.999533,
                1
            ],
            "min": [
                -0.99946,
                -0.999609,
                0
            ],
            "type": "VEC3"
        },
        "accessor_36": {
            "bufferView": "bufferView_62",
            "byteOffset": 762,
            "byteStride": 0,
            "componentType": 5123,
            "count": 291,
            "type": "SCALAR"
        },
        "accessor_38": {
            "bufferView": "bufferView_63",
            "byteOffset": 8304,
            "byteStride": 12,
            "componentType": 5126,
            "count": 267,
            "max": [
                33.1774,
                43.6029,
                15.2098
            ],
            "min": [
                -55.0813,
                -53.458,
                3.76261
            ],
            "type": "VEC3"
        },
        "accessor_40": {
            "bufferView": "bufferView_63",
            "byteOffset": 11508,
            "byteStride": 12,
            "componentType": 5126,
            "count": 267,
            "max": [
                0.999586,
                0.99957,
                1
            ],
            "min": [
                -0.999573,
                -0.999557,
                0
            ],
            "type": "VEC3"
        },
        "accessor_56": {
            "bufferView": "bufferView_62",
            "byteOffset": 0,
            "byteStride": 0,
            "componentType": 5123,
            "count": 123,
            "type": "SCALAR"
        },
        "accessor_58": {
            "bufferView": "bufferView_63",
            "byteOffset": 0,
            "byteStride": 12,
            "componentType": 5126,
            "count": 116,
            "max": [
                -40.1326,
                97.0647,
                10.358
            ],
            "min": [
                -62.6588,
                69.7761,
                3.93504
            ],
            "type": "VEC3"
        },
        "accessor_60": {
            "bufferView": "bufferView_63",
            "byteOffset": 1392,
            "byteStride": 12,
            "componentType": 5126,
            "count": 116,
            "max": [
                0.999002,
                0.99939,
                1
            ],
            "min": [
                -0.999404,
                -0.999703,
                0
            ],
            "type": "VEC3"
        }
    },
    "animations": {},
    "asset": {
        "generator": "collada2gltf@cf6371beb0bdc18ba603378d5e40c966da53d385",
        "premultipliedAlpha": true,
        "profile": {
            "api": "WebGL",
            "version": "1.0.2"
        },
        "version": "1.0"
    },
    "bufferViews": {
        "bufferView_62": {
            "buffer": "\\data\\3dcity\\miami\\workspace\\gridID_26\\gridID_26_high",
            "byteLength": 1344,
            "byteOffset": 0,
            "target": 34963
        },
        "bufferView_63": {
            "buffer": "\\data\\3dcity\\miami\\workspace\\gridID_26\\gridID_26_high",
            "byteLength": 14712,
            "byteOffset": 1344,
            "target": 34962
        }
    },
    "buffers": {
        "\\data\\3dcity\\miami\\workspace\\gridID_26\\gridID_26_high": {
            "byteLength": 16056,
            "type": "arraybuffer",
            "uri": "data:application/octet-stream;base64,"
        }
    },
    "materials": {
        "__glTF__defaultMaterial0": {
            "name": "__glTF__defaultMaterial0",
            "technique": "technique0",
            "values": {
                "diffuse": [
                    1,
                    1,
                    1,
                    1
                ]
            }
        }
    },
    "meshes": {
        "multipatch_footprint_2112-mesh": {
            "name": "multipatch_footprint.2112",
            "primitives": [
                {
                    "attributes": {
                        "NORMAL": "accessor_60",
                        "POSITION": "accessor_58"
                    },
                    "indices": "accessor_56",
                    "material": "__glTF__defaultMaterial0",
                    "mode": 4
                }
            ]
        },
        "multipatch_footprint_234-mesh": {
            "name": "multipatch_footprint.234",
            "primitives": [
                {
                    "attributes": {
                        "NORMAL": "accessor_20",
                        "POSITION": "accessor_18"
                    },
                    "indices": "accessor_16",
                    "material": "__glTF__defaultMaterial0",
                    "mode": 4
                }
            ]
        },
        "multipatch_footprint_235-mesh": {
            "name": "multipatch_footprint.235",
            "primitives": [
                {
                    "attributes": {
                        "NORMAL": "accessor_40",
                        "POSITION": "accessor_38"
                    },
                    "indices": "accessor_36",
                    "material": "__glTF__defaultMaterial0",
                    "mode": 4
                }
            ]
        }
    },
    "nodes": {
        "gridID_26_w255188171_join": {
            "children": [],
            "matrix": [
                1,
                0,
                0,
                0,
                0,
                1,
                0,
                0,
                0,
                0,
                1,
                0,
                0.000366211,
                0.000335693,
                0,
                1
            ],
            "meshes": [
                "multipatch_footprint_235-mesh"
            ],
            "name": "gridID_26_w255188171_join"
        },
        "gridID_26_w435517560_join": {
            "children": [],
            "matrix": [
                1,
                0,
                0,
                0,
                0,
                1,
                0,
                0,
                0,
                0,
                1,
                0,
                0.000366211,
                0.000335693,
                0,
                1
            ],
            "meshes": [
                "multipatch_footprint_2112-mesh"
            ],
            "name": "gridID_26_w435517560_join"
        },
        "gridID_26_w435565141_join": {
            "children": [],
            "matrix": [
                1,
                0,
                0,
                0,
                0,
                1,
                0,
                0,
                0,
                0,
                1,
                0,
                0.000366211,
                0.000335693,
                0,
                1
            ],
            "meshes": [
                "multipatch_footprint_234-mesh"
            ],
            "name": "gridID_26_w435565141_join"
        },
        "node_3": {
            "children": [
                "gridID_26_w435565141_join",
                "gridID_26_w255188171_join",
                "gridID_26_w435517560_join"
            ],
            "matrix": [
                1,
                0,
                0,
                0,
                0,
                0,
                -1,
                0,
                0,
                1,
                0,
                0,
                0,
                0,
                0,
                1
            ],
            "name": "Y_UP_Transform"
        }
    },
    "programs": {
        "program_0": {
            "attributes": [
                "a_normal",
                "a_position"
            ],
            "fragmentShader": "\\data\\3dcity\\miami\\workspace\\gridID_26\\gridID_26_high0FS",
            "vertexShader": "\\data\\3dcity\\miami\\workspace\\gridID_26\\gridID_26_high0VS"
        }
    },
    "scene": "defaultScene",
    "scenes": {
        "defaultScene": {
            "nodes": [
                "node_3"
            ]
        }
    },
    "shaders": {
        "\\data\\3dcity\\miami\\workspace\\gridID_26\\gridID_26_high0FS": {
            "type": 35632,
            "uri": "data:text/plain;base64,"
        },
        "\\data\\3dcity\\miami\\workspace\\gridID_26\\gridID_26_high0VS": {
            "type": 35633,
            "uri": "data:text/plain;base64,"
        }
    },
    "skins": {},
    "techniques": {
        "technique0": {
            "attributes": {
                "a_normal": "normal",
                "a_position": "position"
            },
            "parameters": {
                "diffuse": {
                    "type": 35666
                },
                "modelViewMatrix": {
                    "semantic": "MODELVIEW",
                    "type": 35676
                },
                "normal": {
                    "semantic": "NORMAL",
                    "type": 35665
                },
                "normalMatrix": {
                    "semantic": "MODELVIEWINVERSETRANSPOSE",
                    "type": 35675
                },
                "position": {
                    "semantic": "POSITION",
                    "type": 35665
                },
                "projectionMatrix": {
                    "semantic": "PROJECTION",
                    "type": 35676
                }
            },
            "program": "program_0",
            "states": {
                "enable": [
                    2929,
                    2884
                ]
            },
            "uniforms": {
                "u_diffuse": "diffuse",
                "u_modelViewMatrix": "modelViewMatrix",
                "u_normalMatrix": "normalMatrix",
                "u_projectionMatrix": "projectionMatrix"
            }
        }
    }
}