{
    "accessors": {
        "accessor_100": {
            "bufferView": "bufferView_103",
            "byteOffset": 32964,
            "byteStride": 12,
            "componentType": 5126,
            "count": 181,
            "max": [
                0.999969,
                0.968114,
                1
            ],
            "min": [
                -0.968716,
                -1,
                -1
            ],
            "type": "VEC3"
        },
        "accessor_16": {
            "bufferView": "bufferView_102",
            "byteOffset": 0,
            "byteStride": 0,
            "componentType": 5123,
            "count": 534,
            "type": "SCALAR"
        },
        "accessor_18": {
            "bufferView": "bufferView_103",
            "byteOffset": 0,
            "byteStride": 12,
            "componentType": 5126,
            "count": 496,
            "max": [
                86.7738,
                -40.4453,
                43.3932
            ],
            "min": [
                27.5651,
                -93.5924,
                0.841507
            ],
            "type": "VEC3"
        },
        "accessor_20": {
            "bufferView": "bufferView_103",
            "byteOffset": 5952,
            "byteStride": 12,
            "componentType": 5126,
            "count": 496,
            "max": [
                0.886572,
                0.88467,
                1
            ],
            "min": [
                -0.88652,
                -0.884535,
                0
            ],
            "type": "VEC3"
        },
        "accessor_36": {
            "bufferView": "bufferView_102",
            "byteOffset": 1068,
            "byteStride": 0,
            "componentType": 5123,
            "count": 747,
            "type": "SCALAR"
        },
        "accessor_38": {
            "bufferView": "bufferView_103",
            "byteOffset": 11904,
            "byteStride": 12,
            "componentType": 5126,
            "count": 639,
            "max": [
                50.5346,
                37.6283,
                5.15753
            ],
            "min": [
                -3.73703,
                -13.3492,
                0.000667572
            ],
            "type": "VEC3"
        },
        "accessor_40": {
            "bufferView": "bufferView_103",
            "byteOffset": 19572,
            "byteStride": 12,
            "componentType": 5126,
            "count": 639,
            "max": [
                0.99521,
                0.999913,
                1
            ],
            "min": [
                -0.972581,
                -0.999498,
                0
            ],
            "type": "VEC3"
        },
        "accessor_56": {
            "bufferView": "bufferView_102",
            "byteOffset": 2562,
            "byteStride": 0,
            "componentType": 5123,
            "count": 60,
            "type": "SCALAR"
        },
        "accessor_58": {
            "bufferView": "bufferView_103",
            "byteOffset": 27240,
            "byteStride": 12,
            "componentType": 5126,
            "count": 58,
            "max": [
                115.957,
                95.027,
                43.2427
            ],
            "min": [
                6.37543,
                72.0222,
                1.19312
            ],
            "type": "VEC3"
        },
        "accessor_60": {
            "bufferView": "bufferView_103",
            "byteOffset": 27936,
            "byteStride": 12,
            "componentType": 5126,
            "count": 58,
            "max": [
                0.985485,
                0.985153,
                1
            ],
            "min": [
                -0.985464,
                -0.985118,
                0
            ],
            "type": "VEC3"
        },
        "accessor_76": {
            "bufferView": "bufferView_102",
            "byteOffset": 2682,
            "byteStride": 0,
            "componentType": 5123,
            "count": 102,
            "type": "SCALAR"
        },
        "accessor_78": {
            "bufferView": "bufferView_103",
            "byteOffset": 28632,
            "byteStride": 12,
            "componentType": 5126,
            "count": 90,
            "max": [
                63.2753,
                57.0299,
                4.64089
            ],
            "min": [
                12.2405,
                44.094,
                1.04475
            ],
            "type": "VEC3"
        },
        "accessor_80": {
            "bufferView": "bufferView_103",
            "byteOffset": 29712,
            "byteStride": 12,
            "componentType": 5126,
            "count": 90,
            "max": [
                0.999561,
                0.999551,
                1
            ],
            "min": [
                -0.999543,
                -0.999551,
                0
            ],
            "type": "VEC3"
        },
        "accessor_96": {
            "bufferView": "bufferView_102",
            "byteOffset": 2886,
            "byteStride": 0,
            "componentType": 5123,
            "count": 210,
            "type": "SCALAR"
        },
        "accessor_98": {
            "bufferView": "bufferView_103",
            "byteOffset": 30792,
            "byteStride": 12,
            "componentType": 5126,
            "count": 181,
            "max": [
                50.5346,
                23.8803,
                5.15753
            ],
            "min": [
                32.7728,
                -12.9643,
                1.22377
            ],
            "type": "VEC3"
        }
    },
    "animations": {},
    "asset": {
        "generator": "collada2gltf@cf6371beb0bdc18ba603378d5e40c966da53d385",
        "premultipliedAlpha": true,
        "profile": {
            "api": "WebGL",
            "version": "1.0.2"
        },
        "version": "1.0"
    },
    "bufferViews": {
        "bufferView_102": {
            "buffer": "\\data\\3dcity\\miami\\workspace\\gridID_13\\gridID_13_high",
            "byteLength": 3308,
            "byteOffset": 0,
            "target": 34963
        },
        "bufferView_103": {
            "buffer": "\\data\\3dcity\\miami\\workspace\\gridID_13\\gridID_13_high",
            "byteLength": 35136,
            "byteOffset": 3308,
            "target": 34962
        }
    },
    "buffers": {
        "\\data\\3dcity\\miami\\workspace\\gridID_13\\gridID_13_high": {
            "byteLength": 38444,
            "type": "arraybuffer",
            "uri": "data:application/octet-stream;base64,"
        }
    },
    "materials": {
        "__glTF__defaultMaterial0": {
            "name": "__glTF__defaultMaterial0",
            "technique": "technique0",
            "values": {
                "diffuse": [
                    1,
                    1,
                    1,
                    1
                ]
            }
        }
    },
    "meshes": {
        "multipatch_footprint_1472-mesh": {
            "name": "multipatch_footprint.1472",
            "primitives": [
                {
                    "attributes": {
                        "NORMAL": "accessor_20",
                        "POSITION": "accessor_18"
                    },
                    "indices": "accessor_16",
                    "material": "__glTF__defaultMaterial0",
                    "mode": 4
                }
            ]
        },
        "multipatch_footprint_1485-mesh": {
            "name": "multipatch_footprint.1485",
            "primitives": [
                {
                    "attributes": {
                        "NORMAL": "accessor_40",
                        "POSITION": "accessor_38"
                    },
                    "indices": "accessor_36",
                    "material": "__glTF__defaultMaterial0",
                    "mode": 4
                }
            ]
        },
        "multipatch_footprint_1490-mesh": {
            "name": "multipatch_footprint.1490",
            "primitives": [
                {
                    "attributes": {
                        "NORMAL": "accessor_60",
                        "POSITION": "accessor_58"
                    },
                    "indices": "accessor_56",
                    "material": "__glTF__defaultMaterial0",
                    "mode": 4
                }
            ]
        },
        "multipatch_footprint_1494-mesh": {
            "name": "multipatch_footprint.1494",
            "primitives": [
                {
                    "attributes": {
                        "NORMAL": "accessor_80",
                        "POSITION": "accessor_78"
                    },
                    "indices": "accessor_76",
                    "material": "__glTF__defaultMaterial0",
                    "mode": 4
                }
            ]
        },
        "multipatch_footprint_1581-mesh": {
            "name": "multipatch_footprint.1581",
            "primitives": [
                {
                    "attributes": {
                        "NORMAL": "accessor_100",
                        "POSITION": "accessor_98"
                    },
                    "indices": "accessor_96",
                    "material": "__glTF__defaultMaterial0",
                    "mode": 4
                }
            ]
        }
    },
    "nodes": {
        "gridID_13_w301761782_join": {
            "children": [],
            "matrix": [
                1,
                0,
                0,
                0,
                0,
                1,
                0,
                0,
                0,
                0,
                1,
                0,
                0.000366211,
                0.000366211,
                0,
                1
            ],
            "meshes": [
                "multipatch_footprint_1472-mesh"
            ],
            "name": "gridID_13_w301761782_join"
        },
        "gridID_13_w301761785_join": {
            "children": [],
            "matrix": [
                1,
                0,
                0,
                0,
                0,
                1,
                0,
                0,
                0,
                0,
                1,
                0,
                0.000366211,
                0.000366211,
                0,
                1
            ],
            "meshes": [
                "multipatch_footprint_1490-mesh"
            ],
            "name": "gridID_13_w301761785_join"
        },
        "gridID_13_w435576849_join": {
            "children": [],
            "matrix": [
                1,
                0,
                0,
                0,
                0,
                1,
                0,
                0,
                0,
                0,
                1,
                0,
                0.000366211,
                0.000366211,
                0,
                1
            ],
            "meshes": [
                "multipatch_footprint_1581-mesh"
            ],
            "name": "gridID_13_w435576849_join"
        },
        "gridID_13_w435577069_join": {
            "children": [],
            "matrix": [
                1,
                0,
                0,
                0,
                0,
                1,
                0,
                0,
                0,
                0,
                1,
                0,
                0.000366211,
                0.000366211,
                0,
                1
            ],
            "meshes": [
                "multipatch_footprint_1485-mesh"
            ],
            "name": "gridID_13_w435577069_join"
        },
        "gridID_13_w436134431_join": {
            "children": [],
            "matrix": [
                1,
                0,
                0,
                0,
                0,
                1,
                0,
                0,
                0,
                0,
                1,
                0,
                0.000366211,
                0.000366211,
                0,
                1
            ],
            "meshes": [
                "multipatch_footprint_1494-mesh"
            ],
            "name": "gridID_13_w436134431_join"
        },
        "node_5": {
            "children": [
                "gridID_13_w301761782_join",
                "gridID_13_w435577069_join",
                "gridID_13_w301761785_join",
                "gridID_13_w436134431_join",
                "gridID_13_w435576849_join"
            ],
            "matrix": [
                1,
                0,
                0,
                0,
                0,
                0,
                -1,
                0,
                0,
                1,
                0,
                0,
                0,
                0,
                0,
                1
            ],
            "name": "Y_UP_Transform"
        }
    },
    "programs": {
        "program_0": {
            "attributes": [
                "a_normal",
                "a_position"
            ],
            "fragmentShader": "\\data\\3dcity\\miami\\workspace\\gridID_13\\gridID_13_high0FS",
            "vertexShader": "\\data\\3dcity\\miami\\workspace\\gridID_13\\gridID_13_high0VS"
        }
    },
    "scene": "defaultScene",
    "scenes": {
        "defaultScene": {
            "nodes": [
                "node_5"
            ]
        }
    },
    "shaders": {
        "\\data\\3dcity\\miami\\workspace\\gridID_13\\gridID_13_high0FS": {
            "type": 35632,
            "uri": "data:text/plain;base64,"
        },
        "\\data\\3dcity\\miami\\workspace\\gridID_13\\gridID_13_high0VS": {
            "type": 35633,
            "uri": "data:text/plain;base64,"
        }
    },
    "skins": {},
    "techniques": {
        "technique0": {
            "attributes": {
                "a_normal": "normal",
                "a_position": "position"
            },
            "parameters": {
                "diffuse": {
                    "type": 35666
                },
                "modelViewMatrix": {
                    "semantic": "MODELVIEW",
                    "type": 35676
                },
                "normal": {
                    "semantic": "NORMAL",
                    "type": 35665
                },
                "normalMatrix": {
                    "semantic": "MODELVIEWINVERSETRANSPOSE",
                    "type": 35675
                },
                "position": {
                    "semantic": "POSITION",
                    "type": 35665
                },
                "projectionMatrix": {
                    "semantic": "PROJECTION",
                    "type": 35676
                }
            },
            "program": "program_0",
            "states": {
                "enable": [
                    2929,
                    2884
                ]
            },
            "uniforms": {
                "u_diffuse": "diffuse",
                "u_modelViewMatrix": "modelViewMatrix",
                "u_normalMatrix": "normalMatrix",
                "u_projectionMatrix": "projectionMatrix"
            }
        }
    }
}