{"accessors":{"accessor_16":{"bufferView":"bufferView_42","byteOffset":0,"byteStride":0,"componentType":5123,"count":162,"type":"SCALAR"},"accessor_18":{"bufferView":"bufferView_43","byteOffset":0,"byteStride":12,"componentType":5126,"count":144,"max":[-26.3471,-62.4674,45.1663],"min":[-133.856,-108.679,0.963959],"type":"VEC3"},"accessor_20":{"bufferView":"bufferView_43","byteOffset":1728,"byteStride":12,"componentType":5126,"count":144,"max":[0.985463,0.985117,1],"min":[-0.984375,-0.985153,0],"type":"VEC3"},"accessor_36":{"bufferView":"bufferView_42","byteOffset":324,"byteStride":0,"componentType":5123,"count":945,"type":"SCALAR"},"accessor_38":{"bufferView":"bufferView_43","byteOffset":3456,"byteStride":12,"componentType":5126,"count":871,"max":[5.76721,119.538,155.812],"min":[-70.6516,25.7528,0],"type":"VEC3"},"accessor_40":{"bufferView":"bufferView_43","byteOffset":13908,"byteStride":12,"componentType":5126,"count":871,"max":[0.999946,0.986008,1],"min":[-1,-0.99201,0],"type":"VEC3"},"accessor_b0":{"bufferView":"bufferView_b","byteOffset":0,"byteStride":0,"componentType":5123,"count":144,"type":"SCALAR"},"accessor_b1":{"bufferView":"bufferView_b","byteOffset":288,"byteStride":0,"componentType":5123,"count":871,"type":"SCALAR"}},"animations":{},"asset":{"generator":"collada2gltf@cf6371beb0bdc18ba603378d5e40c966da53d385","premultipliedAlpha":true,"profile":{"api":"WebGL","version":"1.0.2"},"version":"1.0"},"bufferViews":{"bufferView_42":{"buffer":"\\data\\3dcity\\miami\\workspace\\gridID_23\\gridID_23_high","byteLength":2216,"byteOffset":0,"target":34963},"bufferView_43":{"buffer":"\\data\\3dcity\\miami\\workspace\\gridID_23\\gridID_23_high","byteLength":24360,"byteOffset":2216,"target":34962},"bufferView_b":{"buffer":"buffer_b","byteLength":2030,"byteOffset":0,"target":34962}},"buffers":{"\\data\\3dcity\\miami\\workspace\\gridID_23\\gridID_23_high":{"byteLength":26576,"type":"arraybuffer","uri":"data:application/octet-stream;base64,"},"buffer_b":{"type":"arraybuffer","byteLength":2030,"uri":"data:application/octet-stream;base64,"}},"materials":{"__glTF__defaultMaterial0":{"name":"__glTF__defaultMaterial0","technique":"technique0","values":{"diffuse":[1,1,1,1]}}},"meshes":{"multipatch_footprint_1492-mesh":{"name":"multipatch_footprint.1492","primitives":[{"attributes":{"NORMAL":"accessor_20","POSITION":"accessor_18","BATCHID":"accessor_b0"},"indices":"accessor_16","material":"__glTF__defaultMaterial0","mode":4}]},"multipatch_footprint_1643-mesh":{"name":"multipatch_footprint.1643","primitives":[{"attributes":{"NORMAL":"accessor_40","POSITION":"accessor_38","BATCHID":"accessor_b1"},"indices":"accessor_36","material":"__glTF__defaultMaterial0","mode":4}]}},"nodes":{"gridID_23_w300492235_join":{"children":[],"matrix":[1,0,0,0,0,1,0,0,0,0,1,0,0.000366211,0.000335693,0,1],"meshes":["multipatch_footprint_1643-mesh"],"name":"gridID_23_w300492235_join"},"gridID_23_w301823538_join":{"children":[],"matrix":[1,0,0,0,0,1,0,0,0,0,1,0,0.000366211,0.000335693,0,1],"meshes":["multipatch_footprint_1492-mesh"],"name":"gridID_23_w301823538_join"},"node_2":{"children":["gridID_23_w301823538_join","gridID_23_w300492235_join"],"matrix":[1,0,0,0,0,0,-1,0,0,1,0,0,0,0,0,1],"name":"Y_UP_Transform"}},"programs":{"program_0":{"attributes":["a_normal","a_position","a_batchId"],"fragmentShader":"\\data\\3dcity\\miami\\workspace\\gridID_23\\gridID_23_high0FS","vertexShader":"\\data\\3dcity\\miami\\workspace\\gridID_23\\gridID_23_high0VS"}},"scene":"defaultScene","scenes":{"defaultScene":{"nodes":["node_2"]}},"shaders":{"\\data\\3dcity\\miami\\workspace\\gridID_23\\gridID_23_high0FS":{"type":35632,"uri":"data:text/plain;base64,"},"\\data\\3dcity\\miami\\workspace\\gridID_23\\gridID_23_high0VS":{"type":35633,"uri":"data:text/plain;base64,"}},"skins":{},"techniques":{"technique0":{"attributes":{"a_normal":"normal","a_position":"position","a_batchId":"batchId"},"parameters":{"diffuse":{"type":35666},"modelViewMatrix":{"semantic":"MODELVIEW","type":35676},"normal":{"semantic":"NORMAL","type":35665},"normalMatrix":{"semantic":"MODELVIEWINVERSETRANSPOSE","type":35675},"position":{"semantic":"POSITION","type":35665},"projectionMatrix":{"semantic":"PROJECTION","type":35676},"batchId":{"semantic":"BATCHID","type":5126}},"program":"program_0","states":{"enable":[2929,2884]},"uniforms":{"u_diffuse":"diffuse","u_modelViewMatrix":"modelViewMatrix","u_normalMatrix":"normalMatrix","u_projectionMatrix":"projectionMatrix"}}}}