{
    "accessors": {
        "accessor_16": {
            "bufferView": "bufferView_42",
            "byteOffset": 0,
            "byteStride": 0,
            "componentType": 5123,
            "count": 36,
            "type": "SCALAR"
        },
        "accessor_18": {
            "bufferView": "bufferView_43",
            "byteOffset": 0,
            "byteStride": 12,
            "componentType": 5126,
            "count": 32,
            "max": [
                88.2529,
                98,
                49.6511
            ],
            "min": [
                -1.63756,
                0,
                -23.6988
            ],
            "type": "VEC3"
        },
        "accessor_20": {
            "bufferView": "bufferView_43",
            "byteOffset": 384,
            "byteStride": 12,
            "componentType": 5126,
            "count": 32,
            "max": [
                0.972458,
                1,
                0.97241
            ],
            "min": [
                -0.972413,
                -1,
                -0.972402
            ],
            "type": "VEC3"
        },
        "accessor_36": {
            "bufferView": "bufferView_42",
            "byteOffset": 72,
            "byteStride": 0,
            "componentType": 5123,
            "count": 144,
            "type": "SCALAR"
        },
        "accessor_38": {
            "bufferView": "bufferView_43",
            "byteOffset": 768,
            "byteStride": 12,
            "componentType": 5126,
            "count": 115,
            "max": [
                102.468,
                119,
                -39.731
            ],
            "min": [
                22.0067,
                0,
                -94.8241
            ],
            "type": "VEC3"
        },
        "accessor_40": {
            "bufferView": "bufferView_43",
            "byteOffset": 2148,
            "byteStride": 12,
            "componentType": 5126,
            "count": 115,
            "max": [
                0.970871,
                1,
                0.969356
            ],
            "min": [
                -0.976078,
                -1,
                -0.975372
            ],
            "type": "VEC3"
        }
    },
    "animations": {},
    "asset": {
        "generator": "collada2gltf@cf6371beb0bdc18ba603378d5e40c966da53d385",
        "premultipliedAlpha": true,
        "profile": {
            "api": "WebGL",
            "version": "1.0.2"
        },
        "version": "1.0"
    },
    "bufferViews": {
        "bufferView_42": {
            "buffer": "\\data\\3dcity\\miami\\workspace\\gridID_67\\gridID_67",
            "byteLength": 360,
            "byteOffset": 0,
            "target": 34963
        },
        "bufferView_43": {
            "buffer": "\\data\\3dcity\\miami\\workspace\\gridID_67\\gridID_67",
            "byteLength": 3528,
            "byteOffset": 360,
            "target": 34962
        }
    },
    "buffers": {
        "\\data\\3dcity\\miami\\workspace\\gridID_67\\gridID_67": {
            "byteLength": 3888,
            "type": "arraybuffer",
            "uri": "data:application/octet-stream;base64,"
        }
    },
    "materials": {
        "CityEngineMaterial_606-effect": {
            "name": "CityEngineMaterial_606",
            "technique": "technique0",
            "values": {
                "ambient": [
                    1,
                    1,
                    1,
                    1
                ],
                "diffuse": [
                    1,
                    1,
                    1,
                    1
                ],
                "emission": [
                    0,
                    0,
                    0,
                    1
                ],
                "shininess": 50,
                "specular": [
                    0.5,
                    0.5,
                    0.5,
                    1
                ]
            }
        },
        "CityEngineMaterial_607-effect": {
            "name": "CityEngineMaterial_607",
            "technique": "technique0",
            "values": {
                "ambient": [
                    1,
                    1,
                    1,
                    1
                ],
                "diffuse": [
                    1,
                    1,
                    1,
                    1
                ],
                "emission": [
                    0,
                    0,
                    0,
                    1
                ],
                "shininess": 50,
                "specular": [
                    0.5,
                    0.5,
                    0.5,
                    1
                ]
            }
        }
    },
    "meshes": {
        "mesh_CityEngineMaterial_604-mesh": {
            "name": "mesh_CityEngineMaterial.604",
            "primitives": [
                {
                    "attributes": {
                        "NORMAL": "accessor_20",
                        "POSITION": "accessor_18"
                    },
                    "indices": "accessor_16",
                    "material": "CityEngineMaterial_606-effect",
                    "mode": 4
                }
            ]
        },
        "mesh_CityEngineMaterial_605-mesh": {
            "name": "mesh_CityEngineMaterial.605",
            "primitives": [
                {
                    "attributes": {
                        "NORMAL": "accessor_40",
                        "POSITION": "accessor_38"
                    },
                    "indices": "accessor_36",
                    "material": "CityEngineMaterial_607-effect",
                    "mode": 4
                }
            ]
        }
    },
    "nodes": {
        "CityEngineMaterial": {
            "children": [],
            "matrix": [
                1,
                0,
                0,
                0,
                0,
                -1.62921e-007,
                1,
                0,
                0,
                -1,
                -1.62921e-007,
                0,
                0,
                0,
                0,
                1
            ],
            "meshes": [
                "mesh_CityEngineMaterial_604-mesh"
            ],
            "name": "CityEngineMaterial"
        },
        "CityEngineMaterial_001": {
            "children": [],
            "matrix": [
                1,
                0,
                0,
                0,
                0,
                -1.62921e-007,
                1,
                0,
                0,
                -1,
                -1.62921e-007,
                0,
                0,
                0,
                0,
                1
            ],
            "meshes": [
                "mesh_CityEngineMaterial_605-mesh"
            ],
            "name": "CityEngineMaterial_001"
        },
        "node_2": {
            "children": [
                "CityEngineMaterial",
                "CityEngineMaterial_001"
            ],
            "matrix": [
                1,
                0,
                0,
                0,
                0,
                0,
                -1,
                0,
                0,
                1,
                0,
                0,
                0,
                0,
                0,
                1
            ],
            "name": "Y_UP_Transform"
        }
    },
    "programs": {
        "program_0": {
            "attributes": [
                "a_normal",
                "a_position"
            ],
            "fragmentShader": "\\data\\3dcity\\miami\\workspace\\gridID_67\\gridID_670FS",
            "vertexShader": "\\data\\3dcity\\miami\\workspace\\gridID_67\\gridID_670VS"
        }
    },
    "scene": "defaultScene",
    "scenes": {
        "defaultScene": {
            "nodes": [
                "node_2"
            ]
        }
    },
    "shaders": {
        "\\data\\3dcity\\miami\\workspace\\gridID_67\\gridID_670FS": {
            "type": 35632,
            "uri": "data:text/plain;base64,"
        },
        "\\data\\3dcity\\miami\\workspace\\gridID_67\\gridID_670VS": {
            "type": 35633,
            "uri": "data:text/plain;base64,"
        }
    },
    "skins": {},
    "techniques": {
        "technique0": {
            "attributes": {
                "a_normal": "normal",
                "a_position": "position"
            },
            "parameters": {
                "ambient": {
                    "type": 35666
                },
                "diffuse": {
                    "type": 35666
                },
                "emission": {
                    "type": 35666
                },
                "modelViewMatrix": {
                    "semantic": "MODELVIEW",
                    "type": 35676
                },
                "normal": {
                    "semantic": "NORMAL",
                    "type": 35665
                },
                "normalMatrix": {
                    "semantic": "MODELVIEWINVERSETRANSPOSE",
                    "type": 35675
                },
                "position": {
                    "semantic": "POSITION",
                    "type": 35665
                },
                "projectionMatrix": {
                    "semantic": "PROJECTION",
                    "type": 35676
                },
                "shininess": {
                    "type": 5126
                },
                "specular": {
                    "type": 35666
                }
            },
            "program": "program_0",
            "states": {
                "enable": [
                    2929,
                    2884
                ]
            },
            "uniforms": {
                "u_ambient": "ambient",
                "u_diffuse": "diffuse",
                "u_emission": "emission",
                "u_modelViewMatrix": "modelViewMatrix",
                "u_normalMatrix": "normalMatrix",
                "u_projectionMatrix": "projectionMatrix",
                "u_shininess": "shininess",
                "u_specular": "specular"
            }
        }
    }
}