{
    "accessors": {
        "accessor_16": {
            "bufferView": "bufferView_82",
            "byteOffset": 12792,
            "byteStride": 0,
            "componentType": 5123,
            "count": 909,
            "type": "SCALAR"
        },
        "accessor_18": {
            "bufferView": "bufferView_83",
            "byteOffset": 137352,
            "byteStride": 12,
            "componentType": 5126,
            "count": 817,
            "max": [
                -6.96439,
                111.138,
                63.7204
            ],
            "min": [
                -119.662,
                -25.3895,
                0
            ],
            "type": "VEC3"
        },
        "accessor_20": {
            "bufferView": "bufferView_83",
            "byteOffset": 147156,
            "byteStride": 12,
            "componentType": 5126,
            "count": 817,
            "max": [
                0.97309,
                0.972521,
                1
            ],
            "min": [
                -0.97309,
                -0.972521,
                0
            ],
            "type": "VEC3"
        },
        "accessor_36": {
            "bufferView": "bufferView_82",
            "byteOffset": 0,
            "byteStride": 0,
            "componentType": 5123,
            "count": 2742,
            "type": "SCALAR"
        },
        "accessor_38": {
            "bufferView": "bufferView_83",
            "byteOffset": 0,
            "byteStride": 12,
            "componentType": 5126,
            "count": 2463,
            "max": [
                29.179,
                -39.4765,
                123.594
            ],
            "min": [
                -146.353,
                -101.906,
                0.0316429
            ],
            "type": "VEC3"
        },
        "accessor_40": {
            "bufferView": "bufferView_83",
            "byteOffset": 29556,
            "byteStride": 12,
            "componentType": 5126,
            "count": 2463,
            "max": [
                0.999943,
                0.999981,
                1
            ],
            "min": [
                -0.999949,
                -0.999992,
                0
            ],
            "type": "VEC3"
        },
        "accessor_56": {
            "bufferView": "bufferView_82",
            "byteOffset": 5484,
            "byteStride": 0,
            "componentType": 5123,
            "count": 30,
            "type": "SCALAR"
        },
        "accessor_58": {
            "bufferView": "bufferView_83",
            "byteOffset": 59112,
            "byteStride": 12,
            "componentType": 5126,
            "count": 28,
            "max": [
                28.7346,
                -39.2345,
                30.9528
            ],
            "min": [
                2.16345,
                -48.5389,
                0.92569
            ],
            "type": "VEC3"
        },
        "accessor_60": {
            "bufferView": "bufferView_83",
            "byteOffset": 59448,
            "byteStride": 12,
            "componentType": 5126,
            "count": 28,
            "max": [
                0.969971,
                0.990638,
                1
            ],
            "min": [
                -0.985455,
                -0.970605,
                0
            ],
            "type": "VEC3"
        },
        "accessor_76": {
            "bufferView": "bufferView_82",
            "byteOffset": 5544,
            "byteStride": 0,
            "componentType": 5123,
            "count": 3624,
            "type": "SCALAR"
        },
        "accessor_78": {
            "bufferView": "bufferView_83",
            "byteOffset": 59784,
            "byteStride": 12,
            "componentType": 5126,
            "count": 3232,
            "max": [
                47.0331,
                44.1638,
                126.199
            ],
            "min": [
                -133.197,
                -43.5382,
                0.504444
            ],
            "type": "VEC3"
        },
        "accessor_80": {
            "bufferView": "bufferView_83",
            "byteOffset": 98568,
            "byteStride": 12,
            "componentType": 5126,
            "count": 3232,
            "max": [
                0.999843,
                0.990927,
                1
            ],
            "min": [
                -0.999874,
                -0.990638,
                -1
            ],
            "type": "VEC3"
        }
    },
    "animations": {},
    "asset": {
        "generator": "collada2gltf@cf6371beb0bdc18ba603378d5e40c966da53d385",
        "premultipliedAlpha": true,
        "profile": {
            "api": "WebGL",
            "version": "1.0.2"
        },
        "version": "1.0"
    },
    "bufferViews": {
        "bufferView_82": {
            "buffer": "\\data\\3dcity\\miami\\workspace\\gridID_40\\gridID_40_high",
            "byteLength": 14612,
            "byteOffset": 0,
            "target": 34963
        },
        "bufferView_83": {
            "buffer": "\\data\\3dcity\\miami\\workspace\\gridID_40\\gridID_40_high",
            "byteLength": 156960,
            "byteOffset": 14612,
            "target": 34962
        }
    },
    "buffers": {
        "\\data\\3dcity\\miami\\workspace\\gridID_40\\gridID_40_high": {
            "byteLength": 171572,
            "type": "arraybuffer",
            "uri": "data:application/octet-stream;base64,"
        }
    },
    "materials": {
        "__glTF__defaultMaterial0": {
            "name": "__glTF__defaultMaterial0",
            "technique": "technique0",
            "values": {
                "diffuse": [
                    1,
                    1,
                    1,
                    1
                ]
            }
        }
    },
    "meshes": {
        "multipatch_footprint_1063-mesh": {
            "name": "multipatch_footprint.1063",
            "primitives": [
                {
                    "attributes": {
                        "NORMAL": "accessor_40",
                        "POSITION": "accessor_38"
                    },
                    "indices": "accessor_36",
                    "material": "__glTF__defaultMaterial0",
                    "mode": 4
                }
            ]
        },
        "multipatch_footprint_1065-mesh": {
            "name": "multipatch_footprint.1065",
            "primitives": [
                {
                    "attributes": {
                        "NORMAL": "accessor_60",
                        "POSITION": "accessor_58"
                    },
                    "indices": "accessor_56",
                    "material": "__glTF__defaultMaterial0",
                    "mode": 4
                }
            ]
        },
        "multipatch_footprint_1066-mesh": {
            "name": "multipatch_footprint.1066",
            "primitives": [
                {
                    "attributes": {
                        "NORMAL": "accessor_80",
                        "POSITION": "accessor_78"
                    },
                    "indices": "accessor_76",
                    "material": "__glTF__defaultMaterial0",
                    "mode": 4
                }
            ]
        },
        "multipatch_footprint_995-mesh": {
            "name": "multipatch_footprint.995",
            "primitives": [
                {
                    "attributes": {
                        "NORMAL": "accessor_20",
                        "POSITION": "accessor_18"
                    },
                    "indices": "accessor_16",
                    "material": "__glTF__defaultMaterial0",
                    "mode": 4
                }
            ]
        }
    },
    "nodes": {
        "gridID_40_w300247845_join": {
            "children": [],
            "matrix": [
                1,
                0,
                0,
                0,
                0,
                1,
                0,
                0,
                0,
                0,
                1,
                0,
                0.000366211,
                0.000339508,
                0,
                1
            ],
            "meshes": [
                "multipatch_footprint_1063-mesh"
            ],
            "name": "gridID_40_w300247845_join"
        },
        "gridID_40_w300247847_join": {
            "children": [],
            "matrix": [
                1,
                0,
                0,
                0,
                0,
                1,
                0,
                0,
                0,
                0,
                1,
                0,
                0.000366211,
                0.000339508,
                0,
                1
            ],
            "meshes": [
                "multipatch_footprint_1065-mesh"
            ],
            "name": "gridID_40_w300247847_join"
        },
        "gridID_40_w300247852_join": {
            "children": [],
            "matrix": [
                1,
                0,
                0,
                0,
                0,
                1,
                0,
                0,
                0,
                0,
                1,
                0,
                0.000366211,
                0.000339508,
                0,
                1
            ],
            "meshes": [
                "multipatch_footprint_1066-mesh"
            ],
            "name": "gridID_40_w300247852_join"
        },
        "gridID_40_w300506905_join": {
            "children": [],
            "matrix": [
                1,
                0,
                0,
                0,
                0,
                1,
                0,
                0,
                0,
                0,
                1,
                0,
                0.000366211,
                0.000339508,
                0,
                1
            ],
            "meshes": [
                "multipatch_footprint_995-mesh"
            ],
            "name": "gridID_40_w300506905_join"
        },
        "node_4": {
            "children": [
                "gridID_40_w300506905_join",
                "gridID_40_w300247845_join",
                "gridID_40_w300247847_join",
                "gridID_40_w300247852_join"
            ],
            "matrix": [
                1,
                0,
                0,
                0,
                0,
                0,
                -1,
                0,
                0,
                1,
                0,
                0,
                0,
                0,
                0,
                1
            ],
            "name": "Y_UP_Transform"
        }
    },
    "programs": {
        "program_0": {
            "attributes": [
                "a_normal",
                "a_position"
            ],
            "fragmentShader": "\\data\\3dcity\\miami\\workspace\\gridID_40\\gridID_40_high0FS",
            "vertexShader": "\\data\\3dcity\\miami\\workspace\\gridID_40\\gridID_40_high0VS"
        }
    },
    "scene": "defaultScene",
    "scenes": {
        "defaultScene": {
            "nodes": [
                "node_4"
            ]
        }
    },
    "shaders": {
        "\\data\\3dcity\\miami\\workspace\\gridID_40\\gridID_40_high0FS": {
            "type": 35632,
            "uri": "data:text/plain;base64,"
        },
        "\\data\\3dcity\\miami\\workspace\\gridID_40\\gridID_40_high0VS": {
            "type": 35633,
            "uri": "data:text/plain;base64,"
        }
    },
    "skins": {},
    "techniques": {
        "technique0": {
            "attributes": {
                "a_normal": "normal",
                "a_position": "position"
            },
            "parameters": {
                "diffuse": {
                    "type": 35666
                },
                "modelViewMatrix": {
                    "semantic": "MODELVIEW",
                    "type": 35676
                },
                "normal": {
                    "semantic": "NORMAL",
                    "type": 35665
                },
                "normalMatrix": {
                    "semantic": "MODELVIEWINVERSETRANSPOSE",
                    "type": 35675
                },
                "position": {
                    "semantic": "POSITION",
                    "type": 35665
                },
                "projectionMatrix": {
                    "semantic": "PROJECTION",
                    "type": 35676
                }
            },
            "program": "program_0",
            "states": {
                "enable": [
                    2929,
                    2884
                ]
            },
            "uniforms": {
                "u_diffuse": "diffuse",
                "u_modelViewMatrix": "modelViewMatrix",
                "u_normalMatrix": "normalMatrix",
                "u_projectionMatrix": "projectionMatrix"
            }
        }
    }
}