{"accessors":{"accessor_16":{"bufferView":"bufferView_62","byteOffset":0,"byteStride":0,"componentType":5123,"count":342,"type":"SCALAR"},"accessor_18":{"bufferView":"bufferView_63","byteOffset":0,"byteStride":12,"componentType":5126,"count":323,"max":[-40.7317,94.2081,27.4854],"min":[-64.81,65.1198,4.20524],"type":"VEC3"},"accessor_20":{"bufferView":"bufferView_63","byteOffset":3876,"byteStride":12,"componentType":5126,"count":323,"max":[0.999656,0.999991,1],"min":[-0.999996,-0.999991,0],"type":"VEC3"},"accessor_36":{"bufferView":"bufferView_62","byteOffset":684,"byteStride":0,"componentType":5123,"count":282,"type":"SCALAR"},"accessor_38":{"bufferView":"bufferView_63","byteOffset":7752,"byteStride":12,"componentType":5126,"count":263,"max":[79.7917,-18.8391,15.0834],"min":[61.7167,-57.8482,5.21831],"type":"VEC3"},"accessor_40":{"bufferView":"bufferView_63","byteOffset":10908,"byteStride":12,"componentType":5126,"count":263,"max":[0.999856,0.999522,1],"min":[-0.999532,-0.999522,0],"type":"VEC3"},"accessor_56":{"bufferView":"bufferView_62","byteOffset":1248,"byteStride":0,"componentType":5123,"count":57,"type":"SCALAR"},"accessor_58":{"bufferView":"bufferView_63","byteOffset":14064,"byteStride":12,"componentType":5126,"count":55,"max":[55.4758,-18.5496,11.8677],"min":[39.7341,-41.9261,5.2701],"type":"VEC3"},"accessor_60":{"bufferView":"bufferView_63","byteOffset":14724,"byteStride":12,"componentType":5126,"count":55,"max":[0.999665,0.999582,1],"min":[-0.999747,-0.999995,0],"type":"VEC3"},"accessor_b0":{"bufferView":"bufferView_b","byteOffset":0,"byteStride":0,"componentType":5123,"count":323,"type":"SCALAR"},"accessor_b1":{"bufferView":"bufferView_b","byteOffset":646,"byteStride":0,"componentType":5123,"count":263,"type":"SCALAR"},"accessor_b2":{"bufferView":"bufferView_b","byteOffset":1172,"byteStride":0,"componentType":5123,"count":55,"type":"SCALAR"}},"animations":{},"asset":{"generator":"collada2gltf@cf6371beb0bdc18ba603378d5e40c966da53d385","premultipliedAlpha":true,"profile":{"api":"WebGL","version":"1.0.2"},"version":"1.0"},"bufferViews":{"bufferView_62":{"buffer":"\\data\\3dcity\\miami\\workspace\\gridID_18\\gridID_18_high","byteLength":1364,"byteOffset":0,"target":34963},"bufferView_63":{"buffer":"\\data\\3dcity\\miami\\workspace\\gridID_18\\gridID_18_high","byteLength":15384,"byteOffset":1364,"target":34962},"bufferView_b":{"buffer":"buffer_b","byteLength":1282,"byteOffset":0,"target":34962}},"buffers":{"\\data\\3dcity\\miami\\workspace\\gridID_18\\gridID_18_high":{"byteLength":16748,"type":"arraybuffer","uri":"data:application/octet-stream;base64,"},"buffer_b":{"type":"arraybuffer","byteLength":1282,"uri":"data:application/octet-stream;base64,"}},"materials":{"__glTF__defaultMaterial0":{"name":"__glTF__defaultMaterial0","technique":"technique0","values":{"diffuse":[1,1,1,1]}}},"meshes":{"multipatch_footprint_240-mesh":{"name":"multipatch_footprint.240","primitives":[{"attributes":{"NORMAL":"accessor_20","POSITION":"accessor_18","BATCHID":"accessor_b0"},"indices":"accessor_16","material":"__glTF__defaultMaterial0","mode":4}]},"multipatch_footprint_272-mesh":{"name":"multipatch_footprint.272","primitives":[{"attributes":{"NORMAL":"accessor_40","POSITION":"accessor_38","BATCHID":"accessor_b1"},"indices":"accessor_36","material":"__glTF__defaultMaterial0","mode":4}]},"multipatch_footprint_274-mesh":{"name":"multipatch_footprint.274","primitives":[{"attributes":{"NORMAL":"accessor_60","POSITION":"accessor_58","BATCHID":"accessor_b2"},"indices":"accessor_56","material":"__glTF__defaultMaterial0","mode":4}]}},"nodes":{"gridID_18_w436030679_join":{"children":[],"matrix":[1,0,0,0,0,1,0,0,0,0,1,0,0.00038147,0.000335693,0,1],"meshes":["multipatch_footprint_272-mesh"],"name":"gridID_18_w436030679_join"},"gridID_18_w436033856_join":{"children":[],"matrix":[1,0,0,0,0,1,0,0,0,0,1,0,0.00038147,0.000335693,0,1],"meshes":["multipatch_footprint_274-mesh"],"name":"gridID_18_w436033856_join"},"gridID_18_w436124881_join":{"children":[],"matrix":[1,0,0,0,0,1,0,0,0,0,1,0,0.00038147,0.000335693,0,1],"meshes":["multipatch_footprint_240-mesh"],"name":"gridID_18_w436124881_join"},"node_3":{"children":["gridID_18_w436124881_join","gridID_18_w436030679_join","gridID_18_w436033856_join"],"matrix":[1,0,0,0,0,0,-1,0,0,1,0,0,0,0,0,1],"name":"Y_UP_Transform"}},"programs":{"program_0":{"attributes":["a_normal","a_position","a_batchId"],"fragmentShader":"\\data\\3dcity\\miami\\workspace\\gridID_18\\gridID_18_high0FS","vertexShader":"\\data\\3dcity\\miami\\workspace\\gridID_18\\gridID_18_high0VS"}},"scene":"defaultScene","scenes":{"defaultScene":{"nodes":["node_3"]}},"shaders":{"\\data\\3dcity\\miami\\workspace\\gridID_18\\gridID_18_high0FS":{"type":35632,"uri":"data:text/plain;base64,"},"\\data\\3dcity\\miami\\workspace\\gridID_18\\gridID_18_high0VS":{"type":35633,"uri":"data:text/plain;base64,"}},"skins":{},"techniques":{"technique0":{"attributes":{"a_normal":"normal","a_position":"position","a_batchId":"batchId"},"parameters":{"diffuse":{"type":35666},"modelViewMatrix":{"semantic":"MODELVIEW","type":35676},"normal":{"semantic":"NORMAL","type":35665},"normalMatrix":{"semantic":"MODELVIEWINVERSETRANSPOSE","type":35675},"position":{"semantic":"POSITION","type":35665},"projectionMatrix":{"semantic":"PROJECTION","type":35676},"batchId":{"semantic":"BATCHID","type":5126}},"program":"program_0","states":{"enable":[2929,2884]},"uniforms":{"u_diffuse":"diffuse","u_modelViewMatrix":"modelViewMatrix","u_normalMatrix":"normalMatrix","u_projectionMatrix":"projectionMatrix"}}}}