{
    "accessors": {
        "accessor_100": {
            "bufferView": "bufferView_158",
            "byteOffset": 720,
            "byteStride": 12,
            "componentType": 5126,
            "count": 20,
            "max": [
                0.954727,
                1,
                0.953839
            ],
            "min": [
                -0.954078,
                0,
                -0.954245
            ],
            "type": "VEC3"
        },
        "accessor_116": {
            "bufferView": "bufferView_157",
            "byteOffset": 378,
            "byteStride": 0,
            "componentType": 5123,
            "count": 36,
            "type": "SCALAR"
        },
        "accessor_118": {
            "bufferView": "bufferView_158",
            "byteOffset": 3360,
            "byteStride": 12,
            "componentType": 5126,
            "count": 24,
            "max": [
                0.174927,
                1,
                0.496368
            ],
            "min": [
                -0.174988,
                -1,
                -0.496368
            ],
            "type": "VEC3"
        },
        "accessor_120": {
            "bufferView": "bufferView_158",
            "byteOffset": 3648,
            "byteStride": 12,
            "componentType": 5126,
            "count": 24,
            "max": [
                0.96742,
                1,
                0.96739
            ],
            "min": [
                -0.96742,
                -1,
                -0.96739
            ],
            "type": "VEC3"
        },
        "accessor_148": {
            "bufferView": "bufferView_157",
            "byteOffset": 0,
            "byteStride": 0,
            "componentType": 5123,
            "count": 24,
            "type": "SCALAR"
        },
        "accessor_151": {
            "bufferView": "bufferView_157",
            "byteOffset": 48,
            "byteStride": 0,
            "componentType": 5123,
            "count": 6,
            "type": "SCALAR"
        },
        "accessor_153": {
            "bufferView": "bufferView_158",
            "byteOffset": 0,
            "byteStride": 12,
            "componentType": 5126,
            "count": 20,
            "max": [
                2.11774,
                1.25,
                1.71152
            ],
            "min": [
                -2.11829,
                -1.25,
                -1.70547
            ],
            "type": "VEC3"
        },
        "accessor_155": {
            "bufferView": "bufferView_158",
            "byteOffset": 240,
            "byteStride": 12,
            "componentType": 5126,
            "count": 20,
            "max": [
                0.963086,
                1,
                0.962598
            ],
            "min": [
                -0.963331,
                0,
                -0.963461
            ],
            "type": "VEC3"
        },
        "accessor_52": {
            "bufferView": "bufferView_157",
            "byteOffset": 120,
            "byteStride": 0,
            "componentType": 5123,
            "count": 30,
            "type": "SCALAR"
        },
        "accessor_55": {
            "bufferView": "bufferView_157",
            "byteOffset": 180,
            "byteStride": 0,
            "componentType": 5123,
            "count": 72,
            "type": "SCALAR"
        },
        "accessor_58": {
            "bufferView": "bufferView_157",
            "byteOffset": 324,
            "byteStride": 0,
            "componentType": 5123,
            "count": 15,
            "type": "SCALAR"
        },
        "accessor_61": {
            "bufferView": "bufferView_157",
            "byteOffset": 354,
            "byteStride": 0,
            "componentType": 5123,
            "count": 12,
            "type": "SCALAR"
        },
        "accessor_63": {
            "bufferView": "bufferView_158",
            "byteOffset": 960,
            "byteStride": 12,
            "componentType": 5126,
            "count": 100,
            "max": [
                6.9238,
                1.63461,
                18.965
            ],
            "min": [
                -9.24921,
                -1.86538,
                -18.361
            ],
            "type": "VEC3"
        },
        "accessor_65": {
            "bufferView": "bufferView_158",
            "byteOffset": 2160,
            "byteStride": 12,
            "componentType": 5126,
            "count": 100,
            "max": [
                0.967477,
                1,
                0.967903
            ],
            "min": [
                -0.967432,
                -1,
                -0.976811
            ],
            "type": "VEC3"
        },
        "accessor_93": {
            "bufferView": "bufferView_157",
            "byteOffset": 60,
            "byteStride": 0,
            "componentType": 5123,
            "count": 24,
            "type": "SCALAR"
        },
        "accessor_96": {
            "bufferView": "bufferView_157",
            "byteOffset": 108,
            "byteStride": 0,
            "componentType": 5123,
            "count": 6,
            "type": "SCALAR"
        },
        "accessor_98": {
            "bufferView": "bufferView_158",
            "byteOffset": 480,
            "byteStride": 12,
            "componentType": 5126,
            "count": 20,
            "max": [
                2.0155,
                1.25,
                2.46625
            ],
            "min": [
                -2.02048,
                -1.25,
                -2.46576
            ],
            "type": "VEC3"
        }
    },
    "animations": {},
    "asset": {
        "generator": "collada2gltf@cf6371beb0bdc18ba603378d5e40c966da53d385",
        "premultipliedAlpha": true,
        "profile": {
            "api": "WebGL",
            "version": "1.0.2"
        },
        "version": "1.0"
    },
    "bufferViews": {
        "bufferView_157": {
            "buffer": "\\data\\ECNU\\workspace\\gridID_80\\gridID_80",
            "byteLength": 452,
            "byteOffset": 0,
            "target": 34963
        },
        "bufferView_158": {
            "buffer": "\\data\\ECNU\\workspace\\gridID_80\\gridID_80",
            "byteLength": 3936,
            "byteOffset": 452,
            "target": 34962
        }
    },
    "buffers": {
        "\\data\\ECNU\\workspace\\gridID_80\\gridID_80": {
            "byteLength": 4388,
            "type": "arraybuffer",
            "uri": "data:application/octet-stream;base64,"
        }
    },
    "materials": {
        "BUILDING_DEFAULT_0-effect": {
            "name": "BUILDING_DEFAULT_0",
            "technique": "technique0",
            "values": {
                "ambient": [
                    0,
                    0,
                    0,
                    1
                ],
                "diffuse": [
                    0.723055,
                    0.708376,
                    0.672443,
                    1
                ],
                "emission": [
                    0,
                    0,
                    0,
                    1
                ],
                "shininess": 50,
                "specular": [
                    0.5,
                    0.5,
                    0.5,
                    1
                ]
            }
        },
        "CONCRETE_0-effect": {
            "name": "CONCRETE_0",
            "technique": "technique0",
            "values": {
                "ambient": [
                    0,
                    0,
                    0,
                    1
                ],
                "diffuse": [
                    0.309469,
                    0.327778,
                    0.309469,
                    1
                ],
                "emission": [
                    0,
                    0,
                    0,
                    1
                ],
                "shininess": 50,
                "specular": [
                    0.5,
                    0.5,
                    0.5,
                    1
                ]
            }
        },
        "ENTRANCE_DEFAULT_0-effect": {
            "name": "ENTRANCE_DEFAULT_0",
            "technique": "technique0",
            "values": {
                "ambient": [
                    0,
                    0,
                    0,
                    1
                ],
                "diffuse": [
                    0.101961,
                    0,
                    0,
                    1
                ],
                "emission": [
                    0,
                    0,
                    0,
                    1
                ],
                "shininess": 50,
                "specular": [
                    0.5,
                    0.5,
                    0.5,
                    1
                ]
            }
        },
        "GLASS_0-effect": {
            "name": "GLASS_0",
            "technique": "technique0",
            "values": {
                "ambient": [
                    0,
                    0,
                    0,
                    1
                ],
                "diffuse": [
                    0.491021,
                    0.665387,
                    0.658375,
                    1
                ],
                "emission": [
                    0,
                    0,
                    0,
                    1
                ],
                "shininess": 50,
                "specular": [
                    0.5,
                    0.5,
                    0.5,
                    1
                ]
            }
        },
        "ROOF_DEFAULT_0-effect": {
            "name": "ROOF_DEFAULT_0",
            "technique": "technique0",
            "values": {
                "ambient": [
                    0,
                    0,
                    0,
                    1
                ],
                "diffuse": [
                    0.603827,
                    0.381326,
                    0.291771,
                    1
                ],
                "emission": [
                    0,
                    0,
                    0,
                    1
                ],
                "shininess": 50,
                "specular": [
                    0.5,
                    0.5,
                    0.5,
                    1
                ]
            }
        }
    },
    "meshes": {
        "Building3518-mesh": {
            "name": "Building3518",
            "primitives": [
                {
                    "attributes": {
                        "NORMAL": "accessor_155",
                        "POSITION": "accessor_153"
                    },
                    "indices": "accessor_148",
                    "material": "BUILDING_DEFAULT_0-effect",
                    "mode": 4
                },
                {
                    "attributes": {
                        "NORMAL": "accessor_155",
                        "POSITION": "accessor_153"
                    },
                    "indices": "accessor_151",
                    "material": "CONCRETE_0-effect",
                    "mode": 4
                }
            ]
        },
        "Building3591-mesh": {
            "name": "Building3591",
            "primitives": [
                {
                    "attributes": {
                        "NORMAL": "accessor_100",
                        "POSITION": "accessor_98"
                    },
                    "indices": "accessor_93",
                    "material": "BUILDING_DEFAULT_0-effect",
                    "mode": 4
                },
                {
                    "attributes": {
                        "NORMAL": "accessor_100",
                        "POSITION": "accessor_98"
                    },
                    "indices": "accessor_96",
                    "material": "CONCRETE_0-effect",
                    "mode": 4
                }
            ]
        },
        "Building3655-mesh": {
            "name": "Building3655",
            "primitives": [
                {
                    "attributes": {
                        "NORMAL": "accessor_65",
                        "POSITION": "accessor_63"
                    },
                    "indices": "accessor_52",
                    "material": "GLASS_0-effect",
                    "mode": 4
                },
                {
                    "attributes": {
                        "NORMAL": "accessor_65",
                        "POSITION": "accessor_63"
                    },
                    "indices": "accessor_55",
                    "material": "BUILDING_DEFAULT_0-effect",
                    "mode": 4
                },
                {
                    "attributes": {
                        "NORMAL": "accessor_65",
                        "POSITION": "accessor_63"
                    },
                    "indices": "accessor_58",
                    "material": "ROOF_DEFAULT_0-effect",
                    "mode": 4
                },
                {
                    "attributes": {
                        "NORMAL": "accessor_65",
                        "POSITION": "accessor_63"
                    },
                    "indices": "accessor_61",
                    "material": "CONCRETE_0-effect",
                    "mode": 4
                }
            ]
        },
        "BuildingEntrance1006-mesh": {
            "name": "BuildingEntrance1006",
            "primitives": [
                {
                    "attributes": {
                        "NORMAL": "accessor_120",
                        "POSITION": "accessor_118"
                    },
                    "indices": "accessor_116",
                    "material": "ENTRANCE_DEFAULT_0-effect",
                    "mode": 4
                }
            ]
        }
    },
    "nodes": {
        "model_gridID_80_w382861040": {
            "children": [],
            "matrix": [
                1,
                0,
                0,
                0,
                0,
                -1.62921e-007,
                1,
                0,
                0,
                -1,
                -1.62921e-007,
                0,
                -396.233,
                285.356,
                1.86543,
                1
            ],
            "meshes": [
                "Building3655-mesh"
            ],
            "name": "model_gridID_80_w382861040"
        },
        "model_gridID_80_w382861040_001": {
            "children": [],
            "matrix": [
                1,
                0,
                0,
                0,
                0,
                -1.62921e-007,
                1,
                0,
                0,
                -1,
                -1.62921e-007,
                0,
                -403.775,
                283.384,
                1.25005,
                1
            ],
            "meshes": [
                "Building3591-mesh"
            ],
            "name": "model_gridID_80_w382861040_001"
        },
        "model_gridID_80_w382893197": {
            "children": [],
            "matrix": [
                1,
                0,
                0,
                0,
                0,
                -1.62921e-007,
                1,
                0,
                0,
                -1,
                -1.62921e-007,
                0,
                -395.039,
                285.672,
                1.00005,
                1
            ],
            "meshes": [
                "BuildingEntrance1006-mesh"
            ],
            "name": "model_gridID_80_w382893197"
        },
        "model_gridID_80_w382893197_002": {
            "children": [],
            "matrix": [
                1,
                0,
                0,
                0,
                0,
                -1.62921e-007,
                1,
                0,
                0,
                -1,
                -1.62921e-007,
                0,
                -403.84,
                265.486,
                1.25004,
                1
            ],
            "meshes": [
                "Building3518-mesh"
            ],
            "name": "model_gridID_80_w382893197_002"
        },
        "node_4": {
            "children": [
                "model_gridID_80_w382861040",
                "model_gridID_80_w382861040_001",
                "model_gridID_80_w382893197",
                "model_gridID_80_w382893197_002"
            ],
            "matrix": [
                1,
                0,
                0,
                0,
                0,
                0,
                -1,
                0,
                0,
                1,
                0,
                0,
                0,
                0,
                0,
                1
            ],
            "name": "Y_UP_Transform"
        }
    },
    "programs": {
        "program_0": {
            "attributes": [
                "a_normal",
                "a_position"
            ],
            "fragmentShader": "\\data\\ECNU\\workspace\\gridID_80\\gridID_800FS",
            "vertexShader": "\\data\\ECNU\\workspace\\gridID_80\\gridID_800VS"
        }
    },
    "scene": "defaultScene",
    "scenes": {
        "defaultScene": {
            "nodes": [
                "node_4"
            ]
        }
    },
    "shaders": {
        "\\data\\ECNU\\workspace\\gridID_80\\gridID_800FS": {
            "type": 35632,
            "uri": "data:text/plain;base64,"
        },
        "\\data\\ECNU\\workspace\\gridID_80\\gridID_800VS": {
            "type": 35633,
            "uri": "data:text/plain;base64,"
        }
    },
    "skins": {},
    "techniques": {
        "technique0": {
            "attributes": {
                "a_normal": "normal",
                "a_position": "position"
            },
            "parameters": {
                "ambient": {
                    "type": 35666
                },
                "diffuse": {
                    "type": 35666
                },
                "emission": {
                    "type": 35666
                },
                "modelViewMatrix": {
                    "semantic": "MODELVIEW",
                    "type": 35676
                },
                "normal": {
                    "semantic": "NORMAL",
                    "type": 35665
                },
                "normalMatrix": {
                    "semantic": "MODELVIEWINVERSETRANSPOSE",
                    "type": 35675
                },
                "position": {
                    "semantic": "POSITION",
                    "type": 35665
                },
                "projectionMatrix": {
                    "semantic": "PROJECTION",
                    "type": 35676
                },
                "shininess": {
                    "type": 5126
                },
                "specular": {
                    "type": 35666
                }
            },
            "program": "program_0",
            "states": {
                "enable": [
                    2929,
                    2884
                ]
            },
            "uniforms": {
                "u_ambient": "ambient",
                "u_diffuse": "diffuse",
                "u_emission": "emission",
                "u_modelViewMatrix": "modelViewMatrix",
                "u_normalMatrix": "normalMatrix",
                "u_projectionMatrix": "projectionMatrix",
                "u_shininess": "shininess",
                "u_specular": "specular"
            }
        }
    }
}