{
    "accessors": {
        "accessor_101": {
            "bufferView": "bufferView_172",
            "byteOffset": 984,
            "byteStride": 0,
            "componentType": 5123,
            "count": 12,
            "type": "SCALAR"
        },
        "accessor_103": {
            "bufferView": "bufferView_173",
            "byteOffset": 9336,
            "byteStride": 12,
            "componentType": 5126,
            "count": 74,
            "max": [
                7.61719,
                4.05481,
                10.6005
            ],
            "min": [
                -6.71881,
                -2.94519,
                -9.7155
            ],
            "type": "VEC3"
        },
        "accessor_105": {
            "bufferView": "bufferView_173",
            "byteOffset": 10224,
            "byteStride": 12,
            "componentType": 5126,
            "count": 74,
            "max": [
                0.954044,
                0.841093,
                0.95594
            ],
            "min": [
                -0.955755,
                0,
                -0.955667
            ],
            "type": "VEC3"
        },
        "accessor_157": {
            "bufferView": "bufferView_172",
            "byteOffset": 0,
            "byteStride": 0,
            "componentType": 5123,
            "count": 60,
            "type": "SCALAR"
        },
        "accessor_160": {
            "bufferView": "bufferView_172",
            "byteOffset": 120,
            "byteStride": 0,
            "componentType": 5123,
            "count": 204,
            "type": "SCALAR"
        },
        "accessor_163": {
            "bufferView": "bufferView_172",
            "byteOffset": 528,
            "byteStride": 0,
            "componentType": 5123,
            "count": 39,
            "type": "SCALAR"
        },
        "accessor_166": {
            "bufferView": "bufferView_172",
            "byteOffset": 606,
            "byteStride": 0,
            "componentType": 5123,
            "count": 42,
            "type": "SCALAR"
        },
        "accessor_168": {
            "bufferView": "bufferView_173",
            "byteOffset": 0,
            "byteStride": 12,
            "componentType": 5126,
            "count": 320,
            "max": [
                3.36076,
                2.1559,
                3.45562
            ],
            "min": [
                -2.97923,
                -1.8723,
                -4.30438
            ],
            "type": "VEC3"
        },
        "accessor_170": {
            "bufferView": "bufferView_173",
            "byteOffset": 3840,
            "byteStride": 12,
            "componentType": 5126,
            "count": 320,
            "max": [
                0.991123,
                1,
                0.999836
            ],
            "min": [
                -1,
                -1,
                -0.999837
            ],
            "type": "VEC3"
        },
        "accessor_28": {
            "bufferView": "bufferView_172",
            "byteOffset": 690,
            "byteStride": 0,
            "componentType": 5123,
            "count": 24,
            "type": "SCALAR"
        },
        "accessor_31": {
            "bufferView": "bufferView_172",
            "byteOffset": 738,
            "byteStride": 0,
            "componentType": 5123,
            "count": 6,
            "type": "SCALAR"
        },
        "accessor_33": {
            "bufferView": "bufferView_173",
            "byteOffset": 7680,
            "byteStride": 12,
            "componentType": 5126,
            "count": 20,
            "max": [
                5.1785,
                2.5,
                9.3235
            ],
            "min": [
                -5.1785,
                -2.5,
                -9.32349
            ],
            "type": "VEC3"
        },
        "accessor_35": {
            "bufferView": "bufferView_173",
            "byteOffset": 7920,
            "byteStride": 12,
            "componentType": 5126,
            "count": 20,
            "max": [
                0.955329,
                1,
                0.955314
            ],
            "min": [
                -0.955329,
                0,
                -0.955314
            ],
            "type": "VEC3"
        },
        "accessor_63": {
            "bufferView": "bufferView_172",
            "byteOffset": 750,
            "byteStride": 0,
            "componentType": 5123,
            "count": 30,
            "type": "SCALAR"
        },
        "accessor_66": {
            "bufferView": "bufferView_172",
            "byteOffset": 810,
            "byteStride": 0,
            "componentType": 5123,
            "count": 21,
            "type": "SCALAR"
        },
        "accessor_68": {
            "bufferView": "bufferView_173",
            "byteOffset": 8160,
            "byteStride": 12,
            "componentType": 5126,
            "count": 49,
            "max": [
                9.50969,
                6.25,
                15.0138
            ],
            "min": [
                -11.4793,
                -3.75,
                -20.2412
            ],
            "type": "VEC3"
        },
        "accessor_70": {
            "bufferView": "bufferView_173",
            "byteOffset": 8748,
            "byteStride": 12,
            "componentType": 5126,
            "count": 49,
            "max": [
                0.95573,
                0.760561,
                0.95852
            ],
            "min": [
                -0.955626,
                0,
                -0.955619
            ],
            "type": "VEC3"
        },
        "accessor_98": {
            "bufferView": "bufferView_172",
            "byteOffset": 852,
            "byteStride": 0,
            "componentType": 5123,
            "count": 66,
            "type": "SCALAR"
        }
    },
    "animations": {},
    "asset": {
        "generator": "collada2gltf@cf6371beb0bdc18ba603378d5e40c966da53d385",
        "premultipliedAlpha": true,
        "profile": {
            "api": "WebGL",
            "version": "1.0.2"
        },
        "version": "1.0"
    },
    "bufferViews": {
        "bufferView_172": {
            "buffer": "\\data\\ECNU\\workspace\\gridID_71\\gridID_71",
            "byteLength": 1008,
            "byteOffset": 0,
            "target": 34963
        },
        "bufferView_173": {
            "buffer": "\\data\\ECNU\\workspace\\gridID_71\\gridID_71",
            "byteLength": 11112,
            "byteOffset": 1008,
            "target": 34962
        }
    },
    "buffers": {
        "\\data\\ECNU\\workspace\\gridID_71\\gridID_71": {
            "byteLength": 12120,
            "type": "arraybuffer",
            "uri": "data:application/octet-stream;base64,"
        }
    },
    "materials": {
        "BUILDING_DEFAULT_0-effect": {
            "name": "BUILDING_DEFAULT_0",
            "technique": "technique0",
            "values": {
                "ambient": [
                    0,
                    0,
                    0,
                    1
                ],
                "diffuse": [
                    0.723055,
                    0.708376,
                    0.672443,
                    1
                ],
                "emission": [
                    0,
                    0,
                    0,
                    1
                ],
                "shininess": 50,
                "specular": [
                    0.5,
                    0.5,
                    0.5,
                    1
                ]
            }
        },
        "CONCRETE_0-effect": {
            "name": "CONCRETE_0",
            "technique": "technique0",
            "values": {
                "ambient": [
                    0,
                    0,
                    0,
                    1
                ],
                "diffuse": [
                    0.309469,
                    0.327778,
                    0.309469,
                    1
                ],
                "emission": [
                    0,
                    0,
                    0,
                    1
                ],
                "shininess": 50,
                "specular": [
                    0.5,
                    0.5,
                    0.5,
                    1
                ]
            }
        },
        "GLASS_0-effect": {
            "name": "GLASS_0",
            "technique": "technique0",
            "values": {
                "ambient": [
                    0,
                    0,
                    0,
                    1
                ],
                "diffuse": [
                    0.491021,
                    0.665387,
                    0.658375,
                    1
                ],
                "emission": [
                    0,
                    0,
                    0,
                    1
                ],
                "shininess": 50,
                "specular": [
                    0.5,
                    0.5,
                    0.5,
                    1
                ]
            }
        },
        "ROOF_DEFAULT_0-effect": {
            "name": "ROOF_DEFAULT_0",
            "technique": "technique0",
            "values": {
                "ambient": [
                    0,
                    0,
                    0,
                    1
                ],
                "diffuse": [
                    0.603827,
                    0.381326,
                    0.291771,
                    1
                ],
                "emission": [
                    0,
                    0,
                    0,
                    1
                ],
                "shininess": 50,
                "specular": [
                    0.5,
                    0.5,
                    0.5,
                    1
                ]
            }
        }
    },
    "meshes": {
        "Building3706-mesh": {
            "name": "Building3706",
            "primitives": [
                {
                    "attributes": {
                        "NORMAL": "accessor_170",
                        "POSITION": "accessor_168"
                    },
                    "indices": "accessor_157",
                    "material": "GLASS_0-effect",
                    "mode": 4
                },
                {
                    "attributes": {
                        "NORMAL": "accessor_170",
                        "POSITION": "accessor_168"
                    },
                    "indices": "accessor_160",
                    "material": "BUILDING_DEFAULT_0-effect",
                    "mode": 4
                },
                {
                    "attributes": {
                        "NORMAL": "accessor_170",
                        "POSITION": "accessor_168"
                    },
                    "indices": "accessor_163",
                    "material": "ROOF_DEFAULT_0-effect",
                    "mode": 4
                },
                {
                    "attributes": {
                        "NORMAL": "accessor_170",
                        "POSITION": "accessor_168"
                    },
                    "indices": "accessor_166",
                    "material": "CONCRETE_0-effect",
                    "mode": 4
                }
            ]
        },
        "Building3979-mesh": {
            "name": "Building3979",
            "primitives": [
                {
                    "attributes": {
                        "NORMAL": "accessor_35",
                        "POSITION": "accessor_33"
                    },
                    "indices": "accessor_28",
                    "material": "BUILDING_DEFAULT_0-effect",
                    "mode": 4
                },
                {
                    "attributes": {
                        "NORMAL": "accessor_35",
                        "POSITION": "accessor_33"
                    },
                    "indices": "accessor_31",
                    "material": "CONCRETE_0-effect",
                    "mode": 4
                }
            ]
        },
        "Building4000-mesh": {
            "name": "Building4000",
            "primitives": [
                {
                    "attributes": {
                        "NORMAL": "accessor_70",
                        "POSITION": "accessor_68"
                    },
                    "indices": "accessor_63",
                    "material": "BUILDING_DEFAULT_0-effect",
                    "mode": 4
                },
                {
                    "attributes": {
                        "NORMAL": "accessor_70",
                        "POSITION": "accessor_68"
                    },
                    "indices": "accessor_66",
                    "material": "ROOF_DEFAULT_0-effect",
                    "mode": 4
                }
            ]
        },
        "Building4002-mesh": {
            "name": "Building4002",
            "primitives": [
                {
                    "attributes": {
                        "NORMAL": "accessor_105",
                        "POSITION": "accessor_103"
                    },
                    "indices": "accessor_98",
                    "material": "BUILDING_DEFAULT_0-effect",
                    "mode": 4
                },
                {
                    "attributes": {
                        "NORMAL": "accessor_105",
                        "POSITION": "accessor_103"
                    },
                    "indices": "accessor_101",
                    "material": "ROOF_DEFAULT_0-effect",
                    "mode": 4
                }
            ]
        }
    },
    "nodes": {
        "model_gridID_71_w375365803": {
            "children": [],
            "matrix": [
                1,
                0,
                0,
                0,
                0,
                -1.62921e-007,
                1,
                0,
                0,
                -1,
                -1.62921e-007,
                0,
                -180.281,
                196.007,
                2.50003,
                1
            ],
            "meshes": [
                "Building3979-mesh"
            ],
            "name": "model_gridID_71_w375365803"
        },
        "model_gridID_71_w375402053": {
            "children": [],
            "matrix": [
                1,
                0,
                0,
                0,
                0,
                -1.62921e-007,
                1,
                0,
                0,
                -1,
                -1.62921e-007,
                0,
                -146.527,
                159.53,
                3.75003,
                1
            ],
            "meshes": [
                "Building4000-mesh"
            ],
            "name": "model_gridID_71_w375402053"
        },
        "model_gridID_71_w375402055_001": {
            "children": [],
            "matrix": [
                1,
                0,
                0,
                0,
                0,
                -1.62921e-007,
                1,
                0,
                0,
                -1,
                -1.62921e-007,
                0,
                -166.632,
                164.645,
                2.94522,
                1
            ],
            "meshes": [
                "Building4002-mesh"
            ],
            "name": "model_gridID_71_w375402055_001"
        },
        "model_gridID_71_w377338602": {
            "children": [],
            "matrix": [
                1,
                0,
                0,
                0,
                0,
                -1.62921e-007,
                1,
                0,
                0,
                -1,
                -1.62921e-007,
                0,
                -172.333,
                119.696,
                1.84412,
                1
            ],
            "meshes": [
                "Building3706-mesh"
            ],
            "name": "model_gridID_71_w377338602"
        },
        "node_4": {
            "children": [
                "model_gridID_71_w375365803",
                "model_gridID_71_w375402053",
                "model_gridID_71_w375402055_001",
                "model_gridID_71_w377338602"
            ],
            "matrix": [
                1,
                0,
                0,
                0,
                0,
                0,
                -1,
                0,
                0,
                1,
                0,
                0,
                0,
                0,
                0,
                1
            ],
            "name": "Y_UP_Transform"
        }
    },
    "programs": {
        "program_0": {
            "attributes": [
                "a_normal",
                "a_position"
            ],
            "fragmentShader": "\\data\\ECNU\\workspace\\gridID_71\\gridID_710FS",
            "vertexShader": "\\data\\ECNU\\workspace\\gridID_71\\gridID_710VS"
        }
    },
    "scene": "defaultScene",
    "scenes": {
        "defaultScene": {
            "nodes": [
                "node_4"
            ]
        }
    },
    "shaders": {
        "\\data\\ECNU\\workspace\\gridID_71\\gridID_710FS": {
            "type": 35632,
            "uri": "data:text/plain;base64,"
        },
        "\\data\\ECNU\\workspace\\gridID_71\\gridID_710VS": {
            "type": 35633,
            "uri": "data:text/plain;base64,"
        }
    },
    "skins": {},
    "techniques": {
        "technique0": {
            "attributes": {
                "a_normal": "normal",
                "a_position": "position"
            },
            "parameters": {
                "ambient": {
                    "type": 35666
                },
                "diffuse": {
                    "type": 35666
                },
                "emission": {
                    "type": 35666
                },
                "modelViewMatrix": {
                    "semantic": "MODELVIEW",
                    "type": 35676
                },
                "normal": {
                    "semantic": "NORMAL",
                    "type": 35665
                },
                "normalMatrix": {
                    "semantic": "MODELVIEWINVERSETRANSPOSE",
                    "type": 35675
                },
                "position": {
                    "semantic": "POSITION",
                    "type": 35665
                },
                "projectionMatrix": {
                    "semantic": "PROJECTION",
                    "type": 35676
                },
                "shininess": {
                    "type": 5126
                },
                "specular": {
                    "type": 35666
                }
            },
            "program": "program_0",
            "states": {
                "enable": [
                    2929,
                    2884
                ]
            },
            "uniforms": {
                "u_ambient": "ambient",
                "u_diffuse": "diffuse",
                "u_emission": "emission",
                "u_modelViewMatrix": "modelViewMatrix",
                "u_normalMatrix": "normalMatrix",
                "u_projectionMatrix": "projectionMatrix",
                "u_shininess": "shininess",
                "u_specular": "specular"
            }
        }
    }
}