{"accessors":{"accessor_100":{"bufferView":"bufferView_203","byteOffset":4176,"byteStride":12,"componentType":5126,"count":348,"max":[0.939374,1,1],"min":[-0.940212,-1,-0.944402],"type":"VEC3"},"accessor_140":{"bufferView":"bufferView_202","byteOffset":1278,"byteStride":0,"componentType":5123,"count":270,"type":"SCALAR"},"accessor_143":{"bufferView":"bufferView_202","byteOffset":1818,"byteStride":0,"componentType":5123,"count":57,"type":"SCALAR"},"accessor_146":{"bufferView":"bufferView_202","byteOffset":1932,"byteStride":0,"componentType":5123,"count":42,"type":"SCALAR"},"accessor_148":{"bufferView":"bufferView_203","byteOffset":12960,"byteStride":12,"componentType":5126,"count":275,"max":[25.6743,12.1094,2.23167],"min":[-24.9577,-7.89063,-13.8543],"type":"VEC3"},"accessor_150":{"bufferView":"bufferView_203","byteOffset":16260,"byteStride":12,"componentType":5126,"count":275,"max":[0.999907,1,0.999932],"min":[-0.999907,0,-0.999918],"type":"VEC3"},"accessor_190":{"bufferView":"bufferView_202","byteOffset":1116,"byteStride":0,"componentType":5123,"count":54,"type":"SCALAR"},"accessor_193":{"bufferView":"bufferView_202","byteOffset":1224,"byteStride":0,"componentType":5123,"count":21,"type":"SCALAR"},"accessor_196":{"bufferView":"bufferView_202","byteOffset":1266,"byteStride":0,"componentType":5123,"count":6,"type":"SCALAR"},"accessor_198":{"bufferView":"bufferView_203","byteOffset":11256,"byteStride":12,"componentType":5126,"count":71,"max":[10.7666,10.9375,10.5415],"min":[-8.52835,-9.0625,-19.0255],"type":"VEC3"},"accessor_200":{"bufferView":"bufferView_203","byteOffset":12108,"byteStride":12,"componentType":5126,"count":71,"max":[0.943686,1,0.943034],"min":[-0.943686,0,-0.943034],"type":"VEC3"},"accessor_40":{"bufferView":"bufferView_202","byteOffset":744,"byteStride":0,"componentType":5123,"count":132,"type":"SCALAR"},"accessor_43":{"bufferView":"bufferView_202","byteOffset":1008,"byteStride":0,"componentType":5123,"count":36,"type":"SCALAR"},"accessor_46":{"bufferView":"bufferView_202","byteOffset":1080,"byteStride":0,"componentType":5123,"count":18,"type":"SCALAR"},"accessor_48":{"bufferView":"bufferView_203","byteOffset":8352,"byteStride":12,"componentType":5126,"count":121,"max":[15.8162,11.7647,12.1642],"min":[-15.6638,-8.2353,-3.29783],"type":"VEC3"},"accessor_50":{"bufferView":"bufferView_203","byteOffset":9804,"byteStride":12,"componentType":5126,"count":121,"max":[1,1,1],"min":[-1,0,-1],"type":"VEC3"},"accessor_90":{"bufferView":"bufferView_202","byteOffset":0,"byteStride":0,"componentType":5123,"count":264,"type":"SCALAR"},"accessor_93":{"bufferView":"bufferView_202","byteOffset":528,"byteStride":0,"componentType":5123,"count":90,"type":"SCALAR"},"accessor_96":{"bufferView":"bufferView_202","byteOffset":708,"byteStride":0,"componentType":5123,"count":18,"type":"SCALAR"},"accessor_98":{"bufferView":"bufferView_203","byteOffset":0,"byteStride":12,"componentType":5126,"count":348,"max":[20.3252,7.43339,17.1045],"min":[-16.4658,-12.5666,-9.78953],"type":"VEC3"},"accessor_b0":{"bufferView":"bufferView_b","byteOffset":0,"byteStride":0,"componentType":5123,"count":348,"type":"SCALAR"},"accessor_b1":{"bufferView":"bufferView_b","byteOffset":696,"byteStride":0,"componentType":5123,"count":121,"type":"SCALAR"},"accessor_b2":{"bufferView":"bufferView_b","byteOffset":938,"byteStride":0,"componentType":5123,"count":71,"type":"SCALAR"},"accessor_b3":{"bufferView":"bufferView_b","byteOffset":1080,"byteStride":0,"componentType":5123,"count":275,"type":"SCALAR"}},"animations":{},"asset":{"generator":"collada2gltf@cf6371beb0bdc18ba603378d5e40c966da53d385","premultipliedAlpha":true,"profile":{"api":"WebGL","version":"1.0.2"},"version":"1.0"},"bufferViews":{"bufferView_202":{"buffer":"\\data\\ECNU\\workspace\\gridID_55\\gridID_55","byteLength":2016,"byteOffset":0,"target":34963},"bufferView_203":{"buffer":"\\data\\ECNU\\workspace\\gridID_55\\gridID_55","byteLength":19560,"byteOffset":2016,"target":34962},"bufferView_b":{"buffer":"buffer_b","byteLength":1630,"byteOffset":0,"target":34962}},"buffers":{"\\data\\ECNU\\workspace\\gridID_55\\gridID_55":{"byteLength":21576,"type":"arraybuffer","uri":"data:application/octet-stream;base64,"},"buffer_b":{"type":"arraybuffer","byteLength":1630,"uri":"data:application/octet-stream;base64,"}},"materials":{"BUILDING_DEFAULT_0-effect":{"name":"BUILDING_DEFAULT_0","technique":"technique0","values":{"ambient":[0,0,0,1],"diffuse":[0.723055,0.708376,0.672443,1],"emission":[0,0,0,1],"shininess":50,"specular":[0.5,0.5,0.5,1]}},"CONCRETE_0-effect":{"name":"CONCRETE_0","technique":"technique0","values":{"ambient":[0,0,0,1],"diffuse":[0.309469,0.327778,0.309469,1],"emission":[0,0,0,1],"shininess":50,"specular":[0.5,0.5,0.5,1]}},"ROOF_DEFAULT_0-effect":{"name":"ROOF_DEFAULT_0","technique":"technique0","values":{"ambient":[0,0,0,1],"diffuse":[0.603827,0.381326,0.291771,1],"emission":[0,0,0,1],"shininess":50,"specular":[0.5,0.5,0.5,1]}}},"meshes":{"Building3725-mesh":{"name":"Building3725","primitives":[{"attributes":{"NORMAL":"accessor_100","POSITION":"accessor_98","BATCHID":"accessor_b0"},"indices":"accessor_90","material":"BUILDING_DEFAULT_0-effect","mode":4},{"attributes":{"NORMAL":"accessor_100","POSITION":"accessor_98","BATCHID":"accessor_b0"},"indices":"accessor_93","material":"ROOF_DEFAULT_0-effect","mode":4},{"attributes":{"NORMAL":"accessor_100","POSITION":"accessor_98","BATCHID":"accessor_b0"},"indices":"accessor_96","material":"CONCRETE_0-effect","mode":4}]},"Building3726-mesh":{"name":"Building3726","primitives":[{"attributes":{"NORMAL":"accessor_50","POSITION":"accessor_48","BATCHID":"accessor_b1"},"indices":"accessor_40","material":"BUILDING_DEFAULT_0-effect","mode":4},{"attributes":{"NORMAL":"accessor_50","POSITION":"accessor_48","BATCHID":"accessor_b1"},"indices":"accessor_43","material":"ROOF_DEFAULT_0-effect","mode":4},{"attributes":{"NORMAL":"accessor_50","POSITION":"accessor_48","BATCHID":"accessor_b1"},"indices":"accessor_46","material":"CONCRETE_0-effect","mode":4}]},"Building3727-mesh":{"name":"Building3727","primitives":[{"attributes":{"NORMAL":"accessor_200","POSITION":"accessor_198","BATCHID":"accessor_b2"},"indices":"accessor_190","material":"BUILDING_DEFAULT_0-effect","mode":4},{"attributes":{"NORMAL":"accessor_200","POSITION":"accessor_198","BATCHID":"accessor_b2"},"indices":"accessor_193","material":"ROOF_DEFAULT_0-effect","mode":4},{"attributes":{"NORMAL":"accessor_200","POSITION":"accessor_198","BATCHID":"accessor_b2"},"indices":"accessor_196","material":"CONCRETE_0-effect","mode":4}]},"Building3728-mesh":{"name":"Building3728","primitives":[{"attributes":{"NORMAL":"accessor_150","POSITION":"accessor_148","BATCHID":"accessor_b3"},"indices":"accessor_140","material":"BUILDING_DEFAULT_0-effect","mode":4},{"attributes":{"NORMAL":"accessor_150","POSITION":"accessor_148","BATCHID":"accessor_b3"},"indices":"accessor_143","material":"ROOF_DEFAULT_0-effect","mode":4},{"attributes":{"NORMAL":"accessor_150","POSITION":"accessor_148","BATCHID":"accessor_b3"},"indices":"accessor_146","material":"CONCRETE_0-effect","mode":4}]}},"nodes":{"model_gridID_55_w399620550":{"children":[],"matrix":[1,0,0,0,0,-1.62921e-7,1,0,0,-1,-1.62921e-7,0,369.438,-92.3198,8.23528,1],"meshes":["Building3726-mesh"],"name":"model_gridID_55_w399620550"},"model_gridID_55_w399620551":{"children":[],"matrix":[1,0,0,0,0,-1.62921e-7,1,0,0,-1,-1.62921e-7,0,353.315,-15.3225,12.5666,1],"meshes":["Building3725-mesh"],"name":"model_gridID_55_w399620551"},"model_gridID_55_w399620552":{"children":[],"matrix":[1,0,0,0,0,-1.62921e-7,1,0,0,-1,-1.62921e-7,0,366.605,-69.9923,7.89061,1],"meshes":["Building3728-mesh"],"name":"model_gridID_55_w399620552"},"model_gridID_55_w399620553_001":{"children":[],"matrix":[1,0,0,0,0,-1.62921e-7,1,0,0,-1,-1.62921e-7,0,385.072,-36.9475,9.06249,1],"meshes":["Building3727-mesh"],"name":"model_gridID_55_w399620553_001"},"node_4":{"children":["model_gridID_55_w399620550","model_gridID_55_w399620551","model_gridID_55_w399620552","model_gridID_55_w399620553_001"],"matrix":[1,0,0,0,0,0,-1,0,0,1,0,0,0,0,0,1],"name":"Y_UP_Transform"}},"programs":{"program_0":{"attributes":["a_normal","a_position","a_batchId"],"fragmentShader":"\\data\\ECNU\\workspace\\gridID_55\\gridID_550FS","vertexShader":"\\data\\ECNU\\workspace\\gridID_55\\gridID_550VS"}},"scene":"defaultScene","scenes":{"defaultScene":{"nodes":["node_4"]}},"shaders":{"\\data\\ECNU\\workspace\\gridID_55\\gridID_550FS":{"type":35632,"uri":"data:text/plain;base64,"},"\\data\\ECNU\\workspace\\gridID_55\\gridID_550VS":{"type":35633,"uri":"data:text/plain;base64,"}},"skins":{},"techniques":{"technique0":{"attributes":{"a_normal":"normal","a_position":"position","a_batchId":"batchId"},"parameters":{"ambient":{"type":35666},"diffuse":{"type":35666},"emission":{"type":35666},"modelViewMatrix":{"semantic":"MODELVIEW","type":35676},"normal":{"semantic":"NORMAL","type":35665},"normalMatrix":{"semantic":"MODELVIEWINVERSETRANSPOSE","type":35675},"position":{"semantic":"POSITION","type":35665},"projectionMatrix":{"semantic":"PROJECTION","type":35676},"shininess":{"type":5126},"specular":{"type":35666},"batchId":{"semantic":"BATCHID","type":5126}},"program":"program_0","states":{"enable":[2929,2884]},"uniforms":{"u_ambient":"ambient","u_diffuse":"diffuse","u_emission":"emission","u_modelViewMatrix":"modelViewMatrix","u_normalMatrix":"normalMatrix","u_projectionMatrix":"projectionMatrix","u_shininess":"shininess","u_specular":"specular"}}}}