{"accessors":{"accessor_16":{"bufferView":"bufferView_82","byteOffset":0,"byteStride":0,"componentType":5123,"count":762,"type":"SCALAR"},"accessor_18":{"bufferView":"bufferView_83","byteOffset":0,"byteStride":12,"componentType":5126,"count":658,"max":[47.9162,100.145,28.835],"min":[-3.29465,44.9349,0.108665],"type":"VEC3"},"accessor_20":{"bufferView":"bufferView_83","byteOffset":7896,"byteStride":12,"componentType":5126,"count":658,"max":[0.779581,0.764915,1],"min":[-0.855091,-0.774195,0],"type":"VEC3"},"accessor_36":{"bufferView":"bufferView_82","byteOffset":1524,"byteStride":0,"componentType":5123,"count":2544,"type":"SCALAR"},"accessor_38":{"bufferView":"bufferView_83","byteOffset":15792,"byteStride":12,"componentType":5126,"count":2265,"max":[48.2617,106.908,32.788],"min":[-8.74924,45.2486,0.0717812],"type":"VEC3"},"accessor_40":{"bufferView":"bufferView_83","byteOffset":42972,"byteStride":12,"componentType":5126,"count":2265,"max":[0.855091,0.787897,1],"min":[-0.851731,-0.787874,0],"type":"VEC3"},"accessor_56":{"bufferView":"bufferView_82","byteOffset":6612,"byteStride":0,"componentType":5123,"count":3120,"type":"SCALAR"},"accessor_58":{"bufferView":"bufferView_83","byteOffset":70152,"byteStride":12,"componentType":5126,"count":2782,"max":[-33.7261,108.692,62.0699],"min":[-116.928,14.8073,0],"type":"VEC3"},"accessor_60":{"bufferView":"bufferView_83","byteOffset":103536,"byteStride":12,"componentType":5126,"count":2782,"max":[0.995337,0.997855,1],"min":[-0.993571,-0.996259,-1],"type":"VEC3"},"accessor_76":{"bufferView":"bufferView_82","byteOffset":12852,"byteStride":0,"componentType":5123,"count":1953,"type":"SCALAR"},"accessor_78":{"bufferView":"bufferView_83","byteOffset":136920,"byteStride":12,"componentType":5126,"count":1705,"max":[-33.3701,146.104,59.8293],"min":[-144.452,14.4216,0.152408],"type":"VEC3"},"accessor_80":{"bufferView":"bufferView_83","byteOffset":157380,"byteStride":12,"componentType":5126,"count":1705,"max":[0.999616,0.999603,1],"min":[-0.999616,-0.999603,0],"type":"VEC3"},"accessor_b0":{"bufferView":"bufferView_b","byteOffset":0,"byteStride":0,"componentType":5123,"count":658,"type":"SCALAR"},"accessor_b1":{"bufferView":"bufferView_b","byteOffset":1316,"byteStride":0,"componentType":5123,"count":2265,"type":"SCALAR"},"accessor_b2":{"bufferView":"bufferView_b","byteOffset":5846,"byteStride":0,"componentType":5123,"count":2782,"type":"SCALAR"},"accessor_b3":{"bufferView":"bufferView_b","byteOffset":11410,"byteStride":0,"componentType":5123,"count":1705,"type":"SCALAR"}},"animations":{},"asset":{"generator":"collada2gltf@cf6371beb0bdc18ba603378d5e40c966da53d385","premultipliedAlpha":true,"profile":{"api":"WebGL","version":"1.0.2"},"version":"1.0"},"bufferViews":{"bufferView_82":{"buffer":"\\data\\3dcity\\miami\\workspace\\gridID_6\\gridID_6_high","byteLength":16760,"byteOffset":0,"target":34963},"bufferView_83":{"buffer":"\\data\\3dcity\\miami\\workspace\\gridID_6\\gridID_6_high","byteLength":177840,"byteOffset":16760,"target":34962},"bufferView_b":{"buffer":"buffer_b","byteLength":14820,"byteOffset":0,"target":34962}},"buffers":{"\\data\\3dcity\\miami\\workspace\\gridID_6\\gridID_6_high":{"byteLength":194600,"type":"arraybuffer","uri":"data:application/octet-stream;base64,"},"buffer_b":{"type":"arraybuffer","byteLength":14820,"uri":"data:application/octet-stream;base64,"}},"materials":{"__glTF__defaultMaterial0":{"name":"__glTF__defaultMaterial0","technique":"technique0","values":{"diffuse":[1,1,1,1]}}},"meshes":{"multipatch_footprint_1450-mesh":{"name":"multipatch_footprint.1450","primitives":[{"attributes":{"NORMAL":"accessor_20","POSITION":"accessor_18","BATCHID":"accessor_b0"},"indices":"accessor_16","material":"__glTF__defaultMaterial0","mode":4}]},"multipatch_footprint_1463-mesh":{"name":"multipatch_footprint.1463","primitives":[{"attributes":{"NORMAL":"accessor_40","POSITION":"accessor_38","BATCHID":"accessor_b1"},"indices":"accessor_36","material":"__glTF__defaultMaterial0","mode":4}]},"multipatch_footprint_1579-mesh":{"name":"multipatch_footprint.1579","primitives":[{"attributes":{"NORMAL":"accessor_60","POSITION":"accessor_58","BATCHID":"accessor_b2"},"indices":"accessor_56","material":"__glTF__defaultMaterial0","mode":4}]},"multipatch_footprint_1580-mesh":{"name":"multipatch_footprint.1580","primitives":[{"attributes":{"NORMAL":"accessor_80","POSITION":"accessor_78","BATCHID":"accessor_b3"},"indices":"accessor_76","material":"__glTF__defaultMaterial0","mode":4}]}},"nodes":{"gridID_6_w300246055_join":{"children":[],"matrix":[1,0,0,0,0,1,0,0,0,0,1,0,0.000366211,0.000366211,0,1],"meshes":["multipatch_footprint_1580-mesh"],"name":"gridID_6_w300246055_join"},"gridID_6_w300246056_join":{"children":[],"matrix":[1,0,0,0,0,1,0,0,0,0,1,0,0.000366211,0.000366211,0,1],"meshes":["multipatch_footprint_1579-mesh"],"name":"gridID_6_w300246056_join"},"gridID_6_w300246057_join":{"children":[],"matrix":[1,0,0,0,0,1,0,0,0,0,1,0,0.000366211,0.000366211,0,1],"meshes":["multipatch_footprint_1463-mesh"],"name":"gridID_6_w300246057_join"},"gridID_6_w435376683_join":{"children":[],"matrix":[1,0,0,0,0,1,0,0,0,0,1,0,0.000366211,0.000366211,0,1],"meshes":["multipatch_footprint_1450-mesh"],"name":"gridID_6_w435376683_join"},"node_4":{"children":["gridID_6_w435376683_join","gridID_6_w300246057_join","gridID_6_w300246056_join","gridID_6_w300246055_join"],"matrix":[1,0,0,0,0,0,-1,0,0,1,0,0,0,0,0,1],"name":"Y_UP_Transform"}},"programs":{"program_0":{"attributes":["a_normal","a_position","a_batchId"],"fragmentShader":"\\data\\3dcity\\miami\\workspace\\gridID_6\\gridID_6_high0FS","vertexShader":"\\data\\3dcity\\miami\\workspace\\gridID_6\\gridID_6_high0VS"}},"scene":"defaultScene","scenes":{"defaultScene":{"nodes":["node_4"]}},"shaders":{"\\data\\3dcity\\miami\\workspace\\gridID_6\\gridID_6_high0FS":{"type":35632,"uri":"data:text/plain;base64,"},"\\data\\3dcity\\miami\\workspace\\gridID_6\\gridID_6_high0VS":{"type":35633,"uri":"data:text/plain;base64,"}},"skins":{},"techniques":{"technique0":{"attributes":{"a_normal":"normal","a_position":"position","a_batchId":"batchId"},"parameters":{"diffuse":{"type":35666},"modelViewMatrix":{"semantic":"MODELVIEW","type":35676},"normal":{"semantic":"NORMAL","type":35665},"normalMatrix":{"semantic":"MODELVIEWINVERSETRANSPOSE","type":35675},"position":{"semantic":"POSITION","type":35665},"projectionMatrix":{"semantic":"PROJECTION","type":35676},"batchId":{"semantic":"BATCHID","type":5126}},"program":"program_0","states":{"enable":[2929,2884]},"uniforms":{"u_diffuse":"diffuse","u_modelViewMatrix":"modelViewMatrix","u_normalMatrix":"normalMatrix","u_projectionMatrix":"projectionMatrix"}}}}