{"accessors":{"accessor_101":{"bufferView":"bufferView_177","byteOffset":48,"byteStride":0,"componentType":5123,"count":6,"type":"SCALAR"},"accessor_103":{"bufferView":"bufferView_178","byteOffset":0,"byteStride":12,"componentType":5126,"count":20,"max":[4.50674,3.75,2.27655],"min":[-4.50726,-3.75,-2.27643],"type":"VEC3"},"accessor_105":{"bufferView":"bufferView_178","byteOffset":240,"byteStride":12,"componentType":5126,"count":20,"max":[0.999067,1,0.999027],"min":[-0.999056,0,-0.999027],"type":"VEC3"},"accessor_133":{"bufferView":"bufferView_177","byteOffset":138,"byteStride":0,"componentType":5123,"count":30,"type":"SCALAR"},"accessor_136":{"bufferView":"bufferView_177","byteOffset":198,"byteStride":0,"componentType":5123,"count":9,"type":"SCALAR"},"accessor_138":{"bufferView":"bufferView_178","byteOffset":1320,"byteStride":12,"componentType":5126,"count":25,"max":[8.16181,3.75,10.1008],"min":[-9.62018,-3.75,-7.18622],"type":"VEC3"},"accessor_140":{"bufferView":"bufferView_178","byteOffset":1620,"byteStride":12,"componentType":5126,"count":25,"max":[0.869888,1,0.869654],"min":[-0.869874,0,-0.869685],"type":"VEC3"},"accessor_168":{"bufferView":"bufferView_177","byteOffset":60,"byteStride":0,"componentType":5123,"count":30,"type":"SCALAR"},"accessor_171":{"bufferView":"bufferView_177","byteOffset":120,"byteStride":0,"componentType":5123,"count":9,"type":"SCALAR"},"accessor_173":{"bufferView":"bufferView_178","byteOffset":480,"byteStride":12,"componentType":5126,"count":35,"max":[11.8116,3.75,7.8316],"min":[-9.62543,-3.75,-11.2584],"type":"VEC3"},"accessor_175":{"bufferView":"bufferView_178","byteOffset":900,"byteStride":12,"componentType":5126,"count":35,"max":[0.869985,1,0.869964],"min":[-0.869888,0,-0.870048],"type":"VEC3"},"accessor_28":{"bufferView":"bufferView_177","byteOffset":216,"byteStride":0,"componentType":5123,"count":66,"type":"SCALAR"},"accessor_31":{"bufferView":"bufferView_177","byteOffset":348,"byteStride":0,"componentType":5123,"count":27,"type":"SCALAR"},"accessor_33":{"bufferView":"bufferView_178","byteOffset":1920,"byteStride":12,"componentType":5126,"count":75,"max":[16.2935,3.75,14.7337],"min":[-13.7195,-3.75,-11.6692],"type":"VEC3"},"accessor_35":{"bufferView":"bufferView_178","byteOffset":2820,"byteStride":12,"componentType":5126,"count":75,"max":[0.998163,1,0.998708],"min":[-0.998643,0,-0.999795],"type":"VEC3"},"accessor_63":{"bufferView":"bufferView_177","byteOffset":402,"byteStride":0,"componentType":5123,"count":60,"type":"SCALAR"},"accessor_66":{"bufferView":"bufferView_177","byteOffset":522,"byteStride":0,"componentType":5123,"count":12,"type":"SCALAR"},"accessor_68":{"bufferView":"bufferView_178","byteOffset":3720,"byteStride":12,"componentType":5126,"count":54,"max":[25.168,10,10.558],"min":[-25.168,-10,-10.558],"type":"VEC3"},"accessor_70":{"bufferView":"bufferView_178","byteOffset":4368,"byteStride":12,"componentType":5126,"count":54,"max":[0.976539,0.733227,1],"min":[-0.976541,0,-0.976547],"type":"VEC3"},"accessor_98":{"bufferView":"bufferView_177","byteOffset":0,"byteStride":0,"componentType":5123,"count":24,"type":"SCALAR"},"accessor_b0":{"bufferView":"bufferView_b","byteOffset":0,"byteStride":0,"componentType":5123,"count":20,"type":"SCALAR"},"accessor_b1":{"bufferView":"bufferView_b","byteOffset":40,"byteStride":0,"componentType":5123,"count":35,"type":"SCALAR"},"accessor_b2":{"bufferView":"bufferView_b","byteOffset":110,"byteStride":0,"componentType":5123,"count":25,"type":"SCALAR"},"accessor_b3":{"bufferView":"bufferView_b","byteOffset":160,"byteStride":0,"componentType":5123,"count":75,"type":"SCALAR"},"accessor_b4":{"bufferView":"bufferView_b","byteOffset":310,"byteStride":0,"componentType":5123,"count":54,"type":"SCALAR"}},"animations":{},"asset":{"generator":"collada2gltf@cf6371beb0bdc18ba603378d5e40c966da53d385","premultipliedAlpha":true,"profile":{"api":"WebGL","version":"1.0.2"},"version":"1.0"},"bufferViews":{"bufferView_177":{"buffer":"\\data\\ECNU\\workspace\\gridID_0\\gridID_0","byteLength":548,"byteOffset":0,"target":34963},"bufferView_178":{"buffer":"\\data\\ECNU\\workspace\\gridID_0\\gridID_0","byteLength":5016,"byteOffset":548,"target":34962},"bufferView_b":{"buffer":"buffer_b","byteLength":418,"byteOffset":0,"target":34962}},"buffers":{"\\data\\ECNU\\workspace\\gridID_0\\gridID_0":{"byteLength":5564,"type":"arraybuffer","uri":"data:application/octet-stream;base64,"},"buffer_b":{"type":"arraybuffer","byteLength":418,"uri":"data:application/octet-stream;base64,"}},"materials":{"BUILDING_DEFAULT_0-effect":{"name":"BUILDING_DEFAULT_0","technique":"technique0","values":{"ambient":[0,0,0,1],"diffuse":[0.723055,0.708376,0.672443,1],"emission":[0,0,0,1],"shininess":50,"specular":[0.5,0.5,0.5,1]}},"CONCRETE_0-effect":{"name":"CONCRETE_0","technique":"technique0","values":{"ambient":[0,0,0,1],"diffuse":[0.309469,0.327778,0.309469,1],"emission":[0,0,0,1],"shininess":50,"specular":[0.5,0.5,0.5,1]}},"ROOF_DEFAULT_0-effect":{"name":"ROOF_DEFAULT_0","technique":"technique0","values":{"ambient":[0,0,0,1],"diffuse":[0.603827,0.381326,0.291771,1],"emission":[0,0,0,1],"shininess":50,"specular":[0.5,0.5,0.5,1]}}},"meshes":{"Building3396-mesh":{"name":"Building3396","primitives":[{"attributes":{"NORMAL":"accessor_105","POSITION":"accessor_103","BATCHID":"accessor_b0"},"indices":"accessor_98","material":"BUILDING_DEFAULT_0-effect","mode":4},{"attributes":{"NORMAL":"accessor_105","POSITION":"accessor_103","BATCHID":"accessor_b0"},"indices":"accessor_101","material":"ROOF_DEFAULT_0-effect","mode":4}]},"Building3399-mesh":{"name":"Building3399","primitives":[{"attributes":{"NORMAL":"accessor_175","POSITION":"accessor_173","BATCHID":"accessor_b1"},"indices":"accessor_168","material":"BUILDING_DEFAULT_0-effect","mode":4},{"attributes":{"NORMAL":"accessor_175","POSITION":"accessor_173","BATCHID":"accessor_b1"},"indices":"accessor_171","material":"ROOF_DEFAULT_0-effect","mode":4}]},"Building3407-mesh":{"name":"Building3407","primitives":[{"attributes":{"NORMAL":"accessor_140","POSITION":"accessor_138","BATCHID":"accessor_b2"},"indices":"accessor_133","material":"BUILDING_DEFAULT_0-effect","mode":4},{"attributes":{"NORMAL":"accessor_140","POSITION":"accessor_138","BATCHID":"accessor_b2"},"indices":"accessor_136","material":"ROOF_DEFAULT_0-effect","mode":4}]},"Building3471-mesh":{"name":"Building3471","primitives":[{"attributes":{"NORMAL":"accessor_35","POSITION":"accessor_33","BATCHID":"accessor_b3"},"indices":"accessor_28","material":"BUILDING_DEFAULT_0-effect","mode":4},{"attributes":{"NORMAL":"accessor_35","POSITION":"accessor_33","BATCHID":"accessor_b3"},"indices":"accessor_31","material":"CONCRETE_0-effect","mode":4}]},"Building3472-mesh":{"name":"Building3472","primitives":[{"attributes":{"NORMAL":"accessor_70","POSITION":"accessor_68","BATCHID":"accessor_b4"},"indices":"accessor_63","material":"BUILDING_DEFAULT_0-effect","mode":4},{"attributes":{"NORMAL":"accessor_70","POSITION":"accessor_68","BATCHID":"accessor_b4"},"indices":"accessor_66","material":"ROOF_DEFAULT_0-effect","mode":4}]}},"nodes":{"model_gridID_0_w390190514":{"children":[],"matrix":[1,0,0,0,0,-1.62921e-7,1,0,0,-1,-1.62921e-7,0,-520.354,-573.996,3.74991,1],"meshes":["Building3471-mesh"],"name":"model_gridID_0_w390190514"},"model_gridID_0_w390190521":{"children":[],"matrix":[1,0,0,0,0,-1.62921e-7,1,0,0,-1,-1.62921e-7,0,-556.32,-598.832,9.9999,1],"meshes":["Building3472-mesh"],"name":"model_gridID_0_w390190521"},"model_gridID_0_w390190534":{"children":[],"matrix":[1,0,0,0,0,-1.62921e-7,1,0,0,-1,-1.62921e-7,0,-513.099,-602.872,3.7499,1],"meshes":["Building3396-mesh"],"name":"model_gridID_0_w390190534"},"model_gridID_0_w390190536":{"children":[],"matrix":[1,0,0,0,0,-1.62921e-7,1,0,0,-1,-1.62921e-7,0,-567.956,-568.255,3.74991,1],"meshes":["Building3407-mesh"],"name":"model_gridID_0_w390190536"},"model_gridID_0_w390190536_001":{"children":[],"matrix":[1,0,0,0,0,-1.62921e-7,1,0,0,-1,-1.62921e-7,0,-555.414,-564.824,3.74991,1],"meshes":["Building3399-mesh"],"name":"model_gridID_0_w390190536_001"},"node_5":{"children":["model_gridID_0_w390190514","model_gridID_0_w390190521","model_gridID_0_w390190534","model_gridID_0_w390190536","model_gridID_0_w390190536_001"],"matrix":[1,0,0,0,0,0,-1,0,0,1,0,0,0,0,0,1],"name":"Y_UP_Transform"}},"programs":{"program_0":{"attributes":["a_normal","a_position","a_batchId"],"fragmentShader":"\\data\\ECNU\\workspace\\gridID_0\\gridID_00FS","vertexShader":"\\data\\ECNU\\workspace\\gridID_0\\gridID_00VS"}},"scene":"defaultScene","scenes":{"defaultScene":{"nodes":["node_5"]}},"shaders":{"\\data\\ECNU\\workspace\\gridID_0\\gridID_00FS":{"type":35632,"uri":"data:text/plain;base64,"},"\\data\\ECNU\\workspace\\gridID_0\\gridID_00VS":{"type":35633,"uri":"data:text/plain;base64,"}},"skins":{},"techniques":{"technique0":{"attributes":{"a_normal":"normal","a_position":"position","a_batchId":"batchId"},"parameters":{"ambient":{"type":35666},"diffuse":{"type":35666},"emission":{"type":35666},"modelViewMatrix":{"semantic":"MODELVIEW","type":35676},"normal":{"semantic":"NORMAL","type":35665},"normalMatrix":{"semantic":"MODELVIEWINVERSETRANSPOSE","type":35675},"position":{"semantic":"POSITION","type":35665},"projectionMatrix":{"semantic":"PROJECTION","type":35676},"shininess":{"type":5126},"specular":{"type":35666},"batchId":{"semantic":"BATCHID","type":5126}},"program":"program_0","states":{"enable":[2929,2884]},"uniforms":{"u_ambient":"ambient","u_diffuse":"diffuse","u_emission":"emission","u_modelViewMatrix":"modelViewMatrix","u_normalMatrix":"normalMatrix","u_projectionMatrix":"projectionMatrix","u_shininess":"shininess","u_specular":"specular"}}}}