{
    "accessors": {
        "accessor_101": {
            "bufferView": "bufferView_177",
            "byteOffset": 552,
            "byteStride": 0,
            "componentType": 5123,
            "count": 18,
            "type": "SCALAR"
        },
        "accessor_103": {
            "bufferView": "bufferView_178",
            "byteOffset": 4512,
            "byteStride": 12,
            "componentType": 5126,
            "count": 56,
            "max": [
                13.4946,
                3.75,
                11.5154
            ],
            "min": [
                -14.5674,
                -3.75,
                -11.0836
            ],
            "type": "VEC3"
        },
        "accessor_105": {
            "bufferView": "bufferView_178",
            "byteOffset": 5184,
            "byteStride": 12,
            "componentType": 5126,
            "count": 56,
            "max": [
                0.916764,
                1,
                0.917476
            ],
            "min": [
                -0.917206,
                0,
                -0.917018
            ],
            "type": "VEC3"
        },
        "accessor_133": {
            "bufferView": "bufferView_177",
            "byteOffset": 0,
            "byteStride": 0,
            "componentType": 5123,
            "count": 48,
            "type": "SCALAR"
        },
        "accessor_136": {
            "bufferView": "bufferView_177",
            "byteOffset": 96,
            "byteStride": 0,
            "componentType": 5123,
            "count": 18,
            "type": "SCALAR"
        },
        "accessor_138": {
            "bufferView": "bufferView_178",
            "byteOffset": 0,
            "byteStride": 12,
            "componentType": 5126,
            "count": 66,
            "max": [
                18.5215,
                3.75,
                12.2866
            ],
            "min": [
                -19.1165,
                -3.75,
                -12.0274
            ],
            "type": "VEC3"
        },
        "accessor_140": {
            "bufferView": "bufferView_178",
            "byteOffset": 792,
            "byteStride": 12,
            "componentType": 5126,
            "count": 66,
            "max": [
                0.917682,
                1,
                0.917036
            ],
            "min": [
                -0.916884,
                0,
                -0.916933
            ],
            "type": "VEC3"
        },
        "accessor_168": {
            "bufferView": "bufferView_177",
            "byteOffset": 132,
            "byteStride": 0,
            "componentType": 5123,
            "count": 48,
            "type": "SCALAR"
        },
        "accessor_171": {
            "bufferView": "bufferView_177",
            "byteOffset": 228,
            "byteStride": 0,
            "componentType": 5123,
            "count": 18,
            "type": "SCALAR"
        },
        "accessor_173": {
            "bufferView": "bufferView_178",
            "byteOffset": 1584,
            "byteStride": 12,
            "componentType": 5126,
            "count": 56,
            "max": [
                18.5215,
                3.75,
                12.2831
            ],
            "min": [
                -19.1165,
                -3.75,
                -12.0189
            ],
            "type": "VEC3"
        },
        "accessor_175": {
            "bufferView": "bufferView_178",
            "byteOffset": 2256,
            "byteStride": 12,
            "componentType": 5126,
            "count": 56,
            "max": [
                0.916677,
                1,
                0.916932
            ],
            "min": [
                -0.916866,
                0,
                -0.917036
            ],
            "type": "VEC3"
        },
        "accessor_28": {
            "bufferView": "bufferView_177",
            "byteOffset": 264,
            "byteStride": 0,
            "componentType": 5123,
            "count": 24,
            "type": "SCALAR"
        },
        "accessor_31": {
            "bufferView": "bufferView_177",
            "byteOffset": 312,
            "byteStride": 0,
            "componentType": 5123,
            "count": 6,
            "type": "SCALAR"
        },
        "accessor_33": {
            "bufferView": "bufferView_178",
            "byteOffset": 2928,
            "byteStride": 12,
            "componentType": 5126,
            "count": 26,
            "max": [
                16.827,
                3.75,
                10.7732
            ],
            "min": [
                -16.832,
                -3.75,
                -10.7678
            ],
            "type": "VEC3"
        },
        "accessor_35": {
            "bufferView": "bufferView_178",
            "byteOffset": 3240,
            "byteStride": 12,
            "componentType": 5126,
            "count": 26,
            "max": [
                0.917072,
                1,
                0.916817
            ],
            "min": [
                -0.916866,
                0,
                -0.916988
            ],
            "type": "VEC3"
        },
        "accessor_63": {
            "bufferView": "bufferView_177",
            "byteOffset": 324,
            "byteStride": 0,
            "componentType": 5123,
            "count": 48,
            "type": "SCALAR"
        },
        "accessor_66": {
            "bufferView": "bufferView_177",
            "byteOffset": 420,
            "byteStride": 0,
            "componentType": 5123,
            "count": 18,
            "type": "SCALAR"
        },
        "accessor_68": {
            "bufferView": "bufferView_178",
            "byteOffset": 3552,
            "byteStride": 12,
            "componentType": 5126,
            "count": 40,
            "max": [
                13.4881,
                3.75,
                11.5158
            ],
            "min": [
                -14.5639,
                -3.75,
                -11.0842
            ],
            "type": "VEC3"
        },
        "accessor_70": {
            "bufferView": "bufferView_178",
            "byteOffset": 4032,
            "byteStride": 12,
            "componentType": 5126,
            "count": 40,
            "max": [
                0.917206,
                1,
                0.916897
            ],
            "min": [
                -0.917434,
                0,
                -0.917004
            ],
            "type": "VEC3"
        },
        "accessor_98": {
            "bufferView": "bufferView_177",
            "byteOffset": 456,
            "byteStride": 0,
            "componentType": 5123,
            "count": 48,
            "type": "SCALAR"
        }
    },
    "animations": {},
    "asset": {
        "generator": "collada2gltf@cf6371beb0bdc18ba603378d5e40c966da53d385",
        "premultipliedAlpha": true,
        "profile": {
            "api": "WebGL",
            "version": "1.0.2"
        },
        "version": "1.0"
    },
    "bufferViews": {
        "bufferView_177": {
            "buffer": "\\data\\ECNU\\workspace\\gridID_118\\gridID_118",
            "byteLength": 588,
            "byteOffset": 0,
            "target": 34963
        },
        "bufferView_178": {
            "buffer": "\\data\\ECNU\\workspace\\gridID_118\\gridID_118",
            "byteLength": 5856,
            "byteOffset": 588,
            "target": 34962
        }
    },
    "buffers": {
        "\\data\\ECNU\\workspace\\gridID_118\\gridID_118": {
            "byteLength": 6444,
            "type": "arraybuffer",
            "uri": "data:application/octet-stream;base64,"
        }
    },
    "materials": {
        "BUILDING_DEFAULT_0-effect": {
            "name": "BUILDING_DEFAULT_0",
            "technique": "technique0",
            "values": {
                "ambient": [
                    0,
                    0,
                    0,
                    1
                ],
                "diffuse": [
                    0.723055,
                    0.708376,
                    0.672443,
                    1
                ],
                "emission": [
                    0,
                    0,
                    0,
                    1
                ],
                "shininess": 50,
                "specular": [
                    0.5,
                    0.5,
                    0.5,
                    1
                ]
            }
        },
        "ROOF_DEFAULT_0-effect": {
            "name": "ROOF_DEFAULT_0",
            "technique": "technique0",
            "values": {
                "ambient": [
                    0,
                    0,
                    0,
                    1
                ],
                "diffuse": [
                    0.603827,
                    0.381326,
                    0.291771,
                    1
                ],
                "emission": [
                    0,
                    0,
                    0,
                    1
                ],
                "shininess": 50,
                "specular": [
                    0.5,
                    0.5,
                    0.5,
                    1
                ]
            }
        }
    },
    "meshes": {
        "Building4022-mesh": {
            "name": "Building4022",
            "primitives": [
                {
                    "attributes": {
                        "NORMAL": "accessor_140",
                        "POSITION": "accessor_138"
                    },
                    "indices": "accessor_133",
                    "material": "BUILDING_DEFAULT_0-effect",
                    "mode": 4
                },
                {
                    "attributes": {
                        "NORMAL": "accessor_140",
                        "POSITION": "accessor_138"
                    },
                    "indices": "accessor_136",
                    "material": "ROOF_DEFAULT_0-effect",
                    "mode": 4
                }
            ]
        },
        "Building4023-mesh": {
            "name": "Building4023",
            "primitives": [
                {
                    "attributes": {
                        "NORMAL": "accessor_175",
                        "POSITION": "accessor_173"
                    },
                    "indices": "accessor_168",
                    "material": "BUILDING_DEFAULT_0-effect",
                    "mode": 4
                },
                {
                    "attributes": {
                        "NORMAL": "accessor_175",
                        "POSITION": "accessor_173"
                    },
                    "indices": "accessor_171",
                    "material": "ROOF_DEFAULT_0-effect",
                    "mode": 4
                }
            ]
        },
        "Building4097-mesh": {
            "name": "Building4097",
            "primitives": [
                {
                    "attributes": {
                        "NORMAL": "accessor_35",
                        "POSITION": "accessor_33"
                    },
                    "indices": "accessor_28",
                    "material": "BUILDING_DEFAULT_0-effect",
                    "mode": 4
                },
                {
                    "attributes": {
                        "NORMAL": "accessor_35",
                        "POSITION": "accessor_33"
                    },
                    "indices": "accessor_31",
                    "material": "ROOF_DEFAULT_0-effect",
                    "mode": 4
                }
            ]
        },
        "Building4100-mesh": {
            "name": "Building4100",
            "primitives": [
                {
                    "attributes": {
                        "NORMAL": "accessor_70",
                        "POSITION": "accessor_68"
                    },
                    "indices": "accessor_63",
                    "material": "BUILDING_DEFAULT_0-effect",
                    "mode": 4
                },
                {
                    "attributes": {
                        "NORMAL": "accessor_70",
                        "POSITION": "accessor_68"
                    },
                    "indices": "accessor_66",
                    "material": "ROOF_DEFAULT_0-effect",
                    "mode": 4
                }
            ]
        },
        "Building4101-mesh": {
            "name": "Building4101",
            "primitives": [
                {
                    "attributes": {
                        "NORMAL": "accessor_105",
                        "POSITION": "accessor_103"
                    },
                    "indices": "accessor_98",
                    "material": "BUILDING_DEFAULT_0-effect",
                    "mode": 4
                },
                {
                    "attributes": {
                        "NORMAL": "accessor_105",
                        "POSITION": "accessor_103"
                    },
                    "indices": "accessor_101",
                    "material": "ROOF_DEFAULT_0-effect",
                    "mode": 4
                }
            ]
        }
    },
    "nodes": {
        "model_gridID_118_w169922745_001": {
            "children": [],
            "matrix": [
                1,
                0,
                0,
                0,
                0,
                -1.62921e-007,
                1,
                0,
                0,
                -1,
                -1.62921e-007,
                0,
                75.355,
                600.438,
                3.7501,
                1
            ],
            "meshes": [
                "Building4097-mesh"
            ],
            "name": "model_gridID_118_w169922745_001"
        },
        "model_gridID_118_w169922750": {
            "children": [],
            "matrix": [
                1,
                0,
                0,
                0,
                0,
                -1.62921e-007,
                1,
                0,
                0,
                -1,
                -1.62921e-007,
                0,
                88.2699,
                577.724,
                3.75009,
                1
            ],
            "meshes": [
                "Building4100-mesh"
            ],
            "name": "model_gridID_118_w169922750"
        },
        "model_gridID_118_w169922751": {
            "children": [],
            "matrix": [
                1,
                0,
                0,
                0,
                0,
                -1.62921e-007,
                1,
                0,
                0,
                -1,
                -1.62921e-007,
                0,
                135.973,
                570.643,
                3.75009,
                1
            ],
            "meshes": [
                "Building4101-mesh"
            ],
            "name": "model_gridID_118_w169922751"
        },
        "model_gridID_118_w169923368": {
            "children": [],
            "matrix": [
                1,
                0,
                0,
                0,
                0,
                -1.62921e-007,
                1,
                0,
                0,
                -1,
                -1.62921e-007,
                0,
                122.921,
                592.522,
                3.7501,
                1
            ],
            "meshes": [
                "Building4022-mesh"
            ],
            "name": "model_gridID_118_w169923368"
        },
        "model_gridID_118_w169923370": {
            "children": [],
            "matrix": [
                1,
                0,
                0,
                0,
                0,
                -1.62921e-007,
                1,
                0,
                0,
                -1,
                -1.62921e-007,
                0,
                115.049,
                617.567,
                3.7501,
                1
            ],
            "meshes": [
                "Building4023-mesh"
            ],
            "name": "model_gridID_118_w169923370"
        },
        "node_5": {
            "children": [
                "model_gridID_118_w169922745_001",
                "model_gridID_118_w169922750",
                "model_gridID_118_w169922751",
                "model_gridID_118_w169923368",
                "model_gridID_118_w169923370"
            ],
            "matrix": [
                1,
                0,
                0,
                0,
                0,
                0,
                -1,
                0,
                0,
                1,
                0,
                0,
                0,
                0,
                0,
                1
            ],
            "name": "Y_UP_Transform"
        }
    },
    "programs": {
        "program_0": {
            "attributes": [
                "a_normal",
                "a_position"
            ],
            "fragmentShader": "\\data\\ECNU\\workspace\\gridID_118\\gridID_1180FS",
            "vertexShader": "\\data\\ECNU\\workspace\\gridID_118\\gridID_1180VS"
        }
    },
    "scene": "defaultScene",
    "scenes": {
        "defaultScene": {
            "nodes": [
                "node_5"
            ]
        }
    },
    "shaders": {
        "\\data\\ECNU\\workspace\\gridID_118\\gridID_1180FS": {
            "type": 35632,
            "uri": "data:text/plain;base64,"
        },
        "\\data\\ECNU\\workspace\\gridID_118\\gridID_1180VS": {
            "type": 35633,
            "uri": "data:text/plain;base64,"
        }
    },
    "skins": {},
    "techniques": {
        "technique0": {
            "attributes": {
                "a_normal": "normal",
                "a_position": "position"
            },
            "parameters": {
                "ambient": {
                    "type": 35666
                },
                "diffuse": {
                    "type": 35666
                },
                "emission": {
                    "type": 35666
                },
                "modelViewMatrix": {
                    "semantic": "MODELVIEW",
                    "type": 35676
                },
                "normal": {
                    "semantic": "NORMAL",
                    "type": 35665
                },
                "normalMatrix": {
                    "semantic": "MODELVIEWINVERSETRANSPOSE",
                    "type": 35675
                },
                "position": {
                    "semantic": "POSITION",
                    "type": 35665
                },
                "projectionMatrix": {
                    "semantic": "PROJECTION",
                    "type": 35676
                },
                "shininess": {
                    "type": 5126
                },
                "specular": {
                    "type": 35666
                }
            },
            "program": "program_0",
            "states": {
                "enable": [
                    2929,
                    2884
                ]
            },
            "uniforms": {
                "u_ambient": "ambient",
                "u_diffuse": "diffuse",
                "u_emission": "emission",
                "u_modelViewMatrix": "modelViewMatrix",
                "u_normalMatrix": "normalMatrix",
                "u_projectionMatrix": "projectionMatrix",
                "u_shininess": "shininess",
                "u_specular": "specular"
            }
        }
    }
}