{
    "accessors": {
        "accessor_28": {
            "bufferView": "bufferView_37",
            "byteOffset": 0,
            "byteStride": 0,
            "componentType": 5123,
            "count": 24,
            "type": "SCALAR"
        },
        "accessor_31": {
            "bufferView": "bufferView_37",
            "byteOffset": 48,
            "byteStride": 0,
            "componentType": 5123,
            "count": 6,
            "type": "SCALAR"
        },
        "accessor_33": {
            "bufferView": "bufferView_38",
            "byteOffset": 0,
            "byteStride": 12,
            "componentType": 5126,
            "count": 24,
            "max": [
                12.232,
                3.75,
                28.414
            ],
            "min": [
                -12.232,
                -3.75,
                -28.414
            ],
            "type": "VEC3"
        },
        "accessor_35": {
            "bufferView": "bufferView_38",
            "byteOffset": 288,
            "byteStride": 12,
            "componentType": 5126,
            "count": 24,
            "max": [
                0.982085,
                1,
                0.982039
            ],
            "min": [
                -0.982085,
                0,
                -0.982039
            ],
            "type": "VEC3"
        }
    },
    "animations": {},
    "asset": {
        "generator": "collada2gltf@cf6371beb0bdc18ba603378d5e40c966da53d385",
        "premultipliedAlpha": true,
        "profile": {
            "api": "WebGL",
            "version": "1.0.2"
        },
        "version": "1.0"
    },
    "bufferViews": {
        "bufferView_37": {
            "buffer": "\\data\\ECNU\\workspace\\gridID_34\\gridID_34",
            "byteLength": 60,
            "byteOffset": 0,
            "target": 34963
        },
        "bufferView_38": {
            "buffer": "\\data\\ECNU\\workspace\\gridID_34\\gridID_34",
            "byteLength": 576,
            "byteOffset": 60,
            "target": 34962
        }
    },
    "buffers": {
        "\\data\\ECNU\\workspace\\gridID_34\\gridID_34": {
            "byteLength": 636,
            "type": "arraybuffer",
            "uri": "data:application/octet-stream;base64,"
        }
    },
    "materials": {
        "BUILDING_DEFAULT_0-effect": {
            "name": "BUILDING_DEFAULT_0",
            "technique": "technique0",
            "values": {
                "ambient": [
                    0,
                    0,
                    0,
                    1
                ],
                "diffuse": [
                    0.723055,
                    0.708376,
                    0.672443,
                    1
                ],
                "emission": [
                    0,
                    0,
                    0,
                    1
                ],
                "shininess": 50,
                "specular": [
                    0.5,
                    0.5,
                    0.5,
                    1
                ]
            }
        },
        "ROOF_DEFAULT_0-effect": {
            "name": "ROOF_DEFAULT_0",
            "technique": "technique0",
            "values": {
                "ambient": [
                    0,
                    0,
                    0,
                    1
                ],
                "diffuse": [
                    0.603827,
                    0.381326,
                    0.291771,
                    1
                ],
                "emission": [
                    0,
                    0,
                    0,
                    1
                ],
                "shininess": 50,
                "specular": [
                    0.5,
                    0.5,
                    0.5,
                    1
                ]
            }
        }
    },
    "meshes": {
        "Building3881-mesh": {
            "name": "Building3881",
            "primitives": [
                {
                    "attributes": {
                        "NORMAL": "accessor_35",
                        "POSITION": "accessor_33"
                    },
                    "indices": "accessor_28",
                    "material": "BUILDING_DEFAULT_0-effect",
                    "mode": 4
                },
                {
                    "attributes": {
                        "NORMAL": "accessor_35",
                        "POSITION": "accessor_33"
                    },
                    "indices": "accessor_31",
                    "material": "ROOF_DEFAULT_0-effect",
                    "mode": 4
                }
            ]
        }
    },
    "nodes": {
        "model_gridID_34_w379069949": {
            "children": [],
            "matrix": [
                1,
                0,
                0,
                0,
                0,
                -1.62921e-007,
                1,
                0,
                0,
                -1,
                -1.62921e-007,
                0,
                -504.308,
                -130.738,
                3.74998,
                1
            ],
            "meshes": [
                "Building3881-mesh"
            ],
            "name": "model_gridID_34_w379069949"
        },
        "node_1": {
            "children": [
                "model_gridID_34_w379069949"
            ],
            "matrix": [
                1,
                0,
                0,
                0,
                0,
                0,
                -1,
                0,
                0,
                1,
                0,
                0,
                0,
                0,
                0,
                1
            ],
            "name": "Y_UP_Transform"
        }
    },
    "programs": {
        "program_0": {
            "attributes": [
                "a_normal",
                "a_position"
            ],
            "fragmentShader": "\\data\\ECNU\\workspace\\gridID_34\\gridID_340FS",
            "vertexShader": "\\data\\ECNU\\workspace\\gridID_34\\gridID_340VS"
        }
    },
    "scene": "defaultScene",
    "scenes": {
        "defaultScene": {
            "nodes": [
                "node_1"
            ]
        }
    },
    "shaders": {
        "\\data\\ECNU\\workspace\\gridID_34\\gridID_340FS": {
            "type": 35632,
            "uri": "data:text/plain;base64,"
        },
        "\\data\\ECNU\\workspace\\gridID_34\\gridID_340VS": {
            "type": 35633,
            "uri": "data:text/plain;base64,"
        }
    },
    "skins": {},
    "techniques": {
        "technique0": {
            "attributes": {
                "a_normal": "normal",
                "a_position": "position"
            },
            "parameters": {
                "ambient": {
                    "type": 35666
                },
                "diffuse": {
                    "type": 35666
                },
                "emission": {
                    "type": 35666
                },
                "modelViewMatrix": {
                    "semantic": "MODELVIEW",
                    "type": 35676
                },
                "normal": {
                    "semantic": "NORMAL",
                    "type": 35665
                },
                "normalMatrix": {
                    "semantic": "MODELVIEWINVERSETRANSPOSE",
                    "type": 35675
                },
                "position": {
                    "semantic": "POSITION",
                    "type": 35665
                },
                "projectionMatrix": {
                    "semantic": "PROJECTION",
                    "type": 35676
                },
                "shininess": {
                    "type": 5126
                },
                "specular": {
                    "type": 35666
                }
            },
            "program": "program_0",
            "states": {
                "enable": [
                    2929,
                    2884
                ]
            },
            "uniforms": {
                "u_ambient": "ambient",
                "u_diffuse": "diffuse",
                "u_emission": "emission",
                "u_modelViewMatrix": "modelViewMatrix",
                "u_normalMatrix": "normalMatrix",
                "u_projectionMatrix": "projectionMatrix",
                "u_shininess": "shininess",
                "u_specular": "specular"
            }
        }
    }
}