{"accessors":{"accessor_16":{"bufferView":"bufferView_42","byteOffset":0,"byteStride":0,"componentType":5123,"count":36,"type":"SCALAR"},"accessor_18":{"bufferView":"bufferView_43","byteOffset":0,"byteStride":12,"componentType":5126,"count":28,"max":[-3.22946,10,75.5814],"min":[-45.5086,0,-19.5506],"type":"VEC3"},"accessor_20":{"bufferView":"bufferView_43","byteOffset":336,"byteStride":12,"componentType":5126,"count":28,"max":[0.974316,1,0.974864],"min":[-0.971606,-1,-0.972417],"type":"VEC3"},"accessor_36":{"bufferView":"bufferView_42","byteOffset":72,"byteStride":0,"componentType":5123,"count":60,"type":"SCALAR"},"accessor_38":{"bufferView":"bufferView_43","byteOffset":672,"byteStride":12,"componentType":5126,"count":40,"max":[9.12703,10,-47.5613],"min":[0.544297,0,-58.7977],"type":"VEC3"},"accessor_40":{"bufferView":"bufferView_43","byteOffset":1152,"byteStride":12,"componentType":5126,"count":40,"max":[0.998785,1,0.998763],"min":[-0.998838,-1,-0.998878],"type":"VEC3"},"accessor_b0":{"bufferView":"bufferView_b","byteOffset":0,"byteStride":0,"componentType":5123,"count":28,"type":"SCALAR"},"accessor_b1":{"bufferView":"bufferView_b","byteOffset":56,"byteStride":0,"componentType":5123,"count":40,"type":"SCALAR"}},"animations":{},"asset":{"generator":"collada2gltf@cf6371beb0bdc18ba603378d5e40c966da53d385","premultipliedAlpha":true,"profile":{"api":"WebGL","version":"1.0.2"},"version":"1.0"},"bufferViews":{"bufferView_42":{"buffer":"\\data\\3dcity\\miami\\workspace\\gridID_82\\gridID_82","byteLength":192,"byteOffset":0,"target":34963},"bufferView_43":{"buffer":"\\data\\3dcity\\miami\\workspace\\gridID_82\\gridID_82","byteLength":1632,"byteOffset":192,"target":34962},"bufferView_b":{"buffer":"buffer_b","byteLength":136,"byteOffset":0,"target":34962}},"buffers":{"\\data\\3dcity\\miami\\workspace\\gridID_82\\gridID_82":{"byteLength":1824,"type":"arraybuffer","uri":"data:application/octet-stream;base64,"},"buffer_b":{"type":"arraybuffer","byteLength":136,"uri":"data:application/octet-stream;base64,"}},"materials":{"CityEngineMaterial_654-effect":{"name":"CityEngineMaterial_654","technique":"technique0","values":{"ambient":[1,1,1,1],"diffuse":[1,1,1,1],"emission":[0,0,0,1],"shininess":50,"specular":[0.5,0.5,0.5,1]}},"CityEngineMaterial_655-effect":{"name":"CityEngineMaterial_655","technique":"technique0","values":{"ambient":[1,1,1,1],"diffuse":[1,1,1,1],"emission":[0,0,0,1],"shininess":50,"specular":[0.5,0.5,0.5,1]}}},"meshes":{"mesh_CityEngineMaterial_652-mesh":{"name":"mesh_CityEngineMaterial.652","primitives":[{"attributes":{"NORMAL":"accessor_20","POSITION":"accessor_18","BATCHID":"accessor_b0"},"indices":"accessor_16","material":"CityEngineMaterial_654-effect","mode":4}]},"mesh_CityEngineMaterial_653-mesh":{"name":"mesh_CityEngineMaterial.653","primitives":[{"attributes":{"NORMAL":"accessor_40","POSITION":"accessor_38","BATCHID":"accessor_b1"},"indices":"accessor_36","material":"CityEngineMaterial_655-effect","mode":4}]}},"nodes":{"CityEngineMaterial":{"children":[],"matrix":[1,0,0,0,0,-1.62921e-7,1,0,0,-1,-1.62921e-7,0,0,0,0,1],"meshes":["mesh_CityEngineMaterial_652-mesh"],"name":"CityEngineMaterial"},"CityEngineMaterial_001":{"children":[],"matrix":[1,0,0,0,0,-1.62921e-7,1,0,0,-1,-1.62921e-7,0,0,0,0,1],"meshes":["mesh_CityEngineMaterial_653-mesh"],"name":"CityEngineMaterial_001"},"node_2":{"children":["CityEngineMaterial","CityEngineMaterial_001"],"matrix":[1,0,0,0,0,0,-1,0,0,1,0,0,0,0,0,1],"name":"Y_UP_Transform"}},"programs":{"program_0":{"attributes":["a_normal","a_position","a_batchId"],"fragmentShader":"\\data\\3dcity\\miami\\workspace\\gridID_82\\gridID_820FS","vertexShader":"\\data\\3dcity\\miami\\workspace\\gridID_82\\gridID_820VS"}},"scene":"defaultScene","scenes":{"defaultScene":{"nodes":["node_2"]}},"shaders":{"\\data\\3dcity\\miami\\workspace\\gridID_82\\gridID_820FS":{"type":35632,"uri":"data:text/plain;base64,"},"\\data\\3dcity\\miami\\workspace\\gridID_82\\gridID_820VS":{"type":35633,"uri":"data:text/plain;base64,"}},"skins":{},"techniques":{"technique0":{"attributes":{"a_normal":"normal","a_position":"position","a_batchId":"batchId"},"parameters":{"ambient":{"type":35666},"diffuse":{"type":35666},"emission":{"type":35666},"modelViewMatrix":{"semantic":"MODELVIEW","type":35676},"normal":{"semantic":"NORMAL","type":35665},"normalMatrix":{"semantic":"MODELVIEWINVERSETRANSPOSE","type":35675},"position":{"semantic":"POSITION","type":35665},"projectionMatrix":{"semantic":"PROJECTION","type":35676},"shininess":{"type":5126},"specular":{"type":35666},"batchId":{"semantic":"BATCHID","type":5126}},"program":"program_0","states":{"enable":[2929,2884]},"uniforms":{"u_ambient":"ambient","u_diffuse":"diffuse","u_emission":"emission","u_modelViewMatrix":"modelViewMatrix","u_normalMatrix":"normalMatrix","u_projectionMatrix":"projectionMatrix","u_shininess":"shininess","u_specular":"specular"}}}}