{"accessors":{"accessor_16":{"bufferView":"bufferView_42","byteOffset":0,"byteStride":0,"componentType":5123,"count":276,"type":"SCALAR"},"accessor_18":{"bufferView":"bufferView_43","byteOffset":0,"byteStride":12,"componentType":5126,"count":262,"max":[-36.0272,-51.3219,12.8562],"min":[-47.2816,-76.5834,3.84995],"type":"VEC3"},"accessor_20":{"bufferView":"bufferView_43","byteOffset":3144,"byteStride":12,"componentType":5126,"count":262,"max":[0.999989,0.999986,1],"min":[-0.999989,-0.999987,0],"type":"VEC3"},"accessor_36":{"bufferView":"bufferView_42","byteOffset":552,"byteStride":0,"componentType":5123,"count":1392,"type":"SCALAR"},"accessor_38":{"bufferView":"bufferView_43","byteOffset":6288,"byteStride":12,"componentType":5126,"count":1252,"max":[28.2614,-57.1764,8.12507],"min":[-4.79324,-75.1835,2.18004],"type":"VEC3"},"accessor_40":{"bufferView":"bufferView_43","byteOffset":21312,"byteStride":12,"componentType":5126,"count":1252,"max":[1,1,1],"min":[-0.999999,-1,0],"type":"VEC3"},"accessor_b0":{"bufferView":"bufferView_b","byteOffset":0,"byteStride":0,"componentType":5123,"count":262,"type":"SCALAR"},"accessor_b1":{"bufferView":"bufferView_b","byteOffset":524,"byteStride":0,"componentType":5123,"count":1252,"type":"SCALAR"}},"animations":{},"asset":{"generator":"collada2gltf@cf6371beb0bdc18ba603378d5e40c966da53d385","premultipliedAlpha":true,"profile":{"api":"WebGL","version":"1.0.2"},"version":"1.0"},"bufferViews":{"bufferView_42":{"buffer":"\\data\\3dcity\\miami\\workspace\\gridID_61\\gridID_61_high","byteLength":3336,"byteOffset":0,"target":34963},"bufferView_43":{"buffer":"\\data\\3dcity\\miami\\workspace\\gridID_61\\gridID_61_high","byteLength":36336,"byteOffset":3336,"target":34962},"bufferView_b":{"buffer":"buffer_b","byteLength":3028,"byteOffset":0,"target":34962}},"buffers":{"\\data\\3dcity\\miami\\workspace\\gridID_61\\gridID_61_high":{"byteLength":39672,"type":"arraybuffer","uri":"data:application/octet-stream;base64,"},"buffer_b":{"type":"arraybuffer","byteLength":3028,"uri":"data:application/octet-stream;base64,"}},"materials":{"__glTF__defaultMaterial0":{"name":"__glTF__defaultMaterial0","technique":"technique0","values":{"diffuse":[1,1,1,1]}}},"meshes":{"multipatch_footprint_1814-mesh":{"name":"multipatch_footprint.1814","primitives":[{"attributes":{"NORMAL":"accessor_20","POSITION":"accessor_18","BATCHID":"accessor_b0"},"indices":"accessor_16","material":"__glTF__defaultMaterial0","mode":4}]},"multipatch_footprint_1834-mesh":{"name":"multipatch_footprint.1834","primitives":[{"attributes":{"NORMAL":"accessor_40","POSITION":"accessor_38","BATCHID":"accessor_b1"},"indices":"accessor_36","material":"__glTF__defaultMaterial0","mode":4}]}},"nodes":{"gridID_61_w255188161_join":{"children":[],"matrix":[1,0,0,0,0,1,0,0,0,0,1,0,0.000366211,0.000335693,0,1],"meshes":["multipatch_footprint_1814-mesh"],"name":"gridID_61_w255188161_join"},"gridID_61_w436038497_join":{"children":[],"matrix":[1,0,0,0,0,1,0,0,0,0,1,0,0.000366211,0.000335693,0,1],"meshes":["multipatch_footprint_1834-mesh"],"name":"gridID_61_w436038497_join"},"node_2":{"children":["gridID_61_w255188161_join","gridID_61_w436038497_join"],"matrix":[1,0,0,0,0,0,-1,0,0,1,0,0,0,0,0,1],"name":"Y_UP_Transform"}},"programs":{"program_0":{"attributes":["a_normal","a_position","a_batchId"],"fragmentShader":"\\data\\3dcity\\miami\\workspace\\gridID_61\\gridID_61_high0FS","vertexShader":"\\data\\3dcity\\miami\\workspace\\gridID_61\\gridID_61_high0VS"}},"scene":"defaultScene","scenes":{"defaultScene":{"nodes":["node_2"]}},"shaders":{"\\data\\3dcity\\miami\\workspace\\gridID_61\\gridID_61_high0FS":{"type":35632,"uri":"data:text/plain;base64,"},"\\data\\3dcity\\miami\\workspace\\gridID_61\\gridID_61_high0VS":{"type":35633,"uri":"data:text/plain;base64,"}},"skins":{},"techniques":{"technique0":{"attributes":{"a_normal":"normal","a_position":"position","a_batchId":"batchId"},"parameters":{"diffuse":{"type":35666},"modelViewMatrix":{"semantic":"MODELVIEW","type":35676},"normal":{"semantic":"NORMAL","type":35665},"normalMatrix":{"semantic":"MODELVIEWINVERSETRANSPOSE","type":35675},"position":{"semantic":"POSITION","type":35665},"projectionMatrix":{"semantic":"PROJECTION","type":35676},"batchId":{"semantic":"BATCHID","type":5126}},"program":"program_0","states":{"enable":[2929,2884]},"uniforms":{"u_diffuse":"diffuse","u_modelViewMatrix":"modelViewMatrix","u_normalMatrix":"normalMatrix","u_projectionMatrix":"projectionMatrix"}}}}