{"accessors":{"accessor_16":{"bufferView":"bufferView_82","byteOffset":0,"byteStride":0,"componentType":5123,"count":84,"type":"SCALAR"},"accessor_18":{"bufferView":"bufferView_83","byteOffset":0,"byteStride":12,"componentType":5126,"count":54,"max":[84.1322,10,-52.369],"min":[47.1185,0,-114.664],"type":"VEC3"},"accessor_20":{"bufferView":"bufferView_83","byteOffset":648,"byteStride":12,"componentType":5126,"count":54,"max":[0.976734,1,0.981152],"min":[-0.976393,-1,-0.976372],"type":"VEC3"},"accessor_36":{"bufferView":"bufferView_82","byteOffset":168,"byteStride":0,"componentType":5123,"count":60,"type":"SCALAR"},"accessor_38":{"bufferView":"bufferView_83","byteOffset":1296,"byteStride":12,"componentType":5126,"count":48,"max":[68.7033,10,-31.5668],"min":[44.7696,0,-59.439],"type":"VEC3"},"accessor_40":{"bufferView":"bufferView_83","byteOffset":1872,"byteStride":12,"componentType":5126,"count":48,"max":[0.975046,1,0.972472],"min":[-0.972524,-1,-0.972621],"type":"VEC3"},"accessor_56":{"bufferView":"bufferView_82","byteOffset":288,"byteStride":0,"componentType":5123,"count":72,"type":"SCALAR"},"accessor_58":{"bufferView":"bufferView_83","byteOffset":2448,"byteStride":12,"componentType":5126,"count":52,"max":[-9.85486,140,1.07622],"min":[-67.5072,0,-81.2671],"type":"VEC3"},"accessor_60":{"bufferView":"bufferView_83","byteOffset":3072,"byteStride":12,"componentType":5126,"count":52,"max":[0.970962,1,0.863395],"min":[-0.970951,-1,-0.974033],"type":"VEC3"},"accessor_76":{"bufferView":"bufferView_82","byteOffset":432,"byteStride":0,"componentType":5123,"count":36,"type":"SCALAR"},"accessor_78":{"bufferView":"bufferView_83","byteOffset":3696,"byteStride":12,"componentType":5126,"count":28,"max":[54.0425,10,40.3813],"min":[33.2035,0,15.8836],"type":"VEC3"},"accessor_80":{"bufferView":"bufferView_83","byteOffset":4032,"byteStride":12,"componentType":5126,"count":28,"max":[0.976104,1,0.975745],"min":[-0.976242,-1,-0.975617],"type":"VEC3"},"accessor_b0":{"bufferView":"bufferView_b","byteOffset":0,"byteStride":0,"componentType":5123,"count":54,"type":"SCALAR"},"accessor_b1":{"bufferView":"bufferView_b","byteOffset":108,"byteStride":0,"componentType":5123,"count":48,"type":"SCALAR"},"accessor_b2":{"bufferView":"bufferView_b","byteOffset":204,"byteStride":0,"componentType":5123,"count":52,"type":"SCALAR"},"accessor_b3":{"bufferView":"bufferView_b","byteOffset":308,"byteStride":0,"componentType":5123,"count":28,"type":"SCALAR"}},"animations":{},"asset":{"generator":"collada2gltf@cf6371beb0bdc18ba603378d5e40c966da53d385","premultipliedAlpha":true,"profile":{"api":"WebGL","version":"1.0.2"},"version":"1.0"},"bufferViews":{"bufferView_82":{"buffer":"\\data\\3dcity\\miami\\workspace\\gridID_11\\gridID_11","byteLength":504,"byteOffset":0,"target":34963},"bufferView_83":{"buffer":"\\data\\3dcity\\miami\\workspace\\gridID_11\\gridID_11","byteLength":4368,"byteOffset":504,"target":34962},"bufferView_b":{"buffer":"buffer_b","byteLength":364,"byteOffset":0,"target":34962}},"buffers":{"\\data\\3dcity\\miami\\workspace\\gridID_11\\gridID_11":{"byteLength":4872,"type":"arraybuffer","uri":"data:application/octet-stream;base64,"},"buffer_b":{"type":"arraybuffer","byteLength":364,"uri":"data:application/octet-stream;base64,"}},"materials":{"CityEngineMaterial_308-effect":{"name":"CityEngineMaterial_308","technique":"technique0","values":{"ambient":[1,1,1,1],"diffuse":[1,1,1,1],"emission":[0,0,0,1],"shininess":50,"specular":[0.5,0.5,0.5,1]}},"CityEngineMaterial_309-effect":{"name":"CityEngineMaterial_309","technique":"technique0","values":{"ambient":[1,1,1,1],"diffuse":[1,1,1,1],"emission":[0,0,0,1],"shininess":50,"specular":[0.5,0.5,0.5,1]}},"CityEngineMaterial_310-effect":{"name":"CityEngineMaterial_310","technique":"technique0","values":{"ambient":[1,1,1,1],"diffuse":[1,1,1,1],"emission":[0,0,0,1],"shininess":50,"specular":[0.5,0.5,0.5,1]}},"CityEngineMaterial_311-effect":{"name":"CityEngineMaterial_311","technique":"technique0","values":{"ambient":[1,1,1,1],"diffuse":[1,1,1,1],"emission":[0,0,0,1],"shininess":50,"specular":[0.5,0.5,0.5,1]}}},"meshes":{"mesh_CityEngineMaterial_308-mesh":{"name":"mesh_CityEngineMaterial.308","primitives":[{"attributes":{"NORMAL":"accessor_20","POSITION":"accessor_18","BATCHID":"accessor_b0"},"indices":"accessor_16","material":"CityEngineMaterial_308-effect","mode":4}]},"mesh_CityEngineMaterial_309-mesh":{"name":"mesh_CityEngineMaterial.309","primitives":[{"attributes":{"NORMAL":"accessor_40","POSITION":"accessor_38","BATCHID":"accessor_b1"},"indices":"accessor_36","material":"CityEngineMaterial_309-effect","mode":4}]},"mesh_CityEngineMaterial_310-mesh":{"name":"mesh_CityEngineMaterial.310","primitives":[{"attributes":{"NORMAL":"accessor_60","POSITION":"accessor_58","BATCHID":"accessor_b2"},"indices":"accessor_56","material":"CityEngineMaterial_310-effect","mode":4}]},"mesh_CityEngineMaterial_311-mesh":{"name":"mesh_CityEngineMaterial.311","primitives":[{"attributes":{"NORMAL":"accessor_80","POSITION":"accessor_78","BATCHID":"accessor_b3"},"indices":"accessor_76","material":"CityEngineMaterial_311-effect","mode":4}]}},"nodes":{"CityEngineMaterial":{"children":[],"matrix":[1,0,0,0,0,-1.62921e-7,1,0,0,-1,-1.62921e-7,0,0,0,0,1],"meshes":["mesh_CityEngineMaterial_308-mesh"],"name":"CityEngineMaterial"},"CityEngineMaterial_001":{"children":[],"matrix":[1,0,0,0,0,-1.62921e-7,1,0,0,-1,-1.62921e-7,0,0,0,0,1],"meshes":["mesh_CityEngineMaterial_309-mesh"],"name":"CityEngineMaterial_001"},"CityEngineMaterial_002":{"children":[],"matrix":[1,0,0,0,0,-1.62921e-7,1,0,0,-1,-1.62921e-7,0,0,0,0,1],"meshes":["mesh_CityEngineMaterial_310-mesh"],"name":"CityEngineMaterial_002"},"CityEngineMaterial_003":{"children":[],"matrix":[1,0,0,0,0,-1.62921e-7,1,0,0,-1,-1.62921e-7,0,0,0,0,1],"meshes":["mesh_CityEngineMaterial_311-mesh"],"name":"CityEngineMaterial_003"},"node_4":{"children":["CityEngineMaterial","CityEngineMaterial_001","CityEngineMaterial_002","CityEngineMaterial_003"],"matrix":[1,0,0,0,0,0,-1,0,0,1,0,0,0,0,0,1],"name":"Y_UP_Transform"}},"programs":{"program_0":{"attributes":["a_normal","a_position","a_batchId"],"fragmentShader":"\\data\\3dcity\\miami\\workspace\\gridID_11\\gridID_110FS","vertexShader":"\\data\\3dcity\\miami\\workspace\\gridID_11\\gridID_110VS"}},"scene":"defaultScene","scenes":{"defaultScene":{"nodes":["node_4"]}},"shaders":{"\\data\\3dcity\\miami\\workspace\\gridID_11\\gridID_110FS":{"type":35632,"uri":"data:text/plain;base64,"},"\\data\\3dcity\\miami\\workspace\\gridID_11\\gridID_110VS":{"type":35633,"uri":"data:text/plain;base64,"}},"skins":{},"techniques":{"technique0":{"attributes":{"a_normal":"normal","a_position":"position","a_batchId":"batchId"},"parameters":{"ambient":{"type":35666},"diffuse":{"type":35666},"emission":{"type":35666},"modelViewMatrix":{"semantic":"MODELVIEW","type":35676},"normal":{"semantic":"NORMAL","type":35665},"normalMatrix":{"semantic":"MODELVIEWINVERSETRANSPOSE","type":35675},"position":{"semantic":"POSITION","type":35665},"projectionMatrix":{"semantic":"PROJECTION","type":35676},"shininess":{"type":5126},"specular":{"type":35666},"batchId":{"semantic":"BATCHID","type":5126}},"program":"program_0","states":{"enable":[2929,2884]},"uniforms":{"u_ambient":"ambient","u_diffuse":"diffuse","u_emission":"emission","u_modelViewMatrix":"modelViewMatrix","u_normalMatrix":"normalMatrix","u_projectionMatrix":"projectionMatrix","u_shininess":"shininess","u_specular":"specular"}}}}