{
    "accessors": {
        "accessor_16": {
            "bufferView": "bufferView_82",
            "byteOffset": 0,
            "byteStride": 0,
            "componentType": 5123,
            "count": 684,
            "type": "SCALAR"
        },
        "accessor_18": {
            "bufferView": "bufferView_83",
            "byteOffset": 0,
            "byteStride": 12,
            "componentType": 5126,
            "count": 637,
            "max": [
                -11.4817,
                67.3709,
                153.731
            ],
            "min": [
                -48.8358,
                5.42297,
                0
            ],
            "type": "VEC3"
        },
        "accessor_20": {
            "bufferView": "bufferView_83",
            "byteOffset": 7644,
            "byteStride": 12,
            "componentType": 5126,
            "count": 637,
            "max": [
                0.978985,
                0.978585,
                1
            ],
            "min": [
                -0.979072,
                -0.978579,
                -1
            ],
            "type": "VEC3"
        },
        "accessor_36": {
            "bufferView": "bufferView_82",
            "byteOffset": 1368,
            "byteStride": 0,
            "componentType": 5123,
            "count": 150,
            "type": "SCALAR"
        },
        "accessor_38": {
            "bufferView": "bufferView_83",
            "byteOffset": 15288,
            "byteStride": 12,
            "componentType": 5126,
            "count": 146,
            "max": [
                54.4834,
                -17.6523,
                4.78202
            ],
            "min": [
                32.8989,
                -42.4684,
                0.951782
            ],
            "type": "VEC3"
        },
        "accessor_40": {
            "bufferView": "bufferView_83",
            "byteOffset": 17040,
            "byteStride": 12,
            "componentType": 5126,
            "count": 146,
            "max": [
                0.973319,
                0.972762,
                1
            ],
            "min": [
                -0.973319,
                -0.972755,
                0
            ],
            "type": "VEC3"
        },
        "accessor_56": {
            "bufferView": "bufferView_82",
            "byteOffset": 1668,
            "byteStride": 0,
            "componentType": 5123,
            "count": 246,
            "type": "SCALAR"
        },
        "accessor_58": {
            "bufferView": "bufferView_83",
            "byteOffset": 18792,
            "byteStride": 12,
            "componentType": 5126,
            "count": 227,
            "max": [
                88.3432,
                116.68,
                57.8229
            ],
            "min": [
                40.4863,
                34.831,
                0.417275
            ],
            "type": "VEC3"
        },
        "accessor_60": {
            "bufferView": "bufferView_83",
            "byteOffset": 21516,
            "byteStride": 12,
            "componentType": 5126,
            "count": 227,
            "max": [
                0.973443,
                0.973033,
                1
            ],
            "min": [
                -0.9929,
                -0.993189,
                0
            ],
            "type": "VEC3"
        },
        "accessor_76": {
            "bufferView": "bufferView_82",
            "byteOffset": 2160,
            "byteStride": 0,
            "componentType": 5123,
            "count": 180,
            "type": "SCALAR"
        },
        "accessor_78": {
            "bufferView": "bufferView_83",
            "byteOffset": 24240,
            "byteStride": 12,
            "componentType": 5126,
            "count": 162,
            "max": [
                84.6045,
                118.403,
                228.375
            ],
            "min": [
                46.1606,
                62.1114,
                0.223427
            ],
            "type": "VEC3"
        },
        "accessor_80": {
            "bufferView": "bufferView_83",
            "byteOffset": 26184,
            "byteStride": 12,
            "componentType": 5126,
            "count": 162,
            "max": [
                0.9929,
                0.973033,
                1
            ],
            "min": [
                -0.992528,
                -0.972879,
                0
            ],
            "type": "VEC3"
        }
    },
    "animations": {},
    "asset": {
        "generator": "collada2gltf@cf6371beb0bdc18ba603378d5e40c966da53d385",
        "premultipliedAlpha": true,
        "profile": {
            "api": "WebGL",
            "version": "1.0.2"
        },
        "version": "1.0"
    },
    "bufferViews": {
        "bufferView_82": {
            "buffer": "\\data\\3dcity\\miami\\workspace\\gridID_11\\gridID_11_high",
            "byteLength": 2520,
            "byteOffset": 0,
            "target": 34963
        },
        "bufferView_83": {
            "buffer": "\\data\\3dcity\\miami\\workspace\\gridID_11\\gridID_11_high",
            "byteLength": 28128,
            "byteOffset": 2520,
            "target": 34962
        }
    },
    "buffers": {
        "\\data\\3dcity\\miami\\workspace\\gridID_11\\gridID_11_high": {
            "byteLength": 30648,
            "type": "arraybuffer",
            "uri": "data:application/octet-stream;base64,"
        }
    },
    "materials": {
        "__glTF__defaultMaterial0": {
            "name": "__glTF__defaultMaterial0",
            "technique": "technique0",
            "values": {
                "diffuse": [
                    1,
                    1,
                    1,
                    1
                ]
            }
        }
    },
    "meshes": {
        "multipatch_footprint_1276-mesh": {
            "name": "multipatch_footprint.1276",
            "primitives": [
                {
                    "attributes": {
                        "NORMAL": "accessor_20",
                        "POSITION": "accessor_18"
                    },
                    "indices": "accessor_16",
                    "material": "__glTF__defaultMaterial0",
                    "mode": 4
                }
            ]
        },
        "multipatch_footprint_1347-mesh": {
            "name": "multipatch_footprint.1347",
            "primitives": [
                {
                    "attributes": {
                        "NORMAL": "accessor_40",
                        "POSITION": "accessor_38"
                    },
                    "indices": "accessor_36",
                    "material": "__glTF__defaultMaterial0",
                    "mode": 4
                }
            ]
        },
        "multipatch_footprint_1356-mesh": {
            "name": "multipatch_footprint.1356",
            "primitives": [
                {
                    "attributes": {
                        "NORMAL": "accessor_60",
                        "POSITION": "accessor_58"
                    },
                    "indices": "accessor_56",
                    "material": "__glTF__defaultMaterial0",
                    "mode": 4
                }
            ]
        },
        "multipatch_footprint_1357-mesh": {
            "name": "multipatch_footprint.1357",
            "primitives": [
                {
                    "attributes": {
                        "NORMAL": "accessor_80",
                        "POSITION": "accessor_78"
                    },
                    "indices": "accessor_76",
                    "material": "__glTF__defaultMaterial0",
                    "mode": 4
                }
            ]
        }
    },
    "nodes": {
        "gridID_11_w300241285_join": {
            "children": [],
            "matrix": [
                1,
                0,
                0,
                0,
                0,
                1,
                0,
                0,
                0,
                0,
                1,
                0,
                0.00038147,
                0.000366211,
                0,
                1
            ],
            "meshes": [
                "multipatch_footprint_1357-mesh"
            ],
            "name": "gridID_11_w300241285_join"
        },
        "gridID_11_w300241287_join": {
            "children": [],
            "matrix": [
                1,
                0,
                0,
                0,
                0,
                1,
                0,
                0,
                0,
                0,
                1,
                0,
                0.00038147,
                0.000366211,
                0,
                1
            ],
            "meshes": [
                "multipatch_footprint_1356-mesh"
            ],
            "name": "gridID_11_w300241287_join"
        },
        "gridID_11_w301823926_join": {
            "children": [],
            "matrix": [
                1,
                0,
                0,
                0,
                0,
                1,
                0,
                0,
                0,
                0,
                1,
                0,
                0.00038147,
                0.000366211,
                0,
                1
            ],
            "meshes": [
                "multipatch_footprint_1276-mesh"
            ],
            "name": "gridID_11_w301823926_join"
        },
        "gridID_11_w436109245_join": {
            "children": [],
            "matrix": [
                1,
                0,
                0,
                0,
                0,
                1,
                0,
                0,
                0,
                0,
                1,
                0,
                0.00038147,
                0.000366211,
                0,
                1
            ],
            "meshes": [
                "multipatch_footprint_1347-mesh"
            ],
            "name": "gridID_11_w436109245_join"
        },
        "node_4": {
            "children": [
                "gridID_11_w301823926_join",
                "gridID_11_w436109245_join",
                "gridID_11_w300241287_join",
                "gridID_11_w300241285_join"
            ],
            "matrix": [
                1,
                0,
                0,
                0,
                0,
                0,
                -1,
                0,
                0,
                1,
                0,
                0,
                0,
                0,
                0,
                1
            ],
            "name": "Y_UP_Transform"
        }
    },
    "programs": {
        "program_0": {
            "attributes": [
                "a_normal",
                "a_position"
            ],
            "fragmentShader": "\\data\\3dcity\\miami\\workspace\\gridID_11\\gridID_11_high0FS",
            "vertexShader": "\\data\\3dcity\\miami\\workspace\\gridID_11\\gridID_11_high0VS"
        }
    },
    "scene": "defaultScene",
    "scenes": {
        "defaultScene": {
            "nodes": [
                "node_4"
            ]
        }
    },
    "shaders": {
        "\\data\\3dcity\\miami\\workspace\\gridID_11\\gridID_11_high0FS": {
            "type": 35632,
            "uri": "data:text/plain;base64,"
        },
        "\\data\\3dcity\\miami\\workspace\\gridID_11\\gridID_11_high0VS": {
            "type": 35633,
            "uri": "data:text/plain;base64,"
        }
    },
    "skins": {},
    "techniques": {
        "technique0": {
            "attributes": {
                "a_normal": "normal",
                "a_position": "position"
            },
            "parameters": {
                "diffuse": {
                    "type": 35666
                },
                "modelViewMatrix": {
                    "semantic": "MODELVIEW",
                    "type": 35676
                },
                "normal": {
                    "semantic": "NORMAL",
                    "type": 35665
                },
                "normalMatrix": {
                    "semantic": "MODELVIEWINVERSETRANSPOSE",
                    "type": 35675
                },
                "position": {
                    "semantic": "POSITION",
                    "type": 35665
                },
                "projectionMatrix": {
                    "semantic": "PROJECTION",
                    "type": 35676
                }
            },
            "program": "program_0",
            "states": {
                "enable": [
                    2929,
                    2884
                ]
            },
            "uniforms": {
                "u_diffuse": "diffuse",
                "u_modelViewMatrix": "modelViewMatrix",
                "u_normalMatrix": "normalMatrix",
                "u_projectionMatrix": "projectionMatrix"
            }
        }
    }
}