{"accessors":{"accessor_16":{"bufferView":"bufferView_42","byteOffset":0,"byteStride":0,"componentType":5123,"count":612,"type":"SCALAR"},"accessor_18":{"bufferView":"bufferView_43","byteOffset":0,"byteStride":12,"componentType":5126,"count":404,"max":[50.9459,17.5,43.4954],"min":[-16.6584,0,-17.7358],"type":"VEC3"},"accessor_20":{"bufferView":"bufferView_43","byteOffset":4848,"byteStride":12,"componentType":5126,"count":404,"max":[0.973563,1,0.815184],"min":[-0.826678,-1,-0.825302],"type":"VEC3"},"accessor_36":{"bufferView":"bufferView_42","byteOffset":1224,"byteStride":0,"componentType":5123,"count":36,"type":"SCALAR"},"accessor_38":{"bufferView":"bufferView_43","byteOffset":9696,"byteStride":12,"componentType":5126,"count":28,"max":[67.2208,7,-13.5334],"min":[46.2148,0,-35.0645],"type":"VEC3"},"accessor_40":{"bufferView":"bufferView_43","byteOffset":10032,"byteStride":12,"componentType":5126,"count":28,"max":[0.778323,1,0.77826],"min":[-0.778001,-1,-0.778589],"type":"VEC3"},"accessor_b0":{"bufferView":"bufferView_b","byteOffset":0,"byteStride":0,"componentType":5123,"count":404,"type":"SCALAR"},"accessor_b1":{"bufferView":"bufferView_b","byteOffset":808,"byteStride":0,"componentType":5123,"count":28,"type":"SCALAR"}},"animations":{},"asset":{"generator":"collada2gltf@cf6371beb0bdc18ba603378d5e40c966da53d385","premultipliedAlpha":true,"profile":{"api":"WebGL","version":"1.0.2"},"version":"1.0"},"bufferViews":{"bufferView_42":{"buffer":"\\data\\3dcity\\miami\\workspace\\gridID_2\\gridID_2","byteLength":1296,"byteOffset":0,"target":34963},"bufferView_43":{"buffer":"\\data\\3dcity\\miami\\workspace\\gridID_2\\gridID_2","byteLength":10368,"byteOffset":1296,"target":34962},"bufferView_b":{"buffer":"buffer_b","byteLength":864,"byteOffset":0,"target":34962}},"buffers":{"\\data\\3dcity\\miami\\workspace\\gridID_2\\gridID_2":{"byteLength":11664,"type":"arraybuffer","uri":"data:application/octet-stream;base64,"},"buffer_b":{"type":"arraybuffer","byteLength":864,"uri":"data:application/octet-stream;base64,"}},"materials":{"CityEngineMaterial_294-effect":{"name":"CityEngineMaterial_294","technique":"technique0","values":{"ambient":[1,1,1,1],"diffuse":[1,1,1,1],"emission":[0,0,0,1],"shininess":50,"specular":[0.5,0.5,0.5,1]}},"CityEngineMaterial_295-effect":{"name":"CityEngineMaterial_295","technique":"technique0","values":{"ambient":[1,1,1,1],"diffuse":[1,1,1,1],"emission":[0,0,0,1],"shininess":50,"specular":[0.5,0.5,0.5,1]}}},"meshes":{"mesh_CityEngineMaterial_294-mesh":{"name":"mesh_CityEngineMaterial.294","primitives":[{"attributes":{"NORMAL":"accessor_20","POSITION":"accessor_18","BATCHID":"accessor_b0"},"indices":"accessor_16","material":"CityEngineMaterial_294-effect","mode":4}]},"mesh_CityEngineMaterial_295-mesh":{"name":"mesh_CityEngineMaterial.295","primitives":[{"attributes":{"NORMAL":"accessor_40","POSITION":"accessor_38","BATCHID":"accessor_b1"},"indices":"accessor_36","material":"CityEngineMaterial_295-effect","mode":4}]}},"nodes":{"CityEngineMaterial":{"children":[],"matrix":[1,0,0,0,0,-1.62921e-7,1,0,0,-1,-1.62921e-7,0,0,0,0,1],"meshes":["mesh_CityEngineMaterial_294-mesh"],"name":"CityEngineMaterial"},"CityEngineMaterial_001":{"children":[],"matrix":[1,0,0,0,0,-1.62921e-7,1,0,0,-1,-1.62921e-7,0,0,0,0,1],"meshes":["mesh_CityEngineMaterial_295-mesh"],"name":"CityEngineMaterial_001"},"node_2":{"children":["CityEngineMaterial","CityEngineMaterial_001"],"matrix":[1,0,0,0,0,0,-1,0,0,1,0,0,0,0,0,1],"name":"Y_UP_Transform"}},"programs":{"program_0":{"attributes":["a_normal","a_position","a_batchId"],"fragmentShader":"\\data\\3dcity\\miami\\workspace\\gridID_2\\gridID_20FS","vertexShader":"\\data\\3dcity\\miami\\workspace\\gridID_2\\gridID_20VS"}},"scene":"defaultScene","scenes":{"defaultScene":{"nodes":["node_2"]}},"shaders":{"\\data\\3dcity\\miami\\workspace\\gridID_2\\gridID_20FS":{"type":35632,"uri":"data:text/plain;base64,"},"\\data\\3dcity\\miami\\workspace\\gridID_2\\gridID_20VS":{"type":35633,"uri":"data:text/plain;base64,"}},"skins":{},"techniques":{"technique0":{"attributes":{"a_normal":"normal","a_position":"position","a_batchId":"batchId"},"parameters":{"ambient":{"type":35666},"diffuse":{"type":35666},"emission":{"type":35666},"modelViewMatrix":{"semantic":"MODELVIEW","type":35676},"normal":{"semantic":"NORMAL","type":35665},"normalMatrix":{"semantic":"MODELVIEWINVERSETRANSPOSE","type":35675},"position":{"semantic":"POSITION","type":35665},"projectionMatrix":{"semantic":"PROJECTION","type":35676},"shininess":{"type":5126},"specular":{"type":35666},"batchId":{"semantic":"BATCHID","type":5126}},"program":"program_0","states":{"enable":[2929,2884]},"uniforms":{"u_ambient":"ambient","u_diffuse":"diffuse","u_emission":"emission","u_modelViewMatrix":"modelViewMatrix","u_normalMatrix":"normalMatrix","u_projectionMatrix":"projectionMatrix","u_shininess":"shininess","u_specular":"specular"}}}}