{
    "accessors": {
        "accessor_16": {
            "bufferView": "bufferView_82",
            "byteOffset": 0,
            "byteStride": 0,
            "componentType": 5123,
            "count": 348,
            "type": "SCALAR"
        },
        "accessor_18": {
            "bufferView": "bufferView_83",
            "byteOffset": 0,
            "byteStride": 12,
            "componentType": 5126,
            "count": 302,
            "max": [
                -12.4243,
                50.5442,
                94.647
            ],
            "min": [
                -24.3144,
                18.3416,
                0.59597
            ],
            "type": "VEC3"
        },
        "accessor_20": {
            "bufferView": "bufferView_83",
            "byteOffset": 3624,
            "byteStride": 12,
            "componentType": 5126,
            "count": 302,
            "max": [
                0.974039,
                0.986329,
                1
            ],
            "min": [
                -0.974285,
                -0.974187,
                0
            ],
            "type": "VEC3"
        },
        "accessor_36": {
            "bufferView": "bufferView_82",
            "byteOffset": 696,
            "byteStride": 0,
            "componentType": 5123,
            "count": 867,
            "type": "SCALAR"
        },
        "accessor_38": {
            "bufferView": "bufferView_83",
            "byteOffset": 7248,
            "byteStride": 12,
            "componentType": 5126,
            "count": 816,
            "max": [
                3.97104,
                -7.01038,
                148.388
            ],
            "min": [
                -39.2697,
                -75.3952,
                0.4146
            ],
            "type": "VEC3"
        },
        "accessor_40": {
            "bufferView": "bufferView_83",
            "byteOffset": 17040,
            "byteStride": 12,
            "componentType": 5126,
            "count": 816,
            "max": [
                0.977587,
                0.995449,
                1
            ],
            "min": [
                -0.977595,
                -0.995431,
                0
            ],
            "type": "VEC3"
        },
        "accessor_56": {
            "bufferView": "bufferView_82",
            "byteOffset": 2430,
            "byteStride": 0,
            "componentType": 5123,
            "count": 3186,
            "type": "SCALAR"
        },
        "accessor_58": {
            "bufferView": "bufferView_83",
            "byteOffset": 26832,
            "byteStride": 12,
            "componentType": 5126,
            "count": 2790,
            "max": [
                182.526,
                118.35,
                138.294
            ],
            "min": [
                -25.1027,
                -85.942,
                0
            ],
            "type": "VEC3"
        },
        "accessor_60": {
            "bufferView": "bufferView_83",
            "byteOffset": 60312,
            "byteStride": 12,
            "componentType": 5126,
            "count": 2790,
            "max": [
                0.98427,
                0.995427,
                1
            ],
            "min": [
                -0.997348,
                -0.996445,
                -1
            ],
            "type": "VEC3"
        },
        "accessor_76": {
            "bufferView": "bufferView_82",
            "byteOffset": 8802,
            "byteStride": 0,
            "componentType": 5123,
            "count": 258,
            "type": "SCALAR"
        },
        "accessor_78": {
            "bufferView": "bufferView_83",
            "byteOffset": 93792,
            "byteStride": 12,
            "componentType": 5126,
            "count": 234,
            "max": [
                55.8897,
                -27.8594,
                38.4384
            ],
            "min": [
                -2.39535,
                -72.9205,
                21.7359
            ],
            "type": "VEC3"
        },
        "accessor_80": {
            "bufferView": "bufferView_83",
            "byteOffset": 96600,
            "byteStride": 12,
            "componentType": 5126,
            "count": 234,
            "max": [
                0.973403,
                0.998265,
                1
            ],
            "min": [
                -0.973403,
                -0.997476,
                0
            ],
            "type": "VEC3"
        }
    },
    "animations": {},
    "asset": {
        "generator": "collada2gltf@cf6371beb0bdc18ba603378d5e40c966da53d385",
        "premultipliedAlpha": true,
        "profile": {
            "api": "WebGL",
            "version": "1.0.2"
        },
        "version": "1.0"
    },
    "bufferViews": {
        "bufferView_82": {
            "buffer": "\\data\\3dcity\\miami\\workspace\\gridID_30\\gridID_30_high",
            "byteLength": 9320,
            "byteOffset": 0,
            "target": 34963
        },
        "bufferView_83": {
            "buffer": "\\data\\3dcity\\miami\\workspace\\gridID_30\\gridID_30_high",
            "byteLength": 99408,
            "byteOffset": 9320,
            "target": 34962
        }
    },
    "buffers": {
        "\\data\\3dcity\\miami\\workspace\\gridID_30\\gridID_30_high": {
            "byteLength": 108728,
            "type": "arraybuffer",
            "uri": "data:application/octet-stream;base64,"
        }
    },
    "materials": {
        "__glTF__defaultMaterial0": {
            "name": "__glTF__defaultMaterial0",
            "technique": "technique0",
            "values": {
                "diffuse": [
                    1,
                    1,
                    1,
                    1
                ]
            }
        }
    },
    "meshes": {
        "multipatch_footprint_1050-mesh": {
            "name": "multipatch_footprint.1050",
            "primitives": [
                {
                    "attributes": {
                        "NORMAL": "accessor_20",
                        "POSITION": "accessor_18"
                    },
                    "indices": "accessor_16",
                    "material": "__glTF__defaultMaterial0",
                    "mode": 4
                }
            ]
        },
        "multipatch_footprint_1297-mesh": {
            "name": "multipatch_footprint.1297",
            "primitives": [
                {
                    "attributes": {
                        "NORMAL": "accessor_40",
                        "POSITION": "accessor_38"
                    },
                    "indices": "accessor_36",
                    "material": "__glTF__defaultMaterial0",
                    "mode": 4
                }
            ]
        },
        "multipatch_footprint_1298-mesh": {
            "name": "multipatch_footprint.1298",
            "primitives": [
                {
                    "attributes": {
                        "NORMAL": "accessor_60",
                        "POSITION": "accessor_58"
                    },
                    "indices": "accessor_56",
                    "material": "__glTF__defaultMaterial0",
                    "mode": 4
                }
            ]
        },
        "multipatch_footprint_1299-mesh": {
            "name": "multipatch_footprint.1299",
            "primitives": [
                {
                    "attributes": {
                        "NORMAL": "accessor_80",
                        "POSITION": "accessor_78"
                    },
                    "indices": "accessor_76",
                    "material": "__glTF__defaultMaterial0",
                    "mode": 4
                }
            ]
        }
    },
    "nodes": {
        "gridID_30_w300510113_join": {
            "children": [],
            "matrix": [
                1,
                0,
                0,
                0,
                0,
                1,
                0,
                0,
                0,
                0,
                1,
                0,
                0.000366211,
                0.000335693,
                0,
                1
            ],
            "meshes": [
                "multipatch_footprint_1297-mesh"
            ],
            "name": "gridID_30_w300510113_join"
        },
        "gridID_30_w300510114_join": {
            "children": [],
            "matrix": [
                1,
                0,
                0,
                0,
                0,
                1,
                0,
                0,
                0,
                0,
                1,
                0,
                0.000366211,
                0.000335693,
                0,
                1
            ],
            "meshes": [
                "multipatch_footprint_1299-mesh"
            ],
            "name": "gridID_30_w300510114_join"
        },
        "gridID_30_w300510588_join": {
            "children": [],
            "matrix": [
                1,
                0,
                0,
                0,
                0,
                1,
                0,
                0,
                0,
                0,
                1,
                0,
                0.000366211,
                0.000335693,
                0,
                1
            ],
            "meshes": [
                "multipatch_footprint_1050-mesh"
            ],
            "name": "gridID_30_w300510588_join"
        },
        "gridID_30_w300510589_join": {
            "children": [],
            "matrix": [
                1,
                0,
                0,
                0,
                0,
                1,
                0,
                0,
                0,
                0,
                1,
                0,
                0.000366211,
                0.000335693,
                0,
                1
            ],
            "meshes": [
                "multipatch_footprint_1298-mesh"
            ],
            "name": "gridID_30_w300510589_join"
        },
        "node_4": {
            "children": [
                "gridID_30_w300510588_join",
                "gridID_30_w300510113_join",
                "gridID_30_w300510589_join",
                "gridID_30_w300510114_join"
            ],
            "matrix": [
                1,
                0,
                0,
                0,
                0,
                0,
                -1,
                0,
                0,
                1,
                0,
                0,
                0,
                0,
                0,
                1
            ],
            "name": "Y_UP_Transform"
        }
    },
    "programs": {
        "program_0": {
            "attributes": [
                "a_normal",
                "a_position"
            ],
            "fragmentShader": "\\data\\3dcity\\miami\\workspace\\gridID_30\\gridID_30_high0FS",
            "vertexShader": "\\data\\3dcity\\miami\\workspace\\gridID_30\\gridID_30_high0VS"
        }
    },
    "scene": "defaultScene",
    "scenes": {
        "defaultScene": {
            "nodes": [
                "node_4"
            ]
        }
    },
    "shaders": {
        "\\data\\3dcity\\miami\\workspace\\gridID_30\\gridID_30_high0FS": {
            "type": 35632,
            "uri": "data:text/plain;base64,"
        },
        "\\data\\3dcity\\miami\\workspace\\gridID_30\\gridID_30_high0VS": {
            "type": 35633,
            "uri": "data:text/plain;base64,"
        }
    },
    "skins": {},
    "techniques": {
        "technique0": {
            "attributes": {
                "a_normal": "normal",
                "a_position": "position"
            },
            "parameters": {
                "diffuse": {
                    "type": 35666
                },
                "modelViewMatrix": {
                    "semantic": "MODELVIEW",
                    "type": 35676
                },
                "normal": {
                    "semantic": "NORMAL",
                    "type": 35665
                },
                "normalMatrix": {
                    "semantic": "MODELVIEWINVERSETRANSPOSE",
                    "type": 35675
                },
                "position": {
                    "semantic": "POSITION",
                    "type": 35665
                },
                "projectionMatrix": {
                    "semantic": "PROJECTION",
                    "type": 35676
                }
            },
            "program": "program_0",
            "states": {
                "enable": [
                    2929,
                    2884
                ]
            },
            "uniforms": {
                "u_diffuse": "diffuse",
                "u_modelViewMatrix": "modelViewMatrix",
                "u_normalMatrix": "normalMatrix",
                "u_projectionMatrix": "projectionMatrix"
            }
        }
    }
}