{"accessors":{"accessor_110":{"bufferView":"bufferView_122","byteOffset":0,"byteStride":0,"componentType":5123,"count":150,"type":"SCALAR"},"accessor_113":{"bufferView":"bufferView_122","byteOffset":300,"byteStride":0,"componentType":5123,"count":87,"type":"SCALAR"},"accessor_116":{"bufferView":"bufferView_122","byteOffset":474,"byteStride":0,"componentType":5123,"count":6,"type":"SCALAR"},"accessor_118":{"bufferView":"bufferView_123","byteOffset":0,"byteStride":12,"componentType":5126,"count":219,"max":[16.0166,9.71591,15.2414],"min":[-24.0874,-7.78409,-23.0206],"type":"VEC3"},"accessor_120":{"bufferView":"bufferView_123","byteOffset":2628,"byteStride":12,"componentType":5126,"count":219,"max":[0.987535,1,0.987249],"min":[-0.987103,0,-0.98705],"type":"VEC3"},"accessor_28":{"bufferView":"bufferView_122","byteOffset":564,"byteStride":0,"componentType":5123,"count":54,"type":"SCALAR"},"accessor_31":{"bufferView":"bufferView_122","byteOffset":672,"byteStride":0,"componentType":5123,"count":39,"type":"SCALAR"},"accessor_33":{"bufferView":"bufferView_123","byteOffset":5856,"byteStride":12,"componentType":5126,"count":81,"max":[23.2083,6.80555,26.1091],"min":[-14.9827,-5.69444,-19.9349],"type":"VEC3"},"accessor_35":{"bufferView":"bufferView_123","byteOffset":6828,"byteStride":12,"componentType":5126,"count":81,"max":[0.988011,0.796951,0.987964],"min":[-0.988006,0,-0.987988],"type":"VEC3"},"accessor_63":{"bufferView":"bufferView_122","byteOffset":486,"byteStride":0,"componentType":5123,"count":30,"type":"SCALAR"},"accessor_66":{"bufferView":"bufferView_122","byteOffset":546,"byteStride":0,"componentType":5123,"count":9,"type":"SCALAR"},"accessor_68":{"bufferView":"bufferView_123","byteOffset":5256,"byteStride":12,"componentType":5126,"count":25,"max":[4.61697,2.5,7.14279],"min":[-4.69302,-2.5,-4.9252],"type":"VEC3"},"accessor_70":{"bufferView":"bufferView_123","byteOffset":5556,"byteStride":12,"componentType":5126,"count":25,"max":[0.987067,1,0.98686],"min":[-0.987041,0,-0.987108],"type":"VEC3"},"accessor_b0":{"bufferView":"bufferView_b","byteOffset":0,"byteStride":0,"componentType":5123,"count":219,"type":"SCALAR"},"accessor_b1":{"bufferView":"bufferView_b","byteOffset":438,"byteStride":0,"componentType":5123,"count":25,"type":"SCALAR"},"accessor_b2":{"bufferView":"bufferView_b","byteOffset":488,"byteStride":0,"componentType":5123,"count":81,"type":"SCALAR"}},"animations":{},"asset":{"generator":"collada2gltf@cf6371beb0bdc18ba603378d5e40c966da53d385","premultipliedAlpha":true,"profile":{"api":"WebGL","version":"1.0.2"},"version":"1.0"},"bufferViews":{"bufferView_122":{"buffer":"\\data\\ECNU\\workspace\\gridID_97\\gridID_97","byteLength":752,"byteOffset":0,"target":34963},"bufferView_123":{"buffer":"\\data\\ECNU\\workspace\\gridID_97\\gridID_97","byteLength":7800,"byteOffset":752,"target":34962},"bufferView_b":{"buffer":"buffer_b","byteLength":650,"byteOffset":0,"target":34962}},"buffers":{"\\data\\ECNU\\workspace\\gridID_97\\gridID_97":{"byteLength":8552,"type":"arraybuffer","uri":"data:application/octet-stream;base64,"},"buffer_b":{"type":"arraybuffer","byteLength":650,"uri":"data:application/octet-stream;base64,"}},"materials":{"BUILDING_DEFAULT_0-effect":{"name":"BUILDING_DEFAULT_0","technique":"technique0","values":{"ambient":[0,0,0,1],"diffuse":[0.723055,0.708376,0.672443,1],"emission":[0,0,0,1],"shininess":50,"specular":[0.5,0.5,0.5,1]}},"CONCRETE_0-effect":{"name":"CONCRETE_0","technique":"technique0","values":{"ambient":[0,0,0,1],"diffuse":[0.309469,0.327778,0.309469,1],"emission":[0,0,0,1],"shininess":50,"specular":[0.5,0.5,0.5,1]}},"ROOF_DEFAULT_0-effect":{"name":"ROOF_DEFAULT_0","technique":"technique0","values":{"ambient":[0,0,0,1],"diffuse":[0.603827,0.381326,0.291771,1],"emission":[0,0,0,1],"shininess":50,"specular":[0.5,0.5,0.5,1]}}},"meshes":{"Building3514-mesh":{"name":"Building3514","primitives":[{"attributes":{"NORMAL":"accessor_120","POSITION":"accessor_118","BATCHID":"accessor_b0"},"indices":"accessor_110","material":"BUILDING_DEFAULT_0-effect","mode":4},{"attributes":{"NORMAL":"accessor_120","POSITION":"accessor_118","BATCHID":"accessor_b0"},"indices":"accessor_113","material":"ROOF_DEFAULT_0-effect","mode":4},{"attributes":{"NORMAL":"accessor_120","POSITION":"accessor_118","BATCHID":"accessor_b0"},"indices":"accessor_116","material":"CONCRETE_0-effect","mode":4}]},"Building3621-mesh":{"name":"Building3621","primitives":[{"attributes":{"NORMAL":"accessor_70","POSITION":"accessor_68","BATCHID":"accessor_b1"},"indices":"accessor_63","material":"BUILDING_DEFAULT_0-effect","mode":4},{"attributes":{"NORMAL":"accessor_70","POSITION":"accessor_68","BATCHID":"accessor_b1"},"indices":"accessor_66","material":"CONCRETE_0-effect","mode":4}]},"Building3986-mesh":{"name":"Building3986","primitives":[{"attributes":{"NORMAL":"accessor_35","POSITION":"accessor_33","BATCHID":"accessor_b2"},"indices":"accessor_28","material":"BUILDING_DEFAULT_0-effect","mode":4},{"attributes":{"NORMAL":"accessor_35","POSITION":"accessor_33","BATCHID":"accessor_b2"},"indices":"accessor_31","material":"ROOF_DEFAULT_0-effect","mode":4}]}},"nodes":{"model_gridID_97_w361210610":{"children":[],"matrix":[1,0,0,0,0,-1.62921e-7,1,0,0,-1,-1.62921e-7,0,184.916,407.218,5.69451,1],"meshes":["Building3986-mesh"],"name":"model_gridID_97_w361210610"},"model_gridID_97_w387650081":{"children":[],"matrix":[1,0,0,0,0,-1.62921e-7,1,0,0,-1,-1.62921e-7,0,167.868,365.709,2.50006,1],"meshes":["Building3621-mesh"],"name":"model_gridID_97_w387650081"},"model_gridID_97_w387650081_001":{"children":[],"matrix":[1,0,0,0,0,-1.62921e-7,1,0,0,-1,-1.62921e-7,0,192.107,379.841,7.78415,1],"meshes":["Building3514-mesh"],"name":"model_gridID_97_w387650081_001"},"node_3":{"children":["model_gridID_97_w361210610","model_gridID_97_w387650081","model_gridID_97_w387650081_001"],"matrix":[1,0,0,0,0,0,-1,0,0,1,0,0,0,0,0,1],"name":"Y_UP_Transform"}},"programs":{"program_0":{"attributes":["a_normal","a_position","a_batchId"],"fragmentShader":"\\data\\ECNU\\workspace\\gridID_97\\gridID_970FS","vertexShader":"\\data\\ECNU\\workspace\\gridID_97\\gridID_970VS"}},"scene":"defaultScene","scenes":{"defaultScene":{"nodes":["node_3"]}},"shaders":{"\\data\\ECNU\\workspace\\gridID_97\\gridID_970FS":{"type":35632,"uri":"data:text/plain;base64,"},"\\data\\ECNU\\workspace\\gridID_97\\gridID_970VS":{"type":35633,"uri":"data:text/plain;base64,"}},"skins":{},"techniques":{"technique0":{"attributes":{"a_normal":"normal","a_position":"position","a_batchId":"batchId"},"parameters":{"ambient":{"type":35666},"diffuse":{"type":35666},"emission":{"type":35666},"modelViewMatrix":{"semantic":"MODELVIEW","type":35676},"normal":{"semantic":"NORMAL","type":35665},"normalMatrix":{"semantic":"MODELVIEWINVERSETRANSPOSE","type":35675},"position":{"semantic":"POSITION","type":35665},"projectionMatrix":{"semantic":"PROJECTION","type":35676},"shininess":{"type":5126},"specular":{"type":35666},"batchId":{"semantic":"BATCHID","type":5126}},"program":"program_0","states":{"enable":[2929,2884]},"uniforms":{"u_ambient":"ambient","u_diffuse":"diffuse","u_emission":"emission","u_modelViewMatrix":"modelViewMatrix","u_normalMatrix":"normalMatrix","u_projectionMatrix":"projectionMatrix","u_shininess":"shininess","u_specular":"specular"}}}}