{"accessors":{"accessor_16":{"bufferView":"bufferView_22","byteOffset":0,"byteStride":0,"componentType":5123,"count":1581,"type":"SCALAR"},"accessor_18":{"bufferView":"bufferView_23","byteOffset":0,"byteStride":12,"componentType":5126,"count":1461,"max":[75.9388,15.7939,79.7209],"min":[-33.779,-82.462,0],"type":"VEC3"},"accessor_20":{"bufferView":"bufferView_23","byteOffset":17532,"byteStride":12,"componentType":5126,"count":1461,"max":[0.981491,0.997916,1],"min":[-0.994253,-0.999692,0],"type":"VEC3"},"accessor_b0":{"bufferView":"bufferView_b","byteOffset":0,"byteStride":0,"componentType":5123,"count":1461,"type":"SCALAR"}},"animations":{},"asset":{"generator":"collada2gltf@cf6371beb0bdc18ba603378d5e40c966da53d385","premultipliedAlpha":true,"profile":{"api":"WebGL","version":"1.0.2"},"version":"1.0"},"bufferViews":{"bufferView_22":{"buffer":"\\data\\3dcity\\miami\\workspace\\gridID_38\\gridID_38_high","byteLength":3164,"byteOffset":0,"target":34963},"bufferView_23":{"buffer":"\\data\\3dcity\\miami\\workspace\\gridID_38\\gridID_38_high","byteLength":35064,"byteOffset":3164,"target":34962},"bufferView_b":{"buffer":"buffer_b","byteLength":2922,"byteOffset":0,"target":34962}},"buffers":{"\\data\\3dcity\\miami\\workspace\\gridID_38\\gridID_38_high":{"byteLength":38228,"type":"arraybuffer","uri":"data:application/octet-stream;base64,"},"buffer_b":{"type":"arraybuffer","byteLength":2922,"uri":"data:application/octet-stream;base64,"}},"materials":{"__glTF__defaultMaterial0":{"name":"__glTF__defaultMaterial0","technique":"technique0","values":{"diffuse":[1,1,1,1]}}},"meshes":{"multipatch_footprint_895-mesh":{"name":"multipatch_footprint.895","primitives":[{"attributes":{"NORMAL":"accessor_20","POSITION":"accessor_18","BATCHID":"accessor_b0"},"indices":"accessor_16","material":"__glTF__defaultMaterial0","mode":4}]}},"nodes":{"gridID_38_w301824532_join":{"children":[],"matrix":[1,0,0,0,0,1,0,0,0,0,1,0,0.00038147,0.000339508,0,1],"meshes":["multipatch_footprint_895-mesh"],"name":"gridID_38_w301824532_join"},"node_1":{"children":["gridID_38_w301824532_join"],"matrix":[1,0,0,0,0,0,-1,0,0,1,0,0,0,0,0,1],"name":"Y_UP_Transform"}},"programs":{"program_0":{"attributes":["a_normal","a_position","a_batchId"],"fragmentShader":"\\data\\3dcity\\miami\\workspace\\gridID_38\\gridID_38_high0FS","vertexShader":"\\data\\3dcity\\miami\\workspace\\gridID_38\\gridID_38_high0VS"}},"scene":"defaultScene","scenes":{"defaultScene":{"nodes":["node_1"]}},"shaders":{"\\data\\3dcity\\miami\\workspace\\gridID_38\\gridID_38_high0FS":{"type":35632,"uri":"data:text/plain;base64,"},"\\data\\3dcity\\miami\\workspace\\gridID_38\\gridID_38_high0VS":{"type":35633,"uri":"data:text/plain;base64,"}},"skins":{},"techniques":{"technique0":{"attributes":{"a_normal":"normal","a_position":"position","a_batchId":"batchId"},"parameters":{"diffuse":{"type":35666},"modelViewMatrix":{"semantic":"MODELVIEW","type":35676},"normal":{"semantic":"NORMAL","type":35665},"normalMatrix":{"semantic":"MODELVIEWINVERSETRANSPOSE","type":35675},"position":{"semantic":"POSITION","type":35665},"projectionMatrix":{"semantic":"PROJECTION","type":35676},"batchId":{"semantic":"BATCHID","type":5126}},"program":"program_0","states":{"enable":[2929,2884]},"uniforms":{"u_diffuse":"diffuse","u_modelViewMatrix":"modelViewMatrix","u_normalMatrix":"normalMatrix","u_projectionMatrix":"projectionMatrix"}}}}