{
    "accessors": {
        "accessor_101": {
            "bufferView": "bufferView_177",
            "byteOffset": 120,
            "byteStride": 0,
            "componentType": 5123,
            "count": 24,
            "type": "SCALAR"
        },
        "accessor_103": {
            "bufferView": "bufferView_178",
            "byteOffset": 0,
            "byteStride": 12,
            "componentType": 5126,
            "count": 50,
            "max": [
                6.104,
                3.75,
                6.09552
            ],
            "min": [
                -6.337,
                -3.75,
                -3.53449
            ],
            "type": "VEC3"
        },
        "accessor_105": {
            "bufferView": "bufferView_178",
            "byteOffset": 600,
            "byteStride": 12,
            "componentType": 5126,
            "count": 50,
            "max": [
                0.986368,
                1,
                0.986341
            ],
            "min": [
                -0.986338,
                0,
                -0.986194
            ],
            "type": "VEC3"
        },
        "accessor_133": {
            "bufferView": "bufferView_177",
            "byteOffset": 168,
            "byteStride": 0,
            "componentType": 5123,
            "count": 60,
            "type": "SCALAR"
        },
        "accessor_136": {
            "bufferView": "bufferView_177",
            "byteOffset": 288,
            "byteStride": 0,
            "componentType": 5123,
            "count": 24,
            "type": "SCALAR"
        },
        "accessor_138": {
            "bufferView": "bufferView_178",
            "byteOffset": 1200,
            "byteStride": 12,
            "componentType": 5126,
            "count": 55,
            "max": [
                24.8158,
                3.75,
                8.80353
            ],
            "min": [
                -14.5832,
                -3.75,
                -8.45148
            ],
            "type": "VEC3"
        },
        "accessor_140": {
            "bufferView": "bufferView_178",
            "byteOffset": 1860,
            "byteStride": 12,
            "componentType": 5126,
            "count": 55,
            "max": [
                0.986526,
                1,
                0.986194
            ],
            "min": [
                -0.986475,
                0,
                -0.9862
            ],
            "type": "VEC3"
        },
        "accessor_168": {
            "bufferView": "bufferView_177",
            "byteOffset": 336,
            "byteStride": 0,
            "componentType": 5123,
            "count": 48,
            "type": "SCALAR"
        },
        "accessor_171": {
            "bufferView": "bufferView_177",
            "byteOffset": 432,
            "byteStride": 0,
            "componentType": 5123,
            "count": 18,
            "type": "SCALAR"
        },
        "accessor_173": {
            "bufferView": "bufferView_178",
            "byteOffset": 2520,
            "byteStride": 12,
            "componentType": 5126,
            "count": 60,
            "max": [
                17.1601,
                3.75,
                7.96375
            ],
            "min": [
                -16.7939,
                -3.75,
                -15.3923
            ],
            "type": "VEC3"
        },
        "accessor_175": {
            "bufferView": "bufferView_178",
            "byteOffset": 3240,
            "byteStride": 12,
            "componentType": 5126,
            "count": 60,
            "max": [
                0.912763,
                1,
                0.912769
            ],
            "min": [
                -0.912913,
                0,
                -0.912719
            ],
            "type": "VEC3"
        },
        "accessor_28": {
            "bufferView": "bufferView_177",
            "byteOffset": 468,
            "byteStride": 0,
            "componentType": 5123,
            "count": 48,
            "type": "SCALAR"
        },
        "accessor_31": {
            "bufferView": "bufferView_177",
            "byteOffset": 564,
            "byteStride": 0,
            "componentType": 5123,
            "count": 18,
            "type": "SCALAR"
        },
        "accessor_33": {
            "bufferView": "bufferView_178",
            "byteOffset": 3960,
            "byteStride": 12,
            "componentType": 5126,
            "count": 42,
            "max": [
                13.4922,
                3.75,
                11.5108
            ],
            "min": [
                -14.5697,
                -3.75,
                -11.0882
            ],
            "type": "VEC3"
        },
        "accessor_35": {
            "bufferView": "bufferView_178",
            "byteOffset": 4464,
            "byteStride": 12,
            "componentType": 5126,
            "count": 42,
            "max": [
                0.916951,
                1,
                0.918008
            ],
            "min": [
                -0.916873,
                0,
                -0.917004
            ],
            "type": "VEC3"
        },
        "accessor_63": {
            "bufferView": "bufferView_177",
            "byteOffset": 600,
            "byteStride": 0,
            "componentType": 5123,
            "count": 48,
            "type": "SCALAR"
        },
        "accessor_66": {
            "bufferView": "bufferView_177",
            "byteOffset": 696,
            "byteStride": 0,
            "componentType": 5123,
            "count": 18,
            "type": "SCALAR"
        },
        "accessor_68": {
            "bufferView": "bufferView_178",
            "byteOffset": 4968,
            "byteStride": 12,
            "componentType": 5126,
            "count": 62,
            "max": [
                17.8853,
                3.75,
                16.9804
            ],
            "min": [
                -25.1887,
                -3.75,
                -13.4786
            ],
            "type": "VEC3"
        },
        "accessor_70": {
            "bufferView": "bufferView_178",
            "byteOffset": 5712,
            "byteStride": 12,
            "componentType": 5126,
            "count": 62,
            "max": [
                0.902834,
                1,
                0.901951
            ],
            "min": [
                -0.90172,
                0,
                -0.901981
            ],
            "type": "VEC3"
        },
        "accessor_98": {
            "bufferView": "bufferView_177",
            "byteOffset": 0,
            "byteStride": 0,
            "componentType": 5123,
            "count": 60,
            "type": "SCALAR"
        }
    },
    "animations": {},
    "asset": {
        "generator": "collada2gltf@cf6371beb0bdc18ba603378d5e40c966da53d385",
        "premultipliedAlpha": true,
        "profile": {
            "api": "WebGL",
            "version": "1.0.2"
        },
        "version": "1.0"
    },
    "bufferViews": {
        "bufferView_177": {
            "buffer": "\\data\\ECNU\\workspace\\gridID_117\\gridID_117",
            "byteLength": 732,
            "byteOffset": 0,
            "target": 34963
        },
        "bufferView_178": {
            "buffer": "\\data\\ECNU\\workspace\\gridID_117\\gridID_117",
            "byteLength": 6456,
            "byteOffset": 732,
            "target": 34962
        }
    },
    "buffers": {
        "\\data\\ECNU\\workspace\\gridID_117\\gridID_117": {
            "byteLength": 7188,
            "type": "arraybuffer",
            "uri": "data:application/octet-stream;base64,"
        }
    },
    "materials": {
        "BUILDING_DEFAULT_0-effect": {
            "name": "BUILDING_DEFAULT_0",
            "technique": "technique0",
            "values": {
                "ambient": [
                    0,
                    0,
                    0,
                    1
                ],
                "diffuse": [
                    0.723055,
                    0.708376,
                    0.672443,
                    1
                ],
                "emission": [
                    0,
                    0,
                    0,
                    1
                ],
                "shininess": 50,
                "specular": [
                    0.5,
                    0.5,
                    0.5,
                    1
                ]
            }
        },
        "ROOF_DEFAULT_0-effect": {
            "name": "ROOF_DEFAULT_0",
            "technique": "technique0",
            "values": {
                "ambient": [
                    0,
                    0,
                    0,
                    1
                ],
                "diffuse": [
                    0.603827,
                    0.381326,
                    0.291771,
                    1
                ],
                "emission": [
                    0,
                    0,
                    0,
                    1
                ],
                "shininess": 50,
                "specular": [
                    0.5,
                    0.5,
                    0.5,
                    1
                ]
            }
        }
    },
    "meshes": {
        "Building3522-mesh": {
            "name": "Building3522",
            "primitives": [
                {
                    "attributes": {
                        "NORMAL": "accessor_105",
                        "POSITION": "accessor_103"
                    },
                    "indices": "accessor_98",
                    "material": "BUILDING_DEFAULT_0-effect",
                    "mode": 4
                },
                {
                    "attributes": {
                        "NORMAL": "accessor_105",
                        "POSITION": "accessor_103"
                    },
                    "indices": "accessor_101",
                    "material": "ROOF_DEFAULT_0-effect",
                    "mode": 4
                }
            ]
        },
        "Building3523-mesh": {
            "name": "Building3523",
            "primitives": [
                {
                    "attributes": {
                        "NORMAL": "accessor_140",
                        "POSITION": "accessor_138"
                    },
                    "indices": "accessor_133",
                    "material": "BUILDING_DEFAULT_0-effect",
                    "mode": 4
                },
                {
                    "attributes": {
                        "NORMAL": "accessor_140",
                        "POSITION": "accessor_138"
                    },
                    "indices": "accessor_136",
                    "material": "ROOF_DEFAULT_0-effect",
                    "mode": 4
                }
            ]
        },
        "Building3530-mesh": {
            "name": "Building3530",
            "primitives": [
                {
                    "attributes": {
                        "NORMAL": "accessor_175",
                        "POSITION": "accessor_173"
                    },
                    "indices": "accessor_168",
                    "material": "BUILDING_DEFAULT_0-effect",
                    "mode": 4
                },
                {
                    "attributes": {
                        "NORMAL": "accessor_175",
                        "POSITION": "accessor_173"
                    },
                    "indices": "accessor_171",
                    "material": "ROOF_DEFAULT_0-effect",
                    "mode": 4
                }
            ]
        },
        "Building4098-mesh": {
            "name": "Building4098",
            "primitives": [
                {
                    "attributes": {
                        "NORMAL": "accessor_35",
                        "POSITION": "accessor_33"
                    },
                    "indices": "accessor_28",
                    "material": "BUILDING_DEFAULT_0-effect",
                    "mode": 4
                },
                {
                    "attributes": {
                        "NORMAL": "accessor_35",
                        "POSITION": "accessor_33"
                    },
                    "indices": "accessor_31",
                    "material": "ROOF_DEFAULT_0-effect",
                    "mode": 4
                }
            ]
        },
        "Building4099-mesh": {
            "name": "Building4099",
            "primitives": [
                {
                    "attributes": {
                        "NORMAL": "accessor_70",
                        "POSITION": "accessor_68"
                    },
                    "indices": "accessor_63",
                    "material": "BUILDING_DEFAULT_0-effect",
                    "mode": 4
                },
                {
                    "attributes": {
                        "NORMAL": "accessor_70",
                        "POSITION": "accessor_68"
                    },
                    "indices": "accessor_66",
                    "material": "ROOF_DEFAULT_0-effect",
                    "mode": 4
                }
            ]
        }
    },
    "nodes": {
        "model_gridID_117_w169922747": {
            "children": [],
            "matrix": [
                1,
                0,
                0,
                0,
                0,
                -1.62921e-007,
                1,
                0,
                0,
                -1,
                -1.62921e-007,
                0,
                43.9268,
                583.965,
                3.75009,
                1
            ],
            "meshes": [
                "Building4098-mesh"
            ],
            "name": "model_gridID_117_w169922747"
        },
        "model_gridID_117_w169922749": {
            "children": [],
            "matrix": [
                1,
                0,
                0,
                0,
                0,
                -1.62921e-007,
                1,
                0,
                0,
                -1,
                -1.62921e-007,
                0,
                5.56975,
                619.803,
                3.7501,
                1
            ],
            "meshes": [
                "Building4099-mesh"
            ],
            "name": "model_gridID_117_w169922749"
        },
        "model_gridID_117_w169922749_001": {
            "children": [],
            "matrix": [
                1,
                0,
                0,
                0,
                0,
                -1.62921e-007,
                1,
                0,
                0,
                -1,
                -1.62921e-007,
                0,
                22.919,
                604.966,
                3.7501,
                1
            ],
            "meshes": [
                "Building3522-mesh"
            ],
            "name": "model_gridID_117_w169922749_001"
        },
        "model_gridID_117_w169930643": {
            "children": [],
            "matrix": [
                1,
                0,
                0,
                0,
                0,
                -1.62921e-007,
                1,
                0,
                0,
                -1,
                -1.62921e-007,
                0,
                -0.399803,
                590.831,
                3.7501,
                1
            ],
            "meshes": [
                "Building3523-mesh"
            ],
            "name": "model_gridID_117_w169930643"
        },
        "model_gridID_117_w169930655": {
            "children": [],
            "matrix": [
                1,
                0,
                0,
                0,
                0,
                -1.62921e-007,
                1,
                0,
                0,
                -1,
                -1.62921e-007,
                0,
                48.7589,
                617.1,
                3.7501,
                1
            ],
            "meshes": [
                "Building3530-mesh"
            ],
            "name": "model_gridID_117_w169930655"
        },
        "node_5": {
            "children": [
                "model_gridID_117_w169922747",
                "model_gridID_117_w169922749",
                "model_gridID_117_w169922749_001",
                "model_gridID_117_w169930643",
                "model_gridID_117_w169930655"
            ],
            "matrix": [
                1,
                0,
                0,
                0,
                0,
                0,
                -1,
                0,
                0,
                1,
                0,
                0,
                0,
                0,
                0,
                1
            ],
            "name": "Y_UP_Transform"
        }
    },
    "programs": {
        "program_0": {
            "attributes": [
                "a_normal",
                "a_position"
            ],
            "fragmentShader": "\\data\\ECNU\\workspace\\gridID_117\\gridID_1170FS",
            "vertexShader": "\\data\\ECNU\\workspace\\gridID_117\\gridID_1170VS"
        }
    },
    "scene": "defaultScene",
    "scenes": {
        "defaultScene": {
            "nodes": [
                "node_5"
            ]
        }
    },
    "shaders": {
        "\\data\\ECNU\\workspace\\gridID_117\\gridID_1170FS": {
            "type": 35632,
            "uri": "data:text/plain;base64,"
        },
        "\\data\\ECNU\\workspace\\gridID_117\\gridID_1170VS": {
            "type": 35633,
            "uri": "data:text/plain;base64,"
        }
    },
    "skins": {},
    "techniques": {
        "technique0": {
            "attributes": {
                "a_normal": "normal",
                "a_position": "position"
            },
            "parameters": {
                "ambient": {
                    "type": 35666
                },
                "diffuse": {
                    "type": 35666
                },
                "emission": {
                    "type": 35666
                },
                "modelViewMatrix": {
                    "semantic": "MODELVIEW",
                    "type": 35676
                },
                "normal": {
                    "semantic": "NORMAL",
                    "type": 35665
                },
                "normalMatrix": {
                    "semantic": "MODELVIEWINVERSETRANSPOSE",
                    "type": 35675
                },
                "position": {
                    "semantic": "POSITION",
                    "type": 35665
                },
                "projectionMatrix": {
                    "semantic": "PROJECTION",
                    "type": 35676
                },
                "shininess": {
                    "type": 5126
                },
                "specular": {
                    "type": 35666
                }
            },
            "program": "program_0",
            "states": {
                "enable": [
                    2929,
                    2884
                ]
            },
            "uniforms": {
                "u_ambient": "ambient",
                "u_diffuse": "diffuse",
                "u_emission": "emission",
                "u_modelViewMatrix": "modelViewMatrix",
                "u_normalMatrix": "normalMatrix",
                "u_projectionMatrix": "projectionMatrix",
                "u_shininess": "shininess",
                "u_specular": "specular"
            }
        }
    }
}