{"accessors":{"accessor_101":{"bufferView":"bufferView_177","byteOffset":378,"byteStride":0,"componentType":5123,"count":6,"type":"SCALAR"},"accessor_103":{"bufferView":"bufferView_178","byteOffset":3000,"byteStride":12,"componentType":5126,"count":20,"max":[12.0627,3.75,58.6558],"min":[-11.9343,-3.75,-58.5113],"type":"VEC3"},"accessor_105":{"bufferView":"bufferView_178","byteOffset":3240,"byteStride":12,"componentType":5126,"count":20,"max":[0.992172,1,0.987693],"min":[-0.99248,0,-0.991393],"type":"VEC3"},"accessor_133":{"bufferView":"bufferView_177","byteOffset":390,"byteStride":0,"componentType":5123,"count":84,"type":"SCALAR"},"accessor_136":{"bufferView":"bufferView_177","byteOffset":558,"byteStride":0,"componentType":5123,"count":36,"type":"SCALAR"},"accessor_138":{"bufferView":"bufferView_178","byteOffset":3480,"byteStride":12,"componentType":5126,"count":80,"max":[8.41302,7.5,11.8166],"min":[-8.63599,-7.5,-15.5695],"type":"VEC3"},"accessor_140":{"bufferView":"bufferView_178","byteOffset":4440,"byteStride":12,"componentType":5126,"count":80,"max":[0.944447,1,0.94292],"min":[-0.942796,0,-0.943432],"type":"VEC3"},"accessor_168":{"bufferView":"bufferView_177","byteOffset":870,"byteStride":0,"componentType":5123,"count":84,"type":"SCALAR"},"accessor_171":{"bufferView":"bufferView_177","byteOffset":1038,"byteStride":0,"componentType":5123,"count":36,"type":"SCALAR"},"accessor_173":{"bufferView":"bufferView_178","byteOffset":7296,"byteStride":12,"componentType":5126,"count":107,"max":[8.41336,7.5,11.8141],"min":[-8.63464,-7.5,-15.5708],"type":"VEC3"},"accessor_175":{"bufferView":"bufferView_178","byteOffset":8580,"byteStride":12,"componentType":5126,"count":107,"max":[0.942578,1,0.943258],"min":[-0.942841,0,-0.943367],"type":"VEC3"},"accessor_28":{"bufferView":"bufferView_177","byteOffset":630,"byteStride":0,"componentType":5123,"count":84,"type":"SCALAR"},"accessor_31":{"bufferView":"bufferView_177","byteOffset":798,"byteStride":0,"componentType":5123,"count":36,"type":"SCALAR"},"accessor_33":{"bufferView":"bufferView_178","byteOffset":5400,"byteStride":12,"componentType":5126,"count":79,"max":[8.41187,7.5,11.8149],"min":[-8.63715,-7.5,-15.5711],"type":"VEC3"},"accessor_35":{"bufferView":"bufferView_178","byteOffset":6348,"byteStride":12,"componentType":5126,"count":79,"max":[0.942633,1,0.943],"min":[-0.943125,0,-0.943432],"type":"VEC3"},"accessor_63":{"bufferView":"bufferView_177","byteOffset":0,"byteStride":0,"componentType":5123,"count":105,"type":"SCALAR"},"accessor_66":{"bufferView":"bufferView_177","byteOffset":210,"byteStride":0,"componentType":5123,"count":60,"type":"SCALAR"},"accessor_68":{"bufferView":"bufferView_178","byteOffset":0,"byteStride":12,"componentType":5126,"count":125,"max":[0.845154,5.24298,1.62238],"min":[-0.773865,-2.25702,-1.2276],"type":"VEC3"},"accessor_70":{"bufferView":"bufferView_178","byteOffset":1500,"byteStride":12,"componentType":5126,"count":125,"max":[0.990694,1,1],"min":[-0.994363,-1,-0.992268],"type":"VEC3"},"accessor_98":{"bufferView":"bufferView_177","byteOffset":330,"byteStride":0,"componentType":5123,"count":24,"type":"SCALAR"},"accessor_b0":{"bufferView":"bufferView_b","byteOffset":0,"byteStride":0,"componentType":5123,"count":125,"type":"SCALAR"},"accessor_b1":{"bufferView":"bufferView_b","byteOffset":250,"byteStride":0,"componentType":5123,"count":20,"type":"SCALAR"},"accessor_b2":{"bufferView":"bufferView_b","byteOffset":290,"byteStride":0,"componentType":5123,"count":80,"type":"SCALAR"},"accessor_b3":{"bufferView":"bufferView_b","byteOffset":450,"byteStride":0,"componentType":5123,"count":79,"type":"SCALAR"},"accessor_b4":{"bufferView":"bufferView_b","byteOffset":608,"byteStride":0,"componentType":5123,"count":107,"type":"SCALAR"}},"animations":{},"asset":{"generator":"collada2gltf@cf6371beb0bdc18ba603378d5e40c966da53d385","premultipliedAlpha":true,"profile":{"api":"WebGL","version":"1.0.2"},"version":"1.0"},"bufferViews":{"bufferView_177":{"buffer":"\\data\\ECNU\\workspace\\gridID_78\\gridID_78","byteLength":1112,"byteOffset":0,"target":34963},"bufferView_178":{"buffer":"\\data\\ECNU\\workspace\\gridID_78\\gridID_78","byteLength":9864,"byteOffset":1112,"target":34962},"bufferView_b":{"buffer":"buffer_b","byteLength":822,"byteOffset":0,"target":34962}},"buffers":{"\\data\\ECNU\\workspace\\gridID_78\\gridID_78":{"byteLength":10976,"type":"arraybuffer","uri":"data:application/octet-stream;base64,"},"buffer_b":{"type":"arraybuffer","byteLength":822,"uri":"data:application/octet-stream;base64,"}},"materials":{"BUILDING_DEFAULT_0-effect":{"name":"BUILDING_DEFAULT_0","technique":"technique0","values":{"ambient":[0,0,0,1],"diffuse":[0.723055,0.708376,0.672443,1],"emission":[0,0,0,1],"shininess":50,"specular":[0.5,0.5,0.5,1]}},"CONCRETE_0-effect":{"name":"CONCRETE_0","technique":"technique0","values":{"ambient":[0,0,0,1],"diffuse":[0.309469,0.327778,0.309469,1],"emission":[0,0,0,1],"shininess":50,"specular":[0.5,0.5,0.5,1]}},"ROOF_DEFAULT_0-effect":{"name":"ROOF_DEFAULT_0","technique":"technique0","values":{"ambient":[0,0,0,1],"diffuse":[0.603827,0.381326,0.291771,1],"emission":[0,0,0,1],"shininess":50,"specular":[0.5,0.5,0.5,1]}}},"meshes":{"Building3326-mesh":{"name":"Building3326","primitives":[{"attributes":{"NORMAL":"accessor_70","POSITION":"accessor_68","BATCHID":"accessor_b0"},"indices":"accessor_63","material":"BUILDING_DEFAULT_0-effect","mode":4},{"attributes":{"NORMAL":"accessor_70","POSITION":"accessor_68","BATCHID":"accessor_b0"},"indices":"accessor_66","material":"ROOF_DEFAULT_0-effect","mode":4}]},"Building3577-mesh":{"name":"Building3577","primitives":[{"attributes":{"NORMAL":"accessor_105","POSITION":"accessor_103","BATCHID":"accessor_b1"},"indices":"accessor_98","material":"BUILDING_DEFAULT_0-effect","mode":4},{"attributes":{"NORMAL":"accessor_105","POSITION":"accessor_103","BATCHID":"accessor_b1"},"indices":"accessor_101","material":"CONCRETE_0-effect","mode":4}]},"Building3815-mesh":{"name":"Building3815","primitives":[{"attributes":{"NORMAL":"accessor_140","POSITION":"accessor_138","BATCHID":"accessor_b2"},"indices":"accessor_133","material":"BUILDING_DEFAULT_0-effect","mode":4},{"attributes":{"NORMAL":"accessor_140","POSITION":"accessor_138","BATCHID":"accessor_b2"},"indices":"accessor_136","material":"CONCRETE_0-effect","mode":4}]},"Building4083-mesh":{"name":"Building4083","primitives":[{"attributes":{"NORMAL":"accessor_35","POSITION":"accessor_33","BATCHID":"accessor_b3"},"indices":"accessor_28","material":"BUILDING_DEFAULT_0-effect","mode":4},{"attributes":{"NORMAL":"accessor_35","POSITION":"accessor_33","BATCHID":"accessor_b3"},"indices":"accessor_31","material":"CONCRETE_0-effect","mode":4}]},"Building4085-mesh":{"name":"Building4085","primitives":[{"attributes":{"NORMAL":"accessor_175","POSITION":"accessor_173","BATCHID":"accessor_b4"},"indices":"accessor_168","material":"BUILDING_DEFAULT_0-effect","mode":4},{"attributes":{"NORMAL":"accessor_175","POSITION":"accessor_173","BATCHID":"accessor_b4"},"indices":"accessor_171","material":"CONCRETE_0-effect","mode":4}]}},"nodes":{"model_gridID_78_w116941143":{"children":[],"matrix":[1,0,0,0,0,-1.62921e-7,1,0,0,-1,-1.62921e-7,0,-516.118,336.06,7.50005,1],"meshes":["Building4083-mesh"],"name":"model_gridID_78_w116941143"},"model_gridID_78_w116941143_001":{"children":[],"matrix":[1,0,0,0,0,-1.62921e-7,1,0,0,-1,-1.62921e-7,0,-532.158,356.503,2.25708,1],"meshes":["Building3326-mesh"],"name":"model_gridID_78_w116941143_001"},"model_gridID_78_w116941143_002":{"children":[],"matrix":[1,0,0,0,0,-1.62921e-7,1,0,0,-1,-1.62921e-7,0,-529.203,286.752,3.75005,1],"meshes":["Building3577-mesh"],"name":"model_gridID_78_w116941143_002"},"model_gridID_78_w116941143_006":{"children":[],"matrix":[1,0,0,0,0,-1.62921e-7,1,0,0,-1,-1.62921e-7,0,-511.883,297.433,7.50005,1],"meshes":["Building3815-mesh"],"name":"model_gridID_78_w116941143_006"},"model_gridID_78_w116941143_007":{"children":[],"matrix":[1,0,0,0,0,-1.62921e-7,1,0,0,-1,-1.62921e-7,0,-507.181,260.828,7.50004,1],"meshes":["Building4085-mesh"],"name":"model_gridID_78_w116941143_007"},"node_5":{"children":["model_gridID_78_w116941143","model_gridID_78_w116941143_001","model_gridID_78_w116941143_002","model_gridID_78_w116941143_006","model_gridID_78_w116941143_007"],"matrix":[1,0,0,0,0,0,-1,0,0,1,0,0,0,0,0,1],"name":"Y_UP_Transform"}},"programs":{"program_0":{"attributes":["a_normal","a_position","a_batchId"],"fragmentShader":"\\data\\ECNU\\workspace\\gridID_78\\gridID_780FS","vertexShader":"\\data\\ECNU\\workspace\\gridID_78\\gridID_780VS"}},"scene":"defaultScene","scenes":{"defaultScene":{"nodes":["node_5"]}},"shaders":{"\\data\\ECNU\\workspace\\gridID_78\\gridID_780FS":{"type":35632,"uri":"data:text/plain;base64,"},"\\data\\ECNU\\workspace\\gridID_78\\gridID_780VS":{"type":35633,"uri":"data:text/plain;base64,"}},"skins":{},"techniques":{"technique0":{"attributes":{"a_normal":"normal","a_position":"position","a_batchId":"batchId"},"parameters":{"ambient":{"type":35666},"diffuse":{"type":35666},"emission":{"type":35666},"modelViewMatrix":{"semantic":"MODELVIEW","type":35676},"normal":{"semantic":"NORMAL","type":35665},"normalMatrix":{"semantic":"MODELVIEWINVERSETRANSPOSE","type":35675},"position":{"semantic":"POSITION","type":35665},"projectionMatrix":{"semantic":"PROJECTION","type":35676},"shininess":{"type":5126},"specular":{"type":35666},"batchId":{"semantic":"BATCHID","type":5126}},"program":"program_0","states":{"enable":[2929,2884]},"uniforms":{"u_ambient":"ambient","u_diffuse":"diffuse","u_emission":"emission","u_modelViewMatrix":"modelViewMatrix","u_normalMatrix":"normalMatrix","u_projectionMatrix":"projectionMatrix","u_shininess":"shininess","u_specular":"specular"}}}}