{"accessors":{"accessor_40":{"bufferView":"bufferView_87","byteOffset":528,"byteStride":0,"componentType":5123,"count":270,"type":"SCALAR"},"accessor_43":{"bufferView":"bufferView_87","byteOffset":1068,"byteStride":0,"componentType":5123,"count":48,"type":"SCALAR"},"accessor_46":{"bufferView":"bufferView_87","byteOffset":1164,"byteStride":0,"componentType":5123,"count":6,"type":"SCALAR"},"accessor_48":{"bufferView":"bufferView_88","byteOffset":5160,"byteStride":12,"componentType":5126,"count":269,"max":[28.0461,9.05109,12.6549],"min":[-25.1359,-9.94891,-13.5391],"type":"VEC3"},"accessor_50":{"bufferView":"bufferView_88","byteOffset":8388,"byteStride":12,"componentType":5126,"count":269,"max":[0.970143,1,1],"min":[-0.979611,0,-0.955798],"type":"VEC3"},"accessor_78":{"bufferView":"bufferView_87","byteOffset":0,"byteStride":0,"componentType":5123,"count":222,"type":"SCALAR"},"accessor_81":{"bufferView":"bufferView_87","byteOffset":444,"byteStride":0,"componentType":5123,"count":42,"type":"SCALAR"},"accessor_83":{"bufferView":"bufferView_88","byteOffset":0,"byteStride":12,"componentType":5126,"count":215,"max":[26.0779,9.21397,12.5133],"min":[-27.1051,-9.78603,-13.6817],"type":"VEC3"},"accessor_85":{"bufferView":"bufferView_88","byteOffset":2580,"byteStride":12,"componentType":5126,"count":215,"max":[0.955526,0.80973,1],"min":[-0.955573,0,-0.955342],"type":"VEC3"},"accessor_b0":{"bufferView":"bufferView_b","byteOffset":0,"byteStride":0,"componentType":5123,"count":215,"type":"SCALAR"},"accessor_b1":{"bufferView":"bufferView_b","byteOffset":430,"byteStride":0,"componentType":5123,"count":269,"type":"SCALAR"}},"animations":{},"asset":{"generator":"collada2gltf@cf6371beb0bdc18ba603378d5e40c966da53d385","premultipliedAlpha":true,"profile":{"api":"WebGL","version":"1.0.2"},"version":"1.0"},"bufferViews":{"bufferView_87":{"buffer":"\\data\\ECNU\\workspace\\gridID_91\\gridID_91","byteLength":1176,"byteOffset":0,"target":34963},"bufferView_88":{"buffer":"\\data\\ECNU\\workspace\\gridID_91\\gridID_91","byteLength":11616,"byteOffset":1176,"target":34962},"bufferView_b":{"buffer":"buffer_b","byteLength":968,"byteOffset":0,"target":34962}},"buffers":{"\\data\\ECNU\\workspace\\gridID_91\\gridID_91":{"byteLength":12792,"type":"arraybuffer","uri":"data:application/octet-stream;base64,"},"buffer_b":{"type":"arraybuffer","byteLength":968,"uri":"data:application/octet-stream;base64,"}},"materials":{"BUILDING_DEFAULT_0-effect":{"name":"BUILDING_DEFAULT_0","technique":"technique0","values":{"ambient":[0,0,0,1],"diffuse":[0.723055,0.708376,0.672443,1],"emission":[0,0,0,1],"shininess":50,"specular":[0.5,0.5,0.5,1]}},"CONCRETE_0-effect":{"name":"CONCRETE_0","technique":"technique0","values":{"ambient":[0,0,0,1],"diffuse":[0.309469,0.327778,0.309469,1],"emission":[0,0,0,1],"shininess":50,"specular":[0.5,0.5,0.5,1]}},"ROOF_DEFAULT_0-effect":{"name":"ROOF_DEFAULT_0","technique":"technique0","values":{"ambient":[0,0,0,1],"diffuse":[0.603827,0.381326,0.291771,1],"emission":[0,0,0,1],"shininess":50,"specular":[0.5,0.5,0.5,1]}}},"meshes":{"Building4024-mesh":{"name":"Building4024","primitives":[{"attributes":{"NORMAL":"accessor_85","POSITION":"accessor_83","BATCHID":"accessor_b0"},"indices":"accessor_78","material":"BUILDING_DEFAULT_0-effect","mode":4},{"attributes":{"NORMAL":"accessor_85","POSITION":"accessor_83","BATCHID":"accessor_b0"},"indices":"accessor_81","material":"ROOF_DEFAULT_0-effect","mode":4}]},"Building4121-mesh":{"name":"Building4121","primitives":[{"attributes":{"NORMAL":"accessor_50","POSITION":"accessor_48","BATCHID":"accessor_b1"},"indices":"accessor_40","material":"BUILDING_DEFAULT_0-effect","mode":4},{"attributes":{"NORMAL":"accessor_50","POSITION":"accessor_48","BATCHID":"accessor_b1"},"indices":"accessor_43","material":"ROOF_DEFAULT_0-effect","mode":4},{"attributes":{"NORMAL":"accessor_50","POSITION":"accessor_48","BATCHID":"accessor_b1"},"indices":"accessor_46","material":"CONCRETE_0-effect","mode":4}]}},"nodes":{"model_gridID_91_w116940051":{"children":[],"matrix":[1,0,0,0,0,-1.62921e-7,1,0,0,-1,-1.62921e-7,0,-360.755,397.16,9.94898,1],"meshes":["Building4121-mesh"],"name":"model_gridID_91_w116940051"},"model_gridID_91_w379334544":{"children":[],"matrix":[1,0,0,0,0,-1.62921e-7,1,0,0,-1,-1.62921e-7,0,-368.791,429.034,9.7861,1],"meshes":["Building4024-mesh"],"name":"model_gridID_91_w379334544"},"node_2":{"children":["model_gridID_91_w116940051","model_gridID_91_w379334544"],"matrix":[1,0,0,0,0,0,-1,0,0,1,0,0,0,0,0,1],"name":"Y_UP_Transform"}},"programs":{"program_0":{"attributes":["a_normal","a_position","a_batchId"],"fragmentShader":"\\data\\ECNU\\workspace\\gridID_91\\gridID_910FS","vertexShader":"\\data\\ECNU\\workspace\\gridID_91\\gridID_910VS"}},"scene":"defaultScene","scenes":{"defaultScene":{"nodes":["node_2"]}},"shaders":{"\\data\\ECNU\\workspace\\gridID_91\\gridID_910FS":{"type":35632,"uri":"data:text/plain;base64,"},"\\data\\ECNU\\workspace\\gridID_91\\gridID_910VS":{"type":35633,"uri":"data:text/plain;base64,"}},"skins":{},"techniques":{"technique0":{"attributes":{"a_normal":"normal","a_position":"position","a_batchId":"batchId"},"parameters":{"ambient":{"type":35666},"diffuse":{"type":35666},"emission":{"type":35666},"modelViewMatrix":{"semantic":"MODELVIEW","type":35676},"normal":{"semantic":"NORMAL","type":35665},"normalMatrix":{"semantic":"MODELVIEWINVERSETRANSPOSE","type":35675},"position":{"semantic":"POSITION","type":35665},"projectionMatrix":{"semantic":"PROJECTION","type":35676},"shininess":{"type":5126},"specular":{"type":35666},"batchId":{"semantic":"BATCHID","type":5126}},"program":"program_0","states":{"enable":[2929,2884]},"uniforms":{"u_ambient":"ambient","u_diffuse":"diffuse","u_emission":"emission","u_modelViewMatrix":"modelViewMatrix","u_normalMatrix":"normalMatrix","u_projectionMatrix":"projectionMatrix","u_shininess":"shininess","u_specular":"specular"}}}}