{
    "accessors": {
        "accessor_101": {
            "bufferView": "bufferView_157",
            "byteOffset": 900,
            "byteStride": 0,
            "componentType": 5123,
            "count": 9,
            "type": "SCALAR"
        },
        "accessor_103": {
            "bufferView": "bufferView_158",
            "byteOffset": 8040,
            "byteStride": 12,
            "componentType": 5126,
            "count": 25,
            "max": [
                4.4814,
                2.5,
                4.6394
            ],
            "min": [
                -6.6176,
                -2.5,
                -5.38959
            ],
            "type": "VEC3"
        },
        "accessor_105": {
            "bufferView": "bufferView_158",
            "byteOffset": 8340,
            "byteStride": 12,
            "componentType": 5126,
            "count": 25,
            "max": [
                0.995485,
                1,
                0.995455
            ],
            "min": [
                -0.995453,
                0,
                -0.995455
            ],
            "type": "VEC3"
        },
        "accessor_145": {
            "bufferView": "bufferView_157",
            "byteOffset": 0,
            "byteStride": 0,
            "componentType": 5123,
            "count": 264,
            "type": "SCALAR"
        },
        "accessor_148": {
            "bufferView": "bufferView_157",
            "byteOffset": 528,
            "byteStride": 0,
            "componentType": 5123,
            "count": 48,
            "type": "SCALAR"
        },
        "accessor_151": {
            "bufferView": "bufferView_157",
            "byteOffset": 624,
            "byteStride": 0,
            "componentType": 5123,
            "count": 108,
            "type": "SCALAR"
        },
        "accessor_153": {
            "bufferView": "bufferView_158",
            "byteOffset": 0,
            "byteStride": 12,
            "componentType": 5126,
            "count": 335,
            "max": [
                17.6157,
                25.0628,
                14.3978
            ],
            "min": [
                -17.4424,
                -27.4281,
                -14.1432
            ],
            "type": "VEC3"
        },
        "accessor_155": {
            "bufferView": "bufferView_158",
            "byteOffset": 4020,
            "byteStride": 12,
            "componentType": 5126,
            "count": 335,
            "max": [
                0.999999,
                1,
                1
            ],
            "min": [
                -1,
                -1,
                -1
            ],
            "type": "VEC3"
        },
        "accessor_28": {
            "bufferView": "bufferView_157",
            "byteOffset": 918,
            "byteStride": 0,
            "componentType": 5123,
            "count": 432,
            "type": "SCALAR"
        },
        "accessor_31": {
            "bufferView": "bufferView_157",
            "byteOffset": 1782,
            "byteStride": 0,
            "componentType": 5123,
            "count": 168,
            "type": "SCALAR"
        },
        "accessor_33": {
            "bufferView": "bufferView_158",
            "byteOffset": 8640,
            "byteStride": 12,
            "componentType": 5126,
            "count": 480,
            "max": [
                21.7586,
                11.7797,
                10.7214
            ],
            "min": [
                -21.9614,
                -10.7203,
                -11.0296
            ],
            "type": "VEC3"
        },
        "accessor_35": {
            "bufferView": "bufferView_158",
            "byteOffset": 14400,
            "byteStride": 12,
            "componentType": 5126,
            "count": 480,
            "max": [
                0.999237,
                1,
                1
            ],
            "min": [
                -0.999204,
                0,
                -1
            ],
            "type": "VEC3"
        },
        "accessor_63": {
            "bufferView": "bufferView_157",
            "byteOffset": 2118,
            "byteStride": 0,
            "componentType": 5123,
            "count": 432,
            "type": "SCALAR"
        },
        "accessor_66": {
            "bufferView": "bufferView_157",
            "byteOffset": 2982,
            "byteStride": 0,
            "componentType": 5123,
            "count": 168,
            "type": "SCALAR"
        },
        "accessor_68": {
            "bufferView": "bufferView_158",
            "byteOffset": 20160,
            "byteStride": 12,
            "componentType": 5126,
            "count": 473,
            "max": [
                22.6154,
                11.7797,
                10.6783
            ],
            "min": [
                -22.3336,
                -10.7203,
                -10.9617
            ],
            "type": "VEC3"
        },
        "accessor_70": {
            "bufferView": "bufferView_158",
            "byteOffset": 25836,
            "byteStride": 12,
            "componentType": 5126,
            "count": 473,
            "max": [
                0.999204,
                1,
                1
            ],
            "min": [
                -0.999204,
                0,
                -0.999081
            ],
            "type": "VEC3"
        },
        "accessor_98": {
            "bufferView": "bufferView_157",
            "byteOffset": 840,
            "byteStride": 0,
            "componentType": 5123,
            "count": 30,
            "type": "SCALAR"
        }
    },
    "animations": {},
    "asset": {
        "generator": "collada2gltf@cf6371beb0bdc18ba603378d5e40c966da53d385",
        "premultipliedAlpha": true,
        "profile": {
            "api": "WebGL",
            "version": "1.0.2"
        },
        "version": "1.0"
    },
    "bufferViews": {
        "bufferView_157": {
            "buffer": "\\data\\ECNU\\workspace\\gridID_20\\gridID_20",
            "byteLength": 3320,
            "byteOffset": 0,
            "target": 34963
        },
        "bufferView_158": {
            "buffer": "\\data\\ECNU\\workspace\\gridID_20\\gridID_20",
            "byteLength": 31512,
            "byteOffset": 3320,
            "target": 34962
        }
    },
    "buffers": {
        "\\data\\ECNU\\workspace\\gridID_20\\gridID_20": {
            "byteLength": 34832,
            "type": "arraybuffer",
            "uri": "data:application/octet-stream;base64,"
        }
    },
    "materials": {
        "BUILDING_DEFAULT_0-effect": {
            "name": "BUILDING_DEFAULT_0",
            "technique": "technique0",
            "values": {
                "ambient": [
                    0,
                    0,
                    0,
                    1
                ],
                "diffuse": [
                    0.723055,
                    0.708376,
                    0.672443,
                    1
                ],
                "emission": [
                    0,
                    0,
                    0,
                    1
                ],
                "shininess": 50,
                "specular": [
                    0.5,
                    0.5,
                    0.5,
                    1
                ]
            }
        },
        "CONCRETE_0-effect": {
            "name": "CONCRETE_0",
            "technique": "technique0",
            "values": {
                "ambient": [
                    0,
                    0,
                    0,
                    1
                ],
                "diffuse": [
                    0.309469,
                    0.327778,
                    0.309469,
                    1
                ],
                "emission": [
                    0,
                    0,
                    0,
                    1
                ],
                "shininess": 50,
                "specular": [
                    0.5,
                    0.5,
                    0.5,
                    1
                ]
            }
        },
        "ROOF_DEFAULT_0-effect": {
            "name": "ROOF_DEFAULT_0",
            "technique": "technique0",
            "values": {
                "ambient": [
                    0,
                    0,
                    0,
                    1
                ],
                "diffuse": [
                    0.603827,
                    0.381326,
                    0.291771,
                    1
                ],
                "emission": [
                    0,
                    0,
                    0,
                    1
                ],
                "shininess": 50,
                "specular": [
                    0.5,
                    0.5,
                    0.5,
                    1
                ]
            }
        }
    },
    "meshes": {
        "Building3532-mesh": {
            "name": "Building3532",
            "primitives": [
                {
                    "attributes": {
                        "NORMAL": "accessor_155",
                        "POSITION": "accessor_153"
                    },
                    "indices": "accessor_145",
                    "material": "BUILDING_DEFAULT_0-effect",
                    "mode": 4
                },
                {
                    "attributes": {
                        "NORMAL": "accessor_155",
                        "POSITION": "accessor_153"
                    },
                    "indices": "accessor_148",
                    "material": "ROOF_DEFAULT_0-effect",
                    "mode": 4
                },
                {
                    "attributes": {
                        "NORMAL": "accessor_155",
                        "POSITION": "accessor_153"
                    },
                    "indices": "accessor_151",
                    "material": "CONCRETE_0-effect",
                    "mode": 4
                }
            ]
        },
        "Building3542-mesh": {
            "name": "Building3542",
            "primitives": [
                {
                    "attributes": {
                        "NORMAL": "accessor_105",
                        "POSITION": "accessor_103"
                    },
                    "indices": "accessor_98",
                    "material": "BUILDING_DEFAULT_0-effect",
                    "mode": 4
                },
                {
                    "attributes": {
                        "NORMAL": "accessor_105",
                        "POSITION": "accessor_103"
                    },
                    "indices": "accessor_101",
                    "material": "ROOF_DEFAULT_0-effect",
                    "mode": 4
                }
            ]
        },
        "Building3678-mesh": {
            "name": "Building3678",
            "primitives": [
                {
                    "attributes": {
                        "NORMAL": "accessor_35",
                        "POSITION": "accessor_33"
                    },
                    "indices": "accessor_28",
                    "material": "BUILDING_DEFAULT_0-effect",
                    "mode": 4
                },
                {
                    "attributes": {
                        "NORMAL": "accessor_35",
                        "POSITION": "accessor_33"
                    },
                    "indices": "accessor_31",
                    "material": "ROOF_DEFAULT_0-effect",
                    "mode": 4
                }
            ]
        },
        "Building3679-mesh": {
            "name": "Building3679",
            "primitives": [
                {
                    "attributes": {
                        "NORMAL": "accessor_70",
                        "POSITION": "accessor_68"
                    },
                    "indices": "accessor_63",
                    "material": "BUILDING_DEFAULT_0-effect",
                    "mode": 4
                },
                {
                    "attributes": {
                        "NORMAL": "accessor_70",
                        "POSITION": "accessor_68"
                    },
                    "indices": "accessor_66",
                    "material": "ROOF_DEFAULT_0-effect",
                    "mode": 4
                }
            ]
        }
    },
    "nodes": {
        "model_gridID_20_w399653890": {
            "children": [],
            "matrix": [
                1,
                0,
                0,
                0,
                0,
                -1.62921e-007,
                1,
                0,
                0,
                -1,
                -1.62921e-007,
                0,
                86.5484,
                -369.139,
                10.7203,
                1
            ],
            "meshes": [
                "Building3678-mesh"
            ],
            "name": "model_gridID_20_w399653890"
        },
        "model_gridID_20_w399653892": {
            "children": [],
            "matrix": [
                1,
                0,
                0,
                0,
                0,
                -1.62921e-007,
                1,
                0,
                0,
                -1,
                -1.62921e-007,
                0,
                87.7386,
                -404.146,
                10.7203,
                1
            ],
            "meshes": [
                "Building3679-mesh"
            ],
            "name": "model_gridID_20_w399653892"
        },
        "model_gridID_20_w399659420": {
            "children": [],
            "matrix": [
                1,
                0,
                0,
                0,
                0,
                -1.62921e-007,
                1,
                0,
                0,
                -1,
                -1.62921e-007,
                0,
                125.187,
                -404.374,
                2.49993,
                1
            ],
            "meshes": [
                "Building3542-mesh"
            ],
            "name": "model_gridID_20_w399659420"
        },
        "model_gridID_20_w399692311": {
            "children": [],
            "matrix": [
                1,
                0,
                0,
                0,
                0,
                -1.62921e-007,
                1,
                0,
                0,
                -1,
                -1.62921e-007,
                0,
                136.706,
                -378.129,
                27.428,
                1
            ],
            "meshes": [
                "Building3532-mesh"
            ],
            "name": "model_gridID_20_w399692311"
        },
        "node_4": {
            "children": [
                "model_gridID_20_w399653890",
                "model_gridID_20_w399653892",
                "model_gridID_20_w399659420",
                "model_gridID_20_w399692311"
            ],
            "matrix": [
                1,
                0,
                0,
                0,
                0,
                0,
                -1,
                0,
                0,
                1,
                0,
                0,
                0,
                0,
                0,
                1
            ],
            "name": "Y_UP_Transform"
        }
    },
    "programs": {
        "program_0": {
            "attributes": [
                "a_normal",
                "a_position"
            ],
            "fragmentShader": "\\data\\ECNU\\workspace\\gridID_20\\gridID_200FS",
            "vertexShader": "\\data\\ECNU\\workspace\\gridID_20\\gridID_200VS"
        }
    },
    "scene": "defaultScene",
    "scenes": {
        "defaultScene": {
            "nodes": [
                "node_4"
            ]
        }
    },
    "shaders": {
        "\\data\\ECNU\\workspace\\gridID_20\\gridID_200FS": {
            "type": 35632,
            "uri": "data:text/plain;base64,"
        },
        "\\data\\ECNU\\workspace\\gridID_20\\gridID_200VS": {
            "type": 35633,
            "uri": "data:text/plain;base64,"
        }
    },
    "skins": {},
    "techniques": {
        "technique0": {
            "attributes": {
                "a_normal": "normal",
                "a_position": "position"
            },
            "parameters": {
                "ambient": {
                    "type": 35666
                },
                "diffuse": {
                    "type": 35666
                },
                "emission": {
                    "type": 35666
                },
                "modelViewMatrix": {
                    "semantic": "MODELVIEW",
                    "type": 35676
                },
                "normal": {
                    "semantic": "NORMAL",
                    "type": 35665
                },
                "normalMatrix": {
                    "semantic": "MODELVIEWINVERSETRANSPOSE",
                    "type": 35675
                },
                "position": {
                    "semantic": "POSITION",
                    "type": 35665
                },
                "projectionMatrix": {
                    "semantic": "PROJECTION",
                    "type": 35676
                },
                "shininess": {
                    "type": 5126
                },
                "specular": {
                    "type": 35666
                }
            },
            "program": "program_0",
            "states": {
                "enable": [
                    2929,
                    2884
                ]
            },
            "uniforms": {
                "u_ambient": "ambient",
                "u_diffuse": "diffuse",
                "u_emission": "emission",
                "u_modelViewMatrix": "modelViewMatrix",
                "u_normalMatrix": "normalMatrix",
                "u_projectionMatrix": "projectionMatrix",
                "u_shininess": "shininess",
                "u_specular": "specular"
            }
        }
    }
}