{
    "accessors": {
        "accessor_100": {
            "bufferView": "bufferView_123",
            "byteOffset": 5352,
            "byteStride": 12,
            "componentType": 5126,
            "count": 76,
            "max": [
                0.999929,
                1,
                0.999943
            ],
            "min": [
                -0.999914,
                -1,
                -0.99992
            ],
            "type": "VEC3"
        },
        "accessor_116": {
            "bufferView": "bufferView_122",
            "byteOffset": 696,
            "byteStride": 0,
            "componentType": 5123,
            "count": 36,
            "type": "SCALAR"
        },
        "accessor_118": {
            "bufferView": "bufferView_123",
            "byteOffset": 6264,
            "byteStride": 12,
            "componentType": 5126,
            "count": 30,
            "max": [
                48.2743,
                6,
                23.1825
            ],
            "min": [
                39.0347,
                0,
                4.51793
            ],
            "type": "VEC3"
        },
        "accessor_120": {
            "bufferView": "bufferView_123",
            "byteOffset": 6624,
            "byteStride": 12,
            "componentType": 5126,
            "count": 30,
            "max": [
                0.999948,
                1,
                0.999954
            ],
            "min": [
                -0.999954,
                -1,
                -0.999954
            ],
            "type": "VEC3"
        },
        "accessor_16": {
            "bufferView": "bufferView_122",
            "byteOffset": 0,
            "byteStride": 0,
            "componentType": 5123,
            "count": 84,
            "type": "SCALAR"
        },
        "accessor_18": {
            "bufferView": "bufferView_123",
            "byteOffset": 0,
            "byteStride": 12,
            "componentType": 5126,
            "count": 59,
            "max": [
                -54.5738,
                9,
                26.5941
            ],
            "min": [
                -79.5094,
                0,
                -2.24336
            ],
            "type": "VEC3"
        },
        "accessor_20": {
            "bufferView": "bufferView_123",
            "byteOffset": 708,
            "byteStride": 12,
            "componentType": 5126,
            "count": 59,
            "max": [
                0.999895,
                1,
                0.999886
            ],
            "min": [
                -0.999884,
                -1,
                -0.999889
            ],
            "type": "VEC3"
        },
        "accessor_36": {
            "bufferView": "bufferView_122",
            "byteOffset": 168,
            "byteStride": 0,
            "componentType": 5123,
            "count": 84,
            "type": "SCALAR"
        },
        "accessor_38": {
            "bufferView": "bufferView_123",
            "byteOffset": 1416,
            "byteStride": 12,
            "componentType": 5126,
            "count": 68,
            "max": [
                -56.1546,
                13,
                -11.5262
            ],
            "min": [
                -89.3834,
                0,
                -31.7112
            ],
            "type": "VEC3"
        },
        "accessor_40": {
            "bufferView": "bufferView_123",
            "byteOffset": 2232,
            "byteStride": 12,
            "componentType": 5126,
            "count": 68,
            "max": [
                0.999431,
                1,
                0.999399
            ],
            "min": [
                -0.999412,
                -1,
                -0.999404
            ],
            "type": "VEC3"
        },
        "accessor_56": {
            "bufferView": "bufferView_122",
            "byteOffset": 336,
            "byteStride": 0,
            "componentType": 5123,
            "count": 36,
            "type": "SCALAR"
        },
        "accessor_58": {
            "bufferView": "bufferView_123",
            "byteOffset": 3048,
            "byteStride": 12,
            "componentType": 5126,
            "count": 28,
            "max": [
                33.3686,
                9,
                22.5769
            ],
            "min": [
                22.8823,
                0,
                2.73799
            ],
            "type": "VEC3"
        },
        "accessor_60": {
            "bufferView": "bufferView_123",
            "byteOffset": 3384,
            "byteStride": 12,
            "componentType": 5126,
            "count": 28,
            "max": [
                0.999673,
                1,
                0.999694
            ],
            "min": [
                -0.999673,
                -1,
                -0.999694
            ],
            "type": "VEC3"
        },
        "accessor_76": {
            "bufferView": "bufferView_122",
            "byteOffset": 408,
            "byteStride": 0,
            "componentType": 5123,
            "count": 36,
            "type": "SCALAR"
        },
        "accessor_78": {
            "bufferView": "bufferView_123",
            "byteOffset": 3720,
            "byteStride": 12,
            "componentType": 5126,
            "count": 30,
            "max": [
                50.7567,
                10,
                -7.81803
            ],
            "min": [
                24.1736,
                0,
                -21.0934
            ],
            "type": "VEC3"
        },
        "accessor_80": {
            "bufferView": "bufferView_123",
            "byteOffset": 4080,
            "byteStride": 12,
            "componentType": 5126,
            "count": 30,
            "max": [
                0.99978,
                1,
                0.999777
            ],
            "min": [
                -0.999798,
                -1,
                -0.999777
            ],
            "type": "VEC3"
        },
        "accessor_96": {
            "bufferView": "bufferView_122",
            "byteOffset": 480,
            "byteStride": 0,
            "componentType": 5123,
            "count": 108,
            "type": "SCALAR"
        },
        "accessor_98": {
            "bufferView": "bufferView_123",
            "byteOffset": 4440,
            "byteStride": 12,
            "componentType": 5126,
            "count": 76,
            "max": [
                63.8479,
                5,
                -22.5891
            ],
            "min": [
                24.2292,
                0,
                -36.6185
            ],
            "type": "VEC3"
        }
    },
    "animations": {},
    "asset": {
        "generator": "collada2gltf@cf6371beb0bdc18ba603378d5e40c966da53d385",
        "premultipliedAlpha": true,
        "profile": {
            "api": "WebGL",
            "version": "1.0.2"
        },
        "version": "1.0"
    },
    "bufferViews": {
        "bufferView_122": {
            "buffer": "\\data\\3dcity\\miami\\workspace\\gridID_45\\gridID_45",
            "byteLength": 768,
            "byteOffset": 0,
            "target": 34963
        },
        "bufferView_123": {
            "buffer": "\\data\\3dcity\\miami\\workspace\\gridID_45\\gridID_45",
            "byteLength": 6984,
            "byteOffset": 768,
            "target": 34962
        }
    },
    "buffers": {
        "\\data\\3dcity\\miami\\workspace\\gridID_45\\gridID_45": {
            "byteLength": 7752,
            "type": "arraybuffer",
            "uri": "data:application/octet-stream;base64,"
        }
    },
    "materials": {
        "CityEngineMaterial_477-effect": {
            "name": "CityEngineMaterial_477",
            "technique": "technique0",
            "values": {
                "ambient": [
                    1,
                    1,
                    1,
                    1
                ],
                "diffuse": [
                    1,
                    1,
                    1,
                    1
                ],
                "emission": [
                    0,
                    0,
                    0,
                    1
                ],
                "shininess": 50,
                "specular": [
                    0.5,
                    0.5,
                    0.5,
                    1
                ]
            }
        },
        "CityEngineMaterial_478-effect": {
            "name": "CityEngineMaterial_478",
            "technique": "technique0",
            "values": {
                "ambient": [
                    1,
                    1,
                    1,
                    1
                ],
                "diffuse": [
                    1,
                    1,
                    1,
                    1
                ],
                "emission": [
                    0,
                    0,
                    0,
                    1
                ],
                "shininess": 50,
                "specular": [
                    0.5,
                    0.5,
                    0.5,
                    1
                ]
            }
        },
        "CityEngineMaterial_479-effect": {
            "name": "CityEngineMaterial_479",
            "technique": "technique0",
            "values": {
                "ambient": [
                    1,
                    1,
                    1,
                    1
                ],
                "diffuse": [
                    1,
                    1,
                    1,
                    1
                ],
                "emission": [
                    0,
                    0,
                    0,
                    1
                ],
                "shininess": 50,
                "specular": [
                    0.5,
                    0.5,
                    0.5,
                    1
                ]
            }
        },
        "CityEngineMaterial_480-effect": {
            "name": "CityEngineMaterial_480",
            "technique": "technique0",
            "values": {
                "ambient": [
                    1,
                    1,
                    1,
                    1
                ],
                "diffuse": [
                    1,
                    1,
                    1,
                    1
                ],
                "emission": [
                    0,
                    0,
                    0,
                    1
                ],
                "shininess": 50,
                "specular": [
                    0.5,
                    0.5,
                    0.5,
                    1
                ]
            }
        },
        "CityEngineMaterial_481-effect": {
            "name": "CityEngineMaterial_481",
            "technique": "technique0",
            "values": {
                "ambient": [
                    1,
                    1,
                    1,
                    1
                ],
                "diffuse": [
                    1,
                    1,
                    1,
                    1
                ],
                "emission": [
                    0,
                    0,
                    0,
                    1
                ],
                "shininess": 50,
                "specular": [
                    0.5,
                    0.5,
                    0.5,
                    1
                ]
            }
        },
        "CityEngineMaterial_482-effect": {
            "name": "CityEngineMaterial_482",
            "technique": "technique0",
            "values": {
                "ambient": [
                    1,
                    1,
                    1,
                    1
                ],
                "diffuse": [
                    1,
                    1,
                    1,
                    1
                ],
                "emission": [
                    0,
                    0,
                    0,
                    1
                ],
                "shininess": 50,
                "specular": [
                    0.5,
                    0.5,
                    0.5,
                    1
                ]
            }
        }
    },
    "meshes": {
        "mesh_CityEngineMaterial_475-mesh": {
            "name": "mesh_CityEngineMaterial.475",
            "primitives": [
                {
                    "attributes": {
                        "NORMAL": "accessor_20",
                        "POSITION": "accessor_18"
                    },
                    "indices": "accessor_16",
                    "material": "CityEngineMaterial_477-effect",
                    "mode": 4
                }
            ]
        },
        "mesh_CityEngineMaterial_476-mesh": {
            "name": "mesh_CityEngineMaterial.476",
            "primitives": [
                {
                    "attributes": {
                        "NORMAL": "accessor_40",
                        "POSITION": "accessor_38"
                    },
                    "indices": "accessor_36",
                    "material": "CityEngineMaterial_478-effect",
                    "mode": 4
                }
            ]
        },
        "mesh_CityEngineMaterial_477-mesh": {
            "name": "mesh_CityEngineMaterial.477",
            "primitives": [
                {
                    "attributes": {
                        "NORMAL": "accessor_60",
                        "POSITION": "accessor_58"
                    },
                    "indices": "accessor_56",
                    "material": "CityEngineMaterial_479-effect",
                    "mode": 4
                }
            ]
        },
        "mesh_CityEngineMaterial_478-mesh": {
            "name": "mesh_CityEngineMaterial.478",
            "primitives": [
                {
                    "attributes": {
                        "NORMAL": "accessor_80",
                        "POSITION": "accessor_78"
                    },
                    "indices": "accessor_76",
                    "material": "CityEngineMaterial_480-effect",
                    "mode": 4
                }
            ]
        },
        "mesh_CityEngineMaterial_479-mesh": {
            "name": "mesh_CityEngineMaterial.479",
            "primitives": [
                {
                    "attributes": {
                        "NORMAL": "accessor_100",
                        "POSITION": "accessor_98"
                    },
                    "indices": "accessor_96",
                    "material": "CityEngineMaterial_481-effect",
                    "mode": 4
                }
            ]
        },
        "mesh_CityEngineMaterial_480-mesh": {
            "name": "mesh_CityEngineMaterial.480",
            "primitives": [
                {
                    "attributes": {
                        "NORMAL": "accessor_120",
                        "POSITION": "accessor_118"
                    },
                    "indices": "accessor_116",
                    "material": "CityEngineMaterial_482-effect",
                    "mode": 4
                }
            ]
        }
    },
    "nodes": {
        "CityEngineMaterial": {
            "children": [],
            "matrix": [
                1,
                0,
                0,
                0,
                0,
                -1.62921e-007,
                1,
                0,
                0,
                -1,
                -1.62921e-007,
                0,
                0,
                0,
                0,
                1
            ],
            "meshes": [
                "mesh_CityEngineMaterial_475-mesh"
            ],
            "name": "CityEngineMaterial"
        },
        "CityEngineMaterial_001": {
            "children": [],
            "matrix": [
                1,
                0,
                0,
                0,
                0,
                -1.62921e-007,
                1,
                0,
                0,
                -1,
                -1.62921e-007,
                0,
                0,
                0,
                0,
                1
            ],
            "meshes": [
                "mesh_CityEngineMaterial_476-mesh"
            ],
            "name": "CityEngineMaterial_001"
        },
        "CityEngineMaterial_002": {
            "children": [],
            "matrix": [
                1,
                0,
                0,
                0,
                0,
                -1.62921e-007,
                1,
                0,
                0,
                -1,
                -1.62921e-007,
                0,
                0,
                0,
                0,
                1
            ],
            "meshes": [
                "mesh_CityEngineMaterial_477-mesh"
            ],
            "name": "CityEngineMaterial_002"
        },
        "CityEngineMaterial_003": {
            "children": [],
            "matrix": [
                1,
                0,
                0,
                0,
                0,
                -1.62921e-007,
                1,
                0,
                0,
                -1,
                -1.62921e-007,
                0,
                0,
                0,
                0,
                1
            ],
            "meshes": [
                "mesh_CityEngineMaterial_478-mesh"
            ],
            "name": "CityEngineMaterial_003"
        },
        "CityEngineMaterial_004": {
            "children": [],
            "matrix": [
                1,
                0,
                0,
                0,
                0,
                -1.62921e-007,
                1,
                0,
                0,
                -1,
                -1.62921e-007,
                0,
                0,
                0,
                0,
                1
            ],
            "meshes": [
                "mesh_CityEngineMaterial_479-mesh"
            ],
            "name": "CityEngineMaterial_004"
        },
        "CityEngineMaterial_005": {
            "children": [],
            "matrix": [
                1,
                0,
                0,
                0,
                0,
                -1.62921e-007,
                1,
                0,
                0,
                -1,
                -1.62921e-007,
                0,
                0,
                0,
                0,
                1
            ],
            "meshes": [
                "mesh_CityEngineMaterial_480-mesh"
            ],
            "name": "CityEngineMaterial_005"
        },
        "node_6": {
            "children": [
                "CityEngineMaterial",
                "CityEngineMaterial_001",
                "CityEngineMaterial_002",
                "CityEngineMaterial_003",
                "CityEngineMaterial_004",
                "CityEngineMaterial_005"
            ],
            "matrix": [
                1,
                0,
                0,
                0,
                0,
                0,
                -1,
                0,
                0,
                1,
                0,
                0,
                0,
                0,
                0,
                1
            ],
            "name": "Y_UP_Transform"
        }
    },
    "programs": {
        "program_0": {
            "attributes": [
                "a_normal",
                "a_position"
            ],
            "fragmentShader": "\\data\\3dcity\\miami\\workspace\\gridID_45\\gridID_450FS",
            "vertexShader": "\\data\\3dcity\\miami\\workspace\\gridID_45\\gridID_450VS"
        }
    },
    "scene": "defaultScene",
    "scenes": {
        "defaultScene": {
            "nodes": [
                "node_6"
            ]
        }
    },
    "shaders": {
        "\\data\\3dcity\\miami\\workspace\\gridID_45\\gridID_450FS": {
            "type": 35632,
            "uri": "data:text/plain;base64,"
        },
        "\\data\\3dcity\\miami\\workspace\\gridID_45\\gridID_450VS": {
            "type": 35633,
            "uri": "data:text/plain;base64,"
        }
    },
    "skins": {},
    "techniques": {
        "technique0": {
            "attributes": {
                "a_normal": "normal",
                "a_position": "position"
            },
            "parameters": {
                "ambient": {
                    "type": 35666
                },
                "diffuse": {
                    "type": 35666
                },
                "emission": {
                    "type": 35666
                },
                "modelViewMatrix": {
                    "semantic": "MODELVIEW",
                    "type": 35676
                },
                "normal": {
                    "semantic": "NORMAL",
                    "type": 35665
                },
                "normalMatrix": {
                    "semantic": "MODELVIEWINVERSETRANSPOSE",
                    "type": 35675
                },
                "position": {
                    "semantic": "POSITION",
                    "type": 35665
                },
                "projectionMatrix": {
                    "semantic": "PROJECTION",
                    "type": 35676
                },
                "shininess": {
                    "type": 5126
                },
                "specular": {
                    "type": 35666
                }
            },
            "program": "program_0",
            "states": {
                "enable": [
                    2929,
                    2884
                ]
            },
            "uniforms": {
                "u_ambient": "ambient",
                "u_diffuse": "diffuse",
                "u_emission": "emission",
                "u_modelViewMatrix": "modelViewMatrix",
                "u_normalMatrix": "normalMatrix",
                "u_projectionMatrix": "projectionMatrix",
                "u_shininess": "shininess",
                "u_specular": "specular"
            }
        }
    }
}