{
    "accessors": {
        "accessor_100": {
            "bufferView": "bufferView_123",
            "byteOffset": 6156,
            "byteStride": 12,
            "componentType": 5126,
            "count": 59,
            "max": [
                0.999413,
                0.999399,
                1
            ],
            "min": [
                -0.999412,
                -0.999399,
                0
            ],
            "type": "VEC3"
        },
        "accessor_116": {
            "bufferView": "bufferView_122",
            "byteOffset": 630,
            "byteStride": 0,
            "componentType": 5123,
            "count": 66,
            "type": "SCALAR"
        },
        "accessor_118": {
            "bufferView": "bufferView_123",
            "byteOffset": 6864,
            "byteStride": 12,
            "componentType": 5126,
            "count": 61,
            "max": [
                -56.5346,
                31.2961,
                7.92299
            ],
            "min": [
                -89.9043,
                10.781,
                4.11481
            ],
            "type": "VEC3"
        },
        "accessor_120": {
            "bufferView": "bufferView_123",
            "byteOffset": 7596,
            "byteStride": 12,
            "componentType": 5126,
            "count": 61,
            "max": [
                0.999488,
                0.999477,
                1
            ],
            "min": [
                -0.999488,
                -0.999477,
                0
            ],
            "type": "VEC3"
        },
        "accessor_16": {
            "bufferView": "bufferView_122",
            "byteOffset": 0,
            "byteStride": 0,
            "componentType": 5123,
            "count": 48,
            "type": "SCALAR"
        },
        "accessor_18": {
            "bufferView": "bufferView_123",
            "byteOffset": 0,
            "byteStride": 12,
            "componentType": 5126,
            "count": 48,
            "max": [
                49.4097,
                20.3105,
                9.31532
            ],
            "min": [
                22.935,
                7.15073,
                0.978909
            ],
            "type": "VEC3"
        },
        "accessor_20": {
            "bufferView": "bufferView_123",
            "byteOffset": 576,
            "byteStride": 12,
            "componentType": 5126,
            "count": 48,
            "max": [
                0.999528,
                0.999517,
                1
            ],
            "min": [
                -0.999529,
                -0.999517,
                0
            ],
            "type": "VEC3"
        },
        "accessor_36": {
            "bufferView": "bufferView_122",
            "byteOffset": 96,
            "byteStride": 0,
            "componentType": 5123,
            "count": 30,
            "type": "SCALAR"
        },
        "accessor_38": {
            "bufferView": "bufferView_123",
            "byteOffset": 1152,
            "byteStride": 12,
            "componentType": 5126,
            "count": 28,
            "max": [
                43.1902,
                35.8811,
                4.67259
            ],
            "min": [
                22.433,
                23.3014,
                0.931229
            ],
            "type": "VEC3"
        },
        "accessor_40": {
            "bufferView": "bufferView_123",
            "byteOffset": 1488,
            "byteStride": 12,
            "componentType": 5126,
            "count": 28,
            "max": [
                0.999525,
                0.999514,
                1
            ],
            "min": [
                -0.999525,
                -0.999514,
                0
            ],
            "type": "VEC3"
        },
        "accessor_56": {
            "bufferView": "bufferView_122",
            "byteOffset": 156,
            "byteStride": 0,
            "componentType": 5123,
            "count": 87,
            "type": "SCALAR"
        },
        "accessor_58": {
            "bufferView": "bufferView_123",
            "byteOffset": 1824,
            "byteStride": 12,
            "componentType": 5126,
            "count": 76,
            "max": [
                35.1366,
                -7.82921,
                8.27991
            ],
            "min": [
                21.2688,
                -27.5665,
                1.04785
            ],
            "type": "VEC3"
        },
        "accessor_60": {
            "bufferView": "bufferView_123",
            "byteOffset": 2736,
            "byteStride": 12,
            "componentType": 5126,
            "count": 76,
            "max": [
                0.999251,
                0.999234,
                1
            ],
            "min": [
                -0.999223,
                -0.999616,
                0
            ],
            "type": "VEC3"
        },
        "accessor_76": {
            "bufferView": "bufferView_122",
            "byteOffset": 330,
            "byteStride": 0,
            "componentType": 5123,
            "count": 84,
            "type": "SCALAR"
        },
        "accessor_78": {
            "bufferView": "bufferView_123",
            "byteOffset": 3648,
            "byteStride": 12,
            "componentType": 5126,
            "count": 75,
            "max": [
                47.2178,
                -5.58568,
                5.16241
            ],
            "min": [
                38.6462,
                -23.2721,
                1.61471
            ],
            "type": "VEC3"
        },
        "accessor_80": {
            "bufferView": "bufferView_123",
            "byteOffset": 4548,
            "byteStride": 12,
            "componentType": 5126,
            "count": 75,
            "max": [
                0.999739,
                0.999733,
                1
            ],
            "min": [
                -0.999739,
                -0.999734,
                0
            ],
            "type": "VEC3"
        },
        "accessor_96": {
            "bufferView": "bufferView_122",
            "byteOffset": 498,
            "byteStride": 0,
            "componentType": 5123,
            "count": 66,
            "type": "SCALAR"
        },
        "accessor_98": {
            "bufferView": "bufferView_123",
            "byteOffset": 5448,
            "byteStride": 12,
            "componentType": 5126,
            "count": 59,
            "max": [
                -55.0809,
                1.49962,
                8.74869
            ],
            "min": [
                -81.261,
                -27.9051,
                4.31869
            ],
            "type": "VEC3"
        }
    },
    "animations": {},
    "asset": {
        "generator": "collada2gltf@cf6371beb0bdc18ba603378d5e40c966da53d385",
        "premultipliedAlpha": true,
        "profile": {
            "api": "WebGL",
            "version": "1.0.2"
        },
        "version": "1.0"
    },
    "bufferViews": {
        "bufferView_122": {
            "buffer": "\\data\\3dcity\\miami\\workspace\\gridID_45\\gridID_45_high",
            "byteLength": 764,
            "byteOffset": 0,
            "target": 34963
        },
        "bufferView_123": {
            "buffer": "\\data\\3dcity\\miami\\workspace\\gridID_45\\gridID_45_high",
            "byteLength": 8328,
            "byteOffset": 764,
            "target": 34962
        }
    },
    "buffers": {
        "\\data\\3dcity\\miami\\workspace\\gridID_45\\gridID_45_high": {
            "byteLength": 9092,
            "type": "arraybuffer",
            "uri": "data:application/octet-stream;base64,"
        }
    },
    "materials": {
        "__glTF__defaultMaterial0": {
            "name": "__glTF__defaultMaterial0",
            "technique": "technique0",
            "values": {
                "diffuse": [
                    1,
                    1,
                    1,
                    1
                ]
            }
        }
    },
    "meshes": {
        "multipatch_footprint_136-mesh": {
            "name": "multipatch_footprint.136",
            "primitives": [
                {
                    "attributes": {
                        "NORMAL": "accessor_20",
                        "POSITION": "accessor_18"
                    },
                    "indices": "accessor_16",
                    "material": "__glTF__defaultMaterial0",
                    "mode": 4
                }
            ]
        },
        "multipatch_footprint_137-mesh": {
            "name": "multipatch_footprint.137",
            "primitives": [
                {
                    "attributes": {
                        "NORMAL": "accessor_40",
                        "POSITION": "accessor_38"
                    },
                    "indices": "accessor_36",
                    "material": "__glTF__defaultMaterial0",
                    "mode": 4
                }
            ]
        },
        "multipatch_footprint_138-mesh": {
            "name": "multipatch_footprint.138",
            "primitives": [
                {
                    "attributes": {
                        "NORMAL": "accessor_60",
                        "POSITION": "accessor_58"
                    },
                    "indices": "accessor_56",
                    "material": "__glTF__defaultMaterial0",
                    "mode": 4
                }
            ]
        },
        "multipatch_footprint_139-mesh": {
            "name": "multipatch_footprint.139",
            "primitives": [
                {
                    "attributes": {
                        "NORMAL": "accessor_80",
                        "POSITION": "accessor_78"
                    },
                    "indices": "accessor_76",
                    "material": "__glTF__defaultMaterial0",
                    "mode": 4
                }
            ]
        },
        "multipatch_footprint_2039-mesh": {
            "name": "multipatch_footprint.2039",
            "primitives": [
                {
                    "attributes": {
                        "NORMAL": "accessor_100",
                        "POSITION": "accessor_98"
                    },
                    "indices": "accessor_96",
                    "material": "__glTF__defaultMaterial0",
                    "mode": 4
                }
            ]
        },
        "multipatch_footprint_2041-mesh": {
            "name": "multipatch_footprint.2041",
            "primitives": [
                {
                    "attributes": {
                        "NORMAL": "accessor_120",
                        "POSITION": "accessor_118"
                    },
                    "indices": "accessor_116",
                    "material": "__glTF__defaultMaterial0",
                    "mode": 4
                }
            ]
        }
    },
    "nodes": {
        "gridID_45_w435375078_join": {
            "children": [],
            "matrix": [
                1,
                0,
                0,
                0,
                0,
                1,
                0,
                0,
                0,
                0,
                1,
                0,
                0.00038147,
                0.000335693,
                0,
                1
            ],
            "meshes": [
                "multipatch_footprint_2039-mesh"
            ],
            "name": "gridID_45_w435375078_join"
        },
        "gridID_45_w435528164_join": {
            "children": [],
            "matrix": [
                1,
                0,
                0,
                0,
                0,
                1,
                0,
                0,
                0,
                0,
                1,
                0,
                0.00038147,
                0.000335693,
                0,
                1
            ],
            "meshes": [
                "multipatch_footprint_2041-mesh"
            ],
            "name": "gridID_45_w435528164_join"
        },
        "gridID_45_w435586754_join": {
            "children": [],
            "matrix": [
                1,
                0,
                0,
                0,
                0,
                1,
                0,
                0,
                0,
                0,
                1,
                0,
                0.00038147,
                0.000335693,
                0,
                1
            ],
            "meshes": [
                "multipatch_footprint_138-mesh"
            ],
            "name": "gridID_45_w435586754_join"
        },
        "gridID_45_w435587899_join": {
            "children": [],
            "matrix": [
                1,
                0,
                0,
                0,
                0,
                1,
                0,
                0,
                0,
                0,
                1,
                0,
                0.00038147,
                0.000335693,
                0,
                1
            ],
            "meshes": [
                "multipatch_footprint_136-mesh"
            ],
            "name": "gridID_45_w435587899_join"
        },
        "gridID_45_w435588059_join": {
            "children": [],
            "matrix": [
                1,
                0,
                0,
                0,
                0,
                1,
                0,
                0,
                0,
                0,
                1,
                0,
                0.00038147,
                0.000335693,
                0,
                1
            ],
            "meshes": [
                "multipatch_footprint_137-mesh"
            ],
            "name": "gridID_45_w435588059_join"
        },
        "gridID_45_w435883333_join": {
            "children": [],
            "matrix": [
                1,
                0,
                0,
                0,
                0,
                1,
                0,
                0,
                0,
                0,
                1,
                0,
                0.00038147,
                0.000335693,
                0,
                1
            ],
            "meshes": [
                "multipatch_footprint_139-mesh"
            ],
            "name": "gridID_45_w435883333_join"
        },
        "node_6": {
            "children": [
                "gridID_45_w435587899_join",
                "gridID_45_w435588059_join",
                "gridID_45_w435586754_join",
                "gridID_45_w435883333_join",
                "gridID_45_w435375078_join",
                "gridID_45_w435528164_join"
            ],
            "matrix": [
                1,
                0,
                0,
                0,
                0,
                0,
                -1,
                0,
                0,
                1,
                0,
                0,
                0,
                0,
                0,
                1
            ],
            "name": "Y_UP_Transform"
        }
    },
    "programs": {
        "program_0": {
            "attributes": [
                "a_normal",
                "a_position"
            ],
            "fragmentShader": "\\data\\3dcity\\miami\\workspace\\gridID_45\\gridID_45_high0FS",
            "vertexShader": "\\data\\3dcity\\miami\\workspace\\gridID_45\\gridID_45_high0VS"
        }
    },
    "scene": "defaultScene",
    "scenes": {
        "defaultScene": {
            "nodes": [
                "node_6"
            ]
        }
    },
    "shaders": {
        "\\data\\3dcity\\miami\\workspace\\gridID_45\\gridID_45_high0FS": {
            "type": 35632,
            "uri": "data:text/plain;base64,"
        },
        "\\data\\3dcity\\miami\\workspace\\gridID_45\\gridID_45_high0VS": {
            "type": 35633,
            "uri": "data:text/plain;base64,"
        }
    },
    "skins": {},
    "techniques": {
        "technique0": {
            "attributes": {
                "a_normal": "normal",
                "a_position": "position"
            },
            "parameters": {
                "diffuse": {
                    "type": 35666
                },
                "modelViewMatrix": {
                    "semantic": "MODELVIEW",
                    "type": 35676
                },
                "normal": {
                    "semantic": "NORMAL",
                    "type": 35665
                },
                "normalMatrix": {
                    "semantic": "MODELVIEWINVERSETRANSPOSE",
                    "type": 35675
                },
                "position": {
                    "semantic": "POSITION",
                    "type": 35665
                },
                "projectionMatrix": {
                    "semantic": "PROJECTION",
                    "type": 35676
                }
            },
            "program": "program_0",
            "states": {
                "enable": [
                    2929,
                    2884
                ]
            },
            "uniforms": {
                "u_diffuse": "diffuse",
                "u_modelViewMatrix": "modelViewMatrix",
                "u_normalMatrix": "normalMatrix",
                "u_projectionMatrix": "projectionMatrix"
            }
        }
    }
}