{"accessors":{"accessor_101":{"bufferView":"bufferView_142","byteOffset":300,"byteStride":0,"componentType":5123,"count":12,"type":"SCALAR"},"accessor_103":{"bufferView":"bufferView_143","byteOffset":1680,"byteStride":12,"componentType":5126,"count":30,"max":[8.44492,3.75,3.68317],"min":[-8.19409,-3.75,-6.97083],"type":"VEC3"},"accessor_105":{"bufferView":"bufferView_143","byteOffset":2040,"byteStride":12,"componentType":5126,"count":30,"max":[0.998891,1,0.999012],"min":[-0.998891,0,-0.998875],"type":"VEC3"},"accessor_133":{"bufferView":"bufferView_142","byteOffset":150,"byteStride":0,"componentType":5123,"count":30,"type":"SCALAR"},"accessor_136":{"bufferView":"bufferView_142","byteOffset":210,"byteStride":0,"componentType":5123,"count":9,"type":"SCALAR"},"accessor_138":{"bufferView":"bufferView_143","byteOffset":1080,"byteStride":12,"componentType":5126,"count":25,"max":[8.76657,3.75,6.34583],"min":[-7.88141,-3.75,-4.31921],"type":"VEC3"},"accessor_140":{"bufferView":"bufferView_143","byteOffset":1380,"byteStride":12,"componentType":5126,"count":25,"max":[0.998891,1,0.99884],"min":[-0.998843,0,-0.998875],"type":"VEC3"},"accessor_28":{"bufferView":"bufferView_142","byteOffset":324,"byteStride":0,"componentType":5123,"count":36,"type":"SCALAR"},"accessor_31":{"bufferView":"bufferView_142","byteOffset":396,"byteStride":0,"componentType":5123,"count":12,"type":"SCALAR"},"accessor_33":{"bufferView":"bufferView_143","byteOffset":2400,"byteStride":12,"componentType":5126,"count":42,"max":[10.0202,3.75,4.80951],"min":[-6.6568,-3.75,-5.88953],"type":"VEC3"},"accessor_35":{"bufferView":"bufferView_143","byteOffset":2904,"byteStride":12,"componentType":5126,"count":42,"max":[0.998749,1,0.998765],"min":[-0.998831,0,-0.99874],"type":"VEC3"},"accessor_63":{"bufferView":"bufferView_142","byteOffset":0,"byteStride":0,"componentType":5123,"count":54,"type":"SCALAR"},"accessor_66":{"bufferView":"bufferView_142","byteOffset":108,"byteStride":0,"componentType":5123,"count":21,"type":"SCALAR"},"accessor_68":{"bufferView":"bufferView_143","byteOffset":0,"byteStride":12,"componentType":5126,"count":45,"max":[7.3794,3.75,21.8409],"min":[-10.0977,-3.75,-19.0151],"type":"VEC3"},"accessor_70":{"bufferView":"bufferView_143","byteOffset":540,"byteStride":12,"componentType":5126,"count":45,"max":[0.998928,1,0.998875],"min":[-0.998879,0,-0.998875],"type":"VEC3"},"accessor_98":{"bufferView":"bufferView_142","byteOffset":228,"byteStride":0,"componentType":5123,"count":36,"type":"SCALAR"},"accessor_b0":{"bufferView":"bufferView_b","byteOffset":0,"byteStride":0,"componentType":5123,"count":45,"type":"SCALAR"},"accessor_b1":{"bufferView":"bufferView_b","byteOffset":90,"byteStride":0,"componentType":5123,"count":25,"type":"SCALAR"},"accessor_b2":{"bufferView":"bufferView_b","byteOffset":140,"byteStride":0,"componentType":5123,"count":30,"type":"SCALAR"},"accessor_b3":{"bufferView":"bufferView_b","byteOffset":200,"byteStride":0,"componentType":5123,"count":42,"type":"SCALAR"}},"animations":{},"asset":{"generator":"collada2gltf@cf6371beb0bdc18ba603378d5e40c966da53d385","premultipliedAlpha":true,"profile":{"api":"WebGL","version":"1.0.2"},"version":"1.0"},"bufferViews":{"bufferView_142":{"buffer":"\\data\\ECNU\\workspace\\gridID_111\\gridID_111","byteLength":420,"byteOffset":0,"target":34963},"bufferView_143":{"buffer":"\\data\\ECNU\\workspace\\gridID_111\\gridID_111","byteLength":3408,"byteOffset":420,"target":34962},"bufferView_b":{"buffer":"buffer_b","byteLength":284,"byteOffset":0,"target":34962}},"buffers":{"\\data\\ECNU\\workspace\\gridID_111\\gridID_111":{"byteLength":3828,"type":"arraybuffer","uri":"data:application/octet-stream;base64,"},"buffer_b":{"type":"arraybuffer","byteLength":284,"uri":"data:application/octet-stream;base64,"}},"materials":{"BUILDING_DEFAULT_0-effect":{"name":"BUILDING_DEFAULT_0","technique":"technique0","values":{"ambient":[0,0,0,1],"diffuse":[0.723055,0.708376,0.672443,1],"emission":[0,0,0,1],"shininess":50,"specular":[0.5,0.5,0.5,1]}},"ROOF_DEFAULT_0-effect":{"name":"ROOF_DEFAULT_0","technique":"technique0","values":{"ambient":[0,0,0,1],"diffuse":[0.603827,0.381326,0.291771,1],"emission":[0,0,0,1],"shininess":50,"specular":[0.5,0.5,0.5,1]}}},"meshes":{"Building3280-mesh":{"name":"Building3280","primitives":[{"attributes":{"NORMAL":"accessor_70","POSITION":"accessor_68","BATCHID":"accessor_b0"},"indices":"accessor_63","material":"BUILDING_DEFAULT_0-effect","mode":4},{"attributes":{"NORMAL":"accessor_70","POSITION":"accessor_68","BATCHID":"accessor_b0"},"indices":"accessor_66","material":"ROOF_DEFAULT_0-effect","mode":4}]},"Building3286-mesh":{"name":"Building3286","primitives":[{"attributes":{"NORMAL":"accessor_140","POSITION":"accessor_138","BATCHID":"accessor_b1"},"indices":"accessor_133","material":"BUILDING_DEFAULT_0-effect","mode":4},{"attributes":{"NORMAL":"accessor_140","POSITION":"accessor_138","BATCHID":"accessor_b1"},"indices":"accessor_136","material":"ROOF_DEFAULT_0-effect","mode":4}]},"Building3287-mesh":{"name":"Building3287","primitives":[{"attributes":{"NORMAL":"accessor_105","POSITION":"accessor_103","BATCHID":"accessor_b2"},"indices":"accessor_98","material":"BUILDING_DEFAULT_0-effect","mode":4},{"attributes":{"NORMAL":"accessor_105","POSITION":"accessor_103","BATCHID":"accessor_b2"},"indices":"accessor_101","material":"ROOF_DEFAULT_0-effect","mode":4}]},"Building3289-mesh":{"name":"Building3289","primitives":[{"attributes":{"NORMAL":"accessor_35","POSITION":"accessor_33","BATCHID":"accessor_b3"},"indices":"accessor_28","material":"BUILDING_DEFAULT_0-effect","mode":4},{"attributes":{"NORMAL":"accessor_35","POSITION":"accessor_33","BATCHID":"accessor_b3"},"indices":"accessor_31","material":"ROOF_DEFAULT_0-effect","mode":4}]}},"nodes":{"model_gridID_111_r6179511":{"children":[],"matrix":[1,0,0,0,0,-1.62921e-7,1,0,0,-1,-1.62921e-7,0,-518.031,599.128,3.7501,1],"meshes":["Building3289-mesh"],"name":"model_gridID_111_r6179511"},"model_gridID_111_r6179511_001":{"children":[],"matrix":[1,0,0,0,0,-1.62921e-7,1,0,0,-1,-1.62921e-7,0,-525.794,582.717,3.75009,1],"meshes":["Building3280-mesh"],"name":"model_gridID_111_r6179511_001"},"model_gridID_111_r6179512":{"children":[],"matrix":[1,0,0,0,0,-1.62921e-7,1,0,0,-1,-1.62921e-7,0,-500.864,572.051,3.75009,1],"meshes":["Building3287-mesh"],"name":"model_gridID_111_r6179512"},"model_gridID_111_r6179512_001":{"children":[],"matrix":[1,0,0,0,0,-1.62921e-7,1,0,0,-1,-1.62921e-7,0,-517.359,575.482,3.75009,1],"meshes":["Building3286-mesh"],"name":"model_gridID_111_r6179512_001"},"node_4":{"children":["model_gridID_111_r6179511","model_gridID_111_r6179511_001","model_gridID_111_r6179512","model_gridID_111_r6179512_001"],"matrix":[1,0,0,0,0,0,-1,0,0,1,0,0,0,0,0,1],"name":"Y_UP_Transform"}},"programs":{"program_0":{"attributes":["a_normal","a_position","a_batchId"],"fragmentShader":"\\data\\ECNU\\workspace\\gridID_111\\gridID_1110FS","vertexShader":"\\data\\ECNU\\workspace\\gridID_111\\gridID_1110VS"}},"scene":"defaultScene","scenes":{"defaultScene":{"nodes":["node_4"]}},"shaders":{"\\data\\ECNU\\workspace\\gridID_111\\gridID_1110FS":{"type":35632,"uri":"data:text/plain;base64,"},"\\data\\ECNU\\workspace\\gridID_111\\gridID_1110VS":{"type":35633,"uri":"data:text/plain;base64,"}},"skins":{},"techniques":{"technique0":{"attributes":{"a_normal":"normal","a_position":"position","a_batchId":"batchId"},"parameters":{"ambient":{"type":35666},"diffuse":{"type":35666},"emission":{"type":35666},"modelViewMatrix":{"semantic":"MODELVIEW","type":35676},"normal":{"semantic":"NORMAL","type":35665},"normalMatrix":{"semantic":"MODELVIEWINVERSETRANSPOSE","type":35675},"position":{"semantic":"POSITION","type":35665},"projectionMatrix":{"semantic":"PROJECTION","type":35676},"shininess":{"type":5126},"specular":{"type":35666},"batchId":{"semantic":"BATCHID","type":5126}},"program":"program_0","states":{"enable":[2929,2884]},"uniforms":{"u_ambient":"ambient","u_diffuse":"diffuse","u_emission":"emission","u_modelViewMatrix":"modelViewMatrix","u_normalMatrix":"normalMatrix","u_projectionMatrix":"projectionMatrix","u_shininess":"shininess","u_specular":"specular"}}}}