{"accessors":{"accessor_28":{"bufferView":"bufferView_72","byteOffset":60,"byteStride":0,"componentType":5123,"count":24,"type":"SCALAR"},"accessor_31":{"bufferView":"bufferView_72","byteOffset":108,"byteStride":0,"componentType":5123,"count":6,"type":"SCALAR"},"accessor_33":{"bufferView":"bufferView_73","byteOffset":480,"byteStride":12,"componentType":5126,"count":22,"max":[3.98401,3.75,5.39899],"min":[-3.98398,-3.75,-5.39905],"type":"VEC3"},"accessor_35":{"bufferView":"bufferView_73","byteOffset":744,"byteStride":12,"componentType":5126,"count":22,"max":[0.988444,1,0.988451],"min":[-0.988444,0,-0.988451],"type":"VEC3"},"accessor_63":{"bufferView":"bufferView_72","byteOffset":0,"byteStride":0,"componentType":5123,"count":24,"type":"SCALAR"},"accessor_66":{"bufferView":"bufferView_72","byteOffset":48,"byteStride":0,"componentType":5123,"count":6,"type":"SCALAR"},"accessor_68":{"bufferView":"bufferView_73","byteOffset":0,"byteStride":12,"componentType":5126,"count":20,"max":[4.27176,3.75,4.7478],"min":[-4.26724,-3.75,-4.74719],"type":"VEC3"},"accessor_70":{"bufferView":"bufferView_73","byteOffset":240,"byteStride":12,"componentType":5126,"count":20,"max":[0.982697,1,0.982863],"min":[-0.982896,0,-0.982846],"type":"VEC3"},"accessor_b0":{"bufferView":"bufferView_b","byteOffset":0,"byteStride":0,"componentType":5123,"count":20,"type":"SCALAR"},"accessor_b1":{"bufferView":"bufferView_b","byteOffset":40,"byteStride":0,"componentType":5123,"count":22,"type":"SCALAR"}},"animations":{},"asset":{"generator":"collada2gltf@cf6371beb0bdc18ba603378d5e40c966da53d385","premultipliedAlpha":true,"profile":{"api":"WebGL","version":"1.0.2"},"version":"1.0"},"bufferViews":{"bufferView_72":{"buffer":"\\data\\ECNU\\workspace\\gridID_3\\gridID_3","byteLength":120,"byteOffset":0,"target":34963},"bufferView_73":{"buffer":"\\data\\ECNU\\workspace\\gridID_3\\gridID_3","byteLength":1008,"byteOffset":120,"target":34962},"bufferView_b":{"buffer":"buffer_b","byteLength":84,"byteOffset":0,"target":34962}},"buffers":{"\\data\\ECNU\\workspace\\gridID_3\\gridID_3":{"byteLength":1128,"type":"arraybuffer","uri":"data:application/octet-stream;base64,"},"buffer_b":{"type":"arraybuffer","byteLength":84,"uri":"data:application/octet-stream;base64,"}},"materials":{"BUILDING_DEFAULT_0-effect":{"name":"BUILDING_DEFAULT_0","technique":"technique0","values":{"ambient":[0,0,0,1],"diffuse":[0.723055,0.708376,0.672443,1],"emission":[0,0,0,1],"shininess":50,"specular":[0.5,0.5,0.5,1]}},"ROOF_DEFAULT_0-effect":{"name":"ROOF_DEFAULT_0","technique":"technique0","values":{"ambient":[0,0,0,1],"diffuse":[0.603827,0.381326,0.291771,1],"emission":[0,0,0,1],"shininess":50,"specular":[0.5,0.5,0.5,1]}}},"meshes":{"Building3637-mesh":{"name":"Building3637","primitives":[{"attributes":{"NORMAL":"accessor_70","POSITION":"accessor_68","BATCHID":"accessor_b0"},"indices":"accessor_63","material":"BUILDING_DEFAULT_0-effect","mode":4},{"attributes":{"NORMAL":"accessor_70","POSITION":"accessor_68","BATCHID":"accessor_b0"},"indices":"accessor_66","material":"ROOF_DEFAULT_0-effect","mode":4}]},"Building3640-mesh":{"name":"Building3640","primitives":[{"attributes":{"NORMAL":"accessor_35","POSITION":"accessor_33","BATCHID":"accessor_b1"},"indices":"accessor_28","material":"BUILDING_DEFAULT_0-effect","mode":4},{"attributes":{"NORMAL":"accessor_35","POSITION":"accessor_33","BATCHID":"accessor_b1"},"indices":"accessor_31","material":"ROOF_DEFAULT_0-effect","mode":4}]}},"nodes":{"model_gridID_3_w389865169":{"children":[],"matrix":[1,0,0,0,0,-1.62921e-7,1,0,0,-1,-1.62921e-7,0,-317.559,-562.204,3.74991,1],"meshes":["Building3640-mesh"],"name":"model_gridID_3_w389865169"},"model_gridID_3_w389865174":{"children":[],"matrix":[1,0,0,0,0,-1.62921e-7,1,0,0,-1,-1.62921e-7,0,-312.136,-603.195,3.7499,1],"meshes":["Building3637-mesh"],"name":"model_gridID_3_w389865174"},"node_2":{"children":["model_gridID_3_w389865169","model_gridID_3_w389865174"],"matrix":[1,0,0,0,0,0,-1,0,0,1,0,0,0,0,0,1],"name":"Y_UP_Transform"}},"programs":{"program_0":{"attributes":["a_normal","a_position","a_batchId"],"fragmentShader":"\\data\\ECNU\\workspace\\gridID_3\\gridID_30FS","vertexShader":"\\data\\ECNU\\workspace\\gridID_3\\gridID_30VS"}},"scene":"defaultScene","scenes":{"defaultScene":{"nodes":["node_2"]}},"shaders":{"\\data\\ECNU\\workspace\\gridID_3\\gridID_30FS":{"type":35632,"uri":"data:text/plain;base64,"},"\\data\\ECNU\\workspace\\gridID_3\\gridID_30VS":{"type":35633,"uri":"data:text/plain;base64,"}},"skins":{},"techniques":{"technique0":{"attributes":{"a_normal":"normal","a_position":"position","a_batchId":"batchId"},"parameters":{"ambient":{"type":35666},"diffuse":{"type":35666},"emission":{"type":35666},"modelViewMatrix":{"semantic":"MODELVIEW","type":35676},"normal":{"semantic":"NORMAL","type":35665},"normalMatrix":{"semantic":"MODELVIEWINVERSETRANSPOSE","type":35675},"position":{"semantic":"POSITION","type":35665},"projectionMatrix":{"semantic":"PROJECTION","type":35676},"shininess":{"type":5126},"specular":{"type":35666},"batchId":{"semantic":"BATCHID","type":5126}},"program":"program_0","states":{"enable":[2929,2884]},"uniforms":{"u_ambient":"ambient","u_diffuse":"diffuse","u_emission":"emission","u_modelViewMatrix":"modelViewMatrix","u_normalMatrix":"normalMatrix","u_projectionMatrix":"projectionMatrix","u_shininess":"shininess","u_specular":"specular"}}}}