{"accessors":{"accessor_40":{"bufferView":"bufferView_87","byteOffset":0,"byteStride":0,"componentType":5123,"count":366,"type":"SCALAR"},"accessor_43":{"bufferView":"bufferView_87","byteOffset":732,"byteStride":0,"componentType":5123,"count":12,"type":"SCALAR"},"accessor_46":{"bufferView":"bufferView_87","byteOffset":756,"byteStride":0,"componentType":5123,"count":138,"type":"SCALAR"},"accessor_48":{"bufferView":"bufferView_88","byteOffset":0,"byteStride":12,"componentType":5126,"count":399,"max":[33.2278,26.5893,13.7003],"min":[-34.4521,-29.4107,-10.7896],"type":"VEC3"},"accessor_50":{"bufferView":"bufferView_88","byteOffset":4788,"byteStride":12,"componentType":5126,"count":399,"max":[1,1,1],"min":[-1,0,-1],"type":"VEC3"},"accessor_78":{"bufferView":"bufferView_87","byteOffset":1032,"byteStride":0,"componentType":5123,"count":312,"type":"SCALAR"},"accessor_81":{"bufferView":"bufferView_87","byteOffset":1656,"byteStride":0,"componentType":5123,"count":198,"type":"SCALAR"},"accessor_83":{"bufferView":"bufferView_88","byteOffset":9576,"byteStride":12,"componentType":5126,"count":426,"max":[41.4436,9.25961,7.85724],"min":[-31.4534,-10.7404,-5.92377],"type":"VEC3"},"accessor_85":{"bufferView":"bufferView_88","byteOffset":14688,"byteStride":12,"componentType":5126,"count":426,"max":[1,0.932584,1],"min":[-1,0,-1],"type":"VEC3"},"accessor_b0":{"bufferView":"bufferView_b","byteOffset":0,"byteStride":0,"componentType":5123,"count":399,"type":"SCALAR"},"accessor_b1":{"bufferView":"bufferView_b","byteOffset":798,"byteStride":0,"componentType":5123,"count":426,"type":"SCALAR"}},"animations":{},"asset":{"generator":"collada2gltf@cf6371beb0bdc18ba603378d5e40c966da53d385","premultipliedAlpha":true,"profile":{"api":"WebGL","version":"1.0.2"},"version":"1.0"},"bufferViews":{"bufferView_87":{"buffer":"\\data\\ECNU\\workspace\\gridID_26\\gridID_26","byteLength":2052,"byteOffset":0,"target":34963},"bufferView_88":{"buffer":"\\data\\ECNU\\workspace\\gridID_26\\gridID_26","byteLength":19800,"byteOffset":2052,"target":34962},"bufferView_b":{"buffer":"buffer_b","byteLength":1650,"byteOffset":0,"target":34962}},"buffers":{"\\data\\ECNU\\workspace\\gridID_26\\gridID_26":{"byteLength":21852,"type":"arraybuffer","uri":"data:application/octet-stream;base64,"},"buffer_b":{"type":"arraybuffer","byteLength":1650,"uri":"data:application/octet-stream;base64,"}},"materials":{"BUILDING_DEFAULT_0-effect":{"name":"BUILDING_DEFAULT_0","technique":"technique0","values":{"ambient":[0,0,0,1],"diffuse":[0.723055,0.708376,0.672443,1],"emission":[0,0,0,1],"shininess":50,"specular":[0.5,0.5,0.5,1]}},"CONCRETE_0-effect":{"name":"CONCRETE_0","technique":"technique0","values":{"ambient":[0,0,0,1],"diffuse":[0.309469,0.327778,0.309469,1],"emission":[0,0,0,1],"shininess":50,"specular":[0.5,0.5,0.5,1]}},"ROOF_DEFAULT_0-effect":{"name":"ROOF_DEFAULT_0","technique":"technique0","values":{"ambient":[0,0,0,1],"diffuse":[0.603827,0.381326,0.291771,1],"emission":[0,0,0,1],"shininess":50,"specular":[0.5,0.5,0.5,1]}}},"meshes":{"Building3797-mesh":{"name":"Building3797","primitives":[{"attributes":{"NORMAL":"accessor_50","POSITION":"accessor_48","BATCHID":"accessor_b0"},"indices":"accessor_40","material":"BUILDING_DEFAULT_0-effect","mode":4},{"attributes":{"NORMAL":"accessor_50","POSITION":"accessor_48","BATCHID":"accessor_b0"},"indices":"accessor_43","material":"ROOF_DEFAULT_0-effect","mode":4},{"attributes":{"NORMAL":"accessor_50","POSITION":"accessor_48","BATCHID":"accessor_b0"},"indices":"accessor_46","material":"CONCRETE_0-effect","mode":4}]},"Building3799-mesh":{"name":"Building3799","primitives":[{"attributes":{"NORMAL":"accessor_85","POSITION":"accessor_83","BATCHID":"accessor_b1"},"indices":"accessor_78","material":"BUILDING_DEFAULT_0-effect","mode":4},{"attributes":{"NORMAL":"accessor_85","POSITION":"accessor_83","BATCHID":"accessor_b1"},"indices":"accessor_81","material":"ROOF_DEFAULT_0-effect","mode":4}]}},"nodes":{"model_gridID_26_w114518354":{"children":[],"matrix":[1,0,0,0,0,-1.62921e-7,1,0,0,-1,-1.62921e-7,0,-270.604,-280.024,29.4107,1],"meshes":["Building3797-mesh"],"name":"model_gridID_26_w114518354"},"model_gridID_26_w114518356_001":{"children":[],"matrix":[1,0,0,0,0,-1.62921e-7,1,0,0,-1,-1.62921e-7,0,-278.315,-317.369,10.7403,1],"meshes":["Building3799-mesh"],"name":"model_gridID_26_w114518356_001"},"node_2":{"children":["model_gridID_26_w114518354","model_gridID_26_w114518356_001"],"matrix":[1,0,0,0,0,0,-1,0,0,1,0,0,0,0,0,1],"name":"Y_UP_Transform"}},"programs":{"program_0":{"attributes":["a_normal","a_position","a_batchId"],"fragmentShader":"\\data\\ECNU\\workspace\\gridID_26\\gridID_260FS","vertexShader":"\\data\\ECNU\\workspace\\gridID_26\\gridID_260VS"}},"scene":"defaultScene","scenes":{"defaultScene":{"nodes":["node_2"]}},"shaders":{"\\data\\ECNU\\workspace\\gridID_26\\gridID_260FS":{"type":35632,"uri":"data:text/plain;base64,"},"\\data\\ECNU\\workspace\\gridID_26\\gridID_260VS":{"type":35633,"uri":"data:text/plain;base64,"}},"skins":{},"techniques":{"technique0":{"attributes":{"a_normal":"normal","a_position":"position","a_batchId":"batchId"},"parameters":{"ambient":{"type":35666},"diffuse":{"type":35666},"emission":{"type":35666},"modelViewMatrix":{"semantic":"MODELVIEW","type":35676},"normal":{"semantic":"NORMAL","type":35665},"normalMatrix":{"semantic":"MODELVIEWINVERSETRANSPOSE","type":35675},"position":{"semantic":"POSITION","type":35665},"projectionMatrix":{"semantic":"PROJECTION","type":35676},"shininess":{"type":5126},"specular":{"type":35666},"batchId":{"semantic":"BATCHID","type":5126}},"program":"program_0","states":{"enable":[2929,2884]},"uniforms":{"u_ambient":"ambient","u_diffuse":"diffuse","u_emission":"emission","u_modelViewMatrix":"modelViewMatrix","u_normalMatrix":"normalMatrix","u_projectionMatrix":"projectionMatrix","u_shininess":"shininess","u_specular":"specular"}}}}