{
    "accessors": {
        "accessor_100": {
            "bufferView": "bufferView_123",
            "byteOffset": 3168,
            "byteStride": 12,
            "componentType": 5126,
            "count": 32,
            "max": [
                0.999888,
                1,
                0.99989
            ],
            "min": [
                -0.999888,
                -1,
                -0.99989
            ],
            "type": "VEC3"
        },
        "accessor_116": {
            "bufferView": "bufferView_122",
            "byteOffset": 360,
            "byteStride": 0,
            "componentType": 5123,
            "count": 84,
            "type": "SCALAR"
        },
        "accessor_118": {
            "bufferView": "bufferView_123",
            "byteOffset": 3552,
            "byteStride": 12,
            "componentType": 5126,
            "count": 56,
            "max": [
                -23.6289,
                10,
                19.7983
            ],
            "min": [
                -73.7227,
                0,
                -10.5234
            ],
            "type": "VEC3"
        },
        "accessor_120": {
            "bufferView": "bufferView_123",
            "byteOffset": 4224,
            "byteStride": 12,
            "componentType": 5126,
            "count": 56,
            "max": [
                1,
                1,
                0.999999
            ],
            "min": [
                -0.999999,
                -1,
                -0.999999
            ],
            "type": "VEC3"
        },
        "accessor_16": {
            "bufferView": "bufferView_122",
            "byteOffset": 0,
            "byteStride": 0,
            "componentType": 5123,
            "count": 36,
            "type": "SCALAR"
        },
        "accessor_18": {
            "bufferView": "bufferView_123",
            "byteOffset": 0,
            "byteStride": 12,
            "componentType": 5126,
            "count": 30,
            "max": [
                -10.9162,
                10,
                53.4205
            ],
            "min": [
                -20.8348,
                0,
                42.7034
            ],
            "type": "VEC3"
        },
        "accessor_20": {
            "bufferView": "bufferView_123",
            "byteOffset": 360,
            "byteStride": 12,
            "componentType": 5126,
            "count": 30,
            "max": [
                0.999933,
                1,
                0.999936
            ],
            "min": [
                -0.999933,
                -1,
                -0.999936
            ],
            "type": "VEC3"
        },
        "accessor_36": {
            "bufferView": "bufferView_122",
            "byteOffset": 72,
            "byteStride": 0,
            "componentType": 5123,
            "count": 36,
            "type": "SCALAR"
        },
        "accessor_38": {
            "bufferView": "bufferView_123",
            "byteOffset": 720,
            "byteStride": 12,
            "componentType": 5126,
            "count": 28,
            "max": [
                -11.0053,
                10,
                67.2154
            ],
            "min": [
                -19.8552,
                0,
                57.5614
            ],
            "type": "VEC3"
        },
        "accessor_40": {
            "bufferView": "bufferView_123",
            "byteOffset": 1056,
            "byteStride": 12,
            "componentType": 5126,
            "count": 28,
            "max": [
                0.999932,
                1,
                0.999936
            ],
            "min": [
                -0.999932,
                -1,
                -0.999919
            ],
            "type": "VEC3"
        },
        "accessor_56": {
            "bufferView": "bufferView_122",
            "byteOffset": 144,
            "byteStride": 0,
            "componentType": 5123,
            "count": 36,
            "type": "SCALAR"
        },
        "accessor_58": {
            "bufferView": "bufferView_123",
            "byteOffset": 1392,
            "byteStride": 12,
            "componentType": 5126,
            "count": 28,
            "max": [
                -41.1283,
                10,
                67.9447
            ],
            "min": [
                -51.9152,
                0,
                26.7699
            ],
            "type": "VEC3"
        },
        "accessor_60": {
            "bufferView": "bufferView_123",
            "byteOffset": 1728,
            "byteStride": 12,
            "componentType": 5126,
            "count": 28,
            "max": [
                0.999932,
                1,
                0.999928
            ],
            "min": [
                -0.999932,
                -1,
                -0.999942
            ],
            "type": "VEC3"
        },
        "accessor_76": {
            "bufferView": "bufferView_122",
            "byteOffset": 216,
            "byteStride": 0,
            "componentType": 5123,
            "count": 36,
            "type": "SCALAR"
        },
        "accessor_78": {
            "bufferView": "bufferView_123",
            "byteOffset": 2064,
            "byteStride": 12,
            "componentType": 5126,
            "count": 30,
            "max": [
                -11.0609,
                10,
                39.6996
            ],
            "min": [
                -21.5917,
                0,
                28.3522
            ],
            "type": "VEC3"
        },
        "accessor_80": {
            "bufferView": "bufferView_123",
            "byteOffset": 2424,
            "byteStride": 12,
            "componentType": 5126,
            "count": 30,
            "max": [
                0.999941,
                1,
                0.99993
            ],
            "min": [
                -0.999929,
                -1,
                -0.999929
            ],
            "type": "VEC3"
        },
        "accessor_96": {
            "bufferView": "bufferView_122",
            "byteOffset": 288,
            "byteStride": 0,
            "componentType": 5123,
            "count": 36,
            "type": "SCALAR"
        },
        "accessor_98": {
            "bufferView": "bufferView_123",
            "byteOffset": 2784,
            "byteStride": 12,
            "componentType": 5126,
            "count": 32,
            "max": [
                16.4461,
                10,
                71.789
            ],
            "min": [
                -3.42442,
                0,
                25.5215
            ],
            "type": "VEC3"
        }
    },
    "animations": {},
    "asset": {
        "generator": "collada2gltf@cf6371beb0bdc18ba603378d5e40c966da53d385",
        "premultipliedAlpha": true,
        "profile": {
            "api": "WebGL",
            "version": "1.0.2"
        },
        "version": "1.0"
    },
    "bufferViews": {
        "bufferView_122": {
            "buffer": "\\data\\3dcity\\miami\\workspace\\gridID_70\\gridID_70",
            "byteLength": 528,
            "byteOffset": 0,
            "target": 34963
        },
        "bufferView_123": {
            "buffer": "\\data\\3dcity\\miami\\workspace\\gridID_70\\gridID_70",
            "byteLength": 4896,
            "byteOffset": 528,
            "target": 34962
        }
    },
    "buffers": {
        "\\data\\3dcity\\miami\\workspace\\gridID_70\\gridID_70": {
            "byteLength": 5424,
            "type": "arraybuffer",
            "uri": "data:application/octet-stream;base64,"
        }
    },
    "materials": {
        "CityEngineMaterial_614-effect": {
            "name": "CityEngineMaterial_614",
            "technique": "technique0",
            "values": {
                "ambient": [
                    1,
                    1,
                    1,
                    1
                ],
                "diffuse": [
                    1,
                    1,
                    1,
                    1
                ],
                "emission": [
                    0,
                    0,
                    0,
                    1
                ],
                "shininess": 50,
                "specular": [
                    0.5,
                    0.5,
                    0.5,
                    1
                ]
            }
        },
        "CityEngineMaterial_615-effect": {
            "name": "CityEngineMaterial_615",
            "technique": "technique0",
            "values": {
                "ambient": [
                    1,
                    1,
                    1,
                    1
                ],
                "diffuse": [
                    1,
                    1,
                    1,
                    1
                ],
                "emission": [
                    0,
                    0,
                    0,
                    1
                ],
                "shininess": 50,
                "specular": [
                    0.5,
                    0.5,
                    0.5,
                    1
                ]
            }
        },
        "CityEngineMaterial_616-effect": {
            "name": "CityEngineMaterial_616",
            "technique": "technique0",
            "values": {
                "ambient": [
                    1,
                    1,
                    1,
                    1
                ],
                "diffuse": [
                    1,
                    1,
                    1,
                    1
                ],
                "emission": [
                    0,
                    0,
                    0,
                    1
                ],
                "shininess": 50,
                "specular": [
                    0.5,
                    0.5,
                    0.5,
                    1
                ]
            }
        },
        "CityEngineMaterial_617-effect": {
            "name": "CityEngineMaterial_617",
            "technique": "technique0",
            "values": {
                "ambient": [
                    1,
                    1,
                    1,
                    1
                ],
                "diffuse": [
                    1,
                    1,
                    1,
                    1
                ],
                "emission": [
                    0,
                    0,
                    0,
                    1
                ],
                "shininess": 50,
                "specular": [
                    0.5,
                    0.5,
                    0.5,
                    1
                ]
            }
        },
        "CityEngineMaterial_618-effect": {
            "name": "CityEngineMaterial_618",
            "technique": "technique0",
            "values": {
                "ambient": [
                    1,
                    1,
                    1,
                    1
                ],
                "diffuse": [
                    1,
                    1,
                    1,
                    1
                ],
                "emission": [
                    0,
                    0,
                    0,
                    1
                ],
                "shininess": 50,
                "specular": [
                    0.5,
                    0.5,
                    0.5,
                    1
                ]
            }
        },
        "CityEngineMaterial_619-effect": {
            "name": "CityEngineMaterial_619",
            "technique": "technique0",
            "values": {
                "ambient": [
                    1,
                    1,
                    1,
                    1
                ],
                "diffuse": [
                    1,
                    1,
                    1,
                    1
                ],
                "emission": [
                    0,
                    0,
                    0,
                    1
                ],
                "shininess": 50,
                "specular": [
                    0.5,
                    0.5,
                    0.5,
                    1
                ]
            }
        }
    },
    "meshes": {
        "mesh_CityEngineMaterial_612-mesh": {
            "name": "mesh_CityEngineMaterial.612",
            "primitives": [
                {
                    "attributes": {
                        "NORMAL": "accessor_20",
                        "POSITION": "accessor_18"
                    },
                    "indices": "accessor_16",
                    "material": "CityEngineMaterial_614-effect",
                    "mode": 4
                }
            ]
        },
        "mesh_CityEngineMaterial_613-mesh": {
            "name": "mesh_CityEngineMaterial.613",
            "primitives": [
                {
                    "attributes": {
                        "NORMAL": "accessor_40",
                        "POSITION": "accessor_38"
                    },
                    "indices": "accessor_36",
                    "material": "CityEngineMaterial_615-effect",
                    "mode": 4
                }
            ]
        },
        "mesh_CityEngineMaterial_614-mesh": {
            "name": "mesh_CityEngineMaterial.614",
            "primitives": [
                {
                    "attributes": {
                        "NORMAL": "accessor_60",
                        "POSITION": "accessor_58"
                    },
                    "indices": "accessor_56",
                    "material": "CityEngineMaterial_616-effect",
                    "mode": 4
                }
            ]
        },
        "mesh_CityEngineMaterial_615-mesh": {
            "name": "mesh_CityEngineMaterial.615",
            "primitives": [
                {
                    "attributes": {
                        "NORMAL": "accessor_80",
                        "POSITION": "accessor_78"
                    },
                    "indices": "accessor_76",
                    "material": "CityEngineMaterial_617-effect",
                    "mode": 4
                }
            ]
        },
        "mesh_CityEngineMaterial_616-mesh": {
            "name": "mesh_CityEngineMaterial.616",
            "primitives": [
                {
                    "attributes": {
                        "NORMAL": "accessor_100",
                        "POSITION": "accessor_98"
                    },
                    "indices": "accessor_96",
                    "material": "CityEngineMaterial_618-effect",
                    "mode": 4
                }
            ]
        },
        "mesh_CityEngineMaterial_617-mesh": {
            "name": "mesh_CityEngineMaterial.617",
            "primitives": [
                {
                    "attributes": {
                        "NORMAL": "accessor_120",
                        "POSITION": "accessor_118"
                    },
                    "indices": "accessor_116",
                    "material": "CityEngineMaterial_619-effect",
                    "mode": 4
                }
            ]
        }
    },
    "nodes": {
        "CityEngineMaterial": {
            "children": [],
            "matrix": [
                1,
                0,
                0,
                0,
                0,
                -1.62921e-007,
                1,
                0,
                0,
                -1,
                -1.62921e-007,
                0,
                0,
                0,
                0,
                1
            ],
            "meshes": [
                "mesh_CityEngineMaterial_612-mesh"
            ],
            "name": "CityEngineMaterial"
        },
        "CityEngineMaterial_001": {
            "children": [],
            "matrix": [
                1,
                0,
                0,
                0,
                0,
                -1.62921e-007,
                1,
                0,
                0,
                -1,
                -1.62921e-007,
                0,
                0,
                0,
                0,
                1
            ],
            "meshes": [
                "mesh_CityEngineMaterial_613-mesh"
            ],
            "name": "CityEngineMaterial_001"
        },
        "CityEngineMaterial_002": {
            "children": [],
            "matrix": [
                1,
                0,
                0,
                0,
                0,
                -1.62921e-007,
                1,
                0,
                0,
                -1,
                -1.62921e-007,
                0,
                0,
                0,
                0,
                1
            ],
            "meshes": [
                "mesh_CityEngineMaterial_614-mesh"
            ],
            "name": "CityEngineMaterial_002"
        },
        "CityEngineMaterial_003": {
            "children": [],
            "matrix": [
                1,
                0,
                0,
                0,
                0,
                -1.62921e-007,
                1,
                0,
                0,
                -1,
                -1.62921e-007,
                0,
                0,
                0,
                0,
                1
            ],
            "meshes": [
                "mesh_CityEngineMaterial_615-mesh"
            ],
            "name": "CityEngineMaterial_003"
        },
        "CityEngineMaterial_004": {
            "children": [],
            "matrix": [
                1,
                0,
                0,
                0,
                0,
                -1.62921e-007,
                1,
                0,
                0,
                -1,
                -1.62921e-007,
                0,
                0,
                0,
                0,
                1
            ],
            "meshes": [
                "mesh_CityEngineMaterial_616-mesh"
            ],
            "name": "CityEngineMaterial_004"
        },
        "CityEngineMaterial_005": {
            "children": [],
            "matrix": [
                1,
                0,
                0,
                0,
                0,
                -1.62921e-007,
                1,
                0,
                0,
                -1,
                -1.62921e-007,
                0,
                0,
                0,
                0,
                1
            ],
            "meshes": [
                "mesh_CityEngineMaterial_617-mesh"
            ],
            "name": "CityEngineMaterial_005"
        },
        "node_6": {
            "children": [
                "CityEngineMaterial",
                "CityEngineMaterial_001",
                "CityEngineMaterial_002",
                "CityEngineMaterial_003",
                "CityEngineMaterial_004",
                "CityEngineMaterial_005"
            ],
            "matrix": [
                1,
                0,
                0,
                0,
                0,
                0,
                -1,
                0,
                0,
                1,
                0,
                0,
                0,
                0,
                0,
                1
            ],
            "name": "Y_UP_Transform"
        }
    },
    "programs": {
        "program_0": {
            "attributes": [
                "a_normal",
                "a_position"
            ],
            "fragmentShader": "\\data\\3dcity\\miami\\workspace\\gridID_70\\gridID_700FS",
            "vertexShader": "\\data\\3dcity\\miami\\workspace\\gridID_70\\gridID_700VS"
        }
    },
    "scene": "defaultScene",
    "scenes": {
        "defaultScene": {
            "nodes": [
                "node_6"
            ]
        }
    },
    "shaders": {
        "\\data\\3dcity\\miami\\workspace\\gridID_70\\gridID_700FS": {
            "type": 35632,
            "uri": "data:text/plain;base64,"
        },
        "\\data\\3dcity\\miami\\workspace\\gridID_70\\gridID_700VS": {
            "type": 35633,
            "uri": "data:text/plain;base64,"
        }
    },
    "skins": {},
    "techniques": {
        "technique0": {
            "attributes": {
                "a_normal": "normal",
                "a_position": "position"
            },
            "parameters": {
                "ambient": {
                    "type": 35666
                },
                "diffuse": {
                    "type": 35666
                },
                "emission": {
                    "type": 35666
                },
                "modelViewMatrix": {
                    "semantic": "MODELVIEW",
                    "type": 35676
                },
                "normal": {
                    "semantic": "NORMAL",
                    "type": 35665
                },
                "normalMatrix": {
                    "semantic": "MODELVIEWINVERSETRANSPOSE",
                    "type": 35675
                },
                "position": {
                    "semantic": "POSITION",
                    "type": 35665
                },
                "projectionMatrix": {
                    "semantic": "PROJECTION",
                    "type": 35676
                },
                "shininess": {
                    "type": 5126
                },
                "specular": {
                    "type": 35666
                }
            },
            "program": "program_0",
            "states": {
                "enable": [
                    2929,
                    2884
                ]
            },
            "uniforms": {
                "u_ambient": "ambient",
                "u_diffuse": "diffuse",
                "u_emission": "emission",
                "u_modelViewMatrix": "modelViewMatrix",
                "u_normalMatrix": "normalMatrix",
                "u_projectionMatrix": "projectionMatrix",
                "u_shininess": "shininess",
                "u_specular": "specular"
            }
        }
    }
}