{"accessors":{"accessor_101":{"bufferView":"bufferView_192","byteOffset":216,"byteStride":0,"componentType":5123,"count":18,"type":"SCALAR"},"accessor_103":{"bufferView":"bufferView_193","byteOffset":1728,"byteStride":12,"componentType":5126,"count":38,"max":[10.7088,6,7.948],"min":[-10.7092,-4,-7.948],"type":"VEC3"},"accessor_105":{"bufferView":"bufferView_193","byteOffset":2184,"byteStride":12,"componentType":5126,"count":38,"max":[0.957184,0.735351,0.957433],"min":[-0.957159,0,-0.957438],"type":"VEC3"},"accessor_133":{"bufferView":"bufferView_192","byteOffset":84,"byteStride":0,"componentType":5123,"count":24,"type":"SCALAR"},"accessor_136":{"bufferView":"bufferView_192","byteOffset":132,"byteStride":0,"componentType":5123,"count":18,"type":"SCALAR"},"accessor_138":{"bufferView":"bufferView_193","byteOffset":912,"byteStride":12,"componentType":5126,"count":34,"max":[10.3995,7,5.06475],"min":[-10.3995,-5.5,-5.06525],"type":"VEC3"},"accessor_140":{"bufferView":"bufferView_193","byteOffset":1320,"byteStride":12,"componentType":5126,"count":34,"max":[0.994779,0.630048,0.994727],"min":[-0.994778,0,-0.994722],"type":"VEC3"},"accessor_180":{"bufferView":"bufferView_192","byteOffset":336,"byteStride":0,"componentType":5123,"count":156,"type":"SCALAR"},"accessor_183":{"bufferView":"bufferView_192","byteOffset":648,"byteStride":0,"componentType":5123,"count":54,"type":"SCALAR"},"accessor_186":{"bufferView":"bufferView_192","byteOffset":756,"byteStride":0,"componentType":5123,"count":12,"type":"SCALAR"},"accessor_188":{"bufferView":"bufferView_193","byteOffset":3456,"byteStride":12,"componentType":5126,"count":212,"max":[11.1385,7.8921,14.1995],"min":[-8.41345,-12.1079,-6.77348],"type":"VEC3"},"accessor_190":{"bufferView":"bufferView_193","byteOffset":6000,"byteStride":12,"componentType":5126,"count":212,"max":[0.942949,1,0.938269],"min":[-0.938287,-1,-1],"type":"VEC3"},"accessor_28":{"bufferView":"bufferView_192","byteOffset":252,"byteStride":0,"componentType":5123,"count":24,"type":"SCALAR"},"accessor_31":{"bufferView":"bufferView_192","byteOffset":300,"byteStride":0,"componentType":5123,"count":18,"type":"SCALAR"},"accessor_33":{"bufferView":"bufferView_193","byteOffset":2640,"byteStride":12,"componentType":5126,"count":34,"max":[10.4045,7,5.06525],"min":[-10.4045,-5.5,-5.06474],"type":"VEC3"},"accessor_35":{"bufferView":"bufferView_193","byteOffset":3048,"byteStride":12,"componentType":5126,"count":34,"max":[0.994652,0.630096,0.994722],"min":[-0.994653,0,-0.994727],"type":"VEC3"},"accessor_63":{"bufferView":"bufferView_192","byteOffset":0,"byteStride":0,"componentType":5123,"count":24,"type":"SCALAR"},"accessor_66":{"bufferView":"bufferView_192","byteOffset":48,"byteStride":0,"componentType":5123,"count":18,"type":"SCALAR"},"accessor_68":{"bufferView":"bufferView_193","byteOffset":0,"byteStride":12,"componentType":5126,"count":38,"max":[10.873,9,6.51822],"min":[-10.868,-8.5,-6.51778],"type":"VEC3"},"accessor_70":{"bufferView":"bufferView_193","byteOffset":456,"byteStride":12,"componentType":5126,"count":38,"max":[0.99465,0.738963,0.994721],"min":[-0.994744,0,-0.994721],"type":"VEC3"},"accessor_98":{"bufferView":"bufferView_192","byteOffset":168,"byteStride":0,"componentType":5123,"count":24,"type":"SCALAR"},"accessor_b0":{"bufferView":"bufferView_b","byteOffset":0,"byteStride":0,"componentType":5123,"count":38,"type":"SCALAR"},"accessor_b1":{"bufferView":"bufferView_b","byteOffset":76,"byteStride":0,"componentType":5123,"count":34,"type":"SCALAR"},"accessor_b2":{"bufferView":"bufferView_b","byteOffset":144,"byteStride":0,"componentType":5123,"count":38,"type":"SCALAR"},"accessor_b3":{"bufferView":"bufferView_b","byteOffset":220,"byteStride":0,"componentType":5123,"count":34,"type":"SCALAR"},"accessor_b4":{"bufferView":"bufferView_b","byteOffset":288,"byteStride":0,"componentType":5123,"count":212,"type":"SCALAR"}},"animations":{},"asset":{"generator":"collada2gltf@cf6371beb0bdc18ba603378d5e40c966da53d385","premultipliedAlpha":true,"profile":{"api":"WebGL","version":"1.0.2"},"version":"1.0"},"bufferViews":{"bufferView_192":{"buffer":"\\data\\ECNU\\workspace\\gridID_54\\gridID_54","byteLength":780,"byteOffset":0,"target":34963},"bufferView_193":{"buffer":"\\data\\ECNU\\workspace\\gridID_54\\gridID_54","byteLength":8544,"byteOffset":780,"target":34962},"bufferView_b":{"buffer":"buffer_b","byteLength":712,"byteOffset":0,"target":34962}},"buffers":{"\\data\\ECNU\\workspace\\gridID_54\\gridID_54":{"byteLength":9324,"type":"arraybuffer","uri":"data:application/octet-stream;base64,"},"buffer_b":{"type":"arraybuffer","byteLength":712,"uri":"data:application/octet-stream;base64,"}},"materials":{"BUILDING_DEFAULT_0-effect":{"name":"BUILDING_DEFAULT_0","technique":"technique0","values":{"ambient":[0,0,0,1],"diffuse":[0.723055,0.708376,0.672443,1],"emission":[0,0,0,1],"shininess":50,"specular":[0.5,0.5,0.5,1]}},"CONCRETE_0-effect":{"name":"CONCRETE_0","technique":"technique0","values":{"ambient":[0,0,0,1],"diffuse":[0.309469,0.327778,0.309469,1],"emission":[0,0,0,1],"shininess":50,"specular":[0.5,0.5,0.5,1]}},"ROOF_DEFAULT_0-effect":{"name":"ROOF_DEFAULT_0","technique":"technique0","values":{"ambient":[0,0,0,1],"diffuse":[0.603827,0.381326,0.291771,1],"emission":[0,0,0,1],"shininess":50,"specular":[0.5,0.5,0.5,1]}}},"meshes":{"Building3422-mesh":{"name":"Building3422","primitives":[{"attributes":{"NORMAL":"accessor_70","POSITION":"accessor_68","BATCHID":"accessor_b0"},"indices":"accessor_63","material":"BUILDING_DEFAULT_0-effect","mode":4},{"attributes":{"NORMAL":"accessor_70","POSITION":"accessor_68","BATCHID":"accessor_b0"},"indices":"accessor_66","material":"ROOF_DEFAULT_0-effect","mode":4}]},"Building3429-mesh":{"name":"Building3429","primitives":[{"attributes":{"NORMAL":"accessor_140","POSITION":"accessor_138","BATCHID":"accessor_b1"},"indices":"accessor_133","material":"BUILDING_DEFAULT_0-effect","mode":4},{"attributes":{"NORMAL":"accessor_140","POSITION":"accessor_138","BATCHID":"accessor_b1"},"indices":"accessor_136","material":"ROOF_DEFAULT_0-effect","mode":4}]},"Building3436-mesh":{"name":"Building3436","primitives":[{"attributes":{"NORMAL":"accessor_105","POSITION":"accessor_103","BATCHID":"accessor_b2"},"indices":"accessor_98","material":"BUILDING_DEFAULT_0-effect","mode":4},{"attributes":{"NORMAL":"accessor_105","POSITION":"accessor_103","BATCHID":"accessor_b2"},"indices":"accessor_101","material":"ROOF_DEFAULT_0-effect","mode":4}]},"Building3458-mesh":{"name":"Building3458","primitives":[{"attributes":{"NORMAL":"accessor_35","POSITION":"accessor_33","BATCHID":"accessor_b3"},"indices":"accessor_28","material":"BUILDING_DEFAULT_0-effect","mode":4},{"attributes":{"NORMAL":"accessor_35","POSITION":"accessor_33","BATCHID":"accessor_b3"},"indices":"accessor_31","material":"ROOF_DEFAULT_0-effect","mode":4}]},"Building3724-mesh":{"name":"Building3724","primitives":[{"attributes":{"NORMAL":"accessor_190","POSITION":"accessor_188","BATCHID":"accessor_b4"},"indices":"accessor_180","material":"BUILDING_DEFAULT_0-effect","mode":4},{"attributes":{"NORMAL":"accessor_190","POSITION":"accessor_188","BATCHID":"accessor_b4"},"indices":"accessor_183","material":"ROOF_DEFAULT_0-effect","mode":4},{"attributes":{"NORMAL":"accessor_190","POSITION":"accessor_188","BATCHID":"accessor_b4"},"indices":"accessor_186","material":"CONCRETE_0-effect","mode":4}]}},"nodes":{"model_gridID_54_w376378556":{"children":[],"matrix":[1,0,0,0,0,-1.62921e-7,1,0,0,-1,-1.62921e-7,0,266.409,-103.204,5.49998,1],"meshes":["Building3458-mesh"],"name":"model_gridID_54_w376378556"},"model_gridID_54_w376378562":{"children":[],"matrix":[1,0,0,0,0,-1.62921e-7,1,0,0,-1,-1.62921e-7,0,256.935,-53.2718,8.49999,1],"meshes":["Building3422-mesh"],"name":"model_gridID_54_w376378562"},"model_gridID_54_w376378582":{"children":[],"matrix":[1,0,0,0,0,-1.62921e-7,1,0,0,-1,-1.62921e-7,0,251.159,-17.956,4,1],"meshes":["Building3436-mesh"],"name":"model_gridID_54_w376378582"},"model_gridID_54_w376378587":{"children":[],"matrix":[1,0,0,0,0,-1.62921e-7,1,0,0,-1,-1.62921e-7,0,263.129,-79.1922,5.49999,1],"meshes":["Building3429-mesh"],"name":"model_gridID_54_w376378587"},"model_gridID_54_w399620549_001":{"children":[],"matrix":[1,0,0,0,0,-1.62921e-7,1,0,0,-1,-1.62921e-7,0,332.069,-27.5565,12.1079,1],"meshes":["Building3724-mesh"],"name":"model_gridID_54_w399620549_001"},"node_5":{"children":["model_gridID_54_w376378556","model_gridID_54_w376378562","model_gridID_54_w376378582","model_gridID_54_w376378587","model_gridID_54_w399620549_001"],"matrix":[1,0,0,0,0,0,-1,0,0,1,0,0,0,0,0,1],"name":"Y_UP_Transform"}},"programs":{"program_0":{"attributes":["a_normal","a_position","a_batchId"],"fragmentShader":"\\data\\ECNU\\workspace\\gridID_54\\gridID_540FS","vertexShader":"\\data\\ECNU\\workspace\\gridID_54\\gridID_540VS"}},"scene":"defaultScene","scenes":{"defaultScene":{"nodes":["node_5"]}},"shaders":{"\\data\\ECNU\\workspace\\gridID_54\\gridID_540FS":{"type":35632,"uri":"data:text/plain;base64,"},"\\data\\ECNU\\workspace\\gridID_54\\gridID_540VS":{"type":35633,"uri":"data:text/plain;base64,"}},"skins":{},"techniques":{"technique0":{"attributes":{"a_normal":"normal","a_position":"position","a_batchId":"batchId"},"parameters":{"ambient":{"type":35666},"diffuse":{"type":35666},"emission":{"type":35666},"modelViewMatrix":{"semantic":"MODELVIEW","type":35676},"normal":{"semantic":"NORMAL","type":35665},"normalMatrix":{"semantic":"MODELVIEWINVERSETRANSPOSE","type":35675},"position":{"semantic":"POSITION","type":35665},"projectionMatrix":{"semantic":"PROJECTION","type":35676},"shininess":{"type":5126},"specular":{"type":35666},"batchId":{"semantic":"BATCHID","type":5126}},"program":"program_0","states":{"enable":[2929,2884]},"uniforms":{"u_ambient":"ambient","u_diffuse":"diffuse","u_emission":"emission","u_modelViewMatrix":"modelViewMatrix","u_normalMatrix":"normalMatrix","u_projectionMatrix":"projectionMatrix","u_shininess":"shininess","u_specular":"specular"}}}}