{
    "accessors": {
        "accessor_100": {
            "bufferView": "bufferView_103",
            "byteOffset": 336,
            "byteStride": 12,
            "componentType": 5126,
            "count": 28,
            "max": [
                0.968271,
                1,
                0.968231
            ],
            "min": [
                -0.968271,
                0,
                -0.968231
            ],
            "type": "VEC3"
        },
        "accessor_52": {
            "bufferView": "bufferView_102",
            "byteOffset": 60,
            "byteStride": 0,
            "componentType": 5123,
            "count": 174,
            "type": "SCALAR"
        },
        "accessor_55": {
            "bufferView": "bufferView_102",
            "byteOffset": 408,
            "byteStride": 0,
            "componentType": 5123,
            "count": 1008,
            "type": "SCALAR"
        },
        "accessor_58": {
            "bufferView": "bufferView_102",
            "byteOffset": 2424,
            "byteStride": 0,
            "componentType": 5123,
            "count": 66,
            "type": "SCALAR"
        },
        "accessor_61": {
            "bufferView": "bufferView_102",
            "byteOffset": 2556,
            "byteStride": 0,
            "componentType": 5123,
            "count": 312,
            "type": "SCALAR"
        },
        "accessor_63": {
            "bufferView": "bufferView_103",
            "byteOffset": 672,
            "byteStride": 12,
            "componentType": 5126,
            "count": 1197,
            "max": [
                41.9028,
                25.0546,
                51.8187
            ],
            "min": [
                -56.3332,
                -29.9169,
                -50.0393
            ],
            "type": "VEC3"
        },
        "accessor_65": {
            "bufferView": "bufferView_103",
            "byteOffset": 15036,
            "byteStride": 12,
            "componentType": 5126,
            "count": 1197,
            "max": [
                0.966392,
                1,
                1
            ],
            "min": [
                -0.968375,
                -1,
                -0.967597
            ],
            "type": "VEC3"
        },
        "accessor_93": {
            "bufferView": "bufferView_102",
            "byteOffset": 0,
            "byteStride": 0,
            "componentType": 5123,
            "count": 24,
            "type": "SCALAR"
        },
        "accessor_96": {
            "bufferView": "bufferView_102",
            "byteOffset": 48,
            "byteStride": 0,
            "componentType": 5123,
            "count": 6,
            "type": "SCALAR"
        },
        "accessor_98": {
            "bufferView": "bufferView_103",
            "byteOffset": 0,
            "byteStride": 12,
            "componentType": 5126,
            "count": 28,
            "max": [
                7.61047,
                3.75,
                4.70299
            ],
            "min": [
                -7.6105,
                -3.75,
                -4.703
            ],
            "type": "VEC3"
        }
    },
    "animations": {},
    "asset": {
        "generator": "collada2gltf@cf6371beb0bdc18ba603378d5e40c966da53d385",
        "premultipliedAlpha": true,
        "profile": {
            "api": "WebGL",
            "version": "1.0.2"
        },
        "version": "1.0"
    },
    "bufferViews": {
        "bufferView_102": {
            "buffer": "\\data\\ECNU\\workspace\\gridID_69\\gridID_69",
            "byteLength": 3180,
            "byteOffset": 0,
            "target": 34963
        },
        "bufferView_103": {
            "buffer": "\\data\\ECNU\\workspace\\gridID_69\\gridID_69",
            "byteLength": 29400,
            "byteOffset": 3180,
            "target": 34962
        }
    },
    "buffers": {
        "\\data\\ECNU\\workspace\\gridID_69\\gridID_69": {
            "byteLength": 32580,
            "type": "arraybuffer",
            "uri": "data:application/octet-stream;base64,"
        }
    },
    "materials": {
        "BUILDING_DEFAULT_0-effect": {
            "name": "BUILDING_DEFAULT_0",
            "technique": "technique0",
            "values": {
                "ambient": [
                    0,
                    0,
                    0,
                    1
                ],
                "diffuse": [
                    0.723055,
                    0.708376,
                    0.672443,
                    1
                ],
                "emission": [
                    0,
                    0,
                    0,
                    1
                ],
                "shininess": 50,
                "specular": [
                    0.5,
                    0.5,
                    0.5,
                    1
                ]
            }
        },
        "CONCRETE_0-effect": {
            "name": "CONCRETE_0",
            "technique": "technique0",
            "values": {
                "ambient": [
                    0,
                    0,
                    0,
                    1
                ],
                "diffuse": [
                    0.309469,
                    0.327778,
                    0.309469,
                    1
                ],
                "emission": [
                    0,
                    0,
                    0,
                    1
                ],
                "shininess": 50,
                "specular": [
                    0.5,
                    0.5,
                    0.5,
                    1
                ]
            }
        },
        "GLASS_0-effect": {
            "name": "GLASS_0",
            "technique": "technique0",
            "values": {
                "ambient": [
                    0,
                    0,
                    0,
                    1
                ],
                "diffuse": [
                    0.491021,
                    0.665387,
                    0.658375,
                    1
                ],
                "emission": [
                    0,
                    0,
                    0,
                    1
                ],
                "shininess": 50,
                "specular": [
                    0.5,
                    0.5,
                    0.5,
                    1
                ]
            }
        },
        "ROOF_DEFAULT_0-effect": {
            "name": "ROOF_DEFAULT_0",
            "technique": "technique0",
            "values": {
                "ambient": [
                    0,
                    0,
                    0,
                    1
                ],
                "diffuse": [
                    0.603827,
                    0.381326,
                    0.291771,
                    1
                ],
                "emission": [
                    0,
                    0,
                    0,
                    1
                ],
                "shininess": 50,
                "specular": [
                    0.5,
                    0.5,
                    0.5,
                    1
                ]
            }
        }
    },
    "meshes": {
        "Building4106-mesh": {
            "name": "Building4106",
            "primitives": [
                {
                    "attributes": {
                        "NORMAL": "accessor_100",
                        "POSITION": "accessor_98"
                    },
                    "indices": "accessor_93",
                    "material": "BUILDING_DEFAULT_0-effect",
                    "mode": 4
                },
                {
                    "attributes": {
                        "NORMAL": "accessor_100",
                        "POSITION": "accessor_98"
                    },
                    "indices": "accessor_96",
                    "material": "ROOF_DEFAULT_0-effect",
                    "mode": 4
                }
            ]
        },
        "Building_-mesh": {
            "name": "Building ",
            "primitives": [
                {
                    "attributes": {
                        "NORMAL": "accessor_65",
                        "POSITION": "accessor_63"
                    },
                    "indices": "accessor_52",
                    "material": "GLASS_0-effect",
                    "mode": 4
                },
                {
                    "attributes": {
                        "NORMAL": "accessor_65",
                        "POSITION": "accessor_63"
                    },
                    "indices": "accessor_55",
                    "material": "BUILDING_DEFAULT_0-effect",
                    "mode": 4
                },
                {
                    "attributes": {
                        "NORMAL": "accessor_65",
                        "POSITION": "accessor_63"
                    },
                    "indices": "accessor_58",
                    "material": "ROOF_DEFAULT_0-effect",
                    "mode": 4
                },
                {
                    "attributes": {
                        "NORMAL": "accessor_65",
                        "POSITION": "accessor_63"
                    },
                    "indices": "accessor_61",
                    "material": "CONCRETE_0-effect",
                    "mode": 4
                }
            ]
        }
    },
    "nodes": {
        "model_gridID_69_w116940017": {
            "children": [],
            "matrix": [
                1,
                0,
                0,
                0,
                0,
                -1.62921e-007,
                1,
                0,
                0,
                -1,
                -1.62921e-007,
                0,
                -409.699,
                122.819,
                29.9169,
                1
            ],
            "meshes": [
                "Building_-mesh"
            ],
            "name": "model_gridID_69_w116940017"
        },
        "model_gridID_69_w375221623": {
            "children": [],
            "matrix": [
                1,
                0,
                0,
                0,
                0,
                -1.62921e-007,
                1,
                0,
                0,
                -1,
                -1.62921e-007,
                0,
                -333.465,
                134.525,
                3.75002,
                1
            ],
            "meshes": [
                "Building4106-mesh"
            ],
            "name": "model_gridID_69_w375221623"
        },
        "node_2": {
            "children": [
                "model_gridID_69_w116940017",
                "model_gridID_69_w375221623"
            ],
            "matrix": [
                1,
                0,
                0,
                0,
                0,
                0,
                -1,
                0,
                0,
                1,
                0,
                0,
                0,
                0,
                0,
                1
            ],
            "name": "Y_UP_Transform"
        }
    },
    "programs": {
        "program_0": {
            "attributes": [
                "a_normal",
                "a_position"
            ],
            "fragmentShader": "\\data\\ECNU\\workspace\\gridID_69\\gridID_690FS",
            "vertexShader": "\\data\\ECNU\\workspace\\gridID_69\\gridID_690VS"
        }
    },
    "scene": "defaultScene",
    "scenes": {
        "defaultScene": {
            "nodes": [
                "node_2"
            ]
        }
    },
    "shaders": {
        "\\data\\ECNU\\workspace\\gridID_69\\gridID_690FS": {
            "type": 35632,
            "uri": "data:text/plain;base64,"
        },
        "\\data\\ECNU\\workspace\\gridID_69\\gridID_690VS": {
            "type": 35633,
            "uri": "data:text/plain;base64,"
        }
    },
    "skins": {},
    "techniques": {
        "technique0": {
            "attributes": {
                "a_normal": "normal",
                "a_position": "position"
            },
            "parameters": {
                "ambient": {
                    "type": 35666
                },
                "diffuse": {
                    "type": 35666
                },
                "emission": {
                    "type": 35666
                },
                "modelViewMatrix": {
                    "semantic": "MODELVIEW",
                    "type": 35676
                },
                "normal": {
                    "semantic": "NORMAL",
                    "type": 35665
                },
                "normalMatrix": {
                    "semantic": "MODELVIEWINVERSETRANSPOSE",
                    "type": 35675
                },
                "position": {
                    "semantic": "POSITION",
                    "type": 35665
                },
                "projectionMatrix": {
                    "semantic": "PROJECTION",
                    "type": 35676
                },
                "shininess": {
                    "type": 5126
                },
                "specular": {
                    "type": 35666
                }
            },
            "program": "program_0",
            "states": {
                "enable": [
                    2929,
                    2884
                ]
            },
            "uniforms": {
                "u_ambient": "ambient",
                "u_diffuse": "diffuse",
                "u_emission": "emission",
                "u_modelViewMatrix": "modelViewMatrix",
                "u_normalMatrix": "normalMatrix",
                "u_projectionMatrix": "projectionMatrix",
                "u_shininess": "shininess",
                "u_specular": "specular"
            }
        }
    }
}