{"accessors":{"accessor_16":{"bufferView":"bufferView_62","byteOffset":0,"byteStride":0,"componentType":5123,"count":180,"type":"SCALAR"},"accessor_18":{"bufferView":"bufferView_63","byteOffset":0,"byteStride":12,"componentType":5126,"count":114,"max":[78.7981,14,56.1886],"min":[62.1781,0,17.8719],"type":"VEC3"},"accessor_20":{"bufferView":"bufferView_63","byteOffset":1368,"byteStride":12,"componentType":5126,"count":114,"max":[0.999984,1,1],"min":[-0.999977,-1,-0.999976],"type":"VEC3"},"accessor_36":{"bufferView":"bufferView_62","byteOffset":360,"byteStride":0,"componentType":5123,"count":36,"type":"SCALAR"},"accessor_38":{"bufferView":"bufferView_63","byteOffset":2736,"byteStride":12,"componentType":5126,"count":28,"max":[55.2651,12,41.69],"min":[39.7027,0,17.8225],"type":"VEC3"},"accessor_40":{"bufferView":"bufferView_63","byteOffset":3072,"byteStride":12,"componentType":5126,"count":28,"max":[0.999473,1,0.890976],"min":[-0.999894,-1,-0.999899],"type":"VEC3"},"accessor_56":{"bufferView":"bufferView_62","byteOffset":432,"byteStride":0,"componentType":5123,"count":132,"type":"SCALAR"},"accessor_58":{"bufferView":"bufferView_63","byteOffset":3408,"byteStride":12,"componentType":5126,"count":88,"max":[-41.8945,10,-66.4375],"min":[-65.4163,0,-96.4731],"type":"VEC3"},"accessor_60":{"bufferView":"bufferView_63","byteOffset":4464,"byteStride":12,"componentType":5126,"count":88,"max":[0.999606,1,0.995308],"min":[-0.999817,-1,-0.999997],"type":"VEC3"},"accessor_b0":{"bufferView":"bufferView_b","byteOffset":0,"byteStride":0,"componentType":5123,"count":114,"type":"SCALAR"},"accessor_b1":{"bufferView":"bufferView_b","byteOffset":228,"byteStride":0,"componentType":5123,"count":28,"type":"SCALAR"},"accessor_b2":{"bufferView":"bufferView_b","byteOffset":284,"byteStride":0,"componentType":5123,"count":88,"type":"SCALAR"}},"animations":{},"asset":{"generator":"collada2gltf@cf6371beb0bdc18ba603378d5e40c966da53d385","premultipliedAlpha":true,"profile":{"api":"WebGL","version":"1.0.2"},"version":"1.0"},"bufferViews":{"bufferView_62":{"buffer":"\\data\\3dcity\\miami\\workspace\\gridID_18\\gridID_18","byteLength":696,"byteOffset":0,"target":34963},"bufferView_63":{"buffer":"\\data\\3dcity\\miami\\workspace\\gridID_18\\gridID_18","byteLength":5520,"byteOffset":696,"target":34962},"bufferView_b":{"buffer":"buffer_b","byteLength":460,"byteOffset":0,"target":34962}},"buffers":{"\\data\\3dcity\\miami\\workspace\\gridID_18\\gridID_18":{"byteLength":6216,"type":"arraybuffer","uri":"data:application/octet-stream;base64,"},"buffer_b":{"type":"arraybuffer","byteLength":460,"uri":"data:application/octet-stream;base64,"}},"materials":{"CityEngineMaterial_338-effect":{"name":"CityEngineMaterial_338","technique":"technique0","values":{"ambient":[1,1,1,1],"diffuse":[1,1,1,1],"emission":[0,0,0,1],"shininess":50,"specular":[0.5,0.5,0.5,1]}},"CityEngineMaterial_339-effect":{"name":"CityEngineMaterial_339","technique":"technique0","values":{"ambient":[1,1,1,1],"diffuse":[1,1,1,1],"emission":[0,0,0,1],"shininess":50,"specular":[0.5,0.5,0.5,1]}},"CityEngineMaterial_340-effect":{"name":"CityEngineMaterial_340","technique":"technique0","values":{"ambient":[1,1,1,1],"diffuse":[1,1,1,1],"emission":[0,0,0,1],"shininess":50,"specular":[0.5,0.5,0.5,1]}}},"meshes":{"mesh_CityEngineMaterial_337-mesh":{"name":"mesh_CityEngineMaterial.337","primitives":[{"attributes":{"NORMAL":"accessor_20","POSITION":"accessor_18","BATCHID":"accessor_b0"},"indices":"accessor_16","material":"CityEngineMaterial_338-effect","mode":4}]},"mesh_CityEngineMaterial_338-mesh":{"name":"mesh_CityEngineMaterial.338","primitives":[{"attributes":{"NORMAL":"accessor_40","POSITION":"accessor_38","BATCHID":"accessor_b1"},"indices":"accessor_36","material":"CityEngineMaterial_339-effect","mode":4}]},"mesh_CityEngineMaterial_339-mesh":{"name":"mesh_CityEngineMaterial.339","primitives":[{"attributes":{"NORMAL":"accessor_60","POSITION":"accessor_58","BATCHID":"accessor_b2"},"indices":"accessor_56","material":"CityEngineMaterial_340-effect","mode":4}]}},"nodes":{"CityEngineMaterial":{"children":[],"matrix":[1,0,0,0,0,-1.62921e-7,1,0,0,-1,-1.62921e-7,0,0,0,0,1],"meshes":["mesh_CityEngineMaterial_337-mesh"],"name":"CityEngineMaterial"},"CityEngineMaterial_001":{"children":[],"matrix":[1,0,0,0,0,-1.62921e-7,1,0,0,-1,-1.62921e-7,0,0,0,0,1],"meshes":["mesh_CityEngineMaterial_338-mesh"],"name":"CityEngineMaterial_001"},"CityEngineMaterial_002":{"children":[],"matrix":[1,0,0,0,0,-1.62921e-7,1,0,0,-1,-1.62921e-7,0,0,0,0,1],"meshes":["mesh_CityEngineMaterial_339-mesh"],"name":"CityEngineMaterial_002"},"node_3":{"children":["CityEngineMaterial","CityEngineMaterial_001","CityEngineMaterial_002"],"matrix":[1,0,0,0,0,0,-1,0,0,1,0,0,0,0,0,1],"name":"Y_UP_Transform"}},"programs":{"program_0":{"attributes":["a_normal","a_position","a_batchId"],"fragmentShader":"\\data\\3dcity\\miami\\workspace\\gridID_18\\gridID_180FS","vertexShader":"\\data\\3dcity\\miami\\workspace\\gridID_18\\gridID_180VS"}},"scene":"defaultScene","scenes":{"defaultScene":{"nodes":["node_3"]}},"shaders":{"\\data\\3dcity\\miami\\workspace\\gridID_18\\gridID_180FS":{"type":35632,"uri":"data:text/plain;base64,"},"\\data\\3dcity\\miami\\workspace\\gridID_18\\gridID_180VS":{"type":35633,"uri":"data:text/plain;base64,"}},"skins":{},"techniques":{"technique0":{"attributes":{"a_normal":"normal","a_position":"position","a_batchId":"batchId"},"parameters":{"ambient":{"type":35666},"diffuse":{"type":35666},"emission":{"type":35666},"modelViewMatrix":{"semantic":"MODELVIEW","type":35676},"normal":{"semantic":"NORMAL","type":35665},"normalMatrix":{"semantic":"MODELVIEWINVERSETRANSPOSE","type":35675},"position":{"semantic":"POSITION","type":35665},"projectionMatrix":{"semantic":"PROJECTION","type":35676},"shininess":{"type":5126},"specular":{"type":35666},"batchId":{"semantic":"BATCHID","type":5126}},"program":"program_0","states":{"enable":[2929,2884]},"uniforms":{"u_ambient":"ambient","u_diffuse":"diffuse","u_emission":"emission","u_modelViewMatrix":"modelViewMatrix","u_normalMatrix":"normalMatrix","u_projectionMatrix":"projectionMatrix","u_shininess":"shininess","u_specular":"specular"}}}}