{"accessors":{"accessor_100":{"bufferView":"bufferView_243","byteOffset":3312,"byteStride":12,"componentType":5126,"count":32,"max":[0.999378,1,0.999378],"min":[-0.999378,-1,-0.999378],"type":"VEC3"},"accessor_116":{"bufferView":"bufferView_242","byteOffset":360,"byteStride":0,"componentType":5123,"count":36,"type":"SCALAR"},"accessor_118":{"bufferView":"bufferView_243","byteOffset":3696,"byteStride":12,"componentType":5126,"count":26,"max":[-17.266,10,20.911],"min":[-29.2774,0,-3.19257],"type":"VEC3"},"accessor_120":{"bufferView":"bufferView_243","byteOffset":4008,"byteStride":12,"componentType":5126,"count":26,"max":[0.99977,1,0.999792],"min":[-0.99977,-1,-0.999792],"type":"VEC3"},"accessor_136":{"bufferView":"bufferView_242","byteOffset":432,"byteStride":0,"componentType":5123,"count":36,"type":"SCALAR"},"accessor_138":{"bufferView":"bufferView_243","byteOffset":4320,"byteStride":12,"componentType":5126,"count":28,"max":[-40.632,10,-36.641],"min":[-51.1072,0,-53.4765],"type":"VEC3"},"accessor_140":{"bufferView":"bufferView_243","byteOffset":4656,"byteStride":12,"componentType":5126,"count":28,"max":[0.999602,1,0.999631],"min":[-0.999601,-1,-0.999597],"type":"VEC3"},"accessor_156":{"bufferView":"bufferView_242","byteOffset":504,"byteStride":0,"componentType":5123,"count":36,"type":"SCALAR"},"accessor_158":{"bufferView":"bufferView_243","byteOffset":4992,"byteStride":12,"componentType":5126,"count":28,"max":[16.7309,13,80.5271],"min":[-26.1159,0,38.8218],"type":"VEC3"},"accessor_16":{"bufferView":"bufferView_242","byteOffset":0,"byteStride":0,"componentType":5123,"count":36,"type":"SCALAR"},"accessor_160":{"bufferView":"bufferView_243","byteOffset":5328,"byteStride":12,"componentType":5126,"count":28,"max":[0.999498,1,0.999485],"min":[-0.999498,-1,-0.999485],"type":"VEC3"},"accessor_176":{"bufferView":"bufferView_242","byteOffset":576,"byteStride":0,"componentType":5123,"count":108,"type":"SCALAR"},"accessor_178":{"bufferView":"bufferView_243","byteOffset":5664,"byteStride":12,"componentType":5126,"count":83,"max":[-28.0752,50,80.2799],"min":[-71.9128,0,55.7808],"type":"VEC3"},"accessor_18":{"bufferView":"bufferView_243","byteOffset":0,"byteStride":12,"componentType":5126,"count":28,"max":[-55.6601,10,-40.7942],"min":[-76.6327,0,-56.7027],"type":"VEC3"},"accessor_180":{"bufferView":"bufferView_243","byteOffset":6660,"byteStride":12,"componentType":5126,"count":83,"max":[0.999571,1,0.999515],"min":[-0.999536,-1,-0.999513],"type":"VEC3"},"accessor_196":{"bufferView":"bufferView_242","byteOffset":792,"byteStride":0,"componentType":5123,"count":132,"type":"SCALAR"},"accessor_198":{"bufferView":"bufferView_243","byteOffset":7656,"byteStride":12,"componentType":5126,"count":95,"max":[76.7989,13,-41.6471],"min":[53.522,0,-65.1451],"type":"VEC3"},"accessor_20":{"bufferView":"bufferView_243","byteOffset":336,"byteStride":12,"componentType":5126,"count":28,"max":[0.999826,1,0.999829],"min":[-0.999826,-1,-0.999829],"type":"VEC3"},"accessor_200":{"bufferView":"bufferView_243","byteOffset":8796,"byteStride":12,"componentType":5126,"count":95,"max":[0.999934,1,0.999919],"min":[-0.999936,-1,-0.999915],"type":"VEC3"},"accessor_216":{"bufferView":"bufferView_242","byteOffset":1056,"byteStride":0,"componentType":5123,"count":36,"type":"SCALAR"},"accessor_218":{"bufferView":"bufferView_243","byteOffset":9936,"byteStride":12,"componentType":5126,"count":28,"max":[80.3055,44,42.7031],"min":[58.7206,0,-11.4496],"type":"VEC3"},"accessor_220":{"bufferView":"bufferView_243","byteOffset":10272,"byteStride":12,"componentType":5126,"count":28,"max":[0.999494,1,0.999478],"min":[-0.999494,-1,-0.999478],"type":"VEC3"},"accessor_236":{"bufferView":"bufferView_242","byteOffset":1128,"byteStride":0,"componentType":5123,"count":36,"type":"SCALAR"},"accessor_238":{"bufferView":"bufferView_243","byteOffset":10608,"byteStride":12,"componentType":5126,"count":24,"max":[-42.1905,8,-61.5728],"min":[-51.8196,0,-78.2971],"type":"VEC3"},"accessor_240":{"bufferView":"bufferView_243","byteOffset":10896,"byteStride":12,"componentType":5126,"count":24,"max":[0.998892,1,0.998877],"min":[-0.998892,-1,-0.998877],"type":"VEC3"},"accessor_36":{"bufferView":"bufferView_242","byteOffset":72,"byteStride":0,"componentType":5123,"count":36,"type":"SCALAR"},"accessor_38":{"bufferView":"bufferView_243","byteOffset":672,"byteStride":12,"componentType":5126,"count":32,"max":[17.4322,10,-38.8041],"min":[-27.3293,0,-56.6038],"type":"VEC3"},"accessor_40":{"bufferView":"bufferView_243","byteOffset":1056,"byteStride":12,"componentType":5126,"count":32,"max":[0.999791,1,0.999782],"min":[-0.999791,-1,-0.999782],"type":"VEC3"},"accessor_56":{"bufferView":"bufferView_242","byteOffset":144,"byteStride":0,"componentType":5123,"count":36,"type":"SCALAR"},"accessor_58":{"bufferView":"bufferView_243","byteOffset":1440,"byteStride":12,"componentType":5126,"count":30,"max":[15.64,10,30.9974],"min":[3.19447,0,10.6021],"type":"VEC3"},"accessor_60":{"bufferView":"bufferView_243","byteOffset":1800,"byteStride":12,"componentType":5126,"count":30,"max":[0.999461,1,0.999438],"min":[-0.999462,-1,-0.999472],"type":"VEC3"},"accessor_76":{"bufferView":"bufferView_242","byteOffset":216,"byteStride":0,"componentType":5123,"count":36,"type":"SCALAR"},"accessor_78":{"bufferView":"bufferView_243","byteOffset":2160,"byteStride":12,"componentType":5126,"count":32,"max":[0.545089,10,29.3411],"min":[-12.6685,0,3.28451],"type":"VEC3"},"accessor_80":{"bufferView":"bufferView_243","byteOffset":2544,"byteStride":12,"componentType":5126,"count":32,"max":[0.998951,1,0.998936],"min":[-0.998951,-1,-0.998935],"type":"VEC3"},"accessor_96":{"bufferView":"bufferView_242","byteOffset":288,"byteStride":0,"componentType":5123,"count":36,"type":"SCALAR"},"accessor_98":{"bufferView":"bufferView_243","byteOffset":2928,"byteStride":12,"componentType":5126,"count":32,"max":[-52.7101,10,16.1274],"min":[-75.219,0,-7.03678],"type":"VEC3"},"accessor_b0":{"bufferView":"bufferView_b","byteOffset":0,"byteStride":0,"componentType":5123,"count":28,"type":"SCALAR"},"accessor_b1":{"bufferView":"bufferView_b","byteOffset":56,"byteStride":0,"componentType":5123,"count":32,"type":"SCALAR"},"accessor_b2":{"bufferView":"bufferView_b","byteOffset":120,"byteStride":0,"componentType":5123,"count":30,"type":"SCALAR"},"accessor_b3":{"bufferView":"bufferView_b","byteOffset":180,"byteStride":0,"componentType":5123,"count":32,"type":"SCALAR"},"accessor_b4":{"bufferView":"bufferView_b","byteOffset":244,"byteStride":0,"componentType":5123,"count":32,"type":"SCALAR"},"accessor_b5":{"bufferView":"bufferView_b","byteOffset":308,"byteStride":0,"componentType":5123,"count":26,"type":"SCALAR"},"accessor_b6":{"bufferView":"bufferView_b","byteOffset":360,"byteStride":0,"componentType":5123,"count":28,"type":"SCALAR"},"accessor_b7":{"bufferView":"bufferView_b","byteOffset":416,"byteStride":0,"componentType":5123,"count":28,"type":"SCALAR"},"accessor_b8":{"bufferView":"bufferView_b","byteOffset":472,"byteStride":0,"componentType":5123,"count":83,"type":"SCALAR"},"accessor_b9":{"bufferView":"bufferView_b","byteOffset":638,"byteStride":0,"componentType":5123,"count":95,"type":"SCALAR"},"accessor_b10":{"bufferView":"bufferView_b","byteOffset":828,"byteStride":0,"componentType":5123,"count":28,"type":"SCALAR"},"accessor_b11":{"bufferView":"bufferView_b","byteOffset":884,"byteStride":0,"componentType":5123,"count":24,"type":"SCALAR"}},"animations":{},"asset":{"generator":"collada2gltf@cf6371beb0bdc18ba603378d5e40c966da53d385","premultipliedAlpha":true,"profile":{"api":"WebGL","version":"1.0.2"},"version":"1.0"},"bufferViews":{"bufferView_242":{"buffer":"\\data\\3dcity\\miami\\workspace\\gridID_53\\gridID_53","byteLength":1200,"byteOffset":0,"target":34963},"bufferView_243":{"buffer":"\\data\\3dcity\\miami\\workspace\\gridID_53\\gridID_53","byteLength":11184,"byteOffset":1200,"target":34962},"bufferView_b":{"buffer":"buffer_b","byteLength":932,"byteOffset":0,"target":34962}},"buffers":{"\\data\\3dcity\\miami\\workspace\\gridID_53\\gridID_53":{"byteLength":12384,"type":"arraybuffer","uri":"data:application/octet-stream;base64,"},"buffer_b":{"type":"arraybuffer","byteLength":932,"uri":"data:application/octet-stream;base64,"}},"materials":{"CityEngineMaterial_536-effect":{"name":"CityEngineMaterial_536","technique":"technique0","values":{"ambient":[1,1,1,1],"diffuse":[1,1,1,1],"emission":[0,0,0,1],"shininess":50,"specular":[0.5,0.5,0.5,1]}},"CityEngineMaterial_537-effect":{"name":"CityEngineMaterial_537","technique":"technique0","values":{"ambient":[1,1,1,1],"diffuse":[1,1,1,1],"emission":[0,0,0,1],"shininess":50,"specular":[0.5,0.5,0.5,1]}},"CityEngineMaterial_538-effect":{"name":"CityEngineMaterial_538","technique":"technique0","values":{"ambient":[1,1,1,1],"diffuse":[1,1,1,1],"emission":[0,0,0,1],"shininess":50,"specular":[0.5,0.5,0.5,1]}},"CityEngineMaterial_539-effect":{"name":"CityEngineMaterial_539","technique":"technique0","values":{"ambient":[1,1,1,1],"diffuse":[1,1,1,1],"emission":[0,0,0,1],"shininess":50,"specular":[0.5,0.5,0.5,1]}},"CityEngineMaterial_540-effect":{"name":"CityEngineMaterial_540","technique":"technique0","values":{"ambient":[1,1,1,1],"diffuse":[1,1,1,1],"emission":[0,0,0,1],"shininess":50,"specular":[0.5,0.5,0.5,1]}},"CityEngineMaterial_541-effect":{"name":"CityEngineMaterial_541","technique":"technique0","values":{"ambient":[1,1,1,1],"diffuse":[1,1,1,1],"emission":[0,0,0,1],"shininess":50,"specular":[0.5,0.5,0.5,1]}},"CityEngineMaterial_542-effect":{"name":"CityEngineMaterial_542","technique":"technique0","values":{"ambient":[1,1,1,1],"diffuse":[1,1,1,1],"emission":[0,0,0,1],"shininess":50,"specular":[0.5,0.5,0.5,1]}},"CityEngineMaterial_543-effect":{"name":"CityEngineMaterial_543","technique":"technique0","values":{"ambient":[1,1,1,1],"diffuse":[1,1,1,1],"emission":[0,0,0,1],"shininess":50,"specular":[0.5,0.5,0.5,1]}},"CityEngineMaterial_544-effect":{"name":"CityEngineMaterial_544","technique":"technique0","values":{"ambient":[1,1,1,1],"diffuse":[1,1,1,1],"emission":[0,0,0,1],"shininess":50,"specular":[0.5,0.5,0.5,1]}},"CityEngineMaterial_545-effect":{"name":"CityEngineMaterial_545","technique":"technique0","values":{"ambient":[1,1,1,1],"diffuse":[1,1,1,1],"emission":[0,0,0,1],"shininess":50,"specular":[0.5,0.5,0.5,1]}},"CityEngineMaterial_546-effect":{"name":"CityEngineMaterial_546","technique":"technique0","values":{"ambient":[1,1,1,1],"diffuse":[1,1,1,1],"emission":[0,0,0,1],"shininess":50,"specular":[0.5,0.5,0.5,1]}},"CityEngineMaterial_547-effect":{"name":"CityEngineMaterial_547","technique":"technique0","values":{"ambient":[1,1,1,1],"diffuse":[1,1,1,1],"emission":[0,0,0,1],"shininess":50,"specular":[0.5,0.5,0.5,1]}}},"meshes":{"mesh_CityEngineMaterial_534-mesh":{"name":"mesh_CityEngineMaterial.534","primitives":[{"attributes":{"NORMAL":"accessor_20","POSITION":"accessor_18","BATCHID":"accessor_b0"},"indices":"accessor_16","material":"CityEngineMaterial_536-effect","mode":4}]},"mesh_CityEngineMaterial_535-mesh":{"name":"mesh_CityEngineMaterial.535","primitives":[{"attributes":{"NORMAL":"accessor_40","POSITION":"accessor_38","BATCHID":"accessor_b1"},"indices":"accessor_36","material":"CityEngineMaterial_537-effect","mode":4}]},"mesh_CityEngineMaterial_536-mesh":{"name":"mesh_CityEngineMaterial.536","primitives":[{"attributes":{"NORMAL":"accessor_60","POSITION":"accessor_58","BATCHID":"accessor_b2"},"indices":"accessor_56","material":"CityEngineMaterial_538-effect","mode":4}]},"mesh_CityEngineMaterial_537-mesh":{"name":"mesh_CityEngineMaterial.537","primitives":[{"attributes":{"NORMAL":"accessor_80","POSITION":"accessor_78","BATCHID":"accessor_b3"},"indices":"accessor_76","material":"CityEngineMaterial_539-effect","mode":4}]},"mesh_CityEngineMaterial_538-mesh":{"name":"mesh_CityEngineMaterial.538","primitives":[{"attributes":{"NORMAL":"accessor_100","POSITION":"accessor_98","BATCHID":"accessor_b4"},"indices":"accessor_96","material":"CityEngineMaterial_540-effect","mode":4}]},"mesh_CityEngineMaterial_539-mesh":{"name":"mesh_CityEngineMaterial.539","primitives":[{"attributes":{"NORMAL":"accessor_120","POSITION":"accessor_118","BATCHID":"accessor_b5"},"indices":"accessor_116","material":"CityEngineMaterial_541-effect","mode":4}]},"mesh_CityEngineMaterial_540-mesh":{"name":"mesh_CityEngineMaterial.540","primitives":[{"attributes":{"NORMAL":"accessor_140","POSITION":"accessor_138","BATCHID":"accessor_b6"},"indices":"accessor_136","material":"CityEngineMaterial_542-effect","mode":4}]},"mesh_CityEngineMaterial_541-mesh":{"name":"mesh_CityEngineMaterial.541","primitives":[{"attributes":{"NORMAL":"accessor_160","POSITION":"accessor_158","BATCHID":"accessor_b7"},"indices":"accessor_156","material":"CityEngineMaterial_543-effect","mode":4}]},"mesh_CityEngineMaterial_542-mesh":{"name":"mesh_CityEngineMaterial.542","primitives":[{"attributes":{"NORMAL":"accessor_180","POSITION":"accessor_178","BATCHID":"accessor_b8"},"indices":"accessor_176","material":"CityEngineMaterial_544-effect","mode":4}]},"mesh_CityEngineMaterial_543-mesh":{"name":"mesh_CityEngineMaterial.543","primitives":[{"attributes":{"NORMAL":"accessor_200","POSITION":"accessor_198","BATCHID":"accessor_b9"},"indices":"accessor_196","material":"CityEngineMaterial_545-effect","mode":4}]},"mesh_CityEngineMaterial_544-mesh":{"name":"mesh_CityEngineMaterial.544","primitives":[{"attributes":{"NORMAL":"accessor_220","POSITION":"accessor_218","BATCHID":"accessor_b10"},"indices":"accessor_216","material":"CityEngineMaterial_546-effect","mode":4}]},"mesh_CityEngineMaterial_545-mesh":{"name":"mesh_CityEngineMaterial.545","primitives":[{"attributes":{"NORMAL":"accessor_240","POSITION":"accessor_238","BATCHID":"accessor_b11"},"indices":"accessor_236","material":"CityEngineMaterial_547-effect","mode":4}]}},"nodes":{"CityEngineMaterial":{"children":[],"matrix":[1,0,0,0,0,-1.62921e-7,1,0,0,-1,-1.62921e-7,0,0,0,0,1],"meshes":["mesh_CityEngineMaterial_534-mesh"],"name":"CityEngineMaterial"},"CityEngineMaterial_001":{"children":[],"matrix":[1,0,0,0,0,-1.62921e-7,1,0,0,-1,-1.62921e-7,0,0,0,0,1],"meshes":["mesh_CityEngineMaterial_535-mesh"],"name":"CityEngineMaterial_001"},"CityEngineMaterial_002":{"children":[],"matrix":[1,0,0,0,0,-1.62921e-7,1,0,0,-1,-1.62921e-7,0,0,0,0,1],"meshes":["mesh_CityEngineMaterial_536-mesh"],"name":"CityEngineMaterial_002"},"CityEngineMaterial_003":{"children":[],"matrix":[1,0,0,0,0,-1.62921e-7,1,0,0,-1,-1.62921e-7,0,0,0,0,1],"meshes":["mesh_CityEngineMaterial_537-mesh"],"name":"CityEngineMaterial_003"},"CityEngineMaterial_004":{"children":[],"matrix":[1,0,0,0,0,-1.62921e-7,1,0,0,-1,-1.62921e-7,0,0,0,0,1],"meshes":["mesh_CityEngineMaterial_538-mesh"],"name":"CityEngineMaterial_004"},"CityEngineMaterial_005":{"children":[],"matrix":[1,0,0,0,0,-1.62921e-7,1,0,0,-1,-1.62921e-7,0,0,0,0,1],"meshes":["mesh_CityEngineMaterial_539-mesh"],"name":"CityEngineMaterial_005"},"CityEngineMaterial_006":{"children":[],"matrix":[1,0,0,0,0,-1.62921e-7,1,0,0,-1,-1.62921e-7,0,0,0,0,1],"meshes":["mesh_CityEngineMaterial_540-mesh"],"name":"CityEngineMaterial_006"},"CityEngineMaterial_007":{"children":[],"matrix":[1,0,0,0,0,-1.62921e-7,1,0,0,-1,-1.62921e-7,0,0,0,0,1],"meshes":["mesh_CityEngineMaterial_541-mesh"],"name":"CityEngineMaterial_007"},"CityEngineMaterial_008":{"children":[],"matrix":[1,0,0,0,0,-1.62921e-7,1,0,0,-1,-1.62921e-7,0,0,0,0,1],"meshes":["mesh_CityEngineMaterial_542-mesh"],"name":"CityEngineMaterial_008"},"CityEngineMaterial_009":{"children":[],"matrix":[1,0,0,0,0,-1.62921e-7,1,0,0,-1,-1.62921e-7,0,0,0,0,1],"meshes":["mesh_CityEngineMaterial_543-mesh"],"name":"CityEngineMaterial_009"},"CityEngineMaterial_010":{"children":[],"matrix":[1,0,0,0,0,-1.62921e-7,1,0,0,-1,-1.62921e-7,0,0,0,0,1],"meshes":["mesh_CityEngineMaterial_544-mesh"],"name":"CityEngineMaterial_010"},"CityEngineMaterial_011":{"children":[],"matrix":[1,0,0,0,0,-1.62921e-7,1,0,0,-1,-1.62921e-7,0,0,0,0,1],"meshes":["mesh_CityEngineMaterial_545-mesh"],"name":"CityEngineMaterial_011"},"node_12":{"children":["CityEngineMaterial","CityEngineMaterial_001","CityEngineMaterial_002","CityEngineMaterial_003","CityEngineMaterial_004","CityEngineMaterial_005","CityEngineMaterial_006","CityEngineMaterial_007","CityEngineMaterial_008","CityEngineMaterial_009","CityEngineMaterial_010","CityEngineMaterial_011"],"matrix":[1,0,0,0,0,0,-1,0,0,1,0,0,0,0,0,1],"name":"Y_UP_Transform"}},"programs":{"program_0":{"attributes":["a_normal","a_position","a_batchId"],"fragmentShader":"\\data\\3dcity\\miami\\workspace\\gridID_53\\gridID_530FS","vertexShader":"\\data\\3dcity\\miami\\workspace\\gridID_53\\gridID_530VS"}},"scene":"defaultScene","scenes":{"defaultScene":{"nodes":["node_12"]}},"shaders":{"\\data\\3dcity\\miami\\workspace\\gridID_53\\gridID_530FS":{"type":35632,"uri":"data:text/plain;base64,"},"\\data\\3dcity\\miami\\workspace\\gridID_53\\gridID_530VS":{"type":35633,"uri":"data:text/plain;base64,"}},"skins":{},"techniques":{"technique0":{"attributes":{"a_normal":"normal","a_position":"position","a_batchId":"batchId"},"parameters":{"ambient":{"type":35666},"diffuse":{"type":35666},"emission":{"type":35666},"modelViewMatrix":{"semantic":"MODELVIEW","type":35676},"normal":{"semantic":"NORMAL","type":35665},"normalMatrix":{"semantic":"MODELVIEWINVERSETRANSPOSE","type":35675},"position":{"semantic":"POSITION","type":35665},"projectionMatrix":{"semantic":"PROJECTION","type":35676},"shininess":{"type":5126},"specular":{"type":35666},"batchId":{"semantic":"BATCHID","type":5126}},"program":"program_0","states":{"enable":[2929,2884]},"uniforms":{"u_ambient":"ambient","u_diffuse":"diffuse","u_emission":"emission","u_modelViewMatrix":"modelViewMatrix","u_normalMatrix":"normalMatrix","u_projectionMatrix":"projectionMatrix","u_shininess":"shininess","u_specular":"specular"}}}}