{"accessors":{"accessor_101":{"bufferView":"bufferView_277","byteOffset":1482,"byteStride":0,"componentType":5123,"count":15,"type":"SCALAR"},"accessor_103":{"bufferView":"bufferView_278","byteOffset":14040,"byteStride":12,"componentType":5126,"count":85,"max":[15.6658,6.99173,7.21545],"min":[-12.9773,-5.50827,-7.91356],"type":"VEC3"},"accessor_105":{"bufferView":"bufferView_278","byteOffset":15060,"byteStride":12,"componentType":5126,"count":85,"max":[0.953948,0.579481,0.953786],"min":[-0.95914,0,-0.953819],"type":"VEC3"},"accessor_133":{"bufferView":"bufferView_277","byteOffset":1698,"byteStride":0,"componentType":5123,"count":24,"type":"SCALAR"},"accessor_136":{"bufferView":"bufferView_277","byteOffset":1746,"byteStride":0,"componentType":5123,"count":6,"type":"SCALAR"},"accessor_138":{"bufferView":"bufferView_278","byteOffset":18096,"byteStride":12,"componentType":5126,"count":26,"max":[18.6737,6,9.863],"min":[-18.6692,-6,-9.863],"type":"VEC3"},"accessor_140":{"bufferView":"bufferView_278","byteOffset":18408,"byteStride":12,"componentType":5126,"count":26,"max":[0.953196,1,0.953208],"min":[-0.953477,0,-0.953186],"type":"VEC3"},"accessor_168":{"bufferView":"bufferView_277","byteOffset":1056,"byteStride":0,"componentType":5123,"count":6,"type":"SCALAR"},"accessor_171":{"bufferView":"bufferView_277","byteOffset":1068,"byteStride":0,"componentType":5123,"count":30,"type":"SCALAR"},"accessor_173":{"bufferView":"bufferView_278","byteOffset":11088,"byteStride":12,"componentType":5126,"count":32,"max":[2.2535,0.15,4.88674],"min":[-2.2585,-0.15,-4.90925],"type":"VEC3"},"accessor_175":{"bufferView":"bufferView_278","byteOffset":11472,"byteStride":12,"componentType":5126,"count":32,"max":[0.953477,1,0.85841],"min":[-0.952713,-1,-0.849912],"type":"VEC3"},"accessor_203":{"bufferView":"bufferView_277","byteOffset":1512,"byteStride":0,"componentType":5123,"count":78,"type":"SCALAR"},"accessor_206":{"bufferView":"bufferView_277","byteOffset":1668,"byteStride":0,"componentType":5123,"count":15,"type":"SCALAR"},"accessor_208":{"bufferView":"bufferView_278","byteOffset":16080,"byteStride":12,"componentType":5126,"count":84,"max":[17.3819,6.98673,11.0779],"min":[-25.5771,-5.51327,-8.62513],"type":"VEC3"},"accessor_210":{"bufferView":"bufferView_278","byteOffset":17088,"byteStride":12,"componentType":5126,"count":84,"max":[0.954661,0.584704,0.953932],"min":[-0.954428,0,-0.953987],"type":"VEC3"},"accessor_262":{"bufferView":"bufferView_277","byteOffset":0,"byteStride":0,"componentType":5123,"count":24,"type":"SCALAR"},"accessor_265":{"bufferView":"bufferView_277","byteOffset":48,"byteStride":0,"componentType":5123,"count":366,"type":"SCALAR"},"accessor_268":{"bufferView":"bufferView_277","byteOffset":780,"byteStride":0,"componentType":5123,"count":39,"type":"SCALAR"},"accessor_271":{"bufferView":"bufferView_277","byteOffset":858,"byteStride":0,"componentType":5123,"count":99,"type":"SCALAR"},"accessor_273":{"bufferView":"bufferView_278","byteOffset":0,"byteStride":12,"componentType":5126,"count":462,"max":[15.5192,8.44778,17.3273],"min":[-15.0078,-9.55222,-10.4587],"type":"VEC3"},"accessor_275":{"bufferView":"bufferView_278","byteOffset":5544,"byteStride":12,"componentType":5126,"count":462,"max":[0.963666,1,0.95636],"min":[-0.957906,-1,-0.955837],"type":"VEC3"},"accessor_28":{"bufferView":"bufferView_277","byteOffset":1242,"byteStride":0,"componentType":5123,"count":24,"type":"SCALAR"},"accessor_31":{"bufferView":"bufferView_277","byteOffset":1290,"byteStride":0,"componentType":5123,"count":18,"type":"SCALAR"},"accessor_33":{"bufferView":"bufferView_278","byteOffset":13032,"byteStride":12,"componentType":5126,"count":42,"max":[30.865,7,14.449],"min":[-30.865,-5.5,-14.449],"type":"VEC3"},"accessor_35":{"bufferView":"bufferView_278","byteOffset":13536,"byteStride":12,"componentType":5126,"count":42,"max":[0.954397,0.743783,0.954361],"min":[-0.954397,0,-0.954361],"type":"VEC3"},"accessor_63":{"bufferView":"bufferView_277","byteOffset":1128,"byteStride":0,"componentType":5123,"count":42,"type":"SCALAR"},"accessor_66":{"bufferView":"bufferView_277","byteOffset":1212,"byteStride":0,"componentType":5123,"count":15,"type":"SCALAR"},"accessor_68":{"bufferView":"bufferView_278","byteOffset":11856,"byteStride":12,"componentType":5126,"count":49,"max":[8.23271,5.5,5.85686],"min":[-4.30429,-5.5,-6.08714],"type":"VEC3"},"accessor_70":{"bufferView":"bufferView_278","byteOffset":12444,"byteStride":12,"componentType":5126,"count":49,"max":[0.952713,1,0.952864],"min":[-0.952772,0,-0.953054],"type":"VEC3"},"accessor_98":{"bufferView":"bufferView_277","byteOffset":1326,"byteStride":0,"componentType":5123,"count":78,"type":"SCALAR"},"accessor_b0":{"bufferView":"bufferView_b","byteOffset":0,"byteStride":0,"componentType":5123,"count":462,"type":"SCALAR"},"accessor_b1":{"bufferView":"bufferView_b","byteOffset":924,"byteStride":0,"componentType":5123,"count":32,"type":"SCALAR"},"accessor_b2":{"bufferView":"bufferView_b","byteOffset":988,"byteStride":0,"componentType":5123,"count":49,"type":"SCALAR"},"accessor_b3":{"bufferView":"bufferView_b","byteOffset":1086,"byteStride":0,"componentType":5123,"count":42,"type":"SCALAR"},"accessor_b4":{"bufferView":"bufferView_b","byteOffset":1170,"byteStride":0,"componentType":5123,"count":85,"type":"SCALAR"},"accessor_b5":{"bufferView":"bufferView_b","byteOffset":1340,"byteStride":0,"componentType":5123,"count":84,"type":"SCALAR"},"accessor_b6":{"bufferView":"bufferView_b","byteOffset":1508,"byteStride":0,"componentType":5123,"count":26,"type":"SCALAR"}},"animations":{},"asset":{"generator":"collada2gltf@cf6371beb0bdc18ba603378d5e40c966da53d385","premultipliedAlpha":true,"profile":{"api":"WebGL","version":"1.0.2"},"version":"1.0"},"bufferViews":{"bufferView_277":{"buffer":"\\data\\ECNU\\workspace\\gridID_51\\gridID_51","byteLength":1760,"byteOffset":0,"target":34963},"bufferView_278":{"buffer":"\\data\\ECNU\\workspace\\gridID_51\\gridID_51","byteLength":18720,"byteOffset":1760,"target":34962},"bufferView_b":{"buffer":"buffer_b","byteLength":1560,"byteOffset":0,"target":34962}},"buffers":{"\\data\\ECNU\\workspace\\gridID_51\\gridID_51":{"byteLength":20480,"type":"arraybuffer","uri":"data:application/octet-stream;base64,"},"buffer_b":{"type":"arraybuffer","byteLength":1560,"uri":"data:application/octet-stream;base64,"}},"materials":{"BUILDING_DEFAULT_0-effect":{"name":"BUILDING_DEFAULT_0","technique":"technique0","values":{"ambient":[0,0,0,1],"diffuse":[0.723055,0.708376,0.672443,1],"emission":[0,0,0,1],"shininess":50,"specular":[0.5,0.5,0.5,1]}},"CONCRETE_0-effect":{"name":"CONCRETE_0","technique":"technique0","values":{"ambient":[0,0,0,1],"diffuse":[0.309469,0.327778,0.309469,1],"emission":[0,0,0,1],"shininess":50,"specular":[0.5,0.5,0.5,1]}},"GLASS_0-effect":{"name":"GLASS_0","technique":"technique0","values":{"ambient":[0,0,0,1],"diffuse":[0.491021,0.665387,0.658375,1],"emission":[0,0,0,1],"shininess":50,"specular":[0.5,0.5,0.5,1]}},"GLASS_ROOF_0-effect":{"name":"GLASS_ROOF_0","technique":"technique0","values":{"ambient":[0,0,0,1],"diffuse":[0.708376,0.887923,0.83077,1],"emission":[0,0,0,1],"shininess":50,"specular":[0.5,0.5,0.5,1]}},"ROOF_DEFAULT_0-effect":{"name":"ROOF_DEFAULT_0","technique":"technique0","values":{"ambient":[0,0,0,1],"diffuse":[0.603827,0.381326,0.291771,1],"emission":[0,0,0,1],"shininess":50,"specular":[0.5,0.5,0.5,1]}}},"meshes":{"Building3350-mesh":{"name":"Building3350","primitives":[{"attributes":{"NORMAL":"accessor_275","POSITION":"accessor_273","BATCHID":"accessor_b0"},"indices":"accessor_262","material":"GLASS_0-effect","mode":4},{"attributes":{"NORMAL":"accessor_275","POSITION":"accessor_273","BATCHID":"accessor_b0"},"indices":"accessor_265","material":"BUILDING_DEFAULT_0-effect","mode":4},{"attributes":{"NORMAL":"accessor_275","POSITION":"accessor_273","BATCHID":"accessor_b0"},"indices":"accessor_268","material":"ROOF_DEFAULT_0-effect","mode":4},{"attributes":{"NORMAL":"accessor_275","POSITION":"accessor_273","BATCHID":"accessor_b0"},"indices":"accessor_271","material":"CONCRETE_0-effect","mode":4}]},"Building3682-mesh":{"name":"Building3682","primitives":[{"attributes":{"NORMAL":"accessor_175","POSITION":"accessor_173","BATCHID":"accessor_b1"},"indices":"accessor_168","material":"GLASS_ROOF_0-effect","mode":4},{"attributes":{"NORMAL":"accessor_175","POSITION":"accessor_173","BATCHID":"accessor_b1"},"indices":"accessor_171","material":"BUILDING_DEFAULT_0-effect","mode":4}]},"Building4026-mesh":{"name":"Building4026","primitives":[{"attributes":{"NORMAL":"accessor_70","POSITION":"accessor_68","BATCHID":"accessor_b2"},"indices":"accessor_63","material":"BUILDING_DEFAULT_0-effect","mode":4},{"attributes":{"NORMAL":"accessor_70","POSITION":"accessor_68","BATCHID":"accessor_b2"},"indices":"accessor_66","material":"CONCRETE_0-effect","mode":4}]},"Building4028-mesh":{"name":"Building4028","primitives":[{"attributes":{"NORMAL":"accessor_35","POSITION":"accessor_33","BATCHID":"accessor_b3"},"indices":"accessor_28","material":"BUILDING_DEFAULT_0-effect","mode":4},{"attributes":{"NORMAL":"accessor_35","POSITION":"accessor_33","BATCHID":"accessor_b3"},"indices":"accessor_31","material":"ROOF_DEFAULT_0-effect","mode":4}]},"Building4063-mesh":{"name":"Building4063","primitives":[{"attributes":{"NORMAL":"accessor_105","POSITION":"accessor_103","BATCHID":"accessor_b4"},"indices":"accessor_98","material":"BUILDING_DEFAULT_0-effect","mode":4},{"attributes":{"NORMAL":"accessor_105","POSITION":"accessor_103","BATCHID":"accessor_b4"},"indices":"accessor_101","material":"ROOF_DEFAULT_0-effect","mode":4}]},"Building4065-mesh":{"name":"Building4065","primitives":[{"attributes":{"NORMAL":"accessor_210","POSITION":"accessor_208","BATCHID":"accessor_b5"},"indices":"accessor_203","material":"BUILDING_DEFAULT_0-effect","mode":4},{"attributes":{"NORMAL":"accessor_210","POSITION":"accessor_208","BATCHID":"accessor_b5"},"indices":"accessor_206","material":"ROOF_DEFAULT_0-effect","mode":4}]},"Building4067-mesh":{"name":"Building4067","primitives":[{"attributes":{"NORMAL":"accessor_140","POSITION":"accessor_138","BATCHID":"accessor_b6"},"indices":"accessor_133","material":"BUILDING_DEFAULT_0-effect","mode":4},{"attributes":{"NORMAL":"accessor_140","POSITION":"accessor_138","BATCHID":"accessor_b6"},"indices":"accessor_136","material":"CONCRETE_0-effect","mode":4}]}},"nodes":{"model_gridID_51_w376352637_001":{"children":[],"matrix":[1,0,0,0,0,-1.62921e-7,1,0,0,-1,-1.62921e-7,0,30.637,-77.801,5.49999,1],"meshes":["Building4028-mesh"],"name":"model_gridID_51_w376352637_001"},"model_gridID_51_w376352638_002":{"children":[],"matrix":[1,0,0,0,0,-1.62921e-7,1,0,0,-1,-1.62921e-7,0,20.2293,-48.2551,5.49999,1],"meshes":["Building4026-mesh"],"name":"model_gridID_51_w376352638_002"},"model_gridID_51_w376352641_001":{"children":[],"matrix":[1,0,0,0,0,-1.62921e-7,1,0,0,-1,-1.62921e-7,0,74.9172,-44.7265,5.50827,1],"meshes":["Building4063-mesh"],"name":"model_gridID_51_w376352641_001"},"model_gridID_51_w376352641_002":{"children":[],"matrix":[1,0,0,0,0,-1.62921e-7,1,0,0,-1,-1.62921e-7,0,46.0933,-39.986,5.99999,1],"meshes":["Building4067-mesh"],"name":"model_gridID_51_w376352641_002"},"model_gridID_51_w376352641_003":{"children":[],"matrix":[1,0,0,0,0,-1.62921e-7,1,0,0,-1,-1.62921e-7,0,27.9405,-45.9972,10.85,1],"meshes":["Building3682-mesh"],"name":"model_gridID_51_w376352641_003"},"model_gridID_51_w376352643":{"children":[],"matrix":[1,0,0,0,0,-1.62921e-7,1,0,0,-1,-1.62921e-7,0,47.2901,-55.5911,5.51326,1],"meshes":["Building4065-mesh"],"name":"model_gridID_51_w376352643"},"model_gridID_51_w378885751":{"children":[],"matrix":[1,0,0,0,0,-1.62921e-7,1,0,0,-1,-1.62921e-7,0,2.50976,-55.0416,9.55221,1],"meshes":["Building3350-mesh"],"name":"model_gridID_51_w378885751"},"node_7":{"children":["model_gridID_51_w376352637_001","model_gridID_51_w376352638_002","model_gridID_51_w376352641_001","model_gridID_51_w376352641_002","model_gridID_51_w376352641_003","model_gridID_51_w376352643","model_gridID_51_w378885751"],"matrix":[1,0,0,0,0,0,-1,0,0,1,0,0,0,0,0,1],"name":"Y_UP_Transform"}},"programs":{"program_0":{"attributes":["a_normal","a_position","a_batchId"],"fragmentShader":"\\data\\ECNU\\workspace\\gridID_51\\gridID_510FS","vertexShader":"\\data\\ECNU\\workspace\\gridID_51\\gridID_510VS"}},"scene":"defaultScene","scenes":{"defaultScene":{"nodes":["node_7"]}},"shaders":{"\\data\\ECNU\\workspace\\gridID_51\\gridID_510FS":{"type":35632,"uri":"data:text/plain;base64,"},"\\data\\ECNU\\workspace\\gridID_51\\gridID_510VS":{"type":35633,"uri":"data:text/plain;base64,"}},"skins":{},"techniques":{"technique0":{"attributes":{"a_normal":"normal","a_position":"position","a_batchId":"batchId"},"parameters":{"ambient":{"type":35666},"diffuse":{"type":35666},"emission":{"type":35666},"modelViewMatrix":{"semantic":"MODELVIEW","type":35676},"normal":{"semantic":"NORMAL","type":35665},"normalMatrix":{"semantic":"MODELVIEWINVERSETRANSPOSE","type":35675},"position":{"semantic":"POSITION","type":35665},"projectionMatrix":{"semantic":"PROJECTION","type":35676},"shininess":{"type":5126},"specular":{"type":35666},"batchId":{"semantic":"BATCHID","type":5126}},"program":"program_0","states":{"enable":[2929,2884]},"uniforms":{"u_ambient":"ambient","u_diffuse":"diffuse","u_emission":"emission","u_modelViewMatrix":"modelViewMatrix","u_normalMatrix":"normalMatrix","u_projectionMatrix":"projectionMatrix","u_shininess":"shininess","u_specular":"specular"}}}}