{"accessors":{"accessor_100":{"bufferView":"bufferView_183","byteOffset":16392,"byteStride":12,"componentType":5126,"count":126,"max":[0.999497,0.999486,1],"min":[-0.999497,-0.999485,0],"type":"VEC3"},"accessor_116":{"bufferView":"bufferView_182","byteOffset":1584,"byteStride":0,"componentType":5123,"count":108,"type":"SCALAR"},"accessor_118":{"bufferView":"bufferView_183","byteOffset":17904,"byteStride":12,"componentType":5126,"count":104,"max":[36.3892,38.974,8.14671],"min":[20.9078,33.6665,4.26721],"type":"VEC3"},"accessor_120":{"bufferView":"bufferView_183","byteOffset":19152,"byteStride":12,"componentType":5126,"count":104,"max":[0.999696,0.999549,1],"min":[-0.999705,-0.999549,0],"type":"VEC3"},"accessor_136":{"bufferView":"bufferView_182","byteOffset":1800,"byteStride":0,"componentType":5123,"count":120,"type":"SCALAR"},"accessor_138":{"bufferView":"bufferView_183","byteOffset":20400,"byteStride":12,"componentType":5126,"count":118,"max":[42.3232,21.3622,10.0255],"min":[22.0244,9.4465,4.26721],"type":"VEC3"},"accessor_140":{"bufferView":"bufferView_183","byteOffset":21816,"byteStride":12,"componentType":5126,"count":118,"max":[0.999612,0.999604,1],"min":[-0.999612,-0.999604,0],"type":"VEC3"},"accessor_156":{"bufferView":"bufferView_182","byteOffset":2040,"byteStride":0,"componentType":5123,"count":102,"type":"SCALAR"},"accessor_158":{"bufferView":"bufferView_183","byteOffset":23232,"byteStride":12,"componentType":5126,"count":93,"max":[40.6758,54.8136,10.4321],"min":[20.2368,43.1426,4.11554],"type":"VEC3"},"accessor_16":{"bufferView":"bufferView_182","byteOffset":0,"byteStride":0,"componentType":5123,"count":108,"type":"SCALAR"},"accessor_160":{"bufferView":"bufferView_183","byteOffset":24348,"byteStride":12,"componentType":5126,"count":93,"max":[0.999618,0.999608,1],"min":[-0.999617,-0.999608,0],"type":"VEC3"},"accessor_176":{"bufferView":"bufferView_182","byteOffset":2244,"byteStride":0,"componentType":5123,"count":60,"type":"SCALAR"},"accessor_178":{"bufferView":"bufferView_183","byteOffset":25464,"byteStride":12,"componentType":5126,"count":60,"max":[64.0528,52.385,11.9238],"min":[51.1114,9.97293,4.09946],"type":"VEC3"},"accessor_18":{"bufferView":"bufferView_183","byteOffset":0,"byteStride":12,"componentType":5126,"count":104,"max":[67.3476,-66.6227,12.3209],"min":[53.8245,-79.9498,3.58581],"type":"VEC3"},"accessor_180":{"bufferView":"bufferView_183","byteOffset":26184,"byteStride":12,"componentType":5126,"count":60,"max":[0.999823,0.999491,1],"min":[-0.999831,-0.99982,0],"type":"VEC3"},"accessor_20":{"bufferView":"bufferView_183","byteOffset":1248,"byteStride":12,"componentType":5126,"count":104,"max":[0.999594,0.999585,1],"min":[-0.999594,-0.999585,-1],"type":"VEC3"},"accessor_36":{"bufferView":"bufferView_182","byteOffset":216,"byteStride":0,"componentType":5123,"count":60,"type":"SCALAR"},"accessor_38":{"bufferView":"bufferView_183","byteOffset":2496,"byteStride":12,"componentType":5126,"count":60,"max":[50.5174,-71.7507,8.00955],"min":[45.5243,-79.8718,3.51727],"type":"VEC3"},"accessor_40":{"bufferView":"bufferView_183","byteOffset":3216,"byteStride":12,"componentType":5126,"count":60,"max":[0.999538,0.999528,1],"min":[-0.999538,-0.999528,0],"type":"VEC3"},"accessor_56":{"bufferView":"bufferView_182","byteOffset":336,"byteStride":0,"componentType":5123,"count":180,"type":"SCALAR"},"accessor_58":{"bufferView":"bufferView_183","byteOffset":3936,"byteStride":12,"componentType":5126,"count":165,"max":[45.6129,-64.8328,8.34697],"min":[25.8693,-77.688,3.24468],"type":"VEC3"},"accessor_60":{"bufferView":"bufferView_183","byteOffset":5916,"byteStride":12,"componentType":5126,"count":165,"max":[0.999634,0.999714,1],"min":[-0.999633,-0.999629,0],"type":"VEC3"},"accessor_76":{"bufferView":"bufferView_182","byteOffset":696,"byteStride":0,"componentType":5123,"count":318,"type":"SCALAR"},"accessor_78":{"bufferView":"bufferView_183","byteOffset":7896,"byteStride":12,"componentType":5126,"count":291,"max":[66.0844,-18.0668,9.36439],"min":[49.2443,-34.9088,3.88868],"type":"VEC3"},"accessor_80":{"bufferView":"bufferView_183","byteOffset":11388,"byteStride":12,"componentType":5126,"count":291,"max":[1,1,1],"min":[-1,-1,0],"type":"VEC3"},"accessor_96":{"bufferView":"bufferView_182","byteOffset":1332,"byteStride":0,"componentType":5123,"count":126,"type":"SCALAR"},"accessor_98":{"bufferView":"bufferView_183","byteOffset":14880,"byteStride":12,"componentType":5126,"count":126,"max":[37.3296,6.66617,11.7299],"min":[20.2467,-10.0161,4.0032],"type":"VEC3"},"accessor_b0":{"bufferView":"bufferView_b","byteOffset":0,"byteStride":0,"componentType":5123,"count":104,"type":"SCALAR"},"accessor_b1":{"bufferView":"bufferView_b","byteOffset":208,"byteStride":0,"componentType":5123,"count":60,"type":"SCALAR"},"accessor_b2":{"bufferView":"bufferView_b","byteOffset":328,"byteStride":0,"componentType":5123,"count":165,"type":"SCALAR"},"accessor_b3":{"bufferView":"bufferView_b","byteOffset":658,"byteStride":0,"componentType":5123,"count":291,"type":"SCALAR"},"accessor_b4":{"bufferView":"bufferView_b","byteOffset":1240,"byteStride":0,"componentType":5123,"count":126,"type":"SCALAR"},"accessor_b5":{"bufferView":"bufferView_b","byteOffset":1492,"byteStride":0,"componentType":5123,"count":104,"type":"SCALAR"},"accessor_b6":{"bufferView":"bufferView_b","byteOffset":1700,"byteStride":0,"componentType":5123,"count":118,"type":"SCALAR"},"accessor_b7":{"bufferView":"bufferView_b","byteOffset":1936,"byteStride":0,"componentType":5123,"count":93,"type":"SCALAR"},"accessor_b8":{"bufferView":"bufferView_b","byteOffset":2122,"byteStride":0,"componentType":5123,"count":60,"type":"SCALAR"}},"animations":{},"asset":{"generator":"collada2gltf@cf6371beb0bdc18ba603378d5e40c966da53d385","premultipliedAlpha":true,"profile":{"api":"WebGL","version":"1.0.2"},"version":"1.0"},"bufferViews":{"bufferView_182":{"buffer":"\\data\\3dcity\\miami\\workspace\\gridID_42\\gridID_42_high","byteLength":2364,"byteOffset":0,"target":34963},"bufferView_183":{"buffer":"\\data\\3dcity\\miami\\workspace\\gridID_42\\gridID_42_high","byteLength":26904,"byteOffset":2364,"target":34962},"bufferView_b":{"buffer":"buffer_b","byteLength":2242,"byteOffset":0,"target":34962}},"buffers":{"\\data\\3dcity\\miami\\workspace\\gridID_42\\gridID_42_high":{"byteLength":29268,"type":"arraybuffer","uri":"data:application/octet-stream;base64,"},"buffer_b":{"type":"arraybuffer","byteLength":2242,"uri":"data:application/octet-stream;base64,"}},"materials":{"__glTF__defaultMaterial0":{"name":"__glTF__defaultMaterial0","technique":"technique0","values":{"diffuse":[1,1,1,1]}}},"meshes":{"multipatch_footprint_1648-mesh":{"name":"multipatch_footprint.1648","primitives":[{"attributes":{"NORMAL":"accessor_20","POSITION":"accessor_18","BATCHID":"accessor_b0"},"indices":"accessor_16","material":"__glTF__defaultMaterial0","mode":4}]},"multipatch_footprint_1651-mesh":{"name":"multipatch_footprint.1651","primitives":[{"attributes":{"NORMAL":"accessor_40","POSITION":"accessor_38","BATCHID":"accessor_b1"},"indices":"accessor_36","material":"__glTF__defaultMaterial0","mode":4}]},"multipatch_footprint_1654-mesh":{"name":"multipatch_footprint.1654","primitives":[{"attributes":{"NORMAL":"accessor_60","POSITION":"accessor_58","BATCHID":"accessor_b2"},"indices":"accessor_56","material":"__glTF__defaultMaterial0","mode":4}]},"multipatch_footprint_1985-mesh":{"name":"multipatch_footprint.1985","primitives":[{"attributes":{"NORMAL":"accessor_80","POSITION":"accessor_78","BATCHID":"accessor_b3"},"indices":"accessor_76","material":"__glTF__defaultMaterial0","mode":4}]},"multipatch_footprint_1988-mesh":{"name":"multipatch_footprint.1988","primitives":[{"attributes":{"NORMAL":"accessor_100","POSITION":"accessor_98","BATCHID":"accessor_b4"},"indices":"accessor_96","material":"__glTF__defaultMaterial0","mode":4}]},"multipatch_footprint_1989-mesh":{"name":"multipatch_footprint.1989","primitives":[{"attributes":{"NORMAL":"accessor_120","POSITION":"accessor_118","BATCHID":"accessor_b5"},"indices":"accessor_116","material":"__glTF__defaultMaterial0","mode":4}]},"multipatch_footprint_1992-mesh":{"name":"multipatch_footprint.1992","primitives":[{"attributes":{"NORMAL":"accessor_140","POSITION":"accessor_138","BATCHID":"accessor_b6"},"indices":"accessor_136","material":"__glTF__defaultMaterial0","mode":4}]},"multipatch_footprint_1994-mesh":{"name":"multipatch_footprint.1994","primitives":[{"attributes":{"NORMAL":"accessor_160","POSITION":"accessor_158","BATCHID":"accessor_b7"},"indices":"accessor_156","material":"__glTF__defaultMaterial0","mode":4}]},"multipatch_footprint_1996-mesh":{"name":"multipatch_footprint.1996","primitives":[{"attributes":{"NORMAL":"accessor_180","POSITION":"accessor_178","BATCHID":"accessor_b8"},"indices":"accessor_176","material":"__glTF__defaultMaterial0","mode":4}]}},"nodes":{"gridID_42_w435387522_join":{"children":[],"matrix":[1,0,0,0,0,1,0,0,0,0,1,0,0.000366211,0.000335693,0,1],"meshes":["multipatch_footprint_1989-mesh"],"name":"gridID_42_w435387522_join"},"gridID_42_w435520591_join":{"children":[],"matrix":[1,0,0,0,0,1,0,0,0,0,1,0,0.000366211,0.000335693,0,1],"meshes":["multipatch_footprint_1988-mesh"],"name":"gridID_42_w435520591_join"},"gridID_42_w435531842_join":{"children":[],"matrix":[1,0,0,0,0,1,0,0,0,0,1,0,0.000366211,0.000335693,0,1],"meshes":["multipatch_footprint_1996-mesh"],"name":"gridID_42_w435531842_join"},"gridID_42_w435578227_join":{"children":[],"matrix":[1,0,0,0,0,1,0,0,0,0,1,0,0.000366211,0.000335693,0,1],"meshes":["multipatch_footprint_1654-mesh"],"name":"gridID_42_w435578227_join"},"gridID_42_w435585028_join":{"children":[],"matrix":[1,0,0,0,0,1,0,0,0,0,1,0,0.000366211,0.000335693,0,1],"meshes":["multipatch_footprint_1651-mesh"],"name":"gridID_42_w435585028_join"},"gridID_42_w435730019_join":{"children":[],"matrix":[1,0,0,0,0,1,0,0,0,0,1,0,0.000366211,0.000335693,0,1],"meshes":["multipatch_footprint_1648-mesh"],"name":"gridID_42_w435730019_join"},"gridID_42_w435736943_join":{"children":[],"matrix":[1,0,0,0,0,1,0,0,0,0,1,0,0.000366211,0.000335693,0,1],"meshes":["multipatch_footprint_1985-mesh"],"name":"gridID_42_w435736943_join"},"gridID_42_w436033305_join":{"children":[],"matrix":[1,0,0,0,0,1,0,0,0,0,1,0,0.000366211,0.000335693,0,1],"meshes":["multipatch_footprint_1994-mesh"],"name":"gridID_42_w436033305_join"},"gridID_42_w436041178_join":{"children":[],"matrix":[1,0,0,0,0,1,0,0,0,0,1,0,0.000366211,0.000335693,0,1],"meshes":["multipatch_footprint_1992-mesh"],"name":"gridID_42_w436041178_join"},"node_9":{"children":["gridID_42_w435730019_join","gridID_42_w435585028_join","gridID_42_w435578227_join","gridID_42_w435736943_join","gridID_42_w435520591_join","gridID_42_w435387522_join","gridID_42_w436041178_join","gridID_42_w436033305_join","gridID_42_w435531842_join"],"matrix":[1,0,0,0,0,0,-1,0,0,1,0,0,0,0,0,1],"name":"Y_UP_Transform"}},"programs":{"program_0":{"attributes":["a_normal","a_position","a_batchId"],"fragmentShader":"\\data\\3dcity\\miami\\workspace\\gridID_42\\gridID_42_high0FS","vertexShader":"\\data\\3dcity\\miami\\workspace\\gridID_42\\gridID_42_high0VS"}},"scene":"defaultScene","scenes":{"defaultScene":{"nodes":["node_9"]}},"shaders":{"\\data\\3dcity\\miami\\workspace\\gridID_42\\gridID_42_high0FS":{"type":35632,"uri":"data:text/plain;base64,"},"\\data\\3dcity\\miami\\workspace\\gridID_42\\gridID_42_high0VS":{"type":35633,"uri":"data:text/plain;base64,"}},"skins":{},"techniques":{"technique0":{"attributes":{"a_normal":"normal","a_position":"position","a_batchId":"batchId"},"parameters":{"diffuse":{"type":35666},"modelViewMatrix":{"semantic":"MODELVIEW","type":35676},"normal":{"semantic":"NORMAL","type":35665},"normalMatrix":{"semantic":"MODELVIEWINVERSETRANSPOSE","type":35675},"position":{"semantic":"POSITION","type":35665},"projectionMatrix":{"semantic":"PROJECTION","type":35676},"batchId":{"semantic":"BATCHID","type":5126}},"program":"program_0","states":{"enable":[2929,2884]},"uniforms":{"u_diffuse":"diffuse","u_modelViewMatrix":"modelViewMatrix","u_normalMatrix":"normalMatrix","u_projectionMatrix":"projectionMatrix"}}}}