{"accessors":{"accessor_100":{"bufferView":"bufferView_143","byteOffset":5208,"byteStride":12,"componentType":5126,"count":26,"max":[0.999999,1,0.829204],"min":[-0.824919,-1,-0.830762],"type":"VEC3"},"accessor_116":{"bufferView":"bufferView_142","byteOffset":600,"byteStride":0,"componentType":5123,"count":36,"type":"SCALAR"},"accessor_118":{"bufferView":"bufferView_143","byteOffset":5520,"byteStride":12,"componentType":5126,"count":30,"max":[26.8825,5,63.3575],"min":[12.3998,0,50.3422],"type":"VEC3"},"accessor_120":{"bufferView":"bufferView_143","byteOffset":5880,"byteStride":12,"componentType":5126,"count":30,"max":[0.999999,1,0.894665],"min":[-0.909587,-1,-0.899846],"type":"VEC3"},"accessor_136":{"bufferView":"bufferView_142","byteOffset":672,"byteStride":0,"componentType":5123,"count":108,"type":"SCALAR"},"accessor_138":{"bufferView":"bufferView_143","byteOffset":6240,"byteStride":12,"componentType":5126,"count":71,"max":[69.9186,18,35.2875],"min":[12.9008,0,-7.15757],"type":"VEC3"},"accessor_140":{"bufferView":"bufferView_143","byteOffset":7092,"byteStride":12,"componentType":5126,"count":71,"max":[0.882496,1,0.856951],"min":[-0.854238,-1,-0.852349],"type":"VEC3"},"accessor_16":{"bufferView":"bufferView_142","byteOffset":0,"byteStride":0,"componentType":5123,"count":48,"type":"SCALAR"},"accessor_18":{"bufferView":"bufferView_143","byteOffset":0,"byteStride":12,"componentType":5126,"count":38,"max":[38.3706,94.5,28.1062],"min":[-21.586,0,-16.5266],"type":"VEC3"},"accessor_20":{"bufferView":"bufferView_143","byteOffset":456,"byteStride":12,"componentType":5126,"count":38,"max":[0.773743,1,0.772946],"min":[-0.772981,-1,-0.975037],"type":"VEC3"},"accessor_36":{"bufferView":"bufferView_142","byteOffset":96,"byteStride":0,"componentType":5123,"count":84,"type":"SCALAR"},"accessor_38":{"bufferView":"bufferView_143","byteOffset":912,"byteStride":12,"componentType":5126,"count":64,"max":[-34.577,101.5,9.12087],"min":[-73.7169,0,-37.7245],"type":"VEC3"},"accessor_40":{"bufferView":"bufferView_143","byteOffset":1680,"byteStride":12,"componentType":5126,"count":64,"max":[0.974237,1,0.974191],"min":[-0.974404,-1,-0.974154],"type":"VEC3"},"accessor_56":{"bufferView":"bufferView_142","byteOffset":264,"byteStride":0,"componentType":5123,"count":84,"type":"SCALAR"},"accessor_58":{"bufferView":"bufferView_143","byteOffset":2448,"byteStride":12,"componentType":5126,"count":64,"max":[21.8397,10,-59.7135],"min":[-47.4233,0,-111.145],"type":"VEC3"},"accessor_60":{"bufferView":"bufferView_143","byteOffset":3216,"byteStride":12,"componentType":5126,"count":64,"max":[0.97973,1,0.974674],"min":[-0.961682,-1,-0.979635],"type":"VEC3"},"accessor_76":{"bufferView":"bufferView_142","byteOffset":432,"byteStride":0,"componentType":5123,"count":48,"type":"SCALAR"},"accessor_78":{"bufferView":"bufferView_143","byteOffset":3984,"byteStride":12,"componentType":5126,"count":38,"max":[13.4128,10,-51.6546],"min":[-16.5989,0,-80.6642],"type":"VEC3"},"accessor_80":{"bufferView":"bufferView_143","byteOffset":4440,"byteStride":12,"componentType":5126,"count":38,"max":[0.972688,1,0.97533],"min":[-0.841259,-1,-0.84997],"type":"VEC3"},"accessor_96":{"bufferView":"bufferView_142","byteOffset":528,"byteStride":0,"componentType":5123,"count":36,"type":"SCALAR"},"accessor_98":{"bufferView":"bufferView_143","byteOffset":4896,"byteStride":12,"componentType":5126,"count":26,"max":[26.8936,4,53.3457],"min":[7.46837,0,34.9043],"type":"VEC3"},"accessor_b0":{"bufferView":"bufferView_b","byteOffset":0,"byteStride":0,"componentType":5123,"count":38,"type":"SCALAR"},"accessor_b1":{"bufferView":"bufferView_b","byteOffset":76,"byteStride":0,"componentType":5123,"count":64,"type":"SCALAR"},"accessor_b2":{"bufferView":"bufferView_b","byteOffset":204,"byteStride":0,"componentType":5123,"count":64,"type":"SCALAR"},"accessor_b3":{"bufferView":"bufferView_b","byteOffset":332,"byteStride":0,"componentType":5123,"count":38,"type":"SCALAR"},"accessor_b4":{"bufferView":"bufferView_b","byteOffset":408,"byteStride":0,"componentType":5123,"count":26,"type":"SCALAR"},"accessor_b5":{"bufferView":"bufferView_b","byteOffset":460,"byteStride":0,"componentType":5123,"count":30,"type":"SCALAR"},"accessor_b6":{"bufferView":"bufferView_b","byteOffset":520,"byteStride":0,"componentType":5123,"count":71,"type":"SCALAR"}},"animations":{},"asset":{"generator":"collada2gltf@cf6371beb0bdc18ba603378d5e40c966da53d385","premultipliedAlpha":true,"profile":{"api":"WebGL","version":"1.0.2"},"version":"1.0"},"bufferViews":{"bufferView_142":{"buffer":"\\data\\3dcity\\miami\\workspace\\gridID_22\\gridID_22","byteLength":888,"byteOffset":0,"target":34963},"bufferView_143":{"buffer":"\\data\\3dcity\\miami\\workspace\\gridID_22\\gridID_22","byteLength":7944,"byteOffset":888,"target":34962},"bufferView_b":{"buffer":"buffer_b","byteLength":662,"byteOffset":0,"target":34962}},"buffers":{"\\data\\3dcity\\miami\\workspace\\gridID_22\\gridID_22":{"byteLength":8832,"type":"arraybuffer","uri":"data:application/octet-stream;base64,"},"buffer_b":{"type":"arraybuffer","byteLength":662,"uri":"data:application/octet-stream;base64,"}},"materials":{"CityEngineMaterial_351-effect":{"name":"CityEngineMaterial_351","technique":"technique0","values":{"ambient":[1,1,1,1],"diffuse":[1,1,1,1],"emission":[0,0,0,1],"shininess":50,"specular":[0.5,0.5,0.5,1]}},"CityEngineMaterial_352-effect":{"name":"CityEngineMaterial_352","technique":"technique0","values":{"ambient":[1,1,1,1],"diffuse":[1,1,1,1],"emission":[0,0,0,1],"shininess":50,"specular":[0.5,0.5,0.5,1]}},"CityEngineMaterial_353-effect":{"name":"CityEngineMaterial_353","technique":"technique0","values":{"ambient":[1,1,1,1],"diffuse":[1,1,1,1],"emission":[0,0,0,1],"shininess":50,"specular":[0.5,0.5,0.5,1]}},"CityEngineMaterial_354-effect":{"name":"CityEngineMaterial_354","technique":"technique0","values":{"ambient":[1,1,1,1],"diffuse":[1,1,1,1],"emission":[0,0,0,1],"shininess":50,"specular":[0.5,0.5,0.5,1]}},"CityEngineMaterial_355-effect":{"name":"CityEngineMaterial_355","technique":"technique0","values":{"ambient":[1,1,1,1],"diffuse":[1,1,1,1],"emission":[0,0,0,1],"shininess":50,"specular":[0.5,0.5,0.5,1]}},"CityEngineMaterial_356-effect":{"name":"CityEngineMaterial_356","technique":"technique0","values":{"ambient":[1,1,1,1],"diffuse":[1,1,1,1],"emission":[0,0,0,1],"shininess":50,"specular":[0.5,0.5,0.5,1]}},"CityEngineMaterial_357-effect":{"name":"CityEngineMaterial_357","technique":"technique0","values":{"ambient":[1,1,1,1],"diffuse":[1,1,1,1],"emission":[0,0,0,1],"shininess":50,"specular":[0.5,0.5,0.5,1]}}},"meshes":{"mesh_CityEngineMaterial_350-mesh":{"name":"mesh_CityEngineMaterial.350","primitives":[{"attributes":{"NORMAL":"accessor_20","POSITION":"accessor_18","BATCHID":"accessor_b0"},"indices":"accessor_16","material":"CityEngineMaterial_351-effect","mode":4}]},"mesh_CityEngineMaterial_351-mesh":{"name":"mesh_CityEngineMaterial.351","primitives":[{"attributes":{"NORMAL":"accessor_40","POSITION":"accessor_38","BATCHID":"accessor_b1"},"indices":"accessor_36","material":"CityEngineMaterial_352-effect","mode":4}]},"mesh_CityEngineMaterial_352-mesh":{"name":"mesh_CityEngineMaterial.352","primitives":[{"attributes":{"NORMAL":"accessor_60","POSITION":"accessor_58","BATCHID":"accessor_b2"},"indices":"accessor_56","material":"CityEngineMaterial_353-effect","mode":4}]},"mesh_CityEngineMaterial_353-mesh":{"name":"mesh_CityEngineMaterial.353","primitives":[{"attributes":{"NORMAL":"accessor_80","POSITION":"accessor_78","BATCHID":"accessor_b3"},"indices":"accessor_76","material":"CityEngineMaterial_354-effect","mode":4}]},"mesh_CityEngineMaterial_354-mesh":{"name":"mesh_CityEngineMaterial.354","primitives":[{"attributes":{"NORMAL":"accessor_100","POSITION":"accessor_98","BATCHID":"accessor_b4"},"indices":"accessor_96","material":"CityEngineMaterial_355-effect","mode":4}]},"mesh_CityEngineMaterial_355-mesh":{"name":"mesh_CityEngineMaterial.355","primitives":[{"attributes":{"NORMAL":"accessor_120","POSITION":"accessor_118","BATCHID":"accessor_b5"},"indices":"accessor_116","material":"CityEngineMaterial_356-effect","mode":4}]},"mesh_CityEngineMaterial_356-mesh":{"name":"mesh_CityEngineMaterial.356","primitives":[{"attributes":{"NORMAL":"accessor_140","POSITION":"accessor_138","BATCHID":"accessor_b6"},"indices":"accessor_136","material":"CityEngineMaterial_357-effect","mode":4}]}},"nodes":{"CityEngineMaterial":{"children":[],"matrix":[1,0,0,0,0,-1.62921e-7,1,0,0,-1,-1.62921e-7,0,0,0,0,1],"meshes":["mesh_CityEngineMaterial_350-mesh"],"name":"CityEngineMaterial"},"CityEngineMaterial_001":{"children":[],"matrix":[1,0,0,0,0,-1.62921e-7,1,0,0,-1,-1.62921e-7,0,0,0,0,1],"meshes":["mesh_CityEngineMaterial_351-mesh"],"name":"CityEngineMaterial_001"},"CityEngineMaterial_002":{"children":[],"matrix":[1,0,0,0,0,-1.62921e-7,1,0,0,-1,-1.62921e-7,0,0,0,0,1],"meshes":["mesh_CityEngineMaterial_352-mesh"],"name":"CityEngineMaterial_002"},"CityEngineMaterial_003":{"children":[],"matrix":[1,0,0,0,0,-1.62921e-7,1,0,0,-1,-1.62921e-7,0,0,0,0,1],"meshes":["mesh_CityEngineMaterial_353-mesh"],"name":"CityEngineMaterial_003"},"CityEngineMaterial_004":{"children":[],"matrix":[1,0,0,0,0,-1.62921e-7,1,0,0,-1,-1.62921e-7,0,0,0,0,1],"meshes":["mesh_CityEngineMaterial_354-mesh"],"name":"CityEngineMaterial_004"},"CityEngineMaterial_005":{"children":[],"matrix":[1,0,0,0,0,-1.62921e-7,1,0,0,-1,-1.62921e-7,0,0,0,0,1],"meshes":["mesh_CityEngineMaterial_355-mesh"],"name":"CityEngineMaterial_005"},"CityEngineMaterial_006":{"children":[],"matrix":[1,0,0,0,0,-1.62921e-7,1,0,0,-1,-1.62921e-7,0,0,0,0,1],"meshes":["mesh_CityEngineMaterial_356-mesh"],"name":"CityEngineMaterial_006"},"node_7":{"children":["CityEngineMaterial","CityEngineMaterial_001","CityEngineMaterial_002","CityEngineMaterial_003","CityEngineMaterial_004","CityEngineMaterial_005","CityEngineMaterial_006"],"matrix":[1,0,0,0,0,0,-1,0,0,1,0,0,0,0,0,1],"name":"Y_UP_Transform"}},"programs":{"program_0":{"attributes":["a_normal","a_position","a_batchId"],"fragmentShader":"\\data\\3dcity\\miami\\workspace\\gridID_22\\gridID_220FS","vertexShader":"\\data\\3dcity\\miami\\workspace\\gridID_22\\gridID_220VS"}},"scene":"defaultScene","scenes":{"defaultScene":{"nodes":["node_7"]}},"shaders":{"\\data\\3dcity\\miami\\workspace\\gridID_22\\gridID_220FS":{"type":35632,"uri":"data:text/plain;base64,"},"\\data\\3dcity\\miami\\workspace\\gridID_22\\gridID_220VS":{"type":35633,"uri":"data:text/plain;base64,"}},"skins":{},"techniques":{"technique0":{"attributes":{"a_normal":"normal","a_position":"position","a_batchId":"batchId"},"parameters":{"ambient":{"type":35666},"diffuse":{"type":35666},"emission":{"type":35666},"modelViewMatrix":{"semantic":"MODELVIEW","type":35676},"normal":{"semantic":"NORMAL","type":35665},"normalMatrix":{"semantic":"MODELVIEWINVERSETRANSPOSE","type":35675},"position":{"semantic":"POSITION","type":35665},"projectionMatrix":{"semantic":"PROJECTION","type":35676},"shininess":{"type":5126},"specular":{"type":35666},"batchId":{"semantic":"BATCHID","type":5126}},"program":"program_0","states":{"enable":[2929,2884]},"uniforms":{"u_ambient":"ambient","u_diffuse":"diffuse","u_emission":"emission","u_modelViewMatrix":"modelViewMatrix","u_normalMatrix":"normalMatrix","u_projectionMatrix":"projectionMatrix","u_shininess":"shininess","u_specular":"specular"}}}}