{"accessors":{"accessor_101":{"bufferView":"bufferView_177","byteOffset":1248,"byteStride":0,"componentType":5123,"count":18,"type":"SCALAR"},"accessor_103":{"bufferView":"bufferView_178","byteOffset":11376,"byteStride":12,"componentType":5126,"count":56,"max":[10.5556,3.75,8.35901],"min":[-16.3744,-3.75,-8.79602],"type":"VEC3"},"accessor_105":{"bufferView":"bufferView_178","byteOffset":12048,"byteStride":12,"componentType":5126,"count":56,"max":[0.931581,1,0.931474],"min":[-0.931552,0,-0.931639],"type":"VEC3"},"accessor_133":{"bufferView":"bufferView_177","byteOffset":60,"byteStride":0,"componentType":5123,"count":402,"type":"SCALAR"},"accessor_136":{"bufferView":"bufferView_177","byteOffset":864,"byteStride":0,"componentType":5123,"count":87,"type":"SCALAR"},"accessor_138":{"bufferView":"bufferView_178","byteOffset":672,"byteStride":12,"componentType":5126,"count":411,"max":[35.8564,6.38515,12.1518],"min":[-38.4776,-3.61485,-12.5952],"type":"VEC3"},"accessor_140":{"bufferView":"bufferView_178","byteOffset":5604,"byteStride":12,"componentType":5126,"count":411,"max":[0.988045,0.976002,1],"min":[-0.987477,0,-0.987429],"type":"VEC3"},"accessor_168":{"bufferView":"bufferView_177","byteOffset":1038,"byteStride":0,"componentType":5123,"count":42,"type":"SCALAR"},"accessor_171":{"bufferView":"bufferView_177","byteOffset":1122,"byteStride":0,"componentType":5123,"count":15,"type":"SCALAR"},"accessor_173":{"bufferView":"bufferView_178","byteOffset":10536,"byteStride":12,"componentType":5126,"count":35,"max":[6.98431,2.5,15.2914],"min":[-6.53268,-2.5,-15.1675],"type":"VEC3"},"accessor_175":{"bufferView":"bufferView_178","byteOffset":10956,"byteStride":12,"componentType":5126,"count":35,"max":[0.98738,1,0.987339],"min":[-0.987379,0,-0.98733],"type":"VEC3"},"accessor_28":{"bufferView":"bufferView_177","byteOffset":0,"byteStride":0,"componentType":5123,"count":24,"type":"SCALAR"},"accessor_31":{"bufferView":"bufferView_177","byteOffset":48,"byteStride":0,"componentType":5123,"count":6,"type":"SCALAR"},"accessor_33":{"bufferView":"bufferView_178","byteOffset":0,"byteStride":12,"componentType":5126,"count":28,"max":[7.93402,3.75,5.27148],"min":[-7.93399,-3.75,-5.27154],"type":"VEC3"},"accessor_35":{"bufferView":"bufferView_178","byteOffset":336,"byteStride":12,"componentType":5126,"count":28,"max":[0.999105,1,0.999127],"min":[-0.999105,0,-0.999127],"type":"VEC3"},"accessor_63":{"bufferView":"bufferView_177","byteOffset":1284,"byteStride":0,"componentType":5123,"count":24,"type":"SCALAR"},"accessor_66":{"bufferView":"bufferView_177","byteOffset":1332,"byteStride":0,"componentType":5123,"count":6,"type":"SCALAR"},"accessor_68":{"bufferView":"bufferView_178","byteOffset":12720,"byteStride":12,"componentType":5126,"count":20,"max":[16.468,3.75,10.1222],"min":[-16.468,-3.75,-10.1277],"type":"VEC3"},"accessor_70":{"bufferView":"bufferView_178","byteOffset":12960,"byteStride":12,"componentType":5126,"count":20,"max":[0.928172,1,0.928275],"min":[-0.928004,0,-0.928156],"type":"VEC3"},"accessor_98":{"bufferView":"bufferView_177","byteOffset":1152,"byteStride":0,"componentType":5123,"count":48,"type":"SCALAR"},"accessor_b0":{"bufferView":"bufferView_b","byteOffset":0,"byteStride":0,"componentType":5123,"count":28,"type":"SCALAR"},"accessor_b1":{"bufferView":"bufferView_b","byteOffset":56,"byteStride":0,"componentType":5123,"count":411,"type":"SCALAR"},"accessor_b2":{"bufferView":"bufferView_b","byteOffset":878,"byteStride":0,"componentType":5123,"count":35,"type":"SCALAR"},"accessor_b3":{"bufferView":"bufferView_b","byteOffset":948,"byteStride":0,"componentType":5123,"count":56,"type":"SCALAR"},"accessor_b4":{"bufferView":"bufferView_b","byteOffset":1060,"byteStride":0,"componentType":5123,"count":20,"type":"SCALAR"}},"animations":{},"asset":{"generator":"collada2gltf@cf6371beb0bdc18ba603378d5e40c966da53d385","premultipliedAlpha":true,"profile":{"api":"WebGL","version":"1.0.2"},"version":"1.0"},"bufferViews":{"bufferView_177":{"buffer":"\\data\\ECNU\\workspace\\gridID_114\\gridID_114","byteLength":1344,"byteOffset":0,"target":34963},"bufferView_178":{"buffer":"\\data\\ECNU\\workspace\\gridID_114\\gridID_114","byteLength":13200,"byteOffset":1344,"target":34962},"bufferView_b":{"buffer":"buffer_b","byteLength":1100,"byteOffset":0,"target":34962}},"buffers":{"\\data\\ECNU\\workspace\\gridID_114\\gridID_114":{"byteLength":14544,"type":"arraybuffer","uri":"data:application/octet-stream;base64,"},"buffer_b":{"type":"arraybuffer","byteLength":1100,"uri":"data:application/octet-stream;base64,"}},"materials":{"BUILDING_DEFAULT_0-effect":{"name":"BUILDING_DEFAULT_0","technique":"technique0","values":{"ambient":[0,0,0,1],"diffuse":[0.723055,0.708376,0.672443,1],"emission":[0,0,0,1],"shininess":50,"specular":[0.5,0.5,0.5,1]}},"CONCRETE_0-effect":{"name":"CONCRETE_0","technique":"technique0","values":{"ambient":[0,0,0,1],"diffuse":[0.309469,0.327778,0.309469,1],"emission":[0,0,0,1],"shininess":50,"specular":[0.5,0.5,0.5,1]}},"ROOF_DEFAULT_0-effect":{"name":"ROOF_DEFAULT_0","technique":"technique0","values":{"ambient":[0,0,0,1],"diffuse":[0.603827,0.381326,0.291771,1],"emission":[0,0,0,1],"shininess":50,"specular":[0.5,0.5,0.5,1]}}},"meshes":{"Building3258-mesh":{"name":"Building3258","primitives":[{"attributes":{"NORMAL":"accessor_35","POSITION":"accessor_33","BATCHID":"accessor_b0"},"indices":"accessor_28","material":"BUILDING_DEFAULT_0-effect","mode":4},{"attributes":{"NORMAL":"accessor_35","POSITION":"accessor_33","BATCHID":"accessor_b0"},"indices":"accessor_31","material":"ROOF_DEFAULT_0-effect","mode":4}]},"Building3835-mesh":{"name":"Building3835","primitives":[{"attributes":{"NORMAL":"accessor_140","POSITION":"accessor_138","BATCHID":"accessor_b1"},"indices":"accessor_133","material":"BUILDING_DEFAULT_0-effect","mode":4},{"attributes":{"NORMAL":"accessor_140","POSITION":"accessor_138","BATCHID":"accessor_b1"},"indices":"accessor_136","material":"ROOF_DEFAULT_0-effect","mode":4}]},"Building3836-mesh":{"name":"Building3836","primitives":[{"attributes":{"NORMAL":"accessor_175","POSITION":"accessor_173","BATCHID":"accessor_b2"},"indices":"accessor_168","material":"BUILDING_DEFAULT_0-effect","mode":4},{"attributes":{"NORMAL":"accessor_175","POSITION":"accessor_173","BATCHID":"accessor_b2"},"indices":"accessor_171","material":"CONCRETE_0-effect","mode":4}]},"Building3860-mesh":{"name":"Building3860","primitives":[{"attributes":{"NORMAL":"accessor_105","POSITION":"accessor_103","BATCHID":"accessor_b3"},"indices":"accessor_98","material":"BUILDING_DEFAULT_0-effect","mode":4},{"attributes":{"NORMAL":"accessor_105","POSITION":"accessor_103","BATCHID":"accessor_b3"},"indices":"accessor_101","material":"ROOF_DEFAULT_0-effect","mode":4}]},"Building3862-mesh":{"name":"Building3862","primitives":[{"attributes":{"NORMAL":"accessor_70","POSITION":"accessor_68","BATCHID":"accessor_b4"},"indices":"accessor_63","material":"BUILDING_DEFAULT_0-effect","mode":4},{"attributes":{"NORMAL":"accessor_70","POSITION":"accessor_68","BATCHID":"accessor_b4"},"indices":"accessor_66","material":"ROOF_DEFAULT_0-effect","mode":4}]}},"nodes":{"model_gridID_114_r6179404":{"children":[],"matrix":[1,0,0,0,0,-1.62921e-7,1,0,0,-1,-1.62921e-7,0,-318.378,561.727,3.75009,1],"meshes":["Building3258-mesh"],"name":"model_gridID_114_r6179404"},"model_gridID_114_w169917403":{"children":[],"matrix":[1,0,0,0,0,-1.62921e-7,1,0,0,-1,-1.62921e-7,0,-247.447,627.852,3.7501,1],"meshes":["Building3862-mesh"],"name":"model_gridID_114_w169917403"},"model_gridID_114_w169917411":{"children":[],"matrix":[1,0,0,0,0,-1.62921e-7,1,0,0,-1,-1.62921e-7,0,-285.465,633.704,3.7501,1],"meshes":["Building3860-mesh"],"name":"model_gridID_114_w169917411"},"model_gridID_114_w380978816":{"children":[],"matrix":[1,0,0,0,0,-1.62921e-7,1,0,0,-1,-1.62921e-7,0,-253.822,563.777,3.61495,1],"meshes":["Building3835-mesh"],"name":"model_gridID_114_w380978816"},"model_gridID_114_w380978816_001":{"children":[],"matrix":[1,0,0,0,0,-1.62921e-7,1,0,0,-1,-1.62921e-7,0,-286.129,546.02,2.50009,1],"meshes":["Building3836-mesh"],"name":"model_gridID_114_w380978816_001"},"node_5":{"children":["model_gridID_114_r6179404","model_gridID_114_w169917403","model_gridID_114_w169917411","model_gridID_114_w380978816","model_gridID_114_w380978816_001"],"matrix":[1,0,0,0,0,0,-1,0,0,1,0,0,0,0,0,1],"name":"Y_UP_Transform"}},"programs":{"program_0":{"attributes":["a_normal","a_position","a_batchId"],"fragmentShader":"\\data\\ECNU\\workspace\\gridID_114\\gridID_1140FS","vertexShader":"\\data\\ECNU\\workspace\\gridID_114\\gridID_1140VS"}},"scene":"defaultScene","scenes":{"defaultScene":{"nodes":["node_5"]}},"shaders":{"\\data\\ECNU\\workspace\\gridID_114\\gridID_1140FS":{"type":35632,"uri":"data:text/plain;base64,"},"\\data\\ECNU\\workspace\\gridID_114\\gridID_1140VS":{"type":35633,"uri":"data:text/plain;base64,"}},"skins":{},"techniques":{"technique0":{"attributes":{"a_normal":"normal","a_position":"position","a_batchId":"batchId"},"parameters":{"ambient":{"type":35666},"diffuse":{"type":35666},"emission":{"type":35666},"modelViewMatrix":{"semantic":"MODELVIEW","type":35676},"normal":{"semantic":"NORMAL","type":35665},"normalMatrix":{"semantic":"MODELVIEWINVERSETRANSPOSE","type":35675},"position":{"semantic":"POSITION","type":35665},"projectionMatrix":{"semantic":"PROJECTION","type":35676},"shininess":{"type":5126},"specular":{"type":35666},"batchId":{"semantic":"BATCHID","type":5126}},"program":"program_0","states":{"enable":[2929,2884]},"uniforms":{"u_ambient":"ambient","u_diffuse":"diffuse","u_emission":"emission","u_modelViewMatrix":"modelViewMatrix","u_normalMatrix":"normalMatrix","u_projectionMatrix":"projectionMatrix","u_shininess":"shininess","u_specular":"specular"}}}}