{
    "accessors": {
        "accessor_113": {
            "bufferView": "bufferView_192",
            "byteOffset": 492,
            "byteStride": 0,
            "componentType": 5123,
            "count": 15,
            "type": "SCALAR"
        },
        "accessor_116": {
            "bufferView": "bufferView_192",
            "byteOffset": 522,
            "byteStride": 0,
            "componentType": 5123,
            "count": 57,
            "type": "SCALAR"
        },
        "accessor_118": {
            "bufferView": "bufferView_193",
            "byteOffset": 4416,
            "byteStride": 12,
            "componentType": 5126,
            "count": 65,
            "max": [
                3.72424,
                0.15,
                2.02586
            ],
            "min": [
                -5.76576,
                -0.15,
                -2.50413
            ],
            "type": "VEC3"
        },
        "accessor_120": {
            "bufferView": "bufferView_193",
            "byteOffset": 5196,
            "byteStride": 12,
            "componentType": 5126,
            "count": 65,
            "max": [
                0.961171,
                1,
                0.993553
            ],
            "min": [
                -0.959004,
                -1,
                -0.959403
            ],
            "type": "VEC3"
        },
        "accessor_148": {
            "bufferView": "bufferView_192",
            "byteOffset": 0,
            "byteStride": 0,
            "componentType": 5123,
            "count": 120,
            "type": "SCALAR"
        },
        "accessor_151": {
            "bufferView": "bufferView_192",
            "byteOffset": 240,
            "byteStride": 0,
            "componentType": 5123,
            "count": 48,
            "type": "SCALAR"
        },
        "accessor_153": {
            "bufferView": "bufferView_193",
            "byteOffset": 0,
            "byteStride": 12,
            "componentType": 5126,
            "count": 121,
            "max": [
                5.70273,
                4.02703,
                10.1253
            ],
            "min": [
                -7.09126,
                -2.97297,
                -9.80072
            ],
            "type": "VEC3"
        },
        "accessor_155": {
            "bufferView": "bufferView_193",
            "byteOffset": 1452,
            "byteStride": 12,
            "componentType": 5126,
            "count": 121,
            "max": [
                0.952334,
                1,
                0.953405
            ],
            "min": [
                -0.951285,
                0,
                -0.96068
            ],
            "type": "VEC3"
        },
        "accessor_183": {
            "bufferView": "bufferView_192",
            "byteOffset": 336,
            "byteStride": 0,
            "componentType": 5123,
            "count": 24,
            "type": "SCALAR"
        },
        "accessor_186": {
            "bufferView": "bufferView_192",
            "byteOffset": 384,
            "byteStride": 0,
            "componentType": 5123,
            "count": 6,
            "type": "SCALAR"
        },
        "accessor_188": {
            "bufferView": "bufferView_193",
            "byteOffset": 2904,
            "byteStride": 12,
            "componentType": 5126,
            "count": 28,
            "max": [
                3.27725,
                3.75,
                5.59076
            ],
            "min": [
                -3.28174,
                -3.75,
                -5.58524
            ],
            "type": "VEC3"
        },
        "accessor_190": {
            "bufferView": "bufferView_193",
            "byteOffset": 3240,
            "byteStride": 12,
            "componentType": 5126,
            "count": 28,
            "max": [
                0.952631,
                1,
                0.952038
            ],
            "min": [
                -0.952481,
                0,
                -0.953188
            ],
            "type": "VEC3"
        },
        "accessor_40": {
            "bufferView": "bufferView_192",
            "byteOffset": 636,
            "byteStride": 0,
            "componentType": 5123,
            "count": 432,
            "type": "SCALAR"
        },
        "accessor_43": {
            "bufferView": "bufferView_192",
            "byteOffset": 1500,
            "byteStride": 0,
            "componentType": 5123,
            "count": 12,
            "type": "SCALAR"
        },
        "accessor_46": {
            "bufferView": "bufferView_192",
            "byteOffset": 1524,
            "byteStride": 0,
            "componentType": 5123,
            "count": 90,
            "type": "SCALAR"
        },
        "accessor_48": {
            "bufferView": "bufferView_193",
            "byteOffset": 5976,
            "byteStride": 12,
            "componentType": 5126,
            "count": 417,
            "max": [
                7.80067,
                4.20833,
                14.4362
            ],
            "min": [
                -8.62932,
                -6.79167,
                -14.4068
            ],
            "type": "VEC3"
        },
        "accessor_50": {
            "bufferView": "bufferView_193",
            "byteOffset": 10980,
            "byteStride": 12,
            "componentType": 5126,
            "count": 417,
            "max": [
                0.964016,
                1,
                1
            ],
            "min": [
                -0.963626,
                -1,
                -0.961793
            ],
            "type": "VEC3"
        },
        "accessor_78": {
            "bufferView": "bufferView_192",
            "byteOffset": 396,
            "byteStride": 0,
            "componentType": 5123,
            "count": 36,
            "type": "SCALAR"
        },
        "accessor_81": {
            "bufferView": "bufferView_192",
            "byteOffset": 468,
            "byteStride": 0,
            "componentType": 5123,
            "count": 12,
            "type": "SCALAR"
        },
        "accessor_83": {
            "bufferView": "bufferView_193",
            "byteOffset": 3576,
            "byteStride": 12,
            "componentType": 5126,
            "count": 35,
            "max": [
                11.2452,
                3.75,
                12.1713
            ],
            "min": [
                -20.5678,
                -3.75,
                -9.45866
            ],
            "type": "VEC3"
        },
        "accessor_85": {
            "bufferView": "bufferView_193",
            "byteOffset": 3996,
            "byteStride": 12,
            "componentType": 5126,
            "count": 35,
            "max": [
                0.954825,
                1,
                0.952685
            ],
            "min": [
                -0.952664,
                0,
                -0.952578
            ],
            "type": "VEC3"
        }
    },
    "animations": {},
    "asset": {
        "generator": "collada2gltf@cf6371beb0bdc18ba603378d5e40c966da53d385",
        "premultipliedAlpha": true,
        "profile": {
            "api": "WebGL",
            "version": "1.0.2"
        },
        "version": "1.0"
    },
    "bufferViews": {
        "bufferView_192": {
            "buffer": "\\data\\ECNU\\workspace\\gridID_75\\gridID_75",
            "byteLength": 1704,
            "byteOffset": 0,
            "target": 34963
        },
        "bufferView_193": {
            "buffer": "\\data\\ECNU\\workspace\\gridID_75\\gridID_75",
            "byteLength": 15984,
            "byteOffset": 1704,
            "target": 34962
        }
    },
    "buffers": {
        "\\data\\ECNU\\workspace\\gridID_75\\gridID_75": {
            "byteLength": 17688,
            "type": "arraybuffer",
            "uri": "data:application/octet-stream;base64,"
        }
    },
    "materials": {
        "BUILDING_DEFAULT_0-effect": {
            "name": "BUILDING_DEFAULT_0",
            "technique": "technique0",
            "values": {
                "ambient": [
                    0,
                    0,
                    0,
                    1
                ],
                "diffuse": [
                    0.723055,
                    0.708376,
                    0.672443,
                    1
                ],
                "emission": [
                    0,
                    0,
                    0,
                    1
                ],
                "shininess": 50,
                "specular": [
                    0.5,
                    0.5,
                    0.5,
                    1
                ]
            }
        },
        "CONCRETE_0-effect": {
            "name": "CONCRETE_0",
            "technique": "technique0",
            "values": {
                "ambient": [
                    0,
                    0,
                    0,
                    1
                ],
                "diffuse": [
                    0.309469,
                    0.327778,
                    0.309469,
                    1
                ],
                "emission": [
                    0,
                    0,
                    0,
                    1
                ],
                "shininess": 50,
                "specular": [
                    0.5,
                    0.5,
                    0.5,
                    1
                ]
            }
        },
        "GLASS_ROOF_0-effect": {
            "name": "GLASS_ROOF_0",
            "technique": "technique0",
            "values": {
                "ambient": [
                    0,
                    0,
                    0,
                    1
                ],
                "diffuse": [
                    0.708376,
                    0.887923,
                    0.83077,
                    1
                ],
                "emission": [
                    0,
                    0,
                    0,
                    1
                ],
                "shininess": 50,
                "specular": [
                    0.5,
                    0.5,
                    0.5,
                    1
                ]
            }
        },
        "ROOF_DEFAULT_0-effect": {
            "name": "ROOF_DEFAULT_0",
            "technique": "technique0",
            "values": {
                "ambient": [
                    0,
                    0,
                    0,
                    1
                ],
                "diffuse": [
                    0.603827,
                    0.381326,
                    0.291771,
                    1
                ],
                "emission": [
                    0,
                    0,
                    0,
                    1
                ],
                "shininess": 50,
                "specular": [
                    0.5,
                    0.5,
                    0.5,
                    1
                ]
            }
        }
    },
    "meshes": {
        "Building3816-mesh": {
            "name": "Building3816",
            "primitives": [
                {
                    "attributes": {
                        "NORMAL": "accessor_155",
                        "POSITION": "accessor_153"
                    },
                    "indices": "accessor_148",
                    "material": "BUILDING_DEFAULT_0-effect",
                    "mode": 4
                },
                {
                    "attributes": {
                        "NORMAL": "accessor_155",
                        "POSITION": "accessor_153"
                    },
                    "indices": "accessor_151",
                    "material": "CONCRETE_0-effect",
                    "mode": 4
                }
            ]
        },
        "Building3817-mesh": {
            "name": "Building3817",
            "primitives": [
                {
                    "attributes": {
                        "NORMAL": "accessor_190",
                        "POSITION": "accessor_188"
                    },
                    "indices": "accessor_183",
                    "material": "BUILDING_DEFAULT_0-effect",
                    "mode": 4
                },
                {
                    "attributes": {
                        "NORMAL": "accessor_190",
                        "POSITION": "accessor_188"
                    },
                    "indices": "accessor_186",
                    "material": "ROOF_DEFAULT_0-effect",
                    "mode": 4
                }
            ]
        },
        "Building3821-mesh": {
            "name": "Building3821",
            "primitives": [
                {
                    "attributes": {
                        "NORMAL": "accessor_85",
                        "POSITION": "accessor_83"
                    },
                    "indices": "accessor_78",
                    "material": "BUILDING_DEFAULT_0-effect",
                    "mode": 4
                },
                {
                    "attributes": {
                        "NORMAL": "accessor_85",
                        "POSITION": "accessor_83"
                    },
                    "indices": "accessor_81",
                    "material": "ROOF_DEFAULT_0-effect",
                    "mode": 4
                }
            ]
        },
        "Building3996-mesh": {
            "name": "Building3996",
            "primitives": [
                {
                    "attributes": {
                        "NORMAL": "accessor_120",
                        "POSITION": "accessor_118"
                    },
                    "indices": "accessor_113",
                    "material": "GLASS_ROOF_0-effect",
                    "mode": 4
                },
                {
                    "attributes": {
                        "NORMAL": "accessor_120",
                        "POSITION": "accessor_118"
                    },
                    "indices": "accessor_116",
                    "material": "BUILDING_DEFAULT_0-effect",
                    "mode": 4
                }
            ]
        },
        "Building3997-mesh": {
            "name": "Building3997",
            "primitives": [
                {
                    "attributes": {
                        "NORMAL": "accessor_50",
                        "POSITION": "accessor_48"
                    },
                    "indices": "accessor_40",
                    "material": "BUILDING_DEFAULT_0-effect",
                    "mode": 4
                },
                {
                    "attributes": {
                        "NORMAL": "accessor_50",
                        "POSITION": "accessor_48"
                    },
                    "indices": "accessor_43",
                    "material": "ROOF_DEFAULT_0-effect",
                    "mode": 4
                },
                {
                    "attributes": {
                        "NORMAL": "accessor_50",
                        "POSITION": "accessor_48"
                    },
                    "indices": "accessor_46",
                    "material": "CONCRETE_0-effect",
                    "mode": 4
                }
            ]
        }
    },
    "nodes": {
        "model_gridID_75_w375893612": {
            "children": [],
            "matrix": [
                1,
                0,
                0,
                0,
                0,
                -1.62921e-007,
                1,
                0,
                0,
                -1,
                -1.62921e-007,
                0,
                189.186,
                163.594,
                6.79169,
                1
            ],
            "meshes": [
                "Building3997-mesh"
            ],
            "name": "model_gridID_75_w375893612"
        },
        "model_gridID_75_w375893612_001": {
            "children": [],
            "matrix": [
                1,
                0,
                0,
                0,
                0,
                -1.62921e-007,
                1,
                0,
                0,
                -1,
                -1.62921e-007,
                0,
                171.958,
                186.443,
                3.75003,
                1
            ],
            "meshes": [
                "Building3821-mesh"
            ],
            "name": "model_gridID_75_w375893612_001"
        },
        "model_gridID_75_w375893613": {
            "children": [],
            "matrix": [
                1,
                0,
                0,
                0,
                0,
                -1.62921e-007,
                1,
                0,
                0,
                -1,
                -1.62921e-007,
                0,
                205.199,
                144.405,
                2.35002,
                1
            ],
            "meshes": [
                "Building3996-mesh"
            ],
            "name": "model_gridID_75_w375893613"
        },
        "model_gridID_75_w376043950_001": {
            "children": [],
            "matrix": [
                1,
                0,
                0,
                0,
                0,
                -1.62921e-007,
                1,
                0,
                0,
                -1,
                -1.62921e-007,
                0,
                194.568,
                191.767,
                2.973,
                1
            ],
            "meshes": [
                "Building3816-mesh"
            ],
            "name": "model_gridID_75_w376043950_001"
        },
        "model_gridID_75_w376043960_001": {
            "children": [],
            "matrix": [
                1,
                0,
                0,
                0,
                0,
                -1.62921e-007,
                1,
                0,
                0,
                -1,
                -1.62921e-007,
                0,
                182.944,
                189.693,
                3.75003,
                1
            ],
            "meshes": [
                "Building3817-mesh"
            ],
            "name": "model_gridID_75_w376043960_001"
        },
        "node_5": {
            "children": [
                "model_gridID_75_w375893612",
                "model_gridID_75_w375893612_001",
                "model_gridID_75_w375893613",
                "model_gridID_75_w376043950_001",
                "model_gridID_75_w376043960_001"
            ],
            "matrix": [
                1,
                0,
                0,
                0,
                0,
                0,
                -1,
                0,
                0,
                1,
                0,
                0,
                0,
                0,
                0,
                1
            ],
            "name": "Y_UP_Transform"
        }
    },
    "programs": {
        "program_0": {
            "attributes": [
                "a_normal",
                "a_position"
            ],
            "fragmentShader": "\\data\\ECNU\\workspace\\gridID_75\\gridID_750FS",
            "vertexShader": "\\data\\ECNU\\workspace\\gridID_75\\gridID_750VS"
        }
    },
    "scene": "defaultScene",
    "scenes": {
        "defaultScene": {
            "nodes": [
                "node_5"
            ]
        }
    },
    "shaders": {
        "\\data\\ECNU\\workspace\\gridID_75\\gridID_750FS": {
            "type": 35632,
            "uri": "data:text/plain;base64,"
        },
        "\\data\\ECNU\\workspace\\gridID_75\\gridID_750VS": {
            "type": 35633,
            "uri": "data:text/plain;base64,"
        }
    },
    "skins": {},
    "techniques": {
        "technique0": {
            "attributes": {
                "a_normal": "normal",
                "a_position": "position"
            },
            "parameters": {
                "ambient": {
                    "type": 35666
                },
                "diffuse": {
                    "type": 35666
                },
                "emission": {
                    "type": 35666
                },
                "modelViewMatrix": {
                    "semantic": "MODELVIEW",
                    "type": 35676
                },
                "normal": {
                    "semantic": "NORMAL",
                    "type": 35665
                },
                "normalMatrix": {
                    "semantic": "MODELVIEWINVERSETRANSPOSE",
                    "type": 35675
                },
                "position": {
                    "semantic": "POSITION",
                    "type": 35665
                },
                "projectionMatrix": {
                    "semantic": "PROJECTION",
                    "type": 35676
                },
                "shininess": {
                    "type": 5126
                },
                "specular": {
                    "type": 35666
                }
            },
            "program": "program_0",
            "states": {
                "enable": [
                    2929,
                    2884
                ]
            },
            "uniforms": {
                "u_ambient": "ambient",
                "u_diffuse": "diffuse",
                "u_emission": "emission",
                "u_modelViewMatrix": "modelViewMatrix",
                "u_normalMatrix": "normalMatrix",
                "u_projectionMatrix": "projectionMatrix",
                "u_shininess": "shininess",
                "u_specular": "specular"
            }
        }
    }
}