{"accessors":{"accessor_16":{"bufferView":"bufferView_62","byteOffset":0,"byteStride":0,"componentType":5123,"count":39,"type":"SCALAR"},"accessor_18":{"bufferView":"bufferView_63","byteOffset":0,"byteStride":12,"componentType":5126,"count":37,"max":[42.9338,-55.8615,55.2329],"min":[36.9245,-64.0935,1.02861],"type":"VEC3"},"accessor_20":{"bufferView":"bufferView_63","byteOffset":444,"byteStride":12,"componentType":5126,"count":37,"max":[0.960791,0.947269,1],"min":[-0.858352,-0.642178,0],"type":"VEC3"},"accessor_36":{"bufferView":"bufferView_62","byteOffset":78,"byteStride":0,"componentType":5123,"count":69,"type":"SCALAR"},"accessor_38":{"bufferView":"bufferView_63","byteOffset":888,"byteStride":12,"componentType":5126,"count":65,"max":[55.4957,12.824,63.4391],"min":[41.6199,-13.0811,0.557808],"type":"VEC3"},"accessor_40":{"bufferView":"bufferView_63","byteOffset":1668,"byteStride":12,"componentType":5126,"count":65,"max":[0.975303,0.974798,1],"min":[-0.975345,-0.97483,0],"type":"VEC3"},"accessor_56":{"bufferView":"bufferView_62","byteOffset":216,"byteStride":0,"componentType":5123,"count":4143,"type":"SCALAR"},"accessor_58":{"bufferView":"bufferView_63","byteOffset":2448,"byteStride":12,"componentType":5126,"count":3683,"max":[46.8702,18.8414,63.6631],"min":[-64.4258,-142.649,-0.231628],"type":"VEC3"},"accessor_60":{"bufferView":"bufferView_63","byteOffset":46644,"byteStride":12,"componentType":5126,"count":3683,"max":[0.980059,0.992867,1],"min":[-0.983794,-0.997188,-1],"type":"VEC3"},"accessor_b0":{"bufferView":"bufferView_b","byteOffset":0,"byteStride":0,"componentType":5123,"count":37,"type":"SCALAR"},"accessor_b1":{"bufferView":"bufferView_b","byteOffset":74,"byteStride":0,"componentType":5123,"count":65,"type":"SCALAR"},"accessor_b2":{"bufferView":"bufferView_b","byteOffset":204,"byteStride":0,"componentType":5123,"count":3683,"type":"SCALAR"}},"animations":{},"asset":{"generator":"collada2gltf@cf6371beb0bdc18ba603378d5e40c966da53d385","premultipliedAlpha":true,"profile":{"api":"WebGL","version":"1.0.2"},"version":"1.0"},"bufferViews":{"bufferView_62":{"buffer":"\\data\\3dcity\\miami\\workspace\\gridID_59\\gridID_59_high","byteLength":8504,"byteOffset":0,"target":34963},"bufferView_63":{"buffer":"\\data\\3dcity\\miami\\workspace\\gridID_59\\gridID_59_high","byteLength":90840,"byteOffset":8504,"target":34962},"bufferView_b":{"buffer":"buffer_b","byteLength":7570,"byteOffset":0,"target":34962}},"buffers":{"\\data\\3dcity\\miami\\workspace\\gridID_59\\gridID_59_high":{"byteLength":99344,"type":"arraybuffer","uri":"data:application/octet-stream;base64,"},"buffer_b":{"type":"arraybuffer","byteLength":7570,"uri":"data:application/octet-stream;base64,"}},"materials":{"__glTF__defaultMaterial0":{"name":"__glTF__defaultMaterial0","technique":"technique0","values":{"diffuse":[1,1,1,1]}}},"meshes":{"multipatch_footprint_625-mesh":{"name":"multipatch_footprint.625","primitives":[{"attributes":{"NORMAL":"accessor_20","POSITION":"accessor_18","BATCHID":"accessor_b0"},"indices":"accessor_16","material":"__glTF__defaultMaterial0","mode":4}]},"multipatch_footprint_660-mesh":{"name":"multipatch_footprint.660","primitives":[{"attributes":{"NORMAL":"accessor_40","POSITION":"accessor_38","BATCHID":"accessor_b1"},"indices":"accessor_36","material":"__glTF__defaultMaterial0","mode":4}]},"multipatch_footprint_667-mesh":{"name":"multipatch_footprint.667","primitives":[{"attributes":{"NORMAL":"accessor_60","POSITION":"accessor_58","BATCHID":"accessor_b2"},"indices":"accessor_56","material":"__glTF__defaultMaterial0","mode":4}]}},"nodes":{"gridID_59_w300204845_join":{"children":[],"matrix":[1,0,0,0,0,1,0,0,0,0,1,0,0.000366211,0.000335693,0,1],"meshes":["multipatch_footprint_660-mesh"],"name":"gridID_59_w300204845_join"},"gridID_59_w300204847_join":{"children":[],"matrix":[1,0,0,0,0,1,0,0,0,0,1,0,0.000366211,0.000335693,0,1],"meshes":["multipatch_footprint_625-mesh"],"name":"gridID_59_w300204847_join"},"gridID_59_w300204849_join":{"children":[],"matrix":[1,0,0,0,0,1,0,0,0,0,1,0,0.000366211,0.000335693,0,1],"meshes":["multipatch_footprint_667-mesh"],"name":"gridID_59_w300204849_join"},"node_3":{"children":["gridID_59_w300204847_join","gridID_59_w300204845_join","gridID_59_w300204849_join"],"matrix":[1,0,0,0,0,0,-1,0,0,1,0,0,0,0,0,1],"name":"Y_UP_Transform"}},"programs":{"program_0":{"attributes":["a_normal","a_position","a_batchId"],"fragmentShader":"\\data\\3dcity\\miami\\workspace\\gridID_59\\gridID_59_high0FS","vertexShader":"\\data\\3dcity\\miami\\workspace\\gridID_59\\gridID_59_high0VS"}},"scene":"defaultScene","scenes":{"defaultScene":{"nodes":["node_3"]}},"shaders":{"\\data\\3dcity\\miami\\workspace\\gridID_59\\gridID_59_high0FS":{"type":35632,"uri":"data:text/plain;base64,"},"\\data\\3dcity\\miami\\workspace\\gridID_59\\gridID_59_high0VS":{"type":35633,"uri":"data:text/plain;base64,"}},"skins":{},"techniques":{"technique0":{"attributes":{"a_normal":"normal","a_position":"position","a_batchId":"batchId"},"parameters":{"diffuse":{"type":35666},"modelViewMatrix":{"semantic":"MODELVIEW","type":35676},"normal":{"semantic":"NORMAL","type":35665},"normalMatrix":{"semantic":"MODELVIEWINVERSETRANSPOSE","type":35675},"position":{"semantic":"POSITION","type":35665},"projectionMatrix":{"semantic":"PROJECTION","type":35676},"batchId":{"semantic":"BATCHID","type":5126}},"program":"program_0","states":{"enable":[2929,2884]},"uniforms":{"u_diffuse":"diffuse","u_modelViewMatrix":"modelViewMatrix","u_normalMatrix":"normalMatrix","u_projectionMatrix":"projectionMatrix"}}}}