{
    "accessors": {
        "accessor_100": {
            "bufferView": "bufferView_103",
            "byteOffset": 7128,
            "byteStride": 12,
            "componentType": 5126,
            "count": 118,
            "max": [
                0.984567,
                1,
                0.972488
            ],
            "min": [
                -0.995848,
                -1,
                -0.976479
            ],
            "type": "VEC3"
        },
        "accessor_16": {
            "bufferView": "bufferView_102",
            "byteOffset": 0,
            "byteStride": 0,
            "componentType": 5123,
            "count": 96,
            "type": "SCALAR"
        },
        "accessor_18": {
            "bufferView": "bufferView_103",
            "byteOffset": 0,
            "byteStride": 12,
            "componentType": 5126,
            "count": 71,
            "max": [
                5.70299,
                126,
                76.4563
            ],
            "min": [
                -48.376,
                0,
                4.95168
            ],
            "type": "VEC3"
        },
        "accessor_20": {
            "bufferView": "bufferView_103",
            "byteOffset": 852,
            "byteStride": 12,
            "componentType": 5126,
            "count": 71,
            "max": [
                0.979874,
                1,
                0.983739
            ],
            "min": [
                -0.998338,
                -1,
                -0.982628
            ],
            "type": "VEC3"
        },
        "accessor_36": {
            "bufferView": "bufferView_102",
            "byteOffset": 192,
            "byteStride": 0,
            "componentType": 5123,
            "count": 60,
            "type": "SCALAR"
        },
        "accessor_38": {
            "bufferView": "bufferView_103",
            "byteOffset": 1704,
            "byteStride": 12,
            "componentType": 5126,
            "count": 48,
            "max": [
                36.494,
                10,
                85.5659
            ],
            "min": [
                -22.8839,
                0,
                12.4915
            ],
            "type": "VEC3"
        },
        "accessor_40": {
            "bufferView": "bufferView_103",
            "byteOffset": 2280,
            "byteStride": 12,
            "componentType": 5126,
            "count": 48,
            "max": [
                0.975834,
                1,
                0.977215
            ],
            "min": [
                -0.979874,
                -1,
                -0.983739
            ],
            "type": "VEC3"
        },
        "accessor_56": {
            "bufferView": "bufferView_102",
            "byteOffset": 312,
            "byteStride": 0,
            "componentType": 5123,
            "count": 36,
            "type": "SCALAR"
        },
        "accessor_58": {
            "bufferView": "bufferView_103",
            "byteOffset": 2856,
            "byteStride": 12,
            "componentType": 5126,
            "count": 30,
            "max": [
                96.6621,
                10,
                99.0386
            ],
            "min": [
                22.8128,
                0,
                24.4687
            ],
            "type": "VEC3"
        },
        "accessor_60": {
            "bufferView": "bufferView_103",
            "byteOffset": 3216,
            "byteStride": 12,
            "componentType": 5126,
            "count": 30,
            "max": [
                0.975872,
                1,
                0.975844
            ],
            "min": [
                -0.975834,
                -1,
                -0.975835
            ],
            "type": "VEC3"
        },
        "accessor_76": {
            "bufferView": "bufferView_102",
            "byteOffset": 384,
            "byteStride": 0,
            "componentType": 5123,
            "count": 108,
            "type": "SCALAR"
        },
        "accessor_78": {
            "bufferView": "bufferView_103",
            "byteOffset": 3576,
            "byteStride": 12,
            "componentType": 5126,
            "count": 89,
            "max": [
                38.1526,
                94.5,
                -9.12682
            ],
            "min": [
                -24.3978,
                0,
                -58.3955
            ],
            "type": "VEC3"
        },
        "accessor_80": {
            "bufferView": "bufferView_103",
            "byteOffset": 4644,
            "byteStride": 12,
            "componentType": 5126,
            "count": 89,
            "max": [
                0.995848,
                1,
                0.975237
            ],
            "min": [
                -0.972887,
                -1,
                -0.972635
            ],
            "type": "VEC3"
        },
        "accessor_96": {
            "bufferView": "bufferView_102",
            "byteOffset": 600,
            "byteStride": 0,
            "componentType": 5123,
            "count": 180,
            "type": "SCALAR"
        },
        "accessor_98": {
            "bufferView": "bufferView_103",
            "byteOffset": 5712,
            "byteStride": 12,
            "componentType": 5126,
            "count": 118,
            "max": [
                141.368,
                10,
                25.5441
            ],
            "min": [
                -11.2621,
                0,
                -59.3472
            ],
            "type": "VEC3"
        }
    },
    "animations": {},
    "asset": {
        "generator": "collada2gltf@cf6371beb0bdc18ba603378d5e40c966da53d385",
        "premultipliedAlpha": true,
        "profile": {
            "api": "WebGL",
            "version": "1.0.2"
        },
        "version": "1.0"
    },
    "bufferViews": {
        "bufferView_102": {
            "buffer": "\\data\\3dcity\\miami\\workspace\\gridID_30\\gridID_30",
            "byteLength": 960,
            "byteOffset": 0,
            "target": 34963
        },
        "bufferView_103": {
            "buffer": "\\data\\3dcity\\miami\\workspace\\gridID_30\\gridID_30",
            "byteLength": 8544,
            "byteOffset": 960,
            "target": 34962
        }
    },
    "buffers": {
        "\\data\\3dcity\\miami\\workspace\\gridID_30\\gridID_30": {
            "byteLength": 9504,
            "type": "arraybuffer",
            "uri": "data:application/octet-stream;base64,"
        }
    },
    "materials": {
        "CityEngineMaterial_386-effect": {
            "name": "CityEngineMaterial_386",
            "technique": "technique0",
            "values": {
                "ambient": [
                    1,
                    1,
                    1,
                    1
                ],
                "diffuse": [
                    1,
                    1,
                    1,
                    1
                ],
                "emission": [
                    0,
                    0,
                    0,
                    1
                ],
                "shininess": 50,
                "specular": [
                    0.5,
                    0.5,
                    0.5,
                    1
                ]
            }
        },
        "CityEngineMaterial_387-effect": {
            "name": "CityEngineMaterial_387",
            "technique": "technique0",
            "values": {
                "ambient": [
                    1,
                    1,
                    1,
                    1
                ],
                "diffuse": [
                    1,
                    1,
                    1,
                    1
                ],
                "emission": [
                    0,
                    0,
                    0,
                    1
                ],
                "shininess": 50,
                "specular": [
                    0.5,
                    0.5,
                    0.5,
                    1
                ]
            }
        },
        "CityEngineMaterial_388-effect": {
            "name": "CityEngineMaterial_388",
            "technique": "technique0",
            "values": {
                "ambient": [
                    1,
                    1,
                    1,
                    1
                ],
                "diffuse": [
                    1,
                    1,
                    1,
                    1
                ],
                "emission": [
                    0,
                    0,
                    0,
                    1
                ],
                "shininess": 50,
                "specular": [
                    0.5,
                    0.5,
                    0.5,
                    1
                ]
            }
        },
        "CityEngineMaterial_389-effect": {
            "name": "CityEngineMaterial_389",
            "technique": "technique0",
            "values": {
                "ambient": [
                    1,
                    1,
                    1,
                    1
                ],
                "diffuse": [
                    1,
                    1,
                    1,
                    1
                ],
                "emission": [
                    0,
                    0,
                    0,
                    1
                ],
                "shininess": 50,
                "specular": [
                    0.5,
                    0.5,
                    0.5,
                    1
                ]
            }
        },
        "CityEngineMaterial_390-effect": {
            "name": "CityEngineMaterial_390",
            "technique": "technique0",
            "values": {
                "ambient": [
                    1,
                    1,
                    1,
                    1
                ],
                "diffuse": [
                    1,
                    1,
                    1,
                    1
                ],
                "emission": [
                    0,
                    0,
                    0,
                    1
                ],
                "shininess": 50,
                "specular": [
                    0.5,
                    0.5,
                    0.5,
                    1
                ]
            }
        }
    },
    "meshes": {
        "mesh_CityEngineMaterial_384-mesh": {
            "name": "mesh_CityEngineMaterial.384",
            "primitives": [
                {
                    "attributes": {
                        "NORMAL": "accessor_20",
                        "POSITION": "accessor_18"
                    },
                    "indices": "accessor_16",
                    "material": "CityEngineMaterial_386-effect",
                    "mode": 4
                }
            ]
        },
        "mesh_CityEngineMaterial_385-mesh": {
            "name": "mesh_CityEngineMaterial.385",
            "primitives": [
                {
                    "attributes": {
                        "NORMAL": "accessor_40",
                        "POSITION": "accessor_38"
                    },
                    "indices": "accessor_36",
                    "material": "CityEngineMaterial_387-effect",
                    "mode": 4
                }
            ]
        },
        "mesh_CityEngineMaterial_386-mesh": {
            "name": "mesh_CityEngineMaterial.386",
            "primitives": [
                {
                    "attributes": {
                        "NORMAL": "accessor_60",
                        "POSITION": "accessor_58"
                    },
                    "indices": "accessor_56",
                    "material": "CityEngineMaterial_388-effect",
                    "mode": 4
                }
            ]
        },
        "mesh_CityEngineMaterial_387-mesh": {
            "name": "mesh_CityEngineMaterial.387",
            "primitives": [
                {
                    "attributes": {
                        "NORMAL": "accessor_80",
                        "POSITION": "accessor_78"
                    },
                    "indices": "accessor_76",
                    "material": "CityEngineMaterial_389-effect",
                    "mode": 4
                }
            ]
        },
        "mesh_CityEngineMaterial_388-mesh": {
            "name": "mesh_CityEngineMaterial.388",
            "primitives": [
                {
                    "attributes": {
                        "NORMAL": "accessor_100",
                        "POSITION": "accessor_98"
                    },
                    "indices": "accessor_96",
                    "material": "CityEngineMaterial_390-effect",
                    "mode": 4
                }
            ]
        }
    },
    "nodes": {
        "CityEngineMaterial": {
            "children": [],
            "matrix": [
                1,
                0,
                0,
                0,
                0,
                -1.62921e-007,
                1,
                0,
                0,
                -1,
                -1.62921e-007,
                0,
                0,
                0,
                0,
                1
            ],
            "meshes": [
                "mesh_CityEngineMaterial_384-mesh"
            ],
            "name": "CityEngineMaterial"
        },
        "CityEngineMaterial_001": {
            "children": [],
            "matrix": [
                1,
                0,
                0,
                0,
                0,
                -1.62921e-007,
                1,
                0,
                0,
                -1,
                -1.62921e-007,
                0,
                0,
                0,
                0,
                1
            ],
            "meshes": [
                "mesh_CityEngineMaterial_385-mesh"
            ],
            "name": "CityEngineMaterial_001"
        },
        "CityEngineMaterial_002": {
            "children": [],
            "matrix": [
                1,
                0,
                0,
                0,
                0,
                -1.62921e-007,
                1,
                0,
                0,
                -1,
                -1.62921e-007,
                0,
                0,
                0,
                0,
                1
            ],
            "meshes": [
                "mesh_CityEngineMaterial_386-mesh"
            ],
            "name": "CityEngineMaterial_002"
        },
        "CityEngineMaterial_003": {
            "children": [],
            "matrix": [
                1,
                0,
                0,
                0,
                0,
                -1.62921e-007,
                1,
                0,
                0,
                -1,
                -1.62921e-007,
                0,
                0,
                0,
                0,
                1
            ],
            "meshes": [
                "mesh_CityEngineMaterial_387-mesh"
            ],
            "name": "CityEngineMaterial_003"
        },
        "CityEngineMaterial_004": {
            "children": [],
            "matrix": [
                1,
                0,
                0,
                0,
                0,
                -1.62921e-007,
                1,
                0,
                0,
                -1,
                -1.62921e-007,
                0,
                0,
                0,
                0,
                1
            ],
            "meshes": [
                "mesh_CityEngineMaterial_388-mesh"
            ],
            "name": "CityEngineMaterial_004"
        },
        "node_5": {
            "children": [
                "CityEngineMaterial",
                "CityEngineMaterial_001",
                "CityEngineMaterial_002",
                "CityEngineMaterial_003",
                "CityEngineMaterial_004"
            ],
            "matrix": [
                1,
                0,
                0,
                0,
                0,
                0,
                -1,
                0,
                0,
                1,
                0,
                0,
                0,
                0,
                0,
                1
            ],
            "name": "Y_UP_Transform"
        }
    },
    "programs": {
        "program_0": {
            "attributes": [
                "a_normal",
                "a_position"
            ],
            "fragmentShader": "\\data\\3dcity\\miami\\workspace\\gridID_30\\gridID_300FS",
            "vertexShader": "\\data\\3dcity\\miami\\workspace\\gridID_30\\gridID_300VS"
        }
    },
    "scene": "defaultScene",
    "scenes": {
        "defaultScene": {
            "nodes": [
                "node_5"
            ]
        }
    },
    "shaders": {
        "\\data\\3dcity\\miami\\workspace\\gridID_30\\gridID_300FS": {
            "type": 35632,
            "uri": "data:text/plain;base64,"
        },
        "\\data\\3dcity\\miami\\workspace\\gridID_30\\gridID_300VS": {
            "type": 35633,
            "uri": "data:text/plain;base64,"
        }
    },
    "skins": {},
    "techniques": {
        "technique0": {
            "attributes": {
                "a_normal": "normal",
                "a_position": "position"
            },
            "parameters": {
                "ambient": {
                    "type": 35666
                },
                "diffuse": {
                    "type": 35666
                },
                "emission": {
                    "type": 35666
                },
                "modelViewMatrix": {
                    "semantic": "MODELVIEW",
                    "type": 35676
                },
                "normal": {
                    "semantic": "NORMAL",
                    "type": 35665
                },
                "normalMatrix": {
                    "semantic": "MODELVIEWINVERSETRANSPOSE",
                    "type": 35675
                },
                "position": {
                    "semantic": "POSITION",
                    "type": 35665
                },
                "projectionMatrix": {
                    "semantic": "PROJECTION",
                    "type": 35676
                },
                "shininess": {
                    "type": 5126
                },
                "specular": {
                    "type": 35666
                }
            },
            "program": "program_0",
            "states": {
                "enable": [
                    2929,
                    2884
                ]
            },
            "uniforms": {
                "u_ambient": "ambient",
                "u_diffuse": "diffuse",
                "u_emission": "emission",
                "u_modelViewMatrix": "modelViewMatrix",
                "u_normalMatrix": "normalMatrix",
                "u_projectionMatrix": "projectionMatrix",
                "u_shininess": "shininess",
                "u_specular": "specular"
            }
        }
    }
}