{
    "accessors": {
        "accessor_16": {
            "bufferView": "bufferView_82",
            "byteOffset": 0,
            "byteStride": 0,
            "componentType": 5123,
            "count": 60,
            "type": "SCALAR"
        },
        "accessor_18": {
            "bufferView": "bufferView_83",
            "byteOffset": 0,
            "byteStride": 12,
            "componentType": 5126,
            "count": 51,
            "max": [
                90.7976,
                203,
                -19.6089
            ],
            "min": [
                3.43397,
                0,
                -67.3723
            ],
            "type": "VEC3"
        },
        "accessor_20": {
            "bufferView": "bufferView_83",
            "byteOffset": 612,
            "byteStride": 12,
            "componentType": 5126,
            "count": 51,
            "max": [
                0.937218,
                1,
                0.969375
            ],
            "min": [
                -0.930949,
                -1,
                -0.971178
            ],
            "type": "VEC3"
        },
        "accessor_36": {
            "bufferView": "bufferView_82",
            "byteOffset": 120,
            "byteStride": 0,
            "componentType": 5123,
            "count": 324,
            "type": "SCALAR"
        },
        "accessor_38": {
            "bufferView": "bufferView_83",
            "byteOffset": 1224,
            "byteStride": 12,
            "componentType": 5126,
            "count": 204,
            "max": [
                -5.27115,
                10,
                56.9928
            ],
            "min": [
                -116.145,
                0,
                -5.88806
            ],
            "type": "VEC3"
        },
        "accessor_40": {
            "bufferView": "bufferView_83",
            "byteOffset": 3672,
            "byteStride": 12,
            "componentType": 5126,
            "count": 204,
            "max": [
                0.970682,
                1,
                0.970613
            ],
            "min": [
                -0.970654,
                -1,
                -0.970775
            ],
            "type": "VEC3"
        },
        "accessor_56": {
            "bufferView": "bufferView_82",
            "byteOffset": 768,
            "byteStride": 0,
            "componentType": 5123,
            "count": 72,
            "type": "SCALAR"
        },
        "accessor_58": {
            "bufferView": "bufferView_83",
            "byteOffset": 6120,
            "byteStride": 12,
            "componentType": 5126,
            "count": 50,
            "max": [
                -42.4296,
                10,
                -58.6454
            ],
            "min": [
                -60.0515,
                0,
                -83.5778
            ],
            "type": "VEC3"
        },
        "accessor_60": {
            "bufferView": "bufferView_83",
            "byteOffset": 6720,
            "byteStride": 12,
            "componentType": 5126,
            "count": 50,
            "max": [
                0.99971,
                1,
                0.999778
            ],
            "min": [
                -1,
                -1,
                -0.984176
            ],
            "type": "VEC3"
        },
        "accessor_76": {
            "bufferView": "bufferView_82",
            "byteOffset": 912,
            "byteStride": 0,
            "componentType": 5123,
            "count": 36,
            "type": "SCALAR"
        },
        "accessor_78": {
            "bufferView": "bufferView_83",
            "byteOffset": 7320,
            "byteStride": 12,
            "componentType": 5126,
            "count": 24,
            "max": [
                -12.9745,
                8,
                -39.09
            ],
            "min": [
                -19.1193,
                0,
                -44.7267
            ],
            "type": "VEC3"
        },
        "accessor_80": {
            "bufferView": "bufferView_83",
            "byteOffset": 7608,
            "byteStride": 12,
            "componentType": 5126,
            "count": 24,
            "max": [
                0.975053,
                1,
                0.987227
            ],
            "min": [
                -0.978978,
                -1,
                -0.9744
            ],
            "type": "VEC3"
        }
    },
    "animations": {},
    "asset": {
        "generator": "collada2gltf@cf6371beb0bdc18ba603378d5e40c966da53d385",
        "premultipliedAlpha": true,
        "profile": {
            "api": "WebGL",
            "version": "1.0.2"
        },
        "version": "1.0"
    },
    "bufferViews": {
        "bufferView_82": {
            "buffer": "\\data\\3dcity\\miami\\workspace\\gridID_76\\gridID_76",
            "byteLength": 984,
            "byteOffset": 0,
            "target": 34963
        },
        "bufferView_83": {
            "buffer": "\\data\\3dcity\\miami\\workspace\\gridID_76\\gridID_76",
            "byteLength": 7896,
            "byteOffset": 984,
            "target": 34962
        }
    },
    "buffers": {
        "\\data\\3dcity\\miami\\workspace\\gridID_76\\gridID_76": {
            "byteLength": 8880,
            "type": "arraybuffer",
            "uri": "data:application/octet-stream;base64,"
        }
    },
    "materials": {
        "CityEngineMaterial_639-effect": {
            "name": "CityEngineMaterial_639",
            "technique": "technique0",
            "values": {
                "ambient": [
                    1,
                    1,
                    1,
                    1
                ],
                "diffuse": [
                    1,
                    1,
                    1,
                    1
                ],
                "emission": [
                    0,
                    0,
                    0,
                    1
                ],
                "shininess": 50,
                "specular": [
                    0.5,
                    0.5,
                    0.5,
                    1
                ]
            }
        },
        "CityEngineMaterial_640-effect": {
            "name": "CityEngineMaterial_640",
            "technique": "technique0",
            "values": {
                "ambient": [
                    1,
                    1,
                    1,
                    1
                ],
                "diffuse": [
                    1,
                    1,
                    1,
                    1
                ],
                "emission": [
                    0,
                    0,
                    0,
                    1
                ],
                "shininess": 50,
                "specular": [
                    0.5,
                    0.5,
                    0.5,
                    1
                ]
            }
        },
        "CityEngineMaterial_641-effect": {
            "name": "CityEngineMaterial_641",
            "technique": "technique0",
            "values": {
                "ambient": [
                    1,
                    1,
                    1,
                    1
                ],
                "diffuse": [
                    1,
                    1,
                    1,
                    1
                ],
                "emission": [
                    0,
                    0,
                    0,
                    1
                ],
                "shininess": 50,
                "specular": [
                    0.5,
                    0.5,
                    0.5,
                    1
                ]
            }
        },
        "CityEngineMaterial_642-effect": {
            "name": "CityEngineMaterial_642",
            "technique": "technique0",
            "values": {
                "ambient": [
                    1,
                    1,
                    1,
                    1
                ],
                "diffuse": [
                    1,
                    1,
                    1,
                    1
                ],
                "emission": [
                    0,
                    0,
                    0,
                    1
                ],
                "shininess": 50,
                "specular": [
                    0.5,
                    0.5,
                    0.5,
                    1
                ]
            }
        }
    },
    "meshes": {
        "mesh_CityEngineMaterial_637-mesh": {
            "name": "mesh_CityEngineMaterial.637",
            "primitives": [
                {
                    "attributes": {
                        "NORMAL": "accessor_20",
                        "POSITION": "accessor_18"
                    },
                    "indices": "accessor_16",
                    "material": "CityEngineMaterial_639-effect",
                    "mode": 4
                }
            ]
        },
        "mesh_CityEngineMaterial_638-mesh": {
            "name": "mesh_CityEngineMaterial.638",
            "primitives": [
                {
                    "attributes": {
                        "NORMAL": "accessor_40",
                        "POSITION": "accessor_38"
                    },
                    "indices": "accessor_36",
                    "material": "CityEngineMaterial_640-effect",
                    "mode": 4
                }
            ]
        },
        "mesh_CityEngineMaterial_639-mesh": {
            "name": "mesh_CityEngineMaterial.639",
            "primitives": [
                {
                    "attributes": {
                        "NORMAL": "accessor_60",
                        "POSITION": "accessor_58"
                    },
                    "indices": "accessor_56",
                    "material": "CityEngineMaterial_641-effect",
                    "mode": 4
                }
            ]
        },
        "mesh_CityEngineMaterial_640-mesh": {
            "name": "mesh_CityEngineMaterial.640",
            "primitives": [
                {
                    "attributes": {
                        "NORMAL": "accessor_80",
                        "POSITION": "accessor_78"
                    },
                    "indices": "accessor_76",
                    "material": "CityEngineMaterial_642-effect",
                    "mode": 4
                }
            ]
        }
    },
    "nodes": {
        "CityEngineMaterial": {
            "children": [],
            "matrix": [
                1,
                0,
                0,
                0,
                0,
                -1.62921e-007,
                1,
                0,
                0,
                -1,
                -1.62921e-007,
                0,
                0,
                0,
                0,
                1
            ],
            "meshes": [
                "mesh_CityEngineMaterial_637-mesh"
            ],
            "name": "CityEngineMaterial"
        },
        "CityEngineMaterial_001": {
            "children": [],
            "matrix": [
                1,
                0,
                0,
                0,
                0,
                -1.62921e-007,
                1,
                0,
                0,
                -1,
                -1.62921e-007,
                0,
                0,
                0,
                0,
                1
            ],
            "meshes": [
                "mesh_CityEngineMaterial_638-mesh"
            ],
            "name": "CityEngineMaterial_001"
        },
        "CityEngineMaterial_002": {
            "children": [],
            "matrix": [
                1,
                0,
                0,
                0,
                0,
                -1.62921e-007,
                1,
                0,
                0,
                -1,
                -1.62921e-007,
                0,
                0,
                0,
                0,
                1
            ],
            "meshes": [
                "mesh_CityEngineMaterial_639-mesh"
            ],
            "name": "CityEngineMaterial_002"
        },
        "CityEngineMaterial_003": {
            "children": [],
            "matrix": [
                1,
                0,
                0,
                0,
                0,
                -1.62921e-007,
                1,
                0,
                0,
                -1,
                -1.62921e-007,
                0,
                0,
                0,
                0,
                1
            ],
            "meshes": [
                "mesh_CityEngineMaterial_640-mesh"
            ],
            "name": "CityEngineMaterial_003"
        },
        "node_4": {
            "children": [
                "CityEngineMaterial",
                "CityEngineMaterial_001",
                "CityEngineMaterial_002",
                "CityEngineMaterial_003"
            ],
            "matrix": [
                1,
                0,
                0,
                0,
                0,
                0,
                -1,
                0,
                0,
                1,
                0,
                0,
                0,
                0,
                0,
                1
            ],
            "name": "Y_UP_Transform"
        }
    },
    "programs": {
        "program_0": {
            "attributes": [
                "a_normal",
                "a_position"
            ],
            "fragmentShader": "\\data\\3dcity\\miami\\workspace\\gridID_76\\gridID_760FS",
            "vertexShader": "\\data\\3dcity\\miami\\workspace\\gridID_76\\gridID_760VS"
        }
    },
    "scene": "defaultScene",
    "scenes": {
        "defaultScene": {
            "nodes": [
                "node_4"
            ]
        }
    },
    "shaders": {
        "\\data\\3dcity\\miami\\workspace\\gridID_76\\gridID_760FS": {
            "type": 35632,
            "uri": "data:text/plain;base64,"
        },
        "\\data\\3dcity\\miami\\workspace\\gridID_76\\gridID_760VS": {
            "type": 35633,
            "uri": "data:text/plain;base64,"
        }
    },
    "skins": {},
    "techniques": {
        "technique0": {
            "attributes": {
                "a_normal": "normal",
                "a_position": "position"
            },
            "parameters": {
                "ambient": {
                    "type": 35666
                },
                "diffuse": {
                    "type": 35666
                },
                "emission": {
                    "type": 35666
                },
                "modelViewMatrix": {
                    "semantic": "MODELVIEW",
                    "type": 35676
                },
                "normal": {
                    "semantic": "NORMAL",
                    "type": 35665
                },
                "normalMatrix": {
                    "semantic": "MODELVIEWINVERSETRANSPOSE",
                    "type": 35675
                },
                "position": {
                    "semantic": "POSITION",
                    "type": 35665
                },
                "projectionMatrix": {
                    "semantic": "PROJECTION",
                    "type": 35676
                },
                "shininess": {
                    "type": 5126
                },
                "specular": {
                    "type": 35666
                }
            },
            "program": "program_0",
            "states": {
                "enable": [
                    2929,
                    2884
                ]
            },
            "uniforms": {
                "u_ambient": "ambient",
                "u_diffuse": "diffuse",
                "u_emission": "emission",
                "u_modelViewMatrix": "modelViewMatrix",
                "u_normalMatrix": "normalMatrix",
                "u_projectionMatrix": "projectionMatrix",
                "u_shininess": "shininess",
                "u_specular": "specular"
            }
        }
    }
}