{"accessors":{"accessor_100":{"bufferView":"bufferView_103","byteOffset":52716,"byteStride":12,"componentType":5126,"count":551,"max":[0.98906,0.988795,1],"min":[-0.989068,-0.988854,0],"type":"VEC3"},"accessor_16":{"bufferView":"bufferView_102","byteOffset":5388,"byteStride":0,"componentType":5123,"count":408,"type":"SCALAR"},"accessor_18":{"bufferView":"bufferView_103","byteOffset":59328,"byteStride":12,"componentType":5126,"count":384,"max":[-22.232,-57.3951,146.714],"min":[-50.7898,-101.423,0.490322],"type":"VEC3"},"accessor_20":{"bufferView":"bufferView_103","byteOffset":63936,"byteStride":12,"componentType":5126,"count":384,"max":[0.987908,0.992179,1],"min":[-0.974324,-0.97378,0],"type":"VEC3"},"accessor_36":{"bufferView":"bufferView_102","byteOffset":6204,"byteStride":0,"componentType":5123,"count":1191,"type":"SCALAR"},"accessor_38":{"bufferView":"bufferView_103","byteOffset":68544,"byteStride":12,"componentType":5126,"count":1067,"max":[-16.3708,-13.7007,128.226],"min":[-129.091,-94.8588,0.154297],"type":"VEC3"},"accessor_40":{"bufferView":"bufferView_103","byteOffset":81348,"byteStride":12,"componentType":5126,"count":1067,"max":[0.999977,0.993003,1],"min":[-0.9861,-0.985783,0],"type":"VEC3"},"accessor_56":{"bufferView":"bufferView_102","byteOffset":8586,"byteStride":0,"componentType":5123,"count":1119,"type":"SCALAR"},"accessor_58":{"bufferView":"bufferView_103","byteOffset":94152,"byteStride":12,"componentType":5126,"count":1012,"max":[-6.05295,50.9156,48.4502],"min":[-64.2511,-1.65492,1.55947],"type":"VEC3"},"accessor_60":{"bufferView":"bufferView_103","byteOffset":106296,"byteStride":12,"componentType":5126,"count":1012,"max":[0.984163,0.993731,1],"min":[-0.991922,-0.999504,-1],"type":"VEC3"},"accessor_76":{"bufferView":"bufferView_102","byteOffset":0,"byteStride":0,"componentType":5123,"count":2088,"type":"SCALAR"},"accessor_78":{"bufferView":"bufferView_103","byteOffset":0,"byteStride":12,"componentType":5126,"count":1921,"max":[87.4847,-25.7537,79.403],"min":[24.7226,-104.018,0.0940323],"type":"VEC3"},"accessor_80":{"bufferView":"bufferView_103","byteOffset":23052,"byteStride":12,"componentType":5126,"count":1921,"max":[0.982161,0.981769,1],"min":[-0.998634,-0.98177,0],"type":"VEC3"},"accessor_96":{"bufferView":"bufferView_102","byteOffset":4176,"byteStride":0,"componentType":5123,"count":606,"type":"SCALAR"},"accessor_98":{"bufferView":"bufferView_103","byteOffset":46104,"byteStride":12,"componentType":5126,"count":551,"max":[87.9286,-12.4694,79.3213],"min":[41.1085,-51.5918,0.0577812],"type":"VEC3"},"accessor_b0":{"bufferView":"bufferView_b","byteOffset":0,"byteStride":0,"componentType":5123,"count":1921,"type":"SCALAR"},"accessor_b1":{"bufferView":"bufferView_b","byteOffset":3842,"byteStride":0,"componentType":5123,"count":551,"type":"SCALAR"},"accessor_b2":{"bufferView":"bufferView_b","byteOffset":4944,"byteStride":0,"componentType":5123,"count":384,"type":"SCALAR"},"accessor_b3":{"bufferView":"bufferView_b","byteOffset":5712,"byteStride":0,"componentType":5123,"count":1067,"type":"SCALAR"},"accessor_b4":{"bufferView":"bufferView_b","byteOffset":7846,"byteStride":0,"componentType":5123,"count":1012,"type":"SCALAR"}},"animations":{},"asset":{"generator":"collada2gltf@cf6371beb0bdc18ba603378d5e40c966da53d385","premultipliedAlpha":true,"profile":{"api":"WebGL","version":"1.0.2"},"version":"1.0"},"bufferViews":{"bufferView_102":{"buffer":"\\data\\3dcity\\miami\\workspace\\gridID_48\\gridID_48_high","byteLength":10824,"byteOffset":0,"target":34963},"bufferView_103":{"buffer":"\\data\\3dcity\\miami\\workspace\\gridID_48\\gridID_48_high","byteLength":118440,"byteOffset":10824,"target":34962},"bufferView_b":{"buffer":"buffer_b","byteLength":9870,"byteOffset":0,"target":34962}},"buffers":{"\\data\\3dcity\\miami\\workspace\\gridID_48\\gridID_48_high":{"byteLength":129264,"type":"arraybuffer","uri":"data:application/octet-stream;base64,"},"buffer_b":{"type":"arraybuffer","byteLength":9870,"uri":"data:application/octet-stream;base64,"}},"materials":{"__glTF__defaultMaterial0":{"name":"__glTF__defaultMaterial0","technique":"technique0","values":{"diffuse":[1,1,1,1]}}},"meshes":{"multipatch_footprint_1061-mesh":{"name":"multipatch_footprint.1061","primitives":[{"attributes":{"NORMAL":"accessor_80","POSITION":"accessor_78","BATCHID":"accessor_b0"},"indices":"accessor_76","material":"__glTF__defaultMaterial0","mode":4}]},"multipatch_footprint_1071-mesh":{"name":"multipatch_footprint.1071","primitives":[{"attributes":{"NORMAL":"accessor_100","POSITION":"accessor_98","BATCHID":"accessor_b1"},"indices":"accessor_96","material":"__glTF__defaultMaterial0","mode":4}]},"multipatch_footprint_694-mesh":{"name":"multipatch_footprint.694","primitives":[{"attributes":{"NORMAL":"accessor_20","POSITION":"accessor_18","BATCHID":"accessor_b2"},"indices":"accessor_16","material":"__glTF__defaultMaterial0","mode":4}]},"multipatch_footprint_850-mesh":{"name":"multipatch_footprint.850","primitives":[{"attributes":{"NORMAL":"accessor_40","POSITION":"accessor_38","BATCHID":"accessor_b3"},"indices":"accessor_36","material":"__glTF__defaultMaterial0","mode":4}]},"multipatch_footprint_937-mesh":{"name":"multipatch_footprint.937","primitives":[{"attributes":{"NORMAL":"accessor_60","POSITION":"accessor_58","BATCHID":"accessor_b4"},"indices":"accessor_56","material":"__glTF__defaultMaterial0","mode":4}]}},"nodes":{"gridID_48_w283161497_join":{"children":[],"matrix":[1,0,0,0,0,1,0,0,0,0,1,0,0.000366211,0.000335693,0,1],"meshes":["multipatch_footprint_694-mesh"],"name":"gridID_48_w283161497_join"},"gridID_48_w301824083_join":{"children":[],"matrix":[1,0,0,0,0,1,0,0,0,0,1,0,0.000366211,0.000335693,0,1],"meshes":["multipatch_footprint_1071-mesh"],"name":"gridID_48_w301824083_join"},"gridID_48_w301824363_join":{"children":[],"matrix":[1,0,0,0,0,1,0,0,0,0,1,0,0.000366211,0.000335693,0,1],"meshes":["multipatch_footprint_1061-mesh"],"name":"gridID_48_w301824363_join"},"gridID_48_w435520095_join":{"children":[],"matrix":[1,0,0,0,0,1,0,0,0,0,1,0,0.000366211,0.000335693,0,1],"meshes":["multipatch_footprint_937-mesh"],"name":"gridID_48_w435520095_join"},"gridID_48_w436126257_join":{"children":[],"matrix":[1,0,0,0,0,1,0,0,0,0,1,0,0.000366211,0.000335693,0,1],"meshes":["multipatch_footprint_850-mesh"],"name":"gridID_48_w436126257_join"},"node_5":{"children":["gridID_48_w283161497_join","gridID_48_w436126257_join","gridID_48_w435520095_join","gridID_48_w301824363_join","gridID_48_w301824083_join"],"matrix":[1,0,0,0,0,0,-1,0,0,1,0,0,0,0,0,1],"name":"Y_UP_Transform"}},"programs":{"program_0":{"attributes":["a_normal","a_position","a_batchId"],"fragmentShader":"\\data\\3dcity\\miami\\workspace\\gridID_48\\gridID_48_high0FS","vertexShader":"\\data\\3dcity\\miami\\workspace\\gridID_48\\gridID_48_high0VS"}},"scene":"defaultScene","scenes":{"defaultScene":{"nodes":["node_5"]}},"shaders":{"\\data\\3dcity\\miami\\workspace\\gridID_48\\gridID_48_high0FS":{"type":35632,"uri":"data:text/plain;base64,"},"\\data\\3dcity\\miami\\workspace\\gridID_48\\gridID_48_high0VS":{"type":35633,"uri":"data:text/plain;base64,"}},"skins":{},"techniques":{"technique0":{"attributes":{"a_normal":"normal","a_position":"position","a_batchId":"batchId"},"parameters":{"diffuse":{"type":35666},"modelViewMatrix":{"semantic":"MODELVIEW","type":35676},"normal":{"semantic":"NORMAL","type":35665},"normalMatrix":{"semantic":"MODELVIEWINVERSETRANSPOSE","type":35675},"position":{"semantic":"POSITION","type":35665},"projectionMatrix":{"semantic":"PROJECTION","type":35676},"batchId":{"semantic":"BATCHID","type":5126}},"program":"program_0","states":{"enable":[2929,2884]},"uniforms":{"u_diffuse":"diffuse","u_modelViewMatrix":"modelViewMatrix","u_normalMatrix":"normalMatrix","u_projectionMatrix":"projectionMatrix"}}}}