{"accessors":{"accessor_100":{"bufferView":"bufferView_123","byteOffset":66252,"byteStride":12,"componentType":5126,"count":759,"max":[0.978003,0.98524,1],"min":[-0.994975,-0.97783,-1],"type":"VEC3"},"accessor_116":{"bufferView":"bufferView_122","byteOffset":7008,"byteStride":0,"componentType":5123,"count":2535,"type":"SCALAR"},"accessor_118":{"bufferView":"bufferView_123","byteOffset":75360,"byteStride":12,"componentType":5126,"count":2256,"max":[41.6545,-11.9889,182.353],"min":[-73.0712,-115.228,0.333389],"type":"VEC3"},"accessor_120":{"bufferView":"bufferView_123","byteOffset":102432,"byteStride":12,"componentType":5126,"count":2256,"max":[0.999922,0.993277,1],"min":[-0.98038,-0.999987,-1],"type":"VEC3"},"accessor_16":{"bufferView":"bufferView_122","byteOffset":0,"byteStride":0,"componentType":5123,"count":120,"type":"SCALAR"},"accessor_18":{"bufferView":"bufferView_123","byteOffset":0,"byteStride":12,"componentType":5126,"count":118,"max":[-32.7005,-0.384979,13.2588],"min":[-47.9421,-16.4706,1.05176],"type":"VEC3"},"accessor_20":{"bufferView":"bufferView_123","byteOffset":1416,"byteStride":12,"componentType":5126,"count":118,"max":[0.973595,0.973038,1],"min":[-0.973595,-0.973038,0],"type":"VEC3"},"accessor_36":{"bufferView":"bufferView_122","byteOffset":240,"byteStride":0,"componentType":5123,"count":1320,"type":"SCALAR"},"accessor_38":{"bufferView":"bufferView_123","byteOffset":2832,"byteStride":12,"componentType":5126,"count":1180,"max":[61.8119,85.0442,186.05],"min":[-18.2971,-30.9391,0.563343],"type":"VEC3"},"accessor_40":{"bufferView":"bufferView_123","byteOffset":16992,"byteStride":12,"componentType":5126,"count":1180,"max":[0.978795,0.987278,1],"min":[-0.978795,-0.987278,0],"type":"VEC3"},"accessor_56":{"bufferView":"bufferView_122","byteOffset":2880,"byteStride":0,"componentType":5123,"count":375,"type":"SCALAR"},"accessor_58":{"bufferView":"bufferView_123","byteOffset":31152,"byteStride":12,"componentType":5126,"count":321,"max":[-52.258,-40.1519,140.17],"min":[-72.0744,-93.5013,1.51926],"type":"VEC3"},"accessor_60":{"bufferView":"bufferView_123","byteOffset":35004,"byteStride":12,"componentType":5126,"count":321,"max":[0.97563,0.975213,1],"min":[-0.987346,-0.982543,0],"type":"VEC3"},"accessor_76":{"bufferView":"bufferView_122","byteOffset":3630,"byteStride":0,"componentType":5123,"count":846,"type":"SCALAR"},"accessor_78":{"bufferView":"bufferView_123","byteOffset":38856,"byteStride":12,"componentType":5126,"count":762,"max":[25.3253,108.357,114.089],"min":[-55.4321,11.9749,1.84378],"type":"VEC3"},"accessor_80":{"bufferView":"bufferView_123","byteOffset":48000,"byteStride":12,"componentType":5126,"count":762,"max":[0.976129,0.975614,1],"min":[-0.976129,-0.975614,-1],"type":"VEC3"},"accessor_96":{"bufferView":"bufferView_122","byteOffset":5322,"byteStride":0,"componentType":5123,"count":843,"type":"SCALAR"},"accessor_98":{"bufferView":"bufferView_123","byteOffset":57144,"byteStride":12,"componentType":5126,"count":759,"max":[23.9015,3.00073,190.564],"min":[-28.2196,-24.6462,0.712299],"type":"VEC3"},"accessor_b0":{"bufferView":"bufferView_b","byteOffset":0,"byteStride":0,"componentType":5123,"count":118,"type":"SCALAR"},"accessor_b1":{"bufferView":"bufferView_b","byteOffset":236,"byteStride":0,"componentType":5123,"count":1180,"type":"SCALAR"},"accessor_b2":{"bufferView":"bufferView_b","byteOffset":2596,"byteStride":0,"componentType":5123,"count":321,"type":"SCALAR"},"accessor_b3":{"bufferView":"bufferView_b","byteOffset":3238,"byteStride":0,"componentType":5123,"count":762,"type":"SCALAR"},"accessor_b4":{"bufferView":"bufferView_b","byteOffset":4762,"byteStride":0,"componentType":5123,"count":759,"type":"SCALAR"},"accessor_b5":{"bufferView":"bufferView_b","byteOffset":6280,"byteStride":0,"componentType":5123,"count":2256,"type":"SCALAR"}},"animations":{},"asset":{"generator":"collada2gltf@cf6371beb0bdc18ba603378d5e40c966da53d385","premultipliedAlpha":true,"profile":{"api":"WebGL","version":"1.0.2"},"version":"1.0"},"bufferViews":{"bufferView_122":{"buffer":"\\data\\3dcity\\miami\\workspace\\gridID_58\\gridID_58_high","byteLength":12080,"byteOffset":0,"target":34963},"bufferView_123":{"buffer":"\\data\\3dcity\\miami\\workspace\\gridID_58\\gridID_58_high","byteLength":129504,"byteOffset":12080,"target":34962},"bufferView_b":{"buffer":"buffer_b","byteLength":10792,"byteOffset":0,"target":34962}},"buffers":{"\\data\\3dcity\\miami\\workspace\\gridID_58\\gridID_58_high":{"byteLength":141584,"type":"arraybuffer","uri":"data:application/octet-stream;base64,"},"buffer_b":{"type":"arraybuffer","byteLength":10792,"uri":"data:application/octet-stream;base64,"}},"materials":{"__glTF__defaultMaterial0":{"name":"__glTF__defaultMaterial0","technique":"technique0","values":{"diffuse":[1,1,1,1]}}},"meshes":{"multipatch_footprint_518-mesh":{"name":"multipatch_footprint.518","primitives":[{"attributes":{"NORMAL":"accessor_20","POSITION":"accessor_18","BATCHID":"accessor_b0"},"indices":"accessor_16","material":"__glTF__defaultMaterial0","mode":4}]},"multipatch_footprint_531-mesh":{"name":"multipatch_footprint.531","primitives":[{"attributes":{"NORMAL":"accessor_40","POSITION":"accessor_38","BATCHID":"accessor_b1"},"indices":"accessor_36","material":"__glTF__defaultMaterial0","mode":4}]},"multipatch_footprint_533-mesh":{"name":"multipatch_footprint.533","primitives":[{"attributes":{"NORMAL":"accessor_60","POSITION":"accessor_58","BATCHID":"accessor_b2"},"indices":"accessor_56","material":"__glTF__defaultMaterial0","mode":4}]},"multipatch_footprint_538-mesh":{"name":"multipatch_footprint.538","primitives":[{"attributes":{"NORMAL":"accessor_80","POSITION":"accessor_78","BATCHID":"accessor_b3"},"indices":"accessor_76","material":"__glTF__defaultMaterial0","mode":4}]},"multipatch_footprint_550-mesh":{"name":"multipatch_footprint.550","primitives":[{"attributes":{"NORMAL":"accessor_100","POSITION":"accessor_98","BATCHID":"accessor_b4"},"indices":"accessor_96","material":"__glTF__defaultMaterial0","mode":4}]},"multipatch_footprint_552-mesh":{"name":"multipatch_footprint.552","primitives":[{"attributes":{"NORMAL":"accessor_120","POSITION":"accessor_118","BATCHID":"accessor_b5"},"indices":"accessor_116","material":"__glTF__defaultMaterial0","mode":4}]}},"nodes":{"gridID_58_w299469145_join":{"children":[],"matrix":[1,0,0,0,0,1,0,0,0,0,1,0,0.000366211,0.000335693,0,1],"meshes":["multipatch_footprint_538-mesh"],"name":"gridID_58_w299469145_join"},"gridID_58_w300211766_join":{"children":[],"matrix":[1,0,0,0,0,1,0,0,0,0,1,0,0.000366211,0.000335693,0,1],"meshes":["multipatch_footprint_550-mesh"],"name":"gridID_58_w300211766_join"},"gridID_58_w300211767_join":{"children":[],"matrix":[1,0,0,0,0,1,0,0,0,0,1,0,0.000366211,0.000335693,0,1],"meshes":["multipatch_footprint_533-mesh"],"name":"gridID_58_w300211767_join"},"gridID_58_w300211768_join":{"children":[],"matrix":[1,0,0,0,0,1,0,0,0,0,1,0,0.000366211,0.000335693,0,1],"meshes":["multipatch_footprint_552-mesh"],"name":"gridID_58_w300211768_join"},"gridID_58_w300211769_join":{"children":[],"matrix":[1,0,0,0,0,1,0,0,0,0,1,0,0.000366211,0.000335693,0,1],"meshes":["multipatch_footprint_531-mesh"],"name":"gridID_58_w300211769_join"},"gridID_58_w300211772_join":{"children":[],"matrix":[1,0,0,0,0,1,0,0,0,0,1,0,0.000366211,0.000335693,0,1],"meshes":["multipatch_footprint_518-mesh"],"name":"gridID_58_w300211772_join"},"node_6":{"children":["gridID_58_w300211772_join","gridID_58_w300211769_join","gridID_58_w300211767_join","gridID_58_w299469145_join","gridID_58_w300211766_join","gridID_58_w300211768_join"],"matrix":[1,0,0,0,0,0,-1,0,0,1,0,0,0,0,0,1],"name":"Y_UP_Transform"}},"programs":{"program_0":{"attributes":["a_normal","a_position","a_batchId"],"fragmentShader":"\\data\\3dcity\\miami\\workspace\\gridID_58\\gridID_58_high0FS","vertexShader":"\\data\\3dcity\\miami\\workspace\\gridID_58\\gridID_58_high0VS"}},"scene":"defaultScene","scenes":{"defaultScene":{"nodes":["node_6"]}},"shaders":{"\\data\\3dcity\\miami\\workspace\\gridID_58\\gridID_58_high0FS":{"type":35632,"uri":"data:text/plain;base64,"},"\\data\\3dcity\\miami\\workspace\\gridID_58\\gridID_58_high0VS":{"type":35633,"uri":"data:text/plain;base64,"}},"skins":{},"techniques":{"technique0":{"attributes":{"a_normal":"normal","a_position":"position","a_batchId":"batchId"},"parameters":{"diffuse":{"type":35666},"modelViewMatrix":{"semantic":"MODELVIEW","type":35676},"normal":{"semantic":"NORMAL","type":35665},"normalMatrix":{"semantic":"MODELVIEWINVERSETRANSPOSE","type":35675},"position":{"semantic":"POSITION","type":35665},"projectionMatrix":{"semantic":"PROJECTION","type":35676},"batchId":{"semantic":"BATCHID","type":5126}},"program":"program_0","states":{"enable":[2929,2884]},"uniforms":{"u_diffuse":"diffuse","u_modelViewMatrix":"modelViewMatrix","u_normalMatrix":"normalMatrix","u_projectionMatrix":"projectionMatrix"}}}}