{"accessors":{"accessor_16":{"bufferView":"bufferView_62","byteOffset":0,"byteStride":0,"componentType":5123,"count":108,"type":"SCALAR"},"accessor_18":{"bufferView":"bufferView_63","byteOffset":0,"byteStride":12,"componentType":5126,"count":78,"max":[-18.3179,70,-44.826],"min":[-62.2556,0,-90.7214],"type":"VEC3"},"accessor_20":{"bufferView":"bufferView_63","byteOffset":936,"byteStride":12,"componentType":5126,"count":78,"max":[0.976856,1,0.974618],"min":[-0.983271,-1,-0.970162],"type":"VEC3"},"accessor_36":{"bufferView":"bufferView_62","byteOffset":216,"byteStride":0,"componentType":5123,"count":60,"type":"SCALAR"},"accessor_38":{"bufferView":"bufferView_63","byteOffset":1872,"byteStride":12,"componentType":5126,"count":44,"max":[60.4519,10,-65.2459],"min":[44.3328,0,-76.3705],"type":"VEC3"},"accessor_40":{"bufferView":"bufferView_63","byteOffset":2400,"byteStride":12,"componentType":5126,"count":44,"max":[0.865903,1,0.98094],"min":[-0.871915,-1,-0.978181],"type":"VEC3"},"accessor_56":{"bufferView":"bufferView_62","byteOffset":336,"byteStride":0,"componentType":5123,"count":252,"type":"SCALAR"},"accessor_58":{"bufferView":"bufferView_63","byteOffset":2928,"byteStride":12,"componentType":5126,"count":179,"max":[6.97395,112,50.2276],"min":[-100.505,0,-25.0241],"type":"VEC3"},"accessor_60":{"bufferView":"bufferView_63","byteOffset":5076,"byteStride":12,"componentType":5126,"count":179,"max":[0.980843,1,0.987486],"min":[-0.975623,-1,-0.97578],"type":"VEC3"},"accessor_b0":{"bufferView":"bufferView_b","byteOffset":0,"byteStride":0,"componentType":5123,"count":78,"type":"SCALAR"},"accessor_b1":{"bufferView":"bufferView_b","byteOffset":156,"byteStride":0,"componentType":5123,"count":44,"type":"SCALAR"},"accessor_b2":{"bufferView":"bufferView_b","byteOffset":244,"byteStride":0,"componentType":5123,"count":179,"type":"SCALAR"}},"animations":{},"asset":{"generator":"collada2gltf@cf6371beb0bdc18ba603378d5e40c966da53d385","premultipliedAlpha":true,"profile":{"api":"WebGL","version":"1.0.2"},"version":"1.0"},"bufferViews":{"bufferView_62":{"buffer":"\\data\\3dcity\\miami\\workspace\\gridID_50\\gridID_50","byteLength":840,"byteOffset":0,"target":34963},"bufferView_63":{"buffer":"\\data\\3dcity\\miami\\workspace\\gridID_50\\gridID_50","byteLength":7224,"byteOffset":840,"target":34962},"bufferView_b":{"buffer":"buffer_b","byteLength":602,"byteOffset":0,"target":34962}},"buffers":{"\\data\\3dcity\\miami\\workspace\\gridID_50\\gridID_50":{"byteLength":8064,"type":"arraybuffer","uri":"data:application/octet-stream;base64,"},"buffer_b":{"type":"arraybuffer","byteLength":602,"uri":"data:application/octet-stream;base64,"}},"materials":{"CityEngineMaterial_506-effect":{"name":"CityEngineMaterial_506","technique":"technique0","values":{"ambient":[1,1,1,1],"diffuse":[1,1,1,1],"emission":[0,0,0,1],"shininess":50,"specular":[0.5,0.5,0.5,1]}},"CityEngineMaterial_507-effect":{"name":"CityEngineMaterial_507","technique":"technique0","values":{"ambient":[1,1,1,1],"diffuse":[1,1,1,1],"emission":[0,0,0,1],"shininess":50,"specular":[0.5,0.5,0.5,1]}},"CityEngineMaterial_508-effect":{"name":"CityEngineMaterial_508","technique":"technique0","values":{"ambient":[1,1,1,1],"diffuse":[1,1,1,1],"emission":[0,0,0,1],"shininess":50,"specular":[0.5,0.5,0.5,1]}}},"meshes":{"mesh_CityEngineMaterial_504-mesh":{"name":"mesh_CityEngineMaterial.504","primitives":[{"attributes":{"NORMAL":"accessor_20","POSITION":"accessor_18","BATCHID":"accessor_b0"},"indices":"accessor_16","material":"CityEngineMaterial_506-effect","mode":4}]},"mesh_CityEngineMaterial_505-mesh":{"name":"mesh_CityEngineMaterial.505","primitives":[{"attributes":{"NORMAL":"accessor_40","POSITION":"accessor_38","BATCHID":"accessor_b1"},"indices":"accessor_36","material":"CityEngineMaterial_507-effect","mode":4}]},"mesh_CityEngineMaterial_506-mesh":{"name":"mesh_CityEngineMaterial.506","primitives":[{"attributes":{"NORMAL":"accessor_60","POSITION":"accessor_58","BATCHID":"accessor_b2"},"indices":"accessor_56","material":"CityEngineMaterial_508-effect","mode":4}]}},"nodes":{"CityEngineMaterial":{"children":[],"matrix":[1,0,0,0,0,-1.62921e-7,1,0,0,-1,-1.62921e-7,0,0,0,0,1],"meshes":["mesh_CityEngineMaterial_504-mesh"],"name":"CityEngineMaterial"},"CityEngineMaterial_001":{"children":[],"matrix":[1,0,0,0,0,-1.62921e-7,1,0,0,-1,-1.62921e-7,0,0,0,0,1],"meshes":["mesh_CityEngineMaterial_505-mesh"],"name":"CityEngineMaterial_001"},"CityEngineMaterial_002":{"children":[],"matrix":[1,0,0,0,0,-1.62921e-7,1,0,0,-1,-1.62921e-7,0,0,0,0,1],"meshes":["mesh_CityEngineMaterial_506-mesh"],"name":"CityEngineMaterial_002"},"node_3":{"children":["CityEngineMaterial","CityEngineMaterial_001","CityEngineMaterial_002"],"matrix":[1,0,0,0,0,0,-1,0,0,1,0,0,0,0,0,1],"name":"Y_UP_Transform"}},"programs":{"program_0":{"attributes":["a_normal","a_position","a_batchId"],"fragmentShader":"\\data\\3dcity\\miami\\workspace\\gridID_50\\gridID_500FS","vertexShader":"\\data\\3dcity\\miami\\workspace\\gridID_50\\gridID_500VS"}},"scene":"defaultScene","scenes":{"defaultScene":{"nodes":["node_3"]}},"shaders":{"\\data\\3dcity\\miami\\workspace\\gridID_50\\gridID_500FS":{"type":35632,"uri":"data:text/plain;base64,"},"\\data\\3dcity\\miami\\workspace\\gridID_50\\gridID_500VS":{"type":35633,"uri":"data:text/plain;base64,"}},"skins":{},"techniques":{"technique0":{"attributes":{"a_normal":"normal","a_position":"position","a_batchId":"batchId"},"parameters":{"ambient":{"type":35666},"diffuse":{"type":35666},"emission":{"type":35666},"modelViewMatrix":{"semantic":"MODELVIEW","type":35676},"normal":{"semantic":"NORMAL","type":35665},"normalMatrix":{"semantic":"MODELVIEWINVERSETRANSPOSE","type":35675},"position":{"semantic":"POSITION","type":35665},"projectionMatrix":{"semantic":"PROJECTION","type":35676},"shininess":{"type":5126},"specular":{"type":35666},"batchId":{"semantic":"BATCHID","type":5126}},"program":"program_0","states":{"enable":[2929,2884]},"uniforms":{"u_ambient":"ambient","u_diffuse":"diffuse","u_emission":"emission","u_modelViewMatrix":"modelViewMatrix","u_normalMatrix":"normalMatrix","u_projectionMatrix":"projectionMatrix","u_shininess":"shininess","u_specular":"specular"}}}}