{"accessors":{"accessor_16":{"bufferView":"bufferView_62","byteOffset":10140,"byteStride":0,"componentType":5123,"count":108,"type":"SCALAR"},"accessor_18":{"bufferView":"bufferView_63","byteOffset":105456,"byteStride":12,"componentType":5126,"count":97,"max":[-44.2248,91.8998,63.5232],"min":[-65.0384,51.4468,0.885666],"type":"VEC3"},"accessor_20":{"bufferView":"bufferView_63","byteOffset":106620,"byteStride":12,"componentType":5126,"count":97,"max":[0.976488,0.975983,1],"min":[-0.976476,-0.980959,0],"type":"VEC3"},"accessor_36":{"bufferView":"bufferView_62","byteOffset":10356,"byteStride":0,"componentType":5123,"count":2208,"type":"SCALAR"},"accessor_38":{"bufferView":"bufferView_63","byteOffset":107784,"byteStride":12,"componentType":5126,"count":1827,"max":[69.0502,210.106,56.2692],"min":[-37.6748,64.4112,0],"type":"VEC3"},"accessor_40":{"bufferView":"bufferView_63","byteOffset":129708,"byteStride":12,"componentType":5126,"count":1827,"max":[0.981347,0.978996,1],"min":[-0.981404,-0.978976,0],"type":"VEC3"},"accessor_56":{"bufferView":"bufferView_62","byteOffset":0,"byteStride":0,"componentType":5123,"count":5070,"type":"SCALAR"},"accessor_58":{"bufferView":"bufferView_63","byteOffset":0,"byteStride":12,"componentType":5126,"count":4394,"max":[37.6615,67.0743,115.221],"min":[-101.278,-49.3509,-1.33763],"type":"VEC3"},"accessor_60":{"bufferView":"bufferView_63","byteOffset":52728,"byteStride":12,"componentType":5126,"count":4394,"max":[0.9946,0.986338,1],"min":[-0.9946,-0.993508,-1],"type":"VEC3"},"accessor_b0":{"bufferView":"bufferView_b","byteOffset":0,"byteStride":0,"componentType":5123,"count":4394,"type":"SCALAR"},"accessor_b1":{"bufferView":"bufferView_b","byteOffset":8788,"byteStride":0,"componentType":5123,"count":97,"type":"SCALAR"},"accessor_b2":{"bufferView":"bufferView_b","byteOffset":8982,"byteStride":0,"componentType":5123,"count":1827,"type":"SCALAR"}},"animations":{},"asset":{"generator":"collada2gltf@cf6371beb0bdc18ba603378d5e40c966da53d385","premultipliedAlpha":true,"profile":{"api":"WebGL","version":"1.0.2"},"version":"1.0"},"bufferViews":{"bufferView_62":{"buffer":"\\data\\3dcity\\miami\\workspace\\gridID_50\\gridID_50_high","byteLength":14772,"byteOffset":0,"target":34963},"bufferView_63":{"buffer":"\\data\\3dcity\\miami\\workspace\\gridID_50\\gridID_50_high","byteLength":151632,"byteOffset":14772,"target":34962},"bufferView_b":{"buffer":"buffer_b","byteLength":12636,"byteOffset":0,"target":34962}},"buffers":{"\\data\\3dcity\\miami\\workspace\\gridID_50\\gridID_50_high":{"byteLength":166404,"type":"arraybuffer","uri":"data:application/octet-stream;base64,"},"buffer_b":{"type":"arraybuffer","byteLength":12636,"uri":"data:application/octet-stream;base64,"}},"materials":{"__glTF__defaultMaterial0":{"name":"__glTF__defaultMaterial0","technique":"technique0","values":{"diffuse":[1,1,1,1]}}},"meshes":{"multipatch_footprint_1168-mesh":{"name":"multipatch_footprint.1168","primitives":[{"attributes":{"NORMAL":"accessor_60","POSITION":"accessor_58","BATCHID":"accessor_b0"},"indices":"accessor_56","material":"__glTF__defaultMaterial0","mode":4}]},"multipatch_footprint_627-mesh":{"name":"multipatch_footprint.627","primitives":[{"attributes":{"NORMAL":"accessor_20","POSITION":"accessor_18","BATCHID":"accessor_b1"},"indices":"accessor_16","material":"__glTF__defaultMaterial0","mode":4}]},"multipatch_footprint_664-mesh":{"name":"multipatch_footprint.664","primitives":[{"attributes":{"NORMAL":"accessor_40","POSITION":"accessor_38","BATCHID":"accessor_b2"},"indices":"accessor_36","material":"__glTF__defaultMaterial0","mode":4}]}},"nodes":{"gridID_50_w300204848_join":{"children":[],"matrix":[1,0,0,0,0,1,0,0,0,0,1,0,0.000366211,0.000335693,0,1],"meshes":["multipatch_footprint_627-mesh"],"name":"gridID_50_w300204848_join"},"gridID_50_w300463192_join":{"children":[],"matrix":[1,0,0,0,0,1,0,0,0,0,1,0,0.000366211,0.000335693,0,1],"meshes":["multipatch_footprint_664-mesh"],"name":"gridID_50_w300463192_join"},"gridID_50_w300463901_join":{"children":[],"matrix":[1,0,0,0,0,1,0,0,0,0,1,0,0.000366211,0.000335693,0,1],"meshes":["multipatch_footprint_1168-mesh"],"name":"gridID_50_w300463901_join"},"node_3":{"children":["gridID_50_w300204848_join","gridID_50_w300463192_join","gridID_50_w300463901_join"],"matrix":[1,0,0,0,0,0,-1,0,0,1,0,0,0,0,0,1],"name":"Y_UP_Transform"}},"programs":{"program_0":{"attributes":["a_normal","a_position","a_batchId"],"fragmentShader":"\\data\\3dcity\\miami\\workspace\\gridID_50\\gridID_50_high0FS","vertexShader":"\\data\\3dcity\\miami\\workspace\\gridID_50\\gridID_50_high0VS"}},"scene":"defaultScene","scenes":{"defaultScene":{"nodes":["node_3"]}},"shaders":{"\\data\\3dcity\\miami\\workspace\\gridID_50\\gridID_50_high0FS":{"type":35632,"uri":"data:text/plain;base64,"},"\\data\\3dcity\\miami\\workspace\\gridID_50\\gridID_50_high0VS":{"type":35633,"uri":"data:text/plain;base64,"}},"skins":{},"techniques":{"technique0":{"attributes":{"a_normal":"normal","a_position":"position","a_batchId":"batchId"},"parameters":{"diffuse":{"type":35666},"modelViewMatrix":{"semantic":"MODELVIEW","type":35676},"normal":{"semantic":"NORMAL","type":35665},"normalMatrix":{"semantic":"MODELVIEWINVERSETRANSPOSE","type":35675},"position":{"semantic":"POSITION","type":35665},"projectionMatrix":{"semantic":"PROJECTION","type":35676},"batchId":{"semantic":"BATCHID","type":5126}},"program":"program_0","states":{"enable":[2929,2884]},"uniforms":{"u_diffuse":"diffuse","u_modelViewMatrix":"modelViewMatrix","u_normalMatrix":"normalMatrix","u_projectionMatrix":"projectionMatrix"}}}}