{"accessors":{"accessor_100":{"bufferView":"bufferView_358","byteOffset":8700,"byteStride":12,"componentType":5126,"count":265,"max":[0.996663,1,0.982086],"min":[-0.981487,0,-0.982307],"type":"VEC3"},"accessor_128":{"bufferView":"bufferView_357","byteOffset":504,"byteStride":0,"componentType":5123,"count":24,"type":"SCALAR"},"accessor_131":{"bufferView":"bufferView_357","byteOffset":552,"byteStride":0,"componentType":5123,"count":6,"type":"SCALAR"},"accessor_133":{"bufferView":"bufferView_358","byteOffset":5040,"byteStride":12,"componentType":5126,"count":20,"max":[15.2825,3.75,8.69431],"min":[-15.2825,-3.75,-8.6947],"type":"VEC3"},"accessor_135":{"bufferView":"bufferView_358","byteOffset":5280,"byteStride":12,"componentType":5126,"count":20,"max":[0.928591,1,0.928693],"min":[-0.928571,0,-0.928682],"type":"VEC3"},"accessor_163":{"bufferView":"bufferView_357","byteOffset":1278,"byteStride":0,"componentType":5123,"count":36,"type":"SCALAR"},"accessor_166":{"bufferView":"bufferView_357","byteOffset":1350,"byteStride":0,"componentType":5123,"count":12,"type":"SCALAR"},"accessor_168":{"bufferView":"bufferView_358","byteOffset":11880,"byteStride":12,"componentType":5126,"count":32,"max":[26.2453,3.75,18.7893],"min":[-29.5837,-3.75,-11.8686],"type":"VEC3"},"accessor_170":{"bufferView":"bufferView_358","byteOffset":12264,"byteStride":12,"componentType":5126,"count":32,"max":[0.984133,1,0.98416],"min":[-0.984222,0,-0.984202],"type":"VEC3"},"accessor_222":{"bufferView":"bufferView_357","byteOffset":2022,"byteStride":0,"componentType":5123,"count":156,"type":"SCALAR"},"accessor_225":{"bufferView":"bufferView_357","byteOffset":2334,"byteStride":0,"componentType":5123,"count":2256,"type":"SCALAR"},"accessor_228":{"bufferView":"bufferView_357","byteOffset":6846,"byteStride":0,"componentType":5123,"count":684,"type":"SCALAR"},"accessor_231":{"bufferView":"bufferView_357","byteOffset":8214,"byteStride":0,"componentType":5123,"count":24,"type":"SCALAR"},"accessor_233":{"bufferView":"bufferView_358","byteOffset":19056,"byteStride":12,"componentType":5126,"count":2345,"max":[27.2992,8.61026,33.5162],"min":[-27.2258,-4.38974,-33.6558],"type":"VEC3"},"accessor_235":{"bufferView":"bufferView_358","byteOffset":47196,"byteStride":12,"componentType":5126,"count":2345,"max":[1,1,1],"min":[-1,-1,-1],"type":"VEC3"},"accessor_263":{"bufferView":"bufferView_357","byteOffset":444,"byteStride":0,"componentType":5123,"count":24,"type":"SCALAR"},"accessor_266":{"bufferView":"bufferView_357","byteOffset":492,"byteStride":0,"componentType":5123,"count":6,"type":"SCALAR"},"accessor_268":{"bufferView":"bufferView_358","byteOffset":4560,"byteStride":12,"componentType":5126,"count":20,"max":[3.7195,3.75,5.44653],"min":[-3.7145,-3.75,-5.45248],"type":"VEC3"},"accessor_270":{"bufferView":"bufferView_358","byteOffset":4800,"byteStride":12,"componentType":5126,"count":20,"max":[0.935688,1,0.93621],"min":[-0.935868,0,-0.934953],"type":"VEC3"},"accessor_310":{"bufferView":"bufferView_357","byteOffset":0,"byteStride":0,"componentType":5123,"count":150,"type":"SCALAR"},"accessor_313":{"bufferView":"bufferView_357","byteOffset":300,"byteStride":0,"componentType":5123,"count":18,"type":"SCALAR"},"accessor_316":{"bufferView":"bufferView_357","byteOffset":336,"byteStride":0,"componentType":5123,"count":18,"type":"SCALAR"},"accessor_318":{"bufferView":"bufferView_358","byteOffset":0,"byteStride":12,"componentType":5126,"count":158,"max":[13.8517,7.00955,11.6241],"min":[-10.7643,-2.99045,-8.90396],"type":"VEC3"},"accessor_320":{"bufferView":"bufferView_358","byteOffset":1896,"byteStride":12,"componentType":5126,"count":158,"max":[0.93033,1,0.932291],"min":[-0.93033,0,-0.93033],"type":"VEC3"},"accessor_348":{"bufferView":"bufferView_357","byteOffset":372,"byteStride":0,"componentType":5123,"count":6,"type":"SCALAR"},"accessor_351":{"bufferView":"bufferView_357","byteOffset":384,"byteStride":0,"componentType":5123,"count":30,"type":"SCALAR"},"accessor_353":{"bufferView":"bufferView_358","byteOffset":3792,"byteStride":12,"componentType":5126,"count":32,"max":[2.534,0.15,4.73422],"min":[-2.539,-0.15,-4.72879],"type":"VEC3"},"accessor_355":{"bufferView":"bufferView_358","byteOffset":4176,"byteStride":12,"componentType":5126,"count":32,"max":[0.930015,1,0.929292],"min":[-0.929811,-1,-0.932291],"type":"VEC3"},"accessor_40":{"bufferView":"bufferView_357","byteOffset":1374,"byteStride":0,"componentType":5123,"count":249,"type":"SCALAR"},"accessor_43":{"bufferView":"bufferView_357","byteOffset":1872,"byteStride":0,"componentType":5123,"count":3,"type":"SCALAR"},"accessor_46":{"bufferView":"bufferView_357","byteOffset":1878,"byteStride":0,"componentType":5123,"count":72,"type":"SCALAR"},"accessor_48":{"bufferView":"bufferView_358","byteOffset":12648,"byteStride":12,"componentType":5126,"count":267,"max":[28.3575,7.68677,18.0429],"min":[-21.1325,-8.31324,-19.8621],"type":"VEC3"},"accessor_50":{"bufferView":"bufferView_358","byteOffset":15852,"byteStride":12,"componentType":5126,"count":267,"max":[0.938151,1,0.93765],"min":[-0.939961,-1,-0.937629],"type":"VEC3"},"accessor_90":{"bufferView":"bufferView_357","byteOffset":564,"byteStride":0,"componentType":5123,"count":264,"type":"SCALAR"},"accessor_93":{"bufferView":"bufferView_357","byteOffset":1092,"byteStride":0,"componentType":5123,"count":6,"type":"SCALAR"},"accessor_96":{"bufferView":"bufferView_357","byteOffset":1104,"byteStride":0,"componentType":5123,"count":87,"type":"SCALAR"},"accessor_98":{"bufferView":"bufferView_358","byteOffset":5520,"byteStride":12,"componentType":5126,"count":265,"max":[13.7605,9.56248,24.1168],"min":[-20.9835,-8.43752,-18.9102],"type":"VEC3"},"accessor_b0":{"bufferView":"bufferView_b","byteOffset":0,"byteStride":0,"componentType":5123,"count":158,"type":"SCALAR"},"accessor_b1":{"bufferView":"bufferView_b","byteOffset":316,"byteStride":0,"componentType":5123,"count":32,"type":"SCALAR"},"accessor_b2":{"bufferView":"bufferView_b","byteOffset":380,"byteStride":0,"componentType":5123,"count":20,"type":"SCALAR"},"accessor_b3":{"bufferView":"bufferView_b","byteOffset":420,"byteStride":0,"componentType":5123,"count":20,"type":"SCALAR"},"accessor_b4":{"bufferView":"bufferView_b","byteOffset":460,"byteStride":0,"componentType":5123,"count":265,"type":"SCALAR"},"accessor_b5":{"bufferView":"bufferView_b","byteOffset":990,"byteStride":0,"componentType":5123,"count":32,"type":"SCALAR"},"accessor_b6":{"bufferView":"bufferView_b","byteOffset":1054,"byteStride":0,"componentType":5123,"count":267,"type":"SCALAR"},"accessor_b7":{"bufferView":"bufferView_b","byteOffset":1588,"byteStride":0,"componentType":5123,"count":2345,"type":"SCALAR"}},"animations":{},"asset":{"generator":"collada2gltf@cf6371beb0bdc18ba603378d5e40c966da53d385","premultipliedAlpha":true,"profile":{"api":"WebGL","version":"1.0.2"},"version":"1.0"},"bufferViews":{"bufferView_357":{"buffer":"\\data\\ECNU\\workspace\\gridID_94\\gridID_94","byteLength":8264,"byteOffset":0,"target":34963},"bufferView_358":{"buffer":"\\data\\ECNU\\workspace\\gridID_94\\gridID_94","byteLength":75336,"byteOffset":8264,"target":34962},"bufferView_b":{"buffer":"buffer_b","byteLength":6278,"byteOffset":0,"target":34962}},"buffers":{"\\data\\ECNU\\workspace\\gridID_94\\gridID_94":{"byteLength":83600,"type":"arraybuffer","uri":"data:application/octet-stream;base64,"},"buffer_b":{"type":"arraybuffer","byteLength":6278,"uri":"data:application/octet-stream;base64,"}},"materials":{"BUILDING_DEFAULT_0-effect":{"name":"BUILDING_DEFAULT_0","technique":"technique0","values":{"ambient":[0,0,0,1],"diffuse":[0.723055,0.708376,0.672443,1],"emission":[0,0,0,1],"shininess":50,"specular":[0.5,0.5,0.5,1]}},"CONCRETE_0-effect":{"name":"CONCRETE_0","technique":"technique0","values":{"ambient":[0,0,0,1],"diffuse":[0.309469,0.327778,0.309469,1],"emission":[0,0,0,1],"shininess":50,"specular":[0.5,0.5,0.5,1]}},"GLASS_0-effect":{"name":"GLASS_0","technique":"technique0","values":{"ambient":[0,0,0,1],"diffuse":[0.491021,0.665387,0.658375,1],"emission":[0,0,0,1],"shininess":50,"specular":[0.5,0.5,0.5,1]}},"GLASS_ROOF_0-effect":{"name":"GLASS_ROOF_0","technique":"technique0","values":{"ambient":[0,0,0,1],"diffuse":[0.708376,0.887923,0.83077,1],"emission":[0,0,0,1],"shininess":50,"specular":[0.5,0.5,0.5,1]}},"ROOF_DEFAULT_0-effect":{"name":"ROOF_DEFAULT_0","technique":"technique0","values":{"ambient":[0,0,0,1],"diffuse":[0.603827,0.381326,0.291771,1],"emission":[0,0,0,1],"shininess":50,"specular":[0.5,0.5,0.5,1]}}},"meshes":{"Building3650-mesh":{"name":"Building3650","primitives":[{"attributes":{"NORMAL":"accessor_320","POSITION":"accessor_318","BATCHID":"accessor_b0"},"indices":"accessor_310","material":"BUILDING_DEFAULT_0-effect","mode":4},{"attributes":{"NORMAL":"accessor_320","POSITION":"accessor_318","BATCHID":"accessor_b0"},"indices":"accessor_313","material":"ROOF_DEFAULT_0-effect","mode":4},{"attributes":{"NORMAL":"accessor_320","POSITION":"accessor_318","BATCHID":"accessor_b0"},"indices":"accessor_316","material":"CONCRETE_0-effect","mode":4}]},"Building3651-mesh":{"name":"Building3651","primitives":[{"attributes":{"NORMAL":"accessor_355","POSITION":"accessor_353","BATCHID":"accessor_b1"},"indices":"accessor_348","material":"GLASS_ROOF_0-effect","mode":4},{"attributes":{"NORMAL":"accessor_355","POSITION":"accessor_353","BATCHID":"accessor_b1"},"indices":"accessor_351","material":"BUILDING_DEFAULT_0-effect","mode":4}]},"Building3939-mesh":{"name":"Building3939","primitives":[{"attributes":{"NORMAL":"accessor_270","POSITION":"accessor_268","BATCHID":"accessor_b2"},"indices":"accessor_263","material":"BUILDING_DEFAULT_0-effect","mode":4},{"attributes":{"NORMAL":"accessor_270","POSITION":"accessor_268","BATCHID":"accessor_b2"},"indices":"accessor_266","material":"ROOF_DEFAULT_0-effect","mode":4}]},"Building3940-mesh":{"name":"Building3940","primitives":[{"attributes":{"NORMAL":"accessor_135","POSITION":"accessor_133","BATCHID":"accessor_b3"},"indices":"accessor_128","material":"BUILDING_DEFAULT_0-effect","mode":4},{"attributes":{"NORMAL":"accessor_135","POSITION":"accessor_133","BATCHID":"accessor_b3"},"indices":"accessor_131","material":"ROOF_DEFAULT_0-effect","mode":4}]},"Building3955-mesh":{"name":"Building3955","primitives":[{"attributes":{"NORMAL":"accessor_100","POSITION":"accessor_98","BATCHID":"accessor_b4"},"indices":"accessor_90","material":"BUILDING_DEFAULT_0-effect","mode":4},{"attributes":{"NORMAL":"accessor_100","POSITION":"accessor_98","BATCHID":"accessor_b4"},"indices":"accessor_93","material":"ROOF_DEFAULT_0-effect","mode":4},{"attributes":{"NORMAL":"accessor_100","POSITION":"accessor_98","BATCHID":"accessor_b4"},"indices":"accessor_96","material":"CONCRETE_0-effect","mode":4}]},"Building3956-mesh":{"name":"Building3956","primitives":[{"attributes":{"NORMAL":"accessor_170","POSITION":"accessor_168","BATCHID":"accessor_b5"},"indices":"accessor_163","material":"BUILDING_DEFAULT_0-effect","mode":4},{"attributes":{"NORMAL":"accessor_170","POSITION":"accessor_168","BATCHID":"accessor_b5"},"indices":"accessor_166","material":"ROOF_DEFAULT_0-effect","mode":4}]},"Building_-mesh":{"name":"Building ","primitives":[{"attributes":{"NORMAL":"accessor_50","POSITION":"accessor_48","BATCHID":"accessor_b6"},"indices":"accessor_40","material":"BUILDING_DEFAULT_0-effect","mode":4},{"attributes":{"NORMAL":"accessor_50","POSITION":"accessor_48","BATCHID":"accessor_b6"},"indices":"accessor_43","material":"ROOF_DEFAULT_0-effect","mode":4},{"attributes":{"NORMAL":"accessor_50","POSITION":"accessor_48","BATCHID":"accessor_b6"},"indices":"accessor_46","material":"CONCRETE_0-effect","mode":4}]},"Building_-mesh":{"name":"Building ","primitives":[{"attributes":{"NORMAL":"accessor_235","POSITION":"accessor_233","BATCHID":"accessor_b7"},"indices":"accessor_222","material":"GLASS_0-effect","mode":4},{"attributes":{"NORMAL":"accessor_235","POSITION":"accessor_233","BATCHID":"accessor_b7"},"indices":"accessor_225","material":"BUILDING_DEFAULT_0-effect","mode":4},{"attributes":{"NORMAL":"accessor_235","POSITION":"accessor_233","BATCHID":"accessor_b7"},"indices":"accessor_228","material":"ROOF_DEFAULT_0-effect","mode":4},{"attributes":{"NORMAL":"accessor_235","POSITION":"accessor_233","BATCHID":"accessor_b7"},"indices":"accessor_231","material":"CONCRETE_0-effect","mode":4}]}},"nodes":{"model_gridID_94_w116945145":{"children":[],"matrix":[1,0,0,0,0,-1.62921e-7,1,0,0,-1,-1.62921e-7,0,-130.648,360.011,8.31329,1],"meshes":["Building_-mesh"],"name":"model_gridID_94_w116945145"},"model_gridID_94_w116945148":{"children":[],"matrix":[1,0,0,0,0,-1.62921e-7,1,0,0,-1,-1.62921e-7,0,-52.1415,431.298,8.43759,1],"meshes":["Building3955-mesh"],"name":"model_gridID_94_w116945148"},"model_gridID_94_w116945148_001":{"children":[],"matrix":[1,0,0,0,0,-1.62921e-7,1,0,0,-1,-1.62921e-7,0,-37.9285,408.606,3.75007,1],"meshes":["Building3940-mesh"],"name":"model_gridID_94_w116945148_001"},"model_gridID_94_w116945151":{"children":[],"matrix":[1,0,0,0,0,-1.62921e-7,1,0,0,-1,-1.62921e-7,0,-100.389,444.94,3.75007,1],"meshes":["Building3956-mesh"],"name":"model_gridID_94_w116945151"},"model_gridID_94_w380040189":{"children":[],"matrix":[1,0,0,0,0,-1.62921e-7,1,0,0,-1,-1.62921e-7,0,-81.0432,371.265,4.3898,1],"meshes":["Building_-mesh"],"name":"model_gridID_94_w380040189"},"model_gridID_94_w380052467":{"children":[],"matrix":[1,0,0,0,0,-1.62921e-7,1,0,0,-1,-1.62921e-7,0,-38.5305,387.212,3.75006,1],"meshes":["Building3939-mesh"],"name":"model_gridID_94_w380052467"},"model_gridID_94_w380370171":{"children":[],"matrix":[1,0,0,0,0,-1.62921e-7,1,0,0,-1,-1.62921e-7,0,-113.735,329.368,2.9905,1],"meshes":["Building3650-mesh"],"name":"model_gridID_94_w380370171"},"model_gridID_94_w380370171_001":{"children":[],"matrix":[1,0,0,0,0,-1.62921e-7,1,0,0,-1,-1.62921e-7,0,-119.685,326.708,2.45005,1],"meshes":["Building3651-mesh"],"name":"model_gridID_94_w380370171_001"},"node_8":{"children":["model_gridID_94_w116945145","model_gridID_94_w116945148","model_gridID_94_w116945148_001","model_gridID_94_w116945151","model_gridID_94_w380040189","model_gridID_94_w380052467","model_gridID_94_w380370171","model_gridID_94_w380370171_001"],"matrix":[1,0,0,0,0,0,-1,0,0,1,0,0,0,0,0,1],"name":"Y_UP_Transform"}},"programs":{"program_0":{"attributes":["a_normal","a_position","a_batchId"],"fragmentShader":"\\data\\ECNU\\workspace\\gridID_94\\gridID_940FS","vertexShader":"\\data\\ECNU\\workspace\\gridID_94\\gridID_940VS"}},"scene":"defaultScene","scenes":{"defaultScene":{"nodes":["node_8"]}},"shaders":{"\\data\\ECNU\\workspace\\gridID_94\\gridID_940FS":{"type":35632,"uri":"data:text/plain;base64,"},"\\data\\ECNU\\workspace\\gridID_94\\gridID_940VS":{"type":35633,"uri":"data:text/plain;base64,"}},"skins":{},"techniques":{"technique0":{"attributes":{"a_normal":"normal","a_position":"position","a_batchId":"batchId"},"parameters":{"ambient":{"type":35666},"diffuse":{"type":35666},"emission":{"type":35666},"modelViewMatrix":{"semantic":"MODELVIEW","type":35676},"normal":{"semantic":"NORMAL","type":35665},"normalMatrix":{"semantic":"MODELVIEWINVERSETRANSPOSE","type":35675},"position":{"semantic":"POSITION","type":35665},"projectionMatrix":{"semantic":"PROJECTION","type":35676},"shininess":{"type":5126},"specular":{"type":35666},"batchId":{"semantic":"BATCHID","type":5126}},"program":"program_0","states":{"enable":[2929,2884]},"uniforms":{"u_ambient":"ambient","u_diffuse":"diffuse","u_emission":"emission","u_modelViewMatrix":"modelViewMatrix","u_normalMatrix":"normalMatrix","u_projectionMatrix":"projectionMatrix","u_shininess":"shininess","u_specular":"specular"}}}}