{"accessors":{"accessor_101":{"bufferView":"bufferView_282","byteOffset":636,"byteStride":0,"componentType":5123,"count":9,"type":"SCALAR"},"accessor_103":{"bufferView":"bufferView_283","byteOffset":5160,"byteStride":12,"componentType":5126,"count":23,"max":[10.0134,3.75,5.52176],"min":[-6.67255,-3.75,-4.37524],"type":"VEC3"},"accessor_105":{"bufferView":"bufferView_283","byteOffset":5436,"byteStride":12,"componentType":5126,"count":23,"max":[1,1,1],"min":[-1,0,-1],"type":"VEC3"},"accessor_133":{"bufferView":"bufferView_282","byteOffset":348,"byteStride":0,"componentType":5123,"count":42,"type":"SCALAR"},"accessor_136":{"bufferView":"bufferView_282","byteOffset":432,"byteStride":0,"componentType":5123,"count":15,"type":"SCALAR"},"accessor_138":{"bufferView":"bufferView_283","byteOffset":3072,"byteStride":12,"componentType":5126,"count":45,"max":[7.9729,3.75,4.55316],"min":[-7.70508,-3.75,-5.36585],"type":"VEC3"},"accessor_140":{"bufferView":"bufferView_283","byteOffset":3612,"byteStride":12,"componentType":5126,"count":45,"max":[1,1,1],"min":[-1,0,-1],"type":"VEC3"},"accessor_168":{"bufferView":"bufferView_282","byteOffset":0,"byteStride":0,"componentType":5123,"count":120,"type":"SCALAR"},"accessor_171":{"bufferView":"bufferView_282","byteOffset":240,"byteStride":0,"componentType":5123,"count":54,"type":"SCALAR"},"accessor_173":{"bufferView":"bufferView_283","byteOffset":0,"byteStride":12,"componentType":5126,"count":128,"max":[14.282,3.75,32.0312],"min":[-8.40198,-3.75,-42.0108],"type":"VEC3"},"accessor_175":{"bufferView":"bufferView_283","byteOffset":1536,"byteStride":12,"componentType":5126,"count":128,"max":[1,1,1],"min":[-1,0,-1],"type":"VEC3"},"accessor_203":{"bufferView":"bufferView_282","byteOffset":462,"byteStride":0,"componentType":5123,"count":42,"type":"SCALAR"},"accessor_206":{"bufferView":"bufferView_282","byteOffset":546,"byteStride":0,"componentType":5123,"count":15,"type":"SCALAR"},"accessor_208":{"bufferView":"bufferView_283","byteOffset":4152,"byteStride":12,"componentType":5126,"count":42,"max":[6.94104,3.75,4.54529],"min":[-8.74695,-3.75,-5.36273],"type":"VEC3"},"accessor_210":{"bufferView":"bufferView_283","byteOffset":4656,"byteStride":12,"componentType":5126,"count":42,"max":[1,1,1],"min":[-1,0,-1],"type":"VEC3"},"accessor_238":{"bufferView":"bufferView_282","byteOffset":810,"byteStride":0,"componentType":5123,"count":42,"type":"SCALAR"},"accessor_241":{"bufferView":"bufferView_282","byteOffset":894,"byteStride":0,"componentType":5123,"count":15,"type":"SCALAR"},"accessor_243":{"bufferView":"bufferView_283","byteOffset":7248,"byteStride":12,"componentType":5126,"count":37,"max":[6.49091,3.75,4.54532],"min":[-9.18713,-3.75,-5.36267],"type":"VEC3"},"accessor_245":{"bufferView":"bufferView_283","byteOffset":7692,"byteStride":12,"componentType":5126,"count":37,"max":[1,1,1],"min":[-1,0,-1],"type":"VEC3"},"accessor_273":{"bufferView":"bufferView_282","byteOffset":924,"byteStride":0,"componentType":5123,"count":24,"type":"SCALAR"},"accessor_276":{"bufferView":"bufferView_282","byteOffset":972,"byteStride":0,"componentType":5123,"count":6,"type":"SCALAR"},"accessor_278":{"bufferView":"bufferView_283","byteOffset":8136,"byteStride":12,"componentType":5126,"count":24,"max":[8.7005,3.75,11.9565],"min":[-8.7005,-3.75,-11.9565],"type":"VEC3"},"accessor_28":{"bufferView":"bufferView_282","byteOffset":732,"byteStride":0,"componentType":5123,"count":30,"type":"SCALAR"},"accessor_280":{"bufferView":"bufferView_283","byteOffset":8424,"byteStride":12,"componentType":5126,"count":24,"max":[0.961426,1,0.961555],"min":[-0.961425,0,-0.961556],"type":"VEC3"},"accessor_31":{"bufferView":"bufferView_282","byteOffset":792,"byteStride":0,"componentType":5123,"count":9,"type":"SCALAR"},"accessor_33":{"bufferView":"bufferView_283","byteOffset":6456,"byteStride":12,"componentType":5126,"count":33,"max":[10.0124,3.75,5.52618],"min":[-6.67462,-3.75,-4.37079],"type":"VEC3"},"accessor_35":{"bufferView":"bufferView_283","byteOffset":6852,"byteStride":12,"componentType":5126,"count":33,"max":[1,1,0.999999],"min":[-1,0,-1],"type":"VEC3"},"accessor_63":{"bufferView":"bufferView_282","byteOffset":654,"byteStride":0,"componentType":5123,"count":30,"type":"SCALAR"},"accessor_66":{"bufferView":"bufferView_282","byteOffset":714,"byteStride":0,"componentType":5123,"count":9,"type":"SCALAR"},"accessor_68":{"bufferView":"bufferView_283","byteOffset":5712,"byteStride":12,"componentType":5126,"count":31,"max":[10.0082,3.75,5.51917],"min":[-6.67883,-3.75,-4.37683],"type":"VEC3"},"accessor_70":{"bufferView":"bufferView_283","byteOffset":6084,"byteStride":12,"componentType":5126,"count":31,"max":[1,1,1],"min":[-1,0,-0.999999],"type":"VEC3"},"accessor_98":{"bufferView":"bufferView_282","byteOffset":576,"byteStride":0,"componentType":5123,"count":30,"type":"SCALAR"},"accessor_b0":{"bufferView":"bufferView_b","byteOffset":0,"byteStride":0,"componentType":5123,"count":128,"type":"SCALAR"},"accessor_b1":{"bufferView":"bufferView_b","byteOffset":256,"byteStride":0,"componentType":5123,"count":45,"type":"SCALAR"},"accessor_b2":{"bufferView":"bufferView_b","byteOffset":346,"byteStride":0,"componentType":5123,"count":42,"type":"SCALAR"},"accessor_b3":{"bufferView":"bufferView_b","byteOffset":430,"byteStride":0,"componentType":5123,"count":23,"type":"SCALAR"},"accessor_b4":{"bufferView":"bufferView_b","byteOffset":476,"byteStride":0,"componentType":5123,"count":31,"type":"SCALAR"},"accessor_b5":{"bufferView":"bufferView_b","byteOffset":538,"byteStride":0,"componentType":5123,"count":33,"type":"SCALAR"},"accessor_b6":{"bufferView":"bufferView_b","byteOffset":604,"byteStride":0,"componentType":5123,"count":37,"type":"SCALAR"},"accessor_b7":{"bufferView":"bufferView_b","byteOffset":678,"byteStride":0,"componentType":5123,"count":24,"type":"SCALAR"}},"animations":{},"asset":{"generator":"collada2gltf@cf6371beb0bdc18ba603378d5e40c966da53d385","premultipliedAlpha":true,"profile":{"api":"WebGL","version":"1.0.2"},"version":"1.0"},"bufferViews":{"bufferView_282":{"buffer":"\\data\\ECNU\\workspace\\gridID_100\\gridID_100","byteLength":984,"byteOffset":0,"target":34963},"bufferView_283":{"buffer":"\\data\\ECNU\\workspace\\gridID_100\\gridID_100","byteLength":8712,"byteOffset":984,"target":34962},"bufferView_b":{"buffer":"buffer_b","byteLength":726,"byteOffset":0,"target":34962}},"buffers":{"\\data\\ECNU\\workspace\\gridID_100\\gridID_100":{"byteLength":9696,"type":"arraybuffer","uri":"data:application/octet-stream;base64,"},"buffer_b":{"type":"arraybuffer","byteLength":726,"uri":"data:application/octet-stream;base64,"}},"materials":{"BUILDING_DEFAULT_0-effect":{"name":"BUILDING_DEFAULT_0","technique":"technique0","values":{"ambient":[0,0,0,1],"diffuse":[0.723055,0.708376,0.672443,1],"emission":[0,0,0,1],"shininess":50,"specular":[0.5,0.5,0.5,1]}},"ROOF_DEFAULT_0-effect":{"name":"ROOF_DEFAULT_0","technique":"technique0","values":{"ambient":[0,0,0,1],"diffuse":[0.603827,0.381326,0.291771,1],"emission":[0,0,0,1],"shininess":50,"specular":[0.5,0.5,0.5,1]}}},"meshes":{"Building3278-mesh":{"name":"Building3278","primitives":[{"attributes":{"NORMAL":"accessor_175","POSITION":"accessor_173","BATCHID":"accessor_b0"},"indices":"accessor_168","material":"BUILDING_DEFAULT_0-effect","mode":4},{"attributes":{"NORMAL":"accessor_175","POSITION":"accessor_173","BATCHID":"accessor_b0"},"indices":"accessor_171","material":"ROOF_DEFAULT_0-effect","mode":4}]},"Building3294-mesh":{"name":"Building3294","primitives":[{"attributes":{"NORMAL":"accessor_140","POSITION":"accessor_138","BATCHID":"accessor_b1"},"indices":"accessor_133","material":"BUILDING_DEFAULT_0-effect","mode":4},{"attributes":{"NORMAL":"accessor_140","POSITION":"accessor_138","BATCHID":"accessor_b1"},"indices":"accessor_136","material":"ROOF_DEFAULT_0-effect","mode":4}]},"Building3297-mesh":{"name":"Building3297","primitives":[{"attributes":{"NORMAL":"accessor_210","POSITION":"accessor_208","BATCHID":"accessor_b2"},"indices":"accessor_203","material":"BUILDING_DEFAULT_0-effect","mode":4},{"attributes":{"NORMAL":"accessor_210","POSITION":"accessor_208","BATCHID":"accessor_b2"},"indices":"accessor_206","material":"ROOF_DEFAULT_0-effect","mode":4}]},"Building3299-mesh":{"name":"Building3299","primitives":[{"attributes":{"NORMAL":"accessor_105","POSITION":"accessor_103","BATCHID":"accessor_b3"},"indices":"accessor_98","material":"BUILDING_DEFAULT_0-effect","mode":4},{"attributes":{"NORMAL":"accessor_105","POSITION":"accessor_103","BATCHID":"accessor_b3"},"indices":"accessor_101","material":"ROOF_DEFAULT_0-effect","mode":4}]},"Building3306-mesh":{"name":"Building3306","primitives":[{"attributes":{"NORMAL":"accessor_70","POSITION":"accessor_68","BATCHID":"accessor_b4"},"indices":"accessor_63","material":"BUILDING_DEFAULT_0-effect","mode":4},{"attributes":{"NORMAL":"accessor_70","POSITION":"accessor_68","BATCHID":"accessor_b4"},"indices":"accessor_66","material":"ROOF_DEFAULT_0-effect","mode":4}]},"Building3307-mesh":{"name":"Building3307","primitives":[{"attributes":{"NORMAL":"accessor_35","POSITION":"accessor_33","BATCHID":"accessor_b5"},"indices":"accessor_28","material":"BUILDING_DEFAULT_0-effect","mode":4},{"attributes":{"NORMAL":"accessor_35","POSITION":"accessor_33","BATCHID":"accessor_b5"},"indices":"accessor_31","material":"ROOF_DEFAULT_0-effect","mode":4}]},"Building3308-mesh":{"name":"Building3308","primitives":[{"attributes":{"NORMAL":"accessor_245","POSITION":"accessor_243","BATCHID":"accessor_b6"},"indices":"accessor_238","material":"BUILDING_DEFAULT_0-effect","mode":4},{"attributes":{"NORMAL":"accessor_245","POSITION":"accessor_243","BATCHID":"accessor_b6"},"indices":"accessor_241","material":"ROOF_DEFAULT_0-effect","mode":4}]},"Building3573-mesh":{"name":"Building3573","primitives":[{"attributes":{"NORMAL":"accessor_280","POSITION":"accessor_278","BATCHID":"accessor_b7"},"indices":"accessor_273","material":"BUILDING_DEFAULT_0-effect","mode":4},{"attributes":{"NORMAL":"accessor_280","POSITION":"accessor_278","BATCHID":"accessor_b7"},"indices":"accessor_276","material":"ROOF_DEFAULT_0-effect","mode":4}]}},"nodes":{"model_gridID_100_r6179492":{"children":[],"matrix":[1,0,0,0,0,-1.62921e-7,1,0,0,-1,-1.62921e-7,0,-524.21,524.744,3.75008,1],"meshes":["Building3307-mesh"],"name":"model_gridID_100_r6179492"},"model_gridID_100_r6179495":{"children":[],"matrix":[1,0,0,0,0,-1.62921e-7,1,0,0,-1,-1.62921e-7,0,-524.292,549.062,3.75009,1],"meshes":["Building3306-mesh"],"name":"model_gridID_100_r6179495"},"model_gridID_100_r6179501_001":{"children":[],"matrix":[1,0,0,0,0,-1.62921e-7,1,0,0,-1,-1.62921e-7,0,-523.612,499.358,3.75008,1],"meshes":["Building3299-mesh"],"name":"model_gridID_100_r6179501_001"},"model_gridID_100_r6179556":{"children":[],"matrix":[1,0,0,0,0,-1.62921e-7,1,0,0,-1,-1.62921e-7,0,-538.858,521.689,3.75008,1],"meshes":["Building3294-mesh"],"name":"model_gridID_100_r6179556"},"model_gridID_100_r6179556_001":{"children":[],"matrix":[1,0,0,0,0,-1.62921e-7,1,0,0,-1,-1.62921e-7,0,-542.692,514.323,3.75008,1],"meshes":["Building3278-mesh"],"name":"model_gridID_100_r6179556_001"},"model_gridID_100_r6179556_002":{"children":[],"matrix":[1,0,0,0,0,-1.62921e-7,1,0,0,-1,-1.62921e-7,0,-537.902,546.006,3.75009,1],"meshes":["Building3297-mesh"],"name":"model_gridID_100_r6179556_002"},"model_gridID_100_r6179556_003":{"children":[],"matrix":[1,0,0,0,0,-1.62921e-7,1,0,0,-1,-1.62921e-7,0,-536.776,496.299,3.75008,1],"meshes":["Building3308-mesh"],"name":"model_gridID_100_r6179556_003"},"model_gridID_100_w116941149":{"children":[],"matrix":[1,0,0,0,0,-1.62921e-7,1,0,0,-1,-1.62921e-7,0,-529.79,459.414,3.75008,1],"meshes":["Building3573-mesh"],"name":"model_gridID_100_w116941149"},"node_8":{"children":["model_gridID_100_r6179492","model_gridID_100_r6179495","model_gridID_100_r6179501_001","model_gridID_100_r6179556","model_gridID_100_r6179556_001","model_gridID_100_r6179556_002","model_gridID_100_r6179556_003","model_gridID_100_w116941149"],"matrix":[1,0,0,0,0,0,-1,0,0,1,0,0,0,0,0,1],"name":"Y_UP_Transform"}},"programs":{"program_0":{"attributes":["a_normal","a_position","a_batchId"],"fragmentShader":"\\data\\ECNU\\workspace\\gridID_100\\gridID_1000FS","vertexShader":"\\data\\ECNU\\workspace\\gridID_100\\gridID_1000VS"}},"scene":"defaultScene","scenes":{"defaultScene":{"nodes":["node_8"]}},"shaders":{"\\data\\ECNU\\workspace\\gridID_100\\gridID_1000FS":{"type":35632,"uri":"data:text/plain;base64,"},"\\data\\ECNU\\workspace\\gridID_100\\gridID_1000VS":{"type":35633,"uri":"data:text/plain;base64,"}},"skins":{},"techniques":{"technique0":{"attributes":{"a_normal":"normal","a_position":"position","a_batchId":"batchId"},"parameters":{"ambient":{"type":35666},"diffuse":{"type":35666},"emission":{"type":35666},"modelViewMatrix":{"semantic":"MODELVIEW","type":35676},"normal":{"semantic":"NORMAL","type":35665},"normalMatrix":{"semantic":"MODELVIEWINVERSETRANSPOSE","type":35675},"position":{"semantic":"POSITION","type":35665},"projectionMatrix":{"semantic":"PROJECTION","type":35676},"shininess":{"type":5126},"specular":{"type":35666},"batchId":{"semantic":"BATCHID","type":5126}},"program":"program_0","states":{"enable":[2929,2884]},"uniforms":{"u_ambient":"ambient","u_diffuse":"diffuse","u_emission":"emission","u_modelViewMatrix":"modelViewMatrix","u_normalMatrix":"normalMatrix","u_projectionMatrix":"projectionMatrix","u_shininess":"shininess","u_specular":"specular"}}}}