{"accessors":{"accessor_16":{"bufferView":"bufferView_62","byteOffset":0,"byteStride":0,"componentType":5123,"count":36,"type":"SCALAR"},"accessor_18":{"bufferView":"bufferView_63","byteOffset":0,"byteStride":12,"componentType":5126,"count":30,"max":[43.6127,10,76.5579],"min":[-4.45507,0,61.3289],"type":"VEC3"},"accessor_20":{"bufferView":"bufferView_63","byteOffset":360,"byteStride":12,"componentType":5126,"count":30,"max":[0.99899,1,0.999011],"min":[-0.999029,-1,-0.999022],"type":"VEC3"},"accessor_36":{"bufferView":"bufferView_62","byteOffset":72,"byteStride":0,"componentType":5123,"count":192,"type":"SCALAR"},"accessor_38":{"bufferView":"bufferView_63","byteOffset":720,"byteStride":12,"componentType":5126,"count":133,"max":[47.7537,10,10.2153],"min":[-11.7799,0,-79.6512],"type":"VEC3"},"accessor_40":{"bufferView":"bufferView_63","byteOffset":2316,"byteStride":12,"componentType":5126,"count":133,"max":[0.999679,1,0.999273],"min":[-0.999452,-1,-0.999389],"type":"VEC3"},"accessor_56":{"bufferView":"bufferView_62","byteOffset":456,"byteStride":0,"componentType":5123,"count":36,"type":"SCALAR"},"accessor_58":{"bufferView":"bufferView_63","byteOffset":3912,"byteStride":12,"componentType":5126,"count":24,"max":[44.2472,8,34.5793],"min":[30.1987,0,23.998],"type":"VEC3"},"accessor_60":{"bufferView":"bufferView_63","byteOffset":4200,"byteStride":12,"componentType":5126,"count":24,"max":[0.999741,1,0.99975],"min":[-0.999765,-1,-0.99975],"type":"VEC3"},"accessor_b0":{"bufferView":"bufferView_b","byteOffset":0,"byteStride":0,"componentType":5123,"count":30,"type":"SCALAR"},"accessor_b1":{"bufferView":"bufferView_b","byteOffset":60,"byteStride":0,"componentType":5123,"count":133,"type":"SCALAR"},"accessor_b2":{"bufferView":"bufferView_b","byteOffset":326,"byteStride":0,"componentType":5123,"count":24,"type":"SCALAR"}},"animations":{},"asset":{"generator":"collada2gltf@cf6371beb0bdc18ba603378d5e40c966da53d385","premultipliedAlpha":true,"profile":{"api":"WebGL","version":"1.0.2"},"version":"1.0"},"bufferViews":{"bufferView_62":{"buffer":"\\data\\3dcity\\miami\\workspace\\gridID_77\\gridID_77","byteLength":528,"byteOffset":0,"target":34963},"bufferView_63":{"buffer":"\\data\\3dcity\\miami\\workspace\\gridID_77\\gridID_77","byteLength":4488,"byteOffset":528,"target":34962},"bufferView_b":{"buffer":"buffer_b","byteLength":374,"byteOffset":0,"target":34962}},"buffers":{"\\data\\3dcity\\miami\\workspace\\gridID_77\\gridID_77":{"byteLength":5016,"type":"arraybuffer","uri":"data:application/octet-stream;base64,"},"buffer_b":{"type":"arraybuffer","byteLength":374,"uri":"data:application/octet-stream;base64,"}},"materials":{"CityEngineMaterial_643-effect":{"name":"CityEngineMaterial_643","technique":"technique0","values":{"ambient":[1,1,1,1],"diffuse":[1,1,1,1],"emission":[0,0,0,1],"shininess":50,"specular":[0.5,0.5,0.5,1]}},"CityEngineMaterial_644-effect":{"name":"CityEngineMaterial_644","technique":"technique0","values":{"ambient":[1,1,1,1],"diffuse":[1,1,1,1],"emission":[0,0,0,1],"shininess":50,"specular":[0.5,0.5,0.5,1]}},"CityEngineMaterial_645-effect":{"name":"CityEngineMaterial_645","technique":"technique0","values":{"ambient":[1,1,1,1],"diffuse":[1,1,1,1],"emission":[0,0,0,1],"shininess":50,"specular":[0.5,0.5,0.5,1]}}},"meshes":{"mesh_CityEngineMaterial_641-mesh":{"name":"mesh_CityEngineMaterial.641","primitives":[{"attributes":{"NORMAL":"accessor_20","POSITION":"accessor_18","BATCHID":"accessor_b0"},"indices":"accessor_16","material":"CityEngineMaterial_643-effect","mode":4}]},"mesh_CityEngineMaterial_642-mesh":{"name":"mesh_CityEngineMaterial.642","primitives":[{"attributes":{"NORMAL":"accessor_40","POSITION":"accessor_38","BATCHID":"accessor_b1"},"indices":"accessor_36","material":"CityEngineMaterial_644-effect","mode":4}]},"mesh_CityEngineMaterial_643-mesh":{"name":"mesh_CityEngineMaterial.643","primitives":[{"attributes":{"NORMAL":"accessor_60","POSITION":"accessor_58","BATCHID":"accessor_b2"},"indices":"accessor_56","material":"CityEngineMaterial_645-effect","mode":4}]}},"nodes":{"CityEngineMaterial":{"children":[],"matrix":[1,0,0,0,0,-1.62921e-7,1,0,0,-1,-1.62921e-7,0,0,0,0,1],"meshes":["mesh_CityEngineMaterial_641-mesh"],"name":"CityEngineMaterial"},"CityEngineMaterial_001":{"children":[],"matrix":[1,0,0,0,0,-1.62921e-7,1,0,0,-1,-1.62921e-7,0,0,0,0,1],"meshes":["mesh_CityEngineMaterial_642-mesh"],"name":"CityEngineMaterial_001"},"CityEngineMaterial_002":{"children":[],"matrix":[1,0,0,0,0,-1.62921e-7,1,0,0,-1,-1.62921e-7,0,0,0,0,1],"meshes":["mesh_CityEngineMaterial_643-mesh"],"name":"CityEngineMaterial_002"},"node_3":{"children":["CityEngineMaterial","CityEngineMaterial_001","CityEngineMaterial_002"],"matrix":[1,0,0,0,0,0,-1,0,0,1,0,0,0,0,0,1],"name":"Y_UP_Transform"}},"programs":{"program_0":{"attributes":["a_normal","a_position","a_batchId"],"fragmentShader":"\\data\\3dcity\\miami\\workspace\\gridID_77\\gridID_770FS","vertexShader":"\\data\\3dcity\\miami\\workspace\\gridID_77\\gridID_770VS"}},"scene":"defaultScene","scenes":{"defaultScene":{"nodes":["node_3"]}},"shaders":{"\\data\\3dcity\\miami\\workspace\\gridID_77\\gridID_770FS":{"type":35632,"uri":"data:text/plain;base64,"},"\\data\\3dcity\\miami\\workspace\\gridID_77\\gridID_770VS":{"type":35633,"uri":"data:text/plain;base64,"}},"skins":{},"techniques":{"technique0":{"attributes":{"a_normal":"normal","a_position":"position","a_batchId":"batchId"},"parameters":{"ambient":{"type":35666},"diffuse":{"type":35666},"emission":{"type":35666},"modelViewMatrix":{"semantic":"MODELVIEW","type":35676},"normal":{"semantic":"NORMAL","type":35665},"normalMatrix":{"semantic":"MODELVIEWINVERSETRANSPOSE","type":35675},"position":{"semantic":"POSITION","type":35665},"projectionMatrix":{"semantic":"PROJECTION","type":35676},"shininess":{"type":5126},"specular":{"type":35666},"batchId":{"semantic":"BATCHID","type":5126}},"program":"program_0","states":{"enable":[2929,2884]},"uniforms":{"u_ambient":"ambient","u_diffuse":"diffuse","u_emission":"emission","u_modelViewMatrix":"modelViewMatrix","u_normalMatrix":"normalMatrix","u_projectionMatrix":"projectionMatrix","u_shininess":"shininess","u_specular":"specular"}}}}