{
    "accessors": {
        "accessor_28": {
            "bufferView": "bufferView_72",
            "byteOffset": 96,
            "byteStride": 0,
            "componentType": 5123,
            "count": 24,
            "type": "SCALAR"
        },
        "accessor_31": {
            "bufferView": "bufferView_72",
            "byteOffset": 144,
            "byteStride": 0,
            "componentType": 5123,
            "count": 6,
            "type": "SCALAR"
        },
        "accessor_33": {
            "bufferView": "bufferView_73",
            "byteOffset": 912,
            "byteStride": 12,
            "componentType": 5126,
            "count": 20,
            "max": [
                7.18173,
                5,
                5.9915
            ],
            "min": [
                -7.18225,
                -5,
                -5.98651
            ],
            "type": "VEC3"
        },
        "accessor_35": {
            "bufferView": "bufferView_73",
            "byteOffset": 1152,
            "byteStride": 12,
            "componentType": 5126,
            "count": 20,
            "max": [
                0.89076,
                1,
                0.890323
            ],
            "min": [
                -0.890995,
                0,
                -0.890662
            ],
            "type": "VEC3"
        },
        "accessor_63": {
            "bufferView": "bufferView_72",
            "byteOffset": 0,
            "byteStride": 0,
            "componentType": 5123,
            "count": 36,
            "type": "SCALAR"
        },
        "accessor_66": {
            "bufferView": "bufferView_72",
            "byteOffset": 72,
            "byteStride": 0,
            "componentType": 5123,
            "count": 12,
            "type": "SCALAR"
        },
        "accessor_68": {
            "bufferView": "bufferView_73",
            "byteOffset": 0,
            "byteStride": 12,
            "componentType": 5126,
            "count": 38,
            "max": [
                8.29236,
                3.75,
                4.78281
            ],
            "min": [
                -13.1636,
                -3.75,
                -6.47119
            ],
            "type": "VEC3"
        },
        "accessor_70": {
            "bufferView": "bufferView_73",
            "byteOffset": 456,
            "byteStride": 12,
            "componentType": 5126,
            "count": 38,
            "max": [
                0.999995,
                1,
                0.999991
            ],
            "min": [
                -0.999987,
                0,
                -0.999989
            ],
            "type": "VEC3"
        }
    },
    "animations": {},
    "asset": {
        "generator": "collada2gltf@cf6371beb0bdc18ba603378d5e40c966da53d385",
        "premultipliedAlpha": true,
        "profile": {
            "api": "WebGL",
            "version": "1.0.2"
        },
        "version": "1.0"
    },
    "bufferViews": {
        "bufferView_72": {
            "buffer": "\\data\\ECNU\\workspace\\gridID_36\\gridID_36",
            "byteLength": 156,
            "byteOffset": 0,
            "target": 34963
        },
        "bufferView_73": {
            "buffer": "\\data\\ECNU\\workspace\\gridID_36\\gridID_36",
            "byteLength": 1392,
            "byteOffset": 156,
            "target": 34962
        }
    },
    "buffers": {
        "\\data\\ECNU\\workspace\\gridID_36\\gridID_36": {
            "byteLength": 1548,
            "type": "arraybuffer",
            "uri": "data:application/octet-stream;base64,"
        }
    },
    "materials": {
        "BUILDING_DEFAULT_0-effect": {
            "name": "BUILDING_DEFAULT_0",
            "technique": "technique0",
            "values": {
                "ambient": [
                    0,
                    0,
                    0,
                    1
                ],
                "diffuse": [
                    0.723055,
                    0.708376,
                    0.672443,
                    1
                ],
                "emission": [
                    0,
                    0,
                    0,
                    1
                ],
                "shininess": 50,
                "specular": [
                    0.5,
                    0.5,
                    0.5,
                    1
                ]
            }
        },
        "CONCRETE_0-effect": {
            "name": "CONCRETE_0",
            "technique": "technique0",
            "values": {
                "ambient": [
                    0,
                    0,
                    0,
                    1
                ],
                "diffuse": [
                    0.309469,
                    0.327778,
                    0.309469,
                    1
                ],
                "emission": [
                    0,
                    0,
                    0,
                    1
                ],
                "shininess": 50,
                "specular": [
                    0.5,
                    0.5,
                    0.5,
                    1
                ]
            }
        },
        "ROOF_DEFAULT_0-effect": {
            "name": "ROOF_DEFAULT_0",
            "technique": "technique0",
            "values": {
                "ambient": [
                    0,
                    0,
                    0,
                    1
                ],
                "diffuse": [
                    0.603827,
                    0.381326,
                    0.291771,
                    1
                ],
                "emission": [
                    0,
                    0,
                    0,
                    1
                ],
                "shininess": 50,
                "specular": [
                    0.5,
                    0.5,
                    0.5,
                    1
                ]
            }
        }
    },
    "meshes": {
        "Building3853-mesh": {
            "name": "Building3853",
            "primitives": [
                {
                    "attributes": {
                        "NORMAL": "accessor_70",
                        "POSITION": "accessor_68"
                    },
                    "indices": "accessor_63",
                    "material": "BUILDING_DEFAULT_0-effect",
                    "mode": 4
                },
                {
                    "attributes": {
                        "NORMAL": "accessor_70",
                        "POSITION": "accessor_68"
                    },
                    "indices": "accessor_66",
                    "material": "ROOF_DEFAULT_0-effect",
                    "mode": 4
                }
            ]
        },
        "Building3888-mesh": {
            "name": "Building3888",
            "primitives": [
                {
                    "attributes": {
                        "NORMAL": "accessor_35",
                        "POSITION": "accessor_33"
                    },
                    "indices": "accessor_28",
                    "material": "BUILDING_DEFAULT_0-effect",
                    "mode": 4
                },
                {
                    "attributes": {
                        "NORMAL": "accessor_35",
                        "POSITION": "accessor_33"
                    },
                    "indices": "accessor_31",
                    "material": "CONCRETE_0-effect",
                    "mode": 4
                }
            ]
        }
    },
    "nodes": {
        "model_gridID_36_w379069942": {
            "children": [],
            "matrix": [
                1,
                0,
                0,
                0,
                0,
                -1.62921e-007,
                1,
                0,
                0,
                -1,
                -1.62921e-007,
                0,
                -300.016,
                -185.175,
                4.99997,
                1
            ],
            "meshes": [
                "Building3888-mesh"
            ],
            "name": "model_gridID_36_w379069942"
        },
        "model_gridID_36_w379069959": {
            "children": [],
            "matrix": [
                1,
                0,
                0,
                0,
                0,
                -1.62921e-007,
                1,
                0,
                0,
                -1,
                -1.62921e-007,
                0,
                -295.938,
                -209.449,
                3.74997,
                1
            ],
            "meshes": [
                "Building3853-mesh"
            ],
            "name": "model_gridID_36_w379069959"
        },
        "node_2": {
            "children": [
                "model_gridID_36_w379069942",
                "model_gridID_36_w379069959"
            ],
            "matrix": [
                1,
                0,
                0,
                0,
                0,
                0,
                -1,
                0,
                0,
                1,
                0,
                0,
                0,
                0,
                0,
                1
            ],
            "name": "Y_UP_Transform"
        }
    },
    "programs": {
        "program_0": {
            "attributes": [
                "a_normal",
                "a_position"
            ],
            "fragmentShader": "\\data\\ECNU\\workspace\\gridID_36\\gridID_360FS",
            "vertexShader": "\\data\\ECNU\\workspace\\gridID_36\\gridID_360VS"
        }
    },
    "scene": "defaultScene",
    "scenes": {
        "defaultScene": {
            "nodes": [
                "node_2"
            ]
        }
    },
    "shaders": {
        "\\data\\ECNU\\workspace\\gridID_36\\gridID_360FS": {
            "type": 35632,
            "uri": "data:text/plain;base64,"
        },
        "\\data\\ECNU\\workspace\\gridID_36\\gridID_360VS": {
            "type": 35633,
            "uri": "data:text/plain;base64,"
        }
    },
    "skins": {},
    "techniques": {
        "technique0": {
            "attributes": {
                "a_normal": "normal",
                "a_position": "position"
            },
            "parameters": {
                "ambient": {
                    "type": 35666
                },
                "diffuse": {
                    "type": 35666
                },
                "emission": {
                    "type": 35666
                },
                "modelViewMatrix": {
                    "semantic": "MODELVIEW",
                    "type": 35676
                },
                "normal": {
                    "semantic": "NORMAL",
                    "type": 35665
                },
                "normalMatrix": {
                    "semantic": "MODELVIEWINVERSETRANSPOSE",
                    "type": 35675
                },
                "position": {
                    "semantic": "POSITION",
                    "type": 35665
                },
                "projectionMatrix": {
                    "semantic": "PROJECTION",
                    "type": 35676
                },
                "shininess": {
                    "type": 5126
                },
                "specular": {
                    "type": 35666
                }
            },
            "program": "program_0",
            "states": {
                "enable": [
                    2929,
                    2884
                ]
            },
            "uniforms": {
                "u_ambient": "ambient",
                "u_diffuse": "diffuse",
                "u_emission": "emission",
                "u_modelViewMatrix": "modelViewMatrix",
                "u_normalMatrix": "normalMatrix",
                "u_projectionMatrix": "projectionMatrix",
                "u_shininess": "shininess",
                "u_specular": "specular"
            }
        }
    }
}