{
    "accessors": {
        "accessor_100": {
            "bufferView": "bufferView_173",
            "byteOffset": 6264,
            "byteStride": 12,
            "componentType": 5126,
            "count": 110,
            "max": [
                0.980801,
                1,
                0.980801
            ],
            "min": [
                -0.980801,
                0,
                -0.980801
            ],
            "type": "VEC3"
        },
        "accessor_128": {
            "bufferView": "bufferView_172",
            "byteOffset": 348,
            "byteStride": 0,
            "componentType": 5123,
            "count": 48,
            "type": "SCALAR"
        },
        "accessor_131": {
            "bufferView": "bufferView_172",
            "byteOffset": 444,
            "byteStride": 0,
            "componentType": 5123,
            "count": 30,
            "type": "SCALAR"
        },
        "accessor_133": {
            "bufferView": "bufferView_173",
            "byteOffset": 3216,
            "byteStride": 12,
            "componentType": 5126,
            "count": 72,
            "max": [
                12.6318,
                10,
                9.81955
            ],
            "min": [
                -24.3122,
                -7.5,
                -7.36945
            ],
            "type": "VEC3"
        },
        "accessor_135": {
            "bufferView": "bufferView_173",
            "byteOffset": 4080,
            "byteStride": 12,
            "componentType": 5126,
            "count": 72,
            "max": [
                0.999118,
                1,
                0.999103
            ],
            "min": [
                -0.999072,
                0,
                -0.999114
            ],
            "type": "VEC3"
        },
        "accessor_16": {
            "bufferView": "bufferView_172",
            "byteOffset": 792,
            "byteStride": 0,
            "componentType": 5123,
            "count": 144,
            "type": "SCALAR"
        },
        "accessor_163": {
            "bufferView": "bufferView_172",
            "byteOffset": 0,
            "byteStride": 0,
            "componentType": 5123,
            "count": 132,
            "type": "SCALAR"
        },
        "accessor_166": {
            "bufferView": "bufferView_172",
            "byteOffset": 264,
            "byteStride": 0,
            "componentType": 5123,
            "count": 42,
            "type": "SCALAR"
        },
        "accessor_168": {
            "bufferView": "bufferView_173",
            "byteOffset": 0,
            "byteStride": 12,
            "componentType": 5126,
            "count": 134,
            "max": [
                22.3549,
                9.02778,
                43.5124
            ],
            "min": [
                -40.8221,
                -5.97222,
                -18.5726
            ],
            "type": "VEC3"
        },
        "accessor_170": {
            "bufferView": "bufferView_173",
            "byteOffset": 1608,
            "byteStride": 12,
            "componentType": 5126,
            "count": 134,
            "max": [
                0.988181,
                1,
                0.988128
            ],
            "min": [
                -0.988448,
                0,
                -0.903158
            ],
            "type": "VEC3"
        },
        "accessor_18": {
            "bufferView": "bufferView_173",
            "byteOffset": 7584,
            "byteStride": 12,
            "componentType": 5126,
            "count": 126,
            "max": [
                0.149994,
                4.85714,
                0.15863
            ],
            "min": [
                -0.149994,
                -5.14286,
                -0.141357
            ],
            "type": "VEC3"
        },
        "accessor_20": {
            "bufferView": "bufferView_173",
            "byteOffset": 9096,
            "byteStride": 12,
            "componentType": 5126,
            "count": 126,
            "max": [
                0.980801,
                1,
                0.980801
            ],
            "min": [
                -0.980801,
                0,
                -0.980801
            ],
            "type": "VEC3"
        },
        "accessor_36": {
            "bufferView": "bufferView_172",
            "byteOffset": 1080,
            "byteStride": 0,
            "componentType": 5123,
            "count": 144,
            "type": "SCALAR"
        },
        "accessor_38": {
            "bufferView": "bufferView_173",
            "byteOffset": 10608,
            "byteStride": 12,
            "componentType": 5126,
            "count": 122,
            "max": [
                0.149994,
                4.85714,
                0.1586
            ],
            "min": [
                -0.149994,
                -5.14286,
                -0.141418
            ],
            "type": "VEC3"
        },
        "accessor_40": {
            "bufferView": "bufferView_173",
            "byteOffset": 12072,
            "byteStride": 12,
            "componentType": 5126,
            "count": 122,
            "max": [
                0.980801,
                1,
                0.980801
            ],
            "min": [
                -0.980801,
                0,
                -0.980801
            ],
            "type": "VEC3"
        },
        "accessor_56": {
            "bufferView": "bufferView_172",
            "byteOffset": 1368,
            "byteStride": 0,
            "componentType": 5123,
            "count": 144,
            "type": "SCALAR"
        },
        "accessor_58": {
            "bufferView": "bufferView_173",
            "byteOffset": 13536,
            "byteStride": 12,
            "componentType": 5126,
            "count": 128,
            "max": [
                0.149994,
                4.85714,
                0.158569
            ],
            "min": [
                -0.150024,
                -5.14286,
                -0.141418
            ],
            "type": "VEC3"
        },
        "accessor_60": {
            "bufferView": "bufferView_173",
            "byteOffset": 15072,
            "byteStride": 12,
            "componentType": 5126,
            "count": 128,
            "max": [
                0.980701,
                1,
                0.980801
            ],
            "min": [
                -0.980801,
                0,
                -0.980801
            ],
            "type": "VEC3"
        },
        "accessor_76": {
            "bufferView": "bufferView_172",
            "byteOffset": 1656,
            "byteStride": 0,
            "componentType": 5123,
            "count": 144,
            "type": "SCALAR"
        },
        "accessor_78": {
            "bufferView": "bufferView_173",
            "byteOffset": 16608,
            "byteStride": 12,
            "componentType": 5126,
            "count": 106,
            "max": [
                0.150055,
                4.85714,
                0.158539
            ],
            "min": [
                -0.149933,
                -5.14286,
                -0.141449
            ],
            "type": "VEC3"
        },
        "accessor_80": {
            "bufferView": "bufferView_173",
            "byteOffset": 17880,
            "byteStride": 12,
            "componentType": 5126,
            "count": 106,
            "max": [
                0.980801,
                1,
                0.980801
            ],
            "min": [
                -0.980801,
                0,
                -0.980801
            ],
            "type": "VEC3"
        },
        "accessor_96": {
            "bufferView": "bufferView_172",
            "byteOffset": 504,
            "byteStride": 0,
            "componentType": 5123,
            "count": 144,
            "type": "SCALAR"
        },
        "accessor_98": {
            "bufferView": "bufferView_173",
            "byteOffset": 4944,
            "byteStride": 12,
            "componentType": 5126,
            "count": 110,
            "max": [
                0.150024,
                4.85714,
                0.158569
            ],
            "min": [
                -0.149963,
                -5.14286,
                -0.141418
            ],
            "type": "VEC3"
        }
    },
    "animations": {},
    "asset": {
        "generator": "collada2gltf@cf6371beb0bdc18ba603378d5e40c966da53d385",
        "premultipliedAlpha": true,
        "profile": {
            "api": "WebGL",
            "version": "1.0.2"
        },
        "version": "1.0"
    },
    "bufferViews": {
        "bufferView_172": {
            "buffer": "\\data\\ECNU\\workspace\\gridID_98\\gridID_98",
            "byteLength": 1944,
            "byteOffset": 0,
            "target": 34963
        },
        "bufferView_173": {
            "buffer": "\\data\\ECNU\\workspace\\gridID_98\\gridID_98",
            "byteLength": 19152,
            "byteOffset": 1944,
            "target": 34962
        }
    },
    "buffers": {
        "\\data\\ECNU\\workspace\\gridID_98\\gridID_98": {
            "byteLength": 21096,
            "type": "arraybuffer",
            "uri": "data:application/octet-stream;base64,"
        }
    },
    "materials": {
        "BUILDING_DEFAULT_0-effect": {
            "name": "BUILDING_DEFAULT_0",
            "technique": "technique0",
            "values": {
                "ambient": [
                    0,
                    0,
                    0,
                    1
                ],
                "diffuse": [
                    0.723055,
                    0.708376,
                    0.672443,
                    1
                ],
                "emission": [
                    0,
                    0,
                    0,
                    1
                ],
                "shininess": 50,
                "specular": [
                    0.5,
                    0.5,
                    0.5,
                    1
                ]
            }
        },
        "CONCRETE_0-effect": {
            "name": "CONCRETE_0",
            "technique": "technique0",
            "values": {
                "ambient": [
                    0,
                    0,
                    0,
                    1
                ],
                "diffuse": [
                    0.309469,
                    0.327778,
                    0.309469,
                    1
                ],
                "emission": [
                    0,
                    0,
                    0,
                    1
                ],
                "shininess": 50,
                "specular": [
                    0.5,
                    0.5,
                    0.5,
                    1
                ]
            }
        },
        "MAT_3_0-effect": {
            "name": "MAT_3_0",
            "technique": "technique0",
            "values": {
                "ambient": [
                    0,
                    0,
                    0,
                    1
                ],
                "diffuse": [
                    0.392157,
                    0.392157,
                    0.392157,
                    1
                ],
                "emission": [
                    0,
                    0,
                    0,
                    1
                ],
                "shininess": 50,
                "specular": [
                    0.5,
                    0.5,
                    0.5,
                    1
                ]
            }
        },
        "ROOF_DEFAULT_0-effect": {
            "name": "ROOF_DEFAULT_0",
            "technique": "technique0",
            "values": {
                "ambient": [
                    0,
                    0,
                    0,
                    1
                ],
                "diffuse": [
                    0.603827,
                    0.381326,
                    0.291771,
                    1
                ],
                "emission": [
                    0,
                    0,
                    0,
                    1
                ],
                "shininess": 50,
                "specular": [
                    0.5,
                    0.5,
                    0.5,
                    1
                ]
            }
        }
    },
    "meshes": {
        "Building3520-mesh": {
            "name": "Building3520",
            "primitives": [
                {
                    "attributes": {
                        "NORMAL": "accessor_170",
                        "POSITION": "accessor_168"
                    },
                    "indices": "accessor_163",
                    "material": "BUILDING_DEFAULT_0-effect",
                    "mode": 4
                },
                {
                    "attributes": {
                        "NORMAL": "accessor_170",
                        "POSITION": "accessor_168"
                    },
                    "indices": "accessor_166",
                    "material": "CONCRETE_0-effect",
                    "mode": 4
                }
            ]
        },
        "Building3784-mesh": {
            "name": "Building3784",
            "primitives": [
                {
                    "attributes": {
                        "NORMAL": "accessor_135",
                        "POSITION": "accessor_133"
                    },
                    "indices": "accessor_128",
                    "material": "BUILDING_DEFAULT_0-effect",
                    "mode": 4
                },
                {
                    "attributes": {
                        "NORMAL": "accessor_135",
                        "POSITION": "accessor_133"
                    },
                    "indices": "accessor_131",
                    "material": "ROOF_DEFAULT_0-effect",
                    "mode": 4
                }
            ]
        },
        "Flagpole397-mesh": {
            "name": "Flagpole397",
            "primitives": [
                {
                    "attributes": {
                        "NORMAL": "accessor_100",
                        "POSITION": "accessor_98"
                    },
                    "indices": "accessor_96",
                    "material": "MAT_3_0-effect",
                    "mode": 4
                }
            ]
        },
        "Flagpole398-mesh": {
            "name": "Flagpole398",
            "primitives": [
                {
                    "attributes": {
                        "NORMAL": "accessor_20",
                        "POSITION": "accessor_18"
                    },
                    "indices": "accessor_16",
                    "material": "MAT_3_0-effect",
                    "mode": 4
                }
            ]
        },
        "Flagpole399-mesh": {
            "name": "Flagpole399",
            "primitives": [
                {
                    "attributes": {
                        "NORMAL": "accessor_40",
                        "POSITION": "accessor_38"
                    },
                    "indices": "accessor_36",
                    "material": "MAT_3_0-effect",
                    "mode": 4
                }
            ]
        },
        "Flagpole400-mesh": {
            "name": "Flagpole400",
            "primitives": [
                {
                    "attributes": {
                        "NORMAL": "accessor_60",
                        "POSITION": "accessor_58"
                    },
                    "indices": "accessor_56",
                    "material": "MAT_3_0-effect",
                    "mode": 4
                }
            ]
        },
        "Flagpole401-mesh": {
            "name": "Flagpole401",
            "primitives": [
                {
                    "attributes": {
                        "NORMAL": "accessor_80",
                        "POSITION": "accessor_78"
                    },
                    "indices": "accessor_76",
                    "material": "MAT_3_0-effect",
                    "mode": 4
                }
            ]
        }
    },
    "nodes": {
        "model_gridID_98_w383801402_001": {
            "children": [],
            "matrix": [
                1,
                0,
                0,
                0,
                0,
                -1.62921e-007,
                1,
                0,
                0,
                -1,
                -1.62921e-007,
                0,
                332.766,
                486.319,
                5.14294,
                1
            ],
            "meshes": [
                "Flagpole398-mesh"
            ],
            "name": "model_gridID_98_w383801402_001"
        },
        "model_gridID_98_w383801402_002": {
            "children": [],
            "matrix": [
                1,
                0,
                0,
                0,
                0,
                -1.62921e-007,
                1,
                0,
                0,
                -1,
                -1.62921e-007,
                0,
                327.578,
                486.119,
                5.14294,
                1
            ],
            "meshes": [
                "Flagpole399-mesh"
            ],
            "name": "model_gridID_98_w383801402_002"
        },
        "model_gridID_98_w383801402_003": {
            "children": [],
            "matrix": [
                1,
                0,
                0,
                0,
                0,
                -1.62921e-007,
                1,
                0,
                0,
                -1,
                -1.62921e-007,
                0,
                328.882,
                486.164,
                5.14294,
                1
            ],
            "meshes": [
                "Flagpole400-mesh"
            ],
            "name": "model_gridID_98_w383801402_003"
        },
        "model_gridID_98_w383801402_004": {
            "children": [],
            "matrix": [
                1,
                0,
                0,
                0,
                0,
                -1.62921e-007,
                1,
                0,
                0,
                -1,
                -1.62921e-007,
                0,
                330.177,
                486.218,
                5.14294,
                1
            ],
            "meshes": [
                "Flagpole401-mesh"
            ],
            "name": "model_gridID_98_w383801402_004"
        },
        "model_gridID_98_w383801402_005": {
            "children": [],
            "matrix": [
                1,
                0,
                0,
                0,
                0,
                -1.62921e-007,
                1,
                0,
                0,
                -1,
                -1.62921e-007,
                0,
                331.471,
                486.275,
                5.14294,
                1
            ],
            "meshes": [
                "Flagpole397-mesh"
            ],
            "name": "model_gridID_98_w383801402_005"
        },
        "model_gridID_98_w383801402_006": {
            "children": [],
            "matrix": [
                1,
                0,
                0,
                0,
                0,
                -1.62921e-007,
                1,
                0,
                0,
                -1,
                -1.62921e-007,
                0,
                323.618,
                349.137,
                7.50006,
                1
            ],
            "meshes": [
                "Building3784-mesh"
            ],
            "name": "model_gridID_98_w383801402_006"
        },
        "model_gridID_98_w389190298": {
            "children": [],
            "matrix": [
                1,
                0,
                0,
                0,
                0,
                -1.62921e-007,
                1,
                0,
                0,
                -1,
                -1.62921e-007,
                0,
                293.4,
                390.178,
                5.97229,
                1
            ],
            "meshes": [
                "Building3520-mesh"
            ],
            "name": "model_gridID_98_w389190298"
        },
        "node_7": {
            "children": [
                "model_gridID_98_w383801402_001",
                "model_gridID_98_w383801402_002",
                "model_gridID_98_w383801402_003",
                "model_gridID_98_w383801402_004",
                "model_gridID_98_w383801402_005",
                "model_gridID_98_w383801402_006",
                "model_gridID_98_w389190298"
            ],
            "matrix": [
                1,
                0,
                0,
                0,
                0,
                0,
                -1,
                0,
                0,
                1,
                0,
                0,
                0,
                0,
                0,
                1
            ],
            "name": "Y_UP_Transform"
        }
    },
    "programs": {
        "program_0": {
            "attributes": [
                "a_normal",
                "a_position"
            ],
            "fragmentShader": "\\data\\ECNU\\workspace\\gridID_98\\gridID_980FS",
            "vertexShader": "\\data\\ECNU\\workspace\\gridID_98\\gridID_980VS"
        }
    },
    "scene": "defaultScene",
    "scenes": {
        "defaultScene": {
            "nodes": [
                "node_7"
            ]
        }
    },
    "shaders": {
        "\\data\\ECNU\\workspace\\gridID_98\\gridID_980FS": {
            "type": 35632,
            "uri": "data:text/plain;base64,"
        },
        "\\data\\ECNU\\workspace\\gridID_98\\gridID_980VS": {
            "type": 35633,
            "uri": "data:text/plain;base64,"
        }
    },
    "skins": {},
    "techniques": {
        "technique0": {
            "attributes": {
                "a_normal": "normal",
                "a_position": "position"
            },
            "parameters": {
                "ambient": {
                    "type": 35666
                },
                "diffuse": {
                    "type": 35666
                },
                "emission": {
                    "type": 35666
                },
                "modelViewMatrix": {
                    "semantic": "MODELVIEW",
                    "type": 35676
                },
                "normal": {
                    "semantic": "NORMAL",
                    "type": 35665
                },
                "normalMatrix": {
                    "semantic": "MODELVIEWINVERSETRANSPOSE",
                    "type": 35675
                },
                "position": {
                    "semantic": "POSITION",
                    "type": 35665
                },
                "projectionMatrix": {
                    "semantic": "PROJECTION",
                    "type": 35676
                },
                "shininess": {
                    "type": 5126
                },
                "specular": {
                    "type": 35666
                }
            },
            "program": "program_0",
            "states": {
                "enable": [
                    2929,
                    2884
                ]
            },
            "uniforms": {
                "u_ambient": "ambient",
                "u_diffuse": "diffuse",
                "u_emission": "emission",
                "u_modelViewMatrix": "modelViewMatrix",
                "u_normalMatrix": "normalMatrix",
                "u_projectionMatrix": "projectionMatrix",
                "u_shininess": "shininess",
                "u_specular": "specular"
            }
        }
    }
}