{"accessors":{"accessor_16":{"bufferView":"bufferView_62","byteOffset":0,"byteStride":0,"componentType":5123,"count":36,"type":"SCALAR"},"accessor_18":{"bufferView":"bufferView_63","byteOffset":0,"byteStride":12,"componentType":5126,"count":32,"max":[9.48977,10,-24.8946],"min":[-52.8491,0,-115.594],"type":"VEC3"},"accessor_20":{"bufferView":"bufferView_63","byteOffset":384,"byteStride":12,"componentType":5126,"count":32,"max":[0.998114,1,0.970443],"min":[-0.977543,-1,-0.974694],"type":"VEC3"},"accessor_36":{"bufferView":"bufferView_62","byteOffset":72,"byteStride":0,"componentType":5123,"count":120,"type":"SCALAR"},"accessor_38":{"bufferView":"bufferView_63","byteOffset":768,"byteStride":12,"componentType":5126,"count":86,"max":[-39.6355,52.5,34.929],"min":[-80.8126,0,0.307999],"type":"VEC3"},"accessor_40":{"bufferView":"bufferView_63","byteOffset":1800,"byteStride":12,"componentType":5126,"count":86,"max":[0.907918,1,0.904419],"min":[-0.949999,-1,-0.854289],"type":"VEC3"},"accessor_56":{"bufferView":"bufferView_62","byteOffset":312,"byteStride":0,"componentType":5123,"count":36,"type":"SCALAR"},"accessor_58":{"bufferView":"bufferView_63","byteOffset":2832,"byteStride":12,"componentType":5126,"count":30,"max":[-60.6971,10,74.3581],"min":[-79.1317,0,61.9114],"type":"VEC3"},"accessor_60":{"bufferView":"bufferView_63","byteOffset":3192,"byteStride":12,"componentType":5126,"count":30,"max":[0.984122,1,0.984266],"min":[-0.984121,-1,-0.984267],"type":"VEC3"},"accessor_b0":{"bufferView":"bufferView_b","byteOffset":0,"byteStride":0,"componentType":5123,"count":32,"type":"SCALAR"},"accessor_b1":{"bufferView":"bufferView_b","byteOffset":64,"byteStride":0,"componentType":5123,"count":86,"type":"SCALAR"},"accessor_b2":{"bufferView":"bufferView_b","byteOffset":236,"byteStride":0,"componentType":5123,"count":30,"type":"SCALAR"}},"animations":{},"asset":{"generator":"collada2gltf@cf6371beb0bdc18ba603378d5e40c966da53d385","premultipliedAlpha":true,"profile":{"api":"WebGL","version":"1.0.2"},"version":"1.0"},"bufferViews":{"bufferView_62":{"buffer":"\\data\\3dcity\\miami\\workspace\\gridID_23\\gridID_23","byteLength":384,"byteOffset":0,"target":34963},"bufferView_63":{"buffer":"\\data\\3dcity\\miami\\workspace\\gridID_23\\gridID_23","byteLength":3552,"byteOffset":384,"target":34962},"bufferView_b":{"buffer":"buffer_b","byteLength":296,"byteOffset":0,"target":34962}},"buffers":{"\\data\\3dcity\\miami\\workspace\\gridID_23\\gridID_23":{"byteLength":3936,"type":"arraybuffer","uri":"data:application/octet-stream;base64,"},"buffer_b":{"type":"arraybuffer","byteLength":296,"uri":"data:application/octet-stream;base64,"}},"materials":{"CityEngineMaterial_358-effect":{"name":"CityEngineMaterial_358","technique":"technique0","values":{"ambient":[1,1,1,1],"diffuse":[1,1,1,1],"emission":[0,0,0,1],"shininess":50,"specular":[0.5,0.5,0.5,1]}},"CityEngineMaterial_359-effect":{"name":"CityEngineMaterial_359","technique":"technique0","values":{"ambient":[1,1,1,1],"diffuse":[1,1,1,1],"emission":[0,0,0,1],"shininess":50,"specular":[0.5,0.5,0.5,1]}},"CityEngineMaterial_360-effect":{"name":"CityEngineMaterial_360","technique":"technique0","values":{"ambient":[1,1,1,1],"diffuse":[1,1,1,1],"emission":[0,0,0,1],"shininess":50,"specular":[0.5,0.5,0.5,1]}}},"meshes":{"mesh_CityEngineMaterial_357-mesh":{"name":"mesh_CityEngineMaterial.357","primitives":[{"attributes":{"NORMAL":"accessor_20","POSITION":"accessor_18","BATCHID":"accessor_b0"},"indices":"accessor_16","material":"CityEngineMaterial_358-effect","mode":4}]},"mesh_CityEngineMaterial_358-mesh":{"name":"mesh_CityEngineMaterial.358","primitives":[{"attributes":{"NORMAL":"accessor_40","POSITION":"accessor_38","BATCHID":"accessor_b1"},"indices":"accessor_36","material":"CityEngineMaterial_359-effect","mode":4}]},"mesh_CityEngineMaterial_359-mesh":{"name":"mesh_CityEngineMaterial.359","primitives":[{"attributes":{"NORMAL":"accessor_60","POSITION":"accessor_58","BATCHID":"accessor_b2"},"indices":"accessor_56","material":"CityEngineMaterial_360-effect","mode":4}]}},"nodes":{"CityEngineMaterial":{"children":[],"matrix":[1,0,0,0,0,-1.62921e-7,1,0,0,-1,-1.62921e-7,0,0,0,0,1],"meshes":["mesh_CityEngineMaterial_357-mesh"],"name":"CityEngineMaterial"},"CityEngineMaterial_001":{"children":[],"matrix":[1,0,0,0,0,-1.62921e-7,1,0,0,-1,-1.62921e-7,0,0,0,0,1],"meshes":["mesh_CityEngineMaterial_358-mesh"],"name":"CityEngineMaterial_001"},"CityEngineMaterial_002":{"children":[],"matrix":[1,0,0,0,0,-1.62921e-7,1,0,0,-1,-1.62921e-7,0,0,0,0,1],"meshes":["mesh_CityEngineMaterial_359-mesh"],"name":"CityEngineMaterial_002"},"node_3":{"children":["CityEngineMaterial","CityEngineMaterial_001","CityEngineMaterial_002"],"matrix":[1,0,0,0,0,0,-1,0,0,1,0,0,0,0,0,1],"name":"Y_UP_Transform"}},"programs":{"program_0":{"attributes":["a_normal","a_position","a_batchId"],"fragmentShader":"\\data\\3dcity\\miami\\workspace\\gridID_23\\gridID_230FS","vertexShader":"\\data\\3dcity\\miami\\workspace\\gridID_23\\gridID_230VS"}},"scene":"defaultScene","scenes":{"defaultScene":{"nodes":["node_3"]}},"shaders":{"\\data\\3dcity\\miami\\workspace\\gridID_23\\gridID_230FS":{"type":35632,"uri":"data:text/plain;base64,"},"\\data\\3dcity\\miami\\workspace\\gridID_23\\gridID_230VS":{"type":35633,"uri":"data:text/plain;base64,"}},"skins":{},"techniques":{"technique0":{"attributes":{"a_normal":"normal","a_position":"position","a_batchId":"batchId"},"parameters":{"ambient":{"type":35666},"diffuse":{"type":35666},"emission":{"type":35666},"modelViewMatrix":{"semantic":"MODELVIEW","type":35676},"normal":{"semantic":"NORMAL","type":35665},"normalMatrix":{"semantic":"MODELVIEWINVERSETRANSPOSE","type":35675},"position":{"semantic":"POSITION","type":35665},"projectionMatrix":{"semantic":"PROJECTION","type":35676},"shininess":{"type":5126},"specular":{"type":35666},"batchId":{"semantic":"BATCHID","type":5126}},"program":"program_0","states":{"enable":[2929,2884]},"uniforms":{"u_ambient":"ambient","u_diffuse":"diffuse","u_emission":"emission","u_modelViewMatrix":"modelViewMatrix","u_normalMatrix":"normalMatrix","u_projectionMatrix":"projectionMatrix","u_shininess":"shininess","u_specular":"specular"}}}}