{
    "accessors": {
        "accessor_16": {
            "bufferView": "bufferView_82",
            "byteOffset": 420,
            "byteStride": 0,
            "componentType": 5123,
            "count": 30,
            "type": "SCALAR"
        },
        "accessor_18": {
            "bufferView": "bufferView_83",
            "byteOffset": 4464,
            "byteStride": 12,
            "componentType": 5126,
            "count": 30,
            "max": [
                -0.130751,
                -17.0433,
                12.2938
            ],
            "min": [
                -22.2876,
                -36.9956,
                4.47255
            ],
            "type": "VEC3"
        },
        "accessor_20": {
            "bufferView": "bufferView_83",
            "byteOffset": 4824,
            "byteStride": 12,
            "componentType": 5126,
            "count": 30,
            "max": [
                0.999384,
                0.999372,
                1
            ],
            "min": [
                -0.999384,
                -0.999371,
                0
            ],
            "type": "VEC3"
        },
        "accessor_36": {
            "bufferView": "bufferView_82",
            "byteOffset": 480,
            "byteStride": 0,
            "componentType": 5123,
            "count": 66,
            "type": "SCALAR"
        },
        "accessor_38": {
            "bufferView": "bufferView_83",
            "byteOffset": 5184,
            "byteStride": 12,
            "componentType": 5126,
            "count": 56,
            "max": [
                -37.0597,
                -45.6599,
                14.0373
            ],
            "min": [
                -51.7877,
                -63.4703,
                5.31732
            ],
            "type": "VEC3"
        },
        "accessor_40": {
            "bufferView": "bufferView_83",
            "byteOffset": 5856,
            "byteStride": 12,
            "componentType": 5126,
            "count": 56,
            "max": [
                0.999389,
                0.999375,
                1
            ],
            "min": [
                -0.999389,
                -0.999376,
                0
            ],
            "type": "VEC3"
        },
        "accessor_56": {
            "bufferView": "bufferView_82",
            "byteOffset": 612,
            "byteStride": 0,
            "componentType": 5123,
            "count": 333,
            "type": "SCALAR"
        },
        "accessor_58": {
            "bufferView": "bufferView_83",
            "byteOffset": 6528,
            "byteStride": 12,
            "componentType": 5126,
            "count": 298,
            "max": [
                -2.69835,
                -54.3575,
                15.977
            ],
            "min": [
                -28.6444,
                -90.8556,
                4.5983
            ],
            "type": "VEC3"
        },
        "accessor_60": {
            "bufferView": "bufferView_83",
            "byteOffset": 10104,
            "byteStride": 12,
            "componentType": 5126,
            "count": 298,
            "max": [
                0.934315,
                0.933017,
                1
            ],
            "min": [
                -0.934313,
                -0.933016,
                -1
            ],
            "type": "VEC3"
        },
        "accessor_76": {
            "bufferView": "bufferView_82",
            "byteOffset": 0,
            "byteStride": 0,
            "componentType": 5123,
            "count": 210,
            "type": "SCALAR"
        },
        "accessor_78": {
            "bufferView": "bufferView_83",
            "byteOffset": 0,
            "byteStride": 12,
            "componentType": 5126,
            "count": 186,
            "max": [
                44.5638,
                -16.3907,
                112.025
            ],
            "min": [
                26.7362,
                -87.0766,
                3.99926
            ],
            "type": "VEC3"
        },
        "accessor_80": {
            "bufferView": "bufferView_83",
            "byteOffset": 2232,
            "byteStride": 12,
            "componentType": 5126,
            "count": 186,
            "max": [
                0.973789,
                0.973653,
                1
            ],
            "min": [
                -0.974261,
                -0.973594,
                0
            ],
            "type": "VEC3"
        }
    },
    "animations": {},
    "asset": {
        "generator": "collada2gltf@cf6371beb0bdc18ba603378d5e40c966da53d385",
        "premultipliedAlpha": true,
        "profile": {
            "api": "WebGL",
            "version": "1.0.2"
        },
        "version": "1.0"
    },
    "bufferViews": {
        "bufferView_82": {
            "buffer": "\\data\\3dcity\\miami\\workspace\\gridID_19\\gridID_19_high",
            "byteLength": 1280,
            "byteOffset": 0,
            "target": 34963
        },
        "bufferView_83": {
            "buffer": "\\data\\3dcity\\miami\\workspace\\gridID_19\\gridID_19_high",
            "byteLength": 13680,
            "byteOffset": 1280,
            "target": 34962
        }
    },
    "buffers": {
        "\\data\\3dcity\\miami\\workspace\\gridID_19\\gridID_19_high": {
            "byteLength": 14960,
            "type": "arraybuffer",
            "uri": "data:application/octet-stream;base64,"
        }
    },
    "materials": {
        "__glTF__defaultMaterial0": {
            "name": "__glTF__defaultMaterial0",
            "technique": "technique0",
            "values": {
                "diffuse": [
                    1,
                    1,
                    1,
                    1
                ]
            }
        }
    },
    "meshes": {
        "multipatch_footprint_1197-mesh": {
            "name": "multipatch_footprint.1197",
            "primitives": [
                {
                    "attributes": {
                        "NORMAL": "accessor_80",
                        "POSITION": "accessor_78"
                    },
                    "indices": "accessor_76",
                    "material": "__glTF__defaultMaterial0",
                    "mode": 4
                }
            ]
        },
        "multipatch_footprint_269-mesh": {
            "name": "multipatch_footprint.269",
            "primitives": [
                {
                    "attributes": {
                        "NORMAL": "accessor_20",
                        "POSITION": "accessor_18"
                    },
                    "indices": "accessor_16",
                    "material": "__glTF__defaultMaterial0",
                    "mode": 4
                }
            ]
        },
        "multipatch_footprint_273-mesh": {
            "name": "multipatch_footprint.273",
            "primitives": [
                {
                    "attributes": {
                        "NORMAL": "accessor_40",
                        "POSITION": "accessor_38"
                    },
                    "indices": "accessor_36",
                    "material": "__glTF__defaultMaterial0",
                    "mode": 4
                }
            ]
        },
        "multipatch_footprint_279-mesh": {
            "name": "multipatch_footprint.279",
            "primitives": [
                {
                    "attributes": {
                        "NORMAL": "accessor_60",
                        "POSITION": "accessor_58"
                    },
                    "indices": "accessor_56",
                    "material": "__glTF__defaultMaterial0",
                    "mode": 4
                }
            ]
        }
    },
    "nodes": {
        "gridID_19_w255188229_join": {
            "children": [],
            "matrix": [
                1,
                0,
                0,
                0,
                0,
                1,
                0,
                0,
                0,
                0,
                1,
                0,
                0.000379562,
                0.000335693,
                0,
                1
            ],
            "meshes": [
                "multipatch_footprint_279-mesh"
            ],
            "name": "gridID_19_w255188229_join"
        },
        "gridID_19_w255188246_join": {
            "children": [],
            "matrix": [
                1,
                0,
                0,
                0,
                0,
                1,
                0,
                0,
                0,
                0,
                1,
                0,
                0.000379562,
                0.000335693,
                0,
                1
            ],
            "meshes": [
                "multipatch_footprint_269-mesh"
            ],
            "name": "gridID_19_w255188246_join"
        },
        "gridID_19_w301823927_join": {
            "children": [],
            "matrix": [
                1,
                0,
                0,
                0,
                0,
                1,
                0,
                0,
                0,
                0,
                1,
                0,
                0.000379562,
                0.000335693,
                0,
                1
            ],
            "meshes": [
                "multipatch_footprint_1197-mesh"
            ],
            "name": "gridID_19_w301823927_join"
        },
        "gridID_19_w435236345_join": {
            "children": [],
            "matrix": [
                1,
                0,
                0,
                0,
                0,
                1,
                0,
                0,
                0,
                0,
                1,
                0,
                0.000379562,
                0.000335693,
                0,
                1
            ],
            "meshes": [
                "multipatch_footprint_273-mesh"
            ],
            "name": "gridID_19_w435236345_join"
        },
        "node_4": {
            "children": [
                "gridID_19_w255188246_join",
                "gridID_19_w435236345_join",
                "gridID_19_w255188229_join",
                "gridID_19_w301823927_join"
            ],
            "matrix": [
                1,
                0,
                0,
                0,
                0,
                0,
                -1,
                0,
                0,
                1,
                0,
                0,
                0,
                0,
                0,
                1
            ],
            "name": "Y_UP_Transform"
        }
    },
    "programs": {
        "program_0": {
            "attributes": [
                "a_normal",
                "a_position"
            ],
            "fragmentShader": "\\data\\3dcity\\miami\\workspace\\gridID_19\\gridID_19_high0FS",
            "vertexShader": "\\data\\3dcity\\miami\\workspace\\gridID_19\\gridID_19_high0VS"
        }
    },
    "scene": "defaultScene",
    "scenes": {
        "defaultScene": {
            "nodes": [
                "node_4"
            ]
        }
    },
    "shaders": {
        "\\data\\3dcity\\miami\\workspace\\gridID_19\\gridID_19_high0FS": {
            "type": 35632,
            "uri": "data:text/plain;base64,"
        },
        "\\data\\3dcity\\miami\\workspace\\gridID_19\\gridID_19_high0VS": {
            "type": 35633,
            "uri": "data:text/plain;base64,"
        }
    },
    "skins": {},
    "techniques": {
        "technique0": {
            "attributes": {
                "a_normal": "normal",
                "a_position": "position"
            },
            "parameters": {
                "diffuse": {
                    "type": 35666
                },
                "modelViewMatrix": {
                    "semantic": "MODELVIEW",
                    "type": 35676
                },
                "normal": {
                    "semantic": "NORMAL",
                    "type": 35665
                },
                "normalMatrix": {
                    "semantic": "MODELVIEWINVERSETRANSPOSE",
                    "type": 35675
                },
                "position": {
                    "semantic": "POSITION",
                    "type": 35665
                },
                "projectionMatrix": {
                    "semantic": "PROJECTION",
                    "type": 35676
                }
            },
            "program": "program_0",
            "states": {
                "enable": [
                    2929,
                    2884
                ]
            },
            "uniforms": {
                "u_diffuse": "diffuse",
                "u_modelViewMatrix": "modelViewMatrix",
                "u_normalMatrix": "normalMatrix",
                "u_projectionMatrix": "projectionMatrix"
            }
        }
    }
}