{"accessors":{"accessor_16":{"bufferView":"bufferView_82","byteOffset":0,"byteStride":0,"componentType":5123,"count":36,"type":"SCALAR"},"accessor_18":{"bufferView":"bufferView_83","byteOffset":0,"byteStride":12,"componentType":5126,"count":34,"max":[15.0028,10,25.6465],"min":[-19.3059,0,-18.4301],"type":"VEC3"},"accessor_20":{"bufferView":"bufferView_83","byteOffset":408,"byteStride":12,"componentType":5126,"count":34,"max":[0.975547,1,0.975559],"min":[-0.975547,-1,-0.975559],"type":"VEC3"},"accessor_36":{"bufferView":"bufferView_82","byteOffset":72,"byteStride":0,"componentType":5123,"count":96,"type":"SCALAR"},"accessor_38":{"bufferView":"bufferView_83","byteOffset":816,"byteStride":12,"componentType":5126,"count":69,"max":[-1.43913,10,98.2008],"min":[-94.1126,0,-47.0936],"type":"VEC3"},"accessor_40":{"bufferView":"bufferView_83","byteOffset":1644,"byteStride":12,"componentType":5126,"count":69,"max":[0.974053,1,0.974704],"min":[-0.975107,-1,-0.974058],"type":"VEC3"},"accessor_56":{"bufferView":"bufferView_82","byteOffset":264,"byteStride":0,"componentType":5123,"count":60,"type":"SCALAR"},"accessor_58":{"bufferView":"bufferView_83","byteOffset":2472,"byteStride":12,"componentType":5126,"count":46,"max":[-32.7867,13,-54.1143],"min":[-78.0603,0,-98.4013],"type":"VEC3"},"accessor_60":{"bufferView":"bufferView_83","byteOffset":3024,"byteStride":12,"componentType":5126,"count":46,"max":[0.976268,1,0.975839],"min":[-0.97631,-1,-0.975826],"type":"VEC3"},"accessor_76":{"bufferView":"bufferView_82","byteOffset":384,"byteStride":0,"componentType":5123,"count":36,"type":"SCALAR"},"accessor_78":{"bufferView":"bufferView_83","byteOffset":3576,"byteStride":12,"componentType":5126,"count":28,"max":[31.2554,8,-51.6917],"min":[-7.0496,0,-83.4329],"type":"VEC3"},"accessor_80":{"bufferView":"bufferView_83","byteOffset":3912,"byteStride":12,"componentType":5126,"count":28,"max":[0.973958,1,0.973466],"min":[-0.974057,-1,-0.973483],"type":"VEC3"},"accessor_b0":{"bufferView":"bufferView_b","byteOffset":0,"byteStride":0,"componentType":5123,"count":34,"type":"SCALAR"},"accessor_b1":{"bufferView":"bufferView_b","byteOffset":68,"byteStride":0,"componentType":5123,"count":69,"type":"SCALAR"},"accessor_b2":{"bufferView":"bufferView_b","byteOffset":206,"byteStride":0,"componentType":5123,"count":46,"type":"SCALAR"},"accessor_b3":{"bufferView":"bufferView_b","byteOffset":298,"byteStride":0,"componentType":5123,"count":28,"type":"SCALAR"}},"animations":{},"asset":{"generator":"collada2gltf@cf6371beb0bdc18ba603378d5e40c966da53d385","premultipliedAlpha":true,"profile":{"api":"WebGL","version":"1.0.2"},"version":"1.0"},"bufferViews":{"bufferView_82":{"buffer":"\\data\\3dcity\\miami\\workspace\\gridID_20\\gridID_20","byteLength":456,"byteOffset":0,"target":34963},"bufferView_83":{"buffer":"\\data\\3dcity\\miami\\workspace\\gridID_20\\gridID_20","byteLength":4248,"byteOffset":456,"target":34962},"bufferView_b":{"buffer":"buffer_b","byteLength":354,"byteOffset":0,"target":34962}},"buffers":{"\\data\\3dcity\\miami\\workspace\\gridID_20\\gridID_20":{"byteLength":4704,"type":"arraybuffer","uri":"data:application/octet-stream;base64,"},"buffer_b":{"type":"arraybuffer","byteLength":354,"uri":"data:application/octet-stream;base64,"}},"materials":{"CityEngineMaterial_345-effect":{"name":"CityEngineMaterial_345","technique":"technique0","values":{"ambient":[1,1,1,1],"diffuse":[1,1,1,1],"emission":[0,0,0,1],"shininess":50,"specular":[0.5,0.5,0.5,1]}},"CityEngineMaterial_346-effect":{"name":"CityEngineMaterial_346","technique":"technique0","values":{"ambient":[1,1,1,1],"diffuse":[1,1,1,1],"emission":[0,0,0,1],"shininess":50,"specular":[0.5,0.5,0.5,1]}},"CityEngineMaterial_347-effect":{"name":"CityEngineMaterial_347","technique":"technique0","values":{"ambient":[1,1,1,1],"diffuse":[1,1,1,1],"emission":[0,0,0,1],"shininess":50,"specular":[0.5,0.5,0.5,1]}},"CityEngineMaterial_348-effect":{"name":"CityEngineMaterial_348","technique":"technique0","values":{"ambient":[1,1,1,1],"diffuse":[1,1,1,1],"emission":[0,0,0,1],"shininess":50,"specular":[0.5,0.5,0.5,1]}}},"meshes":{"mesh_CityEngineMaterial_344-mesh":{"name":"mesh_CityEngineMaterial.344","primitives":[{"attributes":{"NORMAL":"accessor_20","POSITION":"accessor_18","BATCHID":"accessor_b0"},"indices":"accessor_16","material":"CityEngineMaterial_345-effect","mode":4}]},"mesh_CityEngineMaterial_345-mesh":{"name":"mesh_CityEngineMaterial.345","primitives":[{"attributes":{"NORMAL":"accessor_40","POSITION":"accessor_38","BATCHID":"accessor_b1"},"indices":"accessor_36","material":"CityEngineMaterial_346-effect","mode":4}]},"mesh_CityEngineMaterial_346-mesh":{"name":"mesh_CityEngineMaterial.346","primitives":[{"attributes":{"NORMAL":"accessor_60","POSITION":"accessor_58","BATCHID":"accessor_b2"},"indices":"accessor_56","material":"CityEngineMaterial_347-effect","mode":4}]},"mesh_CityEngineMaterial_347-mesh":{"name":"mesh_CityEngineMaterial.347","primitives":[{"attributes":{"NORMAL":"accessor_80","POSITION":"accessor_78","BATCHID":"accessor_b3"},"indices":"accessor_76","material":"CityEngineMaterial_348-effect","mode":4}]}},"nodes":{"CityEngineMaterial":{"children":[],"matrix":[1,0,0,0,0,-1.62921e-7,1,0,0,-1,-1.62921e-7,0,0,0,0,1],"meshes":["mesh_CityEngineMaterial_344-mesh"],"name":"CityEngineMaterial"},"CityEngineMaterial_001":{"children":[],"matrix":[1,0,0,0,0,-1.62921e-7,1,0,0,-1,-1.62921e-7,0,0,0,0,1],"meshes":["mesh_CityEngineMaterial_345-mesh"],"name":"CityEngineMaterial_001"},"CityEngineMaterial_002":{"children":[],"matrix":[1,0,0,0,0,-1.62921e-7,1,0,0,-1,-1.62921e-7,0,0,0,0,1],"meshes":["mesh_CityEngineMaterial_346-mesh"],"name":"CityEngineMaterial_002"},"CityEngineMaterial_003":{"children":[],"matrix":[1,0,0,0,0,-1.62921e-7,1,0,0,-1,-1.62921e-7,0,0,0,0,1],"meshes":["mesh_CityEngineMaterial_347-mesh"],"name":"CityEngineMaterial_003"},"node_4":{"children":["CityEngineMaterial","CityEngineMaterial_001","CityEngineMaterial_002","CityEngineMaterial_003"],"matrix":[1,0,0,0,0,0,-1,0,0,1,0,0,0,0,0,1],"name":"Y_UP_Transform"}},"programs":{"program_0":{"attributes":["a_normal","a_position","a_batchId"],"fragmentShader":"\\data\\3dcity\\miami\\workspace\\gridID_20\\gridID_200FS","vertexShader":"\\data\\3dcity\\miami\\workspace\\gridID_20\\gridID_200VS"}},"scene":"defaultScene","scenes":{"defaultScene":{"nodes":["node_4"]}},"shaders":{"\\data\\3dcity\\miami\\workspace\\gridID_20\\gridID_200FS":{"type":35632,"uri":"data:text/plain;base64,"},"\\data\\3dcity\\miami\\workspace\\gridID_20\\gridID_200VS":{"type":35633,"uri":"data:text/plain;base64,"}},"skins":{},"techniques":{"technique0":{"attributes":{"a_normal":"normal","a_position":"position","a_batchId":"batchId"},"parameters":{"ambient":{"type":35666},"diffuse":{"type":35666},"emission":{"type":35666},"modelViewMatrix":{"semantic":"MODELVIEW","type":35676},"normal":{"semantic":"NORMAL","type":35665},"normalMatrix":{"semantic":"MODELVIEWINVERSETRANSPOSE","type":35675},"position":{"semantic":"POSITION","type":35665},"projectionMatrix":{"semantic":"PROJECTION","type":35676},"shininess":{"type":5126},"specular":{"type":35666},"batchId":{"semantic":"BATCHID","type":5126}},"program":"program_0","states":{"enable":[2929,2884]},"uniforms":{"u_ambient":"ambient","u_diffuse":"diffuse","u_emission":"emission","u_modelViewMatrix":"modelViewMatrix","u_normalMatrix":"normalMatrix","u_projectionMatrix":"projectionMatrix","u_shininess":"shininess","u_specular":"specular"}}}}