{"accessors":{"accessor_100":{"bufferView":"bufferView_103","byteOffset":68208,"byteStride":12,"componentType":5126,"count":42,"max":[0.918321,1,0.917873],"min":[-0.919072,0,-0.925756],"type":"VEC3"},"accessor_52":{"bufferView":"bufferView_102","byteOffset":0,"byteStride":0,"componentType":5123,"count":246,"type":"SCALAR"},"accessor_55":{"bufferView":"bufferView_102","byteOffset":492,"byteStride":0,"componentType":5123,"count":2220,"type":"SCALAR"},"accessor_58":{"bufferView":"bufferView_102","byteOffset":4932,"byteStride":0,"componentType":5123,"count":678,"type":"SCALAR"},"accessor_61":{"bufferView":"bufferView_102","byteOffset":6288,"byteStride":0,"componentType":5123,"count":120,"type":"SCALAR"},"accessor_63":{"bufferView":"bufferView_103","byteOffset":0,"byteStride":12,"componentType":5126,"count":2821,"max":[69.5265,29.0812,29.4643],"min":[-37.1436,-14.9188,-43.6987],"type":"VEC3"},"accessor_65":{"bufferView":"bufferView_103","byteOffset":33852,"byteStride":12,"componentType":5126,"count":2821,"max":[1,1,1],"min":[-1,-1,-1],"type":"VEC3"},"accessor_93":{"bufferView":"bufferView_102","byteOffset":6528,"byteStride":0,"componentType":5123,"count":36,"type":"SCALAR"},"accessor_96":{"bufferView":"bufferView_102","byteOffset":6600,"byteStride":0,"componentType":5123,"count":12,"type":"SCALAR"},"accessor_98":{"bufferView":"bufferView_103","byteOffset":67704,"byteStride":12,"componentType":5126,"count":42,"max":[9.38366,2.5,16.3537],"min":[-6.98834,-2.5,-10.7093],"type":"VEC3"},"accessor_b0":{"bufferView":"bufferView_b","byteOffset":0,"byteStride":0,"componentType":5123,"count":2821,"type":"SCALAR"},"accessor_b1":{"bufferView":"bufferView_b","byteOffset":5642,"byteStride":0,"componentType":5123,"count":42,"type":"SCALAR"}},"animations":{},"asset":{"generator":"collada2gltf@cf6371beb0bdc18ba603378d5e40c966da53d385","premultipliedAlpha":true,"profile":{"api":"WebGL","version":"1.0.2"},"version":"1.0"},"bufferViews":{"bufferView_102":{"buffer":"\\data\\ECNU\\workspace\\gridID_105\\gridID_105","byteLength":6624,"byteOffset":0,"target":34963},"bufferView_103":{"buffer":"\\data\\ECNU\\workspace\\gridID_105\\gridID_105","byteLength":68712,"byteOffset":6624,"target":34962},"bufferView_b":{"buffer":"buffer_b","byteLength":5726,"byteOffset":0,"target":34962}},"buffers":{"\\data\\ECNU\\workspace\\gridID_105\\gridID_105":{"byteLength":75336,"type":"arraybuffer","uri":"data:application/octet-stream;base64,"},"buffer_b":{"type":"arraybuffer","byteLength":5726,"uri":"data:application/octet-stream;base64,"}},"materials":{"BUILDING_DEFAULT_0-effect":{"name":"BUILDING_DEFAULT_0","technique":"technique0","values":{"ambient":[0,0,0,1],"diffuse":[0.723055,0.708376,0.672443,1],"emission":[0,0,0,1],"shininess":50,"specular":[0.5,0.5,0.5,1]}},"CONCRETE_0-effect":{"name":"CONCRETE_0","technique":"technique0","values":{"ambient":[0,0,0,1],"diffuse":[0.309469,0.327778,0.309469,1],"emission":[0,0,0,1],"shininess":50,"specular":[0.5,0.5,0.5,1]}},"GLASS_0-effect":{"name":"GLASS_0","technique":"technique0","values":{"ambient":[0,0,0,1],"diffuse":[0.491021,0.665387,0.658375,1],"emission":[0,0,0,1],"shininess":50,"specular":[0.5,0.5,0.5,1]}},"ROOF_DEFAULT_0-effect":{"name":"ROOF_DEFAULT_0","technique":"technique0","values":{"ambient":[0,0,0,1],"diffuse":[0.603827,0.381326,0.291771,1],"emission":[0,0,0,1],"shininess":50,"specular":[0.5,0.5,0.5,1]}}},"meshes":{"Building3275-mesh":{"name":"Building3275","primitives":[{"attributes":{"NORMAL":"accessor_65","POSITION":"accessor_63","BATCHID":"accessor_b0"},"indices":"accessor_52","material":"GLASS_0-effect","mode":4},{"attributes":{"NORMAL":"accessor_65","POSITION":"accessor_63","BATCHID":"accessor_b0"},"indices":"accessor_55","material":"BUILDING_DEFAULT_0-effect","mode":4},{"attributes":{"NORMAL":"accessor_65","POSITION":"accessor_63","BATCHID":"accessor_b0"},"indices":"accessor_58","material":"ROOF_DEFAULT_0-effect","mode":4},{"attributes":{"NORMAL":"accessor_65","POSITION":"accessor_63","BATCHID":"accessor_b0"},"indices":"accessor_61","material":"CONCRETE_0-effect","mode":4}]},"Building4031-mesh":{"name":"Building4031","primitives":[{"attributes":{"NORMAL":"accessor_100","POSITION":"accessor_98","BATCHID":"accessor_b1"},"indices":"accessor_93","material":"BUILDING_DEFAULT_0-effect","mode":4},{"attributes":{"NORMAL":"accessor_100","POSITION":"accessor_98","BATCHID":"accessor_b1"},"indices":"accessor_96","material":"CONCRETE_0-effect","mode":4}]}},"nodes":{"model_gridID_105_r2812444_004":{"children":[],"matrix":[1,0,0,0,0,-1.62921e-7,1,0,0,-1,-1.62921e-7,0,-128.458,496.27,14.9189,1],"meshes":["Building3275-mesh"],"name":"model_gridID_105_r2812444_004"},"model_gridID_105_w381464488":{"children":[],"matrix":[1,0,0,0,0,-1.62921e-7,1,0,0,-1,-1.62921e-7,0,-61.7007,460.261,2.50008,1],"meshes":["Building4031-mesh"],"name":"model_gridID_105_w381464488"},"node_2":{"children":["model_gridID_105_r2812444_004","model_gridID_105_w381464488"],"matrix":[1,0,0,0,0,0,-1,0,0,1,0,0,0,0,0,1],"name":"Y_UP_Transform"}},"programs":{"program_0":{"attributes":["a_normal","a_position","a_batchId"],"fragmentShader":"\\data\\ECNU\\workspace\\gridID_105\\gridID_1050FS","vertexShader":"\\data\\ECNU\\workspace\\gridID_105\\gridID_1050VS"}},"scene":"defaultScene","scenes":{"defaultScene":{"nodes":["node_2"]}},"shaders":{"\\data\\ECNU\\workspace\\gridID_105\\gridID_1050FS":{"type":35632,"uri":"data:text/plain;base64,"},"\\data\\ECNU\\workspace\\gridID_105\\gridID_1050VS":{"type":35633,"uri":"data:text/plain;base64,"}},"skins":{},"techniques":{"technique0":{"attributes":{"a_normal":"normal","a_position":"position","a_batchId":"batchId"},"parameters":{"ambient":{"type":35666},"diffuse":{"type":35666},"emission":{"type":35666},"modelViewMatrix":{"semantic":"MODELVIEW","type":35676},"normal":{"semantic":"NORMAL","type":35665},"normalMatrix":{"semantic":"MODELVIEWINVERSETRANSPOSE","type":35675},"position":{"semantic":"POSITION","type":35665},"projectionMatrix":{"semantic":"PROJECTION","type":35676},"shininess":{"type":5126},"specular":{"type":35666},"batchId":{"semantic":"BATCHID","type":5126}},"program":"program_0","states":{"enable":[2929,2884]},"uniforms":{"u_ambient":"ambient","u_diffuse":"diffuse","u_emission":"emission","u_modelViewMatrix":"modelViewMatrix","u_normalMatrix":"normalMatrix","u_projectionMatrix":"projectionMatrix","u_shininess":"shininess","u_specular":"specular"}}}}