{
    "accessors": {
        "accessor_100": {
            "bufferView": "bufferView_143",
            "byteOffset": 47772,
            "byteStride": 12,
            "componentType": 5126,
            "count": 61,
            "max": [
                0.999486,
                0.999472,
                1
            ],
            "min": [
                -0.999485,
                -0.999474,
                0
            ],
            "type": "VEC3"
        },
        "accessor_116": {
            "bufferView": "bufferView_142",
            "byteOffset": 4428,
            "byteStride": 0,
            "componentType": 5123,
            "count": 702,
            "type": "SCALAR"
        },
        "accessor_118": {
            "bufferView": "bufferView_143",
            "byteOffset": 48504,
            "byteStride": 12,
            "componentType": 5126,
            "count": 645,
            "max": [
                81.9684,
                63.6544,
                42.3149
            ],
            "min": [
                8.63968,
                34.9967,
                4.51603
            ],
            "type": "VEC3"
        },
        "accessor_120": {
            "bufferView": "bufferView_143",
            "byteOffset": 56244,
            "byteStride": 12,
            "componentType": 5126,
            "count": 645,
            "max": [
                0.999697,
                0.999968,
                1
            ],
            "min": [
                -0.999994,
                -0.999694,
                0
            ],
            "type": "VEC3"
        },
        "accessor_136": {
            "bufferView": "bufferView_142",
            "byteOffset": 5832,
            "byteStride": 0,
            "componentType": 5123,
            "count": 66,
            "type": "SCALAR"
        },
        "accessor_138": {
            "bufferView": "bufferView_143",
            "byteOffset": 63984,
            "byteStride": 12,
            "componentType": 5126,
            "count": 52,
            "max": [
                6.55847,
                -65.2847,
                10.7726
            ],
            "min": [
                -9.30301,
                -92.7625,
                4.01259
            ],
            "type": "VEC3"
        },
        "accessor_140": {
            "bufferView": "bufferView_143",
            "byteOffset": 64608,
            "byteStride": 12,
            "componentType": 5126,
            "count": 52,
            "max": [
                0.999499,
                0.999488,
                1
            ],
            "min": [
                -0.999499,
                -0.999488,
                0
            ],
            "type": "VEC3"
        },
        "accessor_16": {
            "bufferView": "bufferView_142",
            "byteOffset": 0,
            "byteStride": 0,
            "componentType": 5123,
            "count": 213,
            "type": "SCALAR"
        },
        "accessor_18": {
            "bufferView": "bufferView_143",
            "byteOffset": 0,
            "byteStride": 12,
            "componentType": 5126,
            "count": 185,
            "max": [
                -30.3433,
                9.02957,
                17.8918
            ],
            "min": [
                -75.4547,
                -36.4816,
                3.58515
            ],
            "type": "VEC3"
        },
        "accessor_20": {
            "bufferView": "bufferView_143",
            "byteOffset": 2220,
            "byteStride": 12,
            "componentType": 5126,
            "count": 185,
            "max": [
                0.999544,
                0.999504,
                1
            ],
            "min": [
                -0.999791,
                -0.999998,
                0
            ],
            "type": "VEC3"
        },
        "accessor_36": {
            "bufferView": "bufferView_142",
            "byteOffset": 426,
            "byteStride": 0,
            "componentType": 5123,
            "count": 903,
            "type": "SCALAR"
        },
        "accessor_38": {
            "bufferView": "bufferView_143",
            "byteOffset": 4440,
            "byteStride": 12,
            "componentType": 5126,
            "count": 821,
            "max": [
                -32.3374,
                59.1259,
                47.8421
            ],
            "min": [
                -73.2124,
                15.472,
                4.68988
            ],
            "type": "VEC3"
        },
        "accessor_40": {
            "bufferView": "bufferView_143",
            "byteOffset": 14292,
            "byteStride": 12,
            "componentType": 5126,
            "count": 821,
            "max": [
                0.999557,
                0.999545,
                1
            ],
            "min": [
                -0.999555,
                -0.999544,
                0
            ],
            "type": "VEC3"
        },
        "accessor_56": {
            "bufferView": "bufferView_142",
            "byteOffset": 2232,
            "byteStride": 0,
            "componentType": 5123,
            "count": 348,
            "type": "SCALAR"
        },
        "accessor_58": {
            "bufferView": "bufferView_143",
            "byteOffset": 24144,
            "byteStride": 12,
            "componentType": 5126,
            "count": 330,
            "max": [
                -15.7541,
                59.413,
                12.1954
            ],
            "min": [
                -27.9475,
                28.8487,
                4.89839
            ],
            "type": "VEC3"
        },
        "accessor_60": {
            "bufferView": "bufferView_143",
            "byteOffset": 28104,
            "byteStride": 12,
            "componentType": 5126,
            "count": 330,
            "max": [
                0.99961,
                0.999577,
                1
            ],
            "min": [
                -0.999585,
                -0.999577,
                0
            ],
            "type": "VEC3"
        },
        "accessor_76": {
            "bufferView": "bufferView_142",
            "byteOffset": 2928,
            "byteStride": 0,
            "componentType": 5123,
            "count": 684,
            "type": "SCALAR"
        },
        "accessor_78": {
            "bufferView": "bufferView_143",
            "byteOffset": 32064,
            "byteStride": 12,
            "componentType": 5126,
            "count": 624,
            "max": [
                51.0349,
                3.68993,
                39.0254
            ],
            "min": [
                14.8573,
                -29.8543,
                4.42705
            ],
            "type": "VEC3"
        },
        "accessor_80": {
            "bufferView": "bufferView_143",
            "byteOffset": 39552,
            "byteStride": 12,
            "componentType": 5126,
            "count": 624,
            "max": [
                0.999875,
                0.999871,
                1
            ],
            "min": [
                -0.999873,
                -0.99987,
                0
            ],
            "type": "VEC3"
        },
        "accessor_96": {
            "bufferView": "bufferView_142",
            "byteOffset": 4296,
            "byteStride": 0,
            "componentType": 5123,
            "count": 66,
            "type": "SCALAR"
        },
        "accessor_98": {
            "bufferView": "bufferView_143",
            "byteOffset": 47040,
            "byteStride": 12,
            "componentType": 5126,
            "count": 61,
            "max": [
                38.7674,
                29.7338,
                8.35458
            ],
            "min": [
                5.3649,
                8.66663,
                4.56747
            ],
            "type": "VEC3"
        }
    },
    "animations": {},
    "asset": {
        "generator": "collada2gltf@cf6371beb0bdc18ba603378d5e40c966da53d385",
        "premultipliedAlpha": true,
        "profile": {
            "api": "WebGL",
            "version": "1.0.2"
        },
        "version": "1.0"
    },
    "bufferViews": {
        "bufferView_142": {
            "buffer": "\\data\\3dcity\\miami\\workspace\\gridID_44\\gridID_44_high",
            "byteLength": 5964,
            "byteOffset": 0,
            "target": 34963
        },
        "bufferView_143": {
            "buffer": "\\data\\3dcity\\miami\\workspace\\gridID_44\\gridID_44_high",
            "byteLength": 65232,
            "byteOffset": 5964,
            "target": 34962
        }
    },
    "buffers": {
        "\\data\\3dcity\\miami\\workspace\\gridID_44\\gridID_44_high": {
            "byteLength": 71196,
            "type": "arraybuffer",
            "uri": "data:application/octet-stream;base64,"
        }
    },
    "materials": {
        "__glTF__defaultMaterial0": {
            "name": "__glTF__defaultMaterial0",
            "technique": "technique0",
            "values": {
                "diffuse": [
                    1,
                    1,
                    1,
                    1
                ]
            }
        }
    },
    "meshes": {
        "multipatch_footprint_2007-mesh": {
            "name": "multipatch_footprint.2007",
            "primitives": [
                {
                    "attributes": {
                        "NORMAL": "accessor_20",
                        "POSITION": "accessor_18"
                    },
                    "indices": "accessor_16",
                    "material": "__glTF__defaultMaterial0",
                    "mode": 4
                }
            ]
        },
        "multipatch_footprint_2024-mesh": {
            "name": "multipatch_footprint.2024",
            "primitives": [
                {
                    "attributes": {
                        "NORMAL": "accessor_40",
                        "POSITION": "accessor_38"
                    },
                    "indices": "accessor_36",
                    "material": "__glTF__defaultMaterial0",
                    "mode": 4
                }
            ]
        },
        "multipatch_footprint_2029-mesh": {
            "name": "multipatch_footprint.2029",
            "primitives": [
                {
                    "attributes": {
                        "NORMAL": "accessor_60",
                        "POSITION": "accessor_58"
                    },
                    "indices": "accessor_56",
                    "material": "__glTF__defaultMaterial0",
                    "mode": 4
                }
            ]
        },
        "multipatch_footprint_2037-mesh": {
            "name": "multipatch_footprint.2037",
            "primitives": [
                {
                    "attributes": {
                        "NORMAL": "accessor_80",
                        "POSITION": "accessor_78"
                    },
                    "indices": "accessor_76",
                    "material": "__glTF__defaultMaterial0",
                    "mode": 4
                }
            ]
        },
        "multipatch_footprint_2044-mesh": {
            "name": "multipatch_footprint.2044",
            "primitives": [
                {
                    "attributes": {
                        "NORMAL": "accessor_100",
                        "POSITION": "accessor_98"
                    },
                    "indices": "accessor_96",
                    "material": "__glTF__defaultMaterial0",
                    "mode": 4
                }
            ]
        },
        "multipatch_footprint_2049-mesh": {
            "name": "multipatch_footprint.2049",
            "primitives": [
                {
                    "attributes": {
                        "NORMAL": "accessor_120",
                        "POSITION": "accessor_118"
                    },
                    "indices": "accessor_116",
                    "material": "__glTF__defaultMaterial0",
                    "mode": 4
                }
            ]
        },
        "multipatch_footprint_2158-mesh": {
            "name": "multipatch_footprint.2158",
            "primitives": [
                {
                    "attributes": {
                        "NORMAL": "accessor_140",
                        "POSITION": "accessor_138"
                    },
                    "indices": "accessor_136",
                    "material": "__glTF__defaultMaterial0",
                    "mode": 4
                }
            ]
        }
    },
    "nodes": {
        "gridID_44_w435236445_join": {
            "children": [],
            "matrix": [
                1,
                0,
                0,
                0,
                0,
                1,
                0,
                0,
                0,
                0,
                1,
                0,
                0.000366211,
                0.000335693,
                0,
                1
            ],
            "meshes": [
                "multipatch_footprint_2044-mesh"
            ],
            "name": "gridID_44_w435236445_join"
        },
        "gridID_44_w435530412_join": {
            "children": [],
            "matrix": [
                1,
                0,
                0,
                0,
                0,
                1,
                0,
                0,
                0,
                0,
                1,
                0,
                0.000366211,
                0.000335693,
                0,
                1
            ],
            "meshes": [
                "multipatch_footprint_2029-mesh"
            ],
            "name": "gridID_44_w435530412_join"
        },
        "gridID_44_w436108711_join": {
            "children": [],
            "matrix": [
                1,
                0,
                0,
                0,
                0,
                1,
                0,
                0,
                0,
                0,
                1,
                0,
                0.000366211,
                0.000335693,
                0,
                1
            ],
            "meshes": [
                "multipatch_footprint_2037-mesh"
            ],
            "name": "gridID_44_w436108711_join"
        },
        "gridID_44_w436109639_join": {
            "children": [],
            "matrix": [
                1,
                0,
                0,
                0,
                0,
                1,
                0,
                0,
                0,
                0,
                1,
                0,
                0.000366211,
                0.000335693,
                0,
                1
            ],
            "meshes": [
                "multipatch_footprint_2007-mesh"
            ],
            "name": "gridID_44_w436109639_join"
        },
        "gridID_44_w436110304_join": {
            "children": [],
            "matrix": [
                1,
                0,
                0,
                0,
                0,
                1,
                0,
                0,
                0,
                0,
                1,
                0,
                0.000366211,
                0.000335693,
                0,
                1
            ],
            "meshes": [
                "multipatch_footprint_2158-mesh"
            ],
            "name": "gridID_44_w436110304_join"
        },
        "gridID_44_w436121928_join": {
            "children": [],
            "matrix": [
                1,
                0,
                0,
                0,
                0,
                1,
                0,
                0,
                0,
                0,
                1,
                0,
                0.000366211,
                0.000335693,
                0,
                1
            ],
            "meshes": [
                "multipatch_footprint_2049-mesh"
            ],
            "name": "gridID_44_w436121928_join"
        },
        "gridID_44_w436126072_join": {
            "children": [],
            "matrix": [
                1,
                0,
                0,
                0,
                0,
                1,
                0,
                0,
                0,
                0,
                1,
                0,
                0.000366211,
                0.000335693,
                0,
                1
            ],
            "meshes": [
                "multipatch_footprint_2024-mesh"
            ],
            "name": "gridID_44_w436126072_join"
        },
        "node_7": {
            "children": [
                "gridID_44_w436109639_join",
                "gridID_44_w436126072_join",
                "gridID_44_w435530412_join",
                "gridID_44_w436108711_join",
                "gridID_44_w435236445_join",
                "gridID_44_w436121928_join",
                "gridID_44_w436110304_join"
            ],
            "matrix": [
                1,
                0,
                0,
                0,
                0,
                0,
                -1,
                0,
                0,
                1,
                0,
                0,
                0,
                0,
                0,
                1
            ],
            "name": "Y_UP_Transform"
        }
    },
    "programs": {
        "program_0": {
            "attributes": [
                "a_normal",
                "a_position"
            ],
            "fragmentShader": "\\data\\3dcity\\miami\\workspace\\gridID_44\\gridID_44_high0FS",
            "vertexShader": "\\data\\3dcity\\miami\\workspace\\gridID_44\\gridID_44_high0VS"
        }
    },
    "scene": "defaultScene",
    "scenes": {
        "defaultScene": {
            "nodes": [
                "node_7"
            ]
        }
    },
    "shaders": {
        "\\data\\3dcity\\miami\\workspace\\gridID_44\\gridID_44_high0FS": {
            "type": 35632,
            "uri": "data:text/plain;base64,"
        },
        "\\data\\3dcity\\miami\\workspace\\gridID_44\\gridID_44_high0VS": {
            "type": 35633,
            "uri": "data:text/plain;base64,"
        }
    },
    "skins": {},
    "techniques": {
        "technique0": {
            "attributes": {
                "a_normal": "normal",
                "a_position": "position"
            },
            "parameters": {
                "diffuse": {
                    "type": 35666
                },
                "modelViewMatrix": {
                    "semantic": "MODELVIEW",
                    "type": 35676
                },
                "normal": {
                    "semantic": "NORMAL",
                    "type": 35665
                },
                "normalMatrix": {
                    "semantic": "MODELVIEWINVERSETRANSPOSE",
                    "type": 35675
                },
                "position": {
                    "semantic": "POSITION",
                    "type": 35665
                },
                "projectionMatrix": {
                    "semantic": "PROJECTION",
                    "type": 35676
                }
            },
            "program": "program_0",
            "states": {
                "enable": [
                    2929,
                    2884
                ]
            },
            "uniforms": {
                "u_diffuse": "diffuse",
                "u_modelViewMatrix": "modelViewMatrix",
                "u_normalMatrix": "normalMatrix",
                "u_projectionMatrix": "projectionMatrix"
            }
        }
    }
}