{"accessors":{"accessor_16":{"bufferView":"bufferView_42","byteOffset":0,"byteStride":0,"componentType":5123,"count":36,"type":"SCALAR"},"accessor_18":{"bufferView":"bufferView_43","byteOffset":0,"byteStride":12,"componentType":5126,"count":32,"max":[57.8877,23,76.8064],"min":[13.3599,0,26.8841],"type":"VEC3"},"accessor_20":{"bufferView":"bufferView_43","byteOffset":384,"byteStride":12,"componentType":5126,"count":32,"max":[0.796531,1,0.793407],"min":[-0.796626,-1,-0.793704],"type":"VEC3"},"accessor_36":{"bufferView":"bufferView_42","byteOffset":72,"byteStride":0,"componentType":5123,"count":204,"type":"SCALAR"},"accessor_38":{"bufferView":"bufferView_43","byteOffset":768,"byteStride":12,"componentType":5126,"count":134,"max":[25.4826,16,88.2889],"min":[-6.2101,0,50.2199],"type":"VEC3"},"accessor_40":{"bufferView":"bufferView_43","byteOffset":2376,"byteStride":12,"componentType":5126,"count":134,"max":[0.827247,1,0.824852],"min":[-0.826414,-1,-0.824695],"type":"VEC3"},"accessor_b0":{"bufferView":"bufferView_b","byteOffset":0,"byteStride":0,"componentType":5123,"count":32,"type":"SCALAR"},"accessor_b1":{"bufferView":"bufferView_b","byteOffset":64,"byteStride":0,"componentType":5123,"count":134,"type":"SCALAR"}},"animations":{},"asset":{"generator":"collada2gltf@cf6371beb0bdc18ba603378d5e40c966da53d385","premultipliedAlpha":true,"profile":{"api":"WebGL","version":"1.0.2"},"version":"1.0"},"bufferViews":{"bufferView_42":{"buffer":"\\data\\3dcity\\miami\\workspace\\gridID_10\\gridID_10","byteLength":480,"byteOffset":0,"target":34963},"bufferView_43":{"buffer":"\\data\\3dcity\\miami\\workspace\\gridID_10\\gridID_10","byteLength":3984,"byteOffset":480,"target":34962},"bufferView_b":{"buffer":"buffer_b","byteLength":332,"byteOffset":0,"target":34962}},"buffers":{"\\data\\3dcity\\miami\\workspace\\gridID_10\\gridID_10":{"byteLength":4464,"type":"arraybuffer","uri":"data:application/octet-stream;base64,"},"buffer_b":{"type":"arraybuffer","byteLength":332,"uri":"data:application/octet-stream;base64,"}},"materials":{"CityEngineMaterial_306-effect":{"name":"CityEngineMaterial_306","technique":"technique0","values":{"ambient":[1,1,1,1],"diffuse":[1,1,1,1],"emission":[0,0,0,1],"shininess":50,"specular":[0.5,0.5,0.5,1]}},"CityEngineMaterial_307-effect":{"name":"CityEngineMaterial_307","technique":"technique0","values":{"ambient":[1,1,1,1],"diffuse":[1,1,1,1],"emission":[0,0,0,1],"shininess":50,"specular":[0.5,0.5,0.5,1]}}},"meshes":{"mesh_CityEngineMaterial_306-mesh":{"name":"mesh_CityEngineMaterial.306","primitives":[{"attributes":{"NORMAL":"accessor_20","POSITION":"accessor_18","BATCHID":"accessor_b0"},"indices":"accessor_16","material":"CityEngineMaterial_306-effect","mode":4}]},"mesh_CityEngineMaterial_307-mesh":{"name":"mesh_CityEngineMaterial.307","primitives":[{"attributes":{"NORMAL":"accessor_40","POSITION":"accessor_38","BATCHID":"accessor_b1"},"indices":"accessor_36","material":"CityEngineMaterial_307-effect","mode":4}]}},"nodes":{"CityEngineMaterial":{"children":[],"matrix":[1,0,0,0,0,-1.62921e-7,1,0,0,-1,-1.62921e-7,0,0,0,0,1],"meshes":["mesh_CityEngineMaterial_306-mesh"],"name":"CityEngineMaterial"},"CityEngineMaterial_001":{"children":[],"matrix":[1,0,0,0,0,-1.62921e-7,1,0,0,-1,-1.62921e-7,0,0,0,0,1],"meshes":["mesh_CityEngineMaterial_307-mesh"],"name":"CityEngineMaterial_001"},"node_2":{"children":["CityEngineMaterial","CityEngineMaterial_001"],"matrix":[1,0,0,0,0,0,-1,0,0,1,0,0,0,0,0,1],"name":"Y_UP_Transform"}},"programs":{"program_0":{"attributes":["a_normal","a_position","a_batchId"],"fragmentShader":"\\data\\3dcity\\miami\\workspace\\gridID_10\\gridID_100FS","vertexShader":"\\data\\3dcity\\miami\\workspace\\gridID_10\\gridID_100VS"}},"scene":"defaultScene","scenes":{"defaultScene":{"nodes":["node_2"]}},"shaders":{"\\data\\3dcity\\miami\\workspace\\gridID_10\\gridID_100FS":{"type":35632,"uri":"data:text/plain;base64,"},"\\data\\3dcity\\miami\\workspace\\gridID_10\\gridID_100VS":{"type":35633,"uri":"data:text/plain;base64,"}},"skins":{},"techniques":{"technique0":{"attributes":{"a_normal":"normal","a_position":"position","a_batchId":"batchId"},"parameters":{"ambient":{"type":35666},"diffuse":{"type":35666},"emission":{"type":35666},"modelViewMatrix":{"semantic":"MODELVIEW","type":35676},"normal":{"semantic":"NORMAL","type":35665},"normalMatrix":{"semantic":"MODELVIEWINVERSETRANSPOSE","type":35675},"position":{"semantic":"POSITION","type":35665},"projectionMatrix":{"semantic":"PROJECTION","type":35676},"shininess":{"type":5126},"specular":{"type":35666},"batchId":{"semantic":"BATCHID","type":5126}},"program":"program_0","states":{"enable":[2929,2884]},"uniforms":{"u_ambient":"ambient","u_diffuse":"diffuse","u_emission":"emission","u_modelViewMatrix":"modelViewMatrix","u_normalMatrix":"normalMatrix","u_projectionMatrix":"projectionMatrix","u_shininess":"shininess","u_specular":"specular"}}}}