{
    "accessors": {
        "accessor_100": {
            "bufferView": "bufferView_173",
            "byteOffset": 18420,
            "byteStride": 12,
            "componentType": 5126,
            "count": 711,
            "max": [
                0.955985,
                1,
                0.95552
            ],
            "min": [
                -0.951885,
                -1,
                -0.955278
            ],
            "type": "VEC3"
        },
        "accessor_128": {
            "bufferView": "bufferView_172",
            "byteOffset": 0,
            "byteStride": 0,
            "componentType": 5123,
            "count": 204,
            "type": "SCALAR"
        },
        "accessor_131": {
            "bufferView": "bufferView_172",
            "byteOffset": 408,
            "byteStride": 0,
            "componentType": 5123,
            "count": 78,
            "type": "SCALAR"
        },
        "accessor_133": {
            "bufferView": "bufferView_173",
            "byteOffset": 0,
            "byteStride": 12,
            "componentType": 5126,
            "count": 214,
            "max": [
                9.24626,
                8.91936,
                31.0971
            ],
            "min": [
                -20.1097,
                -5.58065,
                -15.5688
            ],
            "type": "VEC3"
        },
        "accessor_135": {
            "bufferView": "bufferView_173",
            "byteOffset": 2568,
            "byteStride": 12,
            "componentType": 5126,
            "count": 214,
            "max": [
                0.99094,
                1,
                0.951792
            ],
            "min": [
                -0.952066,
                0,
                -0.994871
            ],
            "type": "VEC3"
        },
        "accessor_163": {
            "bufferView": "bufferView_172",
            "byteOffset": 2622,
            "byteStride": 0,
            "componentType": 5123,
            "count": 24,
            "type": "SCALAR"
        },
        "accessor_166": {
            "bufferView": "bufferView_172",
            "byteOffset": 2670,
            "byteStride": 0,
            "componentType": 5123,
            "count": 6,
            "type": "SCALAR"
        },
        "accessor_168": {
            "bufferView": "bufferView_173",
            "byteOffset": 26952,
            "byteStride": 12,
            "componentType": 5126,
            "count": 20,
            "max": [
                2.028,
                1.25,
                2.40475
            ],
            "min": [
                -2.028,
                -1.25,
                -2.40425
            ],
            "type": "VEC3"
        },
        "accessor_170": {
            "bufferView": "bufferView_173",
            "byteOffset": 27192,
            "byteStride": 12,
            "componentType": 5126,
            "count": 20,
            "max": [
                0.951693,
                1,
                0.950702
            ],
            "min": [
                -0.951716,
                0,
                -0.950801
            ],
            "type": "VEC3"
        },
        "accessor_40": {
            "bufferView": "bufferView_172",
            "byteOffset": 564,
            "byteStride": 0,
            "componentType": 5123,
            "count": 102,
            "type": "SCALAR"
        },
        "accessor_43": {
            "bufferView": "bufferView_172",
            "byteOffset": 768,
            "byteStride": 0,
            "componentType": 5123,
            "count": 78,
            "type": "SCALAR"
        },
        "accessor_46": {
            "bufferView": "bufferView_172",
            "byteOffset": 924,
            "byteStride": 0,
            "componentType": 5123,
            "count": 72,
            "type": "SCALAR"
        },
        "accessor_48": {
            "bufferView": "bufferView_173",
            "byteOffset": 5136,
            "byteStride": 12,
            "componentType": 5126,
            "count": 198,
            "max": [
                25.7753,
                8.82076,
                28.1733
            ],
            "min": [
                -15.9657,
                -8.17924,
                -18.5267
            ],
            "type": "VEC3"
        },
        "accessor_50": {
            "bufferView": "bufferView_173",
            "byteOffset": 7512,
            "byteStride": 12,
            "componentType": 5126,
            "count": 198,
            "max": [
                0.950109,
                1,
                0.948084
            ],
            "min": [
                -0.957397,
                0,
                -0.948508
            ],
            "type": "VEC3"
        },
        "accessor_90": {
            "bufferView": "bufferView_172",
            "byteOffset": 1068,
            "byteStride": 0,
            "componentType": 5123,
            "count": 609,
            "type": "SCALAR"
        },
        "accessor_93": {
            "bufferView": "bufferView_172",
            "byteOffset": 2286,
            "byteStride": 0,
            "componentType": 5123,
            "count": 120,
            "type": "SCALAR"
        },
        "accessor_96": {
            "bufferView": "bufferView_172",
            "byteOffset": 2526,
            "byteStride": 0,
            "componentType": 5123,
            "count": 48,
            "type": "SCALAR"
        },
        "accessor_98": {
            "bufferView": "bufferView_173",
            "byteOffset": 9888,
            "byteStride": 12,
            "componentType": 5126,
            "count": 711,
            "max": [
                15.7207,
                3.9352,
                32.9018
            ],
            "min": [
                -14.0923,
                -2.0648,
                -36.3962
            ],
            "type": "VEC3"
        }
    },
    "animations": {},
    "asset": {
        "generator": "collada2gltf@cf6371beb0bdc18ba603378d5e40c966da53d385",
        "premultipliedAlpha": true,
        "profile": {
            "api": "WebGL",
            "version": "1.0.2"
        },
        "version": "1.0"
    },
    "bufferViews": {
        "bufferView_172": {
            "buffer": "\\data\\ECNU\\workspace\\gridID_86\\gridID_86",
            "byteLength": 2684,
            "byteOffset": 0,
            "target": 34963
        },
        "bufferView_173": {
            "buffer": "\\data\\ECNU\\workspace\\gridID_86\\gridID_86",
            "byteLength": 27432,
            "byteOffset": 2684,
            "target": 34962
        }
    },
    "buffers": {
        "\\data\\ECNU\\workspace\\gridID_86\\gridID_86": {
            "byteLength": 30116,
            "type": "arraybuffer",
            "uri": "data:application/octet-stream;base64,"
        }
    },
    "materials": {
        "BUILDING_DEFAULT_0-effect": {
            "name": "BUILDING_DEFAULT_0",
            "technique": "technique0",
            "values": {
                "ambient": [
                    0,
                    0,
                    0,
                    1
                ],
                "diffuse": [
                    0.723055,
                    0.708376,
                    0.672443,
                    1
                ],
                "emission": [
                    0,
                    0,
                    0,
                    1
                ],
                "shininess": 50,
                "specular": [
                    0.5,
                    0.5,
                    0.5,
                    1
                ]
            }
        },
        "CONCRETE_0-effect": {
            "name": "CONCRETE_0",
            "technique": "technique0",
            "values": {
                "ambient": [
                    0,
                    0,
                    0,
                    1
                ],
                "diffuse": [
                    0.309469,
                    0.327778,
                    0.309469,
                    1
                ],
                "emission": [
                    0,
                    0,
                    0,
                    1
                ],
                "shininess": 50,
                "specular": [
                    0.5,
                    0.5,
                    0.5,
                    1
                ]
            }
        },
        "GLASS_0-effect": {
            "name": "GLASS_0",
            "technique": "technique0",
            "values": {
                "ambient": [
                    0,
                    0,
                    0,
                    1
                ],
                "diffuse": [
                    0.491021,
                    0.665387,
                    0.658375,
                    1
                ],
                "emission": [
                    0,
                    0,
                    0,
                    1
                ],
                "shininess": 50,
                "specular": [
                    0.5,
                    0.5,
                    0.5,
                    1
                ]
            }
        },
        "ROOF_DEFAULT_0-effect": {
            "name": "ROOF_DEFAULT_0",
            "technique": "technique0",
            "values": {
                "ambient": [
                    0,
                    0,
                    0,
                    1
                ],
                "diffuse": [
                    0.603827,
                    0.381326,
                    0.291771,
                    1
                ],
                "emission": [
                    0,
                    0,
                    0,
                    1
                ],
                "shininess": 50,
                "specular": [
                    0.5,
                    0.5,
                    0.5,
                    1
                ]
            }
        }
    },
    "meshes": {
        "Building3662-mesh": {
            "name": "Building3662",
            "primitives": [
                {
                    "attributes": {
                        "NORMAL": "accessor_135",
                        "POSITION": "accessor_133"
                    },
                    "indices": "accessor_128",
                    "material": "BUILDING_DEFAULT_0-effect",
                    "mode": 4
                },
                {
                    "attributes": {
                        "NORMAL": "accessor_135",
                        "POSITION": "accessor_133"
                    },
                    "indices": "accessor_131",
                    "material": "CONCRETE_0-effect",
                    "mode": 4
                }
            ]
        },
        "Building3822-mesh": {
            "name": "Building3822",
            "primitives": [
                {
                    "attributes": {
                        "NORMAL": "accessor_50",
                        "POSITION": "accessor_48"
                    },
                    "indices": "accessor_40",
                    "material": "GLASS_0-effect",
                    "mode": 4
                },
                {
                    "attributes": {
                        "NORMAL": "accessor_50",
                        "POSITION": "accessor_48"
                    },
                    "indices": "accessor_43",
                    "material": "BUILDING_DEFAULT_0-effect",
                    "mode": 4
                },
                {
                    "attributes": {
                        "NORMAL": "accessor_50",
                        "POSITION": "accessor_48"
                    },
                    "indices": "accessor_46",
                    "material": "CONCRETE_0-effect",
                    "mode": 4
                }
            ]
        },
        "Building3854-mesh": {
            "name": "Building3854",
            "primitives": [
                {
                    "attributes": {
                        "NORMAL": "accessor_100",
                        "POSITION": "accessor_98"
                    },
                    "indices": "accessor_90",
                    "material": "BUILDING_DEFAULT_0-effect",
                    "mode": 4
                },
                {
                    "attributes": {
                        "NORMAL": "accessor_100",
                        "POSITION": "accessor_98"
                    },
                    "indices": "accessor_93",
                    "material": "ROOF_DEFAULT_0-effect",
                    "mode": 4
                },
                {
                    "attributes": {
                        "NORMAL": "accessor_100",
                        "POSITION": "accessor_98"
                    },
                    "indices": "accessor_96",
                    "material": "CONCRETE_0-effect",
                    "mode": 4
                }
            ]
        },
        "Building3855-mesh": {
            "name": "Building3855",
            "primitives": [
                {
                    "attributes": {
                        "NORMAL": "accessor_170",
                        "POSITION": "accessor_168"
                    },
                    "indices": "accessor_163",
                    "material": "BUILDING_DEFAULT_0-effect",
                    "mode": 4
                },
                {
                    "attributes": {
                        "NORMAL": "accessor_170",
                        "POSITION": "accessor_168"
                    },
                    "indices": "accessor_166",
                    "material": "CONCRETE_0-effect",
                    "mode": 4
                }
            ]
        }
    },
    "nodes": {
        "model_gridID_86_w376043952": {
            "children": [],
            "matrix": [
                1,
                0,
                0,
                0,
                0,
                -1.62921e-007,
                1,
                0,
                0,
                -1,
                -1.62921e-007,
                0,
                155.934,
                326.814,
                8.1793,
                1
            ],
            "meshes": [
                "Building3822-mesh"
            ],
            "name": "model_gridID_86_w376043952"
        },
        "model_gridID_86_w383794186": {
            "children": [],
            "matrix": [
                1,
                0,
                0,
                0,
                0,
                -1.62921e-007,
                1,
                0,
                0,
                -1,
                -1.62921e-007,
                0,
                183.074,
                237.454,
                2.06484,
                1
            ],
            "meshes": [
                "Building3854-mesh"
            ],
            "name": "model_gridID_86_w383794186"
        },
        "model_gridID_86_w383794186_002": {
            "children": [],
            "matrix": [
                1,
                0,
                0,
                0,
                0,
                -1.62921e-007,
                1,
                0,
                0,
                -1,
                -1.62921e-007,
                0,
                184.342,
                279.198,
                5.58069,
                1
            ],
            "meshes": [
                "Building3662-mesh"
            ],
            "name": "model_gridID_86_w383794186_002"
        },
        "model_gridID_86_w383796753": {
            "children": [],
            "matrix": [
                1,
                0,
                0,
                0,
                0,
                -1.62921e-007,
                1,
                0,
                0,
                -1,
                -1.62921e-007,
                0,
                192.96,
                203.06,
                1.25003,
                1
            ],
            "meshes": [
                "Building3855-mesh"
            ],
            "name": "model_gridID_86_w383796753"
        },
        "node_4": {
            "children": [
                "model_gridID_86_w376043952",
                "model_gridID_86_w383794186",
                "model_gridID_86_w383794186_002",
                "model_gridID_86_w383796753"
            ],
            "matrix": [
                1,
                0,
                0,
                0,
                0,
                0,
                -1,
                0,
                0,
                1,
                0,
                0,
                0,
                0,
                0,
                1
            ],
            "name": "Y_UP_Transform"
        }
    },
    "programs": {
        "program_0": {
            "attributes": [
                "a_normal",
                "a_position"
            ],
            "fragmentShader": "\\data\\ECNU\\workspace\\gridID_86\\gridID_860FS",
            "vertexShader": "\\data\\ECNU\\workspace\\gridID_86\\gridID_860VS"
        }
    },
    "scene": "defaultScene",
    "scenes": {
        "defaultScene": {
            "nodes": [
                "node_4"
            ]
        }
    },
    "shaders": {
        "\\data\\ECNU\\workspace\\gridID_86\\gridID_860FS": {
            "type": 35632,
            "uri": "data:text/plain;base64,"
        },
        "\\data\\ECNU\\workspace\\gridID_86\\gridID_860VS": {
            "type": 35633,
            "uri": "data:text/plain;base64,"
        }
    },
    "skins": {},
    "techniques": {
        "technique0": {
            "attributes": {
                "a_normal": "normal",
                "a_position": "position"
            },
            "parameters": {
                "ambient": {
                    "type": 35666
                },
                "diffuse": {
                    "type": 35666
                },
                "emission": {
                    "type": 35666
                },
                "modelViewMatrix": {
                    "semantic": "MODELVIEW",
                    "type": 35676
                },
                "normal": {
                    "semantic": "NORMAL",
                    "type": 35665
                },
                "normalMatrix": {
                    "semantic": "MODELVIEWINVERSETRANSPOSE",
                    "type": 35675
                },
                "position": {
                    "semantic": "POSITION",
                    "type": 35665
                },
                "projectionMatrix": {
                    "semantic": "PROJECTION",
                    "type": 35676
                },
                "shininess": {
                    "type": 5126
                },
                "specular": {
                    "type": 35666
                }
            },
            "program": "program_0",
            "states": {
                "enable": [
                    2929,
                    2884
                ]
            },
            "uniforms": {
                "u_ambient": "ambient",
                "u_diffuse": "diffuse",
                "u_emission": "emission",
                "u_modelViewMatrix": "modelViewMatrix",
                "u_normalMatrix": "normalMatrix",
                "u_projectionMatrix": "projectionMatrix",
                "u_shininess": "shininess",
                "u_specular": "specular"
            }
        }
    }
}