{"accessors":{"accessor_100":{"bufferView":"bufferView_143","byteOffset":4320,"byteStride":12,"componentType":5126,"count":28,"max":[0.999507,1,0.999497],"min":[-0.999507,-1,-0.999497],"type":"VEC3"},"accessor_116":{"bufferView":"bufferView_142","byteOffset":528,"byteStride":0,"componentType":5123,"count":252,"type":"SCALAR"},"accessor_118":{"bufferView":"bufferView_143","byteOffset":4656,"byteStride":12,"componentType":5126,"count":168,"max":[65.1012,14,5.33581],"min":[20.2728,0,-33.0701],"type":"VEC3"},"accessor_120":{"bufferView":"bufferView_143","byteOffset":6672,"byteStride":12,"componentType":5126,"count":168,"max":[0.999998,1,1],"min":[-1,-1,-1],"type":"VEC3"},"accessor_136":{"bufferView":"bufferView_142","byteOffset":1032,"byteStride":0,"componentType":5123,"count":60,"type":"SCALAR"},"accessor_138":{"bufferView":"bufferView_143","byteOffset":8688,"byteStride":12,"componentType":5126,"count":40,"max":[32.8519,10,6.7697],"min":[21.5196,0,-3.93501],"type":"VEC3"},"accessor_140":{"bufferView":"bufferView_143","byteOffset":9168,"byteStride":12,"componentType":5126,"count":40,"max":[0.999893,1,0.99988],"min":[-0.999897,-1,-0.999909],"type":"VEC3"},"accessor_16":{"bufferView":"bufferView_142","byteOffset":0,"byteStride":0,"componentType":5123,"count":84,"type":"SCALAR"},"accessor_18":{"bufferView":"bufferView_143","byteOffset":0,"byteStride":12,"componentType":5126,"count":60,"max":[66.0696,10,57.7221],"min":[32.2285,0,15.7562],"type":"VEC3"},"accessor_20":{"bufferView":"bufferView_143","byteOffset":720,"byteStride":12,"componentType":5126,"count":60,"max":[0.999739,1,0.999731],"min":[-0.999743,-1,-0.999744],"type":"VEC3"},"accessor_36":{"bufferView":"bufferView_142","byteOffset":168,"byteStride":0,"componentType":5123,"count":48,"type":"SCALAR"},"accessor_38":{"bufferView":"bufferView_143","byteOffset":1440,"byteStride":12,"componentType":5126,"count":38,"max":[29.0893,7,-60.0175],"min":[-5.06351,0,-95.2839],"type":"VEC3"},"accessor_40":{"bufferView":"bufferView_143","byteOffset":1896,"byteStride":12,"componentType":5126,"count":38,"max":[0.999524,1,0.999671],"min":[-0.999003,-1,-0.999595],"type":"VEC3"},"accessor_56":{"bufferView":"bufferView_142","byteOffset":264,"byteStride":0,"componentType":5123,"count":36,"type":"SCALAR"},"accessor_58":{"bufferView":"bufferView_143","byteOffset":2352,"byteStride":12,"componentType":5126,"count":28,"max":[-21.7058,8,-24.5904],"min":[-34.3183,0,-42.0073],"type":"VEC3"},"accessor_60":{"bufferView":"bufferView_143","byteOffset":2688,"byteStride":12,"componentType":5126,"count":28,"max":[0.999607,1,0.999593],"min":[-0.999607,-1,-0.999593],"type":"VEC3"},"accessor_76":{"bufferView":"bufferView_142","byteOffset":336,"byteStride":0,"componentType":5123,"count":60,"type":"SCALAR"},"accessor_78":{"bufferView":"bufferView_143","byteOffset":3024,"byteStride":12,"componentType":5126,"count":40,"max":[-37.669,16,-0.424448],"min":[-55.1796,0,-41.2161],"type":"VEC3"},"accessor_80":{"bufferView":"bufferView_143","byteOffset":3504,"byteStride":12,"componentType":5126,"count":40,"max":[0.999584,1,0.999623],"min":[-0.999579,-1,-0.999557],"type":"VEC3"},"accessor_96":{"bufferView":"bufferView_142","byteOffset":456,"byteStride":0,"componentType":5123,"count":36,"type":"SCALAR"},"accessor_98":{"bufferView":"bufferView_143","byteOffset":3984,"byteStride":12,"componentType":5126,"count":28,"max":[64.5668,10,15.2],"min":[26.9408,0,6.57195],"type":"VEC3"},"accessor_b0":{"bufferView":"bufferView_b","byteOffset":0,"byteStride":0,"componentType":5123,"count":60,"type":"SCALAR"},"accessor_b1":{"bufferView":"bufferView_b","byteOffset":120,"byteStride":0,"componentType":5123,"count":38,"type":"SCALAR"},"accessor_b2":{"bufferView":"bufferView_b","byteOffset":196,"byteStride":0,"componentType":5123,"count":28,"type":"SCALAR"},"accessor_b3":{"bufferView":"bufferView_b","byteOffset":252,"byteStride":0,"componentType":5123,"count":40,"type":"SCALAR"},"accessor_b4":{"bufferView":"bufferView_b","byteOffset":332,"byteStride":0,"componentType":5123,"count":28,"type":"SCALAR"},"accessor_b5":{"bufferView":"bufferView_b","byteOffset":388,"byteStride":0,"componentType":5123,"count":168,"type":"SCALAR"},"accessor_b6":{"bufferView":"bufferView_b","byteOffset":724,"byteStride":0,"componentType":5123,"count":40,"type":"SCALAR"}},"animations":{},"asset":{"generator":"collada2gltf@cf6371beb0bdc18ba603378d5e40c966da53d385","premultipliedAlpha":true,"profile":{"api":"WebGL","version":"1.0.2"},"version":"1.0"},"bufferViews":{"bufferView_142":{"buffer":"\\data\\3dcity\\miami\\workspace\\gridID_73\\gridID_73","byteLength":1152,"byteOffset":0,"target":34963},"bufferView_143":{"buffer":"\\data\\3dcity\\miami\\workspace\\gridID_73\\gridID_73","byteLength":9648,"byteOffset":1152,"target":34962},"bufferView_b":{"buffer":"buffer_b","byteLength":804,"byteOffset":0,"target":34962}},"buffers":{"\\data\\3dcity\\miami\\workspace\\gridID_73\\gridID_73":{"byteLength":10800,"type":"arraybuffer","uri":"data:application/octet-stream;base64,"},"buffer_b":{"type":"arraybuffer","byteLength":804,"uri":"data:application/octet-stream;base64,"}},"materials":{"CityEngineMaterial_626-effect":{"name":"CityEngineMaterial_626","technique":"technique0","values":{"ambient":[1,1,1,1],"diffuse":[1,1,1,1],"emission":[0,0,0,1],"shininess":50,"specular":[0.5,0.5,0.5,1]}},"CityEngineMaterial_627-effect":{"name":"CityEngineMaterial_627","technique":"technique0","values":{"ambient":[1,1,1,1],"diffuse":[1,1,1,1],"emission":[0,0,0,1],"shininess":50,"specular":[0.5,0.5,0.5,1]}},"CityEngineMaterial_628-effect":{"name":"CityEngineMaterial_628","technique":"technique0","values":{"ambient":[1,1,1,1],"diffuse":[1,1,1,1],"emission":[0,0,0,1],"shininess":50,"specular":[0.5,0.5,0.5,1]}},"CityEngineMaterial_629-effect":{"name":"CityEngineMaterial_629","technique":"technique0","values":{"ambient":[1,1,1,1],"diffuse":[1,1,1,1],"emission":[0,0,0,1],"shininess":50,"specular":[0.5,0.5,0.5,1]}},"CityEngineMaterial_630-effect":{"name":"CityEngineMaterial_630","technique":"technique0","values":{"ambient":[1,1,1,1],"diffuse":[1,1,1,1],"emission":[0,0,0,1],"shininess":50,"specular":[0.5,0.5,0.5,1]}},"CityEngineMaterial_631-effect":{"name":"CityEngineMaterial_631","technique":"technique0","values":{"ambient":[1,1,1,1],"diffuse":[1,1,1,1],"emission":[0,0,0,1],"shininess":50,"specular":[0.5,0.5,0.5,1]}},"CityEngineMaterial_632-effect":{"name":"CityEngineMaterial_632","technique":"technique0","values":{"ambient":[1,1,1,1],"diffuse":[1,1,1,1],"emission":[0,0,0,1],"shininess":50,"specular":[0.5,0.5,0.5,1]}}},"meshes":{"mesh_CityEngineMaterial_624-mesh":{"name":"mesh_CityEngineMaterial.624","primitives":[{"attributes":{"NORMAL":"accessor_20","POSITION":"accessor_18","BATCHID":"accessor_b0"},"indices":"accessor_16","material":"CityEngineMaterial_626-effect","mode":4}]},"mesh_CityEngineMaterial_625-mesh":{"name":"mesh_CityEngineMaterial.625","primitives":[{"attributes":{"NORMAL":"accessor_40","POSITION":"accessor_38","BATCHID":"accessor_b1"},"indices":"accessor_36","material":"CityEngineMaterial_627-effect","mode":4}]},"mesh_CityEngineMaterial_626-mesh":{"name":"mesh_CityEngineMaterial.626","primitives":[{"attributes":{"NORMAL":"accessor_60","POSITION":"accessor_58","BATCHID":"accessor_b2"},"indices":"accessor_56","material":"CityEngineMaterial_628-effect","mode":4}]},"mesh_CityEngineMaterial_627-mesh":{"name":"mesh_CityEngineMaterial.627","primitives":[{"attributes":{"NORMAL":"accessor_80","POSITION":"accessor_78","BATCHID":"accessor_b3"},"indices":"accessor_76","material":"CityEngineMaterial_629-effect","mode":4}]},"mesh_CityEngineMaterial_628-mesh":{"name":"mesh_CityEngineMaterial.628","primitives":[{"attributes":{"NORMAL":"accessor_100","POSITION":"accessor_98","BATCHID":"accessor_b4"},"indices":"accessor_96","material":"CityEngineMaterial_630-effect","mode":4}]},"mesh_CityEngineMaterial_629-mesh":{"name":"mesh_CityEngineMaterial.629","primitives":[{"attributes":{"NORMAL":"accessor_120","POSITION":"accessor_118","BATCHID":"accessor_b5"},"indices":"accessor_116","material":"CityEngineMaterial_631-effect","mode":4}]},"mesh_CityEngineMaterial_630-mesh":{"name":"mesh_CityEngineMaterial.630","primitives":[{"attributes":{"NORMAL":"accessor_140","POSITION":"accessor_138","BATCHID":"accessor_b6"},"indices":"accessor_136","material":"CityEngineMaterial_632-effect","mode":4}]}},"nodes":{"CityEngineMaterial":{"children":[],"matrix":[1,0,0,0,0,-1.62921e-7,1,0,0,-1,-1.62921e-7,0,0,0,0,1],"meshes":["mesh_CityEngineMaterial_624-mesh"],"name":"CityEngineMaterial"},"CityEngineMaterial_001":{"children":[],"matrix":[1,0,0,0,0,-1.62921e-7,1,0,0,-1,-1.62921e-7,0,0,0,0,1],"meshes":["mesh_CityEngineMaterial_625-mesh"],"name":"CityEngineMaterial_001"},"CityEngineMaterial_002":{"children":[],"matrix":[1,0,0,0,0,-1.62921e-7,1,0,0,-1,-1.62921e-7,0,0,0,0,1],"meshes":["mesh_CityEngineMaterial_626-mesh"],"name":"CityEngineMaterial_002"},"CityEngineMaterial_003":{"children":[],"matrix":[1,0,0,0,0,-1.62921e-7,1,0,0,-1,-1.62921e-7,0,0,0,0,1],"meshes":["mesh_CityEngineMaterial_627-mesh"],"name":"CityEngineMaterial_003"},"CityEngineMaterial_004":{"children":[],"matrix":[1,0,0,0,0,-1.62921e-7,1,0,0,-1,-1.62921e-7,0,0,0,0,1],"meshes":["mesh_CityEngineMaterial_628-mesh"],"name":"CityEngineMaterial_004"},"CityEngineMaterial_005":{"children":[],"matrix":[1,0,0,0,0,-1.62921e-7,1,0,0,-1,-1.62921e-7,0,0,0,0,1],"meshes":["mesh_CityEngineMaterial_629-mesh"],"name":"CityEngineMaterial_005"},"CityEngineMaterial_006":{"children":[],"matrix":[1,0,0,0,0,-1.62921e-7,1,0,0,-1,-1.62921e-7,0,0,0,0,1],"meshes":["mesh_CityEngineMaterial_630-mesh"],"name":"CityEngineMaterial_006"},"node_7":{"children":["CityEngineMaterial","CityEngineMaterial_001","CityEngineMaterial_002","CityEngineMaterial_003","CityEngineMaterial_004","CityEngineMaterial_005","CityEngineMaterial_006"],"matrix":[1,0,0,0,0,0,-1,0,0,1,0,0,0,0,0,1],"name":"Y_UP_Transform"}},"programs":{"program_0":{"attributes":["a_normal","a_position","a_batchId"],"fragmentShader":"\\data\\3dcity\\miami\\workspace\\gridID_73\\gridID_730FS","vertexShader":"\\data\\3dcity\\miami\\workspace\\gridID_73\\gridID_730VS"}},"scene":"defaultScene","scenes":{"defaultScene":{"nodes":["node_7"]}},"shaders":{"\\data\\3dcity\\miami\\workspace\\gridID_73\\gridID_730FS":{"type":35632,"uri":"data:text/plain;base64,"},"\\data\\3dcity\\miami\\workspace\\gridID_73\\gridID_730VS":{"type":35633,"uri":"data:text/plain;base64,"}},"skins":{},"techniques":{"technique0":{"attributes":{"a_normal":"normal","a_position":"position","a_batchId":"batchId"},"parameters":{"ambient":{"type":35666},"diffuse":{"type":35666},"emission":{"type":35666},"modelViewMatrix":{"semantic":"MODELVIEW","type":35676},"normal":{"semantic":"NORMAL","type":35665},"normalMatrix":{"semantic":"MODELVIEWINVERSETRANSPOSE","type":35675},"position":{"semantic":"POSITION","type":35665},"projectionMatrix":{"semantic":"PROJECTION","type":35676},"shininess":{"type":5126},"specular":{"type":35666},"batchId":{"semantic":"BATCHID","type":5126}},"program":"program_0","states":{"enable":[2929,2884]},"uniforms":{"u_ambient":"ambient","u_diffuse":"diffuse","u_emission":"emission","u_modelViewMatrix":"modelViewMatrix","u_normalMatrix":"normalMatrix","u_projectionMatrix":"projectionMatrix","u_shininess":"shininess","u_specular":"specular"}}}}