{
    "accessors": {
        "accessor_101": {
            "bufferView": "bufferView_107",
            "byteOffset": 300,
            "byteStride": 0,
            "componentType": 5123,
            "count": 6,
            "type": "SCALAR"
        },
        "accessor_103": {
            "bufferView": "bufferView_108",
            "byteOffset": 2256,
            "byteStride": 12,
            "componentType": 5126,
            "count": 43,
            "max": [
                3.44794,
                2.77268,
                4.89683
            ],
            "min": [
                -4.13806,
                -1.22732,
                -5.60017
            ],
            "type": "VEC3"
        },
        "accessor_105": {
            "bufferView": "bufferView_108",
            "byteOffset": 2772,
            "byteStride": 12,
            "componentType": 5126,
            "count": 43,
            "max": [
                0.966609,
                0.87915,
                0.966269
            ],
            "min": [
                -0.966583,
                0,
                -0.96616
            ],
            "type": "VEC3"
        },
        "accessor_28": {
            "bufferView": "bufferView_107",
            "byteOffset": 0,
            "byteStride": 0,
            "componentType": 5123,
            "count": 36,
            "type": "SCALAR"
        },
        "accessor_31": {
            "bufferView": "bufferView_107",
            "byteOffset": 72,
            "byteStride": 0,
            "componentType": 5123,
            "count": 24,
            "type": "SCALAR"
        },
        "accessor_33": {
            "bufferView": "bufferView_108",
            "byteOffset": 0,
            "byteStride": 12,
            "componentType": 5126,
            "count": 52,
            "max": [
                15.805,
                6.42857,
                14.0179
            ],
            "min": [
                -28.525,
                -3.57143,
                -10.4621
            ],
            "type": "VEC3"
        },
        "accessor_35": {
            "bufferView": "bufferView_108",
            "byteOffset": 624,
            "byteStride": 12,
            "componentType": 5126,
            "count": 52,
            "max": [
                0.963459,
                1,
                0.963598
            ],
            "min": [
                -0.963664,
                0,
                -0.963631
            ],
            "type": "VEC3"
        },
        "accessor_63": {
            "bufferView": "bufferView_107",
            "byteOffset": 120,
            "byteStride": 0,
            "componentType": 5123,
            "count": 42,
            "type": "SCALAR"
        },
        "accessor_66": {
            "bufferView": "bufferView_107",
            "byteOffset": 204,
            "byteStride": 0,
            "componentType": 5123,
            "count": 6,
            "type": "SCALAR"
        },
        "accessor_68": {
            "bufferView": "bufferView_108",
            "byteOffset": 1248,
            "byteStride": 12,
            "componentType": 5126,
            "count": 42,
            "max": [
                3.79852,
                2.7832,
                5.235
            ],
            "min": [
                -3.79846,
                -1.2168,
                -5.241
            ],
            "type": "VEC3"
        },
        "accessor_70": {
            "bufferView": "bufferView_108",
            "byteOffset": 1752,
            "byteStride": 12,
            "componentType": 5126,
            "count": 42,
            "max": [
                0.96659,
                0.879414,
                0.96733
            ],
            "min": [
                -0.966506,
                0,
                -0.966747
            ],
            "type": "VEC3"
        },
        "accessor_98": {
            "bufferView": "bufferView_107",
            "byteOffset": 216,
            "byteStride": 0,
            "componentType": 5123,
            "count": 42,
            "type": "SCALAR"
        }
    },
    "animations": {},
    "asset": {
        "generator": "collada2gltf@cf6371beb0bdc18ba603378d5e40c966da53d385",
        "premultipliedAlpha": true,
        "profile": {
            "api": "WebGL",
            "version": "1.0.2"
        },
        "version": "1.0"
    },
    "bufferViews": {
        "bufferView_107": {
            "buffer": "\\data\\ECNU\\workspace\\gridID_70\\gridID_70",
            "byteLength": 312,
            "byteOffset": 0,
            "target": 34963
        },
        "bufferView_108": {
            "buffer": "\\data\\ECNU\\workspace\\gridID_70\\gridID_70",
            "byteLength": 3288,
            "byteOffset": 312,
            "target": 34962
        }
    },
    "buffers": {
        "\\data\\ECNU\\workspace\\gridID_70\\gridID_70": {
            "byteLength": 3600,
            "type": "arraybuffer",
            "uri": "data:application/octet-stream;base64,"
        }
    },
    "materials": {
        "BUILDING_DEFAULT_0-effect": {
            "name": "BUILDING_DEFAULT_0",
            "technique": "technique0",
            "values": {
                "ambient": [
                    0,
                    0,
                    0,
                    1
                ],
                "diffuse": [
                    0.723055,
                    0.708376,
                    0.672443,
                    1
                ],
                "emission": [
                    0,
                    0,
                    0,
                    1
                ],
                "shininess": 50,
                "specular": [
                    0.5,
                    0.5,
                    0.5,
                    1
                ]
            }
        },
        "ROOF_DEFAULT_0-effect": {
            "name": "ROOF_DEFAULT_0",
            "technique": "technique0",
            "values": {
                "ambient": [
                    0,
                    0,
                    0,
                    1
                ],
                "diffuse": [
                    0.603827,
                    0.381326,
                    0.291771,
                    1
                ],
                "emission": [
                    0,
                    0,
                    0,
                    1
                ],
                "shininess": 50,
                "specular": [
                    0.5,
                    0.5,
                    0.5,
                    1
                ]
            }
        }
    },
    "meshes": {
        "Building3808-mesh": {
            "name": "Building3808",
            "primitives": [
                {
                    "attributes": {
                        "NORMAL": "accessor_35",
                        "POSITION": "accessor_33"
                    },
                    "indices": "accessor_28",
                    "material": "BUILDING_DEFAULT_0-effect",
                    "mode": 4
                },
                {
                    "attributes": {
                        "NORMAL": "accessor_35",
                        "POSITION": "accessor_33"
                    },
                    "indices": "accessor_31",
                    "material": "ROOF_DEFAULT_0-effect",
                    "mode": 4
                }
            ]
        },
        "Building3932-mesh": {
            "name": "Building3932",
            "primitives": [
                {
                    "attributes": {
                        "NORMAL": "accessor_70",
                        "POSITION": "accessor_68"
                    },
                    "indices": "accessor_63",
                    "material": "BUILDING_DEFAULT_0-effect",
                    "mode": 4
                },
                {
                    "attributes": {
                        "NORMAL": "accessor_70",
                        "POSITION": "accessor_68"
                    },
                    "indices": "accessor_66",
                    "material": "ROOF_DEFAULT_0-effect",
                    "mode": 4
                }
            ]
        },
        "Building3934-mesh": {
            "name": "Building3934",
            "primitives": [
                {
                    "attributes": {
                        "NORMAL": "accessor_105",
                        "POSITION": "accessor_103"
                    },
                    "indices": "accessor_98",
                    "material": "BUILDING_DEFAULT_0-effect",
                    "mode": 4
                },
                {
                    "attributes": {
                        "NORMAL": "accessor_105",
                        "POSITION": "accessor_103"
                    },
                    "indices": "accessor_101",
                    "material": "ROOF_DEFAULT_0-effect",
                    "mode": 4
                }
            ]
        }
    },
    "nodes": {
        "model_gridID_70_w114518348": {
            "children": [],
            "matrix": [
                1,
                0,
                0,
                0,
                0,
                -1.62921e-007,
                1,
                0,
                0,
                -1,
                -1.62921e-007,
                0,
                -288.192,
                122.254,
                3.57145,
                1
            ],
            "meshes": [
                "Building3808-mesh"
            ],
            "name": "model_gridID_70_w114518348"
        },
        "model_gridID_70_w375219023": {
            "children": [],
            "matrix": [
                1,
                0,
                0,
                0,
                0,
                -1.62921e-007,
                1,
                0,
                0,
                -1,
                -1.62921e-007,
                0,
                -261.564,
                211.1,
                1.21684,
                1
            ],
            "meshes": [
                "Building3932-mesh"
            ],
            "name": "model_gridID_70_w375219023"
        },
        "model_gridID_70_w375219023_001": {
            "children": [],
            "matrix": [
                1,
                0,
                0,
                0,
                0,
                -1.62921e-007,
                1,
                0,
                0,
                -1,
                -1.62921e-007,
                0,
                -258.539,
                200.799,
                1.22735,
                1
            ],
            "meshes": [
                "Building3934-mesh"
            ],
            "name": "model_gridID_70_w375219023_001"
        },
        "node_3": {
            "children": [
                "model_gridID_70_w114518348",
                "model_gridID_70_w375219023",
                "model_gridID_70_w375219023_001"
            ],
            "matrix": [
                1,
                0,
                0,
                0,
                0,
                0,
                -1,
                0,
                0,
                1,
                0,
                0,
                0,
                0,
                0,
                1
            ],
            "name": "Y_UP_Transform"
        }
    },
    "programs": {
        "program_0": {
            "attributes": [
                "a_normal",
                "a_position"
            ],
            "fragmentShader": "\\data\\ECNU\\workspace\\gridID_70\\gridID_700FS",
            "vertexShader": "\\data\\ECNU\\workspace\\gridID_70\\gridID_700VS"
        }
    },
    "scene": "defaultScene",
    "scenes": {
        "defaultScene": {
            "nodes": [
                "node_3"
            ]
        }
    },
    "shaders": {
        "\\data\\ECNU\\workspace\\gridID_70\\gridID_700FS": {
            "type": 35632,
            "uri": "data:text/plain;base64,"
        },
        "\\data\\ECNU\\workspace\\gridID_70\\gridID_700VS": {
            "type": 35633,
            "uri": "data:text/plain;base64,"
        }
    },
    "skins": {},
    "techniques": {
        "technique0": {
            "attributes": {
                "a_normal": "normal",
                "a_position": "position"
            },
            "parameters": {
                "ambient": {
                    "type": 35666
                },
                "diffuse": {
                    "type": 35666
                },
                "emission": {
                    "type": 35666
                },
                "modelViewMatrix": {
                    "semantic": "MODELVIEW",
                    "type": 35676
                },
                "normal": {
                    "semantic": "NORMAL",
                    "type": 35665
                },
                "normalMatrix": {
                    "semantic": "MODELVIEWINVERSETRANSPOSE",
                    "type": 35675
                },
                "position": {
                    "semantic": "POSITION",
                    "type": 35665
                },
                "projectionMatrix": {
                    "semantic": "PROJECTION",
                    "type": 35676
                },
                "shininess": {
                    "type": 5126
                },
                "specular": {
                    "type": 35666
                }
            },
            "program": "program_0",
            "states": {
                "enable": [
                    2929,
                    2884
                ]
            },
            "uniforms": {
                "u_ambient": "ambient",
                "u_diffuse": "diffuse",
                "u_emission": "emission",
                "u_modelViewMatrix": "modelViewMatrix",
                "u_normalMatrix": "normalMatrix",
                "u_projectionMatrix": "projectionMatrix",
                "u_shininess": "shininess",
                "u_specular": "specular"
            }
        }
    }
}