{"accessors":{"accessor_100":{"bufferView":"bufferView_123","byteOffset":5280,"byteStride":12,"componentType":5126,"count":30,"max":[0.99989,1,0.999898],"min":[-0.999889,-1,-0.999883],"type":"VEC3"},"accessor_116":{"bufferView":"bufferView_122","byteOffset":600,"byteStride":0,"componentType":5123,"count":84,"type":"SCALAR"},"accessor_118":{"bufferView":"bufferView_123","byteOffset":5640,"byteStride":12,"componentType":5126,"count":61,"max":[-57.6443,10,23.1578],"min":[-80.4537,0,6.60689],"type":"VEC3"},"accessor_120":{"bufferView":"bufferView_123","byteOffset":6372,"byteStride":12,"componentType":5126,"count":61,"max":[0.999764,1,0.999746],"min":[-0.999801,-1,-0.999748],"type":"VEC3"},"accessor_16":{"bufferView":"bufferView_122","byteOffset":0,"byteStride":0,"componentType":5123,"count":72,"type":"SCALAR"},"accessor_18":{"bufferView":"bufferView_123","byteOffset":0,"byteStride":12,"componentType":5126,"count":56,"max":[61.423,122.5,51.5996],"min":[21.515,0,4.06058],"type":"VEC3"},"accessor_20":{"bufferView":"bufferView_123","byteOffset":672,"byteStride":12,"componentType":5126,"count":56,"max":[0.977206,1,0.977218],"min":[-0.976472,-1,-0.978052],"type":"VEC3"},"accessor_36":{"bufferView":"bufferView_122","byteOffset":144,"byteStride":0,"componentType":5123,"count":96,"type":"SCALAR"},"accessor_38":{"bufferView":"bufferView_123","byteOffset":1344,"byteStride":12,"componentType":5126,"count":75,"max":[107.187,28,92.2537],"min":[15.2477,0,26.73],"type":"VEC3"},"accessor_40":{"bufferView":"bufferView_123","byteOffset":2244,"byteStride":12,"componentType":5126,"count":75,"max":[0.977171,1,0.977204],"min":[-0.977206,-1,-0.97722],"type":"VEC3"},"accessor_56":{"bufferView":"bufferView_122","byteOffset":336,"byteStride":0,"componentType":5123,"count":36,"type":"SCALAR"},"accessor_58":{"bufferView":"bufferView_123","byteOffset":3144,"byteStride":12,"componentType":5126,"count":30,"max":[81.3937,10,5.6304],"min":[25.0438,0,-70.252],"type":"VEC3"},"accessor_60":{"bufferView":"bufferView_123","byteOffset":3504,"byteStride":12,"componentType":5126,"count":30,"max":[0.971589,1,0.971608],"min":[-0.971589,-1,-0.971608],"type":"VEC3"},"accessor_76":{"bufferView":"bufferView_122","byteOffset":408,"byteStride":0,"componentType":5123,"count":60,"type":"SCALAR"},"accessor_78":{"bufferView":"bufferView_123","byteOffset":3864,"byteStride":12,"componentType":5126,"count":44,"max":[-18.3151,10,-62.131],"min":[-41.9149,0,-76.0615],"type":"VEC3"},"accessor_80":{"bufferView":"bufferView_123","byteOffset":4392,"byteStride":12,"componentType":5126,"count":44,"max":[0.999997,1,0.999965],"min":[-0.999965,-1,-0.999565],"type":"VEC3"},"accessor_96":{"bufferView":"bufferView_122","byteOffset":528,"byteStride":0,"componentType":5123,"count":36,"type":"SCALAR"},"accessor_98":{"bufferView":"bufferView_123","byteOffset":4920,"byteStride":12,"componentType":5126,"count":30,"max":[-60.5275,7,-3.6772],"min":[-72.7615,0,-10.5992],"type":"VEC3"},"accessor_b0":{"bufferView":"bufferView_b","byteOffset":0,"byteStride":0,"componentType":5123,"count":56,"type":"SCALAR"},"accessor_b1":{"bufferView":"bufferView_b","byteOffset":112,"byteStride":0,"componentType":5123,"count":75,"type":"SCALAR"},"accessor_b2":{"bufferView":"bufferView_b","byteOffset":262,"byteStride":0,"componentType":5123,"count":30,"type":"SCALAR"},"accessor_b3":{"bufferView":"bufferView_b","byteOffset":322,"byteStride":0,"componentType":5123,"count":44,"type":"SCALAR"},"accessor_b4":{"bufferView":"bufferView_b","byteOffset":410,"byteStride":0,"componentType":5123,"count":30,"type":"SCALAR"},"accessor_b5":{"bufferView":"bufferView_b","byteOffset":470,"byteStride":0,"componentType":5123,"count":61,"type":"SCALAR"}},"animations":{},"asset":{"generator":"collada2gltf@cf6371beb0bdc18ba603378d5e40c966da53d385","premultipliedAlpha":true,"profile":{"api":"WebGL","version":"1.0.2"},"version":"1.0"},"bufferViews":{"bufferView_122":{"buffer":"\\data\\3dcity\\miami\\workspace\\gridID_47\\gridID_47","byteLength":768,"byteOffset":0,"target":34963},"bufferView_123":{"buffer":"\\data\\3dcity\\miami\\workspace\\gridID_47\\gridID_47","byteLength":7104,"byteOffset":768,"target":34962},"bufferView_b":{"buffer":"buffer_b","byteLength":592,"byteOffset":0,"target":34962}},"buffers":{"\\data\\3dcity\\miami\\workspace\\gridID_47\\gridID_47":{"byteLength":7872,"type":"arraybuffer","uri":"data:application/octet-stream;base64,"},"buffer_b":{"type":"arraybuffer","byteLength":592,"uri":"data:application/octet-stream;base64,"}},"materials":{"CityEngineMaterial_492-effect":{"name":"CityEngineMaterial_492","technique":"technique0","values":{"ambient":[1,1,1,1],"diffuse":[1,1,1,1],"emission":[0,0,0,1],"shininess":50,"specular":[0.5,0.5,0.5,1]}},"CityEngineMaterial_493-effect":{"name":"CityEngineMaterial_493","technique":"technique0","values":{"ambient":[1,1,1,1],"diffuse":[1,1,1,1],"emission":[0,0,0,1],"shininess":50,"specular":[0.5,0.5,0.5,1]}},"CityEngineMaterial_494-effect":{"name":"CityEngineMaterial_494","technique":"technique0","values":{"ambient":[1,1,1,1],"diffuse":[1,1,1,1],"emission":[0,0,0,1],"shininess":50,"specular":[0.5,0.5,0.5,1]}},"CityEngineMaterial_495-effect":{"name":"CityEngineMaterial_495","technique":"technique0","values":{"ambient":[1,1,1,1],"diffuse":[1,1,1,1],"emission":[0,0,0,1],"shininess":50,"specular":[0.5,0.5,0.5,1]}},"CityEngineMaterial_496-effect":{"name":"CityEngineMaterial_496","technique":"technique0","values":{"ambient":[1,1,1,1],"diffuse":[1,1,1,1],"emission":[0,0,0,1],"shininess":50,"specular":[0.5,0.5,0.5,1]}},"CityEngineMaterial_497-effect":{"name":"CityEngineMaterial_497","technique":"technique0","values":{"ambient":[1,1,1,1],"diffuse":[1,1,1,1],"emission":[0,0,0,1],"shininess":50,"specular":[0.5,0.5,0.5,1]}}},"meshes":{"mesh_CityEngineMaterial_490-mesh":{"name":"mesh_CityEngineMaterial.490","primitives":[{"attributes":{"NORMAL":"accessor_20","POSITION":"accessor_18","BATCHID":"accessor_b0"},"indices":"accessor_16","material":"CityEngineMaterial_492-effect","mode":4}]},"mesh_CityEngineMaterial_491-mesh":{"name":"mesh_CityEngineMaterial.491","primitives":[{"attributes":{"NORMAL":"accessor_40","POSITION":"accessor_38","BATCHID":"accessor_b1"},"indices":"accessor_36","material":"CityEngineMaterial_493-effect","mode":4}]},"mesh_CityEngineMaterial_492-mesh":{"name":"mesh_CityEngineMaterial.492","primitives":[{"attributes":{"NORMAL":"accessor_60","POSITION":"accessor_58","BATCHID":"accessor_b2"},"indices":"accessor_56","material":"CityEngineMaterial_494-effect","mode":4}]},"mesh_CityEngineMaterial_493-mesh":{"name":"mesh_CityEngineMaterial.493","primitives":[{"attributes":{"NORMAL":"accessor_80","POSITION":"accessor_78","BATCHID":"accessor_b3"},"indices":"accessor_76","material":"CityEngineMaterial_495-effect","mode":4}]},"mesh_CityEngineMaterial_494-mesh":{"name":"mesh_CityEngineMaterial.494","primitives":[{"attributes":{"NORMAL":"accessor_100","POSITION":"accessor_98","BATCHID":"accessor_b4"},"indices":"accessor_96","material":"CityEngineMaterial_496-effect","mode":4}]},"mesh_CityEngineMaterial_495-mesh":{"name":"mesh_CityEngineMaterial.495","primitives":[{"attributes":{"NORMAL":"accessor_120","POSITION":"accessor_118","BATCHID":"accessor_b5"},"indices":"accessor_116","material":"CityEngineMaterial_497-effect","mode":4}]}},"nodes":{"CityEngineMaterial":{"children":[],"matrix":[1,0,0,0,0,-1.62921e-7,1,0,0,-1,-1.62921e-7,0,0,0,0,1],"meshes":["mesh_CityEngineMaterial_490-mesh"],"name":"CityEngineMaterial"},"CityEngineMaterial_001":{"children":[],"matrix":[1,0,0,0,0,-1.62921e-7,1,0,0,-1,-1.62921e-7,0,0,0,0,1],"meshes":["mesh_CityEngineMaterial_491-mesh"],"name":"CityEngineMaterial_001"},"CityEngineMaterial_002":{"children":[],"matrix":[1,0,0,0,0,-1.62921e-7,1,0,0,-1,-1.62921e-7,0,0,0,0,1],"meshes":["mesh_CityEngineMaterial_492-mesh"],"name":"CityEngineMaterial_002"},"CityEngineMaterial_003":{"children":[],"matrix":[1,0,0,0,0,-1.62921e-7,1,0,0,-1,-1.62921e-7,0,0,0,0,1],"meshes":["mesh_CityEngineMaterial_493-mesh"],"name":"CityEngineMaterial_003"},"CityEngineMaterial_004":{"children":[],"matrix":[1,0,0,0,0,-1.62921e-7,1,0,0,-1,-1.62921e-7,0,0,0,0,1],"meshes":["mesh_CityEngineMaterial_494-mesh"],"name":"CityEngineMaterial_004"},"CityEngineMaterial_005":{"children":[],"matrix":[1,0,0,0,0,-1.62921e-7,1,0,0,-1,-1.62921e-7,0,0,0,0,1],"meshes":["mesh_CityEngineMaterial_495-mesh"],"name":"CityEngineMaterial_005"},"node_6":{"children":["CityEngineMaterial","CityEngineMaterial_001","CityEngineMaterial_002","CityEngineMaterial_003","CityEngineMaterial_004","CityEngineMaterial_005"],"matrix":[1,0,0,0,0,0,-1,0,0,1,0,0,0,0,0,1],"name":"Y_UP_Transform"}},"programs":{"program_0":{"attributes":["a_normal","a_position","a_batchId"],"fragmentShader":"\\data\\3dcity\\miami\\workspace\\gridID_47\\gridID_470FS","vertexShader":"\\data\\3dcity\\miami\\workspace\\gridID_47\\gridID_470VS"}},"scene":"defaultScene","scenes":{"defaultScene":{"nodes":["node_6"]}},"shaders":{"\\data\\3dcity\\miami\\workspace\\gridID_47\\gridID_470FS":{"type":35632,"uri":"data:text/plain;base64,"},"\\data\\3dcity\\miami\\workspace\\gridID_47\\gridID_470VS":{"type":35633,"uri":"data:text/plain;base64,"}},"skins":{},"techniques":{"technique0":{"attributes":{"a_normal":"normal","a_position":"position","a_batchId":"batchId"},"parameters":{"ambient":{"type":35666},"diffuse":{"type":35666},"emission":{"type":35666},"modelViewMatrix":{"semantic":"MODELVIEW","type":35676},"normal":{"semantic":"NORMAL","type":35665},"normalMatrix":{"semantic":"MODELVIEWINVERSETRANSPOSE","type":35675},"position":{"semantic":"POSITION","type":35665},"projectionMatrix":{"semantic":"PROJECTION","type":35676},"shininess":{"type":5126},"specular":{"type":35666},"batchId":{"semantic":"BATCHID","type":5126}},"program":"program_0","states":{"enable":[2929,2884]},"uniforms":{"u_ambient":"ambient","u_diffuse":"diffuse","u_emission":"emission","u_modelViewMatrix":"modelViewMatrix","u_normalMatrix":"normalMatrix","u_projectionMatrix":"projectionMatrix","u_shininess":"shininess","u_specular":"specular"}}}}