{
    "accessors": {
        "accessor_101": {
            "bufferView": "bufferView_177",
            "byteOffset": 120,
            "byteStride": 0,
            "componentType": 5123,
            "count": 9,
            "type": "SCALAR"
        },
        "accessor_103": {
            "bufferView": "bufferView_178",
            "byteOffset": 576,
            "byteStride": 12,
            "componentType": 5126,
            "count": 25,
            "max": [
                4.076,
                2,
                2.66254
            ],
            "min": [
                -6.04298,
                -2,
                -2.53644
            ],
            "type": "VEC3"
        },
        "accessor_105": {
            "bufferView": "bufferView_178",
            "byteOffset": 876,
            "byteStride": 12,
            "componentType": 5126,
            "count": 25,
            "max": [
                0.989399,
                1,
                0.988371
            ],
            "min": [
                -0.988445,
                0,
                -0.988352
            ],
            "type": "VEC3"
        },
        "accessor_133": {
            "bufferView": "bufferView_177",
            "byteOffset": 0,
            "byteStride": 0,
            "componentType": 5123,
            "count": 24,
            "type": "SCALAR"
        },
        "accessor_136": {
            "bufferView": "bufferView_177",
            "byteOffset": 48,
            "byteStride": 0,
            "componentType": 5123,
            "count": 6,
            "type": "SCALAR"
        },
        "accessor_138": {
            "bufferView": "bufferView_178",
            "byteOffset": 0,
            "byteStride": 12,
            "componentType": 5126,
            "count": 24,
            "max": [
                3.23651,
                1.4,
                1.93146
            ],
            "min": [
                -3.2365,
                -1.4,
                -1.93152
            ],
            "type": "VEC3"
        },
        "accessor_140": {
            "bufferView": "bufferView_178",
            "byteOffset": 288,
            "byteStride": 12,
            "componentType": 5126,
            "count": 24,
            "max": [
                0.987949,
                1,
                0.987862
            ],
            "min": [
                -0.987949,
                0,
                -0.987862
            ],
            "type": "VEC3"
        },
        "accessor_168": {
            "bufferView": "bufferView_177",
            "byteOffset": 138,
            "byteStride": 0,
            "componentType": 5123,
            "count": 24,
            "type": "SCALAR"
        },
        "accessor_171": {
            "bufferView": "bufferView_177",
            "byteOffset": 186,
            "byteStride": 0,
            "componentType": 5123,
            "count": 6,
            "type": "SCALAR"
        },
        "accessor_173": {
            "bufferView": "bufferView_178",
            "byteOffset": 1176,
            "byteStride": 12,
            "componentType": 5126,
            "count": 24,
            "max": [
                0.835495,
                1.4,
                1.54425
            ],
            "min": [
                -0.830505,
                -1.4,
                -1.54974
            ],
            "type": "VEC3"
        },
        "accessor_175": {
            "bufferView": "bufferView_178",
            "byteOffset": 1464,
            "byteStride": 12,
            "componentType": 5126,
            "count": 24,
            "max": [
                0.988825,
                1,
                0.989653
            ],
            "min": [
                -0.989399,
                0,
                -0.98855
            ],
            "type": "VEC3"
        },
        "accessor_28": {
            "bufferView": "bufferView_177",
            "byteOffset": 198,
            "byteStride": 0,
            "componentType": 5123,
            "count": 72,
            "type": "SCALAR"
        },
        "accessor_31": {
            "bufferView": "bufferView_177",
            "byteOffset": 342,
            "byteStride": 0,
            "componentType": 5123,
            "count": 30,
            "type": "SCALAR"
        },
        "accessor_33": {
            "bufferView": "bufferView_178",
            "byteOffset": 1752,
            "byteStride": 12,
            "componentType": 5126,
            "count": 62,
            "max": [
                25.5297,
                3.75,
                17.291
            ],
            "min": [
                -25.5883,
                -3.75,
                -16.441
            ],
            "type": "VEC3"
        },
        "accessor_35": {
            "bufferView": "bufferView_178",
            "byteOffset": 2496,
            "byteStride": 12,
            "componentType": 5126,
            "count": 62,
            "max": [
                0.916815,
                1,
                0.916571
            ],
            "min": [
                -0.917583,
                0,
                -0.916484
            ],
            "type": "VEC3"
        },
        "accessor_63": {
            "bufferView": "bufferView_177",
            "byteOffset": 402,
            "byteStride": 0,
            "componentType": 5123,
            "count": 30,
            "type": "SCALAR"
        },
        "accessor_66": {
            "bufferView": "bufferView_177",
            "byteOffset": 462,
            "byteStride": 0,
            "componentType": 5123,
            "count": 9,
            "type": "SCALAR"
        },
        "accessor_68": {
            "bufferView": "bufferView_178",
            "byteOffset": 3240,
            "byteStride": 12,
            "componentType": 5126,
            "count": 35,
            "max": [
                18.4614,
                5,
                7.26318
            ],
            "min": [
                -12.4086,
                -5,
                -8.6568
            ],
            "type": "VEC3"
        },
        "accessor_70": {
            "bufferView": "bufferView_178",
            "byteOffset": 3660,
            "byteStride": 12,
            "componentType": 5126,
            "count": 35,
            "max": [
                0.988147,
                1,
                0.989713
            ],
            "min": [
                -0.98816,
                0,
                -0.988151
            ],
            "type": "VEC3"
        },
        "accessor_98": {
            "bufferView": "bufferView_177",
            "byteOffset": 60,
            "byteStride": 0,
            "componentType": 5123,
            "count": 30,
            "type": "SCALAR"
        }
    },
    "animations": {},
    "asset": {
        "generator": "collada2gltf@cf6371beb0bdc18ba603378d5e40c966da53d385",
        "premultipliedAlpha": true,
        "profile": {
            "api": "WebGL",
            "version": "1.0.2"
        },
        "version": "1.0"
    },
    "bufferViews": {
        "bufferView_177": {
            "buffer": "\\data\\ECNU\\workspace\\gridID_115\\gridID_115",
            "byteLength": 480,
            "byteOffset": 0,
            "target": 34963
        },
        "bufferView_178": {
            "buffer": "\\data\\ECNU\\workspace\\gridID_115\\gridID_115",
            "byteLength": 4080,
            "byteOffset": 480,
            "target": 34962
        }
    },
    "buffers": {
        "\\data\\ECNU\\workspace\\gridID_115\\gridID_115": {
            "byteLength": 4560,
            "type": "arraybuffer",
            "uri": "data:application/octet-stream;base64,"
        }
    },
    "materials": {
        "BUILDING_DEFAULT_0-effect": {
            "name": "BUILDING_DEFAULT_0",
            "technique": "technique0",
            "values": {
                "ambient": [
                    0,
                    0,
                    0,
                    1
                ],
                "diffuse": [
                    0.723055,
                    0.708376,
                    0.672443,
                    1
                ],
                "emission": [
                    0,
                    0,
                    0,
                    1
                ],
                "shininess": 50,
                "specular": [
                    0.5,
                    0.5,
                    0.5,
                    1
                ]
            }
        },
        "CONCRETE_0-effect": {
            "name": "CONCRETE_0",
            "technique": "technique0",
            "values": {
                "ambient": [
                    0,
                    0,
                    0,
                    1
                ],
                "diffuse": [
                    0.309469,
                    0.327778,
                    0.309469,
                    1
                ],
                "emission": [
                    0,
                    0,
                    0,
                    1
                ],
                "shininess": 50,
                "specular": [
                    0.5,
                    0.5,
                    0.5,
                    1
                ]
            }
        },
        "ROOF_DEFAULT_0-effect": {
            "name": "ROOF_DEFAULT_0",
            "technique": "technique0",
            "values": {
                "ambient": [
                    0,
                    0,
                    0,
                    1
                ],
                "diffuse": [
                    0.603827,
                    0.381326,
                    0.291771,
                    1
                ],
                "emission": [
                    0,
                    0,
                    0,
                    1
                ],
                "shininess": 50,
                "specular": [
                    0.5,
                    0.5,
                    0.5,
                    1
                ]
            }
        }
    },
    "meshes": {
        "Building3485-mesh": {
            "name": "Building3485",
            "primitives": [
                {
                    "attributes": {
                        "NORMAL": "accessor_140",
                        "POSITION": "accessor_138"
                    },
                    "indices": "accessor_133",
                    "material": "BUILDING_DEFAULT_0-effect",
                    "mode": 4
                },
                {
                    "attributes": {
                        "NORMAL": "accessor_140",
                        "POSITION": "accessor_138"
                    },
                    "indices": "accessor_136",
                    "material": "CONCRETE_0-effect",
                    "mode": 4
                }
            ]
        },
        "Building3486-mesh": {
            "name": "Building3486",
            "primitives": [
                {
                    "attributes": {
                        "NORMAL": "accessor_105",
                        "POSITION": "accessor_103"
                    },
                    "indices": "accessor_98",
                    "material": "BUILDING_DEFAULT_0-effect",
                    "mode": 4
                },
                {
                    "attributes": {
                        "NORMAL": "accessor_105",
                        "POSITION": "accessor_103"
                    },
                    "indices": "accessor_101",
                    "material": "CONCRETE_0-effect",
                    "mode": 4
                }
            ]
        },
        "Building3488-mesh": {
            "name": "Building3488",
            "primitives": [
                {
                    "attributes": {
                        "NORMAL": "accessor_175",
                        "POSITION": "accessor_173"
                    },
                    "indices": "accessor_168",
                    "material": "BUILDING_DEFAULT_0-effect",
                    "mode": 4
                },
                {
                    "attributes": {
                        "NORMAL": "accessor_175",
                        "POSITION": "accessor_173"
                    },
                    "indices": "accessor_171",
                    "material": "CONCRETE_0-effect",
                    "mode": 4
                }
            ]
        },
        "Building3861-mesh": {
            "name": "Building3861",
            "primitives": [
                {
                    "attributes": {
                        "NORMAL": "accessor_35",
                        "POSITION": "accessor_33"
                    },
                    "indices": "accessor_28",
                    "material": "BUILDING_DEFAULT_0-effect",
                    "mode": 4
                },
                {
                    "attributes": {
                        "NORMAL": "accessor_35",
                        "POSITION": "accessor_33"
                    },
                    "indices": "accessor_31",
                    "material": "ROOF_DEFAULT_0-effect",
                    "mode": 4
                }
            ]
        },
        "Building4134-mesh": {
            "name": "Building4134",
            "primitives": [
                {
                    "attributes": {
                        "NORMAL": "accessor_70",
                        "POSITION": "accessor_68"
                    },
                    "indices": "accessor_63",
                    "material": "BUILDING_DEFAULT_0-effect",
                    "mode": 4
                },
                {
                    "attributes": {
                        "NORMAL": "accessor_70",
                        "POSITION": "accessor_68"
                    },
                    "indices": "accessor_66",
                    "material": "CONCRETE_0-effect",
                    "mode": 4
                }
            ]
        }
    },
    "nodes": {
        "model_gridID_115_w169917402": {
            "children": [],
            "matrix": [
                1,
                0,
                0,
                0,
                0,
                -1.62921e-007,
                1,
                0,
                0,
                -1,
                -1.62921e-007,
                0,
                -197.186,
                644.606,
                3.7501,
                1
            ],
            "meshes": [
                "Building3861-mesh"
            ],
            "name": "model_gridID_115_w169917402"
        },
        "model_gridID_115_w380971698": {
            "children": [],
            "matrix": [
                1,
                0,
                0,
                0,
                0,
                -1.62921e-007,
                1,
                0,
                0,
                -1,
                -1.62921e-007,
                0,
                -196.514,
                563.463,
                5.00009,
                1
            ],
            "meshes": [
                "Building4134-mesh"
            ],
            "name": "model_gridID_115_w380971698"
        },
        "model_gridID_115_w380971698_001": {
            "children": [],
            "matrix": [
                1,
                0,
                0,
                0,
                0,
                -1.62921e-007,
                1,
                0,
                0,
                -1,
                -1.62921e-007,
                0,
                -181.482,
                570.831,
                2.00009,
                1
            ],
            "meshes": [
                "Building3486-mesh"
            ],
            "name": "model_gridID_115_w380971698_001"
        },
        "model_gridID_115_w381440760_001": {
            "children": [],
            "matrix": [
                1,
                0,
                0,
                0,
                0,
                -1.62921e-007,
                1,
                0,
                0,
                -1,
                -1.62921e-007,
                0,
                -165.802,
                567.683,
                1.40009,
                1
            ],
            "meshes": [
                "Building3485-mesh"
            ],
            "name": "model_gridID_115_w381440760_001"
        },
        "model_gridID_115_w381440761": {
            "children": [],
            "matrix": [
                1,
                0,
                0,
                0,
                0,
                -1.62921e-007,
                1,
                0,
                0,
                -1,
                -1.62921e-007,
                0,
                -177.146,
                569.534,
                1.40009,
                1
            ],
            "meshes": [
                "Building3488-mesh"
            ],
            "name": "model_gridID_115_w381440761"
        },
        "node_5": {
            "children": [
                "model_gridID_115_w169917402",
                "model_gridID_115_w380971698",
                "model_gridID_115_w380971698_001",
                "model_gridID_115_w381440760_001",
                "model_gridID_115_w381440761"
            ],
            "matrix": [
                1,
                0,
                0,
                0,
                0,
                0,
                -1,
                0,
                0,
                1,
                0,
                0,
                0,
                0,
                0,
                1
            ],
            "name": "Y_UP_Transform"
        }
    },
    "programs": {
        "program_0": {
            "attributes": [
                "a_normal",
                "a_position"
            ],
            "fragmentShader": "\\data\\ECNU\\workspace\\gridID_115\\gridID_1150FS",
            "vertexShader": "\\data\\ECNU\\workspace\\gridID_115\\gridID_1150VS"
        }
    },
    "scene": "defaultScene",
    "scenes": {
        "defaultScene": {
            "nodes": [
                "node_5"
            ]
        }
    },
    "shaders": {
        "\\data\\ECNU\\workspace\\gridID_115\\gridID_1150FS": {
            "type": 35632,
            "uri": "data:text/plain;base64,"
        },
        "\\data\\ECNU\\workspace\\gridID_115\\gridID_1150VS": {
            "type": 35633,
            "uri": "data:text/plain;base64,"
        }
    },
    "skins": {},
    "techniques": {
        "technique0": {
            "attributes": {
                "a_normal": "normal",
                "a_position": "position"
            },
            "parameters": {
                "ambient": {
                    "type": 35666
                },
                "diffuse": {
                    "type": 35666
                },
                "emission": {
                    "type": 35666
                },
                "modelViewMatrix": {
                    "semantic": "MODELVIEW",
                    "type": 35676
                },
                "normal": {
                    "semantic": "NORMAL",
                    "type": 35665
                },
                "normalMatrix": {
                    "semantic": "MODELVIEWINVERSETRANSPOSE",
                    "type": 35675
                },
                "position": {
                    "semantic": "POSITION",
                    "type": 35665
                },
                "projectionMatrix": {
                    "semantic": "PROJECTION",
                    "type": 35676
                },
                "shininess": {
                    "type": 5126
                },
                "specular": {
                    "type": 35666
                }
            },
            "program": "program_0",
            "states": {
                "enable": [
                    2929,
                    2884
                ]
            },
            "uniforms": {
                "u_ambient": "ambient",
                "u_diffuse": "diffuse",
                "u_emission": "emission",
                "u_modelViewMatrix": "modelViewMatrix",
                "u_normalMatrix": "normalMatrix",
                "u_projectionMatrix": "projectionMatrix",
                "u_shininess": "shininess",
                "u_specular": "specular"
            }
        }
    }
}