{"accessors":{"accessor_100":{"bufferView":"bufferView_288","byteOffset":289440,"byteStride":12,"componentType":5126,"count":634,"max":[0.964614,1,0.96519],"min":[-0.9646,-1,-0.964767],"type":"VEC3"},"accessor_140":{"bufferView":"bufferView_287","byteOffset":4014,"byteStride":0,"componentType":5123,"count":1017,"type":"SCALAR"},"accessor_143":{"bufferView":"bufferView_287","byteOffset":6048,"byteStride":0,"componentType":5123,"count":228,"type":"SCALAR"},"accessor_146":{"bufferView":"bufferView_287","byteOffset":6504,"byteStride":0,"componentType":5123,"count":48,"type":"SCALAR"},"accessor_148":{"bufferView":"bufferView_288","byteOffset":35976,"byteStride":12,"componentType":5126,"count":1083,"max":[6.94574,2.62419,4.45316],"min":[-7.48526,-5.37581,-3.70583],"type":"VEC3"},"accessor_150":{"bufferView":"bufferView_288","byteOffset":48972,"byteStride":12,"componentType":5126,"count":1083,"max":[1,1,1],"min":[-1,-1,-1],"type":"VEC3"},"accessor_190":{"bufferView":"bufferView_287","byteOffset":6600,"byteStride":0,"componentType":5123,"count":1386,"type":"SCALAR"},"accessor_193":{"bufferView":"bufferView_287","byteOffset":9372,"byteStride":0,"componentType":5123,"count":318,"type":"SCALAR"},"accessor_196":{"bufferView":"bufferView_287","byteOffset":10008,"byteStride":0,"componentType":5123,"count":60,"type":"SCALAR"},"accessor_198":{"bufferView":"bufferView_288","byteOffset":61968,"byteStride":12,"componentType":5126,"count":1427,"max":[7.04694,2.34695,4.8934],"min":[-6.95508,-5.65305,-3.54459],"type":"VEC3"},"accessor_200":{"bufferView":"bufferView_288","byteOffset":79092,"byteStride":12,"componentType":5126,"count":1427,"max":[1,1,1],"min":[-1,-1,-1],"type":"VEC3"},"accessor_228":{"bufferView":"bufferView_287","byteOffset":0,"byteStride":0,"componentType":5123,"count":72,"type":"SCALAR"},"accessor_231":{"bufferView":"bufferView_287","byteOffset":144,"byteStride":0,"componentType":5123,"count":30,"type":"SCALAR"},"accessor_233":{"bufferView":"bufferView_288","byteOffset":0,"byteStride":12,"componentType":5126,"count":84,"max":[8.38062,2.32,8.2551],"min":[-8.51538,-0.98,-8.2419],"type":"VEC3"},"accessor_235":{"bufferView":"bufferView_288","byteOffset":1008,"byteStride":12,"componentType":5126,"count":84,"max":[0.971705,1,0.972142],"min":[-0.971705,0,-0.972142],"type":"VEC3"},"accessor_275":{"bufferView":"bufferView_287","byteOffset":10128,"byteStride":0,"componentType":5123,"count":7725,"type":"SCALAR"},"accessor_278":{"bufferView":"bufferView_287","byteOffset":25578,"byteStride":0,"componentType":5123,"count":1707,"type":"SCALAR"},"accessor_281":{"bufferView":"bufferView_287","byteOffset":28992,"byteStride":0,"componentType":5123,"count":453,"type":"SCALAR"},"accessor_283":{"bufferView":"bufferView_288","byteOffset":96216,"byteStride":12,"componentType":5126,"count":7734,"max":[31.2068,2.76422,13.5008],"min":[-42.3751,-8.23578,-16.1102],"type":"VEC3"},"accessor_285":{"bufferView":"bufferView_288","byteOffset":189024,"byteStride":12,"componentType":5126,"count":7734,"max":[1,1,1],"min":[-1,-1,-1],"type":"VEC3"},"accessor_40":{"bufferView":"bufferView_287","byteOffset":204,"byteStride":0,"componentType":5123,"count":1479,"type":"SCALAR"},"accessor_43":{"bufferView":"bufferView_287","byteOffset":3162,"byteStride":0,"componentType":5123,"count":393,"type":"SCALAR"},"accessor_46":{"bufferView":"bufferView_287","byteOffset":3948,"byteStride":0,"componentType":5123,"count":33,"type":"SCALAR"},"accessor_48":{"bufferView":"bufferView_288","byteOffset":2016,"byteStride":12,"componentType":5126,"count":1415,"max":[10.6089,1.42034,7.24796],"min":[-7.34308,-9.57966,-10.274],"type":"VEC3"},"accessor_50":{"bufferView":"bufferView_288","byteOffset":18996,"byteStride":12,"componentType":5126,"count":1415,"max":[1,1,1],"min":[-1,-1,-1],"type":"VEC3"},"accessor_90":{"bufferView":"bufferView_287","byteOffset":29898,"byteStride":0,"componentType":5123,"count":486,"type":"SCALAR"},"accessor_93":{"bufferView":"bufferView_287","byteOffset":30870,"byteStride":0,"componentType":5123,"count":204,"type":"SCALAR"},"accessor_96":{"bufferView":"bufferView_287","byteOffset":31278,"byteStride":0,"componentType":5123,"count":12,"type":"SCALAR"},"accessor_98":{"bufferView":"bufferView_288","byteOffset":281832,"byteStride":12,"componentType":5126,"count":634,"max":[46.5646,6.912,23.0223],"min":[-49.8534,-5.588,-53.5547],"type":"VEC3"},"accessor_b0":{"bufferView":"bufferView_b","byteOffset":0,"byteStride":0,"componentType":5123,"count":84,"type":"SCALAR"},"accessor_b1":{"bufferView":"bufferView_b","byteOffset":168,"byteStride":0,"componentType":5123,"count":1415,"type":"SCALAR"},"accessor_b2":{"bufferView":"bufferView_b","byteOffset":2998,"byteStride":0,"componentType":5123,"count":1083,"type":"SCALAR"},"accessor_b3":{"bufferView":"bufferView_b","byteOffset":5164,"byteStride":0,"componentType":5123,"count":1427,"type":"SCALAR"},"accessor_b4":{"bufferView":"bufferView_b","byteOffset":8018,"byteStride":0,"componentType":5123,"count":7734,"type":"SCALAR"},"accessor_b5":{"bufferView":"bufferView_b","byteOffset":23486,"byteStride":0,"componentType":5123,"count":634,"type":"SCALAR"}},"animations":{},"asset":{"generator":"collada2gltf@cf6371beb0bdc18ba603378d5e40c966da53d385","premultipliedAlpha":true,"profile":{"api":"WebGL","version":"1.0.2"},"version":"1.0"},"bufferViews":{"bufferView_287":{"buffer":"\\data\\ECNU\\workspace\\gridID_59\\gridID_59","byteLength":31304,"byteOffset":0,"target":34963},"bufferView_288":{"buffer":"\\data\\ECNU\\workspace\\gridID_59\\gridID_59","byteLength":297048,"byteOffset":31304,"target":34962},"bufferView_b":{"buffer":"buffer_b","byteLength":24754,"byteOffset":0,"target":34962}},"buffers":{"\\data\\ECNU\\workspace\\gridID_59\\gridID_59":{"byteLength":328352,"type":"arraybuffer","uri":"data:application/octet-stream;base64,"},"buffer_b":{"type":"arraybuffer","byteLength":24754,"uri":"data:application/octet-stream;base64,"}},"materials":{"BUILDING_DEFAULT_0-effect":{"name":"BUILDING_DEFAULT_0","technique":"technique0","values":{"ambient":[0,0,0,1],"diffuse":[0.723055,0.708376,0.672443,1],"emission":[0,0,0,1],"shininess":50,"specular":[0.5,0.5,0.5,1]}},"CONCRETE_0-effect":{"name":"CONCRETE_0","technique":"technique0","values":{"ambient":[0,0,0,1],"diffuse":[0.309469,0.327778,0.309469,1],"emission":[0,0,0,1],"shininess":50,"specular":[0.5,0.5,0.5,1]}},"ROOF_DEFAULT_0-effect":{"name":"ROOF_DEFAULT_0","technique":"technique0","values":{"ambient":[0,0,0,1],"diffuse":[0.603827,0.381326,0.291771,1],"emission":[0,0,0,1],"shininess":50,"specular":[0.5,0.5,0.5,1]}}},"meshes":{"Building3357-mesh":{"name":"Building3357","primitives":[{"attributes":{"NORMAL":"accessor_235","POSITION":"accessor_233","BATCHID":"accessor_b0"},"indices":"accessor_228","material":"BUILDING_DEFAULT_0-effect","mode":4},{"attributes":{"NORMAL":"accessor_235","POSITION":"accessor_233","BATCHID":"accessor_b0"},"indices":"accessor_231","material":"ROOF_DEFAULT_0-effect","mode":4}]},"Building3500-mesh":{"name":"Building3500","primitives":[{"attributes":{"NORMAL":"accessor_50","POSITION":"accessor_48","BATCHID":"accessor_b1"},"indices":"accessor_40","material":"BUILDING_DEFAULT_0-effect","mode":4},{"attributes":{"NORMAL":"accessor_50","POSITION":"accessor_48","BATCHID":"accessor_b1"},"indices":"accessor_43","material":"ROOF_DEFAULT_0-effect","mode":4},{"attributes":{"NORMAL":"accessor_50","POSITION":"accessor_48","BATCHID":"accessor_b1"},"indices":"accessor_46","material":"CONCRETE_0-effect","mode":4}]},"Building3507-mesh":{"name":"Building3507","primitives":[{"attributes":{"NORMAL":"accessor_150","POSITION":"accessor_148","BATCHID":"accessor_b2"},"indices":"accessor_140","material":"BUILDING_DEFAULT_0-effect","mode":4},{"attributes":{"NORMAL":"accessor_150","POSITION":"accessor_148","BATCHID":"accessor_b2"},"indices":"accessor_143","material":"ROOF_DEFAULT_0-effect","mode":4},{"attributes":{"NORMAL":"accessor_150","POSITION":"accessor_148","BATCHID":"accessor_b2"},"indices":"accessor_146","material":"CONCRETE_0-effect","mode":4}]},"Building3508-mesh":{"name":"Building3508","primitives":[{"attributes":{"NORMAL":"accessor_200","POSITION":"accessor_198","BATCHID":"accessor_b3"},"indices":"accessor_190","material":"BUILDING_DEFAULT_0-effect","mode":4},{"attributes":{"NORMAL":"accessor_200","POSITION":"accessor_198","BATCHID":"accessor_b3"},"indices":"accessor_193","material":"ROOF_DEFAULT_0-effect","mode":4},{"attributes":{"NORMAL":"accessor_200","POSITION":"accessor_198","BATCHID":"accessor_b3"},"indices":"accessor_196","material":"CONCRETE_0-effect","mode":4}]},"Building3673-mesh":{"name":"Building3673","primitives":[{"attributes":{"NORMAL":"accessor_285","POSITION":"accessor_283","BATCHID":"accessor_b4"},"indices":"accessor_275","material":"BUILDING_DEFAULT_0-effect","mode":4},{"attributes":{"NORMAL":"accessor_285","POSITION":"accessor_283","BATCHID":"accessor_b4"},"indices":"accessor_278","material":"ROOF_DEFAULT_0-effect","mode":4},{"attributes":{"NORMAL":"accessor_285","POSITION":"accessor_283","BATCHID":"accessor_b4"},"indices":"accessor_281","material":"CONCRETE_0-effect","mode":4}]},"Building_-mesh":{"name":"Building ","primitives":[{"attributes":{"NORMAL":"accessor_100","POSITION":"accessor_98","BATCHID":"accessor_b5"},"indices":"accessor_90","material":"BUILDING_DEFAULT_0-effect","mode":4},{"attributes":{"NORMAL":"accessor_100","POSITION":"accessor_98","BATCHID":"accessor_b5"},"indices":"accessor_93","material":"ROOF_DEFAULT_0-effect","mode":4},{"attributes":{"NORMAL":"accessor_100","POSITION":"accessor_98","BATCHID":"accessor_b5"},"indices":"accessor_96","material":"CONCRETE_0-effect","mode":4}]}},"nodes":{"model_gridID_59_w114518345":{"children":[],"matrix":[1,0,0,0,0,-1.62921e-7,1,0,0,-1,-1.62921e-7,0,-265.957,121.329,9.57968,1],"meshes":["Building3500-mesh"],"name":"model_gridID_59_w114518345"},"model_gridID_59_w114518345_001":{"children":[],"matrix":[1,0,0,0,0,-1.62921e-7,1,0,0,-1,-1.62921e-7,0,-262.199,91.3843,5.58801,1],"meshes":["Building_-mesh"],"name":"model_gridID_59_w114518345_001"},"model_gridID_59_w114518345_002":{"children":[],"matrix":[1,0,0,0,0,-1.62921e-7,1,0,0,-1,-1.62921e-7,0,-302.159,108.393,5.37583,1],"meshes":["Building3507-mesh"],"name":"model_gridID_59_w114518345_002"},"model_gridID_59_w114518345_003":{"children":[],"matrix":[1,0,0,0,0,-1.62921e-7,1,0,0,-1,-1.62921e-7,0,-278.834,115,5.65307,1],"meshes":["Building3508-mesh"],"name":"model_gridID_59_w114518345_003"},"model_gridID_59_w375346947":{"children":[],"matrix":[1,0,0,0,0,-1.62921e-7,1,0,0,-1,-1.62921e-7,0,-319.329,21.3801,0.980003,1],"meshes":["Building3357-mesh"],"name":"model_gridID_59_w375346947"},"model_gridID_59_w377863656":{"children":[],"matrix":[1,0,0,0,0,-1.62921e-7,1,0,0,-1,-1.62921e-7,0,-262.472,100.286,8.2358,1],"meshes":["Building3673-mesh"],"name":"model_gridID_59_w377863656"},"node_6":{"children":["model_gridID_59_w114518345","model_gridID_59_w114518345_001","model_gridID_59_w114518345_002","model_gridID_59_w114518345_003","model_gridID_59_w375346947","model_gridID_59_w377863656"],"matrix":[1,0,0,0,0,0,-1,0,0,1,0,0,0,0,0,1],"name":"Y_UP_Transform"}},"programs":{"program_0":{"attributes":["a_normal","a_position","a_batchId"],"fragmentShader":"\\data\\ECNU\\workspace\\gridID_59\\gridID_590FS","vertexShader":"\\data\\ECNU\\workspace\\gridID_59\\gridID_590VS"}},"scene":"defaultScene","scenes":{"defaultScene":{"nodes":["node_6"]}},"shaders":{"\\data\\ECNU\\workspace\\gridID_59\\gridID_590FS":{"type":35632,"uri":"data:text/plain;base64,"},"\\data\\ECNU\\workspace\\gridID_59\\gridID_590VS":{"type":35633,"uri":"data:text/plain;base64,"}},"skins":{},"techniques":{"technique0":{"attributes":{"a_normal":"normal","a_position":"position","a_batchId":"batchId"},"parameters":{"ambient":{"type":35666},"diffuse":{"type":35666},"emission":{"type":35666},"modelViewMatrix":{"semantic":"MODELVIEW","type":35676},"normal":{"semantic":"NORMAL","type":35665},"normalMatrix":{"semantic":"MODELVIEWINVERSETRANSPOSE","type":35675},"position":{"semantic":"POSITION","type":35665},"projectionMatrix":{"semantic":"PROJECTION","type":35676},"shininess":{"type":5126},"specular":{"type":35666},"batchId":{"semantic":"BATCHID","type":5126}},"program":"program_0","states":{"enable":[2929,2884]},"uniforms":{"u_ambient":"ambient","u_diffuse":"diffuse","u_emission":"emission","u_modelViewMatrix":"modelViewMatrix","u_normalMatrix":"normalMatrix","u_projectionMatrix":"projectionMatrix","u_shininess":"shininess","u_specular":"specular"}}}}