{"accessors":{"accessor_101":{"bufferView":"bufferView_332","byteOffset":990,"byteStride":0,"componentType":5123,"count":33,"type":"SCALAR"},"accessor_103":{"bufferView":"bufferView_333","byteOffset":7704,"byteStride":12,"componentType":5126,"count":85,"max":[12.3329,3.75,5.72058],"min":[-9.66508,-3.75,-10.8764],"type":"VEC3"},"accessor_105":{"bufferView":"bufferView_333","byteOffset":8724,"byteStride":12,"componentType":5126,"count":85,"max":[0.998581,1,0.998797],"min":[-0.99858,0,-0.99854],"type":"VEC3"},"accessor_133":{"bufferView":"bufferView_332","byteOffset":594,"byteStride":0,"componentType":5123,"count":84,"type":"SCALAR"},"accessor_136":{"bufferView":"bufferView_332","byteOffset":762,"byteStride":0,"componentType":5123,"count":36,"type":"SCALAR"},"accessor_138":{"bufferView":"bufferView_333","byteOffset":5664,"byteStride":12,"componentType":5126,"count":85,"max":[11.4745,3.75,6.11639],"min":[-10.5525,-3.75,-10.4816],"type":"VEC3"},"accessor_140":{"bufferView":"bufferView_333","byteOffset":6684,"byteStride":12,"componentType":5126,"count":85,"max":[0.998663,1,0.998585],"min":[-0.998623,0,-0.998546],"type":"VEC3"},"accessor_168":{"bufferView":"bufferView_332","byteOffset":1278,"byteStride":0,"componentType":5123,"count":78,"type":"SCALAR"},"accessor_171":{"bufferView":"bufferView_332","byteOffset":1434,"byteStride":0,"componentType":5123,"count":33,"type":"SCALAR"},"accessor_173":{"bufferView":"bufferView_333","byteOffset":11856,"byteStride":12,"componentType":5126,"count":87,"max":[12.3295,3.75,5.72098],"min":[-9.66954,-3.75,-10.876],"type":"VEC3"},"accessor_175":{"bufferView":"bufferView_333","byteOffset":12900,"byteStride":12,"componentType":5126,"count":87,"max":[0.99855,1,0.998814],"min":[-0.998569,0,-0.998543],"type":"VEC3"},"accessor_203":{"bufferView":"bufferView_332","byteOffset":0,"byteStride":0,"componentType":5123,"count":84,"type":"SCALAR"},"accessor_206":{"bufferView":"bufferView_332","byteOffset":168,"byteStride":0,"componentType":5123,"count":36,"type":"SCALAR"},"accessor_208":{"bufferView":"bufferView_333","byteOffset":0,"byteStride":12,"componentType":5126,"count":90,"max":[11.4699,3.75,6.11484],"min":[-10.5571,-3.75,-10.4822],"type":"VEC3"},"accessor_210":{"bufferView":"bufferView_333","byteOffset":1080,"byteStride":12,"componentType":5126,"count":90,"max":[0.998619,1,0.99863],"min":[-0.998624,0,-0.998544],"type":"VEC3"},"accessor_238":{"bufferView":"bufferView_332","byteOffset":1500,"byteStride":0,"componentType":5123,"count":78,"type":"SCALAR"},"accessor_241":{"bufferView":"bufferView_332","byteOffset":1656,"byteStride":0,"componentType":5123,"count":33,"type":"SCALAR"},"accessor_243":{"bufferView":"bufferView_333","byteOffset":13944,"byteStride":12,"componentType":5126,"count":93,"max":[5.89261,3.75,11.4258],"min":[-7.19538,-3.75,-5.11523],"type":"VEC3"},"accessor_245":{"bufferView":"bufferView_333","byteOffset":15060,"byteStride":12,"componentType":5126,"count":93,"max":[0.99739,1,0.997367],"min":[-0.997326,0,-0.997726],"type":"VEC3"},"accessor_273":{"bufferView":"bufferView_332","byteOffset":240,"byteStride":0,"componentType":5123,"count":42,"type":"SCALAR"},"accessor_276":{"bufferView":"bufferView_332","byteOffset":324,"byteStride":0,"componentType":5123,"count":15,"type":"SCALAR"},"accessor_278":{"bufferView":"bufferView_333","byteOffset":2160,"byteStride":12,"componentType":5126,"count":40,"max":[9.81429,3.75,8.56995],"min":[-4.76871,-3.75,-6.58005],"type":"VEC3"},"accessor_28":{"bufferView":"bufferView_332","byteOffset":354,"byteStride":0,"componentType":5123,"count":84,"type":"SCALAR"},"accessor_280":{"bufferView":"bufferView_333","byteOffset":2640,"byteStride":12,"componentType":5126,"count":40,"max":[0.998549,1,0.998585],"min":[-0.998645,0,-0.998858],"type":"VEC3"},"accessor_31":{"bufferView":"bufferView_332","byteOffset":522,"byteStride":0,"componentType":5123,"count":36,"type":"SCALAR"},"accessor_320":{"bufferView":"bufferView_332","byteOffset":1722,"byteStride":0,"componentType":5123,"count":426,"type":"SCALAR"},"accessor_323":{"bufferView":"bufferView_332","byteOffset":2574,"byteStride":0,"componentType":5123,"count":9,"type":"SCALAR"},"accessor_326":{"bufferView":"bufferView_332","byteOffset":2592,"byteStride":0,"componentType":5123,"count":150,"type":"SCALAR"},"accessor_328":{"bufferView":"bufferView_333","byteOffset":16176,"byteStride":12,"componentType":5126,"count":473,"max":[30.7081,13.5983,29.4084],"min":[-40.0939,-9.40171,-22.1416],"type":"VEC3"},"accessor_33":{"bufferView":"bufferView_333","byteOffset":3120,"byteStride":12,"componentType":5126,"count":106,"max":[6.39914,3.75,10.9744],"min":[-6.66086,-3.75,-5.57858],"type":"VEC3"},"accessor_330":{"bufferView":"bufferView_333","byteOffset":21852,"byteStride":12,"componentType":5126,"count":473,"max":[0.905619,1,0.903371],"min":[-0.904186,-1,-0.903263],"type":"VEC3"},"accessor_35":{"bufferView":"bufferView_333","byteOffset":4392,"byteStride":12,"componentType":5126,"count":106,"max":[0.997372,1,0.99735],"min":[-0.997368,0,-0.997378],"type":"VEC3"},"accessor_63":{"bufferView":"bufferView_332","byteOffset":1056,"byteStride":0,"componentType":5123,"count":78,"type":"SCALAR"},"accessor_66":{"bufferView":"bufferView_332","byteOffset":1212,"byteStride":0,"componentType":5123,"count":33,"type":"SCALAR"},"accessor_68":{"bufferView":"bufferView_333","byteOffset":9744,"byteStride":12,"componentType":5126,"count":88,"max":[6.913,3.75,11.2216],"min":[-6.223,-3.75,-5.33142],"type":"VEC3"},"accessor_70":{"bufferView":"bufferView_333","byteOffset":10800,"byteStride":12,"componentType":5126,"count":88,"max":[0.997552,1,0.997313],"min":[-0.997365,0,-0.99764],"type":"VEC3"},"accessor_98":{"bufferView":"bufferView_332","byteOffset":834,"byteStride":0,"componentType":5123,"count":78,"type":"SCALAR"},"accessor_b0":{"bufferView":"bufferView_b","byteOffset":0,"byteStride":0,"componentType":5123,"count":90,"type":"SCALAR"},"accessor_b1":{"bufferView":"bufferView_b","byteOffset":180,"byteStride":0,"componentType":5123,"count":40,"type":"SCALAR"},"accessor_b2":{"bufferView":"bufferView_b","byteOffset":260,"byteStride":0,"componentType":5123,"count":106,"type":"SCALAR"},"accessor_b3":{"bufferView":"bufferView_b","byteOffset":472,"byteStride":0,"componentType":5123,"count":85,"type":"SCALAR"},"accessor_b4":{"bufferView":"bufferView_b","byteOffset":642,"byteStride":0,"componentType":5123,"count":85,"type":"SCALAR"},"accessor_b5":{"bufferView":"bufferView_b","byteOffset":812,"byteStride":0,"componentType":5123,"count":88,"type":"SCALAR"},"accessor_b6":{"bufferView":"bufferView_b","byteOffset":988,"byteStride":0,"componentType":5123,"count":87,"type":"SCALAR"},"accessor_b7":{"bufferView":"bufferView_b","byteOffset":1162,"byteStride":0,"componentType":5123,"count":93,"type":"SCALAR"},"accessor_b8":{"bufferView":"bufferView_b","byteOffset":1348,"byteStride":0,"componentType":5123,"count":473,"type":"SCALAR"}},"animations":{},"asset":{"generator":"collada2gltf@cf6371beb0bdc18ba603378d5e40c966da53d385","premultipliedAlpha":true,"profile":{"api":"WebGL","version":"1.0.2"},"version":"1.0"},"bufferViews":{"bufferView_332":{"buffer":"\\data\\ECNU\\workspace\\gridID_19\\gridID_19","byteLength":2892,"byteOffset":0,"target":34963},"bufferView_333":{"buffer":"\\data\\ECNU\\workspace\\gridID_19\\gridID_19","byteLength":27528,"byteOffset":2892,"target":34962},"bufferView_b":{"buffer":"buffer_b","byteLength":2294,"byteOffset":0,"target":34962}},"buffers":{"\\data\\ECNU\\workspace\\gridID_19\\gridID_19":{"byteLength":30420,"type":"arraybuffer","uri":"data:application/octet-stream;base64,"},"buffer_b":{"type":"arraybuffer","byteLength":2294,"uri":"data:application/octet-stream;base64,"}},"materials":{"BUILDING_DEFAULT_0-effect":{"name":"BUILDING_DEFAULT_0","technique":"technique0","values":{"ambient":[0,0,0,1],"diffuse":[0.723055,0.708376,0.672443,1],"emission":[0,0,0,1],"shininess":50,"specular":[0.5,0.5,0.5,1]}},"CONCRETE_0-effect":{"name":"CONCRETE_0","technique":"technique0","values":{"ambient":[0,0,0,1],"diffuse":[0.309469,0.327778,0.309469,1],"emission":[0,0,0,1],"shininess":50,"specular":[0.5,0.5,0.5,1]}},"ROOF_DEFAULT_0-effect":{"name":"ROOF_DEFAULT_0","technique":"technique0","values":{"ambient":[0,0,0,1],"diffuse":[0.603827,0.381326,0.291771,1],"emission":[0,0,0,1],"shininess":50,"specular":[0.5,0.5,0.5,1]}}},"meshes":{"Building3334-mesh":{"name":"Building3334","primitives":[{"attributes":{"NORMAL":"accessor_210","POSITION":"accessor_208","BATCHID":"accessor_b0"},"indices":"accessor_203","material":"BUILDING_DEFAULT_0-effect","mode":4},{"attributes":{"NORMAL":"accessor_210","POSITION":"accessor_208","BATCHID":"accessor_b0"},"indices":"accessor_206","material":"ROOF_DEFAULT_0-effect","mode":4}]},"Building3338-mesh":{"name":"Building3338","primitives":[{"attributes":{"NORMAL":"accessor_280","POSITION":"accessor_278","BATCHID":"accessor_b1"},"indices":"accessor_273","material":"BUILDING_DEFAULT_0-effect","mode":4},{"attributes":{"NORMAL":"accessor_280","POSITION":"accessor_278","BATCHID":"accessor_b1"},"indices":"accessor_276","material":"ROOF_DEFAULT_0-effect","mode":4}]},"Building3339-mesh":{"name":"Building3339","primitives":[{"attributes":{"NORMAL":"accessor_35","POSITION":"accessor_33","BATCHID":"accessor_b2"},"indices":"accessor_28","material":"BUILDING_DEFAULT_0-effect","mode":4},{"attributes":{"NORMAL":"accessor_35","POSITION":"accessor_33","BATCHID":"accessor_b2"},"indices":"accessor_31","material":"ROOF_DEFAULT_0-effect","mode":4}]},"Building3340-mesh":{"name":"Building3340","primitives":[{"attributes":{"NORMAL":"accessor_140","POSITION":"accessor_138","BATCHID":"accessor_b3"},"indices":"accessor_133","material":"BUILDING_DEFAULT_0-effect","mode":4},{"attributes":{"NORMAL":"accessor_140","POSITION":"accessor_138","BATCHID":"accessor_b3"},"indices":"accessor_136","material":"ROOF_DEFAULT_0-effect","mode":4}]},"Building3342-mesh":{"name":"Building3342","primitives":[{"attributes":{"NORMAL":"accessor_105","POSITION":"accessor_103","BATCHID":"accessor_b4"},"indices":"accessor_98","material":"BUILDING_DEFAULT_0-effect","mode":4},{"attributes":{"NORMAL":"accessor_105","POSITION":"accessor_103","BATCHID":"accessor_b4"},"indices":"accessor_101","material":"ROOF_DEFAULT_0-effect","mode":4}]},"Building3344-mesh":{"name":"Building3344","primitives":[{"attributes":{"NORMAL":"accessor_70","POSITION":"accessor_68","BATCHID":"accessor_b5"},"indices":"accessor_63","material":"BUILDING_DEFAULT_0-effect","mode":4},{"attributes":{"NORMAL":"accessor_70","POSITION":"accessor_68","BATCHID":"accessor_b5"},"indices":"accessor_66","material":"ROOF_DEFAULT_0-effect","mode":4}]},"Building3347-mesh":{"name":"Building3347","primitives":[{"attributes":{"NORMAL":"accessor_175","POSITION":"accessor_173","BATCHID":"accessor_b6"},"indices":"accessor_168","material":"BUILDING_DEFAULT_0-effect","mode":4},{"attributes":{"NORMAL":"accessor_175","POSITION":"accessor_173","BATCHID":"accessor_b6"},"indices":"accessor_171","material":"ROOF_DEFAULT_0-effect","mode":4}]},"Building3348-mesh":{"name":"Building3348","primitives":[{"attributes":{"NORMAL":"accessor_245","POSITION":"accessor_243","BATCHID":"accessor_b7"},"indices":"accessor_238","material":"BUILDING_DEFAULT_0-effect","mode":4},{"attributes":{"NORMAL":"accessor_245","POSITION":"accessor_243","BATCHID":"accessor_b7"},"indices":"accessor_241","material":"ROOF_DEFAULT_0-effect","mode":4}]},"Building3656-mesh":{"name":"Building3656","primitives":[{"attributes":{"NORMAL":"accessor_330","POSITION":"accessor_328","BATCHID":"accessor_b8"},"indices":"accessor_320","material":"BUILDING_DEFAULT_0-effect","mode":4},{"attributes":{"NORMAL":"accessor_330","POSITION":"accessor_328","BATCHID":"accessor_b8"},"indices":"accessor_323","material":"ROOF_DEFAULT_0-effect","mode":4},{"attributes":{"NORMAL":"accessor_330","POSITION":"accessor_328","BATCHID":"accessor_b8"},"indices":"accessor_326","material":"CONCRETE_0-effect","mode":4}]}},"nodes":{"model_gridID_19_w389699489":{"children":[],"matrix":[1,0,0,0,0,-1.62921e-7,1,0,0,-1,-1.62921e-7,0,-10.7021,-435.319,3.74993,1],"meshes":["Building3339-mesh"],"name":"model_gridID_19_w389699489"},"model_gridID_19_w389699489_001":{"children":[],"matrix":[1,0,0,0,0,-1.62921e-7,1,0,0,-1,-1.62921e-7,0,1.63499,-428.236,3.74993,1],"meshes":["Building3344-mesh"],"name":"model_gridID_19_w389699489_001"},"model_gridID_19_w389699491":{"children":[],"matrix":[1,0,0,0,0,-1.62921e-7,1,0,0,-1,-1.62921e-7,0,-36.3399,-377.89,3.74994,1],"meshes":["Building3342-mesh"],"name":"model_gridID_19_w389699491"},"model_gridID_19_w389699491_001":{"children":[],"matrix":[1,0,0,0,0,-1.62921e-7,1,0,0,-1,-1.62921e-7,0,-57.2515,-383.039,3.74994,1],"meshes":["Building3340-mesh"],"name":"model_gridID_19_w389699491_001"},"model_gridID_19_w389699492":{"children":[],"matrix":[1,0,0,0,0,-1.62921e-7,1,0,0,-1,-1.62921e-7,0,-35.2225,-344.952,3.74994,1],"meshes":["Building3347-mesh"],"name":"model_gridID_19_w389699492"},"model_gridID_19_w389699492_001":{"children":[],"matrix":[1,0,0,0,0,-1.62921e-7,1,0,0,-1,-1.62921e-7,0,-56.1329,-350.101,3.74994,1],"meshes":["Building3334-mesh"],"name":"model_gridID_19_w389699492_001"},"model_gridID_19_w389699493":{"children":[],"matrix":[1,0,0,0,0,-1.62921e-7,1,0,0,-1,-1.62921e-7,0,-22.9606,-441.601,3.74993,1],"meshes":["Building3348-mesh"],"name":"model_gridID_19_w389699493"},"model_gridID_19_w389699502":{"children":[],"matrix":[1,0,0,0,0,-1.62921e-7,1,0,0,-1,-1.62921e-7,0,-20.1613,-407.579,3.74993,1],"meshes":["Building3338-mesh"],"name":"model_gridID_19_w389699502"},"model_gridID_19_w400178620":{"children":[],"matrix":[1,0,0,0,0,-1.62921e-7,1,0,0,-1,-1.62921e-7,0,29.8419,-360.949,9.40165,1],"meshes":["Building3656-mesh"],"name":"model_gridID_19_w400178620"},"node_9":{"children":["model_gridID_19_w389699489","model_gridID_19_w389699489_001","model_gridID_19_w389699491","model_gridID_19_w389699491_001","model_gridID_19_w389699492","model_gridID_19_w389699492_001","model_gridID_19_w389699493","model_gridID_19_w389699502","model_gridID_19_w400178620"],"matrix":[1,0,0,0,0,0,-1,0,0,1,0,0,0,0,0,1],"name":"Y_UP_Transform"}},"programs":{"program_0":{"attributes":["a_normal","a_position","a_batchId"],"fragmentShader":"\\data\\ECNU\\workspace\\gridID_19\\gridID_190FS","vertexShader":"\\data\\ECNU\\workspace\\gridID_19\\gridID_190VS"}},"scene":"defaultScene","scenes":{"defaultScene":{"nodes":["node_9"]}},"shaders":{"\\data\\ECNU\\workspace\\gridID_19\\gridID_190FS":{"type":35632,"uri":"data:text/plain;base64,"},"\\data\\ECNU\\workspace\\gridID_19\\gridID_190VS":{"type":35633,"uri":"data:text/plain;base64,"}},"skins":{},"techniques":{"technique0":{"attributes":{"a_normal":"normal","a_position":"position","a_batchId":"batchId"},"parameters":{"ambient":{"type":35666},"diffuse":{"type":35666},"emission":{"type":35666},"modelViewMatrix":{"semantic":"MODELVIEW","type":35676},"normal":{"semantic":"NORMAL","type":35665},"normalMatrix":{"semantic":"MODELVIEWINVERSETRANSPOSE","type":35675},"position":{"semantic":"POSITION","type":35665},"projectionMatrix":{"semantic":"PROJECTION","type":35676},"shininess":{"type":5126},"specular":{"type":35666},"batchId":{"semantic":"BATCHID","type":5126}},"program":"program_0","states":{"enable":[2929,2884]},"uniforms":{"u_ambient":"ambient","u_diffuse":"diffuse","u_emission":"emission","u_modelViewMatrix":"modelViewMatrix","u_normalMatrix":"normalMatrix","u_projectionMatrix":"projectionMatrix","u_shininess":"shininess","u_specular":"specular"}}}}